%FSLAX66Y66*%
%MOIN*%
%SFA1B1*%

%IPPOS*%
%ADD13C,0.068000*%
%ADD14C,0.086740*%
%ADD15C,0.064338*%
%ADD16C,0.143826*%
%ADD17C,0.185165*%
%ADD18C,0.058000*%
%LNesp32-hwe-uno-1*%
%LPD*%
G54D13*
X2450000Y550000D03*
X2350000D03*
X2250000D03*
X2150000D03*
X2050000D03*
X1950000D03*
X1850000D03*
X1750000D03*
X1650000D03*
X1550000D03*
X1450000D03*
X1350000D03*
X1250000D03*
X1150000D03*
X1050000D03*
X950000D03*
X850000D03*
X750000D03*
X650000D03*
Y1550000D03*
X750000D03*
X850000D03*
X950000D03*
X1050000D03*
X1150000D03*
X1250000D03*
X1350000D03*
X1450000D03*
X1550000D03*
X1650000D03*
X1750000D03*
X1850000D03*
X1950000D03*
X2050000D03*
X2150000D03*
X2250000D03*
X2350000D03*
X2450000D03*
G54D14*
X2500000Y2000000D03*
X2400000D03*
X2300000D03*
X2100000D03*
X2000000D03*
X1900000D03*
X1800000D03*
X2200000D03*
X1800000Y100000D03*
X1700000D03*
X1600000D03*
X1400000D03*
X1300000D03*
X1200000D03*
X1100000D03*
X1500000D03*
X740000Y2000000D03*
X840000D03*
X940000D03*
X1140000D03*
X1240000D03*
X1340000D03*
X1440000D03*
X1540000D03*
X1640000D03*
X1040000D03*
X2500000Y100000D03*
X2400000D03*
X2300000D03*
X2100000D03*
X2000000D03*
X2200000D03*
G54D15*
X450000Y1565000D03*
X371259D03*
X450000Y1466574D03*
X371259D03*
G54D16*
X264566Y1752795D03*
Y1278779D03*
G54D17*
X402755Y353740D03*
X286614Y160826D03*
X166535Y353740D03*
G54D18*
X1200000Y1100000D03*
X1500000Y350000D03*
X1400000D03*
X1100000Y1215000D03*
X1405000Y1180000D03*
X1050000Y730000D03*
X1150000Y240000D03*
M02*