%FSLAX66Y66*%
%MOIN*%
%SFA1B1*%

%IPPOS*%
%ADD12C,0.010000*%
%ADD19C,0.025000*%
%ADD20C,0.060000*%
%ADD21C,0.078740*%
%ADD22C,0.056338*%
%ADD23C,0.135827*%
%ADD24C,0.177165*%
%ADD25C,0.050000*%
%LNesp32-hwe-uno-1*%
%LPD*%
G36*
X2600000Y2040000D02*
Y1590000D01*
X2700000Y1490000*
Y200000*
X2600000Y100000*
Y0*
X0*
Y2100000*
X2540000*
X2600000Y2040000*
G37*
%LNesp32-hwe-uno-2*%
%LPC*%
G36*
X1046500Y2049370D02*
X1045000D01*
Y2005000*
X1089370*
Y2006500*
X1086003Y2019055*
X1079507Y2030314*
X1070314Y2039507*
X1059055Y2046003*
X1046500Y2049370*
G37*
G36*
X1035000D02*
X1033500D01*
X1020944Y2046003*
X1009685Y2039507*
X1000492Y2030314*
X993996Y2019055*
X990629Y2006500*
Y2005000*
X1035000*
Y2049370*
G37*
G36*
X2505842Y2044370D02*
X2494157D01*
X2482874Y2041346*
X2472755Y2035503*
X2464496Y2027244*
X2458653Y2017125*
X2455629Y2005842*
Y1994157*
X2458653Y1982874*
X2464496Y1972755*
X2472755Y1964496*
X2482874Y1958653*
X2494157Y1955629*
X2505842*
X2517125Y1958653*
X2527244Y1964496*
X2535503Y1972755*
X2541346Y1982874*
X2544370Y1994157*
Y2005842*
X2541346Y2017125*
X2535503Y2027244*
X2527244Y2035503*
X2517125Y2041346*
X2505842Y2044370*
G37*
G36*
X2405842D02*
X2394157D01*
X2382874Y2041346*
X2372755Y2035503*
X2364496Y2027244*
X2358653Y2017125*
X2355629Y2005842*
Y1994157*
X2358653Y1982874*
X2364496Y1972755*
X2372755Y1964496*
X2382874Y1958653*
X2394157Y1955629*
X2405842*
X2417125Y1958653*
X2427244Y1964496*
X2435503Y1972755*
X2441346Y1982874*
X2444370Y1994157*
Y2005842*
X2441346Y2017125*
X2435503Y2027244*
X2427244Y2035503*
X2417125Y2041346*
X2405842Y2044370*
G37*
G36*
X2305842D02*
X2294157D01*
X2282874Y2041346*
X2272755Y2035503*
X2264496Y2027244*
X2258653Y2017125*
X2255629Y2005842*
Y1994157*
X2258653Y1982874*
X2264496Y1972755*
X2272755Y1964496*
X2282874Y1958653*
X2294157Y1955629*
X2305842*
X2317125Y1958653*
X2327244Y1964496*
X2335503Y1972755*
X2341346Y1982874*
X2344370Y1994157*
Y2005842*
X2341346Y2017125*
X2335503Y2027244*
X2327244Y2035503*
X2317125Y2041346*
X2305842Y2044370*
G37*
G36*
X2205842D02*
X2194157D01*
X2182874Y2041346*
X2172755Y2035503*
X2164496Y2027244*
X2158653Y2017125*
X2155629Y2005842*
Y1994157*
X2158653Y1982874*
X2164496Y1972755*
X2172755Y1964496*
X2182874Y1958653*
X2194157Y1955629*
X2205842*
X2217125Y1958653*
X2227244Y1964496*
X2235503Y1972755*
X2241346Y1982874*
X2244370Y1994157*
Y2005842*
X2241346Y2017125*
X2235503Y2027244*
X2227244Y2035503*
X2217125Y2041346*
X2205842Y2044370*
G37*
G36*
X2105842D02*
X2094157D01*
X2082874Y2041346*
X2072755Y2035503*
X2064496Y2027244*
X2058653Y2017125*
X2055629Y2005842*
Y1994157*
X2058653Y1982874*
X2064496Y1972755*
X2072755Y1964496*
X2082874Y1958653*
X2094157Y1955629*
X2105842*
X2117125Y1958653*
X2127244Y1964496*
X2135503Y1972755*
X2141346Y1982874*
X2144370Y1994157*
Y2005842*
X2141346Y2017125*
X2135503Y2027244*
X2127244Y2035503*
X2117125Y2041346*
X2105842Y2044370*
G37*
G36*
X2005842D02*
X1994157D01*
X1982874Y2041346*
X1972755Y2035503*
X1964496Y2027244*
X1958653Y2017125*
X1955629Y2005842*
Y1994157*
X1958653Y1982874*
X1964496Y1972755*
X1972755Y1964496*
X1982874Y1958653*
X1994157Y1955629*
X2005842*
X2017125Y1958653*
X2027244Y1964496*
X2035503Y1972755*
X2041346Y1982874*
X2044370Y1994157*
Y2005842*
X2041346Y2017125*
X2035503Y2027244*
X2027244Y2035503*
X2017125Y2041346*
X2005842Y2044370*
G37*
G36*
X1905842D02*
X1894157D01*
X1882874Y2041346*
X1872755Y2035503*
X1864496Y2027244*
X1858653Y2017125*
X1855629Y2005842*
Y1994157*
X1858653Y1982874*
X1862240Y1976661*
X1592791Y1707208*
X1590578Y1703901*
X1589803Y1700000*
Y1555996*
X1584803Y1555338*
X1582614Y1563507*
X1578007Y1571492*
X1571492Y1578007*
X1563507Y1582614*
X1554606Y1585000*
X1545393*
X1536492Y1582614*
X1528507Y1578007*
X1521992Y1571492*
X1517385Y1563507*
X1515196Y1555338*
X1510196Y1555996*
Y1710775*
X1768334Y1968917*
X1772755Y1964496*
X1782874Y1958653*
X1794157Y1955629*
X1805842*
X1817125Y1958653*
X1827244Y1964496*
X1835503Y1972755*
X1841346Y1982874*
X1844370Y1994157*
Y2005842*
X1841346Y2017125*
X1835503Y2027244*
X1827244Y2035503*
X1817125Y2041346*
X1805842Y2044370*
X1794157*
X1782874Y2041346*
X1772755Y2035503*
X1764496Y2027244*
X1758653Y2017125*
X1755629Y2005842*
Y1994157*
X1757555Y1986972*
X1492791Y1722208*
X1490578Y1718901*
X1489803Y1715000*
Y1555996*
X1484803Y1555338*
X1482614Y1563507*
X1478007Y1571492*
X1471492Y1578007*
X1463507Y1582614*
X1454606Y1585000*
X1445393*
X1436492Y1582614*
X1428507Y1578007*
X1421992Y1571492*
X1417385Y1563507*
X1415196Y1555338*
X1410196Y1555996*
Y1725775*
X1447208Y1762791*
X1449421Y1766098*
X1450196Y1770000*
Y1956795*
X1457125Y1958653*
X1467244Y1964496*
X1475503Y1972755*
X1481346Y1982874*
X1484370Y1994157*
Y2005842*
X1481346Y2017125*
X1475503Y2027244*
X1467244Y2035503*
X1457125Y2041346*
X1445842Y2044370*
X1434157*
X1422874Y2041346*
X1412755Y2035503*
X1404496Y2027244*
X1398653Y2017125*
X1395629Y2005842*
Y1994157*
X1398653Y1982874*
X1404496Y1972755*
X1412755Y1964496*
X1422874Y1958653*
X1429803Y1956795*
Y1774224*
X1392791Y1737208*
X1390578Y1733901*
X1389803Y1730000*
Y1555996*
X1384803Y1555338*
X1382614Y1563507*
X1378007Y1571492*
X1371492Y1578007*
X1363507Y1582614*
X1354606Y1585000*
X1345393*
X1336492Y1582614*
X1328507Y1578007*
X1321992Y1571492*
X1317385Y1563507*
X1315196Y1555338*
X1310196Y1555996*
Y1703976*
X1347208Y1740988*
X1349421Y1744299*
X1350196Y1748200*
Y1956795*
X1357125Y1958653*
X1367244Y1964496*
X1375503Y1972755*
X1381346Y1982874*
X1384370Y1994157*
Y2005842*
X1381346Y2017125*
X1375503Y2027244*
X1367244Y2035503*
X1357125Y2041346*
X1345842Y2044370*
X1334157*
X1322874Y2041346*
X1312755Y2035503*
X1304496Y2027244*
X1298653Y2017125*
X1295629Y2005842*
Y1994157*
X1298653Y1982874*
X1304496Y1972755*
X1312755Y1964496*
X1322874Y1958653*
X1329803Y1956795*
Y1752421*
X1292791Y1715409*
X1290578Y1712102*
X1289803Y1708200*
Y1555996*
X1284803Y1555338*
X1282614Y1563507*
X1278007Y1571492*
X1271492Y1578007*
X1263507Y1582614*
X1254606Y1585000*
X1245393*
X1236492Y1582614*
X1228507Y1578007*
X1221992Y1571492*
X1217385Y1563507*
X1215196Y1555338*
X1210196Y1555996*
Y1955775*
X1216661Y1962240*
X1222874Y1958653*
X1234157Y1955629*
X1245842*
X1257125Y1958653*
X1267244Y1964496*
X1275503Y1972755*
X1281346Y1982874*
X1284370Y1994157*
Y2005842*
X1281346Y2017125*
X1275503Y2027244*
X1267244Y2035503*
X1257125Y2041346*
X1245842Y2044370*
X1234157*
X1222874Y2041346*
X1212755Y2035503*
X1204496Y2027244*
X1198653Y2017125*
X1195629Y2005842*
Y1994157*
X1198653Y1982874*
X1202240Y1976661*
X1192791Y1967208*
X1190578Y1963901*
X1189803Y1960000*
Y1571059*
X1184803Y1569716*
X1182007Y1574559*
X1174559Y1582007*
X1165440Y1587275*
X1155267Y1590000*
X1155000*
Y1550000*
Y1510000*
X1155267*
X1165440Y1512724*
X1174559Y1517992*
X1182007Y1525440*
X1184803Y1530283*
X1189803Y1528940*
Y1128326*
X1188421Y1127956*
X1181578Y1124003*
X1175996Y1118421*
X1172043Y1111578*
X1170000Y1103948*
Y1096051*
X1172043Y1088421*
X1175996Y1081578*
X1181578Y1075992*
X1188421Y1072043*
X1196051Y1070000*
X1203948*
X1211578Y1072043*
X1218421Y1075992*
X1224007Y1081578*
X1227956Y1088421*
X1230000Y1096051*
Y1103948*
X1227956Y1111578*
X1224007Y1118421*
X1218421Y1124003*
X1211578Y1127956*
X1210196Y1128326*
Y1544003*
X1215196Y1544661*
X1217385Y1536492*
X1221992Y1528507*
X1228507Y1521992*
X1236492Y1517385*
X1245393Y1515000*
X1254606*
X1263507Y1517385*
X1271492Y1521992*
X1278007Y1528507*
X1282614Y1536492*
X1284803Y1544661*
X1289803Y1544003*
Y1104224*
X766480Y580901*
X763507Y582614*
X754606Y585000*
X745393*
X736492Y582614*
X728507Y578007*
X721992Y571492*
X717385Y563507*
X715000Y554606*
Y545393*
X717385Y536492*
X721992Y528507*
X728507Y521992*
X736492Y517385*
X745393Y515000*
X754606*
X763507Y517385*
X771492Y521992*
X778007Y528507*
X782614Y536492*
X785000Y545393*
Y554606*
X782614Y563507*
X780901Y566480*
X1307208Y1092791*
X1309421Y1096098*
X1310196Y1100000*
Y1544003*
X1315196Y1544661*
X1317385Y1536492*
X1321992Y1528507*
X1328507Y1521992*
X1336492Y1517385*
X1345393Y1515000*
X1354606*
X1363507Y1517385*
X1371492Y1521992*
X1378007Y1528507*
X1382614Y1536492*
X1384803Y1544661*
X1389803Y1544003*
Y1205866*
X1386578Y1204007*
X1380996Y1198421*
X1377043Y1191578*
X1375000Y1183948*
Y1176051*
X1377043Y1168421*
X1380996Y1161578*
X1386578Y1155992*
X1393421Y1152043*
X1401051Y1150000*
X1408948*
X1416578Y1152043*
X1423421Y1155992*
X1429003Y1161578*
X1432956Y1168421*
X1435000Y1176051*
Y1183948*
X1432956Y1191578*
X1429003Y1198421*
X1423421Y1204007*
X1416578Y1207956*
X1410196Y1209665*
Y1544003*
X1415196Y1544661*
X1417385Y1536492*
X1421992Y1528507*
X1428507Y1521992*
X1436492Y1517385*
X1445393Y1515000*
X1454606*
X1463507Y1517385*
X1471492Y1521992*
X1478007Y1528507*
X1482614Y1536492*
X1484803Y1544661*
X1489803Y1544003*
Y1184224*
X1062818Y757240*
X1061578Y757956*
X1053948Y760000*
X1046051*
X1038421Y757956*
X1031578Y754007*
X1025992Y748421*
X1022043Y741578*
X1020000Y733948*
Y726051*
X1022043Y718421*
X1025992Y711578*
X1031578Y705992*
X1038421Y702043*
X1046051Y700000*
X1053948*
X1061578Y702043*
X1068421Y705992*
X1074007Y711578*
X1077956Y718421*
X1080000Y726051*
Y733948*
X1077956Y741578*
X1077240Y742818*
X1507208Y1172791*
X1509421Y1176098*
X1510196Y1180000*
Y1544003*
X1515196Y1544661*
X1517385Y1536492*
X1521992Y1528507*
X1528507Y1521992*
X1536492Y1517385*
X1545393Y1515000*
X1554606*
X1563507Y1517385*
X1571492Y1521992*
X1578007Y1528507*
X1582614Y1536492*
X1584803Y1544661*
X1589803Y1544003*
Y1204224*
X966480Y580901*
X963507Y582614*
X954606Y585000*
X945393*
X936492Y582614*
X928507Y578007*
X921992Y571492*
X917385Y563507*
X915000Y554606*
Y545393*
X917385Y536492*
X921992Y528507*
X928507Y521992*
X936492Y517385*
X945393Y515000*
X954606*
X963507Y517385*
X971492Y521992*
X978007Y528507*
X982614Y536492*
X985000Y545393*
Y554606*
X982614Y563507*
X980901Y566480*
X1607208Y1192791*
X1609421Y1196098*
X1610196Y1200000*
Y1544003*
X1615196Y1544661*
X1617385Y1536492*
X1621992Y1528507*
X1628507Y1521992*
X1636492Y1517385*
X1645393Y1515000*
X1654606*
X1663507Y1517385*
X1671492Y1521992*
X1678007Y1528507*
X1682614Y1536492*
X1685000Y1545393*
Y1554606*
X1682614Y1563507*
X1678007Y1571492*
X1671492Y1578007*
X1663507Y1582614*
X1654606Y1585000*
X1645393*
X1636492Y1582614*
X1628507Y1578007*
X1621992Y1571492*
X1617385Y1563507*
X1615196Y1555338*
X1610196Y1555996*
Y1695775*
X1876661Y1962240*
X1882874Y1958653*
X1894157Y1955629*
X1905842*
X1917125Y1958653*
X1927244Y1964496*
X1935503Y1972755*
X1941346Y1982874*
X1944370Y1994157*
Y2005842*
X1941346Y2017125*
X1935503Y2027244*
X1927244Y2035503*
X1917125Y2041346*
X1905842Y2044370*
G37*
G36*
X1645842D02*
X1634157D01*
X1622874Y2041346*
X1612755Y2035503*
X1604496Y2027244*
X1598653Y2017125*
X1595629Y2005842*
Y1994157*
X1598653Y1982874*
X1604496Y1972755*
X1612755Y1964496*
X1622874Y1958653*
X1634157Y1955629*
X1645842*
X1657125Y1958653*
X1667244Y1964496*
X1675503Y1972755*
X1681346Y1982874*
X1684370Y1994157*
Y2005842*
X1681346Y2017125*
X1675503Y2027244*
X1667244Y2035503*
X1657125Y2041346*
X1645842Y2044370*
G37*
G36*
X1545842D02*
X1534157D01*
X1522874Y2041346*
X1512755Y2035503*
X1504496Y2027244*
X1498653Y2017125*
X1495629Y2005842*
Y1994157*
X1498653Y1982874*
X1504496Y1972755*
X1512755Y1964496*
X1522874Y1958653*
X1534157Y1955629*
X1545842*
X1557125Y1958653*
X1567244Y1964496*
X1575503Y1972755*
X1581346Y1982874*
X1584370Y1994157*
Y2005842*
X1581346Y2017125*
X1575503Y2027244*
X1567244Y2035503*
X1557125Y2041346*
X1545842Y2044370*
G37*
G36*
X945842D02*
X934157D01*
X922874Y2041346*
X912755Y2035503*
X904496Y2027244*
X898653Y2017125*
X895629Y2005842*
Y1994157*
X898653Y1982874*
X904496Y1972755*
X912755Y1964496*
X922874Y1958653*
X934157Y1955629*
X945842*
X957125Y1958653*
X967244Y1964496*
X975503Y1972755*
X981346Y1982874*
X984370Y1994157*
Y2005842*
X981346Y2017125*
X975503Y2027244*
X967244Y2035503*
X957125Y2041346*
X945842Y2044370*
G37*
G36*
X845842D02*
X834157D01*
X822874Y2041346*
X812755Y2035503*
X804496Y2027244*
X798653Y2017125*
X795629Y2005842*
Y1994157*
X798653Y1982874*
X804496Y1972755*
X812755Y1964496*
X822874Y1958653*
X834157Y1955629*
X845842*
X857125Y1958653*
X867244Y1964496*
X875503Y1972755*
X881346Y1982874*
X884370Y1994157*
Y2005842*
X881346Y2017125*
X875503Y2027244*
X867244Y2035503*
X857125Y2041346*
X845842Y2044370*
G37*
G36*
X745842D02*
X734157D01*
X722874Y2041346*
X712755Y2035503*
X704496Y2027244*
X698653Y2017125*
X695629Y2005842*
Y1994157*
X698653Y1982874*
X704496Y1972755*
X712755Y1964496*
X722874Y1958653*
X734157Y1955629*
X745842*
X757125Y1958653*
X767244Y1964496*
X775503Y1972755*
X781346Y1982874*
X784370Y1994157*
Y2005842*
X781346Y2017125*
X775503Y2027244*
X767244Y2035503*
X757125Y2041346*
X745842Y2044370*
G37*
G36*
X1089370Y1995000D02*
X1045000D01*
Y1950629*
X1046500*
X1059055Y1953996*
X1070314Y1960496*
X1079507Y1969685*
X1086003Y1980944*
X1089370Y1993500*
Y1995000*
G37*
G36*
X1035000D02*
X990629D01*
Y1993500*
X993996Y1980944*
X1000492Y1969685*
X1009685Y1960496*
X1020944Y1953996*
X1033500Y1950629*
X1035000*
Y1995000*
G37*
G36*
X606649Y2067500D02*
X593350D01*
X580311Y2064905*
X568027Y2059818*
X556972Y2052429*
X547570Y2043027*
X540181Y2031972*
X535094Y2019688*
X532500Y2006649*
Y1993350*
X535094Y1980311*
X540181Y1968027*
X547570Y1956972*
X556972Y1947570*
X568027Y1940181*
X580311Y1935094*
X593350Y1932500*
X606649*
X619688Y1935094*
X631972Y1940181*
X643027Y1947570*
X652429Y1956972*
X659818Y1968027*
X664905Y1980311*
X667500Y1993350*
Y2006649*
X664905Y2019688*
X659818Y2031972*
X652429Y2043027*
X643027Y2052429*
X631972Y2059818*
X619688Y2064905*
X606649Y2067500*
G37*
G36*
X272240Y1830708D02*
X269566D01*
Y1757795*
X342480*
Y1760468*
X339484Y1775523*
X333614Y1789700*
X325086Y1802460*
X314232Y1813314*
X301472Y1821842*
X287291Y1827716*
X272240Y1830708*
G37*
G36*
X259566D02*
X256893D01*
X241838Y1827716*
X227661Y1821842*
X214901Y1813314*
X204047Y1802460*
X195519Y1789700*
X189645Y1775523*
X186653Y1760468*
Y1757795*
X259566*
Y1830708*
G37*
G36*
X342480Y1747795D02*
X269566D01*
Y1674881*
X272240*
X287291Y1677874*
X301472Y1683748*
X314232Y1692275*
X325086Y1703129*
X333614Y1715889*
X339484Y1730066*
X342480Y1745122*
Y1747795*
G37*
G36*
X259566D02*
X186653D01*
Y1745122*
X189645Y1730066*
X195519Y1715889*
X204047Y1703129*
X214901Y1692275*
X227661Y1683748*
X241838Y1677874*
X256893Y1674881*
X259566*
Y1747795*
G37*
G36*
X1145842Y2044370D02*
X1134157D01*
X1122874Y2041346*
X1112755Y2035503*
X1104496Y2027244*
X1098653Y2017125*
X1095629Y2005842*
Y1994157*
X1098653Y1982874*
X1104496Y1972755*
X1112755Y1964496*
X1122874Y1958653*
X1129803Y1956795*
Y1784921*
X1092791Y1747909*
X1090578Y1744602*
X1089803Y1740700*
Y1555996*
X1084803Y1555338*
X1082614Y1563507*
X1078007Y1571492*
X1071492Y1578007*
X1063507Y1582614*
X1054606Y1585000*
X1045393*
X1036492Y1582614*
X1028507Y1578007*
X1021992Y1571492*
X1017385Y1563507*
X1015000Y1554606*
Y1545393*
X1017385Y1536492*
X1021992Y1528507*
X1028507Y1521992*
X1036492Y1517385*
X1045393Y1515000*
X1054606*
X1063507Y1517385*
X1071492Y1521992*
X1078007Y1528507*
X1082614Y1536492*
X1084803Y1544661*
X1089803Y1544003*
Y1243326*
X1088421Y1242956*
X1081578Y1239007*
X1075992Y1233421*
X1072043Y1226578*
X1070000Y1218948*
Y1211051*
X1072043Y1203421*
X1075992Y1196578*
X1081578Y1190992*
X1088421Y1187043*
X1096051Y1185000*
X1103948*
X1111578Y1187043*
X1118421Y1190992*
X1124003Y1196578*
X1127956Y1203421*
X1130000Y1211051*
Y1218948*
X1127956Y1226578*
X1124003Y1233421*
X1118421Y1239007*
X1111578Y1242956*
X1110196Y1243326*
Y1528940*
X1115196Y1530283*
X1117992Y1525440*
X1125440Y1517992*
X1134559Y1512724*
X1144732Y1510000*
X1145000*
Y1550000*
Y1590000*
X1144732*
X1134559Y1587275*
X1125440Y1582007*
X1117992Y1574559*
X1115196Y1569716*
X1110196Y1571059*
Y1736476*
X1147208Y1773488*
X1149421Y1776799*
X1150196Y1780700*
Y1956795*
X1157125Y1958653*
X1167244Y1964496*
X1175503Y1972755*
X1181346Y1982874*
X1184370Y1994157*
Y2005842*
X1181346Y2017125*
X1175503Y2027244*
X1167244Y2035503*
X1157125Y2041346*
X1145842Y2044370*
G37*
G36*
X454366Y1598169D02*
X445633D01*
X437196Y1595909*
X429633Y1591543*
X423456Y1585366*
X419090Y1577803*
X416830Y1569366*
Y1560633*
X419090Y1552196*
X423456Y1544633*
X429633Y1538456*
X437196Y1534090*
X445633Y1531830*
X454366*
X462803Y1534090*
X470366Y1538456*
X476543Y1544633*
X480909Y1552196*
X483169Y1560633*
Y1569366*
X480909Y1577803*
X476543Y1585366*
X470366Y1591543*
X462803Y1595909*
X454366Y1598169*
G37*
G36*
X375625D02*
X366893D01*
X358456Y1595909*
X350893Y1591543*
X344716Y1585366*
X340350Y1577803*
X338090Y1569366*
Y1560633*
X340350Y1552196*
X344716Y1544633*
X350893Y1538456*
X358456Y1534090*
X366893Y1531830*
X375625*
X384062Y1534090*
X391625Y1538456*
X397803Y1544633*
X402169Y1552196*
X404429Y1560633*
Y1569366*
X402169Y1577803*
X397803Y1585366*
X391625Y1591543*
X384062Y1595909*
X375625Y1598169*
G37*
G36*
X2254606Y1585000D02*
X2245393D01*
X2236492Y1582614*
X2228507Y1578007*
X2221992Y1571492*
X2217385Y1563507*
X2215000Y1554606*
Y1545393*
X2217385Y1536492*
X2221992Y1528507*
X2228507Y1521992*
X2236492Y1517385*
X2245393Y1515000*
X2254606*
X2263507Y1517385*
X2271492Y1521992*
X2278007Y1528507*
X2282614Y1536492*
X2285000Y1545393*
Y1554606*
X2282614Y1563507*
X2278007Y1571492*
X2271492Y1578007*
X2263507Y1582614*
X2254606Y1585000*
G37*
G36*
X2154606D02*
X2145393D01*
X2136492Y1582614*
X2128507Y1578007*
X2121992Y1571492*
X2117385Y1563507*
X2115000Y1554606*
Y1545393*
X2117385Y1536492*
X2121992Y1528507*
X2128507Y1521992*
X2136492Y1517385*
X2145393Y1515000*
X2154606*
X2163507Y1517385*
X2171492Y1521992*
X2178007Y1528507*
X2182614Y1536492*
X2185000Y1545393*
Y1554606*
X2182614Y1563507*
X2178007Y1571492*
X2171492Y1578007*
X2163507Y1582614*
X2154606Y1585000*
G37*
G36*
X2054606D02*
X2045393D01*
X2036492Y1582614*
X2028507Y1578007*
X2021992Y1571492*
X2017385Y1563507*
X2015000Y1554606*
Y1545393*
X2017385Y1536492*
X2021992Y1528507*
X2028507Y1521992*
X2036492Y1517385*
X2045393Y1515000*
X2054606*
X2063507Y1517385*
X2071492Y1521992*
X2078007Y1528507*
X2082614Y1536492*
X2085000Y1545393*
Y1554606*
X2082614Y1563507*
X2078007Y1571492*
X2071492Y1578007*
X2063507Y1582614*
X2054606Y1585000*
G37*
G36*
X1954606D02*
X1945393D01*
X1936492Y1582614*
X1928507Y1578007*
X1921992Y1571492*
X1917385Y1563507*
X1915000Y1554606*
Y1545393*
X1917385Y1536492*
X1921992Y1528507*
X1928507Y1521992*
X1936492Y1517385*
X1945393Y1515000*
X1954606*
X1963507Y1517385*
X1971492Y1521992*
X1978007Y1528507*
X1982614Y1536492*
X1985000Y1545393*
Y1554606*
X1982614Y1563507*
X1978007Y1571492*
X1971492Y1578007*
X1963507Y1582614*
X1954606Y1585000*
G37*
G36*
X1854606D02*
X1845393D01*
X1836492Y1582614*
X1828507Y1578007*
X1821992Y1571492*
X1817385Y1563507*
X1815000Y1554606*
Y1545393*
X1817385Y1536492*
X1821992Y1528507*
X1828507Y1521992*
X1836492Y1517385*
X1845393Y1515000*
X1854606*
X1863507Y1517385*
X1871492Y1521992*
X1878007Y1528507*
X1882614Y1536492*
X1885000Y1545393*
Y1554606*
X1882614Y1563507*
X1878007Y1571492*
X1871492Y1578007*
X1863507Y1582614*
X1854606Y1585000*
G37*
G36*
X1754606D02*
X1745393D01*
X1736492Y1582614*
X1728507Y1578007*
X1721992Y1571492*
X1717385Y1563507*
X1715000Y1554606*
Y1545393*
X1717385Y1536492*
X1721992Y1528507*
X1728507Y1521992*
X1736492Y1517385*
X1745393Y1515000*
X1754606*
X1763507Y1517385*
X1771492Y1521992*
X1778007Y1528507*
X1782614Y1536492*
X1785000Y1545393*
Y1554606*
X1782614Y1563507*
X1778007Y1571492*
X1771492Y1578007*
X1763507Y1582614*
X1754606Y1585000*
G37*
G36*
X954606D02*
X945393D01*
X936492Y1582614*
X928507Y1578007*
X921992Y1571492*
X917385Y1563507*
X915000Y1554606*
Y1545393*
X917385Y1536492*
X921992Y1528507*
X928507Y1521992*
X936492Y1517385*
X945393Y1515000*
X954606*
X963507Y1517385*
X971492Y1521992*
X978007Y1528507*
X982614Y1536492*
X985000Y1545393*
Y1554606*
X982614Y1563507*
X978007Y1571492*
X971492Y1578007*
X963507Y1582614*
X954606Y1585000*
G37*
G36*
X854606D02*
X845393D01*
X836492Y1582614*
X828507Y1578007*
X821992Y1571492*
X817385Y1563507*
X815000Y1554606*
Y1545393*
X817385Y1536492*
X821992Y1528507*
X828507Y1521992*
X836492Y1517385*
X845393Y1515000*
X854606*
X863507Y1517385*
X871492Y1521992*
X878007Y1528507*
X882614Y1536492*
X885000Y1545393*
Y1554606*
X882614Y1563507*
X878007Y1571492*
X871492Y1578007*
X863507Y1582614*
X854606Y1585000*
G37*
G36*
X754606D02*
X745393D01*
X736492Y1582614*
X728507Y1578007*
X721992Y1571492*
X717385Y1563507*
X715000Y1554606*
Y1545393*
X717385Y1536492*
X721992Y1528507*
X728507Y1521992*
X736492Y1517385*
X745393Y1515000*
X754606*
X763507Y1517385*
X771492Y1521992*
X778007Y1528507*
X782614Y1536492*
X785000Y1545393*
Y1554606*
X782614Y1563507*
X778007Y1571492*
X771492Y1578007*
X763507Y1582614*
X754606Y1585000*
G37*
G36*
X654606D02*
X645393D01*
X636492Y1582614*
X628507Y1578007*
X621992Y1571492*
X617385Y1563507*
X615000Y1554606*
Y1545393*
X617385Y1536492*
X621992Y1528507*
X628507Y1521992*
X636492Y1517385*
X645393Y1515000*
X654606*
X663507Y1517385*
X671492Y1521992*
X678007Y1528507*
X682614Y1536492*
X685000Y1545393*
Y1554606*
X682614Y1563507*
X678007Y1571492*
X671492Y1578007*
X663507Y1582614*
X654606Y1585000*
G37*
G36*
X376283Y1504744D02*
X376259D01*
Y1471574*
X409429*
Y1471598*
X406826Y1481307*
X401803Y1490011*
X394696Y1497118*
X385992Y1502141*
X376283Y1504744*
G37*
G36*
X366259D02*
X366236D01*
X356527Y1502141*
X347822Y1497118*
X340716Y1490011*
X335692Y1481307*
X333090Y1471598*
Y1471574*
X366259*
Y1504744*
G37*
G36*
X454366Y1499744D02*
X445633D01*
X437196Y1497484*
X429633Y1493118*
X423456Y1486940*
X419090Y1479377*
X416830Y1470940*
Y1462208*
X419090Y1453771*
X423456Y1446208*
X429633Y1440031*
X437196Y1435665*
X445633Y1433405*
X454366*
X462803Y1435665*
X470366Y1440031*
X476543Y1446208*
X480909Y1453771*
X483169Y1462208*
Y1470940*
X480909Y1479377*
X476543Y1486940*
X470366Y1493118*
X462803Y1497484*
X454366Y1499744*
G37*
G36*
X409429Y1461574D02*
X376259D01*
Y1428405*
X376283*
X385992Y1431007*
X394696Y1436031*
X401803Y1443137*
X406826Y1451842*
X409429Y1461551*
Y1461574*
G37*
G36*
X366259D02*
X333090D01*
Y1461551*
X335692Y1451842*
X340716Y1443137*
X347822Y1436031*
X356527Y1431007*
X366236Y1428405*
X366259*
Y1461574*
G37*
G36*
X2606649Y1467500D02*
X2593350D01*
X2580311Y1464905*
X2568027Y1459818*
X2556972Y1452429*
X2547570Y1443027*
X2540181Y1431972*
X2535094Y1419688*
X2532500Y1406649*
Y1393350*
X2535094Y1380311*
X2540181Y1368027*
X2547570Y1356972*
X2556972Y1347570*
X2568027Y1340181*
X2580311Y1335094*
X2593350Y1332500*
X2606649*
X2619688Y1335094*
X2631972Y1340181*
X2643027Y1347570*
X2652429Y1356972*
X2659818Y1368027*
X2664905Y1380311*
X2667500Y1393350*
Y1406649*
X2664905Y1419688*
X2659818Y1431972*
X2652429Y1443027*
X2643027Y1452429*
X2631972Y1459818*
X2619688Y1464905*
X2606649Y1467500*
G37*
G36*
X272240Y1356692D02*
X269566D01*
Y1283779*
X342480*
Y1286452*
X339484Y1301507*
X333614Y1315685*
X325086Y1328444*
X314232Y1339299*
X301472Y1347826*
X287291Y1353696*
X272240Y1356692*
G37*
G36*
X259566D02*
X256893D01*
X241838Y1353696*
X227661Y1347826*
X214901Y1339299*
X204047Y1328444*
X195519Y1315685*
X189645Y1301507*
X186653Y1286452*
Y1283779*
X259566*
Y1356692*
G37*
G36*
X342480Y1273779D02*
X269566D01*
Y1200866*
X272240*
X287291Y1203862*
X301472Y1209732*
X314232Y1218259*
X325086Y1229114*
X333614Y1241874*
X339484Y1256051*
X342480Y1271106*
Y1273779*
G37*
G36*
X259566D02*
X186653D01*
Y1271106*
X189645Y1256051*
X195519Y1241874*
X204047Y1229114*
X214901Y1218259*
X227661Y1209732*
X241838Y1203862*
X256893Y1200866*
X259566*
Y1273779*
G37*
G36*
X2454606Y1585000D02*
X2445393D01*
X2436492Y1582614*
X2428507Y1578007*
X2421992Y1571492*
X2417385Y1563507*
X2415000Y1554606*
Y1545393*
X2417385Y1536492*
X2421992Y1528507*
X2428507Y1521992*
X2436492Y1517385*
X2439803Y1516496*
Y1452559*
X1592791Y605547*
X1590578Y602240*
X1589803Y598334*
Y555996*
X1584803Y555338*
X1582614Y563507*
X1578007Y571492*
X1571492Y578007*
X1563507Y582614*
X1554606Y585000*
X1545393*
X1536492Y582614*
X1528507Y578007*
X1521992Y571492*
X1517385Y563507*
X1515000Y554606*
Y545393*
X1517385Y536492*
X1521992Y528507*
X1528507Y521992*
X1536492Y517385*
X1545393Y515000*
X1554606*
X1563507Y517385*
X1571492Y521992*
X1578007Y528507*
X1582614Y536492*
X1584803Y544661*
X1589803Y544003*
Y454224*
X1512818Y377240*
X1511578Y377956*
X1503948Y380000*
X1496051*
X1488421Y377956*
X1481578Y374007*
X1475992Y368421*
X1472043Y361578*
X1470000Y353948*
Y346051*
X1472043Y338421*
X1475992Y331578*
X1481578Y325992*
X1488421Y322043*
X1496051Y320000*
X1503948*
X1511578Y322043*
X1518421Y325992*
X1524007Y331578*
X1527956Y338421*
X1530000Y346051*
Y353948*
X1527956Y361578*
X1527240Y362818*
X1607208Y442791*
X1609421Y446098*
X1610196Y450000*
Y544003*
X1615196Y544661*
X1617385Y536492*
X1621992Y528507*
X1628507Y521992*
X1636492Y517385*
X1645393Y515000*
X1654606*
X1663507Y517385*
X1671492Y521992*
X1678007Y528507*
X1682614Y536492*
X1685000Y545393*
Y554606*
X1682614Y563507*
X1678007Y571492*
X1671492Y578007*
X1663507Y582614*
X1654606Y585000*
X1645393*
X1636492Y582614*
X1628507Y578007*
X1621992Y571492*
X1617385Y563507*
X1615196Y555338*
X1610196Y555996*
Y594114*
X2457208Y1441125*
X2459421Y1444433*
X2460196Y1448334*
Y1516496*
X2463507Y1517385*
X2471492Y1521992*
X2478007Y1528507*
X2482614Y1536492*
X2485000Y1545393*
Y1554606*
X2482614Y1563507*
X2478007Y1571492*
X2471492Y1578007*
X2463507Y1582614*
X2454606Y1585000*
G37*
G36*
X2354606D02*
X2345393D01*
X2336492Y1582614*
X2328507Y1578007*
X2321992Y1571492*
X2317385Y1563507*
X2315000Y1554606*
Y1545393*
X2317385Y1536492*
X2321992Y1528507*
X2328507Y1521992*
X2336492Y1517385*
X2338236Y1516917*
Y1509224*
X1392791Y563779*
X1390578Y560472*
X1389803Y556566*
Y555996*
X1384803Y555338*
X1382614Y563507*
X1378007Y571492*
X1371492Y578007*
X1363507Y582614*
X1354606Y585000*
X1345393*
X1336492Y582614*
X1328507Y578007*
X1321992Y571492*
X1317385Y563507*
X1315000Y554606*
Y545393*
X1317385Y536492*
X1321992Y528507*
X1328507Y521992*
X1336492Y517385*
X1345393Y515000*
X1354606*
X1363507Y517385*
X1371492Y521992*
X1378007Y528507*
X1382614Y536492*
X1384803Y544661*
X1389803Y544003*
Y378326*
X1388421Y377956*
X1381578Y374007*
X1375992Y368421*
X1372043Y361578*
X1370000Y353948*
Y346051*
X1372043Y338421*
X1375992Y331578*
X1381578Y325992*
X1388421Y322043*
X1396051Y320000*
X1403948*
X1411578Y322043*
X1418421Y325992*
X1424007Y331578*
X1427956Y338421*
X1430000Y346051*
Y353948*
X1427956Y361578*
X1424007Y368421*
X1418421Y374007*
X1411578Y377956*
X1410196Y378326*
Y544003*
X1415196Y544661*
X1417385Y536492*
X1421992Y528507*
X1428507Y521992*
X1436492Y517385*
X1445393Y515000*
X1454606*
X1463507Y517385*
X1471492Y521992*
X1478007Y528507*
X1482614Y536492*
X1485000Y545393*
Y554606*
X1482614Y563507*
X1478007Y571492*
X1471492Y578007*
X1463507Y582614*
X1454606Y585000*
X1449921*
X1447850Y590000*
X2355641Y1497791*
X2357850Y1501098*
X2358625Y1505000*
Y1516078*
X2363507Y1517385*
X2371492Y1521992*
X2378007Y1528507*
X2382614Y1536492*
X2385000Y1545393*
Y1554606*
X2382614Y1563507*
X2378007Y1571492*
X2371492Y1578007*
X2363507Y1582614*
X2354606Y1585000*
G37*
G36*
X1255267Y590000D02*
X1255000D01*
Y555000*
X1290000*
Y555267*
X1287275Y565440*
X1282007Y574559*
X1274559Y582007*
X1265440Y587275*
X1255267Y590000*
G37*
G36*
X1245000D02*
X1244732D01*
X1234559Y587275*
X1225440Y582007*
X1217992Y574559*
X1212724Y565440*
X1210000Y555267*
Y555000*
X1245000*
Y590000*
G37*
G36*
X655267D02*
X655000D01*
Y555000*
X690000*
Y555267*
X687275Y565440*
X682007Y574559*
X674559Y582007*
X665440Y587275*
X655267Y590000*
G37*
G36*
X645000D02*
X644732D01*
X634559Y587275*
X625440Y582007*
X617992Y574559*
X612724Y565440*
X610000Y555267*
Y555000*
X645000*
Y590000*
G37*
G36*
X2454606Y585000D02*
X2445393D01*
X2436492Y582614*
X2428507Y578007*
X2421992Y571492*
X2417385Y563507*
X2415000Y554606*
Y545393*
X2417385Y536492*
X2421992Y528507*
X2428507Y521992*
X2436492Y517385*
X2445393Y515000*
X2454606*
X2463507Y517385*
X2471492Y521992*
X2478007Y528507*
X2482614Y536492*
X2485000Y545393*
Y554606*
X2482614Y563507*
X2478007Y571492*
X2471492Y578007*
X2463507Y582614*
X2454606Y585000*
G37*
G36*
X2354606D02*
X2345393D01*
X2336492Y582614*
X2328507Y578007*
X2321992Y571492*
X2317385Y563507*
X2315000Y554606*
Y545393*
X2317385Y536492*
X2321992Y528507*
X2328507Y521992*
X2336492Y517385*
X2345393Y515000*
X2354606*
X2363507Y517385*
X2371492Y521992*
X2378007Y528507*
X2382614Y536492*
X2385000Y545393*
Y554606*
X2382614Y563507*
X2378007Y571492*
X2371492Y578007*
X2363507Y582614*
X2354606Y585000*
G37*
G36*
X2254606D02*
X2245393D01*
X2236492Y582614*
X2228507Y578007*
X2221992Y571492*
X2217385Y563507*
X2215000Y554606*
Y545393*
X2217385Y536492*
X2221992Y528507*
X2228507Y521992*
X2236492Y517385*
X2245393Y515000*
X2254606*
X2263507Y517385*
X2271492Y521992*
X2278007Y528507*
X2282614Y536492*
X2285000Y545393*
Y554606*
X2282614Y563507*
X2278007Y571492*
X2271492Y578007*
X2263507Y582614*
X2254606Y585000*
G37*
G36*
X2154606D02*
X2145393D01*
X2136492Y582614*
X2128507Y578007*
X2121992Y571492*
X2117385Y563507*
X2115000Y554606*
Y545393*
X2117385Y536492*
X2121992Y528507*
X2128507Y521992*
X2136492Y517385*
X2145393Y515000*
X2154606*
X2163507Y517385*
X2171492Y521992*
X2178007Y528507*
X2182614Y536492*
X2185000Y545393*
Y554606*
X2182614Y563507*
X2178007Y571492*
X2171492Y578007*
X2163507Y582614*
X2154606Y585000*
G37*
G36*
X2054606D02*
X2045393D01*
X2036492Y582614*
X2028507Y578007*
X2021992Y571492*
X2017385Y563507*
X2015000Y554606*
Y545393*
X2017385Y536492*
X2021992Y528507*
X2028507Y521992*
X2036492Y517385*
X2045393Y515000*
X2054606*
X2063507Y517385*
X2071492Y521992*
X2078007Y528507*
X2082614Y536492*
X2085000Y545393*
Y554606*
X2082614Y563507*
X2078007Y571492*
X2071492Y578007*
X2063507Y582614*
X2054606Y585000*
G37*
G36*
X1954606D02*
X1945393D01*
X1936492Y582614*
X1928507Y578007*
X1921992Y571492*
X1917385Y563507*
X1915000Y554606*
Y545393*
X1917385Y536492*
X1921992Y528507*
X1928507Y521992*
X1936492Y517385*
X1945393Y515000*
X1954606*
X1963507Y517385*
X1971492Y521992*
X1978007Y528507*
X1982614Y536492*
X1985000Y545393*
Y554606*
X1982614Y563507*
X1978007Y571492*
X1971492Y578007*
X1963507Y582614*
X1954606Y585000*
G37*
G36*
X1854606D02*
X1845393D01*
X1836492Y582614*
X1828507Y578007*
X1821992Y571492*
X1817385Y563507*
X1815000Y554606*
Y545393*
X1817385Y536492*
X1821992Y528507*
X1828507Y521992*
X1836492Y517385*
X1845393Y515000*
X1854606*
X1863507Y517385*
X1871492Y521992*
X1878007Y528507*
X1882614Y536492*
X1885000Y545393*
Y554606*
X1882614Y563507*
X1878007Y571492*
X1871492Y578007*
X1863507Y582614*
X1854606Y585000*
G37*
G36*
X1754606D02*
X1745393D01*
X1736492Y582614*
X1728507Y578007*
X1721992Y571492*
X1717385Y563507*
X1715000Y554606*
Y545393*
X1717385Y536492*
X1721992Y528507*
X1728507Y521992*
X1736492Y517385*
X1745393Y515000*
X1754606*
X1763507Y517385*
X1771492Y521992*
X1778007Y528507*
X1782614Y536492*
X1785000Y545393*
Y554606*
X1782614Y563507*
X1778007Y571492*
X1771492Y578007*
X1763507Y582614*
X1754606Y585000*
G37*
G36*
X1154606D02*
X1145393D01*
X1136492Y582614*
X1128507Y578007*
X1121992Y571492*
X1117385Y563507*
X1115000Y554606*
Y545393*
X1117385Y536492*
X1121992Y528507*
X1128507Y521992*
X1136492Y517385*
X1145393Y515000*
X1154606*
X1163507Y517385*
X1171492Y521992*
X1178007Y528507*
X1182614Y536492*
X1185000Y545393*
Y554606*
X1182614Y563507*
X1178007Y571492*
X1171492Y578007*
X1163507Y582614*
X1154606Y585000*
G37*
G36*
X1054606D02*
X1045393D01*
X1036492Y582614*
X1028507Y578007*
X1021992Y571492*
X1017385Y563507*
X1015000Y554606*
Y545393*
X1017385Y536492*
X1021992Y528507*
X1028507Y521992*
X1036492Y517385*
X1045393Y515000*
X1054606*
X1063507Y517385*
X1071492Y521992*
X1078007Y528507*
X1082614Y536492*
X1085000Y545393*
Y554606*
X1082614Y563507*
X1078007Y571492*
X1071492Y578007*
X1063507Y582614*
X1054606Y585000*
G37*
G36*
X1290000Y545000D02*
X1255000D01*
Y510000*
X1255267*
X1265440Y512724*
X1274559Y517992*
X1282007Y525440*
X1287275Y534559*
X1290000Y544732*
Y545000*
G37*
G36*
X1245000D02*
X1210000D01*
Y544732*
X1212724Y534559*
X1217992Y525440*
X1225440Y517992*
X1234559Y512724*
X1244732Y510000*
X1245000*
Y545000*
G37*
G36*
X690000D02*
X655000D01*
Y510000*
X655267*
X665440Y512724*
X674559Y517992*
X682007Y525440*
X687275Y534559*
X690000Y544732*
Y545000*
G37*
G36*
X645000D02*
X610000D01*
Y544732*
X612724Y534559*
X617992Y525440*
X625440Y517992*
X634559Y512724*
X644732Y510000*
X645000*
Y545000*
G37*
G36*
X176244Y452322D02*
X171535D01*
Y358740*
X265118*
Y363448*
X261330Y382496*
X253897Y400437*
X243110Y416582*
X229377Y430314*
X213232Y441102*
X195291Y448535*
X176244Y452322*
G37*
G36*
X161535D02*
X156826D01*
X137779Y448535*
X119838Y441102*
X103692Y430314*
X89960Y416582*
X79173Y400437*
X71740Y382496*
X67952Y363448*
Y358740*
X161535*
Y452322*
G37*
G36*
X411972Y447322D02*
X393539D01*
X375456Y443728*
X358429Y436673*
X343102Y426429*
X330066Y413393*
X319822Y398066*
X312767Y381039*
X309173Y362956*
Y344523*
X312767Y326440*
X319822Y309413*
X330066Y294082*
X343102Y281051*
X358429Y270807*
X375456Y263751*
X393539Y260157*
X411972*
X430055Y263751*
X447082Y270807*
X462409Y281051*
X475444Y294082*
X485688Y309413*
X492740Y326440*
X496338Y344523*
Y362956*
X492740Y381039*
X485688Y398066*
X475444Y413393*
X462409Y426429*
X447082Y436673*
X430055Y443728*
X411972Y447322*
G37*
G36*
X265118Y348740D02*
X171535D01*
Y255157*
X176244*
X195291Y258944*
X213232Y266377*
X229377Y277165*
X243110Y290897*
X253897Y307043*
X261330Y324984*
X265118Y344031*
Y348740*
G37*
G36*
X161535D02*
X67952D01*
Y344031*
X71740Y324984*
X79173Y307043*
X89960Y290897*
X103692Y277165*
X119838Y266377*
X137779Y258944*
X156826Y255157*
X161535*
Y348740*
G37*
G36*
X2606649Y367500D02*
X2593350D01*
X2580311Y364905*
X2568027Y359818*
X2556972Y352429*
X2547570Y343027*
X2540181Y331972*
X2535094Y319688*
X2532500Y306649*
Y293350*
X2535094Y280311*
X2540181Y268027*
X2547570Y256972*
X2556972Y247570*
X2568027Y240181*
X2580311Y235094*
X2593350Y232500*
X2606649*
X2619688Y235094*
X2631972Y240181*
X2643027Y247570*
X2652429Y256972*
X2659818Y268027*
X2664905Y280311*
X2667500Y293350*
Y306649*
X2664905Y319688*
X2659818Y331972*
X2652429Y343027*
X2643027Y352429*
X2631972Y359818*
X2619688Y364905*
X2606649Y367500*
G37*
G36*
X296322Y259409D02*
X291614D01*
Y165826*
X385196*
Y170535*
X381409Y189582*
X373976Y207523*
X363188Y223669*
X349456Y237401*
X333311Y248188*
X315370Y255622*
X296322Y259409*
G37*
G36*
X281614D02*
X276905D01*
X257858Y255622*
X239917Y248188*
X223771Y237401*
X210039Y223669*
X199251Y207523*
X191818Y189582*
X188031Y170535*
Y165826*
X281614*
Y259409*
G37*
G36*
X1695000Y149370D02*
X1693500D01*
X1680944Y146003*
X1669685Y139507*
X1660496Y130314*
X1653996Y119055*
X1652586Y113807*
X1647413*
X1646003Y119055*
X1639507Y130314*
X1630314Y139507*
X1619055Y146003*
X1606500Y149370*
X1605000*
Y100000*
Y50629*
X1606500*
X1619055Y53996*
X1630314Y60496*
X1639507Y69685*
X1646003Y80944*
X1647413Y86192*
X1652586*
X1653996Y80944*
X1660496Y69685*
X1669685Y60496*
X1680944Y53996*
X1693500Y50629*
X1695000*
Y100000*
Y149370*
G37*
G36*
X1706500D02*
X1705000D01*
Y105000*
X1749370*
Y106500*
X1746003Y119055*
X1739503Y130314*
X1730314Y139507*
X1719055Y146003*
X1706500Y149370*
G37*
G36*
X1595000D02*
X1593500D01*
X1580944Y146003*
X1569685Y139507*
X1560496Y130314*
X1553996Y119055*
X1550629Y106500*
Y105000*
X1595000*
Y149370*
G37*
G36*
X385196Y155826D02*
X291614D01*
Y62244*
X296322*
X315370Y66031*
X333311Y73464*
X349456Y84251*
X363188Y97984*
X373976Y114129*
X381409Y132070*
X385196Y151118*
Y155826*
G37*
G36*
X281614D02*
X188031D01*
Y151118*
X191818Y132070*
X199251Y114129*
X210039Y97984*
X223771Y84251*
X239917Y73464*
X257858Y66031*
X276905Y62244*
X281614*
Y155826*
G37*
G36*
X854606Y585000D02*
X845393D01*
X836492Y582614*
X828507Y578007*
X821992Y571492*
X817385Y563507*
X815000Y554606*
Y545393*
X817385Y536492*
X821992Y528507*
X828507Y521992*
X836492Y517385*
X839803Y516496*
Y350000*
X840578Y346098*
X842791Y342791*
X912791Y272791*
X916098Y270578*
X920000Y269803*
X1131622*
X1132960Y264803*
X1131578Y264003*
X1125996Y258421*
X1122043Y251578*
X1120000Y243948*
Y236051*
X1122043Y228421*
X1125996Y221578*
X1131578Y215992*
X1138421Y212043*
X1146051Y210000*
X1153948*
X1161578Y212043*
X1168421Y215992*
X1174003Y221578*
X1177956Y228421*
X1178326Y229803*
X2255775*
X2362240Y123338*
X2358653Y117125*
X2355629Y105842*
Y94157*
X2358653Y82874*
X2364496Y72755*
X2372755Y64496*
X2382874Y58653*
X2394157Y55629*
X2405842*
X2417125Y58653*
X2427244Y64496*
X2435503Y72755*
X2441346Y82874*
X2444370Y94157*
Y105842*
X2441346Y117125*
X2435503Y127244*
X2427244Y135503*
X2417125Y141346*
X2405842Y144370*
X2394157*
X2382874Y141346*
X2376661Y137759*
X2267208Y247208*
X2263901Y249421*
X2260000Y250196*
X1178326*
X1177956Y251578*
X1174003Y258421*
X1168421Y264003*
X1167039Y264803*
X1168377Y269803*
X2315775*
X2462240Y123338*
X2458653Y117125*
X2455629Y105842*
Y94157*
X2458653Y82874*
X2464496Y72755*
X2472755Y64496*
X2482874Y58653*
X2494157Y55629*
X2505842*
X2517125Y58653*
X2527244Y64496*
X2535503Y72755*
X2541346Y82874*
X2544370Y94157*
Y105842*
X2541346Y117125*
X2535503Y127244*
X2527244Y135503*
X2517125Y141346*
X2505842Y144370*
X2494157*
X2482874Y141346*
X2476661Y137759*
X2327208Y287208*
X2323901Y289421*
X2320000Y290196*
X924224*
X860196Y354224*
Y516496*
X863507Y517385*
X871492Y521992*
X878007Y528507*
X882614Y536492*
X885000Y545393*
Y554606*
X882614Y563507*
X878007Y571492*
X871492Y578007*
X863507Y582614*
X854606Y585000*
G37*
G36*
X2305842Y144370D02*
X2294157D01*
X2282874Y141346*
X2272755Y135503*
X2264496Y127244*
X2258653Y117125*
X2255629Y105842*
Y94157*
X2258653Y82874*
X2264496Y72755*
X2272755Y64496*
X2282874Y58653*
X2294157Y55629*
X2305842*
X2317125Y58653*
X2327244Y64496*
X2335503Y72755*
X2341346Y82874*
X2344370Y94157*
Y105842*
X2341346Y117125*
X2335503Y127244*
X2327244Y135503*
X2317125Y141346*
X2305842Y144370*
G37*
G36*
X2205842D02*
X2194157D01*
X2182874Y141346*
X2172755Y135503*
X2164496Y127244*
X2158653Y117125*
X2155629Y105842*
Y94157*
X2158653Y82874*
X2164496Y72755*
X2172755Y64496*
X2182874Y58653*
X2194157Y55629*
X2205842*
X2217125Y58653*
X2227244Y64496*
X2235503Y72755*
X2241346Y82874*
X2244370Y94157*
Y105842*
X2241346Y117125*
X2235503Y127244*
X2227244Y135503*
X2217125Y141346*
X2205842Y144370*
G37*
G36*
X2105842D02*
X2094157D01*
X2082874Y141346*
X2072755Y135503*
X2064496Y127244*
X2058653Y117125*
X2055629Y105842*
Y94157*
X2058653Y82874*
X2064496Y72755*
X2072755Y64496*
X2082874Y58653*
X2094157Y55629*
X2105842*
X2117125Y58653*
X2127244Y64496*
X2135503Y72755*
X2141346Y82874*
X2144370Y94157*
Y105842*
X2141346Y117125*
X2135503Y127244*
X2127244Y135503*
X2117125Y141346*
X2105842Y144370*
G37*
G36*
X2005842D02*
X1994157D01*
X1982874Y141346*
X1972755Y135503*
X1964496Y127244*
X1958653Y117125*
X1955629Y105842*
Y94157*
X1958653Y82874*
X1964496Y72755*
X1972755Y64496*
X1982874Y58653*
X1994157Y55629*
X2005842*
X2017125Y58653*
X2027244Y64496*
X2035503Y72755*
X2041346Y82874*
X2044370Y94157*
Y105842*
X2041346Y117125*
X2035503Y127244*
X2027244Y135503*
X2017125Y141346*
X2005842Y144370*
G37*
G36*
X1770000Y197842D02*
X1255000D01*
X1248173Y196484*
X1242381Y192618*
X1197665Y147897*
X1195307Y144370*
X1194157*
X1182874Y141346*
X1172755Y135503*
X1164496Y127244*
X1158653Y117125*
X1155629Y105842*
Y94157*
X1158653Y82874*
X1164496Y72755*
X1172755Y64496*
X1182874Y58653*
X1194157Y55629*
X1205842*
X1217125Y58653*
X1227244Y64496*
X1235503Y72755*
X1241346Y82874*
X1244370Y94157*
Y105842*
X1241346Y117125*
X1235503Y127244*
X1231492Y131255*
X1262389Y162157*
X1482157*
Y140933*
X1472755Y135503*
X1464496Y127244*
X1458653Y117125*
X1455629Y105842*
Y94157*
X1458653Y82874*
X1464496Y72755*
X1472755Y64496*
X1482874Y58653*
X1494157Y55629*
X1505842*
X1517125Y58653*
X1527244Y64496*
X1535503Y72755*
X1541346Y82874*
X1544370Y94157*
Y105842*
X1541346Y117125*
X1535503Y127244*
X1527244Y135503*
X1517842Y140933*
Y162157*
X1762610*
X1777157Y147610*
Y138047*
X1772755Y135503*
X1764496Y127244*
X1758653Y117125*
X1755629Y105842*
Y94157*
X1758653Y82874*
X1764496Y72755*
X1772755Y64496*
X1782874Y58653*
X1794157Y55629*
X1805842*
X1817125Y58653*
X1827244Y64496*
X1835503Y72755*
X1841346Y82874*
X1844370Y94157*
Y105842*
X1841346Y117125*
X1835503Y127244*
X1827244Y135503*
X1817125Y141346*
X1812842Y142492*
Y155000*
X1811484Y161826*
X1807618Y167618*
X1782618Y192618*
X1776826Y196484*
X1770000Y197842*
G37*
G36*
X1405842Y144370D02*
X1394157D01*
X1382874Y141346*
X1372755Y135503*
X1364496Y127244*
X1358653Y117125*
X1355629Y105842*
Y94157*
X1358653Y82874*
X1364496Y72755*
X1372755Y64496*
X1382874Y58653*
X1394157Y55629*
X1405842*
X1417125Y58653*
X1427244Y64496*
X1435503Y72755*
X1441346Y82874*
X1444370Y94157*
Y105842*
X1441346Y117125*
X1435503Y127244*
X1427244Y135503*
X1417125Y141346*
X1405842Y144370*
G37*
G36*
X1305842D02*
X1294157D01*
X1282874Y141346*
X1272755Y135503*
X1264496Y127244*
X1258653Y117125*
X1255629Y105842*
Y94157*
X1258653Y82874*
X1264496Y72755*
X1272755Y64496*
X1282874Y58653*
X1294157Y55629*
X1305842*
X1317125Y58653*
X1327244Y64496*
X1335503Y72755*
X1341346Y82874*
X1344370Y94157*
Y105842*
X1341346Y117125*
X1335503Y127244*
X1327244Y135503*
X1317125Y141346*
X1305842Y144370*
G37*
G36*
X1105842D02*
X1094157D01*
X1082874Y141346*
X1072755Y135503*
X1064496Y127244*
X1058653Y117125*
X1055629Y105842*
Y94157*
X1058653Y82874*
X1064496Y72755*
X1072755Y64496*
X1082874Y58653*
X1094157Y55629*
X1105842*
X1117125Y58653*
X1127244Y64496*
X1135503Y72755*
X1141346Y82874*
X1144370Y94157*
Y105842*
X1141346Y117125*
X1135503Y127244*
X1127244Y135503*
X1117125Y141346*
X1105842Y144370*
G37*
G36*
X1749370Y95000D02*
X1705000D01*
Y50629*
X1706500*
X1719055Y53996*
X1730314Y60496*
X1739503Y69685*
X1746003Y80944*
X1749370Y93500*
Y95000*
G37*
G36*
X1595000D02*
X1550629D01*
Y93500*
X1553996Y80944*
X1560496Y69685*
X1569685Y60496*
X1580944Y53996*
X1593500Y50629*
X1595000*
Y95000*
G37*
G36*
X556649Y167500D02*
X543350D01*
X530311Y164905*
X518027Y159818*
X506972Y152429*
X497570Y143027*
X490181Y131972*
X485094Y119688*
X482500Y106649*
Y93350*
X485094Y80311*
X490181Y68027*
X497570Y56972*
X506972Y47570*
X518027Y40181*
X530311Y35094*
X543350Y32500*
X556649*
X569688Y35094*
X581972Y40181*
X593027Y47570*
X602429Y56972*
X609818Y68027*
X614905Y80311*
X617500Y93350*
Y106649*
X614905Y119688*
X609818Y131972*
X602429Y143027*
X593027Y152429*
X581972Y159818*
X569688Y164905*
X556649Y167500*
G37*
%LNesp32-hwe-uno-3*%
%LPD*%
G54D12*
X1200000Y1960000D02*
X1240000Y2000000D01*
X1200000Y1100000D02*
Y1960000D01*
X1600000Y598334D02*
X2450000Y1448334D01*
X1500000Y350000D02*
X1600000Y450000D01*
Y598334*
X1400000Y350000D02*
Y556566D01*
X2348433Y1505000*
Y1548433*
X2350000Y1550000*
Y1574803*
X850000Y350000D02*
Y550000D01*
X920000Y280000D02*
X2320000D01*
X850000Y350000D02*
X920000Y280000D01*
X1300000Y1100000D02*
Y1708200D01*
X750000Y550000D02*
X1300000Y1100000D01*
X2450000Y1550000D02*
Y1574803D01*
Y1550000D02*
Y1553649D01*
Y1448334D02*
Y1550000D01*
X1500000Y1180000D02*
Y1715000D01*
X1785000Y2000000D02*
X1800000D01*
X1500000Y1715000D02*
X1785000Y2000000D01*
X1400000Y1730000D02*
X1440000Y1770000D01*
X1400000Y1185000D02*
Y1730000D01*
X1440000Y1770000D02*
Y2000000D01*
X1100000Y1215000D02*
Y1740700D01*
X1140000Y1780700*
Y2000000*
X1340000Y1748200D02*
Y2000000D01*
X1300000Y1708200D02*
X1340000Y1748200D01*
X1400000Y1185000D02*
X1405000Y1180000D01*
X1050000Y730000D02*
X1500000Y1180000D01*
X2260000Y240000D02*
X2400000Y100000D01*
X1150000Y240000D02*
X2260000D01*
X950000Y550000D02*
X1600000Y1200000D01*
Y1700000*
X1900000Y2000000*
X2320000Y280000D02*
X2500000Y100000D01*
G54D19*
X1255000Y180000D02*
X1495000D01*
X1200000Y100000D02*
X1210283Y110283D01*
Y135283*
X1255000Y180000*
X1495000D02*
X1770000D01*
X1500000Y100000D02*
Y175000D01*
X1495000Y180000D02*
X1500000Y175000D01*
X1770000Y180000D02*
X1795000Y155000D01*
Y105000D02*
Y155000D01*
Y105000D02*
X1800000Y100000D01*
G54D20*
X2450000Y550000D03*
X2350000D03*
X2250000D03*
X2150000D03*
X2050000D03*
X1950000D03*
X1850000D03*
X1750000D03*
X1650000D03*
X1550000D03*
X1450000D03*
X1350000D03*
X1250000D03*
X1150000D03*
X1050000D03*
X950000D03*
X850000D03*
X750000D03*
X650000D03*
Y1550000D03*
X750000D03*
X850000D03*
X950000D03*
X1050000D03*
X1150000D03*
X1250000D03*
X1350000D03*
X1450000D03*
X1550000D03*
X1650000D03*
X1750000D03*
X1850000D03*
X1950000D03*
X2050000D03*
X2150000D03*
X2250000D03*
X2350000D03*
X2450000D03*
G54D21*
X2500000Y2000000D03*
X2400000D03*
X2300000D03*
X2100000D03*
X2000000D03*
X1900000D03*
X1800000D03*
X2200000D03*
X1800000Y100000D03*
X1700000D03*
X1600000D03*
X1400000D03*
X1300000D03*
X1200000D03*
X1100000D03*
X1500000D03*
X740000Y2000000D03*
X840000D03*
X940000D03*
X1140000D03*
X1240000D03*
X1340000D03*
X1440000D03*
X1540000D03*
X1640000D03*
X1040000D03*
X2500000Y100000D03*
X2400000D03*
X2300000D03*
X2100000D03*
X2000000D03*
X2200000D03*
G54D22*
X450000Y1565000D03*
X371259D03*
X450000Y1466574D03*
X371259D03*
G54D23*
X264566Y1752795D03*
Y1278779D03*
G54D24*
X402755Y353740D03*
X286614Y160826D03*
X166535Y353740D03*
G54D25*
X1200000Y1100000D03*
X1500000Y350000D03*
X1400000D03*
X1100000Y1215000D03*
X1405000Y1180000D03*
X1050000Y730000D03*
X1150000Y240000D03*
M02*