M48
;Layer_Color=9474304
;FILE_FORMAT=2:4
INCH,TZ
;TYPE=PLATED
T1F00S00C0.0100
T2F00S00C0.0200
T3F00S00C0.0236
T5F00S00C0.0295
T6F00S00C0.0300
T7F00S00C0.0315
T8F00S00C0.0354
T9F00S00C0.0394
T11F00S00C0.0433
T12F00S00C0.0492
T13F00S00C0.0512
%
T01
X34100Y13800
X36420Y15000
X39100Y14400
X62600Y20000
X63100Y19900
X66300Y25350
Y27650
X66700Y29150
X65400
X61500Y29700
X62200Y30900
X58950Y31097
X58150Y30100
X59046Y29350
X57000Y26500
X56900Y20000
X56400
X58950Y21800
X59950
X61400Y23300
X50666Y20025
X50200Y20000
X44491Y20028
X44000Y20000
X34800Y20400
X34460Y19000
X33700
X33300Y18000
X34460
X34100Y17400
Y16600
X28400Y20500
X27400Y20000
X26900Y21000
X26400Y21500
X25900
X25400
X24900Y22300
X26900
X24900Y20000
X23900Y20500
X22400Y21000
X21900Y21500
X21400
X19900
X19400
X18900Y21000
X17400
X16900Y21500
X15900Y22300
X18400Y26500
X19400Y26000
X21400Y25500
X22400Y25000
X22900Y27000
X21900Y27500
X26400Y28500
X26900Y28000
X26400Y29600
X26900Y30800
X28400Y30100
X29400Y31100
X14900Y22300
X13900
X13400Y21200
X15400
Y34100
Y36300
X14400Y36100
Y37900
X13900Y41800
X14900Y42500
X13400Y43300
X12400Y42300
X12900Y40800
X14400Y45300
X15400Y46300
X16500Y46000
Y45000
X16400Y44300
X15900Y43800
X16400Y42900
X16900Y41300
X19250Y39050
X18400Y37700
X19400Y36300
X20553Y40000
X21900Y40500
X23859Y40266
X24900Y40700
X26470Y42030
X28000Y41200
X27900Y39000
Y38000
X26400
X26417Y39011
X29000Y39000
X29900Y40500
X29800Y41900
X30500Y42800
X27400Y36100
X25900Y35600
X25400Y35100
X24900Y34800
X23900Y33600
X23400Y33100
X22900Y32600
X21900Y31600
X20400Y32100
X24412Y37129
X20600Y42400
X19100Y45300
X17500Y46600
X31500Y45500
X32700Y42500
Y42000
Y41500
Y39500
X32240Y39040
X31400Y38000
X34400Y40800
X36000Y44600
X51500Y38500
X52200Y38000
X58400Y34400
X58800Y34000
X61498Y44369
X63400Y36500
Y35905
X65400Y36300
X65868Y33450
X65900Y32100
X65400Y31250
X66700
X36000Y47600
X18200Y47500
Y47900
X17500Y49000
X16500Y48000
Y47000
T02
X30200Y13000
T03
X11400Y11128
X12400
X13400
X14400
X15400
X16400
X17400
X18400
X19400
X20400
X21400
X22400
X23400
X24400
X25400
X26400
X27400
X28400
X29400
Y23910
X28400
X27400
X26400
X25400
X24400
X23400
X22400
X21400
X20400
X19400
X18400
X17400
X16400
X15400
X14400
X13400
X12400
X11400
T05
X63614Y28650
X64614Y29650
X63614Y30650
X25450Y44164
X24450Y45164
X23450Y44164
X59814Y37100
Y35100
X60814Y36100
T06
X10800Y28800
X11800
Y29800
Y30800
X10800
Y29800
Y31800
X11800
Y32800
Y33800
Y34800
Y35800
Y36800
Y37800
X10800
Y36800
Y35800
Y34800
Y33800
Y32800
Y40000
X11800
Y41000
Y42000
Y43000
Y44000
Y45000
Y46000
X10800
Y45000
Y44000
Y43000
Y42000
Y41000
Y47000
X11800
Y48000
Y49000
X10800
Y48000
T07
X53300Y38000
X53891
X54481
X55072
X55662
X56253
X56843
X57434
T08
X35400Y14000
Y15000
X37400Y14500
Y15500
X48111Y17400
X49489
X54311
X55689
X60511
X61889
X43289
X41911
X37400Y17500
Y16500
Y18500
Y19500
Y20500
X35400Y20000
Y19000
Y18000
Y17000
Y16000
Y21000
T09
X67926Y44039
Y45024
T11
X64000Y16400
Y17400
Y18400
X57800
Y17400
Y16400
X51600
Y17400
Y18400
X45400
Y17400
Y16400
T12
X32100Y11400
Y12400
X33100
X34100
X35100
X36100
X37100
X38100
X39100
Y11400
X38100
X37100
X36100
X35100
X34100
X33100
X65400Y20400
Y21400
X67500Y22850
Y23850
Y29150
Y30150
X62500Y27650
X61500
X61300Y25350
X60300
X57400Y22000
X56400
X51200
X50200
X45000
X44000
X39600Y39500
Y40500
Y41500
Y42500
Y43500
Y44500
Y45500
Y46500
X68500Y37000
Y36000
Y35000
Y34000
X31050Y47200
X30050
X29050
X28050
X25000
X24000
X19900Y48600
X18900
T13
X42950Y13200
X45450
X49150
X51650
X55350
X57850
X61550
X64050
X69000Y21850
Y24850
Y28150
Y31150
X51700Y35200
X31050Y48600
X29550Y48650
X28050Y48600
X25300
X23600
M30
