G04*
G04 #@! TF.GenerationSoftware,Altium Limited,Altium Designer,23.4.1 (23)*
G04*
G04 Layer_Physical_Order=2*
G04 Layer_Color=16711680*
%FSLAX26Y26*%
%MOIN*%
G70*
G04*
G04 #@! TF.SameCoordinates,7CE1F54E-F9D9-4D57-B496-837467B0791C*
G04*
G04*
G04 #@! TF.FilePolarity,Positive*
G04*
G01*
G75*
%ADD16C,0.010000*%
%ADD67C,0.024000*%
%ADD68C,0.050000*%
%ADD69C,0.070866*%
%ADD70R,0.047244X0.047244*%
%ADD71C,0.047244*%
%ADD72C,0.059055*%
%ADD73R,0.059055X0.059055*%
%ADD74O,0.037402X0.078740*%
%ADD75R,0.035433X0.059055*%
%ADD76C,0.078740*%
%ADD77C,0.060000*%
%ADD78R,0.070866X0.070866*%
%ADD79C,0.049213*%
%ADD80R,0.049213X0.049213*%
%ADD81R,0.066929X0.066929*%
%ADD82C,0.066929*%
%ADD83C,0.055118*%
%ADD84R,0.157480X0.059055*%
%ADD85R,0.137795X0.059055*%
%ADD86R,0.059055X0.137795*%
%ADD87R,0.049213X0.049213*%
%ADD88C,0.020000*%
%ADD89C,0.050000*%
G36*
X7000000Y1498898D02*
X6970039D01*
Y1420000D01*
Y1341102D01*
X7000000D01*
Y1000000D01*
X1000000D01*
Y5000000D01*
X7000000D01*
Y1498898D01*
D02*
G37*
%LPC*%
G36*
X1996500Y4909370D02*
X1983500D01*
X1970944Y4906006D01*
X1959686Y4899506D01*
X1950494Y4890314D01*
X1943994Y4879056D01*
X1942588Y4873808D01*
X1937412D01*
X1936006Y4879056D01*
X1929506Y4890314D01*
X1920314Y4899506D01*
X1909056Y4906006D01*
X1896500Y4909370D01*
X1883500D01*
X1870944Y4906006D01*
X1859686Y4899506D01*
X1850494Y4890314D01*
X1843994Y4879056D01*
X1840630Y4866500D01*
Y4853500D01*
X1843994Y4840944D01*
X1850494Y4829686D01*
X1859686Y4820494D01*
X1870944Y4813994D01*
X1883500Y4810630D01*
X1896500D01*
X1909056Y4813994D01*
X1920314Y4820494D01*
X1929506Y4829686D01*
X1936006Y4840944D01*
X1937412Y4846192D01*
X1942588D01*
X1943994Y4840944D01*
X1950494Y4829686D01*
X1959686Y4820494D01*
X1970944Y4813994D01*
X1983500Y4810630D01*
X1996500D01*
X2009056Y4813994D01*
X2020314Y4820494D01*
X2029506Y4829686D01*
X2036006Y4840944D01*
X2039370Y4853500D01*
Y4866500D01*
X2036006Y4879056D01*
X2029506Y4890314D01*
X2020314Y4899506D01*
X2009056Y4906006D01*
X1996500Y4909370D01*
D02*
G37*
G36*
X2366500D02*
X2365000D01*
Y4865000D01*
X2409370D01*
Y4866500D01*
X2406006Y4879056D01*
X2399506Y4890314D01*
X2390314Y4899506D01*
X2379056Y4906006D01*
X2366500Y4909370D01*
D02*
G37*
G36*
X3111500D02*
X3110000D01*
Y4865000D01*
X3154370D01*
Y4866500D01*
X3151006Y4879056D01*
X3144506Y4890314D01*
X3135314Y4899506D01*
X3124056Y4906006D01*
X3111500Y4909370D01*
D02*
G37*
G36*
X3100000D02*
X3098500D01*
X3085944Y4906006D01*
X3074686Y4899506D01*
X3065494Y4890314D01*
X3058994Y4879056D01*
X3055630Y4866500D01*
Y4865000D01*
X3100000D01*
Y4909370D01*
D02*
G37*
G36*
X2355000D02*
X2353500D01*
X2340944Y4906006D01*
X2329686Y4899506D01*
X2320494Y4890314D01*
X2313994Y4879056D01*
X2310630Y4866500D01*
Y4865000D01*
X2355000D01*
Y4909370D01*
D02*
G37*
G36*
X1185266Y4940000D02*
X1174734D01*
X1164561Y4937274D01*
X1155439Y4932008D01*
X1147992Y4924561D01*
X1142726Y4915439D01*
X1140000Y4905266D01*
Y4894734D01*
X1142726Y4884561D01*
X1147992Y4875439D01*
X1155439Y4867992D01*
X1164561Y4862726D01*
X1174734Y4860000D01*
X1185266D01*
X1195439Y4862726D01*
X1204561Y4867992D01*
X1212008Y4875439D01*
X1217274Y4884561D01*
X1220000Y4894734D01*
Y4905266D01*
X1217274Y4915439D01*
X1212008Y4924561D01*
X1204561Y4932008D01*
X1195439Y4937274D01*
X1185266Y4940000D01*
D02*
G37*
G36*
X1085266D02*
X1074734D01*
X1064561Y4937274D01*
X1055439Y4932008D01*
X1047992Y4924561D01*
X1042726Y4915439D01*
X1040000Y4905266D01*
Y4894734D01*
X1042726Y4884561D01*
X1047992Y4875439D01*
X1055439Y4867992D01*
X1064561Y4862726D01*
X1074734Y4860000D01*
X1085266D01*
X1095439Y4862726D01*
X1104561Y4867992D01*
X1112008Y4875439D01*
X1117274Y4884561D01*
X1120000Y4894734D01*
Y4905266D01*
X1117274Y4915439D01*
X1112008Y4924561D01*
X1104561Y4932008D01*
X1095439Y4937274D01*
X1085266Y4940000D01*
D02*
G37*
G36*
X3154370Y4855000D02*
X3110000D01*
Y4810630D01*
X3111500D01*
X3124056Y4813994D01*
X3135314Y4820494D01*
X3144506Y4829686D01*
X3151006Y4840944D01*
X3154370Y4853500D01*
Y4855000D01*
D02*
G37*
G36*
X3100000D02*
X3055630D01*
Y4853500D01*
X3058994Y4840944D01*
X3065494Y4829686D01*
X3074686Y4820494D01*
X3085944Y4813994D01*
X3098500Y4810630D01*
X3100000D01*
Y4855000D01*
D02*
G37*
G36*
X3605000Y4779577D02*
Y4765000D01*
X3619577D01*
X3616955Y4771329D01*
X3611329Y4776955D01*
X3605000Y4779577D01*
D02*
G37*
G36*
X3595000D02*
X3588671Y4776955D01*
X3583045Y4771329D01*
X3580423Y4765000D01*
X3595000D01*
Y4779577D01*
D02*
G37*
G36*
X1185266Y4840000D02*
X1174734D01*
X1164561Y4837274D01*
X1155439Y4832008D01*
X1147992Y4824561D01*
X1142726Y4815439D01*
X1140000Y4805266D01*
Y4794734D01*
X1142726Y4784561D01*
X1147992Y4775439D01*
X1155439Y4767992D01*
X1164561Y4762726D01*
X1174734Y4760000D01*
X1185266D01*
X1195439Y4762726D01*
X1204561Y4767992D01*
X1212008Y4775439D01*
X1217274Y4784561D01*
X1220000Y4794734D01*
Y4805266D01*
X1217274Y4815439D01*
X1212008Y4824561D01*
X1204561Y4832008D01*
X1195439Y4837274D01*
X1185266Y4840000D01*
D02*
G37*
G36*
X1085266D02*
X1074734D01*
X1064561Y4837274D01*
X1055439Y4832008D01*
X1047992Y4824561D01*
X1042726Y4815439D01*
X1040000Y4805266D01*
Y4794734D01*
X1042726Y4784561D01*
X1047992Y4775439D01*
X1055439Y4767992D01*
X1064561Y4762726D01*
X1074734Y4760000D01*
X1085266D01*
X1095439Y4762726D01*
X1104561Y4767992D01*
X1112008Y4775439D01*
X1117274Y4784561D01*
X1120000Y4794734D01*
Y4805266D01*
X1117274Y4815439D01*
X1112008Y4824561D01*
X1104561Y4832008D01*
X1095439Y4837274D01*
X1085266Y4840000D01*
D02*
G37*
G36*
X3619577Y4755000D02*
X3605000D01*
Y4740423D01*
X3611329Y4743045D01*
X3616955Y4748671D01*
X3619577Y4755000D01*
D02*
G37*
G36*
X3595000D02*
X3580423D01*
X3583045Y4748671D01*
X3588671Y4743045D01*
X3595000Y4740423D01*
Y4755000D01*
D02*
G37*
G36*
X2961500Y4914370D02*
X2948500D01*
X2935944Y4911006D01*
X2924686Y4904506D01*
X2915494Y4895314D01*
X2908994Y4884056D01*
X2905630Y4871500D01*
Y4858500D01*
X2908994Y4845944D01*
X2915494Y4834686D01*
X2924686Y4825494D01*
X2935944Y4818994D01*
X2948500Y4815630D01*
X2961500D01*
X2965095Y4816593D01*
X2982569Y4799119D01*
Y4764057D01*
X2974686Y4759506D01*
X2965494Y4750314D01*
X2958994Y4739056D01*
X2957588Y4733808D01*
X2952412D01*
X2951006Y4739056D01*
X2944506Y4750314D01*
X2935314Y4759506D01*
X2924056Y4766006D01*
X2911500Y4769370D01*
X2910000D01*
Y4720000D01*
Y4670630D01*
X2911500D01*
X2924056Y4673994D01*
X2935314Y4680494D01*
X2944506Y4689686D01*
X2951006Y4700944D01*
X2952412Y4706192D01*
X2957588D01*
X2958994Y4700944D01*
X2965494Y4689686D01*
X2974686Y4680494D01*
X2982569Y4675943D01*
Y4605000D01*
X2984276Y4596416D01*
X2989139Y4589139D01*
X3044139Y4534139D01*
X3051416Y4529276D01*
X3060000Y4527569D01*
X3150000D01*
X3158584Y4529276D01*
X3165861Y4534139D01*
X3170724Y4541416D01*
X3172431Y4550000D01*
X3170724Y4558584D01*
X3165861Y4565861D01*
X3158584Y4570724D01*
X3150000Y4572431D01*
X3069291D01*
X3027431Y4614291D01*
Y4675943D01*
X3035314Y4680494D01*
X3044506Y4689686D01*
X3051006Y4700944D01*
X3052412Y4706192D01*
X3057588D01*
X3058994Y4700944D01*
X3065494Y4689686D01*
X3074686Y4680494D01*
X3085944Y4673994D01*
X3098500Y4670630D01*
X3100000D01*
Y4720000D01*
Y4769370D01*
X3098500D01*
X3085944Y4766006D01*
X3074686Y4759506D01*
X3065494Y4750314D01*
X3058994Y4739056D01*
X3057588Y4733808D01*
X3052412D01*
X3051006Y4739056D01*
X3044506Y4750314D01*
X3035314Y4759506D01*
X3027431Y4764057D01*
Y4808411D01*
X3025724Y4816995D01*
X3020861Y4824272D01*
X3000341Y4844792D01*
X3001006Y4845944D01*
X3004370Y4858500D01*
Y4871500D01*
X3001006Y4884056D01*
X2994506Y4895314D01*
X2985314Y4904506D01*
X2974056Y4911006D01*
X2961500Y4914370D01*
D02*
G37*
G36*
X2536500Y4909370D02*
X2523500D01*
X2510944Y4906006D01*
X2499686Y4899506D01*
X2490494Y4890314D01*
X2483994Y4879056D01*
X2480630Y4866500D01*
Y4853500D01*
X2483994Y4840944D01*
X2490494Y4829686D01*
X2497569Y4822611D01*
Y4769370D01*
X2493500D01*
X2480944Y4766006D01*
X2469686Y4759506D01*
X2460494Y4750314D01*
X2453994Y4739056D01*
X2452588Y4733808D01*
X2447412D01*
X2446006Y4739056D01*
X2439506Y4750314D01*
X2430314Y4759506D01*
X2419056Y4766006D01*
X2406500Y4769370D01*
X2405000D01*
Y4720000D01*
Y4670630D01*
X2406500D01*
X2419056Y4673994D01*
X2430314Y4680494D01*
X2439506Y4689686D01*
X2446006Y4700944D01*
X2447412Y4706192D01*
X2452588D01*
X2453994Y4700944D01*
X2460494Y4689686D01*
X2469686Y4680494D01*
X2475963Y4676870D01*
Y4541427D01*
X2470963Y4539356D01*
X2466249Y4544070D01*
X2458358Y4548626D01*
X2449556Y4550984D01*
X2440444D01*
X2431642Y4548626D01*
X2423751Y4544070D01*
X2417308Y4537627D01*
X2412752Y4529735D01*
X2410394Y4520934D01*
Y4511822D01*
X2412752Y4503020D01*
X2417308Y4495129D01*
X2423751Y4488686D01*
X2431642Y4484130D01*
X2440444Y4481772D01*
X2449556D01*
X2458358Y4484130D01*
X2466249Y4488686D01*
X2470963Y4493400D01*
X2475963Y4491329D01*
Y4396824D01*
X2370080Y4290941D01*
X2365218Y4283664D01*
X2363510Y4275080D01*
Y4026648D01*
X2365218Y4018064D01*
X2370080Y4010787D01*
X2377357Y4005924D01*
X2385941Y4004217D01*
X2394525Y4005924D01*
X2401802Y4010787D01*
X2406665Y4018064D01*
X2408372Y4026648D01*
Y4265789D01*
X2514255Y4371671D01*
X2519117Y4378949D01*
X2520341Y4385099D01*
X2520863Y4385649D01*
X2525116Y4387502D01*
X2525810Y4387497D01*
X2531642Y4384130D01*
X2540444Y4381772D01*
X2549556D01*
X2558358Y4384130D01*
X2566249Y4388686D01*
X2572692Y4395129D01*
X2577248Y4403020D01*
X2579606Y4411822D01*
Y4420934D01*
X2577248Y4429735D01*
X2572692Y4437627D01*
X2566249Y4444070D01*
X2558358Y4448626D01*
X2549556Y4450984D01*
X2540444D01*
X2531642Y4448626D01*
X2525825Y4445267D01*
X2520825Y4447844D01*
Y4675016D01*
X2530314Y4680494D01*
X2539506Y4689686D01*
X2546006Y4700944D01*
X2549370Y4713500D01*
Y4726500D01*
X2546006Y4739056D01*
X2541016Y4747699D01*
X2542431Y4754813D01*
Y4812219D01*
X2549056Y4813994D01*
X2560314Y4820494D01*
X2569506Y4829686D01*
X2576006Y4840944D01*
X2579370Y4853500D01*
Y4866500D01*
X2576006Y4879056D01*
X2569506Y4890314D01*
X2560314Y4899506D01*
X2549056Y4906006D01*
X2536500Y4909370D01*
D02*
G37*
G36*
X3111500Y4769370D02*
X3110000D01*
Y4725000D01*
X3154370D01*
Y4726500D01*
X3151006Y4739056D01*
X3144506Y4750314D01*
X3135314Y4759506D01*
X3124056Y4766006D01*
X3111500Y4769370D01*
D02*
G37*
G36*
X2409370Y4855000D02*
X2360000D01*
X2310630D01*
Y4853500D01*
X2313994Y4840944D01*
X2320494Y4829686D01*
X2329686Y4820494D01*
X2340944Y4813994D01*
X2347569Y4812219D01*
Y4761429D01*
X2349276Y4752845D01*
X2354139Y4745568D01*
X2356431Y4743276D01*
X2353994Y4739056D01*
X2350630Y4726500D01*
Y4725000D01*
X2395000D01*
Y4769370D01*
X2393781D01*
X2392431Y4770720D01*
Y4822611D01*
X2399506Y4829686D01*
X2406006Y4840944D01*
X2409370Y4853500D01*
Y4855000D01*
D02*
G37*
G36*
X3154370Y4715000D02*
X3110000D01*
Y4670630D01*
X3111500D01*
X3124056Y4673994D01*
X3135314Y4680494D01*
X3144506Y4689686D01*
X3151006Y4700944D01*
X3154370Y4713500D01*
Y4715000D01*
D02*
G37*
G36*
X2811500Y4909370D02*
X2798500D01*
X2785944Y4906006D01*
X2774686Y4899506D01*
X2765494Y4890314D01*
X2758994Y4879056D01*
X2755630Y4866500D01*
Y4853500D01*
X2758994Y4840944D01*
X2765494Y4829686D01*
X2774686Y4820494D01*
X2782569Y4815943D01*
Y4764057D01*
X2774686Y4759506D01*
X2765494Y4750314D01*
X2758994Y4739056D01*
X2755630Y4726500D01*
Y4713500D01*
X2758994Y4700944D01*
X2765494Y4689686D01*
X2774686Y4680494D01*
X2782569Y4675943D01*
Y4235000D01*
X2784276Y4226416D01*
X2789139Y4219139D01*
X2974139Y4034139D01*
X2981416Y4029276D01*
X2990000Y4027569D01*
X2998584Y4029276D01*
X3005861Y4034139D01*
X3010724Y4041416D01*
X3012431Y4050000D01*
X3010724Y4058584D01*
X3005861Y4065861D01*
X2827431Y4244291D01*
Y4675943D01*
X2835314Y4680494D01*
X2844506Y4689686D01*
X2851006Y4700944D01*
X2852412Y4706192D01*
X2857588D01*
X2858994Y4700944D01*
X2865494Y4689686D01*
X2874686Y4680494D01*
X2885944Y4673994D01*
X2898500Y4670630D01*
X2900000D01*
Y4720000D01*
Y4769370D01*
X2898500D01*
X2885944Y4766006D01*
X2874686Y4759506D01*
X2865494Y4750314D01*
X2858994Y4739056D01*
X2857588Y4733808D01*
X2852412D01*
X2851006Y4739056D01*
X2844506Y4750314D01*
X2835314Y4759506D01*
X2827431Y4764057D01*
Y4815943D01*
X2835314Y4820494D01*
X2844506Y4829686D01*
X2851006Y4840944D01*
X2854370Y4853500D01*
Y4866500D01*
X2851006Y4879056D01*
X2844506Y4890314D01*
X2835314Y4899506D01*
X2824056Y4906006D01*
X2811500Y4909370D01*
D02*
G37*
G36*
X2395000Y4715000D02*
X2350630D01*
Y4713500D01*
X2352986Y4704708D01*
X2329139Y4680861D01*
X2324276Y4673584D01*
X2322569Y4665000D01*
Y4450984D01*
X2310394D01*
Y4421378D01*
X2379606D01*
Y4450984D01*
X2367431D01*
Y4655709D01*
X2384708Y4672986D01*
X2393500Y4670630D01*
X2395000D01*
Y4715000D01*
D02*
G37*
G36*
X1185266Y4740000D02*
X1174734D01*
X1164561Y4737274D01*
X1155439Y4732008D01*
X1147992Y4724561D01*
X1142726Y4715439D01*
X1140000Y4705266D01*
Y4694734D01*
X1142726Y4684561D01*
X1147992Y4675439D01*
X1155439Y4667992D01*
X1164561Y4662726D01*
X1174734Y4660000D01*
X1185266D01*
X1195439Y4662726D01*
X1204561Y4667992D01*
X1212008Y4675439D01*
X1217274Y4684561D01*
X1220000Y4694734D01*
Y4705266D01*
X1217274Y4715439D01*
X1212008Y4724561D01*
X1204561Y4732008D01*
X1195439Y4737274D01*
X1185266Y4740000D01*
D02*
G37*
G36*
X1085266D02*
X1074734D01*
X1064561Y4737274D01*
X1055439Y4732008D01*
X1047992Y4724561D01*
X1042726Y4715439D01*
X1040000Y4705266D01*
Y4694734D01*
X1042726Y4684561D01*
X1047992Y4675439D01*
X1055439Y4667992D01*
X1064561Y4662726D01*
X1074734Y4660000D01*
X1085266D01*
X1095439Y4662726D01*
X1104561Y4667992D01*
X1112008Y4675439D01*
X1117274Y4684561D01*
X1120000Y4694734D01*
Y4705266D01*
X1117274Y4715439D01*
X1112008Y4724561D01*
X1104561Y4732008D01*
X1095439Y4737274D01*
X1085266Y4740000D01*
D02*
G37*
G36*
X1753978Y4920000D02*
X1746022D01*
X1738671Y4916955D01*
X1733045Y4911329D01*
X1730000Y4903978D01*
Y4896022D01*
X1733045Y4888671D01*
X1734706Y4887010D01*
Y4672990D01*
X1733045Y4671329D01*
X1730000Y4663978D01*
Y4658700D01*
X1725000Y4656629D01*
X1705294Y4676335D01*
Y4760000D01*
X1704130Y4765853D01*
X1700814Y4770815D01*
X1670000Y4801629D01*
Y4803978D01*
X1666955Y4811329D01*
X1661329Y4816955D01*
X1653978Y4820000D01*
X1646022D01*
X1638671Y4816955D01*
X1633045Y4811329D01*
X1630000Y4803978D01*
Y4796022D01*
X1633045Y4788671D01*
X1638671Y4783045D01*
X1646022Y4780000D01*
X1648371D01*
X1674706Y4753665D01*
Y4704688D01*
X1670000Y4703978D01*
X1666955Y4711329D01*
X1661329Y4716955D01*
X1653978Y4720000D01*
X1646022D01*
X1638671Y4716955D01*
X1633045Y4711329D01*
X1630000Y4703978D01*
Y4696022D01*
X1633045Y4688671D01*
X1634706Y4687010D01*
Y4650000D01*
X1635870Y4644147D01*
X1639186Y4639186D01*
X1653371Y4625000D01*
X1651300Y4620000D01*
X1646022D01*
X1638671Y4616955D01*
X1633045Y4611329D01*
X1630000Y4603978D01*
Y4596022D01*
X1633045Y4588671D01*
X1638671Y4583045D01*
X1646022Y4580000D01*
X1648371D01*
X1824706Y4403665D01*
Y3850000D01*
X1825870Y3844147D01*
X1829186Y3839186D01*
X1874706Y3793665D01*
Y2112990D01*
X1873045Y2111329D01*
X1870000Y2103978D01*
Y2096022D01*
X1873045Y2088671D01*
X1878671Y2083045D01*
X1886022Y2080000D01*
X1893978D01*
X1901329Y2083045D01*
X1906955Y2088671D01*
X1910000Y2096022D01*
Y2103978D01*
X1906955Y2111329D01*
X1905294Y2112990D01*
Y3800000D01*
X1904130Y3805853D01*
X1900814Y3810814D01*
X1855294Y3856335D01*
Y4410000D01*
X1854130Y4415853D01*
X1851476Y4419824D01*
X1855360Y4423011D01*
X1874706Y4403665D01*
Y3860000D01*
X1875870Y3854147D01*
X1879186Y3849186D01*
X1974706Y3753665D01*
Y2162990D01*
X1973045Y2161329D01*
X1970000Y2153978D01*
Y2146022D01*
X1973045Y2138671D01*
X1978671Y2133045D01*
X1986022Y2130000D01*
X1993978D01*
X2001329Y2133045D01*
X2006955Y2138671D01*
X2010000Y2146022D01*
Y2153978D01*
X2006955Y2161329D01*
X2005294Y2162990D01*
Y3760000D01*
X2004130Y3765853D01*
X2000814Y3770814D01*
X1905294Y3866335D01*
Y3889351D01*
X1910294Y3891422D01*
X1913671Y3888045D01*
X1920000Y3885423D01*
Y3905000D01*
Y3924577D01*
X1913671Y3921955D01*
X1910294Y3918578D01*
X1905294Y3920649D01*
Y4410000D01*
X1904130Y4415853D01*
X1900814Y4420814D01*
X1665294Y4656335D01*
Y4687010D01*
X1666955Y4688671D01*
X1670000Y4696022D01*
X1674706Y4695312D01*
Y4670000D01*
X1675870Y4664147D01*
X1679186Y4659186D01*
X1914706Y4423665D01*
Y3980000D01*
X1915870Y3974147D01*
X1919186Y3969186D01*
X2074706Y3813665D01*
Y2230000D01*
Y2186335D01*
X2029186Y2140814D01*
X2025870Y2135853D01*
X2024706Y2130000D01*
Y1218969D01*
X2019530Y1214997D01*
X2014930Y1209002D01*
X2012038Y1202020D01*
X2011052Y1194528D01*
Y1153189D01*
X2012038Y1145697D01*
X2012284Y1145104D01*
Y1081181D01*
X2067716D01*
Y1145104D01*
X2067962Y1145697D01*
X2068948Y1153189D01*
Y1194528D01*
X2067962Y1202020D01*
X2065070Y1209002D01*
X2060470Y1214997D01*
X2055294Y1218969D01*
Y2123665D01*
X2100814Y2169186D01*
X2104130Y2174147D01*
X2105294Y2180000D01*
Y2230000D01*
Y3820000D01*
X2104130Y3825853D01*
X2100814Y3830814D01*
X1945294Y3986335D01*
Y4430000D01*
X1944130Y4435853D01*
X1940814Y4440814D01*
X1746629Y4635000D01*
X1748700Y4640000D01*
X1753978D01*
X1761329Y4643045D01*
X1766955Y4648671D01*
X1770000Y4656022D01*
Y4663978D01*
X1766955Y4671329D01*
X1765294Y4672990D01*
Y4887010D01*
X1766955Y4888671D01*
X1770000Y4896022D01*
Y4903978D01*
X1766955Y4911329D01*
X1761329Y4916955D01*
X1753978Y4920000D01*
D02*
G37*
G36*
X1185266Y4640000D02*
X1174734D01*
X1164561Y4637274D01*
X1155439Y4632008D01*
X1147992Y4624561D01*
X1142726Y4615439D01*
X1140000Y4605266D01*
Y4594734D01*
X1142726Y4584561D01*
X1147992Y4575439D01*
X1155439Y4567992D01*
X1164561Y4562726D01*
X1174734Y4560000D01*
X1185266D01*
X1195439Y4562726D01*
X1204561Y4567992D01*
X1212008Y4575439D01*
X1217274Y4584561D01*
X1220000Y4594734D01*
Y4605266D01*
X1217274Y4615439D01*
X1212008Y4624561D01*
X1204561Y4632008D01*
X1195439Y4637274D01*
X1185266Y4640000D01*
D02*
G37*
G36*
X1085266D02*
X1074734D01*
X1064561Y4637274D01*
X1055439Y4632008D01*
X1047992Y4624561D01*
X1042726Y4615439D01*
X1040000Y4605266D01*
Y4594734D01*
X1042726Y4584561D01*
X1047992Y4575439D01*
X1055439Y4567992D01*
X1064561Y4562726D01*
X1074734Y4560000D01*
X1085266D01*
X1095439Y4562726D01*
X1104561Y4567992D01*
X1112008Y4575439D01*
X1117274Y4584561D01*
X1120000Y4594734D01*
Y4605266D01*
X1117274Y4615439D01*
X1112008Y4624561D01*
X1104561Y4632008D01*
X1095439Y4637274D01*
X1085266Y4640000D01*
D02*
G37*
G36*
X3605000Y4479577D02*
Y4465000D01*
X3619577D01*
X3616955Y4471329D01*
X3611329Y4476955D01*
X3605000Y4479577D01*
D02*
G37*
G36*
X3595000D02*
X3588671Y4476955D01*
X3583045Y4471329D01*
X3580423Y4465000D01*
X3595000D01*
Y4479577D01*
D02*
G37*
G36*
X1185266Y4540000D02*
X1174734D01*
X1164561Y4537274D01*
X1155439Y4532008D01*
X1147992Y4524561D01*
X1142726Y4515439D01*
X1140000Y4505266D01*
Y4494734D01*
X1142726Y4484561D01*
X1147992Y4475439D01*
X1155439Y4467992D01*
X1164561Y4462726D01*
X1174734Y4460000D01*
X1185266D01*
X1195439Y4462726D01*
X1204561Y4467992D01*
X1212008Y4475439D01*
X1217274Y4484561D01*
X1220000Y4494734D01*
Y4505266D01*
X1217274Y4515439D01*
X1212008Y4524561D01*
X1204561Y4532008D01*
X1195439Y4537274D01*
X1185266Y4540000D01*
D02*
G37*
G36*
X1085266D02*
X1074734D01*
X1064561Y4537274D01*
X1055439Y4532008D01*
X1047992Y4524561D01*
X1042726Y4515439D01*
X1040000Y4505266D01*
Y4494734D01*
X1042726Y4484561D01*
X1047992Y4475439D01*
X1055439Y4467992D01*
X1064561Y4462726D01*
X1074734Y4460000D01*
X1085266D01*
X1095439Y4462726D01*
X1104561Y4467992D01*
X1112008Y4475439D01*
X1117274Y4484561D01*
X1120000Y4494734D01*
Y4505266D01*
X1117274Y4515439D01*
X1112008Y4524561D01*
X1104561Y4532008D01*
X1095439Y4537274D01*
X1085266Y4540000D01*
D02*
G37*
G36*
X6798580Y4547795D02*
X6786617D01*
X6775062Y4544699D01*
X6764702Y4538718D01*
X6756243Y4530259D01*
X6750262Y4519899D01*
X6747165Y4508344D01*
Y4496381D01*
X6750262Y4484826D01*
X6756243Y4474466D01*
X6764702Y4466007D01*
X6775062Y4460025D01*
X6786617Y4456929D01*
X6798580D01*
X6810135Y4460025D01*
X6820495Y4466007D01*
X6828954Y4474466D01*
X6834935Y4484826D01*
X6838031Y4496381D01*
Y4508344D01*
X6834935Y4519899D01*
X6828954Y4530259D01*
X6820495Y4538718D01*
X6810135Y4544699D01*
X6798580Y4547795D01*
D02*
G37*
G36*
X6154794Y4456461D02*
Y4441884D01*
X6169371D01*
X6166749Y4448213D01*
X6161123Y4453839D01*
X6154794Y4456461D01*
D02*
G37*
G36*
X6144794D02*
X6138465Y4453839D01*
X6132839Y4448213D01*
X6130217Y4441884D01*
X6144794D01*
Y4456461D01*
D02*
G37*
G36*
X3619577Y4455000D02*
X3605000D01*
Y4440423D01*
X3611329Y4443045D01*
X3616955Y4448671D01*
X3619577Y4455000D01*
D02*
G37*
G36*
X3595000D02*
X3580423D01*
X3583045Y4448671D01*
X3588671Y4443045D01*
X3595000Y4440423D01*
Y4455000D01*
D02*
G37*
G36*
X6169371Y4431884D02*
X6154794D01*
Y4417307D01*
X6161123Y4419929D01*
X6166749Y4425555D01*
X6169371Y4431884D01*
D02*
G37*
G36*
X6144794D02*
X6130217D01*
X6132839Y4425555D01*
X6138465Y4419929D01*
X6144794Y4417307D01*
Y4431884D01*
D02*
G37*
G36*
X2379606Y4411378D02*
X2350000D01*
Y4381772D01*
X2379606D01*
Y4411378D01*
D02*
G37*
G36*
X2340000D02*
X2310394D01*
Y4381772D01*
X2340000D01*
Y4411378D01*
D02*
G37*
G36*
X1185266Y4440000D02*
X1174734D01*
X1164561Y4437274D01*
X1155439Y4432008D01*
X1147992Y4424561D01*
X1142726Y4415439D01*
X1140000Y4405266D01*
Y4394734D01*
X1142726Y4384561D01*
X1147992Y4375439D01*
X1155439Y4367992D01*
X1164561Y4362726D01*
X1174734Y4360000D01*
X1185266D01*
X1195439Y4362726D01*
X1204561Y4367992D01*
X1212008Y4375439D01*
X1217274Y4384561D01*
X1220000Y4394734D01*
Y4405266D01*
X1217274Y4415439D01*
X1212008Y4424561D01*
X1204561Y4432008D01*
X1195439Y4437274D01*
X1185266Y4440000D01*
D02*
G37*
G36*
X1085266D02*
X1074734D01*
X1064561Y4437274D01*
X1055439Y4432008D01*
X1047992Y4424561D01*
X1042726Y4415439D01*
X1040000Y4405266D01*
Y4394734D01*
X1042726Y4384561D01*
X1047992Y4375439D01*
X1055439Y4367992D01*
X1064561Y4362726D01*
X1074734Y4360000D01*
X1085266D01*
X1095439Y4362726D01*
X1104561Y4367992D01*
X1112008Y4375439D01*
X1117274Y4384561D01*
X1120000Y4394734D01*
Y4405266D01*
X1117274Y4415439D01*
X1112008Y4424561D01*
X1104561Y4432008D01*
X1095439Y4437274D01*
X1085266Y4440000D01*
D02*
G37*
G36*
X6798580Y4449370D02*
X6786617D01*
X6775062Y4446274D01*
X6764702Y4440292D01*
X6756243Y4431833D01*
X6750262Y4421474D01*
X6747165Y4409918D01*
Y4397956D01*
X6750262Y4386400D01*
X6756243Y4376041D01*
X6764702Y4367582D01*
X6775062Y4361600D01*
X6786617Y4358504D01*
X6798580D01*
X6810135Y4361600D01*
X6820495Y4367582D01*
X6828954Y4376041D01*
X6834935Y4386400D01*
X6838031Y4397956D01*
Y4409918D01*
X6834935Y4421474D01*
X6828954Y4431833D01*
X6820495Y4440292D01*
X6810135Y4446274D01*
X6798580Y4449370D01*
D02*
G37*
G36*
X3055000Y4299577D02*
Y4285000D01*
X3069577D01*
X3066955Y4291329D01*
X3061329Y4296955D01*
X3055000Y4299577D01*
D02*
G37*
G36*
X3045000D02*
X3038671Y4296955D01*
X3033045Y4291329D01*
X3030423Y4285000D01*
X3045000D01*
Y4299577D01*
D02*
G37*
G36*
X3069577Y4275000D02*
X3055000D01*
Y4260423D01*
X3061329Y4263045D01*
X3066955Y4268671D01*
X3069577Y4275000D01*
D02*
G37*
G36*
X3045000D02*
X3030423D01*
X3033045Y4268671D01*
X3038671Y4263045D01*
X3045000Y4260423D01*
Y4275000D01*
D02*
G37*
G36*
X1185266Y4340000D02*
X1174734D01*
X1164561Y4337274D01*
X1155439Y4332008D01*
X1147992Y4324561D01*
X1142726Y4315439D01*
X1140000Y4305266D01*
Y4294734D01*
X1142726Y4284561D01*
X1147992Y4275439D01*
X1155439Y4267992D01*
X1164561Y4262726D01*
X1174734Y4260000D01*
X1185266D01*
X1195439Y4262726D01*
X1204561Y4267992D01*
X1212008Y4275439D01*
X1217274Y4284561D01*
X1220000Y4294734D01*
Y4305266D01*
X1217274Y4315439D01*
X1212008Y4324561D01*
X1204561Y4332008D01*
X1195439Y4337274D01*
X1185266Y4340000D01*
D02*
G37*
G36*
X1085266D02*
X1074734D01*
X1064561Y4337274D01*
X1055439Y4332008D01*
X1047992Y4324561D01*
X1042726Y4315439D01*
X1040000Y4305266D01*
Y4294734D01*
X1042726Y4284561D01*
X1047992Y4275439D01*
X1055439Y4267992D01*
X1064561Y4262726D01*
X1074734Y4260000D01*
X1085266D01*
X1095439Y4262726D01*
X1104561Y4267992D01*
X1112008Y4275439D01*
X1117274Y4284561D01*
X1120000Y4294734D01*
Y4305266D01*
X1117274Y4315439D01*
X1112008Y4324561D01*
X1104561Y4332008D01*
X1095439Y4337274D01*
X1085266Y4340000D01*
D02*
G37*
G36*
X3275000Y4269577D02*
Y4255000D01*
X3289577D01*
X3286955Y4261329D01*
X3281329Y4266955D01*
X3275000Y4269577D01*
D02*
G37*
G36*
X3265000D02*
X3258671Y4266955D01*
X3253045Y4261329D01*
X3250423Y4255000D01*
X3265000D01*
Y4269577D01*
D02*
G37*
G36*
X2065000Y4259577D02*
Y4245000D01*
X2079577D01*
X2076955Y4251329D01*
X2071329Y4256955D01*
X2065000Y4259577D01*
D02*
G37*
G36*
X2055000D02*
X2048671Y4256955D01*
X2043045Y4251329D01*
X2040423Y4245000D01*
X2055000D01*
Y4259577D01*
D02*
G37*
G36*
X3289577Y4245000D02*
X3275000D01*
Y4230423D01*
X3281329Y4233045D01*
X3286955Y4238671D01*
X3289577Y4245000D01*
D02*
G37*
G36*
X3265000D02*
X3250423D01*
X3253045Y4238671D01*
X3258671Y4233045D01*
X3265000Y4230423D01*
Y4245000D01*
D02*
G37*
G36*
X2079577Y4235000D02*
X2065000D01*
Y4220423D01*
X2071329Y4223045D01*
X2076955Y4228671D01*
X2079577Y4235000D01*
D02*
G37*
G36*
X2055000D02*
X2040423D01*
X2043045Y4228671D01*
X2048671Y4223045D01*
X2055000Y4220423D01*
Y4235000D01*
D02*
G37*
G36*
X2652033Y4222544D02*
Y4207967D01*
X2666610D01*
X2663988Y4214296D01*
X2658362Y4219922D01*
X2652033Y4222544D01*
D02*
G37*
G36*
X2642033D02*
X2635704Y4219922D01*
X2630078Y4214296D01*
X2627456Y4207967D01*
X2642033D01*
Y4222544D01*
D02*
G37*
G36*
X1243978Y4250000D02*
X1236022D01*
X1228671Y4246955D01*
X1223045Y4241329D01*
X1220000Y4233978D01*
Y4226022D01*
X1223045Y4218671D01*
X1224706Y4217010D01*
Y4207021D01*
X1219706Y4206363D01*
X1217274Y4215439D01*
X1212008Y4224561D01*
X1204561Y4232008D01*
X1195439Y4237274D01*
X1185266Y4240000D01*
X1174734D01*
X1164561Y4237274D01*
X1155439Y4232008D01*
X1147992Y4224561D01*
X1142726Y4215439D01*
X1140000Y4205266D01*
Y4194734D01*
X1142726Y4184561D01*
X1147992Y4175439D01*
X1155439Y4167992D01*
X1164561Y4162726D01*
X1174734Y4160000D01*
X1185266D01*
X1195439Y4162726D01*
X1204561Y4167992D01*
X1212008Y4175439D01*
X1217274Y4184561D01*
X1219706Y4193637D01*
X1224706Y4192979D01*
Y4107021D01*
X1219706Y4106363D01*
X1217274Y4115439D01*
X1212008Y4124561D01*
X1204561Y4132008D01*
X1195439Y4137274D01*
X1185266Y4140000D01*
X1174734D01*
X1164561Y4137274D01*
X1155439Y4132008D01*
X1147992Y4124561D01*
X1142726Y4115439D01*
X1140000Y4105266D01*
Y4094734D01*
X1142726Y4084561D01*
X1147992Y4075439D01*
X1155439Y4067992D01*
X1164561Y4062726D01*
X1174734Y4060000D01*
X1185266D01*
X1195439Y4062726D01*
X1204561Y4067992D01*
X1212008Y4075439D01*
X1217274Y4084561D01*
X1219706Y4093637D01*
X1224706Y4092979D01*
Y4007021D01*
X1219706Y4006363D01*
X1217274Y4015439D01*
X1212008Y4024561D01*
X1204561Y4032008D01*
X1195439Y4037274D01*
X1185266Y4040000D01*
X1185000D01*
Y4000000D01*
Y3960000D01*
X1185266D01*
X1195439Y3962726D01*
X1204561Y3967992D01*
X1212008Y3975439D01*
X1217274Y3984561D01*
X1219706Y3993637D01*
X1224706Y3992979D01*
Y3787021D01*
X1219706Y3786363D01*
X1217274Y3795439D01*
X1212008Y3804561D01*
X1204561Y3812008D01*
X1195439Y3817274D01*
X1185266Y3820000D01*
X1174734D01*
X1164561Y3817274D01*
X1155439Y3812008D01*
X1147992Y3804561D01*
X1142726Y3795439D01*
X1140000Y3785266D01*
Y3774734D01*
X1142726Y3764561D01*
X1147992Y3755439D01*
X1155439Y3747992D01*
X1164561Y3742726D01*
X1174734Y3740000D01*
X1185266D01*
X1195439Y3742726D01*
X1204561Y3747992D01*
X1212008Y3755439D01*
X1217274Y3764561D01*
X1219706Y3773637D01*
X1224706Y3772979D01*
Y3687021D01*
X1219706Y3686363D01*
X1217274Y3695439D01*
X1212008Y3704561D01*
X1204561Y3712008D01*
X1195439Y3717274D01*
X1185266Y3720000D01*
X1174734D01*
X1164561Y3717274D01*
X1155439Y3712008D01*
X1147992Y3704561D01*
X1142726Y3695439D01*
X1140000Y3685266D01*
Y3674734D01*
X1142726Y3664561D01*
X1147992Y3655439D01*
X1155439Y3647992D01*
X1164561Y3642726D01*
X1174734Y3640000D01*
X1185266D01*
X1195439Y3642726D01*
X1204561Y3647992D01*
X1212008Y3655439D01*
X1217274Y3664561D01*
X1219706Y3673637D01*
X1224706Y3672979D01*
Y3587021D01*
X1219706Y3586363D01*
X1217274Y3595439D01*
X1212008Y3604561D01*
X1204561Y3612008D01*
X1195439Y3617274D01*
X1185266Y3620000D01*
X1174734D01*
X1164561Y3617274D01*
X1155439Y3612008D01*
X1147992Y3604561D01*
X1142726Y3595439D01*
X1140000Y3585266D01*
Y3574734D01*
X1142726Y3564561D01*
X1147992Y3555439D01*
X1155439Y3547992D01*
X1164561Y3542726D01*
X1174734Y3540000D01*
X1185266D01*
X1195439Y3542726D01*
X1204561Y3547992D01*
X1212008Y3555439D01*
X1217274Y3564561D01*
X1219706Y3573637D01*
X1224706Y3572979D01*
Y3487021D01*
X1219706Y3486363D01*
X1217274Y3495439D01*
X1212008Y3504561D01*
X1204561Y3512008D01*
X1195439Y3517274D01*
X1185266Y3520000D01*
X1174734D01*
X1164561Y3517274D01*
X1155439Y3512008D01*
X1147992Y3504561D01*
X1142726Y3495439D01*
X1140000Y3485266D01*
Y3474734D01*
X1142726Y3464561D01*
X1147992Y3455439D01*
X1155439Y3447992D01*
X1164561Y3442726D01*
X1174734Y3440000D01*
X1185266D01*
X1195439Y3442726D01*
X1204561Y3447992D01*
X1212008Y3455439D01*
X1217274Y3464561D01*
X1219706Y3473637D01*
X1224706Y3472979D01*
Y3387021D01*
X1219706Y3386363D01*
X1217274Y3395439D01*
X1212008Y3404561D01*
X1204561Y3412008D01*
X1195439Y3417274D01*
X1185266Y3420000D01*
X1174734D01*
X1164561Y3417274D01*
X1155439Y3412008D01*
X1147992Y3404561D01*
X1142726Y3395439D01*
X1140000Y3385266D01*
Y3374734D01*
X1142726Y3364561D01*
X1147992Y3355439D01*
X1155439Y3347992D01*
X1164561Y3342726D01*
X1174734Y3340000D01*
X1185266D01*
X1195439Y3342726D01*
X1204561Y3347992D01*
X1212008Y3355439D01*
X1217274Y3364561D01*
X1219706Y3373637D01*
X1224706Y3372979D01*
Y3287021D01*
X1219706Y3286363D01*
X1217274Y3295439D01*
X1212008Y3304561D01*
X1204561Y3312008D01*
X1195439Y3317274D01*
X1185266Y3320000D01*
X1174734D01*
X1164561Y3317274D01*
X1155439Y3312008D01*
X1147992Y3304561D01*
X1142726Y3295439D01*
X1140000Y3285266D01*
Y3274734D01*
X1142726Y3264561D01*
X1147992Y3255439D01*
X1155439Y3247992D01*
X1164561Y3242726D01*
X1174734Y3240000D01*
X1185266D01*
X1195439Y3242726D01*
X1204561Y3247992D01*
X1212008Y3255439D01*
X1217274Y3264561D01*
X1219706Y3273637D01*
X1224706Y3272979D01*
Y3187021D01*
X1219706Y3186363D01*
X1217274Y3195439D01*
X1212008Y3204561D01*
X1204561Y3212008D01*
X1195439Y3217274D01*
X1185266Y3220000D01*
X1174734D01*
X1164561Y3217274D01*
X1155439Y3212008D01*
X1147992Y3204561D01*
X1142726Y3195439D01*
X1140000Y3185266D01*
Y3174734D01*
X1142726Y3164561D01*
X1147992Y3155439D01*
X1155439Y3147992D01*
X1164561Y3142726D01*
X1174734Y3140000D01*
X1185266D01*
X1195439Y3142726D01*
X1204561Y3147992D01*
X1212008Y3155439D01*
X1217274Y3164561D01*
X1219706Y3173637D01*
X1224706Y3172979D01*
Y3087021D01*
X1219706Y3086363D01*
X1217274Y3095439D01*
X1212008Y3104561D01*
X1204561Y3112008D01*
X1195439Y3117274D01*
X1185266Y3120000D01*
X1174734D01*
X1164561Y3117274D01*
X1155439Y3112008D01*
X1147992Y3104561D01*
X1142726Y3095439D01*
X1140000Y3085266D01*
Y3074734D01*
X1142726Y3064561D01*
X1147992Y3055439D01*
X1155439Y3047992D01*
X1164561Y3042726D01*
X1174734Y3040000D01*
X1185266D01*
X1195439Y3042726D01*
X1204561Y3047992D01*
X1212008Y3055439D01*
X1217274Y3064561D01*
X1219706Y3073637D01*
X1224706Y3072979D01*
Y2987021D01*
X1219706Y2986363D01*
X1217274Y2995439D01*
X1212008Y3004561D01*
X1204561Y3012008D01*
X1195439Y3017274D01*
X1185266Y3020000D01*
X1174734D01*
X1164561Y3017274D01*
X1155439Y3012008D01*
X1147992Y3004561D01*
X1142726Y2995439D01*
X1140000Y2985266D01*
Y2974734D01*
X1142726Y2964561D01*
X1147992Y2955439D01*
X1155439Y2947992D01*
X1164561Y2942726D01*
X1174734Y2940000D01*
X1185266D01*
X1195439Y2942726D01*
X1204561Y2947992D01*
X1212008Y2955439D01*
X1217274Y2964561D01*
X1219706Y2973637D01*
X1224706Y2972979D01*
Y2887021D01*
X1219706Y2886363D01*
X1217274Y2895439D01*
X1212008Y2904561D01*
X1204561Y2912008D01*
X1195439Y2917274D01*
X1185266Y2920000D01*
X1185000D01*
Y2880000D01*
X1180000D01*
D01*
X1185000D01*
Y2840000D01*
X1185266D01*
X1195439Y2842726D01*
X1204561Y2847992D01*
X1212008Y2855439D01*
X1217274Y2864561D01*
X1219706Y2873637D01*
X1224706Y2872979D01*
Y2422677D01*
X1212284D01*
Y2358755D01*
X1212038Y2358162D01*
X1211052Y2350669D01*
Y2309331D01*
X1212038Y2301838D01*
X1214930Y2294856D01*
X1219530Y2288861D01*
X1225526Y2284261D01*
X1232508Y2281369D01*
X1240000Y2280382D01*
X1247492Y2281369D01*
X1254474Y2284261D01*
X1260470Y2288861D01*
X1265070Y2294856D01*
X1267962Y2301838D01*
X1268948Y2309331D01*
Y2350669D01*
X1267962Y2358162D01*
X1267716Y2358755D01*
Y2422677D01*
X1255294D01*
Y4217010D01*
X1256955Y4218671D01*
X1260000Y4226022D01*
Y4233978D01*
X1256955Y4241329D01*
X1251329Y4246955D01*
X1243978Y4250000D01*
D02*
G37*
G36*
X3275000Y4219577D02*
Y4205000D01*
X3289577D01*
X3286955Y4211329D01*
X3281329Y4216955D01*
X3275000Y4219577D01*
D02*
G37*
G36*
X3265000D02*
X3258671Y4216955D01*
X3253045Y4211329D01*
X3250423Y4205000D01*
X3265000D01*
Y4219577D01*
D02*
G37*
G36*
X2985000Y4209577D02*
Y4195000D01*
X2999577D01*
X2996955Y4201329D01*
X2991329Y4206955D01*
X2985000Y4209577D01*
D02*
G37*
G36*
X2975000D02*
X2968671Y4206955D01*
X2963045Y4201329D01*
X2960423Y4195000D01*
X2975000D01*
Y4209577D01*
D02*
G37*
G36*
X2666610Y4197967D02*
X2652033D01*
Y4183390D01*
X2658362Y4186012D01*
X2663988Y4191638D01*
X2666610Y4197967D01*
D02*
G37*
G36*
X2642033D02*
X2627456D01*
X2630078Y4191638D01*
X2635704Y4186012D01*
X2642033Y4183390D01*
Y4197967D01*
D02*
G37*
G36*
X3289577Y4195000D02*
X3275000D01*
Y4180423D01*
X3281329Y4183045D01*
X3286955Y4188671D01*
X3289577Y4195000D01*
D02*
G37*
G36*
X3265000D02*
X3250423D01*
X3253045Y4188671D01*
X3258671Y4183045D01*
X3265000Y4180423D01*
Y4195000D01*
D02*
G37*
G36*
X2999577Y4185000D02*
X2985000D01*
Y4170423D01*
X2991329Y4173045D01*
X2996955Y4178671D01*
X2999577Y4185000D01*
D02*
G37*
G36*
X2975000D02*
X2960423D01*
X2963045Y4178671D01*
X2968671Y4173045D01*
X2975000Y4170423D01*
Y4185000D01*
D02*
G37*
G36*
X1085266Y4240000D02*
X1074734D01*
X1064561Y4237274D01*
X1055439Y4232008D01*
X1047992Y4224561D01*
X1042726Y4215439D01*
X1040000Y4205266D01*
Y4194734D01*
X1042726Y4184561D01*
X1047992Y4175439D01*
X1055439Y4167992D01*
X1064561Y4162726D01*
X1074734Y4160000D01*
X1085266D01*
X1095439Y4162726D01*
X1104561Y4167992D01*
X1112008Y4175439D01*
X1117274Y4184561D01*
X1120000Y4194734D01*
Y4205266D01*
X1117274Y4215439D01*
X1112008Y4224561D01*
X1104561Y4232008D01*
X1095439Y4237274D01*
X1085266Y4240000D01*
D02*
G37*
G36*
X3275000Y4169577D02*
Y4155000D01*
X3289577D01*
X3286955Y4161329D01*
X3281329Y4166955D01*
X3275000Y4169577D01*
D02*
G37*
G36*
X3265000D02*
X3258671Y4166955D01*
X3253045Y4161329D01*
X3250423Y4155000D01*
X3265000D01*
Y4169577D01*
D02*
G37*
G36*
X3289577Y4145000D02*
X3275000D01*
Y4130423D01*
X3281329Y4133045D01*
X3286955Y4138671D01*
X3289577Y4145000D01*
D02*
G37*
G36*
X3265000D02*
X3250423D01*
X3253045Y4138671D01*
X3258671Y4133045D01*
X3265000Y4130423D01*
Y4145000D01*
D02*
G37*
G36*
X2805000Y4139577D02*
Y4125000D01*
X2819577D01*
X2816955Y4131329D01*
X2811329Y4136955D01*
X2805000Y4139577D01*
D02*
G37*
G36*
X2795000D02*
X2788671Y4136955D01*
X2783045Y4131329D01*
X2780423Y4125000D01*
X2795000D01*
Y4139577D01*
D02*
G37*
G36*
X2819577Y4115000D02*
X2805000D01*
Y4100423D01*
X2811329Y4103045D01*
X2816955Y4108671D01*
X2819577Y4115000D01*
D02*
G37*
G36*
X2795000D02*
X2780423D01*
X2783045Y4108671D01*
X2788671Y4103045D01*
X2795000Y4100423D01*
Y4115000D01*
D02*
G37*
G36*
X2495000Y4089577D02*
Y4075000D01*
X2509577D01*
X2506955Y4081329D01*
X2501329Y4086955D01*
X2495000Y4089577D01*
D02*
G37*
G36*
X2485000D02*
X2478671Y4086955D01*
X2473045Y4081329D01*
X2470423Y4075000D01*
X2485000D01*
Y4089577D01*
D02*
G37*
G36*
X1085266Y4140000D02*
X1074734D01*
X1064561Y4137274D01*
X1055439Y4132008D01*
X1047992Y4124561D01*
X1042726Y4115439D01*
X1040000Y4105266D01*
Y4094734D01*
X1042726Y4084561D01*
X1047992Y4075439D01*
X1055439Y4067992D01*
X1064561Y4062726D01*
X1074734Y4060000D01*
X1085266D01*
X1095439Y4062726D01*
X1104561Y4067992D01*
X1112008Y4075439D01*
X1117274Y4084561D01*
X1120000Y4094734D01*
Y4105266D01*
X1117274Y4115439D01*
X1112008Y4124561D01*
X1104561Y4132008D01*
X1095439Y4137274D01*
X1085266Y4140000D01*
D02*
G37*
G36*
X2185000Y4069577D02*
X2178671Y4066955D01*
X2173045Y4061329D01*
X2170423Y4055000D01*
X2185000D01*
Y4069577D01*
D02*
G37*
G36*
X2509577Y4065000D02*
X2495000D01*
Y4050423D01*
X2501329Y4053045D01*
X2506955Y4058671D01*
X2509577Y4065000D01*
D02*
G37*
G36*
X2485000D02*
X2470423D01*
X2473045Y4058671D01*
X2478671Y4053045D01*
X2485000Y4050423D01*
Y4065000D01*
D02*
G37*
G36*
X2185000Y4045000D02*
X2170423D01*
X2173045Y4038671D01*
X2178671Y4033045D01*
X2185000Y4030423D01*
Y4045000D01*
D02*
G37*
G36*
X1085266Y4040000D02*
X1085000D01*
Y4005000D01*
X1120000D01*
Y4005266D01*
X1117274Y4015439D01*
X1112008Y4024561D01*
X1104561Y4032008D01*
X1095439Y4037274D01*
X1085266Y4040000D01*
D02*
G37*
G36*
X1175000D02*
X1174734D01*
X1164561Y4037274D01*
X1155439Y4032008D01*
X1147992Y4024561D01*
X1142726Y4015439D01*
X1140000Y4005266D01*
Y4005000D01*
X1175000D01*
Y4040000D01*
D02*
G37*
G36*
X1075000D02*
X1074734D01*
X1064561Y4037274D01*
X1055439Y4032008D01*
X1047992Y4024561D01*
X1042726Y4015439D01*
X1040000Y4005266D01*
Y4005000D01*
X1075000D01*
Y4040000D01*
D02*
G37*
G36*
X1910000Y4552431D02*
X1901416Y4550724D01*
X1894139Y4545861D01*
X1889276Y4538584D01*
X1887569Y4530000D01*
X1889276Y4521416D01*
X1894139Y4514139D01*
X1987569Y4420709D01*
Y4030000D01*
X1989276Y4021416D01*
X1994139Y4014139D01*
X2024139Y3984139D01*
X2031416Y3979276D01*
X2040000Y3977569D01*
X2055255D01*
X2063839Y3979276D01*
X2071116Y3984139D01*
X2075978Y3991416D01*
X2077686Y4000000D01*
X2075978Y4008584D01*
X2071116Y4015861D01*
X2063839Y4020724D01*
X2055255Y4022431D01*
X2049291D01*
X2032431Y4039291D01*
Y4430000D01*
X2030724Y4438584D01*
X2025861Y4445861D01*
X1925861Y4545861D01*
X1918584Y4550724D01*
X1910000Y4552431D01*
D02*
G37*
G36*
X1175000Y3995000D02*
X1140000D01*
Y3994734D01*
X1142726Y3984561D01*
X1147992Y3975439D01*
X1155439Y3967992D01*
X1164561Y3962726D01*
X1174734Y3960000D01*
X1175000D01*
Y3995000D01*
D02*
G37*
G36*
X1120000D02*
X1085000D01*
Y3960000D01*
X1085266D01*
X1095439Y3962726D01*
X1104561Y3967992D01*
X1112008Y3975439D01*
X1117274Y3984561D01*
X1120000Y3994734D01*
Y3995000D01*
D02*
G37*
G36*
X1075000D02*
X1040000D01*
Y3994734D01*
X1042726Y3984561D01*
X1047992Y3975439D01*
X1055439Y3967992D01*
X1064561Y3962726D01*
X1074734Y3960000D01*
X1075000D01*
Y3995000D01*
D02*
G37*
G36*
X3275000Y3969577D02*
Y3955000D01*
X3289577D01*
X3286955Y3961329D01*
X3281329Y3966955D01*
X3275000Y3969577D01*
D02*
G37*
G36*
X3265000D02*
X3258671Y3966955D01*
X3253045Y3961329D01*
X3250423Y3955000D01*
X3265000D01*
Y3969577D01*
D02*
G37*
G36*
X3289577Y3945000D02*
X3275000D01*
Y3930423D01*
X3281329Y3933045D01*
X3286955Y3938671D01*
X3289577Y3945000D01*
D02*
G37*
G36*
X3265000D02*
X3250423D01*
X3253045Y3938671D01*
X3258671Y3933045D01*
X3265000Y3930423D01*
Y3945000D01*
D02*
G37*
G36*
X1930000Y3924577D02*
Y3910000D01*
X1944577D01*
X1941955Y3916329D01*
X1936329Y3921955D01*
X1930000Y3924577D01*
D02*
G37*
G36*
X2905000Y3919577D02*
Y3905000D01*
X2919577D01*
X2916955Y3911329D01*
X2911329Y3916955D01*
X2905000Y3919577D01*
D02*
G37*
G36*
X2895000D02*
X2888671Y3916955D01*
X2883045Y3911329D01*
X2880423Y3905000D01*
X2895000D01*
Y3919577D01*
D02*
G37*
G36*
X3966500Y4699370D02*
X3953500D01*
X3940944Y4696006D01*
X3929686Y4689506D01*
X3920494Y4680314D01*
X3913994Y4669056D01*
X3910630Y4656500D01*
Y4643500D01*
X3913994Y4630944D01*
X3920494Y4619686D01*
X3929686Y4610494D01*
X3940944Y4603994D01*
X3946192Y4602588D01*
Y4597412D01*
X3940944Y4596006D01*
X3929686Y4589506D01*
X3920494Y4580314D01*
X3913994Y4569056D01*
X3910630Y4556500D01*
Y4543500D01*
X3913994Y4530944D01*
X3920494Y4519686D01*
X3929686Y4510494D01*
X3940944Y4503994D01*
X3946192Y4502588D01*
Y4497412D01*
X3940944Y4496006D01*
X3929686Y4489506D01*
X3920494Y4480314D01*
X3913994Y4469056D01*
X3910630Y4456500D01*
Y4443500D01*
X3913994Y4430944D01*
X3920494Y4419686D01*
X3929686Y4410494D01*
X3940944Y4403994D01*
X3946192Y4402588D01*
Y4397412D01*
X3940944Y4396006D01*
X3929686Y4389506D01*
X3920494Y4380314D01*
X3913994Y4369056D01*
X3910630Y4356500D01*
Y4343500D01*
X3913994Y4330944D01*
X3920494Y4319686D01*
X3929686Y4310494D01*
X3940944Y4303994D01*
X3946192Y4302588D01*
Y4297412D01*
X3940944Y4296006D01*
X3929686Y4289506D01*
X3920494Y4280314D01*
X3913994Y4269056D01*
X3910630Y4256500D01*
Y4243500D01*
X3913994Y4230944D01*
X3920494Y4219686D01*
X3929686Y4210494D01*
X3940944Y4203994D01*
X3946192Y4202588D01*
Y4197412D01*
X3940944Y4196006D01*
X3929686Y4189506D01*
X3920494Y4180314D01*
X3913994Y4169056D01*
X3910630Y4156500D01*
Y4143500D01*
X3913994Y4130944D01*
X3920494Y4119686D01*
X3929686Y4110494D01*
X3940944Y4103994D01*
X3946192Y4102588D01*
Y4097412D01*
X3940944Y4096006D01*
X3929686Y4089506D01*
X3920494Y4080314D01*
X3913994Y4069056D01*
X3910630Y4056500D01*
Y4043500D01*
X3913994Y4030944D01*
X3920494Y4019686D01*
X3929686Y4010494D01*
X3940944Y4003994D01*
X3946192Y4002588D01*
Y3997412D01*
X3940944Y3996006D01*
X3929686Y3989506D01*
X3920494Y3980314D01*
X3913994Y3969056D01*
X3910630Y3956500D01*
Y3943500D01*
X3913994Y3930944D01*
X3920494Y3919686D01*
X3929686Y3910494D01*
X3940944Y3903994D01*
X3953500Y3900630D01*
X3966500D01*
X3979056Y3903994D01*
X3990314Y3910494D01*
X3999506Y3919686D01*
X4006006Y3930944D01*
X4009370Y3943500D01*
Y3956500D01*
X4006006Y3969056D01*
X3999506Y3980314D01*
X3990314Y3989506D01*
X3979056Y3996006D01*
X3973808Y3997412D01*
Y4002588D01*
X3979056Y4003994D01*
X3990314Y4010494D01*
X3999506Y4019686D01*
X4006006Y4030944D01*
X4009370Y4043500D01*
Y4056500D01*
X4006006Y4069056D01*
X3999506Y4080314D01*
X3990314Y4089506D01*
X3979056Y4096006D01*
X3973808Y4097412D01*
Y4102588D01*
X3979056Y4103994D01*
X3990314Y4110494D01*
X3999506Y4119686D01*
X4006006Y4130944D01*
X4009370Y4143500D01*
Y4156500D01*
X4006006Y4169056D01*
X3999506Y4180314D01*
X3990314Y4189506D01*
X3979056Y4196006D01*
X3973808Y4197412D01*
Y4202588D01*
X3979056Y4203994D01*
X3990314Y4210494D01*
X3999506Y4219686D01*
X4006006Y4230944D01*
X4009370Y4243500D01*
Y4256500D01*
X4006006Y4269056D01*
X3999506Y4280314D01*
X3990314Y4289506D01*
X3979056Y4296006D01*
X3973808Y4297412D01*
Y4302588D01*
X3979056Y4303994D01*
X3990314Y4310494D01*
X3999506Y4319686D01*
X4006006Y4330944D01*
X4009370Y4343500D01*
Y4356500D01*
X4006006Y4369056D01*
X3999506Y4380314D01*
X3990314Y4389506D01*
X3979056Y4396006D01*
X3973808Y4397412D01*
Y4402588D01*
X3979056Y4403994D01*
X3990314Y4410494D01*
X3999506Y4419686D01*
X4006006Y4430944D01*
X4009370Y4443500D01*
Y4456500D01*
X4006006Y4469056D01*
X3999506Y4480314D01*
X3990314Y4489506D01*
X3979056Y4496006D01*
X3973808Y4497412D01*
Y4502588D01*
X3979056Y4503994D01*
X3990314Y4510494D01*
X3999506Y4519686D01*
X4006006Y4530944D01*
X4009370Y4543500D01*
Y4556500D01*
X4006006Y4569056D01*
X3999506Y4580314D01*
X3990314Y4589506D01*
X3979056Y4596006D01*
X3973808Y4597412D01*
Y4602588D01*
X3979056Y4603994D01*
X3990314Y4610494D01*
X3999506Y4619686D01*
X4006006Y4630944D01*
X4009370Y4643500D01*
Y4656500D01*
X4006006Y4669056D01*
X3999506Y4680314D01*
X3990314Y4689506D01*
X3979056Y4696006D01*
X3966500Y4699370D01*
D02*
G37*
G36*
X1944577Y3900000D02*
X1930000D01*
Y3885423D01*
X1936329Y3888045D01*
X1941955Y3893671D01*
X1944577Y3900000D01*
D02*
G37*
G36*
X2919577Y3895000D02*
X2905000D01*
Y3880423D01*
X2911329Y3883045D01*
X2916955Y3888671D01*
X2919577Y3895000D01*
D02*
G37*
G36*
X2895000D02*
X2880423D01*
X2883045Y3888671D01*
X2888671Y3883045D01*
X2895000Y3880423D01*
Y3895000D01*
D02*
G37*
G36*
X5640000Y3952431D02*
X5230000D01*
X5221416Y3950724D01*
X5214139Y3945861D01*
X5134139Y3865861D01*
X5129276Y3858584D01*
X5127569Y3850000D01*
X5129276Y3841416D01*
X5134139Y3834139D01*
X5141416Y3829276D01*
X5150000Y3827569D01*
X5158584Y3829276D01*
X5165861Y3834139D01*
X5239291Y3907569D01*
X5630709D01*
X5661900Y3876378D01*
Y3825118D01*
X5657761Y3820979D01*
X5656363Y3820431D01*
X5653243D01*
X5651846Y3820979D01*
X5647707Y3825118D01*
Y3844724D01*
X5645999Y3853308D01*
X5641137Y3860586D01*
X5615861Y3885861D01*
X5608584Y3890724D01*
X5600000Y3892431D01*
X5290000D01*
X5281416Y3890724D01*
X5274139Y3885861D01*
X5204139Y3815861D01*
X5199276Y3808584D01*
X5197569Y3800000D01*
X5199276Y3791416D01*
X5204139Y3784139D01*
X5211416Y3779276D01*
X5220000Y3777569D01*
X5228584Y3779276D01*
X5235861Y3784139D01*
X5299291Y3847569D01*
X5590709D01*
X5602845Y3835433D01*
Y3825118D01*
X5598705Y3820979D01*
X5597308Y3820431D01*
X5594188D01*
X5592791Y3820979D01*
X5586865Y3826904D01*
X5579198Y3831331D01*
X5571221Y3833468D01*
Y3800000D01*
Y3766532D01*
X5579198Y3768669D01*
X5586865Y3773096D01*
X5592791Y3779021D01*
X5594188Y3779569D01*
X5597308D01*
X5598705Y3779021D01*
X5604631Y3773096D01*
X5612298Y3768669D01*
X5620849Y3766378D01*
X5629702D01*
X5638253Y3768669D01*
X5645920Y3773096D01*
X5651846Y3779021D01*
X5653243Y3779569D01*
X5656363D01*
X5657761Y3779021D01*
X5663686Y3773096D01*
X5671353Y3768669D01*
X5679904Y3766378D01*
X5688757D01*
X5697308Y3768669D01*
X5704764Y3772974D01*
X5707418Y3772323D01*
X5709764Y3771352D01*
Y3766378D01*
X5777008D01*
Y3833622D01*
X5709764D01*
X5706762Y3837378D01*
Y3885669D01*
X5705054Y3894253D01*
X5700192Y3901530D01*
X5655861Y3945861D01*
X5648584Y3950724D01*
X5640000Y3952431D01*
D02*
G37*
G36*
X5511592Y3833622D02*
X5502739D01*
X5494188Y3831331D01*
X5486521Y3826904D01*
X5480595Y3820979D01*
X5479198Y3820431D01*
X5476078D01*
X5474680Y3820979D01*
X5468755Y3826904D01*
X5461088Y3831331D01*
X5452537Y3833622D01*
X5443684D01*
X5435133Y3831331D01*
X5427466Y3826904D01*
X5421540Y3820979D01*
X5420143Y3820431D01*
X5417023D01*
X5415625Y3820979D01*
X5409699Y3826904D01*
X5402033Y3831331D01*
X5393481Y3833622D01*
X5384629D01*
X5376078Y3831331D01*
X5368411Y3826904D01*
X5362485Y3820979D01*
X5361088Y3820431D01*
X5357967D01*
X5356570Y3820979D01*
X5350644Y3826904D01*
X5342978Y3831331D01*
X5334426Y3833622D01*
X5325574D01*
X5317022Y3831331D01*
X5309356Y3826904D01*
X5303096Y3820644D01*
X5298669Y3812978D01*
X5296378Y3804426D01*
Y3795574D01*
X5298669Y3787022D01*
X5303096Y3779356D01*
X5309356Y3773096D01*
X5317022Y3768669D01*
X5325574Y3766378D01*
X5334426D01*
X5342978Y3768669D01*
X5350644Y3773096D01*
X5356570Y3779021D01*
X5357967Y3779569D01*
X5361088D01*
X5362485Y3779021D01*
X5368411Y3773096D01*
X5376078Y3768669D01*
X5384629Y3766378D01*
X5393481D01*
X5402033Y3768669D01*
X5409699Y3773096D01*
X5415625Y3779021D01*
X5417023Y3779569D01*
X5420143D01*
X5421540Y3779021D01*
X5427466Y3773096D01*
X5435133Y3768669D01*
X5443684Y3766378D01*
X5452537D01*
X5461088Y3768669D01*
X5468755Y3773096D01*
X5474680Y3779021D01*
X5476078Y3779569D01*
X5479198D01*
X5480595Y3779021D01*
X5484734Y3774882D01*
Y3742835D01*
X5486442Y3734251D01*
X5491304Y3726974D01*
X5524139Y3694139D01*
X5531416Y3689276D01*
X5540000Y3687569D01*
X5946772D01*
Y3675394D01*
X6015984D01*
Y3687569D01*
X6570709D01*
X6667569Y3590709D01*
Y3319291D01*
X6574139Y3225861D01*
X6569276Y3218584D01*
X6567569Y3210000D01*
X6569276Y3201416D01*
X6574139Y3194139D01*
X6581416Y3189276D01*
X6590000Y3187569D01*
X6598584Y3189276D01*
X6605861Y3194139D01*
X6705861Y3294139D01*
X6710724Y3301416D01*
X6712431Y3310000D01*
Y3600000D01*
X6710724Y3608584D01*
X6705861Y3615861D01*
X6595861Y3725861D01*
X6588584Y3730724D01*
X6580000Y3732431D01*
X6015984D01*
Y3744606D01*
X5946772D01*
Y3732431D01*
X5549291D01*
X5529596Y3752126D01*
Y3774882D01*
X5533735Y3779021D01*
X5535132Y3779569D01*
X5538253D01*
X5539650Y3779021D01*
X5545576Y3773096D01*
X5553243Y3768669D01*
X5561221Y3766532D01*
Y3800000D01*
Y3833468D01*
X5553243Y3831331D01*
X5545576Y3826904D01*
X5539650Y3820979D01*
X5538253Y3820431D01*
X5535132D01*
X5533735Y3820979D01*
X5527810Y3826904D01*
X5520143Y3831331D01*
X5511592Y3833622D01*
D02*
G37*
G36*
X3224000Y3926431D02*
X3215416Y3924724D01*
X3208139Y3919861D01*
X3203276Y3912584D01*
X3201569Y3904000D01*
Y3893291D01*
X3124139Y3815861D01*
X3119276Y3808584D01*
X3117569Y3800000D01*
X3119276Y3791416D01*
X3124139Y3784139D01*
X3131416Y3779276D01*
X3140000Y3777569D01*
X3148584Y3779276D01*
X3155861Y3784139D01*
X3239861Y3868139D01*
X3244724Y3875416D01*
X3246431Y3884000D01*
Y3904000D01*
X3244724Y3912584D01*
X3239861Y3919861D01*
X3232584Y3924724D01*
X3224000Y3926431D01*
D02*
G37*
G36*
X2790000Y3922431D02*
X2781416Y3920724D01*
X2774139Y3915861D01*
X2769276Y3908584D01*
X2767569Y3900000D01*
Y3800000D01*
X2769276Y3791416D01*
X2774139Y3784139D01*
X2781416Y3779276D01*
X2790000Y3777569D01*
X2798584Y3779276D01*
X2805861Y3784139D01*
X2810724Y3791416D01*
X2812431Y3800000D01*
Y3900000D01*
X2810724Y3908584D01*
X2805861Y3915861D01*
X2798584Y3920724D01*
X2790000Y3922431D01*
D02*
G37*
G36*
X2641716Y3923540D02*
X2633132Y3921832D01*
X2625855Y3916970D01*
X2624139Y3915254D01*
X2619276Y3907977D01*
X2617569Y3899393D01*
Y3800000D01*
X2619276Y3791416D01*
X2624139Y3784139D01*
X2631416Y3779276D01*
X2640000Y3777569D01*
X2648584Y3779276D01*
X2655861Y3784139D01*
X2660724Y3791416D01*
X2662431Y3800000D01*
Y3892512D01*
X2662439Y3892525D01*
X2664147Y3901109D01*
X2662439Y3909693D01*
X2657577Y3916970D01*
X2650300Y3921832D01*
X2641716Y3923540D01*
D02*
G37*
G36*
X1443978Y4550000D02*
X1436022D01*
X1428671Y4546955D01*
X1423045Y4541329D01*
X1420000Y4533978D01*
Y4526022D01*
X1423045Y4518671D01*
X1424706Y4517010D01*
Y3802990D01*
X1423045Y3801329D01*
X1420000Y3793978D01*
Y3786022D01*
X1423045Y3778671D01*
X1428671Y3773045D01*
X1436022Y3770000D01*
X1443978D01*
X1451329Y3773045D01*
X1456955Y3778671D01*
X1460000Y3786022D01*
Y3793978D01*
X1456955Y3801329D01*
X1455294Y3802990D01*
Y4517010D01*
X1456955Y4518671D01*
X1460000Y4526022D01*
Y4533978D01*
X1456955Y4541329D01*
X1451329Y4546955D01*
X1443978Y4550000D01*
D02*
G37*
G36*
X1085266Y3820000D02*
X1074734D01*
X1064561Y3817274D01*
X1055439Y3812008D01*
X1047992Y3804561D01*
X1042726Y3795439D01*
X1040000Y3785266D01*
Y3774734D01*
X1042726Y3764561D01*
X1047992Y3755439D01*
X1055439Y3747992D01*
X1064561Y3742726D01*
X1074734Y3740000D01*
X1085266D01*
X1095439Y3742726D01*
X1104561Y3747992D01*
X1112008Y3755439D01*
X1117274Y3764561D01*
X1120000Y3774734D01*
Y3785266D01*
X1117274Y3795439D01*
X1112008Y3804561D01*
X1104561Y3812008D01*
X1095439Y3817274D01*
X1085266Y3820000D01*
D02*
G37*
G36*
Y3720000D02*
X1074734D01*
X1064561Y3717274D01*
X1055439Y3712008D01*
X1047992Y3704561D01*
X1042726Y3695439D01*
X1040000Y3685266D01*
Y3674734D01*
X1042726Y3664561D01*
X1047992Y3655439D01*
X1055439Y3647992D01*
X1064561Y3642726D01*
X1074734Y3640000D01*
X1085266D01*
X1095439Y3642726D01*
X1104561Y3647992D01*
X1112008Y3655439D01*
X1117274Y3664561D01*
X1120000Y3674734D01*
Y3685266D01*
X1117274Y3695439D01*
X1112008Y3704561D01*
X1104561Y3712008D01*
X1095439Y3717274D01*
X1085266Y3720000D01*
D02*
G37*
G36*
X1543978Y4650000D02*
X1536022D01*
X1528671Y4646955D01*
X1523045Y4641329D01*
X1520000Y4633978D01*
Y4626022D01*
X1523045Y4618671D01*
X1524706Y4617010D01*
Y3642990D01*
X1523045Y3641329D01*
X1520000Y3633978D01*
Y3626022D01*
X1523045Y3618671D01*
X1528671Y3613045D01*
X1536022Y3610000D01*
X1543978D01*
X1551329Y3613045D01*
X1556955Y3618671D01*
X1560000Y3626022D01*
Y3633978D01*
X1556955Y3641329D01*
X1555294Y3642990D01*
Y4617010D01*
X1556955Y4618671D01*
X1560000Y4626022D01*
Y4633978D01*
X1556955Y4641329D01*
X1551329Y4646955D01*
X1543978Y4650000D01*
D02*
G37*
G36*
X6539941Y3652490D02*
X6520059D01*
X6511475Y3650782D01*
X6504198Y3645920D01*
X5890709Y3032431D01*
X5815000D01*
X5806416Y3030724D01*
X5799139Y3025861D01*
X5794276Y3018584D01*
X5792569Y3010000D01*
X5794276Y3001416D01*
X5799139Y2994139D01*
X5806416Y2989276D01*
X5815000Y2987569D01*
X5900000D01*
X5908584Y2989276D01*
X5915861Y2994139D01*
X6529350Y3607628D01*
X6539704D01*
X6540000Y3607569D01*
X6548584Y3609276D01*
X6555861Y3614139D01*
X6560724Y3621416D01*
X6562431Y3630000D01*
X6560724Y3638584D01*
X6555861Y3645861D01*
X6555802Y3645920D01*
X6548525Y3650782D01*
X6539941Y3652490D01*
D02*
G37*
G36*
X6085934Y3644606D02*
X6076822D01*
X6068020Y3642248D01*
X6060129Y3637692D01*
X6053686Y3631249D01*
X6049130Y3623358D01*
X6046772Y3614556D01*
Y3605444D01*
X6049130Y3596642D01*
X6053686Y3588751D01*
X6060129Y3582308D01*
X6068020Y3577752D01*
X6076822Y3575394D01*
X6085934D01*
X6094735Y3577752D01*
X6102627Y3582308D01*
X6109070Y3588751D01*
X6113626Y3596642D01*
X6115984Y3605444D01*
Y3614556D01*
X6113626Y3623358D01*
X6109070Y3631249D01*
X6102627Y3637692D01*
X6094735Y3642248D01*
X6085934Y3644606D01*
D02*
G37*
G36*
X1085266Y3620000D02*
X1074734D01*
X1064561Y3617274D01*
X1055439Y3612008D01*
X1047992Y3604561D01*
X1042726Y3595439D01*
X1040000Y3585266D01*
Y3574734D01*
X1042726Y3564561D01*
X1047992Y3555439D01*
X1055439Y3547992D01*
X1064561Y3542726D01*
X1074734Y3540000D01*
X1085266D01*
X1095439Y3542726D01*
X1104561Y3547992D01*
X1112008Y3555439D01*
X1117274Y3564561D01*
X1120000Y3574734D01*
Y3585266D01*
X1117274Y3595439D01*
X1112008Y3604561D01*
X1104561Y3612008D01*
X1095439Y3617274D01*
X1085266Y3620000D01*
D02*
G37*
G36*
X5985934Y3544606D02*
X5976822D01*
X5968020Y3542248D01*
X5960129Y3537692D01*
X5953686Y3531249D01*
X5949130Y3523358D01*
X5946772Y3514556D01*
Y3505444D01*
X5949130Y3496642D01*
X5953686Y3488751D01*
X5960129Y3482308D01*
X5968020Y3477752D01*
X5976822Y3475394D01*
X5985934D01*
X5994735Y3477752D01*
X6002627Y3482308D01*
X6009070Y3488751D01*
X6013626Y3496642D01*
X6015984Y3505444D01*
Y3514556D01*
X6013626Y3523358D01*
X6009070Y3531249D01*
X6002627Y3537692D01*
X5994735Y3542248D01*
X5985934Y3544606D01*
D02*
G37*
G36*
X5176500Y3569370D02*
X5163500D01*
X5150944Y3566006D01*
X5139686Y3559506D01*
X5130494Y3550314D01*
X5123994Y3539056D01*
X5120630Y3526500D01*
Y3513500D01*
X5123994Y3500944D01*
X5130494Y3489686D01*
X5139686Y3480494D01*
X5150944Y3473994D01*
X5163500Y3470630D01*
X5176500D01*
X5189056Y3473994D01*
X5200314Y3480494D01*
X5209506Y3489686D01*
X5216006Y3500944D01*
X5219370Y3513500D01*
Y3526500D01*
X5216006Y3539056D01*
X5209506Y3550314D01*
X5200314Y3559506D01*
X5189056Y3566006D01*
X5176500Y3569370D01*
D02*
G37*
G36*
X1085266Y3520000D02*
X1074734D01*
X1064561Y3517274D01*
X1055439Y3512008D01*
X1047992Y3504561D01*
X1042726Y3495439D01*
X1040000Y3485266D01*
Y3474734D01*
X1042726Y3464561D01*
X1047992Y3455439D01*
X1055439Y3447992D01*
X1064561Y3442726D01*
X1074734Y3440000D01*
X1085266D01*
X1095439Y3442726D01*
X1104561Y3447992D01*
X1112008Y3455439D01*
X1117274Y3464561D01*
X1120000Y3474734D01*
Y3485266D01*
X1117274Y3495439D01*
X1112008Y3504561D01*
X1104561Y3512008D01*
X1095439Y3517274D01*
X1085266Y3520000D01*
D02*
G37*
G36*
X6340000Y3672431D02*
X6260000D01*
X6251416Y3670724D01*
X6244139Y3665861D01*
X6040709Y3462431D01*
X5840000D01*
X5831416Y3460724D01*
X5824139Y3455861D01*
X5819276Y3448584D01*
X5817569Y3440000D01*
X5819276Y3431416D01*
X5824139Y3424139D01*
X5831416Y3419276D01*
X5840000Y3417569D01*
X5859267D01*
X5861939Y3412569D01*
X5859276Y3408584D01*
X5857569Y3400000D01*
X5859276Y3391416D01*
X5864139Y3384139D01*
X5871416Y3379276D01*
X5880000Y3377569D01*
X6149488D01*
X6158072Y3379276D01*
X6165349Y3384139D01*
X6355861Y3574651D01*
X6360724Y3581928D01*
X6362431Y3590512D01*
X6360724Y3599096D01*
X6355861Y3606373D01*
X6348584Y3611235D01*
X6340000Y3612943D01*
X6331416Y3611235D01*
X6324139Y3606373D01*
X6140197Y3422431D01*
X6071224D01*
X6069153Y3427431D01*
X6269291Y3627569D01*
X6340000D01*
X6348584Y3629276D01*
X6355861Y3634139D01*
X6360724Y3641416D01*
X6362431Y3650000D01*
X6360724Y3658584D01*
X6355861Y3665861D01*
X6348584Y3670724D01*
X6340000Y3672431D01*
D02*
G37*
G36*
X6856500Y3749370D02*
X6843500D01*
X6830944Y3746006D01*
X6819686Y3739506D01*
X6810494Y3730314D01*
X6803994Y3719056D01*
X6800630Y3706500D01*
Y3693500D01*
X6803994Y3680944D01*
X6810494Y3669686D01*
X6819686Y3660494D01*
X6830944Y3653994D01*
X6836192Y3652588D01*
Y3647412D01*
X6830944Y3646006D01*
X6819686Y3639506D01*
X6810494Y3630314D01*
X6803994Y3619056D01*
X6800630Y3606500D01*
Y3593500D01*
X6803994Y3580944D01*
X6810494Y3569686D01*
X6819686Y3560494D01*
X6830944Y3553994D01*
X6836192Y3552588D01*
Y3547412D01*
X6830944Y3546006D01*
X6819686Y3539506D01*
X6810494Y3530314D01*
X6803994Y3519056D01*
X6800630Y3506500D01*
Y3493500D01*
X6803994Y3480944D01*
X6810494Y3469686D01*
X6819686Y3460494D01*
X6830944Y3453994D01*
X6836192Y3452588D01*
Y3447412D01*
X6830944Y3446006D01*
X6819686Y3439506D01*
X6810494Y3430314D01*
X6803994Y3419056D01*
X6800630Y3406500D01*
Y3393500D01*
X6803994Y3380944D01*
X6810494Y3369686D01*
X6819686Y3360494D01*
X6830944Y3353994D01*
X6843500Y3350630D01*
X6856500D01*
X6869056Y3353994D01*
X6880314Y3360494D01*
X6889506Y3369686D01*
X6896006Y3380944D01*
X6899370Y3393500D01*
Y3406500D01*
X6896006Y3419056D01*
X6889506Y3430314D01*
X6880314Y3439506D01*
X6869056Y3446006D01*
X6863808Y3447412D01*
Y3452588D01*
X6869056Y3453994D01*
X6880314Y3460494D01*
X6889506Y3469686D01*
X6896006Y3480944D01*
X6899370Y3493500D01*
Y3506500D01*
X6896006Y3519056D01*
X6889506Y3530314D01*
X6880314Y3539506D01*
X6869056Y3546006D01*
X6863808Y3547412D01*
Y3552588D01*
X6869056Y3553994D01*
X6880314Y3560494D01*
X6889506Y3569686D01*
X6896006Y3580944D01*
X6899370Y3593500D01*
Y3606500D01*
X6896006Y3619056D01*
X6889506Y3630314D01*
X6880314Y3639506D01*
X6869056Y3646006D01*
X6863808Y3647412D01*
Y3652588D01*
X6869056Y3653994D01*
X6880314Y3660494D01*
X6889506Y3669686D01*
X6896006Y3680944D01*
X6899370Y3693500D01*
Y3706500D01*
X6896006Y3719056D01*
X6889506Y3730314D01*
X6880314Y3739506D01*
X6869056Y3746006D01*
X6856500Y3749370D01*
D02*
G37*
G36*
X1085266Y3420000D02*
X1074734D01*
X1064561Y3417274D01*
X1055439Y3412008D01*
X1047992Y3404561D01*
X1042726Y3395439D01*
X1040000Y3385266D01*
Y3374734D01*
X1042726Y3364561D01*
X1047992Y3355439D01*
X1055439Y3347992D01*
X1064561Y3342726D01*
X1074734Y3340000D01*
X1085266D01*
X1095439Y3342726D01*
X1104561Y3347992D01*
X1112008Y3355439D01*
X1117274Y3364561D01*
X1120000Y3374734D01*
Y3385266D01*
X1117274Y3395439D01*
X1112008Y3404561D01*
X1104561Y3412008D01*
X1095439Y3417274D01*
X1085266Y3420000D01*
D02*
G37*
G36*
Y3320000D02*
X1074734D01*
X1064561Y3317274D01*
X1055439Y3312008D01*
X1047992Y3304561D01*
X1042726Y3295439D01*
X1040000Y3285266D01*
Y3274734D01*
X1042726Y3264561D01*
X1047992Y3255439D01*
X1055439Y3247992D01*
X1064561Y3242726D01*
X1074734Y3240000D01*
X1085266D01*
X1095439Y3242726D01*
X1104561Y3247992D01*
X1112008Y3255439D01*
X1117274Y3264561D01*
X1120000Y3274734D01*
Y3285266D01*
X1117274Y3295439D01*
X1112008Y3304561D01*
X1104561Y3312008D01*
X1095439Y3317274D01*
X1085266Y3320000D01*
D02*
G37*
G36*
Y3220000D02*
X1074734D01*
X1064561Y3217274D01*
X1055439Y3212008D01*
X1047992Y3204561D01*
X1042726Y3195439D01*
X1040000Y3185266D01*
Y3174734D01*
X1042726Y3164561D01*
X1047992Y3155439D01*
X1055439Y3147992D01*
X1064561Y3142726D01*
X1074734Y3140000D01*
X1085266D01*
X1095439Y3142726D01*
X1104561Y3147992D01*
X1112008Y3155439D01*
X1117274Y3164561D01*
X1120000Y3174734D01*
Y3185266D01*
X1117274Y3195439D01*
X1112008Y3204561D01*
X1104561Y3212008D01*
X1095439Y3217274D01*
X1085266Y3220000D01*
D02*
G37*
G36*
X5900000Y3129322D02*
Y3114745D01*
X5914577D01*
X5911955Y3121074D01*
X5906329Y3126700D01*
X5900000Y3129322D01*
D02*
G37*
G36*
X5890000D02*
X5883671Y3126700D01*
X5878045Y3121074D01*
X5875423Y3114745D01*
X5890000D01*
Y3129322D01*
D02*
G37*
G36*
X6670000Y3147431D02*
X6540000D01*
X6531416Y3145724D01*
X6524139Y3140861D01*
X6519276Y3133584D01*
X6517569Y3125000D01*
X6519276Y3116416D01*
X6524139Y3109139D01*
X6531416Y3104276D01*
X6540000Y3102569D01*
X6670000D01*
X6678584Y3104276D01*
X6685861Y3109139D01*
X6690724Y3116416D01*
X6692431Y3125000D01*
X6690724Y3133584D01*
X6685861Y3140861D01*
X6678584Y3145724D01*
X6670000Y3147431D01*
D02*
G37*
G36*
X6225000Y3109577D02*
Y3095000D01*
X6239577D01*
X6236955Y3101329D01*
X6231329Y3106955D01*
X6225000Y3109577D01*
D02*
G37*
G36*
X6215000D02*
X6208671Y3106955D01*
X6203045Y3101329D01*
X6200423Y3095000D01*
X6215000D01*
Y3109577D01*
D02*
G37*
G36*
X5914577Y3104745D02*
X5900000D01*
Y3090168D01*
X5906329Y3092790D01*
X5911955Y3098416D01*
X5914577Y3104745D01*
D02*
G37*
G36*
X5890000D02*
X5875423D01*
X5878045Y3098416D01*
X5883671Y3092790D01*
X5890000Y3090168D01*
Y3104745D01*
D02*
G37*
G36*
X6239577Y3085000D02*
X6225000D01*
Y3070423D01*
X6231329Y3073045D01*
X6236955Y3078671D01*
X6239577Y3085000D01*
D02*
G37*
G36*
X6215000D02*
X6200423D01*
X6203045Y3078671D01*
X6208671Y3073045D01*
X6215000Y3070423D01*
Y3085000D01*
D02*
G37*
G36*
X6395984Y3099606D02*
X6366378D01*
Y3070000D01*
X6395984D01*
Y3099606D01*
D02*
G37*
G36*
X6356378D02*
X6326772D01*
Y3070000D01*
X6356378D01*
Y3099606D01*
D02*
G37*
G36*
X6906500Y3164370D02*
X6893500D01*
X6880944Y3161006D01*
X6869686Y3154506D01*
X6860494Y3145314D01*
X6853994Y3134056D01*
X6850630Y3121500D01*
Y3108500D01*
X6853994Y3095944D01*
X6860494Y3084686D01*
X6869686Y3075494D01*
X6880944Y3068994D01*
X6893500Y3065630D01*
X6906500D01*
X6919056Y3068994D01*
X6930314Y3075494D01*
X6939506Y3084686D01*
X6946006Y3095944D01*
X6949370Y3108500D01*
Y3121500D01*
X6946006Y3134056D01*
X6939506Y3145314D01*
X6930314Y3154506D01*
X6919056Y3161006D01*
X6906500Y3164370D01*
D02*
G37*
G36*
X1085266Y3120000D02*
X1074734D01*
X1064561Y3117274D01*
X1055439Y3112008D01*
X1047992Y3104561D01*
X1042726Y3095439D01*
X1040000Y3085266D01*
Y3074734D01*
X1042726Y3064561D01*
X1047992Y3055439D01*
X1055439Y3047992D01*
X1064561Y3042726D01*
X1074734Y3040000D01*
X1085266D01*
X1095439Y3042726D01*
X1104561Y3047992D01*
X1112008Y3055439D01*
X1117274Y3064561D01*
X1120000Y3074734D01*
Y3085266D01*
X1117274Y3095439D01*
X1112008Y3104561D01*
X1104561Y3112008D01*
X1095439Y3117274D01*
X1085266Y3120000D01*
D02*
G37*
G36*
X6395984Y3060000D02*
X6366378D01*
Y3030394D01*
X6395984D01*
Y3060000D01*
D02*
G37*
G36*
X6356378D02*
X6326772D01*
Y3030394D01*
X6356378D01*
Y3060000D01*
D02*
G37*
G36*
X6155000Y2989577D02*
Y2975000D01*
X6169577D01*
X6166955Y2981329D01*
X6161329Y2986955D01*
X6155000Y2989577D01*
D02*
G37*
G36*
X6145000D02*
X6138671Y2986955D01*
X6133045Y2981329D01*
X6130423Y2975000D01*
X6145000D01*
Y2989577D01*
D02*
G37*
G36*
X6169577Y2965000D02*
X6155000D01*
Y2950423D01*
X6161329Y2953045D01*
X6166955Y2958671D01*
X6169577Y2965000D01*
D02*
G37*
G36*
X6145000D02*
X6130423D01*
X6133045Y2958671D01*
X6138671Y2953045D01*
X6145000Y2950423D01*
Y2965000D01*
D02*
G37*
G36*
X1085266Y3020000D02*
X1074734D01*
X1064561Y3017274D01*
X1055439Y3012008D01*
X1047992Y3004561D01*
X1042726Y2995439D01*
X1040000Y2985266D01*
Y2974734D01*
X1042726Y2964561D01*
X1047992Y2955439D01*
X1055439Y2947992D01*
X1064561Y2942726D01*
X1074734Y2940000D01*
X1085266D01*
X1095439Y2942726D01*
X1104561Y2947992D01*
X1112008Y2955439D01*
X1117274Y2964561D01*
X1120000Y2974734D01*
Y2985266D01*
X1117274Y2995439D01*
X1112008Y3004561D01*
X1104561Y3012008D01*
X1095439Y3017274D01*
X1085266Y3020000D01*
D02*
G37*
G36*
X6465934Y2999606D02*
X6456822D01*
X6448020Y2997248D01*
X6440129Y2992692D01*
X6433686Y2986249D01*
X6429130Y2978358D01*
X6426772Y2969556D01*
Y2960444D01*
X6429130Y2951642D01*
X6433686Y2943751D01*
X6440129Y2937308D01*
X6448020Y2932752D01*
X6456822Y2930394D01*
X6465934D01*
X6474735Y2932752D01*
X6482627Y2937308D01*
X6489070Y2943751D01*
X6493626Y2951642D01*
X6495984Y2960444D01*
Y2969556D01*
X6493626Y2978358D01*
X6489070Y2986249D01*
X6482627Y2992692D01*
X6474735Y2997248D01*
X6465934Y2999606D01*
D02*
G37*
G36*
X6586786Y3367402D02*
X6314548D01*
X6305964Y3365695D01*
X6298686Y3360832D01*
X5888715Y2950861D01*
X5883853Y2943584D01*
X5882145Y2935000D01*
X5883853Y2926416D01*
X5888715Y2919139D01*
X5895992Y2914276D01*
X5904576Y2912569D01*
X5913160Y2914276D01*
X5920437Y2919139D01*
X6323839Y3322540D01*
X6586786D01*
X6595370Y3324248D01*
X6602647Y3329110D01*
X6607509Y3336387D01*
X6609217Y3344971D01*
X6607509Y3353555D01*
X6602647Y3360832D01*
X6595370Y3365695D01*
X6586786Y3367402D01*
D02*
G37*
G36*
X6670000Y2937431D02*
X6540000D01*
X6531416Y2935724D01*
X6524139Y2930861D01*
X6519276Y2923584D01*
X6517569Y2915000D01*
X6519276Y2906416D01*
X6524139Y2899139D01*
X6531416Y2894276D01*
X6540000Y2892569D01*
X6670000D01*
X6678584Y2894276D01*
X6685861Y2899139D01*
X6690724Y2906416D01*
X6692431Y2915000D01*
X6690724Y2923584D01*
X6685861Y2930861D01*
X6678584Y2935724D01*
X6670000Y2937431D01*
D02*
G37*
G36*
X1085266Y2920000D02*
X1085000D01*
Y2885000D01*
X1120000D01*
Y2885266D01*
X1117274Y2895439D01*
X1112008Y2904561D01*
X1104561Y2912008D01*
X1095439Y2917274D01*
X1085266Y2920000D01*
D02*
G37*
G36*
X1175000D02*
X1174734D01*
X1164561Y2917274D01*
X1155439Y2912008D01*
X1147992Y2904561D01*
X1142726Y2895439D01*
X1140000Y2885266D01*
Y2885000D01*
X1175000D01*
Y2920000D01*
D02*
G37*
G36*
X1075000D02*
X1074734D01*
X1064561Y2917274D01*
X1055439Y2912008D01*
X1047992Y2904561D01*
X1042726Y2895439D01*
X1040000Y2885266D01*
Y2885000D01*
X1075000D01*
Y2920000D01*
D02*
G37*
G36*
X6756500Y3064370D02*
X6743500D01*
X6730944Y3061006D01*
X6719686Y3054506D01*
X6710494Y3045314D01*
X6703994Y3034056D01*
X6700630Y3021500D01*
Y3008500D01*
X6703994Y2995944D01*
X6710494Y2984686D01*
X6719686Y2975494D01*
X6730944Y2968994D01*
X6736192Y2967588D01*
Y2962412D01*
X6730944Y2961006D01*
X6719686Y2954506D01*
X6710494Y2945314D01*
X6703994Y2934056D01*
X6700630Y2921500D01*
Y2908500D01*
X6703994Y2895944D01*
X6710494Y2884686D01*
X6719686Y2875494D01*
X6730944Y2868994D01*
X6743500Y2865630D01*
X6756500D01*
X6769056Y2868994D01*
X6780314Y2875494D01*
X6789506Y2884686D01*
X6796006Y2895944D01*
X6799370Y2908500D01*
Y2921500D01*
X6796006Y2934056D01*
X6789506Y2945314D01*
X6780314Y2954506D01*
X6769056Y2961006D01*
X6763808Y2962412D01*
Y2967588D01*
X6769056Y2968994D01*
X6780314Y2975494D01*
X6789506Y2984686D01*
X6796006Y2995944D01*
X6799370Y3008500D01*
Y3021500D01*
X6796006Y3034056D01*
X6789506Y3045314D01*
X6780314Y3054506D01*
X6769056Y3061006D01*
X6756500Y3064370D01*
D02*
G37*
G36*
X1175000Y2875000D02*
X1140000D01*
Y2874734D01*
X1142726Y2864561D01*
X1147992Y2855439D01*
X1155439Y2847992D01*
X1164561Y2842726D01*
X1174734Y2840000D01*
X1175000D01*
Y2875000D01*
D02*
G37*
G36*
X1120000D02*
X1085000D01*
Y2840000D01*
X1085266D01*
X1095439Y2842726D01*
X1104561Y2847992D01*
X1112008Y2855439D01*
X1117274Y2864561D01*
X1120000Y2874734D01*
Y2875000D01*
D02*
G37*
G36*
X1075000D02*
X1040000D01*
Y2874734D01*
X1042726Y2864561D01*
X1047992Y2855439D01*
X1055439Y2847992D01*
X1064561Y2842726D01*
X1074734Y2840000D01*
X1075000D01*
Y2875000D01*
D02*
G37*
G36*
X6365934Y2899606D02*
X6356822D01*
X6348020Y2897248D01*
X6340129Y2892692D01*
X6333686Y2886249D01*
X6329130Y2878358D01*
X6326772Y2869556D01*
Y2860444D01*
X6329130Y2851642D01*
X6333686Y2843751D01*
X6340129Y2837308D01*
X6348020Y2832752D01*
X6356822Y2830394D01*
X6365934D01*
X6374735Y2832752D01*
X6382627Y2837308D01*
X6389070Y2843751D01*
X6393626Y2851642D01*
X6395984Y2860444D01*
Y2869556D01*
X6393626Y2878358D01*
X6389070Y2886249D01*
X6382627Y2892692D01*
X6374735Y2897248D01*
X6365934Y2899606D01*
D02*
G37*
G36*
X6256500Y2814370D02*
X6243500D01*
X6230944Y2811006D01*
X6219686Y2804506D01*
X6210494Y2795314D01*
X6203994Y2784056D01*
X6202588Y2778808D01*
X6197412D01*
X6196006Y2784056D01*
X6189506Y2795314D01*
X6180314Y2804506D01*
X6169056Y2811006D01*
X6156500Y2814370D01*
X6143500D01*
X6130944Y2811006D01*
X6119686Y2804506D01*
X6110494Y2795314D01*
X6103994Y2784056D01*
X6100630Y2771500D01*
Y2758500D01*
X6103994Y2745944D01*
X6110494Y2734686D01*
X6119686Y2725494D01*
X6130944Y2718994D01*
X6143500Y2715630D01*
X6156500D01*
X6169056Y2718994D01*
X6180314Y2725494D01*
X6189506Y2734686D01*
X6196006Y2745944D01*
X6197412Y2751192D01*
X6202588D01*
X6203994Y2745944D01*
X6210494Y2734686D01*
X6219686Y2725494D01*
X6230944Y2718994D01*
X6243500Y2715630D01*
X6256500D01*
X6269056Y2718994D01*
X6280314Y2725494D01*
X6289506Y2734686D01*
X6294057Y2742569D01*
X6630000D01*
X6638584Y2744276D01*
X6645861Y2749139D01*
X6650724Y2756416D01*
X6652431Y2765000D01*
X6650724Y2773584D01*
X6645861Y2780861D01*
X6638584Y2785724D01*
X6630000Y2787431D01*
X6294057D01*
X6289506Y2795314D01*
X6280314Y2804506D01*
X6269056Y2811006D01*
X6256500Y2814370D01*
D02*
G37*
G36*
X6906500Y2864370D02*
X6893500D01*
X6880944Y2861006D01*
X6869686Y2854506D01*
X6860494Y2845314D01*
X6853994Y2834056D01*
X6850630Y2821500D01*
Y2808500D01*
X6853994Y2795944D01*
X6860494Y2784686D01*
X6869686Y2775494D01*
X6880944Y2768994D01*
X6893500Y2765630D01*
X6906500D01*
X6919056Y2768994D01*
X6930314Y2775494D01*
X6939506Y2784686D01*
X6946006Y2795944D01*
X6949370Y2808500D01*
Y2821500D01*
X6946006Y2834056D01*
X6939506Y2845314D01*
X6930314Y2854506D01*
X6919056Y2861006D01*
X6906500Y2864370D01*
D02*
G37*
G36*
X6136500Y2584370D02*
X6123500D01*
X6110944Y2581006D01*
X6099686Y2574506D01*
X6090494Y2565314D01*
X6083994Y2554056D01*
X6082588Y2548808D01*
X6077412D01*
X6076006Y2554056D01*
X6069506Y2565314D01*
X6060314Y2574506D01*
X6049056Y2581006D01*
X6036500Y2584370D01*
X6023500D01*
X6010944Y2581006D01*
X5999686Y2574506D01*
X5990494Y2565314D01*
X5983994Y2554056D01*
X5980630Y2541500D01*
Y2528500D01*
X5983994Y2515944D01*
X5990494Y2504686D01*
X5999686Y2495494D01*
X6010944Y2488994D01*
X6023500Y2485630D01*
X6036500D01*
X6049056Y2488994D01*
X6060314Y2495494D01*
X6069506Y2504686D01*
X6076006Y2515944D01*
X6077412Y2521192D01*
X6082588D01*
X6083994Y2515944D01*
X6090494Y2504686D01*
X6099686Y2495494D01*
X6110944Y2488994D01*
X6123500Y2485630D01*
X6136500D01*
X6149056Y2488994D01*
X6160314Y2495494D01*
X6169506Y2504686D01*
X6174057Y2512569D01*
X6630000D01*
X6638584Y2514276D01*
X6645861Y2519139D01*
X6650724Y2526416D01*
X6652431Y2535000D01*
X6650724Y2543584D01*
X6645861Y2550861D01*
X6638584Y2555724D01*
X6630000Y2557431D01*
X6174057D01*
X6169506Y2565314D01*
X6160314Y2574506D01*
X6149056Y2581006D01*
X6136500Y2584370D01*
D02*
G37*
G36*
X6906500Y2534370D02*
X6905000D01*
Y2490000D01*
X6949370D01*
Y2491500D01*
X6946006Y2504056D01*
X6939506Y2515314D01*
X6930314Y2524506D01*
X6919056Y2531006D01*
X6906500Y2534370D01*
D02*
G37*
G36*
X6895000D02*
X6893500D01*
X6880944Y2531006D01*
X6869686Y2524506D01*
X6860494Y2515314D01*
X6853994Y2504056D01*
X6850630Y2491500D01*
Y2490000D01*
X6895000D01*
Y2534370D01*
D02*
G37*
G36*
X6949370Y2480000D02*
X6905000D01*
Y2435630D01*
X6906500D01*
X6919056Y2438994D01*
X6930314Y2445494D01*
X6939506Y2454686D01*
X6946006Y2465944D01*
X6949370Y2478500D01*
Y2480000D01*
D02*
G37*
G36*
X6895000D02*
X6850630D01*
Y2478500D01*
X6853994Y2465944D01*
X6860494Y2454686D01*
X6869686Y2445494D01*
X6880944Y2438994D01*
X6893500Y2435630D01*
X6895000D01*
Y2480000D01*
D02*
G37*
G36*
X6756500Y2434370D02*
X6755000D01*
Y2390000D01*
X6799370D01*
Y2391500D01*
X6796006Y2404056D01*
X6789506Y2415314D01*
X6780314Y2424506D01*
X6769056Y2431006D01*
X6756500Y2434370D01*
D02*
G37*
G36*
X6745000D02*
X6743500D01*
X6730944Y2431006D01*
X6719686Y2424506D01*
X6710494Y2415314D01*
X6703994Y2404056D01*
X6700630Y2391500D01*
Y2390000D01*
X6745000D01*
Y2434370D01*
D02*
G37*
G36*
X1767716Y2422677D02*
X1745000D01*
Y2388150D01*
X1767716D01*
Y2422677D01*
D02*
G37*
G36*
X1167716D02*
X1145000D01*
Y2388150D01*
X1167716D01*
Y2422677D01*
D02*
G37*
G36*
X1735000D02*
X1712284D01*
Y2388150D01*
X1735000D01*
Y2422677D01*
D02*
G37*
G36*
X1135000D02*
X1112284D01*
Y2388150D01*
X1135000D01*
Y2422677D01*
D02*
G37*
G36*
X6145000Y2349577D02*
Y2335000D01*
X6159577D01*
X6156955Y2341329D01*
X6151329Y2346955D01*
X6145000Y2349577D01*
D02*
G37*
G36*
X6135000D02*
X6128671Y2346955D01*
X6123045Y2341329D01*
X6120423Y2335000D01*
X6135000D01*
Y2349577D01*
D02*
G37*
G36*
X1767716Y2378150D02*
X1740000D01*
X1712284D01*
Y2358755D01*
X1712038Y2358162D01*
X1711052Y2350669D01*
Y2335000D01*
X1740000D01*
X1768948D01*
Y2350669D01*
X1767962Y2358162D01*
X1767716Y2358755D01*
Y2378150D01*
D02*
G37*
G36*
X1167716D02*
X1140000D01*
X1112284D01*
Y2358755D01*
X1112038Y2358162D01*
X1111052Y2350669D01*
Y2335000D01*
X1140000D01*
X1168948D01*
Y2350669D01*
X1167962Y2358162D01*
X1167716Y2358755D01*
Y2378150D01*
D02*
G37*
G36*
X6159577Y2325000D02*
X6145000D01*
Y2310423D01*
X6151329Y2313045D01*
X6156955Y2318671D01*
X6159577Y2325000D01*
D02*
G37*
G36*
X6135000D02*
X6120423D01*
X6123045Y2318671D01*
X6128671Y2313045D01*
X6135000Y2310423D01*
Y2325000D01*
D02*
G37*
G36*
X1768948D02*
X1745000D01*
Y2281041D01*
X1747492Y2281369D01*
X1754474Y2284261D01*
X1760470Y2288861D01*
X1765070Y2294856D01*
X1767962Y2301838D01*
X1768948Y2309331D01*
Y2325000D01*
D02*
G37*
G36*
X1168948D02*
X1145000D01*
Y2281041D01*
X1147492Y2281369D01*
X1154474Y2284261D01*
X1160470Y2288861D01*
X1165070Y2294856D01*
X1167962Y2301838D01*
X1168948Y2309331D01*
Y2325000D01*
D02*
G37*
G36*
X1735000D02*
X1711052D01*
Y2309331D01*
X1712038Y2301838D01*
X1714930Y2294856D01*
X1719530Y2288861D01*
X1725526Y2284261D01*
X1732508Y2281369D01*
X1735000Y2281041D01*
Y2325000D01*
D02*
G37*
G36*
X1135000D02*
X1111052D01*
Y2309331D01*
X1112038Y2301838D01*
X1114930Y2294856D01*
X1119530Y2288861D01*
X1125526Y2284261D01*
X1132508Y2281369D01*
X1135000Y2281041D01*
Y2325000D01*
D02*
G37*
G36*
X2843978Y3030000D02*
X2836022D01*
X2828671Y3026955D01*
X2823045Y3021329D01*
X2820000Y3013978D01*
Y3006022D01*
X2823045Y2998671D01*
X2824706Y2997010D01*
Y2422677D01*
X2812284D01*
Y2358755D01*
X2812038Y2358162D01*
X2811052Y2350669D01*
Y2309331D01*
X2812038Y2301838D01*
X2814930Y2294856D01*
X2819530Y2288861D01*
X2825526Y2284261D01*
X2832508Y2281369D01*
X2840000Y2280382D01*
X2847492Y2281369D01*
X2854474Y2284261D01*
X2860470Y2288861D01*
X2865070Y2294856D01*
X2867962Y2301838D01*
X2868948Y2309331D01*
Y2350669D01*
X2867962Y2358162D01*
X2867716Y2358755D01*
Y2422677D01*
X2855294D01*
Y2997010D01*
X2856955Y2998671D01*
X2860000Y3006022D01*
Y3013978D01*
X2856955Y3021329D01*
X2851329Y3026955D01*
X2843978Y3030000D01*
D02*
G37*
G36*
X2743978Y3630000D02*
X2736022D01*
X2728671Y3626955D01*
X2723045Y3621329D01*
X2720000Y3613978D01*
Y3606022D01*
X2723045Y3598671D01*
X2724706Y3597010D01*
Y2422677D01*
X2712284D01*
Y2358755D01*
X2712038Y2358162D01*
X2711052Y2350669D01*
Y2309331D01*
X2712038Y2301838D01*
X2714930Y2294856D01*
X2719530Y2288861D01*
X2725526Y2284261D01*
X2732508Y2281369D01*
X2740000Y2280382D01*
X2747492Y2281369D01*
X2754474Y2284261D01*
X2760470Y2288861D01*
X2765070Y2294856D01*
X2767962Y2301838D01*
X2768948Y2309331D01*
Y2350669D01*
X2767962Y2358162D01*
X2767716Y2358755D01*
Y2422677D01*
X2755294D01*
Y3597010D01*
X2756955Y3598671D01*
X2760000Y3606022D01*
Y3613978D01*
X2756955Y3621329D01*
X2751329Y3626955D01*
X2743978Y3630000D01*
D02*
G37*
G36*
X2643978Y2980000D02*
X2636022D01*
X2628671Y2976955D01*
X2623045Y2971329D01*
X2620000Y2963978D01*
Y2956022D01*
X2623045Y2948671D01*
X2624706Y2947010D01*
Y2862990D01*
X2623045Y2861329D01*
X2620000Y2853978D01*
Y2846022D01*
X2623045Y2838671D01*
X2624706Y2837010D01*
Y2422677D01*
X2612284D01*
Y2358755D01*
X2612038Y2358162D01*
X2611052Y2350669D01*
Y2309331D01*
X2612038Y2301838D01*
X2614930Y2294856D01*
X2619530Y2288861D01*
X2625526Y2284261D01*
X2632508Y2281369D01*
X2640000Y2280382D01*
X2647492Y2281369D01*
X2654474Y2284261D01*
X2660470Y2288861D01*
X2665070Y2294856D01*
X2667962Y2301838D01*
X2668948Y2309331D01*
Y2350669D01*
X2667962Y2358162D01*
X2667716Y2358755D01*
Y2422677D01*
X2655294D01*
Y2837010D01*
X2656955Y2838671D01*
X2660000Y2846022D01*
Y2853978D01*
X2656955Y2861329D01*
X2655294Y2862990D01*
Y2947010D01*
X2656955Y2948671D01*
X2660000Y2956022D01*
Y2963978D01*
X2656955Y2971329D01*
X2651329Y2976955D01*
X2643978Y2980000D01*
D02*
G37*
G36*
X2543978Y3530000D02*
X2536022D01*
X2528671Y3526955D01*
X2523045Y3521329D01*
X2520000Y3513978D01*
Y3506022D01*
X2523045Y3498671D01*
X2524706Y3497010D01*
Y2422677D01*
X2512284D01*
Y2358755D01*
X2512038Y2358162D01*
X2511052Y2350669D01*
Y2309331D01*
X2512038Y2301838D01*
X2514930Y2294856D01*
X2519530Y2288861D01*
X2525526Y2284261D01*
X2532508Y2281369D01*
X2540000Y2280382D01*
X2547492Y2281369D01*
X2554474Y2284261D01*
X2560470Y2288861D01*
X2565070Y2294856D01*
X2567962Y2301838D01*
X2568948Y2309331D01*
Y2350669D01*
X2567962Y2358162D01*
X2567716Y2358755D01*
Y2422677D01*
X2555294D01*
Y3497010D01*
X2556955Y3498671D01*
X2560000Y3506022D01*
Y3513978D01*
X2556955Y3521329D01*
X2551329Y3526955D01*
X2543978Y3530000D01*
D02*
G37*
G36*
X2445131Y3732950D02*
X2437174D01*
X2429823Y3729906D01*
X2424197Y3724280D01*
X2421152Y3716929D01*
Y3708972D01*
X2424197Y3701621D01*
X2425858Y3699960D01*
Y2422677D01*
X2412284D01*
Y2358755D01*
X2412038Y2358162D01*
X2411052Y2350669D01*
Y2309331D01*
X2412038Y2301838D01*
X2414930Y2294856D01*
X2419530Y2288861D01*
X2425526Y2284261D01*
X2432508Y2281369D01*
X2440000Y2280382D01*
X2447492Y2281369D01*
X2454474Y2284261D01*
X2460470Y2288861D01*
X2465070Y2294856D01*
X2467962Y2301838D01*
X2468948Y2309331D01*
Y2350669D01*
X2467962Y2358162D01*
X2467716Y2358755D01*
Y2422677D01*
X2456446D01*
Y3699960D01*
X2458108Y3701621D01*
X2461152Y3708972D01*
Y3716929D01*
X2458108Y3724280D01*
X2452481Y3729906D01*
X2445131Y3732950D01*
D02*
G37*
G36*
X2343978Y3330000D02*
X2336022D01*
X2328671Y3326955D01*
X2323045Y3321329D01*
X2320000Y3313978D01*
Y3306022D01*
X2323045Y3298671D01*
X2324706Y3297010D01*
Y2422677D01*
X2312284D01*
Y2358755D01*
X2312038Y2358162D01*
X2311052Y2350669D01*
Y2309331D01*
X2312038Y2301838D01*
X2314930Y2294856D01*
X2319530Y2288861D01*
X2325526Y2284261D01*
X2332508Y2281369D01*
X2340000Y2280382D01*
X2347492Y2281369D01*
X2354474Y2284261D01*
X2360470Y2288861D01*
X2365070Y2294856D01*
X2367962Y2301838D01*
X2368948Y2309331D01*
Y2350669D01*
X2367962Y2358162D01*
X2367716Y2358755D01*
Y2422677D01*
X2355294D01*
Y3297010D01*
X2356955Y3298671D01*
X2360000Y3306022D01*
Y3313978D01*
X2356955Y3321329D01*
X2351329Y3326955D01*
X2343978Y3330000D01*
D02*
G37*
G36*
X1823978Y4810000D02*
X1816022D01*
X1808671Y4806955D01*
X1803045Y4801329D01*
X1800000Y4793978D01*
Y4786022D01*
X1803045Y4778671D01*
X1808671Y4773045D01*
X1809986Y4772500D01*
Y4767500D01*
X1808671Y4766955D01*
X1803045Y4761329D01*
X1800000Y4753978D01*
Y4746022D01*
X1803045Y4738671D01*
X1808671Y4733045D01*
X1816022Y4730000D01*
X1823978D01*
X1831329Y4733045D01*
X1832990Y4734706D01*
X2153665D01*
X2204706Y4683665D01*
Y4070111D01*
X2199706Y4067628D01*
X2195000Y4069577D01*
Y4050000D01*
Y4030423D01*
X2199706Y4032372D01*
X2204706Y4029889D01*
Y3846335D01*
X2129186Y3770814D01*
X2125870Y3765853D01*
X2124706Y3760000D01*
Y2562990D01*
X2123045Y2561329D01*
X2120000Y2553978D01*
Y2546022D01*
X2123045Y2538671D01*
X2124706Y2537010D01*
Y2422677D01*
X2112284D01*
Y2358755D01*
X2112038Y2358162D01*
X2111052Y2350669D01*
Y2309331D01*
X2112038Y2301838D01*
X2114930Y2294856D01*
X2119530Y2288861D01*
X2125526Y2284261D01*
X2132508Y2281369D01*
X2140000Y2280382D01*
X2147492Y2281369D01*
X2154474Y2284261D01*
X2160470Y2288861D01*
X2165070Y2294856D01*
X2167962Y2301838D01*
X2168948Y2309331D01*
Y2350669D01*
X2167962Y2358162D01*
X2167716Y2358755D01*
Y2422677D01*
X2155294D01*
Y2537010D01*
X2156955Y2538671D01*
X2160000Y2546022D01*
Y2553978D01*
X2156955Y2561329D01*
X2155294Y2562990D01*
Y3753665D01*
X2230814Y3829186D01*
X2234130Y3834147D01*
X2235294Y3840000D01*
Y4690000D01*
X2234130Y4695853D01*
X2230814Y4700814D01*
X2170814Y4760814D01*
X2165853Y4764130D01*
X2160000Y4765294D01*
X1832990D01*
X1831661Y4766623D01*
X1831315Y4769118D01*
X1831294Y4772119D01*
X1834100Y4774706D01*
X2183665D01*
X2244706Y4713665D01*
Y3786335D01*
X2229186Y3770814D01*
X2225870Y3765853D01*
X2224706Y3760000D01*
Y2512990D01*
X2223045Y2511329D01*
X2220000Y2503978D01*
Y2496022D01*
X2223045Y2488671D01*
X2224706Y2487010D01*
Y2422677D01*
X2212284D01*
Y2358755D01*
X2212038Y2358162D01*
X2211052Y2350669D01*
Y2309331D01*
X2212038Y2301838D01*
X2214930Y2294856D01*
X2219530Y2288861D01*
X2225526Y2284261D01*
X2232508Y2281369D01*
X2240000Y2280382D01*
X2247492Y2281369D01*
X2254474Y2284261D01*
X2260470Y2288861D01*
X2265070Y2294856D01*
X2267962Y2301838D01*
X2268948Y2309331D01*
Y2350669D01*
X2267962Y2358162D01*
X2267716Y2358755D01*
Y2422677D01*
X2255294D01*
Y2487010D01*
X2256955Y2488671D01*
X2260000Y2496022D01*
Y2503978D01*
X2256955Y2511329D01*
X2255294Y2512990D01*
Y3753665D01*
X2270814Y3769186D01*
X2274130Y3774147D01*
X2275294Y3780000D01*
Y4720000D01*
X2274130Y4725853D01*
X2270814Y4730815D01*
X2200814Y4800814D01*
X2195853Y4804130D01*
X2190000Y4805294D01*
X1832990D01*
X1831329Y4806955D01*
X1823978Y4810000D01*
D02*
G37*
G36*
X2043978Y3230000D02*
X2036022D01*
X2028671Y3226955D01*
X2023045Y3221329D01*
X2020000Y3213978D01*
Y3206022D01*
X2023045Y3198671D01*
X2024706Y3197010D01*
Y2422677D01*
X2012284D01*
Y2358755D01*
X2012038Y2358162D01*
X2011052Y2350669D01*
Y2309331D01*
X2012038Y2301838D01*
X2014930Y2294856D01*
X2019530Y2288861D01*
X2025526Y2284261D01*
X2032508Y2281369D01*
X2040000Y2280382D01*
X2047492Y2281369D01*
X2054474Y2284261D01*
X2060470Y2288861D01*
X2065070Y2294856D01*
X2067962Y2301838D01*
X2068948Y2309331D01*
Y2350669D01*
X2067962Y2358162D01*
X2067716Y2358755D01*
Y2422677D01*
X2055294D01*
Y3197010D01*
X2056955Y3198671D01*
X2060000Y3206022D01*
Y3213978D01*
X2056955Y3221329D01*
X2051329Y3226955D01*
X2043978Y3230000D01*
D02*
G37*
G36*
X1943978Y3650000D02*
X1936022D01*
X1928671Y3646955D01*
X1923045Y3641329D01*
X1920000Y3633978D01*
Y3626022D01*
X1923045Y3618671D01*
X1924706Y3617010D01*
Y2612990D01*
X1923045Y2611329D01*
X1920000Y2603978D01*
Y2596022D01*
X1923045Y2588671D01*
X1924706Y2587010D01*
Y2422677D01*
X1912284D01*
Y2358755D01*
X1912038Y2358162D01*
X1911052Y2350669D01*
Y2309331D01*
X1912038Y2301838D01*
X1914930Y2294856D01*
X1919530Y2288861D01*
X1925526Y2284261D01*
X1932508Y2281369D01*
X1940000Y2280382D01*
X1947492Y2281369D01*
X1954474Y2284261D01*
X1960470Y2288861D01*
X1965070Y2294856D01*
X1967962Y2301838D01*
X1968948Y2309331D01*
Y2350669D01*
X1967962Y2358162D01*
X1967716Y2358755D01*
Y2422677D01*
X1955294D01*
Y2587010D01*
X1956955Y2588671D01*
X1960000Y2596022D01*
Y2603978D01*
X1956955Y2611329D01*
X1955294Y2612990D01*
Y3617010D01*
X1956955Y3618671D01*
X1960000Y3626022D01*
Y3633978D01*
X1956955Y3641329D01*
X1951329Y3646955D01*
X1943978Y3650000D01*
D02*
G37*
G36*
X1843978Y3790000D02*
X1836022D01*
X1828671Y3786955D01*
X1823045Y3781329D01*
X1820000Y3773978D01*
Y3766022D01*
X1823045Y3758671D01*
X1824706Y3757010D01*
Y2662990D01*
X1823045Y2661329D01*
X1820000Y2653978D01*
Y2646022D01*
X1823045Y2638671D01*
X1824706Y2637010D01*
Y2422677D01*
X1812284D01*
Y2358755D01*
X1812038Y2358162D01*
X1811052Y2350669D01*
Y2309331D01*
X1812038Y2301838D01*
X1814930Y2294856D01*
X1819530Y2288861D01*
X1825526Y2284261D01*
X1832508Y2281369D01*
X1840000Y2280382D01*
X1847492Y2281369D01*
X1854474Y2284261D01*
X1860470Y2288861D01*
X1865070Y2294856D01*
X1867962Y2301838D01*
X1868948Y2309331D01*
Y2350669D01*
X1867962Y2358162D01*
X1867716Y2358755D01*
Y2422677D01*
X1855294D01*
Y2637010D01*
X1856955Y2638671D01*
X1860000Y2646022D01*
Y2653978D01*
X1856955Y2661329D01*
X1855294Y2662990D01*
Y3757010D01*
X1856955Y3758671D01*
X1860000Y3766022D01*
Y3773978D01*
X1856955Y3781329D01*
X1851329Y3786955D01*
X1843978Y3790000D01*
D02*
G37*
G36*
X1643978Y4450000D02*
X1636022D01*
X1628671Y4446955D01*
X1623045Y4441329D01*
X1620000Y4433978D01*
Y4426022D01*
X1623045Y4418671D01*
X1624706Y4417010D01*
Y4302990D01*
X1623045Y4301329D01*
X1620000Y4293978D01*
Y4286022D01*
X1623045Y4278671D01*
X1624706Y4277010D01*
Y2422677D01*
X1612284D01*
Y2358755D01*
X1612038Y2358162D01*
X1611052Y2350669D01*
Y2309331D01*
X1612038Y2301838D01*
X1614930Y2294856D01*
X1619530Y2288861D01*
X1625526Y2284261D01*
X1632508Y2281369D01*
X1640000Y2280382D01*
X1647492Y2281369D01*
X1654474Y2284261D01*
X1660470Y2288861D01*
X1665070Y2294856D01*
X1667962Y2301838D01*
X1668948Y2309331D01*
Y2350669D01*
X1667962Y2358162D01*
X1667716Y2358755D01*
Y2422677D01*
X1655294D01*
Y4277010D01*
X1656955Y4278671D01*
X1660000Y4286022D01*
Y4293978D01*
X1656955Y4301329D01*
X1655294Y4302990D01*
Y4417010D01*
X1656955Y4418671D01*
X1660000Y4426022D01*
Y4433978D01*
X1656955Y4441329D01*
X1651329Y4446955D01*
X1643978Y4450000D01*
D02*
G37*
G36*
X1543978Y3430000D02*
X1536022D01*
X1528671Y3426955D01*
X1523045Y3421329D01*
X1520000Y3413978D01*
Y3406022D01*
X1523045Y3398671D01*
X1524706Y3397010D01*
Y2422677D01*
X1512284D01*
Y2358755D01*
X1512038Y2358162D01*
X1511052Y2350669D01*
Y2309331D01*
X1512038Y2301838D01*
X1514930Y2294856D01*
X1519530Y2288861D01*
X1525526Y2284261D01*
X1532508Y2281369D01*
X1540000Y2280382D01*
X1547492Y2281369D01*
X1554474Y2284261D01*
X1560470Y2288861D01*
X1565070Y2294856D01*
X1567962Y2301838D01*
X1568948Y2309331D01*
Y2350669D01*
X1567962Y2358162D01*
X1567716Y2358755D01*
Y2422677D01*
X1555294D01*
Y3397010D01*
X1556955Y3398671D01*
X1560000Y3406022D01*
Y3413978D01*
X1556955Y3421329D01*
X1551329Y3426955D01*
X1543978Y3430000D01*
D02*
G37*
G36*
X1443978Y3630000D02*
X1436022D01*
X1428671Y3626955D01*
X1423045Y3621329D01*
X1420000Y3613978D01*
Y3606022D01*
X1423045Y3598671D01*
X1424879Y3596837D01*
Y2422677D01*
X1412284D01*
Y2358755D01*
X1412038Y2358162D01*
X1411052Y2350669D01*
Y2309331D01*
X1412038Y2301838D01*
X1414930Y2294856D01*
X1419530Y2288861D01*
X1425526Y2284261D01*
X1432508Y2281369D01*
X1440000Y2280382D01*
X1447492Y2281369D01*
X1454474Y2284261D01*
X1460470Y2288861D01*
X1465070Y2294856D01*
X1467962Y2301838D01*
X1468948Y2309331D01*
Y2350669D01*
X1467962Y2358162D01*
X1467716Y2358755D01*
Y2422677D01*
X1455467D01*
Y3597182D01*
X1456955Y3598671D01*
X1460000Y3606022D01*
Y3613978D01*
X1456955Y3621329D01*
X1451329Y3626955D01*
X1443978Y3630000D01*
D02*
G37*
G36*
X1343978Y4350000D02*
X1336022D01*
X1328671Y4346955D01*
X1323045Y4341329D01*
X1320000Y4333978D01*
Y4326022D01*
X1323045Y4318671D01*
X1324706Y4317010D01*
Y2422677D01*
X1312284D01*
Y2358755D01*
X1312038Y2358162D01*
X1311052Y2350669D01*
Y2309331D01*
X1312038Y2301838D01*
X1314930Y2294856D01*
X1319530Y2288861D01*
X1325526Y2284261D01*
X1332508Y2281369D01*
X1340000Y2280382D01*
X1347492Y2281369D01*
X1354474Y2284261D01*
X1360470Y2288861D01*
X1365070Y2294856D01*
X1367962Y2301838D01*
X1368948Y2309331D01*
Y2350669D01*
X1367962Y2358162D01*
X1367716Y2358755D01*
Y2422677D01*
X1355294D01*
Y4317010D01*
X1356955Y4318671D01*
X1360000Y4326022D01*
Y4333978D01*
X1356955Y4341329D01*
X1351329Y4346955D01*
X1343978Y4350000D01*
D02*
G37*
G36*
X6799370Y2380000D02*
X6750000D01*
X6700630D01*
Y2378500D01*
X6703994Y2365944D01*
X6710494Y2354686D01*
X6719686Y2345494D01*
X6730944Y2338994D01*
X6736192Y2337588D01*
Y2332412D01*
X6730944Y2331006D01*
X6719686Y2324506D01*
X6710494Y2315314D01*
X6703994Y2304056D01*
X6700630Y2291500D01*
Y2278500D01*
X6703994Y2265944D01*
X6710494Y2254686D01*
X6719686Y2245494D01*
X6730944Y2238994D01*
X6743500Y2235630D01*
X6756500D01*
X6769056Y2238994D01*
X6780314Y2245494D01*
X6789506Y2254686D01*
X6796006Y2265944D01*
X6799370Y2278500D01*
Y2291500D01*
X6796006Y2304056D01*
X6789506Y2315314D01*
X6780314Y2324506D01*
X6769056Y2331006D01*
X6763808Y2332412D01*
Y2337588D01*
X6769056Y2338994D01*
X6780314Y2345494D01*
X6789506Y2354686D01*
X6796006Y2365944D01*
X6799370Y2378500D01*
Y2380000D01*
D02*
G37*
G36*
X5746500Y2249370D02*
X5733500D01*
X5720944Y2246006D01*
X5709686Y2239506D01*
X5700494Y2230314D01*
X5693994Y2219056D01*
X5692588Y2213808D01*
X5687412D01*
X5686006Y2219056D01*
X5679506Y2230314D01*
X5670314Y2239506D01*
X5659056Y2246006D01*
X5646500Y2249370D01*
X5633500D01*
X5620944Y2246006D01*
X5609686Y2239506D01*
X5600494Y2230314D01*
X5593994Y2219056D01*
X5590630Y2206500D01*
Y2193500D01*
X5593994Y2180944D01*
X5600494Y2169686D01*
X5609686Y2160494D01*
X5617569Y2155943D01*
Y2000000D01*
X5619276Y1991416D01*
X5624139Y1984139D01*
X5631416Y1979276D01*
X5640000Y1977569D01*
X5648584Y1979276D01*
X5655861Y1984139D01*
X5660724Y1991416D01*
X5662431Y2000000D01*
Y2155943D01*
X5670314Y2160494D01*
X5679506Y2169686D01*
X5686006Y2180944D01*
X5687412Y2186192D01*
X5692588D01*
X5693994Y2180944D01*
X5700494Y2169686D01*
X5709686Y2160494D01*
X5720944Y2153994D01*
X5733500Y2150630D01*
X5746500D01*
X5759056Y2153994D01*
X5770314Y2160494D01*
X5779506Y2169686D01*
X5786006Y2180944D01*
X5789370Y2193500D01*
Y2206500D01*
X5786006Y2219056D01*
X5779506Y2230314D01*
X5770314Y2239506D01*
X5759056Y2246006D01*
X5746500Y2249370D01*
D02*
G37*
G36*
X5126500D02*
X5113500D01*
X5100944Y2246006D01*
X5089686Y2239506D01*
X5080494Y2230314D01*
X5073994Y2219056D01*
X5072588Y2213808D01*
X5067412D01*
X5066006Y2219056D01*
X5059506Y2230314D01*
X5050314Y2239506D01*
X5039056Y2246006D01*
X5026500Y2249370D01*
X5013500D01*
X5000944Y2246006D01*
X4989686Y2239506D01*
X4980494Y2230314D01*
X4973994Y2219056D01*
X4970630Y2206500D01*
Y2193500D01*
X4973994Y2180944D01*
X4980494Y2169686D01*
X4989686Y2160494D01*
X4997569Y2155943D01*
Y2000000D01*
X4999276Y1991416D01*
X5004139Y1984139D01*
X5011416Y1979276D01*
X5020000Y1977569D01*
X5028584Y1979276D01*
X5035861Y1984139D01*
X5040724Y1991416D01*
X5041963Y1997647D01*
X5042263Y1997705D01*
X5047029Y1997487D01*
X5049641Y1991181D01*
X5055267Y1985555D01*
X5061596Y1982934D01*
Y2002510D01*
Y2022087D01*
X5055267Y2019466D01*
X5049641Y2013840D01*
X5047431Y2008504D01*
X5042431Y2009498D01*
Y2155943D01*
X5050314Y2160494D01*
X5059506Y2169686D01*
X5066006Y2180944D01*
X5067412Y2186192D01*
X5072588D01*
X5073994Y2180944D01*
X5080494Y2169686D01*
X5089686Y2160494D01*
X5100944Y2153994D01*
X5113500Y2150630D01*
X5126500D01*
X5139056Y2153994D01*
X5150314Y2160494D01*
X5159506Y2169686D01*
X5166006Y2180944D01*
X5169370Y2193500D01*
Y2206500D01*
X5166006Y2219056D01*
X5159506Y2230314D01*
X5150314Y2239506D01*
X5139056Y2246006D01*
X5126500Y2249370D01*
D02*
G37*
G36*
X4506500D02*
X4493500D01*
X4480944Y2246006D01*
X4469686Y2239506D01*
X4460494Y2230314D01*
X4453994Y2219056D01*
X4452588Y2213808D01*
X4447412D01*
X4446006Y2219056D01*
X4439506Y2230314D01*
X4430314Y2239506D01*
X4419056Y2246006D01*
X4406500Y2249370D01*
X4393500D01*
X4380944Y2246006D01*
X4369686Y2239506D01*
X4360494Y2230314D01*
X4353994Y2219056D01*
X4350630Y2206500D01*
Y2193500D01*
X4353994Y2180944D01*
X4360494Y2169686D01*
X4369686Y2160494D01*
X4377569Y2155943D01*
Y2000000D01*
X4379276Y1991416D01*
X4384139Y1984139D01*
X4391416Y1979276D01*
X4400000Y1977569D01*
X4408584Y1979276D01*
X4415861Y1984139D01*
X4420724Y1991416D01*
X4422431Y2000000D01*
Y2155943D01*
X4430314Y2160494D01*
X4439506Y2169686D01*
X4446006Y2180944D01*
X4447412Y2186192D01*
X4452588D01*
X4453994Y2180944D01*
X4460494Y2169686D01*
X4469686Y2160494D01*
X4480944Y2153994D01*
X4493500Y2150630D01*
X4506500D01*
X4519056Y2153994D01*
X4530314Y2160494D01*
X4539506Y2169686D01*
X4546006Y2180944D01*
X4549370Y2193500D01*
Y2206500D01*
X4546006Y2219056D01*
X4539506Y2230314D01*
X4530314Y2239506D01*
X4519056Y2246006D01*
X4506500Y2249370D01*
D02*
G37*
G36*
X1593978Y4400000D02*
X1586022D01*
X1578671Y4396955D01*
X1573045Y4391329D01*
X1570000Y4383978D01*
Y4376022D01*
X1573045Y4368671D01*
X1574706Y4367010D01*
Y2242990D01*
X1573045Y2241329D01*
X1570000Y2233978D01*
Y2226022D01*
X1573045Y2218671D01*
X1578671Y2213045D01*
X1586022Y2210000D01*
X1593978D01*
X1601329Y2213045D01*
X1606955Y2218671D01*
X1610000Y2226022D01*
Y2233978D01*
X1606955Y2241329D01*
X1605294Y2242990D01*
Y4367010D01*
X1606955Y4368671D01*
X1610000Y4376022D01*
Y4383978D01*
X1606955Y4391329D01*
X1601329Y4396955D01*
X1593978Y4400000D01*
D02*
G37*
G36*
X1393978Y4200000D02*
X1386022D01*
X1378671Y4196955D01*
X1373045Y4191329D01*
X1370000Y4183978D01*
Y4176022D01*
X1373045Y4168671D01*
X1374706Y4167010D01*
Y2242990D01*
X1373045Y2241329D01*
X1370000Y2233978D01*
Y2226022D01*
X1373045Y2218671D01*
X1378671Y2213045D01*
X1386022Y2210000D01*
X1393978D01*
X1401329Y2213045D01*
X1406955Y2218671D01*
X1410000Y2226022D01*
Y2233978D01*
X1406955Y2241329D01*
X1405294Y2242990D01*
Y4167010D01*
X1406955Y4168671D01*
X1410000Y4176022D01*
Y4183978D01*
X1406955Y4191329D01*
X1401329Y4196955D01*
X1393978Y4200000D01*
D02*
G37*
G36*
X6000000Y2199577D02*
Y2185000D01*
X6014577D01*
X6011955Y2191329D01*
X6006329Y2196955D01*
X6000000Y2199577D01*
D02*
G37*
G36*
X5990000D02*
X5983671Y2196955D01*
X5978045Y2191329D01*
X5975423Y2185000D01*
X5990000D01*
Y2199577D01*
D02*
G37*
G36*
X5900000D02*
Y2185000D01*
X5914577D01*
X5911955Y2191329D01*
X5906329Y2196955D01*
X5900000Y2199577D01*
D02*
G37*
G36*
X5890000D02*
X5883671Y2196955D01*
X5878045Y2191329D01*
X5875423Y2185000D01*
X5890000D01*
Y2199577D01*
D02*
G37*
G36*
X6014577Y2175000D02*
X6000000D01*
Y2160423D01*
X6006329Y2163045D01*
X6011955Y2168671D01*
X6014577Y2175000D01*
D02*
G37*
G36*
X5990000D02*
X5975423D01*
X5978045Y2168671D01*
X5983671Y2163045D01*
X5990000Y2160423D01*
Y2175000D01*
D02*
G37*
G36*
X5914577D02*
X5900000D01*
Y2160423D01*
X5906329Y2163045D01*
X5911955Y2168671D01*
X5914577Y2175000D01*
D02*
G37*
G36*
X5890000D02*
X5875423D01*
X5878045Y2168671D01*
X5883671Y2163045D01*
X5890000Y2160423D01*
Y2175000D01*
D02*
G37*
G36*
X6906500Y2234370D02*
X6893500D01*
X6880944Y2231006D01*
X6869686Y2224506D01*
X6860494Y2215314D01*
X6853994Y2204056D01*
X6850630Y2191500D01*
Y2178500D01*
X6853994Y2165944D01*
X6860494Y2154686D01*
X6869686Y2145494D01*
X6880944Y2138994D01*
X6893500Y2135630D01*
X6906500D01*
X6919056Y2138994D01*
X6930314Y2145494D01*
X6939506Y2154686D01*
X6946006Y2165944D01*
X6949370Y2178500D01*
Y2191500D01*
X6946006Y2204056D01*
X6939506Y2215314D01*
X6930314Y2224506D01*
X6919056Y2231006D01*
X6906500Y2234370D01*
D02*
G37*
G36*
X2593978Y3580000D02*
X2586022D01*
X2578671Y3576955D01*
X2573045Y3571329D01*
X2570000Y3563978D01*
Y3556022D01*
X2573045Y3548671D01*
X2574706Y3547010D01*
Y2230000D01*
Y2162990D01*
X2573045Y2161329D01*
X2570000Y2153978D01*
Y2146022D01*
X2573045Y2138671D01*
X2578671Y2133045D01*
X2586022Y2130000D01*
X2593978D01*
X2601329Y2133045D01*
X2606955Y2138671D01*
X2610000Y2146022D01*
Y2153978D01*
X2606955Y2161329D01*
X2605294Y2162990D01*
Y2230000D01*
Y3547010D01*
X2606955Y3548671D01*
X2610000Y3556022D01*
Y3563978D01*
X2606955Y3571329D01*
X2601329Y3576955D01*
X2593978Y3580000D01*
D02*
G37*
G36*
X2193978Y3180000D02*
X2186022D01*
X2178671Y3176955D01*
X2173045Y3171329D01*
X2170000Y3163978D01*
Y3156022D01*
X2173045Y3148671D01*
X2174706Y3147010D01*
Y2762990D01*
X2173045Y2761329D01*
X2170000Y2753978D01*
Y2746022D01*
X2173045Y2738671D01*
X2174706Y2737010D01*
Y2162990D01*
X2173045Y2161329D01*
X2170000Y2153978D01*
Y2146022D01*
X2173045Y2138671D01*
X2178671Y2133045D01*
X2186022Y2130000D01*
X2193978D01*
X2201329Y2133045D01*
X2206955Y2138671D01*
X2210000Y2146022D01*
Y2153978D01*
X2206955Y2161329D01*
X2205294Y2162990D01*
Y2737010D01*
X2206955Y2738671D01*
X2210000Y2746022D01*
Y2753978D01*
X2206955Y2761329D01*
X2205294Y2762990D01*
Y3147010D01*
X2206955Y3148671D01*
X2210000Y3156022D01*
Y3163978D01*
X2206955Y3171329D01*
X2201329Y3176955D01*
X2193978Y3180000D01*
D02*
G37*
G36*
X1693978Y4150000D02*
X1686022D01*
X1678671Y4146955D01*
X1673045Y4141329D01*
X1670000Y4133978D01*
Y4126022D01*
X1673045Y4118671D01*
X1674706Y4117010D01*
Y2162990D01*
X1673045Y2161329D01*
X1670000Y2153978D01*
Y2146022D01*
X1673045Y2138671D01*
X1678671Y2133045D01*
X1686022Y2130000D01*
X1693978D01*
X1701329Y2133045D01*
X1706955Y2138671D01*
X1710000Y2146022D01*
Y2153978D01*
X1706955Y2161329D01*
X1705294Y2162990D01*
Y4117010D01*
X1706955Y4118671D01*
X1710000Y4126022D01*
Y4133978D01*
X1706955Y4141329D01*
X1701329Y4146955D01*
X1693978Y4150000D01*
D02*
G37*
G36*
X2693978Y3100000D02*
X2686022D01*
X2678671Y3096955D01*
X2673045Y3091329D01*
X2670000Y3083978D01*
Y3076022D01*
X2673045Y3068671D01*
X2674706Y3067010D01*
Y2812990D01*
X2673045Y2811329D01*
X2670000Y2803978D01*
Y2796022D01*
X2673045Y2788671D01*
X2674706Y2787010D01*
Y2242990D01*
X2673045Y2241329D01*
X2670000Y2233978D01*
Y2226022D01*
X2673045Y2218671D01*
X2674706Y2217010D01*
Y2112990D01*
X2673045Y2111329D01*
X2670000Y2103978D01*
Y2096022D01*
X2673045Y2088671D01*
X2678671Y2083045D01*
X2686022Y2080000D01*
X2693978D01*
X2701329Y2083045D01*
X2706955Y2088671D01*
X2710000Y2096022D01*
Y2103978D01*
X2706955Y2111329D01*
X2705294Y2112990D01*
Y2217010D01*
X2706955Y2218671D01*
X2710000Y2226022D01*
Y2233978D01*
X2706955Y2241329D01*
X2705294Y2242990D01*
Y2787010D01*
X2706955Y2788671D01*
X2710000Y2796022D01*
Y2803978D01*
X2706955Y2811329D01*
X2705294Y2812990D01*
Y3067010D01*
X2706955Y3068671D01*
X2710000Y3076022D01*
Y3083978D01*
X2706955Y3091329D01*
X2701329Y3096955D01*
X2693978Y3100000D01*
D02*
G37*
G36*
X3579528Y2139528D02*
X3500472D01*
Y2060472D01*
X3579528D01*
Y2139528D01*
D02*
G37*
G36*
X2393978Y3380000D02*
X2386022D01*
X2378671Y3376955D01*
X2373045Y3371329D01*
X2370000Y3363978D01*
Y3356022D01*
X2373045Y3348671D01*
X2374706Y3347010D01*
Y2062990D01*
X2373045Y2061329D01*
X2370000Y2053978D01*
Y2046022D01*
X2373045Y2038671D01*
X2378671Y2033045D01*
X2386022Y2030000D01*
X2393978D01*
X2401329Y2033045D01*
X2406955Y2038671D01*
X2410000Y2046022D01*
Y2053978D01*
X2406955Y2061329D01*
X2405294Y2062990D01*
Y3347010D01*
X2406955Y3348671D01*
X2410000Y3356022D01*
Y3363978D01*
X2406955Y3371329D01*
X2401329Y3376955D01*
X2393978Y3380000D01*
D02*
G37*
G36*
X3745204Y2089528D02*
X3734796D01*
X3724743Y2086834D01*
X3715729Y2081630D01*
X3708370Y2074271D01*
X3703166Y2065257D01*
X3700472Y2055204D01*
Y2044796D01*
X3703166Y2034743D01*
X3708370Y2025729D01*
X3715729Y2018370D01*
X3724743Y2013166D01*
X3734796Y2010473D01*
X3745204D01*
X3755257Y2013166D01*
X3764271Y2018370D01*
X3771630Y2025729D01*
X3776834Y2034743D01*
X3779528Y2044796D01*
Y2055204D01*
X3776834Y2065257D01*
X3771630Y2074271D01*
X3764271Y2081630D01*
X3755257Y2086834D01*
X3745204Y2089528D01*
D02*
G37*
G36*
X4454107Y2022351D02*
Y2007775D01*
X4468684D01*
X4466062Y2014104D01*
X4460436Y2019730D01*
X4454107Y2022351D01*
D02*
G37*
G36*
X4444107D02*
X4437778Y2019730D01*
X4432152Y2014104D01*
X4429530Y2007775D01*
X4444107D01*
Y2022351D01*
D02*
G37*
G36*
X5071596Y2022087D02*
Y2007510D01*
X5086173D01*
X5083552Y2013840D01*
X5077926Y2019466D01*
X5071596Y2022087D01*
D02*
G37*
G36*
X5695000Y2019577D02*
Y2005000D01*
X5709577D01*
X5706955Y2011329D01*
X5701329Y2016955D01*
X5695000Y2019577D01*
D02*
G37*
G36*
X5685000D02*
X5678671Y2016955D01*
X5673045Y2011329D01*
X5670423Y2005000D01*
X5685000D01*
Y2019577D01*
D02*
G37*
G36*
X5700000Y2672431D02*
X5691416Y2670724D01*
X5684139Y2665861D01*
X5679276Y2658584D01*
X5677569Y2650000D01*
X5679276Y2641416D01*
X5684139Y2634139D01*
X5872569Y2445709D01*
Y2405000D01*
X5874276Y2396416D01*
X5879139Y2389139D01*
X6034139Y2234139D01*
X6041416Y2229276D01*
X6050000Y2227569D01*
X6420709D01*
X6492986Y2155292D01*
X6490630Y2146500D01*
Y2133500D01*
X6493994Y2120944D01*
X6500494Y2109686D01*
X6509686Y2100494D01*
X6520944Y2093994D01*
X6526192Y2092588D01*
Y2087412D01*
X6520944Y2086006D01*
X6509686Y2079506D01*
X6500494Y2070314D01*
X6495943Y2062431D01*
X6300000D01*
X6291416Y2060724D01*
X6284139Y2055861D01*
X6244139Y2015861D01*
X6239276Y2008584D01*
X6237569Y2000000D01*
X6239276Y1991416D01*
X6244139Y1984139D01*
X6251416Y1979276D01*
X6260000Y1977569D01*
X6268584Y1979276D01*
X6275861Y1984139D01*
X6285000Y1993278D01*
X6290000Y1991207D01*
Y1986022D01*
X6293045Y1978671D01*
X6298671Y1973045D01*
X6305000Y1970423D01*
Y1990000D01*
X6310000D01*
Y1995000D01*
X6329577D01*
X6326955Y2001329D01*
X6321329Y2006955D01*
X6313978Y2010000D01*
X6310859D01*
X6308639Y2014936D01*
X6310686Y2017569D01*
X6495943D01*
X6500494Y2009686D01*
X6509686Y2000494D01*
X6520944Y1993994D01*
X6533500Y1990630D01*
X6546500D01*
X6559056Y1993994D01*
X6570314Y2000494D01*
X6579506Y2009686D01*
X6586006Y2020944D01*
X6589370Y2033500D01*
Y2046500D01*
X6586006Y2059056D01*
X6579506Y2070314D01*
X6570314Y2079506D01*
X6559056Y2086006D01*
X6553808Y2087412D01*
Y2092588D01*
X6559056Y2093994D01*
X6570314Y2100494D01*
X6579506Y2109686D01*
X6586006Y2120944D01*
X6589370Y2133500D01*
Y2146500D01*
X6586006Y2159056D01*
X6579506Y2170314D01*
X6570314Y2179506D01*
X6559056Y2186006D01*
X6546500Y2189370D01*
X6533500D01*
X6524708Y2187014D01*
X6445861Y2265861D01*
X6438584Y2270724D01*
X6430000Y2272431D01*
X6059291D01*
X5917431Y2414291D01*
Y2455000D01*
X5915724Y2463584D01*
X5910861Y2470861D01*
X5715861Y2665861D01*
X5708584Y2670724D01*
X5700000Y2672431D01*
D02*
G37*
G36*
X4468684Y1997775D02*
X4454107D01*
Y1983198D01*
X4460436Y1985819D01*
X4466062Y1991446D01*
X4468684Y1997775D01*
D02*
G37*
G36*
X4444107D02*
X4429530D01*
X4432152Y1991446D01*
X4437778Y1985819D01*
X4444107Y1983198D01*
Y1997775D01*
D02*
G37*
G36*
X5086173Y1997510D02*
X5071596D01*
Y1982934D01*
X5077926Y1985555D01*
X5083552Y1991181D01*
X5086173Y1997510D01*
D02*
G37*
G36*
X5709577Y1995000D02*
X5695000D01*
Y1980423D01*
X5701329Y1983045D01*
X5706955Y1988671D01*
X5709577Y1995000D01*
D02*
G37*
G36*
X5685000D02*
X5670423D01*
X5673045Y1988671D01*
X5678671Y1983045D01*
X5685000Y1980423D01*
Y1995000D01*
D02*
G37*
G36*
X2493978Y3500000D02*
X2486022D01*
X2478671Y3496955D01*
X2473045Y3491329D01*
X2470000Y3483978D01*
Y3476022D01*
X2473045Y3468671D01*
X2474706Y3467010D01*
Y2242990D01*
X2473045Y2241329D01*
X2470000Y2233978D01*
Y2226022D01*
X2473045Y2218671D01*
X2474706Y2217010D01*
Y2012990D01*
X2473045Y2011329D01*
X2470000Y2003978D01*
Y1996022D01*
X2473045Y1988671D01*
X2478671Y1983045D01*
X2486022Y1980000D01*
X2493978D01*
X2501329Y1983045D01*
X2506955Y1988671D01*
X2510000Y1996022D01*
Y2003978D01*
X2506955Y2011329D01*
X2505294Y2012990D01*
Y2217010D01*
X2506955Y2218671D01*
X2510000Y2226022D01*
Y2233978D01*
X2506955Y2241329D01*
X2505294Y2242990D01*
Y3467010D01*
X2506955Y3468671D01*
X2510000Y3476022D01*
Y3483978D01*
X2506955Y3491329D01*
X2501329Y3496955D01*
X2493978Y3500000D01*
D02*
G37*
G36*
X6329577Y1985000D02*
X6315000D01*
Y1970423D01*
X6321329Y1973045D01*
X6326955Y1978671D01*
X6329577Y1985000D01*
D02*
G37*
G36*
X3440000Y4102431D02*
X3431416Y4100724D01*
X3424139Y4095861D01*
X3419276Y4088584D01*
X3417569Y4080000D01*
Y4050000D01*
X3419276Y4041416D01*
X3424139Y4034139D01*
X3617569Y3840709D01*
Y1809291D01*
X3547256Y1738978D01*
X3545204Y1739527D01*
X3534796D01*
X3524743Y1736834D01*
X3515729Y1731630D01*
X3508370Y1724271D01*
X3507431Y1722644D01*
X3502431Y1723984D01*
Y1776016D01*
X3507431Y1777356D01*
X3508370Y1775729D01*
X3515729Y1768370D01*
X3524743Y1763166D01*
X3534796Y1760473D01*
X3545204D01*
X3555257Y1763166D01*
X3564271Y1768370D01*
X3571630Y1775729D01*
X3576834Y1784743D01*
X3579528Y1794796D01*
Y1805204D01*
X3576834Y1815257D01*
X3571630Y1824271D01*
X3564271Y1831630D01*
X3555257Y1836834D01*
X3545204Y1839527D01*
X3534796D01*
X3524743Y1836834D01*
X3515729Y1831630D01*
X3508370Y1824271D01*
X3507431Y1822644D01*
X3502431Y1823984D01*
Y1876016D01*
X3507431Y1877356D01*
X3508370Y1875729D01*
X3515729Y1868370D01*
X3524743Y1863166D01*
X3534796Y1860473D01*
X3545204D01*
X3555257Y1863166D01*
X3564271Y1868370D01*
X3571630Y1875729D01*
X3576834Y1884743D01*
X3579528Y1894796D01*
Y1905204D01*
X3576834Y1915257D01*
X3571630Y1924271D01*
X3564271Y1931630D01*
X3555257Y1936834D01*
X3545204Y1939527D01*
X3534796D01*
X3524743Y1936834D01*
X3515729Y1931630D01*
X3508370Y1924271D01*
X3507431Y1922644D01*
X3502431Y1923984D01*
Y1976016D01*
X3507431Y1977356D01*
X3508370Y1975729D01*
X3515729Y1968370D01*
X3524743Y1963166D01*
X3534796Y1960473D01*
X3545204D01*
X3555257Y1963166D01*
X3564271Y1968370D01*
X3571630Y1975729D01*
X3576834Y1984743D01*
X3579528Y1994796D01*
Y2005204D01*
X3576834Y2015257D01*
X3571630Y2024271D01*
X3564271Y2031630D01*
X3555257Y2036834D01*
X3545204Y2039527D01*
X3534796D01*
X3524743Y2036834D01*
X3515729Y2031630D01*
X3508370Y2024271D01*
X3507431Y2022644D01*
X3502431Y2023984D01*
Y2040000D01*
X3500724Y2048584D01*
X3495861Y2055861D01*
X3488584Y2060724D01*
X3480000Y2062431D01*
X3471416Y2060724D01*
X3464139Y2055861D01*
X3459276Y2048584D01*
X3457569Y2040000D01*
Y1924285D01*
X3452569Y1921124D01*
X3446000Y1922431D01*
X3389276D01*
Y2350000D01*
X2968948D01*
Y2350669D01*
X2967962Y2358162D01*
X2967716Y2358755D01*
Y2422677D01*
X2955294D01*
Y3097010D01*
X2956955Y3098671D01*
X2960000Y3106022D01*
Y3113978D01*
X2956955Y3121329D01*
X2951329Y3126955D01*
X2943978Y3130000D01*
X2936022D01*
X2928671Y3126955D01*
X2923045Y3121329D01*
X2920000Y3113978D01*
Y3106022D01*
X2923045Y3098671D01*
X2924706Y3097010D01*
Y2422677D01*
X2912284D01*
Y2358755D01*
X2912038Y2358162D01*
X2911052Y2350669D01*
Y2350000D01*
X2890000D01*
Y1150000D01*
X2911471D01*
X2912038Y1145697D01*
X2912284Y1145104D01*
Y1081181D01*
X2967716D01*
Y1145104D01*
X2967962Y1145697D01*
X2968529Y1150000D01*
X3157944D01*
X3160630Y1146500D01*
Y1133500D01*
X3163994Y1120944D01*
X3170494Y1109686D01*
X3179686Y1100494D01*
X3190944Y1093994D01*
X3203500Y1090630D01*
X3216500D01*
X3229056Y1093994D01*
X3240314Y1100494D01*
X3249506Y1109686D01*
X3256006Y1120944D01*
X3257412Y1126192D01*
X3262588D01*
X3263994Y1120944D01*
X3270494Y1109686D01*
X3279686Y1100494D01*
X3290944Y1093994D01*
X3303500Y1090630D01*
X3316500D01*
X3329056Y1093994D01*
X3340314Y1100494D01*
X3349506Y1109686D01*
X3356006Y1120944D01*
X3357412Y1126192D01*
X3362588D01*
X3363994Y1120944D01*
X3370494Y1109686D01*
X3379686Y1100494D01*
X3390944Y1093994D01*
X3403500Y1090630D01*
X3416500D01*
X3425292Y1092986D01*
X3504139Y1014139D01*
X3511416Y1009277D01*
X3520000Y1007569D01*
X3970000D01*
X3978584Y1009277D01*
X3985861Y1014139D01*
X4055861Y1084139D01*
X4060724Y1091416D01*
X4062431Y1100000D01*
Y1800000D01*
X4060724Y1808584D01*
X4055861Y1815861D01*
X4005861Y1865861D01*
X3998584Y1870724D01*
X3990000Y1872431D01*
X3772692D01*
X3771630Y1874271D01*
X3764271Y1881630D01*
X3755257Y1886834D01*
X3745204Y1889527D01*
X3734796D01*
X3724743Y1886834D01*
X3715729Y1881630D01*
X3708370Y1874271D01*
X3703166Y1865257D01*
X3700472Y1855204D01*
Y1844796D01*
X3703166Y1834743D01*
X3708370Y1825729D01*
X3715729Y1818370D01*
X3724743Y1813166D01*
X3734796Y1810473D01*
X3745204D01*
X3755257Y1813166D01*
X3764271Y1818370D01*
X3771630Y1825729D01*
X3772692Y1827569D01*
X3980709D01*
X4017569Y1790709D01*
Y1109291D01*
X3960709Y1052431D01*
X3945316D01*
X3944824Y1057431D01*
X3947214Y1057906D01*
X3954491Y1062769D01*
X3995861Y1104139D01*
X4000724Y1111416D01*
X4002431Y1120000D01*
Y1290000D01*
X4000724Y1298584D01*
X3995861Y1305861D01*
X3940861Y1360861D01*
X3933584Y1365724D01*
X3925000Y1367431D01*
X3744291D01*
X3702431Y1409291D01*
Y1426016D01*
X3707431Y1427356D01*
X3708370Y1425729D01*
X3715729Y1418370D01*
X3724743Y1413166D01*
X3734796Y1410473D01*
X3745204D01*
X3755257Y1413166D01*
X3764271Y1418370D01*
X3771630Y1425729D01*
X3776834Y1434743D01*
X3779528Y1444796D01*
Y1455204D01*
X3776834Y1465257D01*
X3771630Y1474271D01*
X3764271Y1481630D01*
X3755257Y1486834D01*
X3745204Y1489527D01*
X3734796D01*
X3724743Y1486834D01*
X3715729Y1481630D01*
X3708370Y1474271D01*
X3707431Y1472644D01*
X3702431Y1473984D01*
Y1526016D01*
X3707431Y1527356D01*
X3708370Y1525729D01*
X3715729Y1518370D01*
X3724743Y1513166D01*
X3734796Y1510473D01*
X3745204D01*
X3755257Y1513166D01*
X3764271Y1518370D01*
X3771630Y1525729D01*
X3776834Y1534743D01*
X3779528Y1544796D01*
Y1555204D01*
X3776834Y1565257D01*
X3771630Y1574271D01*
X3764271Y1581630D01*
X3755257Y1586834D01*
X3745204Y1589527D01*
X3734796D01*
X3724743Y1586834D01*
X3715729Y1581630D01*
X3708370Y1574271D01*
X3703166Y1565257D01*
X3702912Y1564309D01*
X3697496Y1563414D01*
X3695861Y1565861D01*
X3645861Y1615861D01*
X3638584Y1620724D01*
X3630000Y1622431D01*
X3572692D01*
X3571630Y1624271D01*
X3564271Y1631630D01*
X3555257Y1636834D01*
X3545204Y1639527D01*
X3534796D01*
X3524743Y1636834D01*
X3515729Y1631630D01*
X3508370Y1624271D01*
X3507431Y1622644D01*
X3502431Y1623984D01*
Y1676016D01*
X3507431Y1677356D01*
X3508370Y1675729D01*
X3515729Y1668370D01*
X3524743Y1663166D01*
X3534796Y1660473D01*
X3545204D01*
X3555257Y1663166D01*
X3564271Y1668370D01*
X3571630Y1675729D01*
X3576834Y1684743D01*
X3579528Y1694796D01*
Y1705204D01*
X3578978Y1707256D01*
X3655861Y1784139D01*
X3660724Y1791416D01*
X3662431Y1800000D01*
Y3850000D01*
X3660724Y3858584D01*
X3655861Y3865861D01*
X3462431Y4059291D01*
Y4080000D01*
X3460724Y4088584D01*
X3455861Y4095861D01*
X3448584Y4100724D01*
X3440000Y4102431D01*
D02*
G37*
G36*
X3745204Y1989527D02*
X3734796D01*
X3724743Y1986834D01*
X3715729Y1981630D01*
X3708370Y1974271D01*
X3703166Y1965257D01*
X3700472Y1955204D01*
Y1944796D01*
X3703166Y1934743D01*
X3708370Y1925729D01*
X3715729Y1918370D01*
X3724743Y1913166D01*
X3734796Y1910473D01*
X3745204D01*
X3755257Y1913166D01*
X3764271Y1918370D01*
X3771630Y1925729D01*
X3776834Y1934743D01*
X3779528Y1944796D01*
Y1955204D01*
X3776834Y1965257D01*
X3771630Y1974271D01*
X3764271Y1981630D01*
X3755257Y1986834D01*
X3745204Y1989527D01*
D02*
G37*
G36*
X6443465Y1883465D02*
X6356535D01*
Y1796535D01*
X6443465D01*
Y1883465D01*
D02*
G37*
G36*
X5823465D02*
X5736535D01*
Y1796535D01*
X5823465D01*
Y1883465D01*
D02*
G37*
G36*
X5203465D02*
X5116535D01*
Y1796535D01*
X5203465D01*
Y1883465D01*
D02*
G37*
G36*
X4583465D02*
X4496535D01*
Y1796535D01*
X4583465D01*
Y1883465D01*
D02*
G37*
G36*
X3745204Y1789527D02*
X3745000D01*
Y1755000D01*
X3779528D01*
Y1755204D01*
X3776834Y1765257D01*
X3771630Y1774271D01*
X3764271Y1781630D01*
X3755257Y1786834D01*
X3745204Y1789527D01*
D02*
G37*
G36*
X3735000D02*
X3734796D01*
X3724743Y1786834D01*
X3715729Y1781630D01*
X3708370Y1774271D01*
X3703166Y1765257D01*
X3700472Y1755204D01*
Y1755000D01*
X3735000D01*
Y1789527D01*
D02*
G37*
G36*
X6193898Y1777544D02*
Y1745000D01*
X6226442D01*
X6223897Y1754497D01*
X6218952Y1763062D01*
X6211959Y1770055D01*
X6203395Y1774999D01*
X6193898Y1777544D01*
D02*
G37*
G36*
X5573898D02*
Y1745000D01*
X5606442D01*
X5603897Y1754497D01*
X5598952Y1763062D01*
X5591959Y1770055D01*
X5583395Y1774999D01*
X5573898Y1777544D01*
D02*
G37*
G36*
X4953898D02*
Y1745000D01*
X4986442D01*
X4983897Y1754497D01*
X4978952Y1763062D01*
X4971959Y1770055D01*
X4963395Y1774999D01*
X4953898Y1777544D01*
D02*
G37*
G36*
X4333898D02*
Y1745000D01*
X4366442D01*
X4363897Y1754497D01*
X4358952Y1763062D01*
X4351959Y1770055D01*
X4343395Y1774999D01*
X4333898Y1777544D01*
D02*
G37*
G36*
X6183898D02*
X6174400Y1774999D01*
X6165836Y1770055D01*
X6158843Y1763062D01*
X6153898Y1754497D01*
X6151353Y1745000D01*
X6183898D01*
Y1777544D01*
D02*
G37*
G36*
X5563898D02*
X5554400Y1774999D01*
X5545836Y1770055D01*
X5538843Y1763062D01*
X5533898Y1754497D01*
X5531353Y1745000D01*
X5563898D01*
Y1777544D01*
D02*
G37*
G36*
X4943898D02*
X4934400Y1774999D01*
X4925836Y1770055D01*
X4918843Y1763062D01*
X4913898Y1754497D01*
X4911353Y1745000D01*
X4943898D01*
Y1777544D01*
D02*
G37*
G36*
X4323898D02*
X4314400Y1774999D01*
X4305836Y1770055D01*
X4298843Y1763062D01*
X4293898Y1754497D01*
X4291353Y1745000D01*
X4323898D01*
Y1777544D01*
D02*
G37*
G36*
X3735000Y1745000D02*
X3700472D01*
Y1744796D01*
X3703166Y1734743D01*
X3708370Y1725729D01*
X3715729Y1718370D01*
X3724743Y1713166D01*
X3734796Y1710473D01*
X3735000D01*
Y1745000D01*
D02*
G37*
G36*
X6226442Y1735000D02*
X6193898D01*
Y1702456D01*
X6203395Y1705001D01*
X6211959Y1709945D01*
X6218952Y1716938D01*
X6223897Y1725503D01*
X6226442Y1735000D01*
D02*
G37*
G36*
X5606442D02*
X5573898D01*
Y1702456D01*
X5583395Y1705001D01*
X5591959Y1709945D01*
X5598952Y1716938D01*
X5603897Y1725503D01*
X5606442Y1735000D01*
D02*
G37*
G36*
X4986442D02*
X4953898D01*
Y1702456D01*
X4963395Y1705001D01*
X4971959Y1709945D01*
X4978952Y1716938D01*
X4983897Y1725503D01*
X4986442Y1735000D01*
D02*
G37*
G36*
X4366442D02*
X4333898D01*
Y1702456D01*
X4343395Y1705001D01*
X4351959Y1709945D01*
X4358952Y1716938D01*
X4363897Y1725503D01*
X4366442Y1735000D01*
D02*
G37*
G36*
X6183898D02*
X6151353D01*
X6153898Y1725503D01*
X6158843Y1716938D01*
X6165836Y1709945D01*
X6174400Y1705001D01*
X6183898Y1702456D01*
Y1735000D01*
D02*
G37*
G36*
X5563898D02*
X5531353D01*
X5533898Y1725503D01*
X5538843Y1716938D01*
X5545836Y1709945D01*
X5554400Y1705001D01*
X5563898Y1702456D01*
Y1735000D01*
D02*
G37*
G36*
X4943898D02*
X4911353D01*
X4913898Y1725503D01*
X4918843Y1716938D01*
X4925836Y1709945D01*
X4934400Y1705001D01*
X4943898Y1702456D01*
Y1735000D01*
D02*
G37*
G36*
X4323898D02*
X4291353D01*
X4293898Y1725503D01*
X4298843Y1716938D01*
X4305836Y1709945D01*
X4314400Y1705001D01*
X4323898Y1702456D01*
Y1735000D01*
D02*
G37*
G36*
X6056047Y1777559D02*
X6046158D01*
X6036605Y1774999D01*
X6028041Y1770055D01*
X6021048Y1763062D01*
X6016103Y1754497D01*
X6013543Y1744945D01*
Y1735055D01*
X6016103Y1725503D01*
X6021048Y1716938D01*
X6028041Y1709945D01*
X6036605Y1705001D01*
X6046158Y1702441D01*
X6056047D01*
X6065600Y1705001D01*
X6074164Y1709945D01*
X6081157Y1716938D01*
X6086102Y1725503D01*
X6088661Y1735055D01*
Y1744945D01*
X6086102Y1754497D01*
X6081157Y1763062D01*
X6074164Y1770055D01*
X6065600Y1774999D01*
X6056047Y1777559D01*
D02*
G37*
G36*
X5436047D02*
X5426158D01*
X5416605Y1774999D01*
X5408041Y1770055D01*
X5401048Y1763062D01*
X5396103Y1754497D01*
X5393543Y1744945D01*
Y1735055D01*
X5396103Y1725503D01*
X5401048Y1716938D01*
X5408041Y1709945D01*
X5416605Y1705001D01*
X5426158Y1702441D01*
X5436047D01*
X5445600Y1705001D01*
X5454164Y1709945D01*
X5461157Y1716938D01*
X5466102Y1725503D01*
X5468661Y1735055D01*
Y1744945D01*
X5466102Y1754497D01*
X5461157Y1763062D01*
X5454164Y1770055D01*
X5445600Y1774999D01*
X5436047Y1777559D01*
D02*
G37*
G36*
X4816047D02*
X4806158D01*
X4796605Y1774999D01*
X4788041Y1770055D01*
X4781048Y1763062D01*
X4776103Y1754497D01*
X4773543Y1744945D01*
Y1735055D01*
X4776103Y1725503D01*
X4781048Y1716938D01*
X4788041Y1709945D01*
X4796605Y1705001D01*
X4806158Y1702441D01*
X4816047D01*
X4825600Y1705001D01*
X4834164Y1709945D01*
X4841157Y1716938D01*
X4846102Y1725503D01*
X4848661Y1735055D01*
Y1744945D01*
X4846102Y1754497D01*
X4841157Y1763062D01*
X4834164Y1770055D01*
X4825600Y1774999D01*
X4816047Y1777559D01*
D02*
G37*
G36*
X4196047D02*
X4186158D01*
X4176605Y1774999D01*
X4168041Y1770055D01*
X4161048Y1763062D01*
X4156103Y1754497D01*
X4153543Y1744945D01*
Y1735055D01*
X4156103Y1725503D01*
X4161048Y1716938D01*
X4168041Y1709945D01*
X4176605Y1705001D01*
X4186158Y1702441D01*
X4196047D01*
X4205600Y1705001D01*
X4214164Y1709945D01*
X4221157Y1716938D01*
X4226102Y1725503D01*
X4228661Y1735055D01*
Y1744945D01*
X4226102Y1754497D01*
X4221157Y1763062D01*
X4214164Y1770055D01*
X4205600Y1774999D01*
X4196047Y1777559D01*
D02*
G37*
G36*
X6405722Y1783465D02*
X6394278D01*
X6383223Y1780503D01*
X6373312Y1774780D01*
X6365220Y1766688D01*
X6359498Y1756777D01*
X6356535Y1745722D01*
Y1734278D01*
X6359498Y1723223D01*
X6365220Y1713312D01*
X6373312Y1705220D01*
X6383223Y1699497D01*
X6394278Y1696535D01*
X6405722D01*
X6416777Y1699497D01*
X6426688Y1705220D01*
X6434780Y1713312D01*
X6440502Y1723223D01*
X6443465Y1734278D01*
Y1745722D01*
X6440502Y1756777D01*
X6434780Y1766688D01*
X6426688Y1774780D01*
X6416777Y1780503D01*
X6405722Y1783465D01*
D02*
G37*
G36*
X5785722D02*
X5774278D01*
X5763223Y1780503D01*
X5753312Y1774780D01*
X5745220Y1766688D01*
X5739498Y1756777D01*
X5736535Y1745722D01*
Y1734278D01*
X5739498Y1723223D01*
X5745220Y1713312D01*
X5753312Y1705220D01*
X5763223Y1699497D01*
X5774278Y1696535D01*
X5785722D01*
X5796777Y1699497D01*
X5806688Y1705220D01*
X5814780Y1713312D01*
X5820502Y1723223D01*
X5823465Y1734278D01*
Y1745722D01*
X5820502Y1756777D01*
X5814780Y1766688D01*
X5806688Y1774780D01*
X5796777Y1780503D01*
X5785722Y1783465D01*
D02*
G37*
G36*
X5165722D02*
X5154278D01*
X5143223Y1780503D01*
X5133312Y1774780D01*
X5125220Y1766688D01*
X5119498Y1756777D01*
X5116535Y1745722D01*
Y1734278D01*
X5119498Y1723223D01*
X5125220Y1713312D01*
X5133312Y1705220D01*
X5143223Y1699497D01*
X5154278Y1696535D01*
X5165722D01*
X5176777Y1699497D01*
X5186688Y1705220D01*
X5194780Y1713312D01*
X5200502Y1723223D01*
X5203465Y1734278D01*
Y1745722D01*
X5200502Y1756777D01*
X5194780Y1766688D01*
X5186688Y1774780D01*
X5176777Y1780503D01*
X5165722Y1783465D01*
D02*
G37*
G36*
X4545722D02*
X4534278D01*
X4523223Y1780503D01*
X4513312Y1774780D01*
X4505220Y1766688D01*
X4499498Y1756777D01*
X4496535Y1745722D01*
Y1734278D01*
X4499498Y1723223D01*
X4505220Y1713312D01*
X4513312Y1705220D01*
X4523223Y1699497D01*
X4534278Y1696535D01*
X4545722D01*
X4556777Y1699497D01*
X4566688Y1705220D01*
X4574780Y1713312D01*
X4580502Y1723223D01*
X4583465Y1734278D01*
Y1745722D01*
X4580502Y1756777D01*
X4574780Y1766688D01*
X4566688Y1774780D01*
X4556777Y1780503D01*
X4545722Y1783465D01*
D02*
G37*
G36*
X6405722Y1683465D02*
X6405000D01*
Y1645000D01*
X6443465D01*
Y1645722D01*
X6440502Y1656777D01*
X6434780Y1666688D01*
X6426688Y1674780D01*
X6416777Y1680503D01*
X6405722Y1683465D01*
D02*
G37*
G36*
X6395000D02*
X6394278D01*
X6383223Y1680503D01*
X6373312Y1674780D01*
X6365220Y1666688D01*
X6359498Y1656777D01*
X6356535Y1645722D01*
Y1645000D01*
X6395000D01*
Y1683465D01*
D02*
G37*
G36*
X5785722D02*
X5785000D01*
Y1645000D01*
X5823465D01*
Y1645722D01*
X5820502Y1656777D01*
X5814780Y1666688D01*
X5806688Y1674780D01*
X5796777Y1680503D01*
X5785722Y1683465D01*
D02*
G37*
G36*
X5775000D02*
X5774278D01*
X5763223Y1680503D01*
X5753312Y1674780D01*
X5745220Y1666688D01*
X5739498Y1656777D01*
X5736535Y1645722D01*
Y1645000D01*
X5775000D01*
Y1683465D01*
D02*
G37*
G36*
X5165722D02*
X5165000D01*
Y1645000D01*
X5203465D01*
Y1645722D01*
X5200502Y1656777D01*
X5194780Y1666688D01*
X5186688Y1674780D01*
X5176777Y1680503D01*
X5165722Y1683465D01*
D02*
G37*
G36*
X5155000D02*
X5154278D01*
X5143223Y1680503D01*
X5133312Y1674780D01*
X5125220Y1666688D01*
X5119498Y1656777D01*
X5116535Y1645722D01*
Y1645000D01*
X5155000D01*
Y1683465D01*
D02*
G37*
G36*
X4545722D02*
X4545000D01*
Y1645000D01*
X4583465D01*
Y1645722D01*
X4580502Y1656777D01*
X4574780Y1666688D01*
X4566688Y1674780D01*
X4556777Y1680503D01*
X4545722Y1683465D01*
D02*
G37*
G36*
X4535000D02*
X4534278D01*
X4523223Y1680503D01*
X4513312Y1674780D01*
X4505220Y1666688D01*
X4499498Y1656777D01*
X4496535Y1645722D01*
Y1645000D01*
X4535000D01*
Y1683465D01*
D02*
G37*
G36*
X3745204Y1689527D02*
X3734796D01*
X3724743Y1686834D01*
X3715729Y1681630D01*
X3708370Y1674271D01*
X3703166Y1665257D01*
X3700472Y1655204D01*
Y1644796D01*
X3703166Y1634743D01*
X3708370Y1625729D01*
X3715729Y1618370D01*
X3724743Y1613166D01*
X3734796Y1610473D01*
X3745204D01*
X3755257Y1613166D01*
X3764271Y1618370D01*
X3771630Y1625729D01*
X3776834Y1634743D01*
X3779528Y1644796D01*
Y1655204D01*
X3776834Y1665257D01*
X3771630Y1674271D01*
X3764271Y1681630D01*
X3755257Y1686834D01*
X3745204Y1689527D01*
D02*
G37*
G36*
X6443465Y1635000D02*
X6405000D01*
Y1596535D01*
X6405722D01*
X6416777Y1599497D01*
X6426688Y1605220D01*
X6434780Y1613312D01*
X6440502Y1623223D01*
X6443465Y1634278D01*
Y1635000D01*
D02*
G37*
G36*
X6395000D02*
X6356535D01*
Y1634278D01*
X6359498Y1623223D01*
X6365220Y1613312D01*
X6373312Y1605220D01*
X6383223Y1599497D01*
X6394278Y1596535D01*
X6395000D01*
Y1635000D01*
D02*
G37*
G36*
X5823465D02*
X5785000D01*
Y1596535D01*
X5785722D01*
X5796777Y1599497D01*
X5806688Y1605220D01*
X5814780Y1613312D01*
X5820502Y1623223D01*
X5823465Y1634278D01*
Y1635000D01*
D02*
G37*
G36*
X5775000D02*
X5736535D01*
Y1634278D01*
X5739498Y1623223D01*
X5745220Y1613312D01*
X5753312Y1605220D01*
X5763223Y1599497D01*
X5774278Y1596535D01*
X5775000D01*
Y1635000D01*
D02*
G37*
G36*
X5203465D02*
X5165000D01*
Y1596535D01*
X5165722D01*
X5176777Y1599497D01*
X5186688Y1605220D01*
X5194780Y1613312D01*
X5200502Y1623223D01*
X5203465Y1634278D01*
Y1635000D01*
D02*
G37*
G36*
X5155000D02*
X5116535D01*
Y1634278D01*
X5119498Y1623223D01*
X5125220Y1613312D01*
X5133312Y1605220D01*
X5143223Y1599497D01*
X5154278Y1596535D01*
X5155000D01*
Y1635000D01*
D02*
G37*
G36*
X4583465D02*
X4545000D01*
Y1596535D01*
X4545722D01*
X4556777Y1599497D01*
X4566688Y1605220D01*
X4574780Y1613312D01*
X4580502Y1623223D01*
X4583465Y1634278D01*
Y1635000D01*
D02*
G37*
G36*
X4535000D02*
X4496535D01*
Y1634278D01*
X4499498Y1623223D01*
X4505220Y1613312D01*
X4513312Y1605220D01*
X4523223Y1599497D01*
X4534278Y1596535D01*
X4535000D01*
Y1635000D01*
D02*
G37*
G36*
X6868740Y1577638D02*
X6691260D01*
Y1498583D01*
X6868740D01*
Y1577638D01*
D02*
G37*
G36*
X6960039Y1498898D02*
X6925512D01*
Y1425000D01*
X6960039D01*
Y1498898D01*
D02*
G37*
G36*
X3779528Y1745000D02*
X3745000D01*
Y1710473D01*
X3745204D01*
X3747256Y1711022D01*
X3887569Y1570709D01*
Y1440000D01*
X3889276Y1431416D01*
X3894139Y1424139D01*
X3901416Y1419276D01*
X3910000Y1417569D01*
X3918584Y1419276D01*
X3925861Y1424139D01*
X3930724Y1431416D01*
X3932431Y1440000D01*
Y1580000D01*
X3930724Y1588584D01*
X3925861Y1595861D01*
X3778978Y1742744D01*
X3779528Y1744796D01*
Y1745000D01*
D02*
G37*
G36*
X6960039Y1415000D02*
X6925512D01*
Y1341102D01*
X6960039D01*
Y1415000D01*
D02*
G37*
G36*
X6858898Y1341417D02*
X6785000D01*
Y1306890D01*
X6858898D01*
Y1341417D01*
D02*
G37*
G36*
X6775000D02*
X6701102D01*
Y1306890D01*
X6775000D01*
Y1341417D01*
D02*
G37*
G36*
X6410981Y1365433D02*
X6399019D01*
X6387463Y1362337D01*
X6377104Y1356355D01*
X6368645Y1347897D01*
X6362663Y1337536D01*
X6359567Y1325981D01*
Y1314019D01*
X6362663Y1302464D01*
X6368645Y1292103D01*
X6377104Y1283645D01*
X6387463Y1277663D01*
X6399019Y1274567D01*
X6410981D01*
X6422537Y1277663D01*
X6432896Y1283645D01*
X6441355Y1292103D01*
X6447337Y1302464D01*
X6450433Y1314019D01*
Y1325981D01*
X6447337Y1337536D01*
X6441355Y1347897D01*
X6432896Y1356355D01*
X6422537Y1362337D01*
X6410981Y1365433D01*
D02*
G37*
G36*
X6200433D02*
X6109567D01*
Y1274567D01*
X6200433D01*
Y1365433D01*
D02*
G37*
G36*
X5790981D02*
X5779019D01*
X5767463Y1362337D01*
X5757104Y1356355D01*
X5748645Y1347897D01*
X5742663Y1337536D01*
X5739567Y1325981D01*
Y1314019D01*
X5742663Y1302464D01*
X5748645Y1292103D01*
X5757104Y1283645D01*
X5767463Y1277663D01*
X5779019Y1274567D01*
X5790981D01*
X5802537Y1277663D01*
X5812896Y1283645D01*
X5821355Y1292103D01*
X5827337Y1302464D01*
X5830433Y1314019D01*
Y1325981D01*
X5827337Y1337536D01*
X5821355Y1347897D01*
X5812896Y1356355D01*
X5802537Y1362337D01*
X5790981Y1365433D01*
D02*
G37*
G36*
X5580433D02*
X5489567D01*
Y1274567D01*
X5580433D01*
Y1365433D01*
D02*
G37*
G36*
X5170981D02*
X5159019D01*
X5147463Y1362337D01*
X5137104Y1356355D01*
X5128645Y1347897D01*
X5122663Y1337536D01*
X5119567Y1325981D01*
Y1314019D01*
X5122663Y1302464D01*
X5128645Y1292103D01*
X5137104Y1283645D01*
X5147463Y1277663D01*
X5159019Y1274567D01*
X5170981D01*
X5182537Y1277663D01*
X5192896Y1283645D01*
X5201355Y1292103D01*
X5207337Y1302464D01*
X5210433Y1314019D01*
Y1325981D01*
X5207337Y1337536D01*
X5201355Y1347897D01*
X5192896Y1356355D01*
X5182537Y1362337D01*
X5170981Y1365433D01*
D02*
G37*
G36*
X4960433D02*
X4869567D01*
Y1274567D01*
X4960433D01*
Y1365433D01*
D02*
G37*
G36*
X4550981D02*
X4539019D01*
X4527463Y1362337D01*
X4517104Y1356355D01*
X4508645Y1347897D01*
X4502663Y1337536D01*
X4499567Y1325981D01*
Y1314019D01*
X4502663Y1302464D01*
X4508645Y1292103D01*
X4517104Y1283645D01*
X4527463Y1277663D01*
X4539019Y1274567D01*
X4550981D01*
X4562537Y1277663D01*
X4572896Y1283645D01*
X4581355Y1292103D01*
X4587337Y1302464D01*
X4590433Y1314019D01*
Y1325981D01*
X4587337Y1337536D01*
X4581355Y1347897D01*
X4572896Y1356355D01*
X4562537Y1362337D01*
X4550981Y1365433D01*
D02*
G37*
G36*
X4340433D02*
X4249567D01*
Y1274567D01*
X4340433D01*
Y1365433D01*
D02*
G37*
G36*
X6858898Y1296890D02*
X6785000D01*
Y1262362D01*
X6858898D01*
Y1296890D01*
D02*
G37*
G36*
X6775000D02*
X6701102D01*
Y1262362D01*
X6775000D01*
Y1296890D01*
D02*
G37*
G36*
X2445000Y1222818D02*
Y1178858D01*
X2468948D01*
Y1194528D01*
X2467962Y1202020D01*
X2465070Y1209002D01*
X2460470Y1214997D01*
X2454474Y1219598D01*
X2447492Y1222490D01*
X2445000Y1222818D01*
D02*
G37*
G36*
X2435000D02*
X2432508Y1222490D01*
X2425526Y1219598D01*
X2419530Y1214997D01*
X2414930Y1209002D01*
X2412038Y1202020D01*
X2411052Y1194528D01*
Y1178858D01*
X2435000D01*
Y1222818D01*
D02*
G37*
G36*
X2468948Y1168858D02*
X2440000D01*
X2411052D01*
Y1153189D01*
X2412038Y1145697D01*
X2412284Y1145104D01*
Y1125709D01*
X2440000D01*
X2467716D01*
Y1145104D01*
X2467962Y1145697D01*
X2468948Y1153189D01*
Y1168858D01*
D02*
G37*
G36*
X2843978Y2070000D02*
X2836022D01*
X2828671Y2066955D01*
X2823045Y2061329D01*
X2820000Y2053978D01*
Y2046022D01*
X2823045Y2038671D01*
X2824706Y2037010D01*
Y1218969D01*
X2819530Y1214997D01*
X2814930Y1209002D01*
X2812038Y1202020D01*
X2811052Y1194528D01*
Y1153189D01*
X2812038Y1145697D01*
X2812284Y1145104D01*
Y1081181D01*
X2867716D01*
Y1145104D01*
X2867962Y1145697D01*
X2868948Y1153189D01*
Y1194528D01*
X2867962Y1202020D01*
X2865070Y1209002D01*
X2860470Y1214997D01*
X2855294Y1218969D01*
Y2037010D01*
X2856955Y2038671D01*
X2860000Y2046022D01*
Y2053978D01*
X2856955Y2061329D01*
X2851329Y2066955D01*
X2843978Y2070000D01*
D02*
G37*
G36*
X2743978Y2020000D02*
X2736022D01*
X2728671Y2016955D01*
X2723045Y2011329D01*
X2720000Y2003978D01*
Y1996022D01*
X2723045Y1988671D01*
X2724706Y1987010D01*
Y1218969D01*
X2719530Y1214997D01*
X2714930Y1209002D01*
X2712038Y1202020D01*
X2711052Y1194528D01*
Y1153189D01*
X2712038Y1145697D01*
X2712284Y1145104D01*
Y1081181D01*
X2767716D01*
Y1145104D01*
X2767962Y1145697D01*
X2768948Y1153189D01*
Y1194528D01*
X2767962Y1202020D01*
X2765070Y1209002D01*
X2760470Y1214997D01*
X2755294Y1218969D01*
Y1987010D01*
X2756955Y1988671D01*
X2760000Y1996022D01*
Y2003978D01*
X2756955Y2011329D01*
X2751329Y2016955D01*
X2743978Y2020000D01*
D02*
G37*
G36*
X2643978Y2170000D02*
X2636022D01*
X2628671Y2166955D01*
X2623045Y2161329D01*
X2620000Y2153978D01*
Y2146022D01*
X2623045Y2138671D01*
X2624706Y2137010D01*
Y1218969D01*
X2619530Y1214997D01*
X2614930Y1209002D01*
X2612038Y1202020D01*
X2611052Y1194528D01*
Y1153189D01*
X2612038Y1145697D01*
X2612284Y1145104D01*
Y1081181D01*
X2667716D01*
Y1145104D01*
X2667962Y1145697D01*
X2668948Y1153189D01*
Y1194528D01*
X2667962Y1202020D01*
X2665070Y1209002D01*
X2660470Y1214997D01*
X2655294Y1218969D01*
Y2137010D01*
X2656955Y2138671D01*
X2660000Y2146022D01*
Y2153978D01*
X2656955Y2161329D01*
X2651329Y2166955D01*
X2643978Y2170000D01*
D02*
G37*
G36*
X2543978D02*
X2536022D01*
X2528671Y2166955D01*
X2523045Y2161329D01*
X2520000Y2153978D01*
Y2146022D01*
X2523045Y2138671D01*
X2524706Y2137010D01*
Y1218969D01*
X2519530Y1214997D01*
X2514930Y1209002D01*
X2512038Y1202020D01*
X2511052Y1194528D01*
Y1153189D01*
X2512038Y1145697D01*
X2512284Y1145104D01*
Y1081181D01*
X2567716D01*
Y1145104D01*
X2567962Y1145697D01*
X2568948Y1153189D01*
Y1194528D01*
X2567962Y1202020D01*
X2565070Y1209002D01*
X2560470Y1214997D01*
X2555294Y1218969D01*
Y2137010D01*
X2556955Y2138671D01*
X2560000Y2146022D01*
Y2153978D01*
X2556955Y2161329D01*
X2551329Y2166955D01*
X2543978Y2170000D01*
D02*
G37*
G36*
X2467716Y1115709D02*
X2445000D01*
Y1081181D01*
X2467716D01*
Y1115709D01*
D02*
G37*
G36*
X2435000D02*
X2412284D01*
Y1081181D01*
X2435000D01*
Y1115709D01*
D02*
G37*
G36*
X2293978Y3280000D02*
X2286022D01*
X2278671Y3276955D01*
X2273045Y3271329D01*
X2270000Y3263978D01*
Y3256022D01*
X2273045Y3248671D01*
X2274706Y3247010D01*
Y2712990D01*
X2273045Y2711329D01*
X2270000Y2703978D01*
Y2696022D01*
X2273045Y2688671D01*
X2274706Y2687010D01*
Y2220000D01*
X2275870Y2214147D01*
X2279186Y2209186D01*
X2324706Y2163665D01*
Y1218969D01*
X2319530Y1214997D01*
X2314930Y1209002D01*
X2312038Y1202020D01*
X2311052Y1194528D01*
Y1153189D01*
X2312038Y1145697D01*
X2312284Y1145104D01*
Y1081181D01*
X2367716D01*
Y1145104D01*
X2367962Y1145697D01*
X2368948Y1153189D01*
Y1194528D01*
X2367962Y1202020D01*
X2365070Y1209002D01*
X2360470Y1214997D01*
X2355294Y1218969D01*
Y2170000D01*
X2354130Y2175853D01*
X2350814Y2180814D01*
X2305294Y2226335D01*
Y2687010D01*
X2306955Y2688671D01*
X2310000Y2696022D01*
Y2703978D01*
X2306955Y2711329D01*
X2305294Y2712990D01*
Y3247010D01*
X2306955Y3248671D01*
X2310000Y3256022D01*
Y3263978D01*
X2306955Y3271329D01*
X2301329Y3276955D01*
X2293978Y3280000D01*
D02*
G37*
G36*
X2243978Y2120000D02*
X2236022D01*
X2228671Y2116955D01*
X2223045Y2111329D01*
X2220000Y2103978D01*
Y2096022D01*
X2223045Y2088671D01*
X2224706Y2087010D01*
Y1218969D01*
X2219530Y1214997D01*
X2214930Y1209002D01*
X2212038Y1202020D01*
X2211052Y1194528D01*
Y1153189D01*
X2212038Y1145697D01*
X2212284Y1145104D01*
Y1081181D01*
X2267716D01*
Y1145104D01*
X2267962Y1145697D01*
X2268948Y1153189D01*
Y1194528D01*
X2267962Y1202020D01*
X2265070Y1209002D01*
X2260470Y1214997D01*
X2255294Y1218969D01*
Y2087010D01*
X2256955Y2088671D01*
X2260000Y2096022D01*
Y2103978D01*
X2256955Y2111329D01*
X2251329Y2116955D01*
X2243978Y2120000D01*
D02*
G37*
G36*
X2143978Y2170000D02*
X2136022D01*
X2128671Y2166955D01*
X2123045Y2161329D01*
X2120000Y2153978D01*
Y2146022D01*
X2123045Y2138671D01*
X2124706Y2137010D01*
Y1218969D01*
X2119530Y1214997D01*
X2114930Y1209002D01*
X2112038Y1202020D01*
X2111052Y1194528D01*
Y1153189D01*
X2112038Y1145697D01*
X2112284Y1145104D01*
Y1081181D01*
X2167716D01*
Y1145104D01*
X2167962Y1145697D01*
X2168948Y1153189D01*
Y1194528D01*
X2167962Y1202020D01*
X2165070Y1209002D01*
X2160470Y1214997D01*
X2155294Y1218969D01*
Y2137010D01*
X2156955Y2138671D01*
X2160000Y2146022D01*
Y2153978D01*
X2156955Y2161329D01*
X2151329Y2166955D01*
X2143978Y2170000D01*
D02*
G37*
G36*
X1943978D02*
X1936022D01*
X1928671Y2166955D01*
X1923045Y2161329D01*
X1920000Y2153978D01*
Y2146022D01*
X1923045Y2138671D01*
X1924706Y2137010D01*
Y1218969D01*
X1919530Y1214997D01*
X1914930Y1209002D01*
X1912038Y1202020D01*
X1911052Y1194528D01*
Y1153189D01*
X1912038Y1145697D01*
X1912284Y1145104D01*
Y1081181D01*
X1967716D01*
Y1145104D01*
X1967962Y1145697D01*
X1968948Y1153189D01*
Y1194528D01*
X1967962Y1202020D01*
X1965070Y1209002D01*
X1960470Y1214997D01*
X1955294Y1218969D01*
Y2137010D01*
X1956955Y2138671D01*
X1960000Y2146022D01*
Y2153978D01*
X1956955Y2161329D01*
X1951329Y2166955D01*
X1943978Y2170000D01*
D02*
G37*
G36*
X1653978Y4520000D02*
X1646022D01*
X1638671Y4516955D01*
X1633045Y4511329D01*
X1630000Y4503978D01*
Y4496022D01*
X1633045Y4488671D01*
X1638671Y4483045D01*
X1646022Y4480000D01*
X1648371D01*
X1774706Y4353665D01*
Y2220000D01*
X1775870Y2214147D01*
X1779186Y2209186D01*
X1824706Y2163665D01*
Y1218969D01*
X1819530Y1214997D01*
X1814930Y1209002D01*
X1812038Y1202020D01*
X1811052Y1194528D01*
Y1153189D01*
X1812038Y1145697D01*
X1812284Y1145104D01*
Y1081181D01*
X1867716D01*
Y1145104D01*
X1867962Y1145697D01*
X1868948Y1153189D01*
Y1194528D01*
X1867962Y1202020D01*
X1865070Y1209002D01*
X1860470Y1214997D01*
X1855294Y1218969D01*
Y2170000D01*
X1854130Y2175853D01*
X1850814Y2180814D01*
X1805294Y2226335D01*
Y4360000D01*
X1804130Y4365853D01*
X1800814Y4370814D01*
X1670000Y4501629D01*
Y4503978D01*
X1666955Y4511329D01*
X1661329Y4516955D01*
X1653978Y4520000D01*
D02*
G37*
G36*
X1743978Y2120000D02*
X1736022D01*
X1728671Y2116955D01*
X1723045Y2111329D01*
X1720000Y2103978D01*
Y2096022D01*
X1723045Y2088671D01*
X1724706Y2087010D01*
Y1218969D01*
X1719530Y1214997D01*
X1714930Y1209002D01*
X1712038Y1202020D01*
X1711052Y1194528D01*
Y1153189D01*
X1712038Y1145697D01*
X1712284Y1145104D01*
Y1081181D01*
X1767716D01*
Y1145104D01*
X1767962Y1145697D01*
X1768948Y1153189D01*
Y1194528D01*
X1767962Y1202020D01*
X1765070Y1209002D01*
X1760470Y1214997D01*
X1755294Y1218969D01*
Y2087010D01*
X1756955Y2088671D01*
X1760000Y2096022D01*
Y2103978D01*
X1756955Y2111329D01*
X1751329Y2116955D01*
X1743978Y2120000D01*
D02*
G37*
G36*
X1493978Y4270000D02*
X1486022D01*
X1478671Y4266955D01*
X1473045Y4261329D01*
X1470000Y4253978D01*
Y4246022D01*
X1473045Y4238671D01*
X1474706Y4237010D01*
Y2242990D01*
X1473045Y2241329D01*
X1470000Y2233978D01*
Y2226022D01*
X1473045Y2218671D01*
X1478671Y2213045D01*
X1486022Y2210000D01*
X1488371D01*
X1624706Y2073665D01*
Y1218969D01*
X1619530Y1214997D01*
X1614930Y1209002D01*
X1612038Y1202020D01*
X1611052Y1194528D01*
Y1153189D01*
X1612038Y1145697D01*
X1612284Y1145104D01*
Y1081181D01*
X1667716D01*
Y1145104D01*
X1667962Y1145697D01*
X1668948Y1153189D01*
Y1194528D01*
X1667962Y1202020D01*
X1665070Y1209002D01*
X1660470Y1214997D01*
X1655294Y1218969D01*
Y2080000D01*
X1654130Y2085853D01*
X1650814Y2090814D01*
X1510000Y2231629D01*
Y2233978D01*
X1506955Y2241329D01*
X1505294Y2242990D01*
Y4237010D01*
X1506955Y4238671D01*
X1510000Y4246022D01*
Y4253978D01*
X1506955Y4261329D01*
X1501329Y4266955D01*
X1493978Y4270000D01*
D02*
G37*
G36*
X1543978Y2140000D02*
X1536022D01*
X1528671Y2136955D01*
X1523045Y2131329D01*
X1520000Y2123978D01*
Y2116022D01*
X1523045Y2108671D01*
X1524706Y2107010D01*
Y1218969D01*
X1519530Y1214997D01*
X1514930Y1209002D01*
X1512038Y1202020D01*
X1511052Y1194528D01*
Y1153189D01*
X1512038Y1145697D01*
X1512284Y1145104D01*
Y1081181D01*
X1567716D01*
Y1145104D01*
X1567962Y1145697D01*
X1568948Y1153189D01*
Y1194528D01*
X1567962Y1202020D01*
X1565070Y1209002D01*
X1560470Y1214997D01*
X1555294Y1218969D01*
Y2107010D01*
X1556955Y2108671D01*
X1560000Y2116022D01*
Y2123978D01*
X1556955Y2131329D01*
X1551329Y2136955D01*
X1543978Y2140000D01*
D02*
G37*
G36*
X1293978Y4100000D02*
X1286022D01*
X1278671Y4096955D01*
X1273045Y4091329D01*
X1270000Y4083978D01*
Y4076022D01*
X1273045Y4068671D01*
X1274706Y4067010D01*
Y2250000D01*
X1275870Y2244147D01*
X1279186Y2239186D01*
X1414706Y2103665D01*
Y1211943D01*
X1415217Y1209376D01*
X1414930Y1209002D01*
X1412038Y1202020D01*
X1411052Y1194528D01*
Y1153189D01*
X1412038Y1145697D01*
X1412284Y1145104D01*
Y1081181D01*
X1467716D01*
Y1145104D01*
X1467962Y1145697D01*
X1468948Y1153189D01*
Y1194528D01*
X1467962Y1202020D01*
X1465070Y1209002D01*
X1460470Y1214997D01*
X1454474Y1219598D01*
X1447492Y1222490D01*
X1445294Y1222779D01*
Y2110000D01*
X1444130Y2115853D01*
X1440814Y2120814D01*
X1305294Y2256335D01*
Y4067010D01*
X1306955Y4068671D01*
X1310000Y4076022D01*
Y4083978D01*
X1306955Y4091329D01*
X1301329Y4096955D01*
X1293978Y4100000D01*
D02*
G37*
G36*
X1343978Y2140000D02*
X1336022D01*
X1328671Y2136955D01*
X1323045Y2131329D01*
X1320000Y2123978D01*
Y2116022D01*
X1323045Y2108671D01*
X1324706Y2107010D01*
Y1218969D01*
X1319530Y1214997D01*
X1314930Y1209002D01*
X1312038Y1202020D01*
X1311052Y1194528D01*
Y1153189D01*
X1312038Y1145697D01*
X1312284Y1145104D01*
Y1081181D01*
X1367716D01*
Y1145104D01*
X1367962Y1145697D01*
X1368948Y1153189D01*
Y1194528D01*
X1367962Y1202020D01*
X1365070Y1209002D01*
X1360470Y1214997D01*
X1355294Y1218969D01*
Y2107010D01*
X1356955Y2108671D01*
X1360000Y2116022D01*
Y2123978D01*
X1356955Y2131329D01*
X1351329Y2136955D01*
X1343978Y2140000D01*
D02*
G37*
G36*
X1240000Y1223476D02*
X1232508Y1222490D01*
X1225526Y1219598D01*
X1219530Y1214997D01*
X1214930Y1209002D01*
X1212038Y1202020D01*
X1211052Y1194528D01*
Y1153189D01*
X1212038Y1145697D01*
X1212284Y1145104D01*
Y1081181D01*
X1267716D01*
Y1145104D01*
X1267962Y1145697D01*
X1268948Y1153189D01*
Y1194528D01*
X1267962Y1202020D01*
X1265070Y1209002D01*
X1260470Y1214997D01*
X1254474Y1219598D01*
X1247492Y1222490D01*
X1240000Y1223476D01*
D02*
G37*
G36*
X1140000D02*
X1132508Y1222490D01*
X1125526Y1219598D01*
X1119530Y1214997D01*
X1114930Y1209002D01*
X1112038Y1202020D01*
X1111052Y1194528D01*
Y1153189D01*
X1112038Y1145697D01*
X1112284Y1145104D01*
Y1081181D01*
X1167716D01*
Y1145104D01*
X1167962Y1145697D01*
X1168948Y1153189D01*
Y1194528D01*
X1167962Y1202020D01*
X1165070Y1209002D01*
X1160470Y1214997D01*
X1154474Y1219598D01*
X1147492Y1222490D01*
X1140000Y1223476D01*
D02*
G37*
%LPD*%
G36*
X3457569Y1875715D02*
Y1824285D01*
X3452569Y1821124D01*
X3446000Y1822431D01*
X3389276D01*
Y1877569D01*
X3446000D01*
X3452569Y1878876D01*
X3457569Y1875715D01*
D02*
G37*
G36*
Y1775715D02*
Y1350000D01*
X3459276Y1341416D01*
X3464139Y1334139D01*
X3487569Y1310709D01*
Y1284057D01*
X3479686Y1279506D01*
X3470494Y1270314D01*
X3463994Y1259056D01*
X3462588Y1253808D01*
X3457412D01*
X3456006Y1259056D01*
X3449506Y1270314D01*
X3440314Y1279506D01*
X3432431Y1284057D01*
Y1380000D01*
X3430724Y1388584D01*
X3425861Y1395861D01*
X3418584Y1400724D01*
X3410000Y1402431D01*
X3401416Y1400724D01*
X3394276Y1395953D01*
X3391882Y1396406D01*
X3389276Y1397196D01*
Y1642804D01*
X3391882Y1643594D01*
X3394276Y1644047D01*
X3401416Y1639276D01*
X3410000Y1637569D01*
X3418584Y1639276D01*
X3425861Y1644139D01*
X3430724Y1651416D01*
X3432431Y1660000D01*
Y1740000D01*
X3430724Y1748584D01*
X3425861Y1755861D01*
X3418584Y1760724D01*
X3410000Y1762431D01*
X3401416Y1760724D01*
X3394276Y1755953D01*
X3391882Y1756406D01*
X3389276Y1757196D01*
Y1777569D01*
X3446000D01*
X3452569Y1778876D01*
X3457569Y1775715D01*
D02*
G37*
G36*
X3657569Y1540709D02*
Y1521360D01*
X3653159Y1519003D01*
X3650584Y1520724D01*
X3642000Y1522431D01*
X3572692D01*
X3571630Y1524271D01*
X3564271Y1531630D01*
X3555257Y1536834D01*
X3545204Y1539527D01*
X3534796D01*
X3524743Y1536834D01*
X3515729Y1531630D01*
X3508370Y1524271D01*
X3507431Y1522644D01*
X3502431Y1523984D01*
Y1576016D01*
X3507431Y1577356D01*
X3508370Y1575729D01*
X3515729Y1568370D01*
X3524743Y1563166D01*
X3534796Y1560473D01*
X3545204D01*
X3555257Y1563166D01*
X3564271Y1568370D01*
X3571630Y1575729D01*
X3572692Y1577569D01*
X3620709D01*
X3657569Y1540709D01*
D02*
G37*
G36*
Y1478640D02*
Y1400000D01*
X3659276Y1391416D01*
X3664139Y1384139D01*
X3719139Y1329139D01*
X3726416Y1324276D01*
X3735000Y1322569D01*
X3915709D01*
X3957569Y1280709D01*
Y1266348D01*
X3952569Y1265008D01*
X3949506Y1270314D01*
X3940314Y1279506D01*
X3929056Y1286006D01*
X3916500Y1289370D01*
X3915000D01*
Y1240000D01*
X3905000D01*
Y1289370D01*
X3903500D01*
X3890944Y1286006D01*
X3879686Y1279506D01*
X3870494Y1270314D01*
X3863994Y1259056D01*
X3862588Y1253808D01*
X3857412D01*
X3856006Y1259056D01*
X3849506Y1270314D01*
X3840314Y1279506D01*
X3829056Y1286006D01*
X3816500Y1289370D01*
X3803500D01*
X3790944Y1286006D01*
X3779686Y1279506D01*
X3770494Y1270314D01*
X3763994Y1259056D01*
X3762588Y1253808D01*
X3757412D01*
X3756006Y1259056D01*
X3749506Y1270314D01*
X3740314Y1279506D01*
X3729056Y1286006D01*
X3716500Y1289370D01*
X3703500D01*
X3690944Y1286006D01*
X3679686Y1279506D01*
X3670494Y1270314D01*
X3663994Y1259056D01*
X3662588Y1253808D01*
X3657412D01*
X3656006Y1259056D01*
X3649506Y1270314D01*
X3640314Y1279506D01*
X3632431Y1284057D01*
Y1330000D01*
X3630724Y1338584D01*
X3625861Y1345861D01*
X3578978Y1392744D01*
X3579528Y1394796D01*
Y1405204D01*
X3576834Y1415257D01*
X3571630Y1424271D01*
X3564271Y1431630D01*
X3555257Y1436834D01*
X3545204Y1439527D01*
X3534796D01*
X3524743Y1436834D01*
X3515729Y1431630D01*
X3508370Y1424271D01*
X3507431Y1422644D01*
X3502431Y1423984D01*
Y1476016D01*
X3507431Y1477356D01*
X3508370Y1475729D01*
X3515729Y1468370D01*
X3524743Y1463166D01*
X3534796Y1460473D01*
X3545204D01*
X3555257Y1463166D01*
X3564271Y1468370D01*
X3571630Y1475729D01*
X3572692Y1477569D01*
X3642000D01*
X3650584Y1479276D01*
X3653159Y1480997D01*
X3657569Y1478640D01*
D02*
G37*
G36*
X3508370Y1375729D02*
X3515729Y1368370D01*
X3524743Y1363166D01*
X3534796Y1360473D01*
X3545204D01*
X3547256Y1361022D01*
X3587569Y1320709D01*
Y1284057D01*
X3579686Y1279506D01*
X3570494Y1270314D01*
X3563994Y1259056D01*
X3562588Y1253808D01*
X3557412D01*
X3556006Y1259056D01*
X3549506Y1270314D01*
X3540314Y1279506D01*
X3532431Y1284057D01*
Y1320000D01*
X3530724Y1328584D01*
X3525861Y1335861D01*
X3502431Y1359291D01*
Y1376016D01*
X3507431Y1377356D01*
X3508370Y1375729D01*
D02*
G37*
G36*
X3563994Y1120944D02*
X3570494Y1109686D01*
X3579686Y1100494D01*
X3590944Y1093994D01*
X3603500Y1090630D01*
X3616500D01*
X3629056Y1093994D01*
X3640314Y1100494D01*
X3649506Y1109686D01*
X3656006Y1120944D01*
X3657412Y1126192D01*
X3662588D01*
X3663994Y1120944D01*
X3670494Y1109686D01*
X3679686Y1100494D01*
X3690944Y1093994D01*
X3703500Y1090630D01*
X3716500D01*
X3729056Y1093994D01*
X3740314Y1100494D01*
X3749506Y1109686D01*
X3756006Y1120944D01*
X3757412Y1126192D01*
X3762588D01*
X3763994Y1120944D01*
X3770494Y1109686D01*
X3779686Y1100494D01*
X3790944Y1093994D01*
X3803500Y1090630D01*
X3816500D01*
X3825292Y1092986D01*
X3855509Y1062769D01*
X3862786Y1057906D01*
X3865176Y1057431D01*
X3864684Y1052431D01*
X3529291D01*
X3493622Y1088101D01*
X3496210Y1092583D01*
X3503500Y1090630D01*
X3516500D01*
X3529056Y1093994D01*
X3540314Y1100494D01*
X3549506Y1109686D01*
X3556006Y1120944D01*
X3557412Y1126192D01*
X3562588D01*
X3563994Y1120944D01*
D02*
G37*
D16*
X2440000Y2391024D02*
X2441152Y2392176D01*
Y3712950D01*
X2140000Y2391024D02*
Y2550000D01*
Y3760000D01*
X2160000Y4750000D02*
X2220000Y4690000D01*
X2140000Y3760000D02*
X2220000Y3840000D01*
Y4690000D01*
X2190000Y4790000D02*
X2260000Y4720000D01*
Y3780000D02*
Y4720000D01*
X2240000Y3760000D02*
X2260000Y3780000D01*
X1440000Y3790000D02*
Y4530000D01*
X1840000Y2650000D02*
Y3770000D01*
Y2391024D02*
Y2650000D01*
X2640000Y2850000D02*
Y2960000D01*
Y2391024D02*
Y2850000D01*
X2690000Y2800000D02*
Y3080000D01*
Y2230000D02*
Y2800000D01*
X2190000Y2750000D02*
Y3160000D01*
Y2150000D02*
Y2750000D01*
X2290000Y2220000D02*
Y2700000D01*
Y3260000D01*
X1940000Y2600000D02*
Y3630000D01*
Y2391024D02*
Y2600000D01*
X2240000Y2500000D02*
Y3760000D01*
Y2391024D02*
Y2500000D01*
X2940000Y2391024D02*
Y3110000D01*
X2840000Y2391024D02*
Y3010000D01*
X2590000Y2230000D02*
Y3560000D01*
Y2150000D02*
Y2230000D01*
X2690000Y2100000D02*
Y2230000D01*
X2640000Y1173858D02*
Y2150000D01*
X2740000Y1173858D02*
Y2000000D01*
X2490000D02*
Y2230000D01*
X2840000Y1173858D02*
Y2050000D01*
X2540000Y1173858D02*
Y2150000D01*
X2140000Y1173858D02*
Y2150000D01*
X1990000D02*
Y3760000D01*
X1940000Y1173858D02*
Y2150000D01*
X1690000D02*
Y4130000D01*
X2390000Y2050000D02*
Y3360000D01*
X2240000Y1173858D02*
Y2100000D01*
X2290000Y2220000D02*
X2340000Y2170000D01*
Y1173858D02*
Y2170000D01*
X2040000Y2130000D02*
X2090000Y2180000D01*
X2040000Y1173858D02*
Y2130000D01*
X2090000Y2180000D02*
Y2230000D01*
Y3820000D01*
X1790000Y2220000D02*
Y4360000D01*
X1840000Y1173858D02*
Y2170000D01*
X1790000Y2220000D02*
X1840000Y2170000D01*
X1540000Y1173858D02*
Y2120000D01*
X1490000Y2230000D02*
X1640000Y2080000D01*
Y1173858D02*
Y2080000D01*
X1740000Y1173858D02*
Y2100000D01*
X1890000D02*
Y3800000D01*
X2540000Y2391024D02*
Y3510000D01*
X1640000Y2391024D02*
Y4290000D01*
X1440000Y2391024D02*
X1440173Y2391197D01*
X1290000Y2250000D02*
X1430000Y2110000D01*
X1290000Y2250000D02*
Y4080000D01*
X1340000Y2391024D02*
Y4330000D01*
X2490000Y2230000D02*
Y3480000D01*
X2040000Y2391024D02*
Y3210000D01*
X1750000Y4660000D02*
Y4900000D01*
X1640000Y4290000D02*
Y4430000D01*
X1930000Y3980000D02*
X2090000Y3820000D01*
X1890000Y3860000D02*
X1990000Y3760000D01*
X1930000Y3980000D02*
Y4430000D01*
X1890000Y3860000D02*
Y4410000D01*
X1650000Y4650000D02*
X1890000Y4410000D01*
X1690000Y4670000D02*
X1930000Y4430000D01*
X1690000Y4670000D02*
Y4760000D01*
X1650000Y4800000D02*
X1690000Y4760000D01*
X1650000Y4650000D02*
Y4700000D01*
X1840000Y3850000D02*
Y4410000D01*
X1650000Y4600000D02*
X1840000Y4410000D01*
Y3850000D02*
X1890000Y3800000D01*
X1650000Y4500000D02*
X1790000Y4360000D01*
X1820000Y4790000D02*
X2190000D01*
X1820000Y4750000D02*
X2160000D01*
X1540000Y3630000D02*
Y4630000D01*
X1590000Y2230000D02*
Y4380000D01*
X1430000Y1211943D02*
Y2110000D01*
X1440000Y1173858D02*
Y1201943D01*
X1430000Y1211943D02*
X1440000Y1201943D01*
X1340000Y1173858D02*
Y2120000D01*
X1490000Y2230000D02*
Y4250000D01*
X1240000Y2391024D02*
Y4230000D01*
X1440000Y3610000D02*
X1440173Y3609827D01*
Y2391197D02*
Y3609827D01*
X1390000Y2230000D02*
Y4180000D01*
X2340000Y2391024D02*
Y3310000D01*
X2740000Y2391024D02*
Y3610000D01*
X1540000Y2391024D02*
Y3410000D01*
D67*
X2370000Y4761429D02*
Y4874757D01*
Y4761429D02*
X2400000Y4731429D01*
Y4720000D02*
Y4731429D01*
X2498394Y4387532D02*
Y4733206D01*
X2520000Y4754813D01*
Y4868577D01*
X3140000Y3800000D02*
X3224000Y3884000D01*
Y3904000D01*
X3440000Y4050000D02*
X3640000Y3850000D01*
X3440000Y4050000D02*
Y4080000D01*
X3060000Y4550000D02*
X3150000D01*
X5900000Y3010000D02*
X6520059Y3630059D01*
X6539941D02*
X6540000Y3630000D01*
X6520059Y3630059D02*
X6539941D01*
X3410000Y1240000D02*
Y1380000D01*
X2805000Y4235000D02*
X2990000Y4050000D01*
X2805000Y4235000D02*
Y4720000D01*
Y4860000D01*
X3005000Y4720000D02*
Y4808411D01*
X2955000Y4858411D02*
X3005000Y4808411D01*
X2955000Y4858411D02*
Y4865000D01*
X3005000Y4605000D02*
Y4720000D01*
Y4605000D02*
X3060000Y4550000D01*
X3910000Y1440000D02*
Y1580000D01*
X3740000Y1750000D02*
X3910000Y1580000D01*
X5840000Y3440000D02*
X6050000D01*
X6260000Y3650000D02*
X6340000D01*
X6050000Y3440000D02*
X6260000Y3650000D01*
X5880000Y3400000D02*
X6149488D01*
X6340000Y3590512D01*
X6314548Y3344971D02*
X6586786D01*
X6590000Y3210000D02*
X6690000Y3310000D01*
Y3600000D01*
X5981378Y3710000D02*
X6580000D01*
X6690000Y3600000D01*
X3640000Y1800000D02*
Y3850000D01*
X3540000Y1700000D02*
X3640000Y1800000D01*
X3680000Y1400000D02*
Y1550000D01*
X3540000Y1600000D02*
X3630000D01*
X3680000Y1550000D01*
X5700000Y2650000D02*
X5895000Y2455000D01*
Y2405000D02*
X6050000Y2250000D01*
X5895000Y2405000D02*
Y2455000D01*
X6050000Y2250000D02*
X6430000D01*
X6540000Y2140000D01*
X1910000Y4530000D02*
X2010000Y4430000D01*
Y4030000D02*
Y4430000D01*
Y4030000D02*
X2040000Y4000000D01*
X5815000Y3010000D02*
X5900000D01*
X5150000Y3850000D02*
X5230000Y3930000D01*
X5640000D02*
X5684331Y3885669D01*
X5230000Y3930000D02*
X5640000D01*
X5290000Y3870000D02*
X5600000D01*
X5625276Y3800000D02*
Y3844724D01*
X5600000Y3870000D02*
X5625276Y3844724D01*
X5220000Y3800000D02*
X5290000Y3870000D01*
X5684331Y3800000D02*
Y3885669D01*
X3510000Y1240000D02*
Y1320000D01*
X3480000Y1350000D02*
Y2040000D01*
Y1350000D02*
X3510000Y1320000D01*
X3410000Y1140000D02*
X3520000Y1030000D01*
X3970000D01*
X4040000Y1100000D01*
Y1800000D01*
X3740000Y1850000D02*
X3990000D01*
X4040000Y1800000D01*
X3938630Y1078630D02*
X3980000Y1120000D01*
Y1290000D01*
X3925000Y1345000D02*
X3980000Y1290000D01*
X3810000Y1140000D02*
X3871370Y1078630D01*
X3938630D01*
X3735000Y1345000D02*
X3925000D01*
X3680000Y1400000D02*
X3735000Y1345000D01*
X3540000Y1400000D02*
X3610000Y1330000D01*
Y1240000D02*
Y1330000D01*
X3540000Y1500000D02*
X3642000D01*
X3370000Y1900000D02*
X3446000D01*
X3330000Y1800000D02*
X3446000D01*
X3410000Y1660000D02*
Y1740000D01*
X6300000Y2040000D02*
X6540000D01*
X6260000Y2000000D02*
X6300000Y2040000D01*
X5904576Y2935000D02*
X6314548Y3344971D01*
X6250000Y2765000D02*
X6630000D01*
X6130000Y2535000D02*
X6630000D01*
X6540000Y2915000D02*
X6670000D01*
X6540000Y3125000D02*
X6670000D01*
X5640000Y2000000D02*
Y2180000D01*
X5020000Y2000000D02*
Y2180000D01*
X4400000Y2000000D02*
Y2180000D01*
X2040000Y4000000D02*
X2055255D01*
X2385941Y4275080D02*
X2498394Y4387532D01*
X2385941Y4026648D02*
Y4275080D01*
X2345000Y4416378D02*
Y4665000D01*
X2400000Y4720000D01*
X5540000Y3710000D02*
X5981378D01*
X5507165Y3742835D02*
X5540000Y3710000D01*
X5507165Y3742835D02*
Y3800000D01*
X2640000Y3899393D02*
X2641716Y3901109D01*
X2790000Y3800000D02*
Y3900000D01*
X2640000Y3800000D02*
Y3899393D01*
D68*
X3080000Y1240000D02*
X3210000D01*
X3020000Y1300000D02*
X3080000Y1240000D01*
D69*
X6792598Y4502362D02*
D03*
Y4403937D02*
D03*
X6405000Y1320000D02*
D03*
X4545000D02*
D03*
X5785000D02*
D03*
X5165000D02*
D03*
D70*
X5743386Y3800000D02*
D03*
D71*
X5684331D02*
D03*
X5625276D02*
D03*
X5566221D02*
D03*
X5330000D02*
D03*
X5389055D02*
D03*
X5448110D02*
D03*
X5507165D02*
D03*
D72*
X3540000Y1400000D02*
D03*
X3740000Y1450000D02*
D03*
X3540000Y1500000D02*
D03*
X3740000Y1550000D02*
D03*
X3540000Y1600000D02*
D03*
X3740000Y1650000D02*
D03*
X3540000Y1700000D02*
D03*
X3740000Y1750000D02*
D03*
X3540000Y1800000D02*
D03*
X3740000Y1850000D02*
D03*
X3540000Y1900000D02*
D03*
X3740000Y1950000D02*
D03*
X3540000Y2000000D02*
D03*
X3740000Y2050000D02*
D03*
D73*
X3540000Y2100000D02*
D03*
D74*
X1440000Y2330000D02*
D03*
X1540000D02*
D03*
X1640000D02*
D03*
X1740000D02*
D03*
X1840000D02*
D03*
X1940000D02*
D03*
X2040000D02*
D03*
X2140000D02*
D03*
X2240000D02*
D03*
X2340000D02*
D03*
X2440000D02*
D03*
X2540000D02*
D03*
X2640000D02*
D03*
X2740000D02*
D03*
X2840000D02*
D03*
X2940000D02*
D03*
X1140000D02*
D03*
X1240000D02*
D03*
X1340000D02*
D03*
Y1173858D02*
D03*
X1240000D02*
D03*
X1140000D02*
D03*
X2940000D02*
D03*
X2840000D02*
D03*
X2740000D02*
D03*
X2640000D02*
D03*
X2540000D02*
D03*
X2440000D02*
D03*
X2340000D02*
D03*
X2240000D02*
D03*
X2140000D02*
D03*
X2040000D02*
D03*
X1940000D02*
D03*
X1840000D02*
D03*
X1740000D02*
D03*
X1640000D02*
D03*
X1540000D02*
D03*
X1440000D02*
D03*
D75*
Y2383150D02*
D03*
X1540000D02*
D03*
X1640000D02*
D03*
X1740000D02*
D03*
X1840000D02*
D03*
X1940000D02*
D03*
X2040000D02*
D03*
X2140000D02*
D03*
X2240000D02*
D03*
X2340000D02*
D03*
X2440000D02*
D03*
X2540000D02*
D03*
X2640000D02*
D03*
X2740000D02*
D03*
X2840000D02*
D03*
X2940000D02*
D03*
X1140000D02*
D03*
X1240000D02*
D03*
X1340000D02*
D03*
Y1120709D02*
D03*
X1240000D02*
D03*
X1140000D02*
D03*
X2940000D02*
D03*
X2840000D02*
D03*
X2740000D02*
D03*
X2640000D02*
D03*
X2540000D02*
D03*
X2440000D02*
D03*
X2340000D02*
D03*
X2240000D02*
D03*
X2140000D02*
D03*
X2040000D02*
D03*
X1940000D02*
D03*
X1840000D02*
D03*
X1740000D02*
D03*
X1640000D02*
D03*
X1540000D02*
D03*
X1440000D02*
D03*
D76*
X3910000Y1240000D02*
D03*
X3810000D02*
D03*
X3710000D02*
D03*
X3610000D02*
D03*
X3510000D02*
D03*
X3410000D02*
D03*
X3310000D02*
D03*
X3210000D02*
D03*
X3910000Y1140000D02*
D03*
X3810000D02*
D03*
X3710000D02*
D03*
X3610000D02*
D03*
X3510000D02*
D03*
X3410000D02*
D03*
X3310000D02*
D03*
X3210000D02*
D03*
X6900000Y2815000D02*
D03*
X6750000Y3015000D02*
D03*
Y2915000D02*
D03*
X6900000Y3115000D02*
D03*
Y2485000D02*
D03*
Y2185000D02*
D03*
X6250000Y2765000D02*
D03*
X6150000D02*
D03*
X6030000Y2535000D02*
D03*
X6130000D02*
D03*
X6750000Y2285000D02*
D03*
Y2385000D02*
D03*
X6850000Y3400000D02*
D03*
Y3500000D02*
D03*
Y3600000D02*
D03*
Y3700000D02*
D03*
X6540000Y2140000D02*
D03*
Y2040000D02*
D03*
X5740000Y2200000D02*
D03*
X5640000D02*
D03*
X5120000D02*
D03*
X5020000D02*
D03*
X4500000D02*
D03*
X4400000D02*
D03*
X2530000Y4860000D02*
D03*
X3960000Y4250000D02*
D03*
Y4650000D02*
D03*
Y4550000D02*
D03*
Y4450000D02*
D03*
Y4350000D02*
D03*
Y4150000D02*
D03*
Y4050000D02*
D03*
Y3950000D02*
D03*
X5170000Y3520000D02*
D03*
X2805000Y4720000D02*
D03*
X2905000D02*
D03*
X3005000D02*
D03*
X3105000D02*
D03*
X2805000Y4860000D02*
D03*
X3105000D02*
D03*
X2400000Y4720000D02*
D03*
X2500000D02*
D03*
X2360000Y4860000D02*
D03*
X2955000Y4865000D02*
D03*
X1890000Y4860000D02*
D03*
X1990000D02*
D03*
D77*
X1180000Y4000000D02*
D03*
Y4100000D02*
D03*
Y4200000D02*
D03*
Y4300000D02*
D03*
Y4400000D02*
D03*
Y4500000D02*
D03*
Y4600000D02*
D03*
Y4700000D02*
D03*
Y4800000D02*
D03*
Y4900000D02*
D03*
X1080000D02*
D03*
Y4800000D02*
D03*
Y4700000D02*
D03*
Y4600000D02*
D03*
Y4500000D02*
D03*
Y4400000D02*
D03*
Y4300000D02*
D03*
Y4200000D02*
D03*
Y4100000D02*
D03*
Y4000000D02*
D03*
X1180000Y2880000D02*
D03*
Y2980000D02*
D03*
Y3080000D02*
D03*
Y3180000D02*
D03*
Y3280000D02*
D03*
Y3380000D02*
D03*
Y3480000D02*
D03*
Y3580000D02*
D03*
Y3680000D02*
D03*
Y3780000D02*
D03*
X1080000D02*
D03*
Y3680000D02*
D03*
Y3580000D02*
D03*
Y3480000D02*
D03*
Y3380000D02*
D03*
Y3280000D02*
D03*
Y3180000D02*
D03*
Y3080000D02*
D03*
Y2980000D02*
D03*
Y2880000D02*
D03*
D78*
X6155000Y1320000D02*
D03*
X4295000D02*
D03*
X5535000D02*
D03*
X4915000D02*
D03*
D79*
X6361378Y2865000D02*
D03*
X6461378Y2965000D02*
D03*
X5981378Y3510000D02*
D03*
X6081378Y3610000D02*
D03*
X2545000Y4416378D02*
D03*
X2445000Y4516378D02*
D03*
D80*
X6361378Y3065000D02*
D03*
X5981378Y3710000D02*
D03*
D81*
X5160000Y1840000D02*
D03*
X5780000D02*
D03*
X6400000D02*
D03*
X4540000D02*
D03*
D82*
X5160000Y1740000D02*
D03*
Y1640000D02*
D03*
X5780000Y1740000D02*
D03*
Y1640000D02*
D03*
X6400000Y1740000D02*
D03*
Y1640000D02*
D03*
X4540000Y1740000D02*
D03*
Y1640000D02*
D03*
D83*
X5568898Y1740000D02*
D03*
X5431102D02*
D03*
X6188898D02*
D03*
X6051102D02*
D03*
X4328898D02*
D03*
X4191102D02*
D03*
X4948898D02*
D03*
X4811102D02*
D03*
D84*
X6780000Y1538110D02*
D03*
D85*
Y1301890D02*
D03*
D86*
X6965039Y1420000D02*
D03*
D87*
X2345000Y4416378D02*
D03*
D88*
X3600000Y4760000D02*
D03*
X3140000Y3800000D02*
D03*
X3224000Y3904000D02*
D03*
X3440000Y4080000D02*
D03*
X2441152Y3712950D02*
D03*
X5995000Y2180000D02*
D03*
X5895000D02*
D03*
X2190000Y4050000D02*
D03*
X3270000Y3950000D02*
D03*
Y4150000D02*
D03*
Y4200000D02*
D03*
Y4250000D02*
D03*
X3150000Y4550000D02*
D03*
X2900000Y3900000D02*
D03*
X3050000Y4280000D02*
D03*
X6220000Y3090000D02*
D03*
X6150000Y2970000D02*
D03*
X2800000Y4120000D02*
D03*
X6540000Y3630000D02*
D03*
X6310000Y1990000D02*
D03*
X5690000Y2000000D02*
D03*
X5066596Y2002510D02*
D03*
X4449107Y2002775D02*
D03*
X6140000Y2330000D02*
D03*
X3600000Y4460000D02*
D03*
X2980000Y4190000D02*
D03*
X2647033Y4202967D02*
D03*
X2060000Y4240000D02*
D03*
X1440000Y3790000D02*
D03*
X1840000Y3770000D02*
D03*
X2990000Y4050000D02*
D03*
X3910000Y1440000D02*
D03*
X2640000Y2850000D02*
D03*
X5840000Y3440000D02*
D03*
X5880000Y3400000D02*
D03*
X6340000Y3590512D02*
D03*
Y3650000D02*
D03*
X2690000Y2800000D02*
D03*
X2190000Y2750000D02*
D03*
X2290000Y2700000D02*
D03*
X6586786Y3344971D02*
D03*
X6590000Y3210000D02*
D03*
X1840000Y2650000D02*
D03*
X2140000Y2550000D02*
D03*
X1940000Y2600000D02*
D03*
X2240000Y2500000D02*
D03*
X2940000Y3110000D02*
D03*
X2640000Y2960000D02*
D03*
X2840000Y3010000D02*
D03*
X5700000Y2650000D02*
D03*
X2640000Y2150000D02*
D03*
X2590000D02*
D03*
X2740000Y2000000D02*
D03*
X2490000D02*
D03*
X2840000Y2050000D02*
D03*
X2540000Y2150000D02*
D03*
X2190000D02*
D03*
X2140000D02*
D03*
X1990000D02*
D03*
X1940000D02*
D03*
X1690000D02*
D03*
X2390000Y2050000D02*
D03*
X2690000Y2100000D02*
D03*
X2240000D02*
D03*
X1540000Y2120000D02*
D03*
X1740000Y2100000D02*
D03*
X1890000D02*
D03*
X2690000Y2230000D02*
D03*
Y3080000D02*
D03*
X2590000Y3560000D02*
D03*
X2490000Y2230000D02*
D03*
Y3480000D02*
D03*
X2390000Y3360000D02*
D03*
X2290000Y3260000D02*
D03*
X2190000Y3160000D02*
D03*
X2040000Y3210000D02*
D03*
X1750000Y4900000D02*
D03*
Y4660000D02*
D03*
X1640000Y4290000D02*
D03*
X1925000Y3905000D02*
D03*
X1940000Y3630000D02*
D03*
X1820000Y4790000D02*
D03*
Y4750000D02*
D03*
X1540000Y3630000D02*
D03*
Y4630000D02*
D03*
X1690000Y4130000D02*
D03*
X1640000Y4430000D02*
D03*
X5150000Y3850000D02*
D03*
X1340000Y2120000D02*
D03*
X1650000Y4800000D02*
D03*
Y4700000D02*
D03*
Y4600000D02*
D03*
Y4500000D02*
D03*
X1590000Y2230000D02*
D03*
Y4380000D02*
D03*
X1490000Y2230000D02*
D03*
Y4250000D02*
D03*
X1240000Y4230000D02*
D03*
X1440000Y3610000D02*
D03*
X1390000Y2230000D02*
D03*
Y4180000D02*
D03*
X1290000Y4080000D02*
D03*
X1440000Y4530000D02*
D03*
X1340000Y4330000D02*
D03*
X3642000Y1500000D02*
D03*
X3446000Y1800000D02*
D03*
Y1900000D02*
D03*
X3480000Y2040000D02*
D03*
X3410000Y1380000D02*
D03*
Y1660000D02*
D03*
Y1740000D02*
D03*
X3330000Y1800000D02*
D03*
X3370000Y1900000D02*
D03*
X1540000Y3410000D02*
D03*
X2340000Y3310000D02*
D03*
X2540000Y3510000D02*
D03*
X2740000Y3610000D02*
D03*
X6670000Y3125000D02*
D03*
X6540000Y2915000D02*
D03*
X6670000D02*
D03*
X6540000Y3125000D02*
D03*
X5904576Y2935000D02*
D03*
X6630000Y2765000D02*
D03*
Y2535000D02*
D03*
X5895000Y3109745D02*
D03*
X5815000Y3010000D02*
D03*
X5020000Y2000000D02*
D03*
X6260000D02*
D03*
X5640000D02*
D03*
X4400000D02*
D03*
X6149794Y4436884D02*
D03*
X2055255Y4000000D02*
D03*
X1910000Y4530000D02*
D03*
X5220000Y3800000D02*
D03*
X2490000Y4070000D02*
D03*
X2385941Y4026648D02*
D03*
X2640000Y3800000D02*
D03*
X2790000D02*
D03*
Y3900000D02*
D03*
X2641716Y3901109D02*
D03*
D89*
X3020000Y1300000D02*
D03*
M02*
