M48
;Layer_Color=9474304
;FILE_FORMAT=2:4
INCH,TZ
;TYPE=PLATED
T4F00S00C0.0256
T10F00S00C0.0394
%
G90
G05
T04
G00X11400Y11532
M15
G01Y11945
M16
G00X12400Y11532
M15
G01Y11945
M16
G00X13400Y11532
M15
G01Y11945
M16
G00X14400Y11532
M15
G01Y11945
M16
G00X15400Y11532
M15
G01Y11945
M16
G00X16400Y11532
M15
G01Y11945
M16
G00X17400Y11532
M15
G01Y11945
M16
G00X18400Y11532
M15
G01Y11945
M16
G00X19400Y11532
M15
G01Y11945
M16
G00X20400Y11532
M15
G01Y11945
M16
G00X21400Y11532
M15
G01Y11945
M16
G00X22400Y11532
M15
G01Y11945
M16
G00X23400Y11532
M15
G01Y11945
M16
G00X24400Y11532
M15
G01Y11945
M16
G00X25400Y11532
M15
G01Y11945
M16
G00X26400Y11532
M15
G01Y11945
M16
G00X27400Y11532
M15
G01Y11945
M16
G00X28400Y11532
M15
G01Y11945
M16
G00X29400Y11532
M15
G01Y11945
M16
G00X29400Y23507
M15
G01Y23093
M16
G00X28400Y23507
M15
G01Y23093
M16
G00X27400Y23507
M15
G01Y23093
M16
G00X26400Y23507
M15
G01Y23093
M16
G00X25400Y23507
M15
G01Y23093
M16
G00X24400Y23507
M15
G01Y23093
M16
G00X23400Y23507
M15
G01Y23093
M16
G00X22400Y23507
M15
G01Y23093
M16
G00X21400Y23507
M15
G01Y23093
M16
G00X20400Y23507
M15
G01Y23093
M16
G00X19400Y23507
M15
G01Y23093
M16
G00X18400Y23507
M15
G01Y23093
M16
G00X17400Y23507
M15
G01Y23093
M16
G00X16400Y23507
M15
G01Y23093
M16
G00X15400Y23507
M15
G01Y23093
M16
G00X14400Y23507
M15
G01Y23093
M16
G00X13400Y23507
M15
G01Y23093
M16
G00X12400Y23507
M15
G01Y23093
M16
G00X11400Y23507
M15
G01Y23093
M16
T10
G00X68194Y13019
M15
G01X67406
M16
G00X68292Y15381
M15
G01X67308
M16
G00X69650Y14594
M15
G01Y13806
M16
M17
M30
