G04*
G04 #@! TF.GenerationSoftware,Altium Limited,Altium Designer,23.4.1 (23)*
G04*
G04 Layer_Physical_Order=1*
G04 Layer_Color=255*
%FSLAX26Y26*%
%MOIN*%
G70*
G04*
G04 #@! TF.SameCoordinates,7CE1F54E-F9D9-4D57-B496-837467B0791C*
G04*
G04*
G04 #@! TF.FilePolarity,Positive*
G04*
G01*
G75*
%ADD16C,0.010000*%
%ADD19R,0.039370X0.062992*%
%ADD20O,0.090551X0.023622*%
%ADD21O,0.027559X0.098425*%
%ADD22O,0.023622X0.074803*%
%ADD23R,0.047244X0.035433*%
%ADD24R,0.035433X0.047244*%
%ADD25R,0.053394X0.043490*%
%ADD26R,0.035433X0.031496*%
%ADD27R,0.035433X0.043307*%
%ADD28R,0.043307X0.053150*%
%ADD29R,0.062992X0.039370*%
%ADD30R,0.043490X0.053394*%
%ADD31O,0.074803X0.023622*%
G04:AMPARAMS|DCode=32|XSize=64.499mil|YSize=24.329mil|CornerRadius=12.165mil|HoleSize=0mil|Usage=FLASHONLY|Rotation=0.000|XOffset=0mil|YOffset=0mil|HoleType=Round|Shape=RoundedRectangle|*
%AMROUNDEDRECTD32*
21,1,0.064499,0.000000,0,0,0.0*
21,1,0.040170,0.024329,0,0,0.0*
1,1,0.024329,0.020085,0.000000*
1,1,0.024329,-0.020085,0.000000*
1,1,0.024329,-0.020085,0.000000*
1,1,0.024329,0.020085,0.000000*
%
%ADD32ROUNDEDRECTD32*%
%ADD33R,0.064499X0.024329*%
%ADD34R,0.055118X0.047244*%
%ADD35O,0.086614X0.023622*%
%ADD36R,0.070866X0.023622*%
%ADD67C,0.024000*%
%ADD68C,0.050000*%
%ADD69C,0.070866*%
%ADD70R,0.047244X0.047244*%
%ADD71C,0.047244*%
%ADD72C,0.059055*%
%ADD73R,0.059055X0.059055*%
%ADD74O,0.037402X0.078740*%
%ADD75R,0.035433X0.059055*%
%ADD76C,0.078740*%
%ADD77C,0.060000*%
%ADD78R,0.070866X0.070866*%
%ADD79C,0.049213*%
%ADD80R,0.049213X0.049213*%
%ADD81R,0.066929X0.066929*%
%ADD82C,0.066929*%
%ADD83C,0.055118*%
%ADD84R,0.157480X0.059055*%
%ADD85R,0.137795X0.059055*%
%ADD86R,0.059055X0.137795*%
%ADD87R,0.049213X0.049213*%
%ADD88C,0.020000*%
%ADD89C,0.050000*%
D16*
X3600000Y4697244D02*
Y4760000D01*
X1080000Y3680000D02*
X1125000Y3725000D01*
X1775698D01*
X1787748Y3712950D02*
X2441152D01*
X1775698Y3725000D02*
X1787748Y3712950D01*
X2710000Y3680000D02*
X2740000Y3650000D01*
X1180000Y3680000D02*
X2710000D01*
X2740000Y3610000D02*
Y3650000D01*
X2570000Y3580000D02*
X2590000Y3560000D01*
X1180000Y3580000D02*
X2570000D01*
X1180000Y3480000D02*
X2490000D01*
X1180000Y3380000D02*
X2370000D01*
X1080000Y3480000D02*
X1130000Y3530000D01*
X2370000Y3380000D02*
X2390000Y3360000D01*
X2520000Y3530000D02*
X2540000Y3510000D01*
X1130000Y3530000D02*
X2520000D01*
X1820000Y3790000D02*
X1840000Y3770000D01*
X1440000Y3790000D02*
X1820000D01*
X1130000Y3130000D02*
X2920000D01*
X2940000Y3110000D01*
X1180000Y2980000D02*
X2620000D01*
X2640000Y2960000D01*
X1130000Y3030000D02*
X2820000D01*
X2840000Y3010000D01*
X2590000Y2150000D02*
X2640000D01*
X2490000Y2000000D02*
X2740000D01*
X2390000Y2050000D02*
X2840000D01*
X2190000Y2150000D02*
X2540000D01*
X1990000D02*
X2140000D01*
X1690000D02*
X1940000D01*
X2240000Y2100000D02*
X2690000D01*
X1540000Y2120000D02*
X1590000Y2170000D01*
Y2230000D01*
X1740000Y2100000D02*
X1890000D01*
X1180000Y3080000D02*
X2690000D01*
X1180000Y3280000D02*
X2270000D01*
X2290000Y3260000D01*
X1180000Y3180000D02*
X2170000D01*
X2190000Y3160000D01*
X2020000Y3230000D02*
X2040000Y3210000D01*
X1130000Y3230000D02*
X2020000D01*
X1680000Y4590000D02*
X1750000Y4660000D01*
X1724094Y4477323D02*
X1730000D01*
X1711378Y4490039D02*
X1724094Y4477323D01*
X1711378Y4490039D02*
Y4495945D01*
X1680000Y4527323D02*
X1711378Y4495945D01*
X1680000Y4527323D02*
Y4590000D01*
X1730000Y4477323D02*
X1810000D01*
X1640000Y4290000D02*
X1850000D01*
X1987244Y4427244D02*
Y4461575D01*
X1850000Y4290000D02*
X1987244Y4427244D01*
X1892756Y4395371D02*
Y4461575D01*
X1340000Y4330000D02*
X1827385D01*
X1892756Y4395371D01*
X1540000Y3630000D02*
X1940000D01*
X1130000Y4850000D02*
X1760000D01*
X1820000Y4790000D01*
X1130000Y4750000D02*
X1820000D01*
X1520000Y4650000D02*
X1540000Y4630000D01*
X1130000Y4650000D02*
X1520000D01*
X1180000Y4600000D02*
X1650000D01*
X1180000Y4500000D02*
X1650000D01*
X1687573Y4130000D02*
X1690000D01*
X1130000Y4150000D02*
X1667573D01*
X1687573Y4130000D01*
X1130000Y4450000D02*
X1617573D01*
X1637573Y4430000D02*
X1640000D01*
X1617573Y4450000D02*
X1637573Y4430000D01*
X1340000Y2120000D02*
X1390000Y2170000D01*
Y2230000D01*
X1180000Y4800000D02*
X1650000D01*
X1180000Y4700000D02*
X1650000D01*
X1567573Y4400000D02*
X1587573Y4380000D01*
X1180000Y4400000D02*
X1567573D01*
X1587573Y4380000D02*
X1590000D01*
X1468827Y4271173D02*
X1490000Y4250000D01*
X1214813Y4271173D02*
X1468827D01*
X1185986Y4300000D02*
X1214813Y4271173D01*
X1180000Y4300000D02*
X1185986D01*
X1370000Y4200000D02*
X1390000Y4180000D01*
X1220000Y4250000D02*
X1240000Y4230000D01*
X1180000Y4200000D02*
X1370000D01*
X1130000Y4250000D02*
X1220000D01*
X1130000Y3630000D02*
X1420000D01*
X1440000Y3610000D01*
X1080000Y4200000D02*
X1130000Y4250000D01*
X1080000Y3080000D02*
X1130000Y3130000D01*
X1080000Y2980000D02*
X1130000Y3030000D01*
X1270000Y4100000D02*
X1290000Y4080000D01*
X1180000Y4100000D02*
X1270000D01*
X1080000Y3180000D02*
X1130000Y3230000D01*
Y4550000D02*
X1420000D01*
X1440000Y4530000D01*
X1320000Y4350000D02*
X1340000Y4330000D01*
X1130000Y4350000D02*
X1320000D01*
X1080000Y4400000D02*
X1130000Y4450000D01*
X1080000Y4300000D02*
X1130000Y4350000D01*
Y3330000D02*
X2317573D01*
X1080000Y3280000D02*
X1130000Y3330000D01*
X2317573D02*
X2337573Y3310000D01*
X1520000Y3430000D02*
X1540000Y3410000D01*
X1130000Y3430000D02*
X1520000D01*
X2337573Y3310000D02*
X2340000D01*
X1080000Y3380000D02*
X1130000Y3430000D01*
X1080000Y4800000D02*
X1130000Y4850000D01*
X1080000Y4700000D02*
X1130000Y4750000D01*
X1080000Y4600000D02*
X1130000Y4650000D01*
X1080000Y4500000D02*
X1130000Y4550000D01*
X1080000Y4100000D02*
X1130000Y4150000D01*
X1080000Y3580000D02*
X1130000Y3630000D01*
X2530000Y4851399D02*
Y4870000D01*
X2800000Y4245000D02*
X2800197Y4245197D01*
X2432244Y4178425D02*
X2445000Y4191181D01*
X2395630Y4724370D02*
X2400000Y4720000D01*
D19*
X3501575Y4602756D02*
D03*
X3600000D02*
D03*
X3698425D02*
D03*
X3501575Y4697244D02*
D03*
X3600000D02*
D03*
X3698425D02*
D03*
X6418425Y3252244D02*
D03*
X6320000D02*
D03*
X6221575D02*
D03*
X6418425Y3157756D02*
D03*
X6320000D02*
D03*
X6221575D02*
D03*
X6491575Y3590512D02*
D03*
X6590000D02*
D03*
X6688425D02*
D03*
X6491575Y3685000D02*
D03*
X6590000D02*
D03*
X6688425D02*
D03*
X6490000Y3415000D02*
D03*
X6588425D02*
D03*
X6686850D02*
D03*
X6490000Y3509488D02*
D03*
X6588425D02*
D03*
X6686850D02*
D03*
X5401575Y3430000D02*
D03*
X5500000D02*
D03*
X5598425D02*
D03*
X5401575Y3524488D02*
D03*
X5500000D02*
D03*
X5598425D02*
D03*
D20*
X3708268Y3950000D02*
D03*
Y4000000D02*
D03*
Y4050000D02*
D03*
Y4100000D02*
D03*
Y4150000D02*
D03*
Y4200000D02*
D03*
Y4250000D02*
D03*
Y4300000D02*
D03*
Y4350000D02*
D03*
X3350000Y3950000D02*
D03*
Y4000000D02*
D03*
Y4050000D02*
D03*
Y4100000D02*
D03*
Y4150000D02*
D03*
Y4200000D02*
D03*
Y4250000D02*
D03*
Y4300000D02*
D03*
Y4350000D02*
D03*
D21*
X5895000Y2858543D02*
D03*
X5945000D02*
D03*
X5995000D02*
D03*
X6045000D02*
D03*
X5895000Y3051457D02*
D03*
X5945000D02*
D03*
X5995000D02*
D03*
X6045000D02*
D03*
D22*
Y2437520D02*
D03*
X5995000D02*
D03*
X5945000D02*
D03*
X5895000D02*
D03*
X6045000Y2252480D02*
D03*
X5995000D02*
D03*
X5945000D02*
D03*
X5895000D02*
D03*
D23*
X6240000Y2517677D02*
D03*
Y2435000D02*
D03*
X6160000Y1998661D02*
D03*
Y2081339D02*
D03*
X6060000Y1998661D02*
D03*
Y2081339D02*
D03*
X5540000Y1998661D02*
D03*
Y2081339D02*
D03*
X5440000Y1998661D02*
D03*
Y2081339D02*
D03*
X4200000Y1998661D02*
D03*
Y2081339D02*
D03*
X4300000Y1998661D02*
D03*
Y2081339D02*
D03*
X4820000Y1998661D02*
D03*
Y2081339D02*
D03*
X4920000Y1998661D02*
D03*
Y2081339D02*
D03*
X6890000Y4498661D02*
D03*
Y4581339D02*
D03*
X1810000Y4560000D02*
D03*
Y4477323D02*
D03*
X1730000Y4560000D02*
D03*
Y4477323D02*
D03*
D24*
X6168661Y2665000D02*
D03*
X6251339D02*
D03*
X4151339Y3950000D02*
D03*
X4068661D02*
D03*
X4151339Y4050000D02*
D03*
X4068661D02*
D03*
X4151339Y4550000D02*
D03*
X4068661D02*
D03*
X4151339Y4650000D02*
D03*
X4068661D02*
D03*
X4151339Y4450000D02*
D03*
X4068661D02*
D03*
X4150000Y4350000D02*
D03*
X4067323D02*
D03*
X4151339Y4150000D02*
D03*
X4068661D02*
D03*
X4151339Y4250000D02*
D03*
X4068661D02*
D03*
D25*
X6140000Y2435000D02*
D03*
Y2379427D02*
D03*
X6150000Y2859427D02*
D03*
Y2915000D02*
D03*
D26*
X6439370Y2040000D02*
D03*
X6360630Y2002599D02*
D03*
Y2077402D02*
D03*
X5819370Y2040000D02*
D03*
X5740630Y2002599D02*
D03*
Y2077402D02*
D03*
X5199370Y2040000D02*
D03*
X5120630Y2002599D02*
D03*
Y2077402D02*
D03*
X4579370Y2040000D02*
D03*
X4500630Y2002599D02*
D03*
Y2077402D02*
D03*
D27*
X4300000Y4450000D02*
D03*
X4225197D02*
D03*
X4297402Y3950000D02*
D03*
X4222598D02*
D03*
X4297402Y4050000D02*
D03*
X4222598D02*
D03*
X4297402Y4550000D02*
D03*
X4222598D02*
D03*
X4297402Y4350000D02*
D03*
X4222598D02*
D03*
X4297402Y4150000D02*
D03*
X4222598D02*
D03*
X4297402Y4650000D02*
D03*
X4222598D02*
D03*
X4297402Y4250000D02*
D03*
X4222598D02*
D03*
D28*
X5330000Y3710000D02*
D03*
X5385118D02*
D03*
X5452441D02*
D03*
X5507559D02*
D03*
D29*
X2432244Y3981575D02*
D03*
Y4080000D02*
D03*
Y4178425D02*
D03*
X2337756Y3981575D02*
D03*
Y4080000D02*
D03*
Y4178425D02*
D03*
X1892756Y4658425D02*
D03*
Y4560000D02*
D03*
Y4461575D02*
D03*
X1987244Y4658425D02*
D03*
Y4560000D02*
D03*
Y4461575D02*
D03*
D30*
X2545000Y4205000D02*
D03*
X2600573D02*
D03*
X2117787Y4185000D02*
D03*
X2062213D02*
D03*
X3085000Y4190000D02*
D03*
X3029427D02*
D03*
X3707787Y4460000D02*
D03*
X3652213D02*
D03*
D31*
X3085039Y3950000D02*
D03*
Y4000000D02*
D03*
Y4050000D02*
D03*
Y4100000D02*
D03*
X2900000Y3950000D02*
D03*
Y4000000D02*
D03*
Y4050000D02*
D03*
Y4100000D02*
D03*
D32*
X2641828D02*
D03*
Y4025197D02*
D03*
X2550000D02*
D03*
Y4062598D02*
D03*
D33*
Y4100000D02*
D03*
D34*
X2800000Y4245000D02*
D03*
Y4178071D02*
D03*
D35*
X2114488Y3950000D02*
D03*
Y4000000D02*
D03*
Y4050000D02*
D03*
Y4100000D02*
D03*
X1925512Y3950000D02*
D03*
Y4000000D02*
D03*
Y4050000D02*
D03*
Y4100000D02*
D03*
D36*
X2900000Y4320000D02*
D03*
Y4245197D02*
D03*
X2978740Y4282598D02*
D03*
D67*
X5507362Y3710197D02*
X5507559Y3710000D01*
X5507362Y3710197D02*
Y3799803D01*
X5507165Y3800000D02*
X5507362Y3799803D01*
X5170000Y3520000D02*
X5330000Y3360000D01*
X5630000D01*
X5660000Y3390000D01*
Y3495941D01*
X5645941Y3510000D02*
X5660000Y3495941D01*
X5606110Y3510000D02*
X5645941D01*
X5598425Y3517685D02*
X5606110Y3510000D01*
X5598425Y3517685D02*
Y3524488D01*
X5519496Y3543984D02*
X5734371Y3758859D01*
Y3790985D01*
X5743386Y3800000D01*
X5500000Y3524488D02*
Y3536299D01*
X5507685Y3543984D02*
X5519496D01*
X5500000Y3536299D02*
X5507685Y3543984D01*
X5409260Y3559260D02*
X5507559Y3657559D01*
Y3710000D01*
X5409260Y3532173D02*
Y3559260D01*
X5401575Y3524488D02*
X5409260Y3532173D01*
X2130000Y3800000D02*
X2640000D01*
X5220000D01*
X3224000Y3904000D02*
Y4279941D01*
X3244059Y4300000D01*
X3350000Y4100000D02*
X3440000D01*
Y4080000D02*
Y4100000D01*
Y4350000D01*
X3708216D01*
X3708027Y4350189D02*
X3708216Y4350000D01*
X3708027Y4350189D02*
Y4459760D01*
X3708216Y4350000D02*
X3708268D01*
X3707787Y4460000D02*
X3708027Y4459760D01*
X3440000Y4350000D02*
Y4380000D01*
X4297402Y4350000D02*
Y4550000D01*
X3714370Y4725000D02*
X4275000D01*
X3698425Y4709055D02*
X3714370Y4725000D01*
X3698425Y4697244D02*
Y4709055D01*
X4297402Y4650000D02*
Y4702598D01*
X4275000Y4725000D02*
X4297402Y4702598D01*
X5255941Y3750000D02*
X5270000Y3764059D01*
X1960000Y3850000D02*
X2060000Y3750000D01*
X5255941D01*
X5270000Y3764059D02*
Y4000000D01*
X2114488Y3815512D02*
X2130000Y3800000D01*
X2114488Y3815512D02*
Y3950000D01*
X5995000Y2180000D02*
Y2252480D01*
X5895000Y2180000D02*
Y2252480D01*
X2114488Y4050000D02*
X2190000D01*
X3270000Y3950000D02*
X3350000D01*
X3270000Y4150000D02*
X3350000D01*
X3270000Y4200000D02*
X3350000D01*
X5566221Y3853898D02*
X6293661Y4581339D01*
X3270000Y4250000D02*
X3350000D01*
X3244059Y4300000D02*
X3350000D01*
X3190000Y3850000D02*
Y4310000D01*
X3230000Y4350000D01*
X3190000Y3850000D02*
X5150000D01*
X2830000D02*
X3190000D01*
X3110252Y3950000D02*
X3150000Y3989748D01*
Y4550000D01*
X2900000Y3900000D02*
Y3950000D01*
X3047402Y4282598D02*
X3050000Y4280000D01*
X2978740Y4282598D02*
X3047402D01*
X6221575Y3091575D02*
Y3157756D01*
X6220000Y3090000D02*
X6221575Y3091575D01*
X6150000Y2915000D02*
Y2970000D01*
X2800000Y4120000D02*
Y4178071D01*
X6540000Y3630000D02*
X6562323D01*
X6590000Y3602323D01*
Y3590512D02*
Y3602323D01*
X6356882Y1998850D02*
X6360630Y2002599D01*
X6318850Y1998850D02*
X6356882D01*
X6310000Y1990000D02*
X6318850Y1998850D01*
X5690000Y2000000D02*
X5738031D01*
X5066596Y2002510D02*
X5066685Y2002599D01*
X5120630D01*
X4449107Y2002775D02*
X4449283Y2002599D01*
X4500630D01*
X6140000Y2330000D02*
Y2379427D01*
X3600000Y4460000D02*
X3652213D01*
X2980000Y4190000D02*
X3029427D01*
X2600573Y4205000D02*
X2608285D01*
X2610318Y4202967D02*
X2647033D01*
X2608285Y4205000D02*
X2610318Y4202967D01*
X2060000Y4187213D02*
Y4240000D01*
X3910000Y1140000D02*
Y1240000D01*
X5317165Y4047165D02*
X5507165Y3857165D01*
X4494331Y4870000D02*
X5317165Y4047165D01*
X5270000Y4000000D02*
X5317165Y4047165D01*
X1250000Y3850000D02*
X1960000D01*
X1180000Y3780000D02*
X1250000Y3850000D01*
X1080000Y3780000D02*
X1180000D01*
X3940000Y1070000D02*
X3990000Y1120000D01*
X3930000Y1550000D02*
X3990000Y1490000D01*
Y1120000D02*
Y1490000D01*
X3780000Y1070000D02*
X3940000D01*
X3710000Y1140000D02*
X3780000Y1070000D01*
X3090000Y1100000D02*
Y1660000D01*
X3230000Y1800000D02*
X3330000D01*
X3090000Y1660000D02*
X3230000Y1800000D01*
X3140000Y1110000D02*
Y1640000D01*
X3234000Y1734000D01*
X3140000Y1110000D02*
X3180000Y1070000D01*
X3240000D01*
X3310000Y1140000D01*
X3160000Y1030000D02*
X3400000D01*
X3510000Y1140000D01*
X3090000Y1100000D02*
X3160000Y1030000D01*
X2990000Y4050000D02*
X3085039D01*
X2900000Y4600000D02*
X3080000D01*
X3085039Y3950000D02*
X3110252D01*
X3910000Y1240000D02*
Y1440000D01*
X5250000Y2850000D02*
X5840000Y3440000D01*
X2640000Y2850000D02*
X5250000D01*
X5320000Y2700000D02*
X6070000Y3450000D01*
X2690000Y2800000D02*
X5280000D01*
X5300000Y2750000D02*
X6059488Y3509488D01*
X6490000D01*
X2290000Y2700000D02*
X5320000D01*
X5280000Y2800000D02*
X5880000Y3400000D01*
X6070000Y3450000D02*
X6400000D01*
X2190000Y2750000D02*
X5300000D01*
X6340000Y3650000D02*
X6375000Y3685000D01*
X6491575D01*
X6340000Y3590512D02*
X6491575D01*
X6400000Y3450000D02*
X6435000Y3415000D01*
X6490000D01*
X6095000Y3395000D02*
X6340000D01*
X6405000Y3330000D01*
X6510000D01*
X5775000Y3075000D02*
X6095000Y3395000D01*
X5775000Y2582732D02*
Y3075000D01*
X5945000Y3051457D02*
Y3190000D01*
X6110000Y3355000D02*
X6325000D01*
X5945000Y3190000D02*
X6110000Y3355000D01*
X1840000Y2650000D02*
X5700000D01*
X5740000Y2200000D02*
Y2550000D01*
X5690000Y2600000D02*
X5740000Y2550000D01*
X1940000Y2600000D02*
X5690000D01*
X5995000Y3180000D02*
X6130000Y3315000D01*
X6540370Y3360370D02*
Y3449622D01*
X6630000Y2765000D02*
Y3374281D01*
X5895000Y2437520D02*
Y2462732D01*
X6269055Y3315000D02*
X6320000Y3264055D01*
X6588425Y3346611D02*
Y3415000D01*
X6130000Y3315000D02*
X6269055D01*
X6320000Y3252244D02*
Y3264055D01*
X6325000Y3355000D02*
X6370000Y3310000D01*
X6586786Y3344971D02*
X6588425Y3346611D01*
X6630000Y2535000D02*
Y2765000D01*
Y3374281D02*
X6631685Y3375966D01*
X6510000Y3330000D02*
X6540370Y3360370D01*
X6370000Y3219567D02*
Y3310000D01*
X5775000Y2582732D02*
X5895000Y2462732D01*
X6320000Y3169567D02*
X6370000Y3219567D01*
X2140000Y2550000D02*
X5080000D01*
X5120000Y2200000D02*
Y2510000D01*
X5080000Y2550000D02*
X5120000Y2510000D01*
X2240000Y2500000D02*
X4460000D01*
X5815000Y2610000D02*
Y3010000D01*
Y2610000D02*
X5945000Y2480000D01*
Y2437520D02*
Y2480000D01*
X4500000Y2200000D02*
Y2460000D01*
X4460000Y2500000D02*
X4500000Y2460000D01*
X1750000Y4900000D02*
X1780000D01*
X1180000D02*
X1750000D01*
X1830000Y4950000D02*
X2060000D01*
X2117787Y4597787D02*
Y4892213D01*
X2060000Y4950000D02*
X2117787Y4892213D01*
X1780000Y4900000D02*
X1830000Y4950000D01*
X1080000Y4900000D02*
X1180000D01*
X1925323Y3949811D02*
X1925512Y3950000D01*
X1925000Y3905000D02*
X1925323Y3905323D01*
Y3949811D01*
X1891378Y4659803D02*
X1892756Y4658425D01*
X1891378Y4659803D02*
Y4858622D01*
X1890000Y4860000D02*
X1891378Y4858622D01*
X5738031Y2000000D02*
X5740630Y2002599D01*
X3642000Y1308000D02*
X3710000Y1240000D01*
X3310000D02*
Y1290000D01*
X3360000Y1340000D02*
X3590000D01*
X3608000Y1358000D01*
Y2008000D01*
X3310000Y1290000D02*
X3360000Y1340000D01*
X3642000Y1308000D02*
Y1500000D01*
X3608000Y2008000D02*
X3650000Y2050000D01*
X3740000Y1650000D02*
X3990000D01*
X4040000Y1600000D01*
X3446000Y1900000D02*
X3540000D01*
X3446000Y1800000D02*
X3540000D01*
X3480000Y2040000D02*
X3540000Y2100000D01*
X3410000Y1380000D02*
Y1660000D01*
X3250000Y1700000D02*
X3540000D01*
X3410000Y1740000D02*
Y1970000D01*
X3210000Y1660000D02*
X3250000Y1700000D01*
X3210000Y1240000D02*
Y1660000D01*
X3234000Y1734000D02*
X3340000D01*
X3210000Y1140000D02*
Y1240000D01*
X3340000Y1734000D02*
X3370000Y1764000D01*
Y1900000D01*
X3410000Y1970000D02*
X3440000Y2000000D01*
X3540000D01*
X3740000Y1450000D02*
X3810000Y1380000D01*
Y1240000D02*
Y1380000D01*
X4040000Y1100000D02*
Y1600000D01*
X3970000Y1030000D02*
X4040000Y1100000D01*
X3740000Y1550000D02*
X3930000D01*
X3610000Y1140000D02*
X3720000Y1030000D01*
X3970000D01*
X3650000Y2050000D02*
X3740000D01*
X6354556Y2865000D02*
X6590000D01*
Y2435000D02*
Y2865000D01*
X5975000Y2345000D02*
X6020000D01*
X5995189Y2437709D02*
Y2485376D01*
X6091370Y2596370D02*
X6218630D01*
X6030000Y2535000D02*
X6091370Y2596370D01*
X6418425Y3240433D02*
Y3252244D01*
X6320000Y3157756D02*
Y3169567D01*
X6221575Y3240433D02*
X6270000Y3192008D01*
X6221575Y3240433D02*
Y3252244D01*
X6240000Y2517677D02*
Y2575000D01*
X6030000Y2520187D02*
Y2535000D01*
X5995189Y2485376D02*
X6030000Y2520187D01*
X5995000Y2437520D02*
X5995189Y2437709D01*
X6218630Y2596370D02*
X6240000Y2575000D01*
X6150000Y2750187D02*
X6168661Y2731526D01*
X6150000Y2750187D02*
Y2765000D01*
X6168661Y2665000D02*
Y2731526D01*
X5945000Y2252480D02*
X5945189Y2252669D01*
Y2315189D01*
X6045189Y2435000D02*
X6140000D01*
X6045000Y2435189D02*
Y2437520D01*
X6140000Y2435000D02*
X6240000D01*
X5945189Y2315189D02*
X5975000Y2345000D01*
X6045000Y2435189D02*
X6045189Y2435000D01*
X6020000Y2345000D02*
X6044811Y2369811D01*
Y2437331D02*
X6045000Y2437520D01*
X6044811Y2369811D02*
Y2437331D01*
X5895000Y2858543D02*
X5895681Y2857862D01*
X5904576Y2935000D02*
X5945000Y2894576D01*
X5930000Y2765000D02*
X6150000D01*
X6045442Y2858985D02*
X6149558D01*
X6045000Y2858543D02*
X6045442Y2858985D01*
X6149558D02*
X6150000Y2859427D01*
X5945000Y2858543D02*
Y2894576D01*
X5995000Y2858543D02*
Y2894576D01*
X5895681Y2799319D02*
Y2857862D01*
Y2799319D02*
X5930000Y2765000D01*
X6340000Y2965000D02*
X6461378D01*
X6348982Y2859427D02*
X6354556Y2865000D01*
X6270000Y3035000D02*
X6340000Y2965000D01*
X6270000Y3035000D02*
Y3192008D01*
X6150000Y2859427D02*
X6348982D01*
X6045000Y2858543D02*
Y3051457D01*
X5829059Y2975000D02*
X5914576D01*
X5995000Y2894576D01*
Y3051457D02*
Y3180000D01*
X5895000Y3051457D02*
Y3109745D01*
X6045000Y2252480D02*
X6702668D01*
X6240000Y2435000D02*
X6590000D01*
X6418425Y3157756D02*
X6540000Y3036181D01*
X6418425Y3240433D02*
X6533858Y3125000D01*
X6889526Y3104526D02*
X6900000Y3115000D01*
X6839526Y3104526D02*
X6889526D01*
X6750000Y3015000D02*
X6839526Y3104526D01*
X6750000Y2915000D02*
X6839526Y2825474D01*
X6889526D01*
X6670000Y3095000D02*
Y3125000D01*
Y3095000D02*
X6750000Y3015000D01*
X6670000Y2915000D02*
X6750000D01*
X6889526Y2825474D02*
X6900000Y2815000D01*
X6842500Y3692500D02*
X6850000Y3700000D01*
X6845256Y3595256D02*
X6850000Y3600000D01*
X6845256Y3504744D02*
X6850000Y3500000D01*
X6842500Y3407500D02*
X6850000Y3400000D01*
X6590000Y3673189D02*
X6631685Y3631504D01*
X6590000Y2865000D02*
Y3208183D01*
X6631685Y3375966D02*
Y3631504D01*
X6693169Y3595256D02*
X6845256D01*
X6688425Y3590512D02*
X6693169Y3595256D01*
X6691595Y3504744D02*
X6845256D01*
X6686850Y3509488D02*
X6691595Y3504744D01*
X6533858Y3125000D02*
X6540000D01*
Y2915000D02*
Y3036181D01*
X6588425Y3497677D02*
Y3509488D01*
X6540370Y3449622D02*
X6588425Y3497677D01*
X6686850Y3415000D02*
X6694350Y3407500D01*
X6842500D01*
X6695925Y3692500D02*
X6842500D01*
X6688425Y3685000D02*
X6695925Y3692500D01*
X6590000Y3673189D02*
Y3685000D01*
X6702668Y2252480D02*
X6735187Y2285000D01*
X6750000D01*
X6839526Y2195474D01*
X6889526D01*
X6900000Y2185000D01*
X6251339Y2665000D02*
X6575941D01*
X4540000Y1840000D02*
X4579370Y1879370D01*
X4300000Y1998661D02*
X4398661D01*
X4400000Y2000000D01*
X4494724Y2081339D02*
X4498661Y2077402D01*
X4577402Y2040000D02*
X4579370D01*
X4573654Y2043748D02*
X4577402Y2040000D01*
X4573654Y2043748D02*
Y2068955D01*
X4521554Y2121055D02*
X4573654Y2068955D01*
X4579370Y1879370D02*
Y2040000D01*
X4498661Y2077402D02*
X4500630D01*
X4200000Y2081339D02*
X4205905D01*
X4300000D02*
X4494724D01*
X4245622Y2121055D02*
X4521554D01*
X4205905Y2081339D02*
X4245622Y2121055D01*
X6433654Y2043748D02*
X6437402Y2040000D01*
X6400000Y1840000D02*
X6439370Y1879370D01*
Y2040000D01*
X6433654Y2043748D02*
Y2068955D01*
X6437402Y2040000D02*
X6439370D01*
X6381554Y2121055D02*
X6433654Y2068955D01*
X6060000Y2081339D02*
X6065905D01*
X5813654Y2043748D02*
X5817402Y2040000D01*
X5813654Y2043748D02*
Y2068955D01*
X6354724Y2081339D02*
X6358661Y2077402D01*
X5817402Y2040000D02*
X5819370D01*
X6105622Y2121055D02*
X6381554D01*
X6358661Y2077402D02*
X6360630D01*
X6160000Y2081339D02*
X6354724D01*
X6065905D02*
X6105622Y2121055D01*
X5445905Y2081339D02*
X5485622Y2121055D01*
X5199370Y1879370D02*
Y2040000D01*
X5197402D02*
X5199370D01*
X5160000Y1840000D02*
X5199370Y1879370D01*
X5193654Y2043748D02*
X5197402Y2040000D01*
X5142609Y2120000D02*
X5193654Y2068955D01*
Y2043748D02*
Y2068955D01*
X4953790Y2120000D02*
X5142609D01*
X4921968Y2079370D02*
X5118661D01*
X5120630Y2077402D01*
X6160000Y1998661D02*
X6258661D01*
X6260000Y2000000D01*
X4825717Y2087055D02*
X4831622D01*
X4865622Y2121055D01*
X4920000Y1998661D02*
X5018661D01*
X4865622Y2121055D02*
X4952735D01*
X4820000Y2081339D02*
X4825717Y2087055D01*
X4920000Y2081339D02*
X4921968Y2079370D01*
X4952735Y2121055D02*
X4953790Y2120000D01*
X5018661Y1998661D02*
X5020000Y2000000D01*
X5485622Y2121055D02*
X5761554D01*
X5540000Y1998661D02*
X5638661D01*
X5738661Y2077402D02*
X5740630D01*
X5734724Y2081339D02*
X5738661Y2077402D01*
X5540000Y2081339D02*
X5734724D01*
X5440000D02*
X5445905D01*
X5638661Y1998661D02*
X5640000Y2000000D01*
X5761554Y2121055D02*
X5813654Y2068955D01*
X5780000Y1840000D02*
X5819370Y1879370D01*
Y2040000D01*
X5566221Y3800000D02*
Y3853898D01*
X6293661Y4581339D02*
X6890000D01*
X3415000Y4870000D02*
X4494331D01*
X5507165Y3800000D02*
Y3857165D01*
X2060000Y4320000D02*
Y4499055D01*
X2010000Y4270000D02*
X2060000Y4320000D01*
X2010000Y3997172D02*
Y4270000D01*
Y3997172D02*
X2056983Y3950189D01*
X2055255Y4000000D02*
X2200000D01*
X2114299Y3950189D02*
X2114488Y3950000D01*
X2056983Y3950189D02*
X2114299D01*
X2060000Y4187213D02*
X2062213Y4185000D01*
X1987244Y4560000D02*
X1999055D01*
X2060000Y4499055D01*
X1892756Y4560000D02*
X1902315D01*
X1910000Y4552315D01*
Y4530000D02*
Y4552315D01*
X1988622Y4858622D02*
X1990000Y4860000D01*
X1988622Y4659803D02*
Y4858622D01*
X1987244Y4658425D02*
X1988622Y4659803D01*
X1730000Y4560000D02*
X1735906D01*
X1777591Y4601685D02*
X1933748D01*
X1975433Y4560000D01*
X1735906D02*
X1777591Y4601685D01*
X1975433Y4560000D02*
X1987244D01*
X1810000D02*
X1892756D01*
X4151339Y3950000D02*
X4222598D01*
X4297402D02*
Y4050000D01*
X3230000Y4350000D02*
X3350000D01*
X3793339Y4483339D02*
X3960000Y4650000D01*
X4068661D01*
X4297402Y4550000D02*
Y4650000D01*
X4151339D02*
X4222598D01*
X2900000Y4100000D02*
Y4245197D01*
X3085020Y4100020D02*
X3085039Y4100000D01*
X3085020Y4100020D02*
Y4189980D01*
X3085000Y4190000D02*
X3085020Y4189980D01*
X2860000Y4000000D02*
X2900000D01*
X2830000Y3970000D02*
X2860000Y4000000D01*
X2850000Y4050000D02*
X2900000D01*
X2790000Y3990000D02*
X2850000Y4050000D01*
X3708268Y3950000D02*
X3960000D01*
X3708268Y4000000D02*
X3903411D01*
X3953411Y4050000D01*
X3960000Y3950000D02*
X4068661D01*
X3182500Y4637500D02*
X3440000Y4380000D01*
X3080000Y4600000D02*
X3145000D01*
X3080000D02*
X3085000Y4595000D01*
Y4190000D02*
Y4595000D01*
X2900000Y4320000D02*
Y4600000D01*
X2540000D02*
X2900000D01*
X3145000D02*
X3182500Y4637500D01*
X2800197Y4245197D02*
X2900000D01*
X2661913Y4100000D02*
X2720000Y4041913D01*
X3810000Y4100000D02*
X3960000Y4250000D01*
X3890000Y4380000D02*
X3960000Y4450000D01*
X3793339Y4351984D02*
Y4483339D01*
X3760189Y4150189D02*
X3960000Y4350000D01*
X3840000Y4430000D02*
X3960000Y4550000D01*
X4151339Y4250000D02*
X4222598D01*
X4151339Y4550000D02*
X4222598D01*
X4150000Y4350000D02*
X4222598D01*
X4151339Y4450000D02*
X4225197D01*
X3840000Y4348646D02*
Y4430000D01*
X3890000Y4348646D02*
Y4380000D01*
X3741354Y4200000D02*
X3890000Y4348646D01*
X3741543Y4250189D02*
X3840000Y4348646D01*
X3953411Y4050000D02*
X3960000D01*
X3860000D02*
X3960000Y4150000D01*
X3708268Y4050000D02*
X3860000D01*
X3960000Y4150000D02*
X4068661D01*
X3960000Y4050000D02*
X4068661D01*
X4297402D02*
Y4150000D01*
X3708268Y4100000D02*
X3810000D01*
X4151339Y4150000D02*
X4222598D01*
X4151339Y4050000D02*
X4222598D01*
X3960000Y4250000D02*
X4068661D01*
X3960000Y4550000D02*
X4068661D01*
X3960000Y4350000D02*
X4067323D01*
X3960000Y4450000D02*
X4068661D01*
X4297402Y4250000D02*
Y4350000D01*
Y4150000D02*
Y4250000D01*
X3708457Y4150189D02*
X3760189D01*
X3708268Y4200000D02*
X3741354D01*
X3708268Y4150000D02*
X3708457Y4150189D01*
X3741543Y4300189D02*
X3793339Y4351984D01*
X6889488Y4501850D02*
X6890000Y4501339D01*
X6793110Y4501850D02*
X6889488D01*
X5450275Y3712165D02*
X5452441Y3710000D01*
X5385118D02*
X5387087Y3711968D01*
Y3798032D02*
X5389055Y3800000D01*
X5330000Y3710000D02*
Y3800000D01*
X5387087Y3711968D02*
Y3798032D01*
X6081378Y3610000D02*
Y3692717D01*
X5981378Y3510000D02*
X6081378Y3610000D01*
X5448110Y3800000D02*
X5450275Y3797835D01*
Y3712165D02*
Y3797835D01*
X6792598Y4502362D02*
X6793110Y4501850D01*
X6081378Y3692717D02*
X6792598Y4403937D01*
X3182500Y4637500D02*
X3415000Y4870000D01*
X2830000Y3850000D02*
Y3970000D01*
X2641716Y3901109D02*
X2641828Y3901221D01*
X2720000Y3864059D02*
Y4041913D01*
X2641828Y3901221D02*
Y4025197D01*
X2790000Y3900000D02*
Y3990000D01*
X2230000Y3882571D02*
X2262571Y3850000D01*
X2230000Y3882571D02*
Y3970000D01*
X2262571Y3850000D02*
X2830000D01*
X2117787Y4100189D02*
Y4185000D01*
X2114488Y4100000D02*
X2117598D01*
X2117787Y4100189D01*
X1925512Y4000000D02*
Y4050000D01*
Y4100000D01*
X2120000Y4600000D02*
X2540000D01*
X2117787Y4185000D02*
Y4597787D01*
X2120000Y4600000D01*
X2549937Y4062661D02*
X2550000Y4062598D01*
X2641828Y4100000D02*
X2661913D01*
X2540000Y4600000D02*
X2545000Y4595000D01*
Y4205000D02*
Y4416378D01*
Y4595000D01*
X2547665Y4100000D02*
X2550000D01*
X2545000Y4205000D02*
X2547500Y4202500D01*
Y4100165D02*
Y4202500D01*
Y4100165D02*
X2547665Y4100000D01*
X2445000Y4191181D02*
Y4516378D01*
X2444055Y4080000D02*
X2451740Y4072315D01*
X2387171Y4026648D02*
X2432244Y3981575D01*
X2486720Y4025197D02*
X2550000D01*
X2451740Y4060177D02*
X2486720Y4025197D01*
X2451740Y4060177D02*
Y4072315D01*
X2432244Y4080000D02*
X2444055D01*
X2490000Y4070000D02*
X2497339Y4062661D01*
X2549937D01*
X2385941Y4026648D02*
X2387171D01*
X1925512Y3950000D02*
Y4000000D01*
X2200000D02*
X2230000Y3970000D01*
D68*
X1140000Y1173858D02*
Y1270000D01*
X1170000Y1300000D02*
X3020000D01*
X1140000Y1270000D02*
X1170000Y1300000D01*
X6421890Y1180000D02*
X6726260Y1484370D01*
X5540000Y1180000D02*
X6421890D01*
X6726260Y1484370D02*
Y1533583D01*
X6730787Y1538110D01*
X6780000D01*
X4191102Y1950000D02*
Y1989764D01*
Y1740000D02*
Y1950000D01*
X3740000D02*
X4191102D01*
X4435000Y1180000D02*
X4920000D01*
X4295000Y1320000D02*
X4435000Y1180000D01*
X4915000Y1185000D02*
X4920000Y1180000D01*
X4915000Y1185000D02*
Y1320000D01*
X4191102Y1423898D02*
Y1740000D01*
Y1423898D02*
X4295000Y1320000D01*
X4440000Y1707471D02*
X4469289Y1736761D01*
X4540000Y1635419D02*
Y1640000D01*
X4440000Y1425000D02*
Y1707471D01*
Y1425000D02*
X4545000Y1320000D01*
X5535000Y1185000D02*
X5540000Y1180000D01*
X5535000Y1185000D02*
Y1320000D01*
X4920000Y1180000D02*
X5540000D01*
X6155000Y1185000D02*
Y1320000D01*
X4536761Y1736761D02*
X4540000Y1740000D01*
X4469289Y1736761D02*
X4536761D01*
X4191102Y1989764D02*
X4200000Y1998661D01*
X5431102Y1740000D02*
Y1989764D01*
X5776761Y1736761D02*
X5780000Y1740000D01*
X5431102Y1989764D02*
X5440000Y1998661D01*
X4811102Y1989764D02*
X4820000Y1998661D01*
X4811102Y1423898D02*
Y1740000D01*
Y1989764D01*
Y1423898D02*
X4915000Y1320000D01*
X5094289Y1740000D02*
X5160000D01*
X5065000Y1420000D02*
Y1710711D01*
X5094289Y1740000D01*
X5065000Y1420000D02*
X5165000Y1320000D01*
X6051102Y1989764D02*
X6060000Y1998661D01*
X6051102Y1740000D02*
Y1989764D01*
X5680000Y1425000D02*
Y1707471D01*
X5431102Y1423898D02*
X5535000Y1320000D01*
X5431102Y1423898D02*
Y1740000D01*
X5680000Y1425000D02*
X5785000Y1320000D01*
X5680000Y1707471D02*
X5709289Y1736761D01*
X5776761D01*
X6051102Y1423898D02*
Y1740000D01*
X6300000Y1430646D02*
X6405000Y1325646D01*
X6051102Y1423898D02*
X6155000Y1320000D01*
X6300000Y1710711D02*
X6329289Y1740000D01*
X6405000Y1320000D02*
Y1325646D01*
X6329289Y1740000D02*
X6400000D01*
X6300000Y1430646D02*
Y1710711D01*
D69*
X6792598Y4502362D02*
D03*
Y4403937D02*
D03*
X6405000Y1320000D02*
D03*
X4545000D02*
D03*
X5785000D02*
D03*
X5165000D02*
D03*
D70*
X5743386Y3800000D02*
D03*
D71*
X5684331D02*
D03*
X5625276D02*
D03*
X5566221D02*
D03*
X5330000D02*
D03*
X5389055D02*
D03*
X5448110D02*
D03*
X5507165D02*
D03*
D72*
X3540000Y1400000D02*
D03*
X3740000Y1450000D02*
D03*
X3540000Y1500000D02*
D03*
X3740000Y1550000D02*
D03*
X3540000Y1600000D02*
D03*
X3740000Y1650000D02*
D03*
X3540000Y1700000D02*
D03*
X3740000Y1750000D02*
D03*
X3540000Y1800000D02*
D03*
X3740000Y1850000D02*
D03*
X3540000Y1900000D02*
D03*
X3740000Y1950000D02*
D03*
X3540000Y2000000D02*
D03*
X3740000Y2050000D02*
D03*
D73*
X3540000Y2100000D02*
D03*
D74*
X1440000Y2330000D02*
D03*
X1540000D02*
D03*
X1640000D02*
D03*
X1740000D02*
D03*
X1840000D02*
D03*
X1940000D02*
D03*
X2040000D02*
D03*
X2140000D02*
D03*
X2240000D02*
D03*
X2340000D02*
D03*
X2440000D02*
D03*
X2540000D02*
D03*
X2640000D02*
D03*
X2740000D02*
D03*
X2840000D02*
D03*
X2940000D02*
D03*
X1140000D02*
D03*
X1240000D02*
D03*
X1340000D02*
D03*
Y1173858D02*
D03*
X1240000D02*
D03*
X1140000D02*
D03*
X2940000D02*
D03*
X2840000D02*
D03*
X2740000D02*
D03*
X2640000D02*
D03*
X2540000D02*
D03*
X2440000D02*
D03*
X2340000D02*
D03*
X2240000D02*
D03*
X2140000D02*
D03*
X2040000D02*
D03*
X1940000D02*
D03*
X1840000D02*
D03*
X1740000D02*
D03*
X1640000D02*
D03*
X1540000D02*
D03*
X1440000D02*
D03*
D75*
Y2383150D02*
D03*
X1540000D02*
D03*
X1640000D02*
D03*
X1740000D02*
D03*
X1840000D02*
D03*
X1940000D02*
D03*
X2040000D02*
D03*
X2140000D02*
D03*
X2240000D02*
D03*
X2340000D02*
D03*
X2440000D02*
D03*
X2540000D02*
D03*
X2640000D02*
D03*
X2740000D02*
D03*
X2840000D02*
D03*
X2940000D02*
D03*
X1140000D02*
D03*
X1240000D02*
D03*
X1340000D02*
D03*
Y1120709D02*
D03*
X1240000D02*
D03*
X1140000D02*
D03*
X2940000D02*
D03*
X2840000D02*
D03*
X2740000D02*
D03*
X2640000D02*
D03*
X2540000D02*
D03*
X2440000D02*
D03*
X2340000D02*
D03*
X2240000D02*
D03*
X2140000D02*
D03*
X2040000D02*
D03*
X1940000D02*
D03*
X1840000D02*
D03*
X1740000D02*
D03*
X1640000D02*
D03*
X1540000D02*
D03*
X1440000D02*
D03*
D76*
X3910000Y1240000D02*
D03*
X3810000D02*
D03*
X3710000D02*
D03*
X3610000D02*
D03*
X3510000D02*
D03*
X3410000D02*
D03*
X3310000D02*
D03*
X3210000D02*
D03*
X3910000Y1140000D02*
D03*
X3810000D02*
D03*
X3710000D02*
D03*
X3610000D02*
D03*
X3510000D02*
D03*
X3410000D02*
D03*
X3310000D02*
D03*
X3210000D02*
D03*
X6900000Y2815000D02*
D03*
X6750000Y3015000D02*
D03*
Y2915000D02*
D03*
X6900000Y3115000D02*
D03*
Y2485000D02*
D03*
Y2185000D02*
D03*
X6250000Y2765000D02*
D03*
X6150000D02*
D03*
X6030000Y2535000D02*
D03*
X6130000D02*
D03*
X6750000Y2285000D02*
D03*
Y2385000D02*
D03*
X6850000Y3400000D02*
D03*
Y3500000D02*
D03*
Y3600000D02*
D03*
Y3700000D02*
D03*
X6540000Y2140000D02*
D03*
Y2040000D02*
D03*
X5740000Y2200000D02*
D03*
X5640000D02*
D03*
X5120000D02*
D03*
X5020000D02*
D03*
X4500000D02*
D03*
X4400000D02*
D03*
X2530000Y4860000D02*
D03*
X3960000Y4250000D02*
D03*
Y4650000D02*
D03*
Y4550000D02*
D03*
Y4450000D02*
D03*
Y4350000D02*
D03*
Y4150000D02*
D03*
Y4050000D02*
D03*
Y3950000D02*
D03*
X5170000Y3520000D02*
D03*
X2805000Y4720000D02*
D03*
X2905000D02*
D03*
X3005000D02*
D03*
X3105000D02*
D03*
X2805000Y4860000D02*
D03*
X3105000D02*
D03*
X2400000Y4720000D02*
D03*
X2500000D02*
D03*
X2360000Y4860000D02*
D03*
X2955000Y4865000D02*
D03*
X1890000Y4860000D02*
D03*
X1990000D02*
D03*
D77*
X1180000Y4000000D02*
D03*
Y4100000D02*
D03*
Y4200000D02*
D03*
Y4300000D02*
D03*
Y4400000D02*
D03*
Y4500000D02*
D03*
Y4600000D02*
D03*
Y4700000D02*
D03*
Y4800000D02*
D03*
Y4900000D02*
D03*
X1080000D02*
D03*
Y4800000D02*
D03*
Y4700000D02*
D03*
Y4600000D02*
D03*
Y4500000D02*
D03*
Y4400000D02*
D03*
Y4300000D02*
D03*
Y4200000D02*
D03*
Y4100000D02*
D03*
Y4000000D02*
D03*
X1180000Y2880000D02*
D03*
Y2980000D02*
D03*
Y3080000D02*
D03*
Y3180000D02*
D03*
Y3280000D02*
D03*
Y3380000D02*
D03*
Y3480000D02*
D03*
Y3580000D02*
D03*
Y3680000D02*
D03*
Y3780000D02*
D03*
X1080000D02*
D03*
Y3680000D02*
D03*
Y3580000D02*
D03*
Y3480000D02*
D03*
Y3380000D02*
D03*
Y3280000D02*
D03*
Y3180000D02*
D03*
Y3080000D02*
D03*
Y2980000D02*
D03*
Y2880000D02*
D03*
D78*
X6155000Y1320000D02*
D03*
X4295000D02*
D03*
X5535000D02*
D03*
X4915000D02*
D03*
D79*
X6361378Y2865000D02*
D03*
X6461378Y2965000D02*
D03*
X5981378Y3510000D02*
D03*
X6081378Y3610000D02*
D03*
X2545000Y4416378D02*
D03*
X2445000Y4516378D02*
D03*
D80*
X6361378Y3065000D02*
D03*
X5981378Y3710000D02*
D03*
D81*
X5160000Y1840000D02*
D03*
X5780000D02*
D03*
X6400000D02*
D03*
X4540000D02*
D03*
D82*
X5160000Y1740000D02*
D03*
Y1640000D02*
D03*
X5780000Y1740000D02*
D03*
Y1640000D02*
D03*
X6400000Y1740000D02*
D03*
Y1640000D02*
D03*
X4540000Y1740000D02*
D03*
Y1640000D02*
D03*
D83*
X5568898Y1740000D02*
D03*
X5431102D02*
D03*
X6188898D02*
D03*
X6051102D02*
D03*
X4328898D02*
D03*
X4191102D02*
D03*
X4948898D02*
D03*
X4811102D02*
D03*
D84*
X6780000Y1538110D02*
D03*
D85*
Y1301890D02*
D03*
D86*
X6965039Y1420000D02*
D03*
D87*
X2345000Y4416378D02*
D03*
D88*
X3600000Y4760000D02*
D03*
X3140000Y3800000D02*
D03*
X3224000Y3904000D02*
D03*
X3440000Y4080000D02*
D03*
X2441152Y3712950D02*
D03*
X5995000Y2180000D02*
D03*
X5895000D02*
D03*
X2190000Y4050000D02*
D03*
X3270000Y3950000D02*
D03*
Y4150000D02*
D03*
Y4200000D02*
D03*
Y4250000D02*
D03*
X3150000Y4550000D02*
D03*
X2900000Y3900000D02*
D03*
X3050000Y4280000D02*
D03*
X6220000Y3090000D02*
D03*
X6150000Y2970000D02*
D03*
X2800000Y4120000D02*
D03*
X6540000Y3630000D02*
D03*
X6310000Y1990000D02*
D03*
X5690000Y2000000D02*
D03*
X5066596Y2002510D02*
D03*
X4449107Y2002775D02*
D03*
X6140000Y2330000D02*
D03*
X3600000Y4460000D02*
D03*
X2980000Y4190000D02*
D03*
X2647033Y4202967D02*
D03*
X2060000Y4240000D02*
D03*
X1440000Y3790000D02*
D03*
X1840000Y3770000D02*
D03*
X2990000Y4050000D02*
D03*
X3910000Y1440000D02*
D03*
X2640000Y2850000D02*
D03*
X5840000Y3440000D02*
D03*
X5880000Y3400000D02*
D03*
X6340000Y3590512D02*
D03*
Y3650000D02*
D03*
X2690000Y2800000D02*
D03*
X2190000Y2750000D02*
D03*
X2290000Y2700000D02*
D03*
X6586786Y3344971D02*
D03*
X6590000Y3210000D02*
D03*
X1840000Y2650000D02*
D03*
X2140000Y2550000D02*
D03*
X1940000Y2600000D02*
D03*
X2240000Y2500000D02*
D03*
X2940000Y3110000D02*
D03*
X2640000Y2960000D02*
D03*
X2840000Y3010000D02*
D03*
X5700000Y2650000D02*
D03*
X2640000Y2150000D02*
D03*
X2590000D02*
D03*
X2740000Y2000000D02*
D03*
X2490000D02*
D03*
X2840000Y2050000D02*
D03*
X2540000Y2150000D02*
D03*
X2190000D02*
D03*
X2140000D02*
D03*
X1990000D02*
D03*
X1940000D02*
D03*
X1690000D02*
D03*
X2390000Y2050000D02*
D03*
X2690000Y2100000D02*
D03*
X2240000D02*
D03*
X1540000Y2120000D02*
D03*
X1740000Y2100000D02*
D03*
X1890000D02*
D03*
X2690000Y2230000D02*
D03*
Y3080000D02*
D03*
X2590000Y3560000D02*
D03*
X2490000Y2230000D02*
D03*
Y3480000D02*
D03*
X2390000Y3360000D02*
D03*
X2290000Y3260000D02*
D03*
X2190000Y3160000D02*
D03*
X2040000Y3210000D02*
D03*
X1750000Y4900000D02*
D03*
Y4660000D02*
D03*
X1640000Y4290000D02*
D03*
X1925000Y3905000D02*
D03*
X1940000Y3630000D02*
D03*
X1820000Y4790000D02*
D03*
Y4750000D02*
D03*
X1540000Y3630000D02*
D03*
Y4630000D02*
D03*
X1690000Y4130000D02*
D03*
X1640000Y4430000D02*
D03*
X5150000Y3850000D02*
D03*
X1340000Y2120000D02*
D03*
X1650000Y4800000D02*
D03*
Y4700000D02*
D03*
Y4600000D02*
D03*
Y4500000D02*
D03*
X1590000Y2230000D02*
D03*
Y4380000D02*
D03*
X1490000Y2230000D02*
D03*
Y4250000D02*
D03*
X1240000Y4230000D02*
D03*
X1440000Y3610000D02*
D03*
X1390000Y2230000D02*
D03*
Y4180000D02*
D03*
X1290000Y4080000D02*
D03*
X1440000Y4530000D02*
D03*
X1340000Y4330000D02*
D03*
X3642000Y1500000D02*
D03*
X3446000Y1800000D02*
D03*
Y1900000D02*
D03*
X3480000Y2040000D02*
D03*
X3410000Y1380000D02*
D03*
Y1660000D02*
D03*
Y1740000D02*
D03*
X3330000Y1800000D02*
D03*
X3370000Y1900000D02*
D03*
X1540000Y3410000D02*
D03*
X2340000Y3310000D02*
D03*
X2540000Y3510000D02*
D03*
X2740000Y3610000D02*
D03*
X6670000Y3125000D02*
D03*
X6540000Y2915000D02*
D03*
X6670000D02*
D03*
X6540000Y3125000D02*
D03*
X5904576Y2935000D02*
D03*
X6630000Y2765000D02*
D03*
Y2535000D02*
D03*
X5895000Y3109745D02*
D03*
X5815000Y3010000D02*
D03*
X5020000Y2000000D02*
D03*
X6260000D02*
D03*
X5640000D02*
D03*
X4400000D02*
D03*
X6149794Y4436884D02*
D03*
X2055255Y4000000D02*
D03*
X1910000Y4530000D02*
D03*
X5220000Y3800000D02*
D03*
X2490000Y4070000D02*
D03*
X2385941Y4026648D02*
D03*
X2640000Y3800000D02*
D03*
X2790000D02*
D03*
Y3900000D02*
D03*
X2641716Y3901109D02*
D03*
D89*
X3020000Y1300000D02*
D03*
M02*
