G04*
G04 #@! TF.GenerationSoftware,Altium Limited,Altium Designer,23.4.1 (23)*
G04*
G04 Layer_Color=8388736*
%FSLAX26Y26*%
%MOIN*%
G70*
G04*
G04 #@! TF.SameCoordinates,7CE1F54E-F9D9-4D57-B496-837467B0791C*
G04*
G04*
G04 #@! TF.FilePolarity,Negative*
G04*
G01*
G75*
%ADD19R,0.039370X0.062992*%
%ADD23R,0.047244X0.035433*%
%ADD24R,0.035433X0.047244*%
%ADD25R,0.053394X0.043490*%
%ADD27R,0.035433X0.043307*%
%ADD29R,0.062992X0.039370*%
%ADD30R,0.043490X0.053394*%
G04:AMPARAMS|DCode=32|XSize=64.499mil|YSize=24.329mil|CornerRadius=12.165mil|HoleSize=0mil|Usage=FLASHONLY|Rotation=0.000|XOffset=0mil|YOffset=0mil|HoleType=Round|Shape=RoundedRectangle|*
%AMROUNDEDRECTD32*
21,1,0.064499,0.000000,0,0,0.0*
21,1,0.040170,0.024329,0,0,0.0*
1,1,0.024329,0.020085,0.000000*
1,1,0.024329,-0.020085,0.000000*
1,1,0.024329,-0.020085,0.000000*
1,1,0.024329,0.020085,0.000000*
%
%ADD32ROUNDEDRECTD32*%
%ADD33R,0.064499X0.024329*%
%ADD37O,0.098551X0.031622*%
%ADD38O,0.035559X0.106425*%
%ADD39O,0.031622X0.082803*%
%ADD40R,0.043433X0.039496*%
%ADD41R,0.051307X0.061150*%
%ADD42O,0.082803X0.031622*%
%ADD43R,0.063118X0.055244*%
%ADD44O,0.094614X0.031622*%
%ADD45R,0.078866X0.031622*%
%ADD46C,0.078866*%
%ADD47R,0.055244X0.055244*%
%ADD48C,0.055244*%
%ADD49C,0.067055*%
%ADD50R,0.067055X0.067055*%
%ADD51O,0.045402X0.086740*%
%ADD52R,0.043433X0.067055*%
%ADD53C,0.086740*%
%ADD54C,0.068000*%
%ADD55R,0.078866X0.078866*%
%ADD56C,0.057213*%
%ADD57R,0.057213X0.057213*%
%ADD58R,0.074929X0.074929*%
%ADD59C,0.074929*%
%ADD60C,0.063118*%
%ADD61R,0.165480X0.067055*%
%ADD62R,0.145795X0.067055*%
%ADD63R,0.067055X0.145795*%
%ADD64R,0.057213X0.057213*%
%ADD65C,0.028000*%
%ADD66C,0.058000*%
D19*
X3501575Y4602756D02*
D03*
X3600000D02*
D03*
X3698425D02*
D03*
X3501575Y4697244D02*
D03*
X3600000D02*
D03*
X3698425D02*
D03*
X6418425Y3252244D02*
D03*
X6320000D02*
D03*
X6221575D02*
D03*
X6418425Y3157756D02*
D03*
X6320000D02*
D03*
X6221575D02*
D03*
X6491575Y3590512D02*
D03*
X6590000D02*
D03*
X6688425D02*
D03*
X6491575Y3685000D02*
D03*
X6590000D02*
D03*
X6688425D02*
D03*
X6490000Y3415000D02*
D03*
X6588425D02*
D03*
X6686850D02*
D03*
X6490000Y3509488D02*
D03*
X6588425D02*
D03*
X6686850D02*
D03*
X5401575Y3430000D02*
D03*
X5500000D02*
D03*
X5598425D02*
D03*
X5401575Y3524488D02*
D03*
X5500000D02*
D03*
X5598425D02*
D03*
D23*
X6240000Y2517677D02*
D03*
Y2435000D02*
D03*
X6160000Y1998661D02*
D03*
Y2081339D02*
D03*
X6060000Y1998661D02*
D03*
Y2081339D02*
D03*
X5540000Y1998661D02*
D03*
Y2081339D02*
D03*
X5440000Y1998661D02*
D03*
Y2081339D02*
D03*
X4200000Y1998661D02*
D03*
Y2081339D02*
D03*
X4300000Y1998661D02*
D03*
Y2081339D02*
D03*
X4820000Y1998661D02*
D03*
Y2081339D02*
D03*
X4920000Y1998661D02*
D03*
Y2081339D02*
D03*
X6890000Y4498661D02*
D03*
Y4581339D02*
D03*
X1810000Y4560000D02*
D03*
Y4477323D02*
D03*
X1730000Y4560000D02*
D03*
Y4477323D02*
D03*
D24*
X6168661Y2665000D02*
D03*
X6251339D02*
D03*
X4151339Y3950000D02*
D03*
X4068661D02*
D03*
X4151339Y4050000D02*
D03*
X4068661D02*
D03*
X4151339Y4550000D02*
D03*
X4068661D02*
D03*
X4151339Y4650000D02*
D03*
X4068661D02*
D03*
X4151339Y4450000D02*
D03*
X4068661D02*
D03*
X4150000Y4350000D02*
D03*
X4067323D02*
D03*
X4151339Y4150000D02*
D03*
X4068661D02*
D03*
X4151339Y4250000D02*
D03*
X4068661D02*
D03*
D25*
X6140000Y2435000D02*
D03*
Y2379427D02*
D03*
X6150000Y2859427D02*
D03*
Y2915000D02*
D03*
D27*
X4300000Y4450000D02*
D03*
X4225197D02*
D03*
X4297402Y3950000D02*
D03*
X4222598D02*
D03*
X4297402Y4050000D02*
D03*
X4222598D02*
D03*
X4297402Y4550000D02*
D03*
X4222598D02*
D03*
X4297402Y4350000D02*
D03*
X4222598D02*
D03*
X4297402Y4150000D02*
D03*
X4222598D02*
D03*
X4297402Y4650000D02*
D03*
X4222598D02*
D03*
X4297402Y4250000D02*
D03*
X4222598D02*
D03*
D29*
X2432244Y3981575D02*
D03*
Y4080000D02*
D03*
Y4178425D02*
D03*
X2337756Y3981575D02*
D03*
Y4080000D02*
D03*
Y4178425D02*
D03*
X1892756Y4658425D02*
D03*
Y4560000D02*
D03*
Y4461575D02*
D03*
X1987244Y4658425D02*
D03*
Y4560000D02*
D03*
Y4461575D02*
D03*
D30*
X2545000Y4205000D02*
D03*
X2600573D02*
D03*
X2117787Y4185000D02*
D03*
X2062213D02*
D03*
X3085000Y4190000D02*
D03*
X3029427D02*
D03*
X3707787Y4460000D02*
D03*
X3652213D02*
D03*
D32*
X2641828Y4100000D02*
D03*
Y4025197D02*
D03*
X2550000D02*
D03*
Y4062598D02*
D03*
D33*
Y4100000D02*
D03*
D37*
X3708268Y3950000D02*
D03*
Y4000000D02*
D03*
Y4050000D02*
D03*
Y4100000D02*
D03*
Y4150000D02*
D03*
Y4200000D02*
D03*
Y4250000D02*
D03*
Y4300000D02*
D03*
Y4350000D02*
D03*
X3350000Y3950000D02*
D03*
Y4000000D02*
D03*
Y4050000D02*
D03*
Y4100000D02*
D03*
Y4150000D02*
D03*
Y4200000D02*
D03*
Y4250000D02*
D03*
Y4300000D02*
D03*
Y4350000D02*
D03*
D38*
X5895000Y2858543D02*
D03*
X5945000D02*
D03*
X5995000D02*
D03*
X6045000D02*
D03*
X5895000Y3051457D02*
D03*
X5945000D02*
D03*
X5995000D02*
D03*
X6045000D02*
D03*
D39*
Y2437520D02*
D03*
X5995000D02*
D03*
X5945000D02*
D03*
X5895000D02*
D03*
X6045000Y2252480D02*
D03*
X5995000D02*
D03*
X5945000D02*
D03*
X5895000D02*
D03*
D40*
X6439370Y2040000D02*
D03*
X6360630Y2002599D02*
D03*
Y2077402D02*
D03*
X5819370Y2040000D02*
D03*
X5740630Y2002599D02*
D03*
Y2077402D02*
D03*
X5199370Y2040000D02*
D03*
X5120630Y2002599D02*
D03*
Y2077402D02*
D03*
X4579370Y2040000D02*
D03*
X4500630Y2002599D02*
D03*
Y2077402D02*
D03*
D41*
X5330000Y3710000D02*
D03*
X5385118D02*
D03*
X5452441D02*
D03*
X5507559D02*
D03*
D42*
X3085039Y3950000D02*
D03*
Y4000000D02*
D03*
Y4050000D02*
D03*
Y4100000D02*
D03*
X2900000Y3950000D02*
D03*
Y4000000D02*
D03*
Y4050000D02*
D03*
Y4100000D02*
D03*
D43*
X2800000Y4245000D02*
D03*
Y4178071D02*
D03*
D44*
X2114488Y3950000D02*
D03*
Y4000000D02*
D03*
Y4050000D02*
D03*
Y4100000D02*
D03*
X1925512Y3950000D02*
D03*
Y4000000D02*
D03*
Y4050000D02*
D03*
Y4100000D02*
D03*
D45*
X2900000Y4320000D02*
D03*
Y4245197D02*
D03*
X2978740Y4282598D02*
D03*
D46*
X6792598Y4502362D02*
D03*
Y4403937D02*
D03*
X6405000Y1320000D02*
D03*
X4545000D02*
D03*
X5785000D02*
D03*
X5165000D02*
D03*
D47*
X5743386Y3800000D02*
D03*
D48*
X5684331D02*
D03*
X5625276D02*
D03*
X5566221D02*
D03*
X5330000D02*
D03*
X5389055D02*
D03*
X5448110D02*
D03*
X5507165D02*
D03*
D49*
X3540000Y1400000D02*
D03*
X3740000Y1450000D02*
D03*
X3540000Y1500000D02*
D03*
X3740000Y1550000D02*
D03*
X3540000Y1600000D02*
D03*
X3740000Y1650000D02*
D03*
X3540000Y1700000D02*
D03*
X3740000Y1750000D02*
D03*
X3540000Y1800000D02*
D03*
X3740000Y1850000D02*
D03*
X3540000Y1900000D02*
D03*
X3740000Y1950000D02*
D03*
X3540000Y2000000D02*
D03*
X3740000Y2050000D02*
D03*
D50*
X3540000Y2100000D02*
D03*
D51*
X1440000Y2330000D02*
D03*
X1540000D02*
D03*
X1640000D02*
D03*
X1740000D02*
D03*
X1840000D02*
D03*
X1940000D02*
D03*
X2040000D02*
D03*
X2140000D02*
D03*
X2240000D02*
D03*
X2340000D02*
D03*
X2440000D02*
D03*
X2540000D02*
D03*
X2640000D02*
D03*
X2740000D02*
D03*
X2840000D02*
D03*
X2940000D02*
D03*
X1140000D02*
D03*
X1240000D02*
D03*
X1340000D02*
D03*
Y1173858D02*
D03*
X1240000D02*
D03*
X1140000D02*
D03*
X2940000D02*
D03*
X2840000D02*
D03*
X2740000D02*
D03*
X2640000D02*
D03*
X2540000D02*
D03*
X2440000D02*
D03*
X2340000D02*
D03*
X2240000D02*
D03*
X2140000D02*
D03*
X2040000D02*
D03*
X1940000D02*
D03*
X1840000D02*
D03*
X1740000D02*
D03*
X1640000D02*
D03*
X1540000D02*
D03*
X1440000D02*
D03*
D52*
Y2383150D02*
D03*
X1540000D02*
D03*
X1640000D02*
D03*
X1740000D02*
D03*
X1840000D02*
D03*
X1940000D02*
D03*
X2040000D02*
D03*
X2140000D02*
D03*
X2240000D02*
D03*
X2340000D02*
D03*
X2440000D02*
D03*
X2540000D02*
D03*
X2640000D02*
D03*
X2740000D02*
D03*
X2840000D02*
D03*
X2940000D02*
D03*
X1140000D02*
D03*
X1240000D02*
D03*
X1340000D02*
D03*
Y1120709D02*
D03*
X1240000D02*
D03*
X1140000D02*
D03*
X2940000D02*
D03*
X2840000D02*
D03*
X2740000D02*
D03*
X2640000D02*
D03*
X2540000D02*
D03*
X2440000D02*
D03*
X2340000D02*
D03*
X2240000D02*
D03*
X2140000D02*
D03*
X2040000D02*
D03*
X1940000D02*
D03*
X1840000D02*
D03*
X1740000D02*
D03*
X1640000D02*
D03*
X1540000D02*
D03*
X1440000D02*
D03*
D53*
X3910000Y1240000D02*
D03*
X3810000D02*
D03*
X3710000D02*
D03*
X3610000D02*
D03*
X3510000D02*
D03*
X3410000D02*
D03*
X3310000D02*
D03*
X3210000D02*
D03*
X3910000Y1140000D02*
D03*
X3810000D02*
D03*
X3710000D02*
D03*
X3610000D02*
D03*
X3510000D02*
D03*
X3410000D02*
D03*
X3310000D02*
D03*
X3210000D02*
D03*
X6900000Y2815000D02*
D03*
X6750000Y3015000D02*
D03*
Y2915000D02*
D03*
X6900000Y3115000D02*
D03*
Y2485000D02*
D03*
Y2185000D02*
D03*
X6250000Y2765000D02*
D03*
X6150000D02*
D03*
X6030000Y2535000D02*
D03*
X6130000D02*
D03*
X6750000Y2285000D02*
D03*
Y2385000D02*
D03*
X6850000Y3400000D02*
D03*
Y3500000D02*
D03*
Y3600000D02*
D03*
Y3700000D02*
D03*
X6540000Y2140000D02*
D03*
Y2040000D02*
D03*
X5740000Y2200000D02*
D03*
X5640000D02*
D03*
X5120000D02*
D03*
X5020000D02*
D03*
X4500000D02*
D03*
X4400000D02*
D03*
X2530000Y4860000D02*
D03*
X3960000Y4250000D02*
D03*
Y4650000D02*
D03*
Y4550000D02*
D03*
Y4450000D02*
D03*
Y4350000D02*
D03*
Y4150000D02*
D03*
Y4050000D02*
D03*
Y3950000D02*
D03*
X5170000Y3520000D02*
D03*
X2805000Y4720000D02*
D03*
X2905000D02*
D03*
X3005000D02*
D03*
X3105000D02*
D03*
X2805000Y4860000D02*
D03*
X3105000D02*
D03*
X2400000Y4720000D02*
D03*
X2500000D02*
D03*
X2360000Y4860000D02*
D03*
X2955000Y4865000D02*
D03*
X1890000Y4860000D02*
D03*
X1990000D02*
D03*
D54*
X1180000Y4000000D02*
D03*
Y4100000D02*
D03*
Y4200000D02*
D03*
Y4300000D02*
D03*
Y4400000D02*
D03*
Y4500000D02*
D03*
Y4600000D02*
D03*
Y4700000D02*
D03*
Y4800000D02*
D03*
Y4900000D02*
D03*
X1080000D02*
D03*
Y4800000D02*
D03*
Y4700000D02*
D03*
Y4600000D02*
D03*
Y4500000D02*
D03*
Y4400000D02*
D03*
Y4300000D02*
D03*
Y4200000D02*
D03*
Y4100000D02*
D03*
Y4000000D02*
D03*
X1180000Y2880000D02*
D03*
Y2980000D02*
D03*
Y3080000D02*
D03*
Y3180000D02*
D03*
Y3280000D02*
D03*
Y3380000D02*
D03*
Y3480000D02*
D03*
Y3580000D02*
D03*
Y3680000D02*
D03*
Y3780000D02*
D03*
X1080000D02*
D03*
Y3680000D02*
D03*
Y3580000D02*
D03*
Y3480000D02*
D03*
Y3380000D02*
D03*
Y3280000D02*
D03*
Y3180000D02*
D03*
Y3080000D02*
D03*
Y2980000D02*
D03*
Y2880000D02*
D03*
D55*
X6155000Y1320000D02*
D03*
X4295000D02*
D03*
X5535000D02*
D03*
X4915000D02*
D03*
D56*
X6361378Y2865000D02*
D03*
X6461378Y2965000D02*
D03*
X5981378Y3510000D02*
D03*
X6081378Y3610000D02*
D03*
X2545000Y4416378D02*
D03*
X2445000Y4516378D02*
D03*
D57*
X6361378Y3065000D02*
D03*
X5981378Y3710000D02*
D03*
D58*
X5160000Y1840000D02*
D03*
X5780000D02*
D03*
X6400000D02*
D03*
X4540000D02*
D03*
D59*
X5160000Y1740000D02*
D03*
Y1640000D02*
D03*
X5780000Y1740000D02*
D03*
Y1640000D02*
D03*
X6400000Y1740000D02*
D03*
Y1640000D02*
D03*
X4540000Y1740000D02*
D03*
Y1640000D02*
D03*
D60*
X5568898Y1740000D02*
D03*
X5431102D02*
D03*
X6188898D02*
D03*
X6051102D02*
D03*
X4328898D02*
D03*
X4191102D02*
D03*
X4948898D02*
D03*
X4811102D02*
D03*
D61*
X6780000Y1538110D02*
D03*
D62*
Y1301890D02*
D03*
D63*
X6965039Y1420000D02*
D03*
D64*
X2345000Y4416378D02*
D03*
D65*
X3600000Y4760000D02*
D03*
X3140000Y3800000D02*
D03*
X3224000Y3904000D02*
D03*
X3440000Y4080000D02*
D03*
X2441152Y3712950D02*
D03*
X5995000Y2180000D02*
D03*
X5895000D02*
D03*
X2190000Y4050000D02*
D03*
X3270000Y3950000D02*
D03*
Y4150000D02*
D03*
Y4200000D02*
D03*
Y4250000D02*
D03*
X3150000Y4550000D02*
D03*
X2900000Y3900000D02*
D03*
X3050000Y4280000D02*
D03*
X6220000Y3090000D02*
D03*
X6150000Y2970000D02*
D03*
X2800000Y4120000D02*
D03*
X6540000Y3630000D02*
D03*
X6310000Y1990000D02*
D03*
X5690000Y2000000D02*
D03*
X5066596Y2002510D02*
D03*
X4449107Y2002775D02*
D03*
X6140000Y2330000D02*
D03*
X3600000Y4460000D02*
D03*
X2980000Y4190000D02*
D03*
X2647033Y4202967D02*
D03*
X2060000Y4240000D02*
D03*
X1440000Y3790000D02*
D03*
X1840000Y3770000D02*
D03*
X2990000Y4050000D02*
D03*
X3910000Y1440000D02*
D03*
X2640000Y2850000D02*
D03*
X5840000Y3440000D02*
D03*
X5880000Y3400000D02*
D03*
X6340000Y3590512D02*
D03*
Y3650000D02*
D03*
X2690000Y2800000D02*
D03*
X2190000Y2750000D02*
D03*
X2290000Y2700000D02*
D03*
X6586786Y3344971D02*
D03*
X6590000Y3210000D02*
D03*
X1840000Y2650000D02*
D03*
X2140000Y2550000D02*
D03*
X1940000Y2600000D02*
D03*
X2240000Y2500000D02*
D03*
X2940000Y3110000D02*
D03*
X2640000Y2960000D02*
D03*
X2840000Y3010000D02*
D03*
X5700000Y2650000D02*
D03*
X2640000Y2150000D02*
D03*
X2590000D02*
D03*
X2740000Y2000000D02*
D03*
X2490000D02*
D03*
X2840000Y2050000D02*
D03*
X2540000Y2150000D02*
D03*
X2190000D02*
D03*
X2140000D02*
D03*
X1990000D02*
D03*
X1940000D02*
D03*
X1690000D02*
D03*
X2390000Y2050000D02*
D03*
X2690000Y2100000D02*
D03*
X2240000D02*
D03*
X1540000Y2120000D02*
D03*
X1740000Y2100000D02*
D03*
X1890000D02*
D03*
X2690000Y2230000D02*
D03*
Y3080000D02*
D03*
X2590000Y3560000D02*
D03*
X2490000Y2230000D02*
D03*
Y3480000D02*
D03*
X2390000Y3360000D02*
D03*
X2290000Y3260000D02*
D03*
X2190000Y3160000D02*
D03*
X2040000Y3210000D02*
D03*
X1750000Y4900000D02*
D03*
Y4660000D02*
D03*
X1640000Y4290000D02*
D03*
X1925000Y3905000D02*
D03*
X1940000Y3630000D02*
D03*
X1820000Y4790000D02*
D03*
Y4750000D02*
D03*
X1540000Y3630000D02*
D03*
Y4630000D02*
D03*
X1690000Y4130000D02*
D03*
X1640000Y4430000D02*
D03*
X5150000Y3850000D02*
D03*
X1340000Y2120000D02*
D03*
X1650000Y4800000D02*
D03*
Y4700000D02*
D03*
Y4600000D02*
D03*
Y4500000D02*
D03*
X1590000Y2230000D02*
D03*
Y4380000D02*
D03*
X1490000Y2230000D02*
D03*
Y4250000D02*
D03*
X1240000Y4230000D02*
D03*
X1440000Y3610000D02*
D03*
X1390000Y2230000D02*
D03*
Y4180000D02*
D03*
X1290000Y4080000D02*
D03*
X1440000Y4530000D02*
D03*
X1340000Y4330000D02*
D03*
X3642000Y1500000D02*
D03*
X3446000Y1800000D02*
D03*
Y1900000D02*
D03*
X3480000Y2040000D02*
D03*
X3410000Y1380000D02*
D03*
Y1660000D02*
D03*
Y1740000D02*
D03*
X3330000Y1800000D02*
D03*
X3370000Y1900000D02*
D03*
X1540000Y3410000D02*
D03*
X2340000Y3310000D02*
D03*
X2540000Y3510000D02*
D03*
X2740000Y3610000D02*
D03*
X6670000Y3125000D02*
D03*
X6540000Y2915000D02*
D03*
X6670000D02*
D03*
X6540000Y3125000D02*
D03*
X5904576Y2935000D02*
D03*
X6630000Y2765000D02*
D03*
Y2535000D02*
D03*
X5895000Y3109745D02*
D03*
X5815000Y3010000D02*
D03*
X5020000Y2000000D02*
D03*
X6260000D02*
D03*
X5640000D02*
D03*
X4400000D02*
D03*
X6149794Y4436884D02*
D03*
X2055255Y4000000D02*
D03*
X1910000Y4530000D02*
D03*
X5220000Y3800000D02*
D03*
X2490000Y4070000D02*
D03*
X2385941Y4026648D02*
D03*
X2640000Y3800000D02*
D03*
X2790000D02*
D03*
Y3900000D02*
D03*
X2641716Y3901109D02*
D03*
D66*
X3020000Y1300000D02*
D03*
M02*
