%FSTAX23Y23*%
%MOIN*%
%SFA1B1*%

%IPPOS*%
%ADD9500C,0.010000*%
%ADD9501C,0.020000*%
%ADD9502C,0.023620*%
%ADD9503C,0.029530*%
%ADD9504C,0.030000*%
%ADD9505C,0.031500*%
%ADD9506C,0.035430*%
%ADD9507C,0.039370*%
%ADD9508C,0.043310*%
%ADD9509C,0.049210*%
%ADD9510C,0.051180*%
%LNesp32-hwe-dev-roundholes-1*%
%LPD*%
G54D9500*
X0341Y0138D03*
X03642Y015D03*
X0391Y0144D03*
X0626Y02D03*
X0631Y0199D03*
X0663Y02535D03*
Y02765D03*
X0667Y02915D03*
X0654D03*
X0615Y0297D03*
X0622Y0309D03*
X05895Y03109D03*
X05815Y0301D03*
X05904Y02935D03*
X057Y0265D03*
X0569Y02D03*
X0564D03*
X05895Y0218D03*
X05995D03*
X0614Y0233D03*
X05066Y02002D03*
X0502Y02D03*
X04449Y02002D03*
X044Y02D03*
X0348Y0204D03*
X03446Y019D03*
X0337D03*
X0333Y018D03*
X03446D03*
X0341Y0174D03*
Y0166D03*
X0284Y0205D03*
X0274Y02D03*
X0269Y021D03*
X0264Y0215D03*
X0259D03*
X0254D03*
X0249Y0223D03*
X0269D03*
X0249Y02D03*
X0239Y0205D03*
X0224Y021D03*
X0219Y0215D03*
X0214D03*
X0199D03*
X0194D03*
X0189Y021D03*
X0174D03*
X0169Y0215D03*
X0159Y0223D03*
X0184Y0265D03*
X0194Y026D03*
X0214Y0255D03*
X0224Y025D03*
X0229Y027D03*
X0219Y0275D03*
X0264Y0285D03*
X0269Y028D03*
X0264Y0296D03*
X0269Y0308D03*
X0284Y0301D03*
X0294Y0311D03*
X0149Y0223D03*
X0139D03*
X0134Y0212D03*
X0154D03*
Y0341D03*
Y0363D03*
X0144Y0361D03*
Y0379D03*
X0139Y0418D03*
X0149Y0425D03*
X0134Y0433D03*
X0124Y0423D03*
X0129Y0408D03*
X0144Y0453D03*
X0154Y0463D03*
X0165Y046D03*
Y045D03*
X0164Y0443D03*
X0159Y0438D03*
X0164Y0429D03*
X0169Y0413D03*
X01925Y03905D03*
X0184Y0377D03*
X0194Y0363D03*
X02055Y04D03*
X0219Y0405D03*
X02385Y04026D03*
X0249Y0407D03*
X02647Y04202D03*
X028Y0412D03*
X0279Y039D03*
Y038D03*
X0264D03*
X02641Y03901D03*
X029Y039D03*
X0299Y0405D03*
X0298Y0419D03*
X0305Y0428D03*
X0274Y0361D03*
X0259Y0356D03*
X0254Y0351D03*
X0249Y0348D03*
X0239Y0336D03*
X0234Y0331D03*
X0229Y0326D03*
X0219Y0316D03*
X0204Y0321D03*
X02441Y03712D03*
X0206Y0424D03*
X0191Y0453D03*
X0175Y0466D03*
X0315Y0455D03*
X0327Y0425D03*
Y042D03*
Y0415D03*
Y0395D03*
X03224Y03904D03*
X0314Y038D03*
X0344Y0408D03*
X036Y0446D03*
X0515Y0385D03*
X0522Y038D03*
X0584Y0344D03*
X0588Y034D03*
X06149Y04436D03*
X0634Y0365D03*
Y0359D03*
X0654Y0363D03*
X06586Y03344D03*
X0659Y0321D03*
X0654Y03125D03*
X0667D03*
X036Y0476D03*
X0182Y0475D03*
Y0479D03*
X0175Y049D03*
X0165Y048D03*
Y047D03*
G54D9501*
X0302Y013D03*
G54D9502*
X0114Y01112D03*
X0124D03*
X0134D03*
X0144D03*
X0154D03*
X0164D03*
X0174D03*
X0184D03*
X0194D03*
X0204D03*
X0214D03*
X0224D03*
X0234D03*
X0244D03*
X0254D03*
X0264D03*
X0274D03*
X0284D03*
X0294D03*
Y02391D03*
X0284D03*
X0274D03*
X0264D03*
X0254D03*
X0244D03*
X0234D03*
X0224D03*
X0214D03*
X0204D03*
X0194D03*
X0184D03*
X0174D03*
X0164D03*
X0154D03*
X0144D03*
X0134D03*
X0124D03*
X0114D03*
G54D9503*
X06361Y02865D03*
X06461Y02965D03*
X06361Y03065D03*
X02545Y04416D03*
X02445Y04516D03*
X02345Y04416D03*
X05981Y0371D03*
Y0351D03*
X06081Y0361D03*
G54D9504*
X0108Y0288D03*
X0118D03*
Y0298D03*
Y0308D03*
X0108D03*
Y0298D03*
Y0318D03*
X0118D03*
Y0328D03*
Y0338D03*
Y0348D03*
Y0358D03*
Y0368D03*
Y0378D03*
X0108D03*
Y0368D03*
Y0358D03*
Y0348D03*
Y0338D03*
Y0328D03*
Y04D03*
X0118D03*
Y041D03*
Y042D03*
Y043D03*
Y044D03*
Y045D03*
Y046D03*
X0108D03*
Y045D03*
Y044D03*
Y043D03*
Y042D03*
Y041D03*
Y047D03*
X0118D03*
Y048D03*
Y049D03*
X0108D03*
Y048D03*
G54D9505*
X0533Y038D03*
X05389D03*
X05448D03*
X05507D03*
X05566D03*
X05625D03*
X05684D03*
X05743D03*
G54D9506*
X0354Y014D03*
Y015D03*
X0374Y0145D03*
Y0155D03*
X04811Y0174D03*
X04948D03*
X05431D03*
X05568D03*
X06051D03*
X06188D03*
X04328D03*
X04191D03*
X0374Y0175D03*
Y0165D03*
Y0185D03*
Y0195D03*
Y0205D03*
X0354Y02D03*
Y019D03*
Y018D03*
Y017D03*
Y016D03*
Y021D03*
G54D9507*
X06792Y04403D03*
Y04502D03*
G54D9508*
X064Y0164D03*
Y0174D03*
Y0184D03*
X0578D03*
Y0174D03*
Y0164D03*
X0516D03*
Y0174D03*
Y0184D03*
X0454D03*
Y0174D03*
Y0164D03*
G54D9509*
X0321Y0114D03*
Y0124D03*
X0331D03*
X0341D03*
X0351D03*
X0361D03*
X0371D03*
X0381D03*
X0391D03*
Y0114D03*
X0381D03*
X0371D03*
X0361D03*
X0351D03*
X0341D03*
X0331D03*
X0654Y0204D03*
Y0214D03*
X0675Y02285D03*
Y02385D03*
Y02915D03*
Y03015D03*
X0625Y02765D03*
X0615D03*
X0613Y02535D03*
X0603D03*
X0574Y022D03*
X0564D03*
X0512D03*
X0502D03*
X045D03*
X044D03*
X0396Y0395D03*
Y0405D03*
Y0415D03*
Y0425D03*
Y0435D03*
Y0445D03*
Y0455D03*
Y0465D03*
X0685Y037D03*
Y036D03*
Y035D03*
Y034D03*
X03105Y0472D03*
X03005D03*
X02905D03*
X02805D03*
X025D03*
X024D03*
X0199Y0486D03*
X0189D03*
G54D9510*
X04295Y0132D03*
X04545D03*
X04915D03*
X05165D03*
X05535D03*
X05785D03*
X06155D03*
X06405D03*
X069Y02185D03*
Y02485D03*
Y02815D03*
Y03115D03*
X0517Y0352D03*
X03105Y0486D03*
X02955Y04865D03*
X02805Y0486D03*
X0253D03*
X0236D03*
M02*