G04*
G04 #@! TF.GenerationSoftware,Altium Limited,Altium Designer,23.4.1 (23)*
G04*
G04 Layer_Color=8388736*
%FSLAX25Y25*%
%MOIN*%
G70*
G04*
G04 #@! TF.SameCoordinates,E68B94D6-D60F-444A-AFFC-629A5A92400F*
G04*
G04*
G04 #@! TF.FilePolarity,Negative*
G04*
G01*
G75*
%ADD19R,0.03937X0.06299*%
%ADD23R,0.04724X0.03543*%
%ADD24R,0.03543X0.04724*%
%ADD25R,0.05339X0.04349*%
%ADD27R,0.03543X0.04331*%
%ADD29R,0.06299X0.03937*%
%ADD30R,0.04349X0.05339*%
G04:AMPARAMS|DCode=32|XSize=64.5mil|YSize=24.33mil|CornerRadius=12.17mil|HoleSize=0mil|Usage=FLASHONLY|Rotation=0.000|XOffset=0mil|YOffset=0mil|HoleType=Round|Shape=RoundedRectangle|*
%AMROUNDEDRECTD32*
21,1,0.06450,0.00000,0,0,0.0*
21,1,0.04017,0.02433,0,0,0.0*
1,1,0.02433,0.02009,0.00000*
1,1,0.02433,-0.02009,0.00000*
1,1,0.02433,-0.02009,0.00000*
1,1,0.02433,0.02009,0.00000*
%
%ADD32ROUNDEDRECTD32*%
%ADD33R,0.06450X0.02433*%
%ADD37O,0.09855X0.03162*%
%ADD38O,0.03556X0.10642*%
%ADD39O,0.03162X0.08280*%
%ADD40R,0.04343X0.03950*%
%ADD41R,0.05131X0.06115*%
%ADD42O,0.08280X0.03162*%
%ADD43R,0.06312X0.05524*%
%ADD44O,0.09461X0.03162*%
%ADD45R,0.07887X0.03162*%
%ADD46C,0.07887*%
%ADD47R,0.05524X0.05524*%
%ADD48C,0.05524*%
%ADD49C,0.06706*%
%ADD50R,0.06706X0.06706*%
%ADD51O,0.04540X0.08674*%
%ADD52R,0.04343X0.06706*%
%ADD53C,0.08674*%
%ADD54C,0.06800*%
%ADD55R,0.07887X0.07887*%
%ADD56C,0.05721*%
%ADD57R,0.05721X0.05721*%
%ADD58R,0.07493X0.07493*%
%ADD59C,0.07493*%
%ADD60C,0.06312*%
%ADD61R,0.16548X0.06706*%
%ADD62R,0.14580X0.06706*%
%ADD63R,0.06706X0.14580*%
%ADD64R,0.05721X0.05721*%
%ADD65C,0.02800*%
%ADD66C,0.05800*%
D19*
X350157Y460276D02*
D03*
X360000D02*
D03*
X369843D02*
D03*
X350157Y469724D02*
D03*
X360000D02*
D03*
X369843D02*
D03*
X641843Y325224D02*
D03*
X632000D02*
D03*
X622157D02*
D03*
X641843Y315776D02*
D03*
X632000D02*
D03*
X622157D02*
D03*
X649157Y359051D02*
D03*
X659000D02*
D03*
X668843D02*
D03*
X649157Y368500D02*
D03*
X659000D02*
D03*
X668843D02*
D03*
X649000Y341500D02*
D03*
X658843D02*
D03*
X668685D02*
D03*
X649000Y350949D02*
D03*
X658843D02*
D03*
X668685D02*
D03*
X540158Y343000D02*
D03*
X550000D02*
D03*
X559842D02*
D03*
X540158Y352449D02*
D03*
X550000D02*
D03*
X559842D02*
D03*
D23*
X624000Y251768D02*
D03*
Y243500D02*
D03*
X616000Y199866D02*
D03*
Y208134D02*
D03*
X606000Y199866D02*
D03*
Y208134D02*
D03*
X554000Y199866D02*
D03*
Y208134D02*
D03*
X544000Y199866D02*
D03*
Y208134D02*
D03*
X420000Y199866D02*
D03*
Y208134D02*
D03*
X430000Y199866D02*
D03*
Y208134D02*
D03*
X482000Y199866D02*
D03*
Y208134D02*
D03*
X492000Y199866D02*
D03*
Y208134D02*
D03*
X689000Y449866D02*
D03*
Y458134D02*
D03*
X181000Y456000D02*
D03*
Y447732D02*
D03*
X173000Y456000D02*
D03*
Y447732D02*
D03*
D24*
X616866Y266500D02*
D03*
X625134D02*
D03*
X415134Y395000D02*
D03*
X406866D02*
D03*
X415134Y405000D02*
D03*
X406866D02*
D03*
X415134Y455000D02*
D03*
X406866D02*
D03*
X415134Y465000D02*
D03*
X406866D02*
D03*
X415134Y445000D02*
D03*
X406866D02*
D03*
X415000Y435000D02*
D03*
X406732D02*
D03*
X415134Y415000D02*
D03*
X406866D02*
D03*
X415134Y425000D02*
D03*
X406866D02*
D03*
D25*
X614000Y243500D02*
D03*
Y237943D02*
D03*
X615000Y285943D02*
D03*
Y291500D02*
D03*
D27*
X430000Y445000D02*
D03*
X422520D02*
D03*
X429740Y395000D02*
D03*
X422260D02*
D03*
X429740Y405000D02*
D03*
X422260D02*
D03*
X429740Y455000D02*
D03*
X422260D02*
D03*
X429740Y435000D02*
D03*
X422260D02*
D03*
X429740Y415000D02*
D03*
X422260D02*
D03*
X429740Y465000D02*
D03*
X422260D02*
D03*
X429740Y425000D02*
D03*
X422260D02*
D03*
D29*
X243224Y398158D02*
D03*
Y408000D02*
D03*
Y417842D02*
D03*
X233776Y398158D02*
D03*
Y408000D02*
D03*
Y417842D02*
D03*
X189276Y465842D02*
D03*
Y456000D02*
D03*
Y446158D02*
D03*
X198724Y465842D02*
D03*
Y456000D02*
D03*
Y446158D02*
D03*
D30*
X254500Y420500D02*
D03*
X260057D02*
D03*
X211779Y418500D02*
D03*
X206221D02*
D03*
X308500Y419000D02*
D03*
X302943D02*
D03*
X370779Y446000D02*
D03*
X365221D02*
D03*
D32*
X264183Y410000D02*
D03*
Y402520D02*
D03*
X255000D02*
D03*
Y406260D02*
D03*
D33*
Y410000D02*
D03*
D37*
X370827Y395000D02*
D03*
Y400000D02*
D03*
Y405000D02*
D03*
Y410000D02*
D03*
Y415000D02*
D03*
Y420000D02*
D03*
Y425000D02*
D03*
Y430000D02*
D03*
Y435000D02*
D03*
X335000Y395000D02*
D03*
Y400000D02*
D03*
Y405000D02*
D03*
Y410000D02*
D03*
Y415000D02*
D03*
Y420000D02*
D03*
Y425000D02*
D03*
Y430000D02*
D03*
Y435000D02*
D03*
D38*
X589500Y285854D02*
D03*
X594500D02*
D03*
X599500D02*
D03*
X604500D02*
D03*
X589500Y305146D02*
D03*
X594500D02*
D03*
X599500D02*
D03*
X604500D02*
D03*
D39*
Y243752D02*
D03*
X599500D02*
D03*
X594500D02*
D03*
X589500D02*
D03*
X604500Y225248D02*
D03*
X599500D02*
D03*
X594500D02*
D03*
X589500D02*
D03*
D40*
X643937Y204000D02*
D03*
X636063Y200260D02*
D03*
Y207740D02*
D03*
X581937Y204000D02*
D03*
X574063Y200260D02*
D03*
Y207740D02*
D03*
X519937Y204000D02*
D03*
X512063Y200260D02*
D03*
Y207740D02*
D03*
X457937Y204000D02*
D03*
X450063Y200260D02*
D03*
Y207740D02*
D03*
D41*
X533000Y371000D02*
D03*
X538512D02*
D03*
X545244D02*
D03*
X550756D02*
D03*
D42*
X308504Y395000D02*
D03*
Y400000D02*
D03*
Y405000D02*
D03*
Y410000D02*
D03*
X290000Y395000D02*
D03*
Y400000D02*
D03*
Y405000D02*
D03*
Y410000D02*
D03*
D43*
X280000Y424500D02*
D03*
Y417807D02*
D03*
D44*
X211449Y395000D02*
D03*
Y400000D02*
D03*
Y405000D02*
D03*
Y410000D02*
D03*
X192551Y395000D02*
D03*
Y400000D02*
D03*
Y405000D02*
D03*
Y410000D02*
D03*
D45*
X290000Y432000D02*
D03*
Y424520D02*
D03*
X297874Y428260D02*
D03*
D46*
X679260Y450236D02*
D03*
Y440394D02*
D03*
X640500Y132000D02*
D03*
X454500D02*
D03*
X578500D02*
D03*
X516500D02*
D03*
D47*
X574339Y380000D02*
D03*
D48*
X568433D02*
D03*
X562528D02*
D03*
X556622D02*
D03*
X533000D02*
D03*
X538905D02*
D03*
X544811D02*
D03*
X550716D02*
D03*
D49*
X354000Y140000D02*
D03*
X374000Y145000D02*
D03*
X354000Y150000D02*
D03*
X374000Y155000D02*
D03*
X354000Y160000D02*
D03*
X374000Y165000D02*
D03*
X354000Y170000D02*
D03*
X374000Y175000D02*
D03*
X354000Y180000D02*
D03*
X374000Y185000D02*
D03*
X354000Y190000D02*
D03*
X374000Y195000D02*
D03*
X354000Y200000D02*
D03*
X374000Y205000D02*
D03*
D50*
X354000Y210000D02*
D03*
D51*
X144000Y233000D02*
D03*
X154000D02*
D03*
X164000D02*
D03*
X174000D02*
D03*
X184000D02*
D03*
X194000D02*
D03*
X204000D02*
D03*
X214000D02*
D03*
X224000D02*
D03*
X234000D02*
D03*
X244000D02*
D03*
X254000D02*
D03*
X264000D02*
D03*
X274000D02*
D03*
X284000D02*
D03*
X294000D02*
D03*
X114000D02*
D03*
X124000D02*
D03*
X134000D02*
D03*
Y117386D02*
D03*
X124000D02*
D03*
X114000D02*
D03*
X294000D02*
D03*
X284000D02*
D03*
X274000D02*
D03*
X264000D02*
D03*
X254000D02*
D03*
X244000D02*
D03*
X234000D02*
D03*
X224000D02*
D03*
X214000D02*
D03*
X204000D02*
D03*
X194000D02*
D03*
X184000D02*
D03*
X174000D02*
D03*
X164000D02*
D03*
X154000D02*
D03*
X144000D02*
D03*
D52*
Y238315D02*
D03*
X154000D02*
D03*
X164000D02*
D03*
X174000D02*
D03*
X184000D02*
D03*
X194000D02*
D03*
X204000D02*
D03*
X214000D02*
D03*
X224000D02*
D03*
X234000D02*
D03*
X244000D02*
D03*
X254000D02*
D03*
X264000D02*
D03*
X274000D02*
D03*
X284000D02*
D03*
X294000D02*
D03*
X114000D02*
D03*
X124000D02*
D03*
X134000D02*
D03*
Y112071D02*
D03*
X124000D02*
D03*
X114000D02*
D03*
X294000D02*
D03*
X284000D02*
D03*
X274000D02*
D03*
X264000D02*
D03*
X254000D02*
D03*
X244000D02*
D03*
X234000D02*
D03*
X224000D02*
D03*
X214000D02*
D03*
X204000D02*
D03*
X194000D02*
D03*
X184000D02*
D03*
X174000D02*
D03*
X164000D02*
D03*
X154000D02*
D03*
X144000D02*
D03*
D53*
X391000Y124000D02*
D03*
X381000D02*
D03*
X371000D02*
D03*
X361000D02*
D03*
X351000D02*
D03*
X341000D02*
D03*
X331000D02*
D03*
X321000D02*
D03*
X391000Y114000D02*
D03*
X381000D02*
D03*
X371000D02*
D03*
X361000D02*
D03*
X351000D02*
D03*
X341000D02*
D03*
X331000D02*
D03*
X321000D02*
D03*
X690000Y281500D02*
D03*
X675000Y301500D02*
D03*
Y291500D02*
D03*
X690000Y311500D02*
D03*
Y248500D02*
D03*
Y218500D02*
D03*
X625000Y276500D02*
D03*
X615000D02*
D03*
X603000Y253500D02*
D03*
X613000D02*
D03*
X675000Y228500D02*
D03*
Y238500D02*
D03*
X685000Y340000D02*
D03*
Y350000D02*
D03*
Y360000D02*
D03*
Y370000D02*
D03*
X654000Y214000D02*
D03*
Y204000D02*
D03*
X574000Y220000D02*
D03*
X564000D02*
D03*
X512000D02*
D03*
X502000D02*
D03*
X450000D02*
D03*
X440000D02*
D03*
X253000Y486000D02*
D03*
X396000Y425000D02*
D03*
Y465000D02*
D03*
Y455000D02*
D03*
Y445000D02*
D03*
Y435000D02*
D03*
Y415000D02*
D03*
Y405000D02*
D03*
Y395000D02*
D03*
X517000Y352000D02*
D03*
X280500Y472000D02*
D03*
X290500D02*
D03*
X300500D02*
D03*
X310500D02*
D03*
X280500Y486000D02*
D03*
X310500D02*
D03*
X240000Y472000D02*
D03*
X250000D02*
D03*
X236000Y486000D02*
D03*
X295500Y486500D02*
D03*
X189000Y486000D02*
D03*
X199000D02*
D03*
D54*
X118000Y400000D02*
D03*
Y410000D02*
D03*
Y420000D02*
D03*
Y430000D02*
D03*
Y440000D02*
D03*
Y450000D02*
D03*
Y460000D02*
D03*
Y470000D02*
D03*
Y480000D02*
D03*
Y490000D02*
D03*
X108000D02*
D03*
Y480000D02*
D03*
Y470000D02*
D03*
Y460000D02*
D03*
Y450000D02*
D03*
Y440000D02*
D03*
Y430000D02*
D03*
Y420000D02*
D03*
Y410000D02*
D03*
Y400000D02*
D03*
X118000Y288000D02*
D03*
Y298000D02*
D03*
Y308000D02*
D03*
Y318000D02*
D03*
Y328000D02*
D03*
Y338000D02*
D03*
Y348000D02*
D03*
Y358000D02*
D03*
Y368000D02*
D03*
Y378000D02*
D03*
X108000D02*
D03*
Y368000D02*
D03*
Y358000D02*
D03*
Y348000D02*
D03*
Y338000D02*
D03*
Y328000D02*
D03*
Y318000D02*
D03*
Y308000D02*
D03*
Y298000D02*
D03*
Y288000D02*
D03*
D55*
X615500Y132000D02*
D03*
X429500D02*
D03*
X553500D02*
D03*
X491500D02*
D03*
D56*
X636138Y286500D02*
D03*
X646138Y296500D02*
D03*
X598138Y351000D02*
D03*
X608138Y361000D02*
D03*
X254500Y441638D02*
D03*
X244500Y451638D02*
D03*
D57*
X636138Y306500D02*
D03*
X598138Y371000D02*
D03*
D58*
X516000Y184000D02*
D03*
X578000D02*
D03*
X640000D02*
D03*
X454000D02*
D03*
D59*
X516000Y174000D02*
D03*
Y164000D02*
D03*
X578000Y174000D02*
D03*
Y164000D02*
D03*
X640000Y174000D02*
D03*
Y164000D02*
D03*
X454000Y174000D02*
D03*
Y164000D02*
D03*
D60*
X556890Y174000D02*
D03*
X543110D02*
D03*
X618890D02*
D03*
X605110D02*
D03*
X432890D02*
D03*
X419110D02*
D03*
X494890D02*
D03*
X481110D02*
D03*
D61*
X678000Y153811D02*
D03*
D62*
Y130189D02*
D03*
D63*
X696504Y142000D02*
D03*
D64*
X234500Y441638D02*
D03*
D65*
X360000Y476000D02*
D03*
X314000Y380000D02*
D03*
X322400Y390400D02*
D03*
X344000Y408000D02*
D03*
X244115Y371295D02*
D03*
X599500Y218000D02*
D03*
X589500D02*
D03*
X219000Y405000D02*
D03*
X327000Y395000D02*
D03*
Y415000D02*
D03*
Y420000D02*
D03*
Y425000D02*
D03*
X315000Y455000D02*
D03*
X290000Y390000D02*
D03*
X305000Y428000D02*
D03*
X622000Y309000D02*
D03*
X615000Y297000D02*
D03*
X280000Y412000D02*
D03*
X654000Y363000D02*
D03*
X631000Y199000D02*
D03*
X569000Y200000D02*
D03*
X506660Y200251D02*
D03*
X444911Y200277D02*
D03*
X614000Y233000D02*
D03*
X360000Y446000D02*
D03*
X298000Y419000D02*
D03*
X264703Y420297D02*
D03*
X206000Y424000D02*
D03*
X144000Y379000D02*
D03*
X184000Y377000D02*
D03*
X299000Y405000D02*
D03*
X391000Y144000D02*
D03*
X264000Y285000D02*
D03*
X584000Y344000D02*
D03*
X588000Y340000D02*
D03*
X634000Y359051D02*
D03*
Y365000D02*
D03*
X269000Y280000D02*
D03*
X219000Y275000D02*
D03*
X229000Y270000D02*
D03*
X658679Y334497D02*
D03*
X659000Y321000D02*
D03*
X184000Y265000D02*
D03*
X214000Y255000D02*
D03*
X194000Y260000D02*
D03*
X224000Y250000D02*
D03*
X294000Y311000D02*
D03*
X264000Y296000D02*
D03*
X284000Y301000D02*
D03*
X570000Y265000D02*
D03*
X264000Y215000D02*
D03*
X259000D02*
D03*
X274000Y200000D02*
D03*
X249000D02*
D03*
X284000Y205000D02*
D03*
X254000Y215000D02*
D03*
X219000D02*
D03*
X214000D02*
D03*
X199000D02*
D03*
X194000D02*
D03*
X169000D02*
D03*
X239000Y205000D02*
D03*
X269000Y210000D02*
D03*
X224000D02*
D03*
X154000Y212000D02*
D03*
X174000Y210000D02*
D03*
X189000D02*
D03*
X269000Y223000D02*
D03*
Y308000D02*
D03*
X259000Y356000D02*
D03*
X249000Y223000D02*
D03*
Y348000D02*
D03*
X239000Y336000D02*
D03*
X229000Y326000D02*
D03*
X219000Y316000D02*
D03*
X204000Y321000D02*
D03*
X175000Y490000D02*
D03*
Y466000D02*
D03*
X164000Y429000D02*
D03*
X192500Y390500D02*
D03*
X194000Y363000D02*
D03*
X182000Y479000D02*
D03*
Y475000D02*
D03*
X154000Y363000D02*
D03*
Y463000D02*
D03*
X169000Y413000D02*
D03*
X164000Y443000D02*
D03*
X515000Y385000D02*
D03*
X134000Y212000D02*
D03*
X165000Y480000D02*
D03*
Y470000D02*
D03*
Y460000D02*
D03*
Y450000D02*
D03*
X159000Y223000D02*
D03*
Y438000D02*
D03*
X149000Y223000D02*
D03*
Y425000D02*
D03*
X124000Y423000D02*
D03*
X144000Y361000D02*
D03*
X139000Y223000D02*
D03*
Y418000D02*
D03*
X129000Y408000D02*
D03*
X144000Y453000D02*
D03*
X134000Y433000D02*
D03*
X364200Y150000D02*
D03*
X344600Y180000D02*
D03*
Y190000D02*
D03*
X348000Y204000D02*
D03*
X341000Y138000D02*
D03*
Y166000D02*
D03*
Y174000D02*
D03*
X333000Y180000D02*
D03*
X337000Y190000D02*
D03*
X154000Y341000D02*
D03*
X234000Y331000D02*
D03*
X254000Y351000D02*
D03*
X274000Y361000D02*
D03*
X667000Y312500D02*
D03*
X654000Y291500D02*
D03*
X667000D02*
D03*
X654000Y312500D02*
D03*
X590458Y293500D02*
D03*
X663000Y276500D02*
D03*
Y253500D02*
D03*
X589500Y310975D02*
D03*
X581500Y301000D02*
D03*
X502000Y200000D02*
D03*
X626000D02*
D03*
X564000D02*
D03*
X440000D02*
D03*
X614979Y443688D02*
D03*
X205525Y400000D02*
D03*
X191000Y453000D02*
D03*
X522000Y380000D02*
D03*
X249000Y407000D02*
D03*
X238594Y402665D02*
D03*
X264000Y380000D02*
D03*
X279000D02*
D03*
Y390000D02*
D03*
X264172Y390111D02*
D03*
D66*
X302000Y130000D02*
D03*
M02*
