G04*
G04 #@! TF.GenerationSoftware,Altium Limited,Altium Designer,23.4.1 (23)*
G04*
G04 Layer_Color=65535*
%FSLAX25Y25*%
%MOIN*%
G70*
G04*
G04 #@! TF.SameCoordinates,E68B94D6-D60F-444A-AFFC-629A5A92400F*
G04*
G04*
G04 #@! TF.FilePolarity,Positive*
G04*
G01*
G75*
%ADD10C,0.00984*%
%ADD11C,0.00787*%
%ADD12C,0.01575*%
%ADD13C,0.02362*%
%ADD14C,0.02000*%
%ADD15C,0.01000*%
%ADD16C,0.00500*%
%ADD17C,0.07500*%
%ADD18C,0.00800*%
G36*
X187490Y347928D02*
X187508Y347859D01*
X187490Y345706D01*
X187464Y345662D01*
X187395Y345645D01*
X186371Y345662D01*
X186327Y345758D01*
X186336Y345992D01*
X186327Y347616D01*
X186345Y347668D01*
X186327Y347789D01*
X186345Y347928D01*
X186388Y347971D01*
X186458Y347989D01*
X186692Y347980D01*
X186944Y347989D01*
X186961D01*
X187230Y347980D01*
X187412Y347989D01*
X187490Y347928D01*
D02*
G37*
G36*
X213124Y347971D02*
X213150Y347945D01*
X213168Y347876D01*
X213150Y339855D01*
X213124Y339829D01*
X213055Y339812D01*
X205051Y339829D01*
X205025Y339855D01*
X205008Y339925D01*
X204999Y339968D01*
X205008Y347806D01*
X204991Y347824D01*
X205008Y347876D01*
X205025Y347945D01*
X205121Y347989D01*
X205320Y347980D01*
X212812Y347989D01*
X212846Y347971D01*
X212864D01*
X212985Y347989D01*
X213124Y347971D01*
D02*
G37*
G36*
X200277D02*
X200320Y347945D01*
X200338Y347876D01*
X200346Y346808D01*
X203741Y346817D01*
X203801Y346791D01*
X203827Y346765D01*
X203845Y346643D01*
X203827Y346470D01*
X203836Y345732D01*
X203766Y345645D01*
X202786Y345654D01*
X202716Y345636D01*
X202681Y345602D01*
X202664Y345532D01*
X202673Y344586D01*
X202647Y344525D01*
X202603Y344482D01*
X202551D01*
X196874Y344499D01*
X196848Y344525D01*
X196831Y344595D01*
X196848Y347928D01*
X196891Y347971D01*
X196961Y347989D01*
X197178Y347980D01*
X199982Y347989D01*
X200034Y347971D01*
X200103Y347989D01*
X200277Y347971D01*
D02*
G37*
G36*
X193280D02*
X193324Y347928D01*
X193341Y347859D01*
X193324Y346869D01*
X193280Y346826D01*
X193211Y346808D01*
X192265Y346817D01*
X192204Y346791D01*
X192178Y346765D01*
X192161Y346695D01*
X192169Y346444D01*
X192161Y345897D01*
X192178Y345845D01*
X192161Y345706D01*
X192100Y345645D01*
X191119Y345654D01*
X191050Y345636D01*
X191015Y345602D01*
X190997Y345532D01*
X191015Y344525D01*
X191041Y344499D01*
X191110Y344482D01*
X193341Y344473D01*
X193333Y342242D01*
X193359Y342181D01*
X193385Y342155D01*
X193506Y342138D01*
X193680Y342155D01*
X195407Y342147D01*
X195572Y342155D01*
X195650Y342112D01*
X195668Y342042D01*
X195685Y340984D01*
X196831Y340966D01*
X196839Y339812D01*
X197950Y339829D01*
X197994Y339872D01*
X198011Y339942D01*
X197994Y340272D01*
X197985Y340975D01*
X196831Y340984D01*
X196848Y343275D01*
X196874Y343301D01*
X196944Y343319D01*
X201458Y343301D01*
X201483Y343275D01*
X201501Y343206D01*
X201483Y342181D01*
X201388Y342138D01*
X201006Y342155D01*
X198254Y342147D01*
X198089Y342155D01*
X198011Y342095D01*
X197994Y342025D01*
X198003Y341773D01*
X197994Y341001D01*
X198020Y340975D01*
X199070Y340984D01*
X199131Y340957D01*
X199157Y340931D01*
X199174Y340862D01*
X199183Y337485D01*
X200338Y337477D01*
X200346Y336322D01*
X202482Y336305D01*
X202499D01*
X202621Y336322D01*
X202647Y336348D01*
X202681Y336470D01*
X202664Y336591D01*
X202681Y337442D01*
X202708Y337468D01*
X202777Y337485D01*
X203723Y337477D01*
X203810Y337511D01*
X203845Y337598D01*
X203827Y337928D01*
X203836Y338388D01*
X203827Y338553D01*
X203871Y338631D01*
X203940Y338648D01*
X204964Y338631D01*
X204991Y338605D01*
X205008Y338536D01*
X205016Y335141D01*
X206162Y335159D01*
X206171Y336105D01*
X206154Y336157D01*
X206180Y336270D01*
X206214Y336305D01*
X206284Y336322D01*
X206518Y336313D01*
X207083Y336322D01*
X207135Y336305D01*
X207273Y336322D01*
X207317Y336348D01*
X207334Y336418D01*
X207326Y337485D01*
X206275Y337477D01*
X206188Y337511D01*
X206154Y337633D01*
X206171Y337754D01*
X206162Y338544D01*
X206188Y338605D01*
X206232Y338648D01*
X207291Y338631D01*
X207334Y338588D01*
X207343Y337485D01*
X208393Y337477D01*
X208480Y337511D01*
X208515Y337633D01*
X208497Y337754D01*
X208515Y338605D01*
X208541Y338631D01*
X208610Y338648D01*
X209634Y338631D01*
X209678Y338536D01*
X209661Y338154D01*
X209669Y337746D01*
X209661Y337563D01*
X209721Y337485D01*
X209860Y337468D01*
X209912Y337485D01*
X210841Y337477D01*
X210850Y336322D01*
X211727Y336313D01*
X211909Y336322D01*
X211987Y336279D01*
X212004Y336209D01*
X211996Y335263D01*
X212013Y335194D01*
X212048Y335159D01*
X212117Y335141D01*
X212334Y335150D01*
X212933Y335141D01*
X212985Y335159D01*
X213107Y335141D01*
X213150Y335116D01*
X213168Y335046D01*
X213150Y334022D01*
X213124Y333996D01*
X213055Y333978D01*
X212108Y333987D01*
X212048Y333961D01*
X212004Y333917D01*
X211987Y333796D01*
X212004Y333744D01*
X211987Y332858D01*
X211961Y332833D01*
X211892Y332815D01*
X210867Y332798D01*
X210824Y332702D01*
X210841Y332372D01*
X210850Y331652D01*
X211961Y331634D01*
X211987Y331609D01*
X212004Y331539D01*
X211996Y330593D01*
X212030Y330506D01*
X212117Y330471D01*
X212447Y330489D01*
X212907Y330480D01*
X213072Y330489D01*
X213150Y330445D01*
X213168Y330376D01*
X213150Y329352D01*
X213124Y329326D01*
X213055Y329308D01*
X212091Y329317D01*
X212022Y329282D01*
X211987Y329161D01*
X212004Y329091D01*
X211987Y328188D01*
X211961Y328162D01*
X211892Y328145D01*
X210841Y328136D01*
X210824Y327025D01*
X210798Y326999D01*
X210728Y326982D01*
X209669Y326964D01*
X209661Y326070D01*
X209678Y326018D01*
X209661Y325862D01*
X209617Y325819D01*
X209478Y325801D01*
X209426Y325819D01*
X206171Y325827D01*
X206162Y326878D01*
X206188Y326938D01*
X206232Y326982D01*
X209661Y326991D01*
X209652Y328145D01*
X208541Y328162D01*
X208515Y328188D01*
X208497Y328258D01*
X208515Y329265D01*
X208558Y329308D01*
X208680Y329326D01*
X208801Y329308D01*
X209661Y329317D01*
X209643Y330480D01*
X206197Y330489D01*
X206171Y330463D01*
X206180Y329308D01*
X207247Y329317D01*
X207317Y329282D01*
X207334Y329213D01*
X207317Y328188D01*
X207291Y328162D01*
X207221Y328145D01*
X206214Y328162D01*
X206171Y328206D01*
X206154Y328327D01*
X206171Y328379D01*
X206162Y329308D01*
X205008Y329299D01*
X204999Y325905D01*
X205025Y325845D01*
X205138Y325801D01*
X205312Y325819D01*
X206171Y325810D01*
X206180Y324655D01*
X208237Y324647D01*
X208419Y324655D01*
X208497Y324595D01*
X208515Y324456D01*
X208497Y324404D01*
X208506Y321148D01*
X209634Y321131D01*
X209678Y321036D01*
X209661Y320654D01*
X209678Y318831D01*
X210477Y318813D01*
X210555Y318805D01*
X210607Y318822D01*
X210780Y318805D01*
X210824Y318761D01*
X210841Y318692D01*
X210850Y317641D01*
X211900Y317650D01*
X211961Y317624D01*
X212004Y317581D01*
X212013Y316478D01*
X213063Y316487D01*
X213124Y316461D01*
X213168Y316418D01*
X213150Y314195D01*
X213107Y314152D01*
X212985Y314135D01*
X212933Y314152D01*
X212004Y314161D01*
X211996Y316478D01*
X210884Y316496D01*
X210841Y316539D01*
X210824Y316661D01*
X210841Y316782D01*
X210833Y317641D01*
X209721Y317659D01*
X209678Y317702D01*
X209661Y317772D01*
X209669Y318006D01*
X209652Y318805D01*
X209600Y318822D01*
X208758Y318813D01*
X208593Y318822D01*
X208497Y318744D01*
X208515Y316522D01*
X208541Y316496D01*
X208610Y316478D01*
X209556Y316487D01*
X209643Y316452D01*
X209678Y316366D01*
X209661Y315984D01*
X209669Y314412D01*
X209661Y314230D01*
X209721Y314152D01*
X209860Y314135D01*
X209912Y314152D01*
X212004Y314143D01*
X211987Y313032D01*
X211944Y312989D01*
X211874Y312971D01*
X211544Y312989D01*
X209921Y312980D01*
X209756Y312989D01*
X209678Y312928D01*
X209661Y312859D01*
X209669Y312607D01*
X209661Y311834D01*
X209687Y311808D01*
X213081Y311817D01*
X213150Y311782D01*
X213168Y311713D01*
X213150Y310688D01*
X213124Y310662D01*
X213055Y310645D01*
X212108Y310654D01*
X212048Y310628D01*
X212004Y310584D01*
X211987Y310463D01*
X212004Y310411D01*
X211987Y309525D01*
X211961Y309499D01*
X211892Y309482D01*
X210867Y309499D01*
X210824Y309595D01*
X210841Y309925D01*
X210833Y310367D01*
X210841Y310567D01*
X210780Y310645D01*
X210659Y310662D01*
X210607Y310645D01*
X209704Y310662D01*
X209661Y310758D01*
X209669Y310992D01*
X209652Y311808D01*
X208497Y311817D01*
X208506Y314030D01*
X208489Y314100D01*
X208454Y314135D01*
X208384Y314152D01*
X205051Y314135D01*
X205008Y314091D01*
X204991Y313970D01*
X205008Y313848D01*
X204991Y313032D01*
X204947Y312989D01*
X204878Y312971D01*
X204548Y312989D01*
X203836Y312971D01*
X203827Y312199D01*
X203845Y312147D01*
X203827Y311921D01*
X203879Y311834D01*
X203958Y311808D01*
X204157Y311817D01*
X204756Y311808D01*
X204808Y311825D01*
X204947Y311808D01*
X204991Y311765D01*
X205008Y311695D01*
X204999Y310749D01*
X205025Y310688D01*
X205069Y310645D01*
X206171Y310636D01*
X206154Y309525D01*
X206128Y309499D01*
X206058Y309482D01*
X201544Y309499D01*
X201501Y309542D01*
X201492Y310645D01*
X199279Y310654D01*
X199192Y310619D01*
X199157Y310532D01*
X199174Y310202D01*
X199157Y309525D01*
X199131Y309499D01*
X199062Y309482D01*
X198037Y309499D01*
X198011Y309525D01*
X197994Y309647D01*
X198003Y309829D01*
X197994Y310411D01*
X198011Y310463D01*
X197994Y310584D01*
X197968Y310628D01*
X197846Y310662D01*
X197777Y310645D01*
X196831Y310654D01*
X196848Y311765D01*
X196891Y311808D01*
X197013Y311825D01*
X197134Y311808D01*
X197716Y311817D01*
X197916Y311808D01*
X197994Y311869D01*
X198011Y311990D01*
X197994Y312164D01*
X198003Y312711D01*
X197994Y312893D01*
X198055Y312971D01*
X198124Y312989D01*
X198359Y312980D01*
X199174Y312997D01*
X199166Y316478D01*
X198003Y316461D01*
X197994Y315567D01*
X198011Y315515D01*
X197994Y315376D01*
X197968Y315333D01*
X197898Y315315D01*
X195711Y315333D01*
X195668Y315376D01*
X195659Y316478D01*
X194504Y316487D01*
X194496Y317641D01*
X193385Y317659D01*
X193341Y317702D01*
X193324Y317824D01*
X193341Y317997D01*
X193324Y318813D01*
X192187Y318822D01*
X192161Y318796D01*
X192169Y316565D01*
X192126Y316504D01*
X192100Y316478D01*
X191119Y316487D01*
X191050Y316470D01*
X191015Y316435D01*
X190997Y316366D01*
X191006Y315315D01*
X193298Y315333D01*
X193324Y315358D01*
X193341Y315428D01*
X193333Y315645D01*
X193341Y316244D01*
X193324Y316296D01*
X193341Y316418D01*
X193367Y316461D01*
X193489Y316496D01*
X193610Y316478D01*
X194504Y316470D01*
X194513Y312989D01*
X195407Y312980D01*
X195572Y312989D01*
X195650Y312945D01*
X195668Y312876D01*
X195650Y311852D01*
X195624Y311825D01*
X195555Y311808D01*
X194504Y311800D01*
X194513Y310645D01*
X196831Y310636D01*
X196839Y309586D01*
X196813Y309525D01*
X196770Y309482D01*
X194548Y309499D01*
X194504Y309542D01*
X194487Y309664D01*
X194504Y309716D01*
X194496Y310645D01*
X193341Y310636D01*
X193324Y309525D01*
X193298Y309499D01*
X193228Y309482D01*
X192204Y309499D01*
X192178Y309525D01*
X192161Y309647D01*
X192169Y309829D01*
X192152Y310645D01*
X191041Y310662D01*
X191015Y310688D01*
X190997Y310758D01*
X191015Y311765D01*
X191058Y311808D01*
X191180Y311825D01*
X191301Y311808D01*
X192161Y311817D01*
X192169Y314065D01*
X192126Y314126D01*
X192048Y314152D01*
X191102Y314143D01*
X191041Y314169D01*
X191015Y314195D01*
X190997Y314265D01*
X190989Y315315D01*
X189878Y315298D01*
X189834Y315254D01*
X189817Y314195D01*
X189773Y314152D01*
X189652Y314135D01*
X189600Y314152D01*
X188775Y314143D01*
X188688Y314178D01*
X188654Y314300D01*
X188671Y314421D01*
X188662Y316374D01*
X188697Y316461D01*
X188819Y316496D01*
X188940Y316478D01*
X189791Y316496D01*
X189817Y316522D01*
X189834Y316591D01*
X189817Y317616D01*
X189721Y317659D01*
X189392Y317641D01*
X188714Y317659D01*
X188671Y317702D01*
X188654Y317841D01*
X188671Y317893D01*
X188654Y318813D01*
X187534Y318822D01*
X187508Y318796D01*
X187490Y316539D01*
X187464Y316496D01*
X187395Y316478D01*
X186449Y316487D01*
X186379Y316470D01*
X186345Y316435D01*
X186327Y316366D01*
X186336Y316114D01*
X186327Y315567D01*
X186345Y315515D01*
X186327Y315376D01*
X186301Y315333D01*
X186232Y315315D01*
X185164Y315324D01*
X185173Y316374D01*
X185138Y316461D01*
X185017Y316496D01*
X184895Y316478D01*
X184044Y316496D01*
X184018Y316522D01*
X184001Y316591D01*
X184018Y318779D01*
X184044Y318805D01*
X184166Y318822D01*
X184348Y318813D01*
X187508Y318831D01*
X187499Y322225D01*
X187534Y322294D01*
X187655Y322329D01*
X187777Y322312D01*
X189730Y322320D01*
X189791Y322294D01*
X189834Y322251D01*
X189817Y321192D01*
X189773Y321148D01*
X188714Y321131D01*
X188671Y321088D01*
X188654Y320966D01*
X188671Y320914D01*
X188680Y318822D01*
X192161Y318831D01*
X192152Y319985D01*
X191102Y319977D01*
X191041Y320003D01*
X191015Y320029D01*
X190997Y320098D01*
X191015Y321105D01*
X191041Y321131D01*
X191110Y321148D01*
X192161Y321157D01*
X192169Y322051D01*
X192161Y322234D01*
X192221Y322312D01*
X192360Y322329D01*
X192412Y322312D01*
X193220Y322320D01*
X193289Y322303D01*
X193324Y322268D01*
X193341Y322199D01*
X193350Y321148D01*
X194504Y321140D01*
X194513Y319985D01*
X195668Y319977D01*
X195676Y318822D01*
X197994Y318831D01*
X197985Y319985D01*
X195668Y319994D01*
X195659Y321148D01*
X194504Y321157D01*
X194496Y322207D01*
X194530Y322294D01*
X194652Y322329D01*
X194773Y322312D01*
X195563Y322320D01*
X195624Y322294D01*
X195668Y322251D01*
X195676Y321148D01*
X197994Y321157D01*
X197985Y322312D01*
X196874Y322329D01*
X196848Y322355D01*
X196831Y322425D01*
X196848Y323431D01*
X196891Y323475D01*
X197013Y323492D01*
X197134Y323475D01*
X197907Y323483D01*
X197968Y323458D01*
X197994Y323431D01*
X198011Y323310D01*
X197994Y323136D01*
X198011Y322320D01*
X199148Y322312D01*
X199174Y322338D01*
X199166Y324551D01*
X199192Y324612D01*
X199218Y324638D01*
X199287Y324655D01*
X199522Y324647D01*
X201501Y324664D01*
X201483Y325775D01*
X201458Y325801D01*
X201388Y325819D01*
X200442Y325810D01*
X200355Y325845D01*
X200320Y325966D01*
X200338Y326088D01*
X200320Y326938D01*
X200294Y326964D01*
X200225Y326982D01*
X198003Y326964D01*
X197994Y324890D01*
X198011Y324838D01*
X197994Y324699D01*
X197950Y324655D01*
X197829Y324638D01*
X197655Y324655D01*
X195754Y324647D01*
X195685Y324681D01*
X195668Y324751D01*
X195659Y325819D01*
X194504Y325827D01*
X194496Y326982D01*
X193367Y326964D01*
X193324Y326869D01*
X193341Y326539D01*
X193350Y325819D01*
X194504Y325810D01*
X194487Y323518D01*
X194392Y323475D01*
X191058Y323492D01*
X191015Y323518D01*
X190997Y323588D01*
X190980Y324647D01*
X190208Y324655D01*
X190155Y324638D01*
X189982Y324655D01*
X189878Y324638D01*
X189852Y324612D01*
X189834Y324542D01*
X189817Y323518D01*
X189791Y323492D01*
X189721Y323475D01*
X188714Y323492D01*
X188671Y323536D01*
X188654Y323675D01*
X188671Y323727D01*
X188662Y325697D01*
X188680Y325766D01*
X188714Y325801D01*
X188784Y325819D01*
X189730Y325810D01*
X189791Y325836D01*
X189834Y325879D01*
X189817Y326938D01*
X189791Y326964D01*
X189721Y326982D01*
X188714Y326999D01*
X188671Y327043D01*
X188654Y327164D01*
X188671Y327216D01*
X188662Y328145D01*
X187508Y328136D01*
X187490Y327025D01*
X187464Y326999D01*
X187395Y326982D01*
X186371Y326999D01*
X186345Y327025D01*
X186327Y327147D01*
X186336Y327329D01*
X186319Y328145D01*
X185286Y328154D01*
X185216Y328136D01*
X185181Y328102D01*
X185164Y328032D01*
X185173Y325923D01*
X185138Y325836D01*
X185017Y325801D01*
X184895Y325819D01*
X184001Y325827D01*
X183984Y326938D01*
X183958Y326964D01*
X183888Y326982D01*
X182838Y326991D01*
X182820Y328102D01*
X182777Y328145D01*
X182655Y328162D01*
X182603Y328145D01*
X181779Y328154D01*
X181692Y328119D01*
X181657Y328032D01*
X181675Y327702D01*
X181666Y327069D01*
X181701Y326999D01*
X181770Y326982D01*
X182838Y326973D01*
X182846Y325819D01*
X184001Y325810D01*
X184010Y322312D01*
X185164Y322303D01*
X185173Y321253D01*
X185147Y321192D01*
X185103Y321148D01*
X184001Y321157D01*
X183992Y322312D01*
X182838Y322320D01*
X182820Y323431D01*
X182777Y323475D01*
X182655Y323492D01*
X182534Y323475D01*
X178167Y323483D01*
X178150Y324647D01*
X177378Y324655D01*
X177325Y324638D01*
X177152Y324655D01*
X177048Y324638D01*
X177004Y324595D01*
X176987Y324473D01*
X177004Y324421D01*
X176996Y323596D01*
X177013Y323527D01*
X177048Y323492D01*
X177117Y323475D01*
X177334Y323483D01*
X178167Y323466D01*
X178150Y322355D01*
X178124Y322329D01*
X178055Y322312D01*
X175945Y322320D01*
X175858Y322286D01*
X175824Y322199D01*
X175841Y321869D01*
X175824Y318865D01*
X175780Y318822D01*
X175711Y318805D01*
X175381Y318822D01*
X174747Y318813D01*
X174687Y318857D01*
X174661Y318935D01*
X174669Y319169D01*
X174661Y325463D01*
X174678Y325515D01*
X174661Y325584D01*
X174678Y325758D01*
X174739Y325819D01*
X175720Y325810D01*
X175789Y325827D01*
X175824Y325862D01*
X175841Y325931D01*
X175832Y326148D01*
X175841Y326956D01*
X175815Y326982D01*
X174704Y326999D01*
X174678Y327025D01*
X174661Y327147D01*
X174669Y327329D01*
X174661Y327789D01*
X174678Y327841D01*
X174661Y327963D01*
X174678Y328102D01*
X174721Y328145D01*
X174860Y328162D01*
X174912Y328145D01*
X175832Y328162D01*
X175841Y329074D01*
X175824Y329126D01*
X175841Y329265D01*
X175884Y329308D01*
X176006Y329326D01*
X176180Y329308D01*
X176727Y329317D01*
X176909Y329308D01*
X176987Y329352D01*
X177004Y329421D01*
X176987Y330480D01*
X176075Y330489D01*
X176023Y330471D01*
X175884Y330489D01*
X175841Y330532D01*
X175824Y330654D01*
X175841Y330827D01*
X175832Y331374D01*
X175841Y331556D01*
X175763Y331652D01*
X174782Y331643D01*
X174713Y331661D01*
X174678Y331695D01*
X174661Y331765D01*
X174669Y331999D01*
X174661Y333622D01*
X174678Y333675D01*
X174661Y333796D01*
X174678Y333935D01*
X174721Y333978D01*
X174860Y333996D01*
X174912Y333978D01*
X178167Y333970D01*
X178176Y331652D01*
X179331Y331643D01*
X179339Y330489D01*
X181675Y330497D01*
X181657Y331643D01*
X179331Y331661D01*
X179348Y332772D01*
X179374Y332798D01*
X179444Y332815D01*
X180468Y332833D01*
X180511Y332928D01*
X180494Y333310D01*
X180503Y333892D01*
X180468Y333961D01*
X180346Y333996D01*
X180277Y333978D01*
X178167Y333987D01*
X178185Y335116D01*
X178280Y335159D01*
X178610Y335141D01*
X181666Y335159D01*
X181675Y336070D01*
X181657Y336122D01*
X181675Y336261D01*
X181718Y336305D01*
X181787Y336322D01*
X182022Y336313D01*
X182482Y336322D01*
X182534Y336305D01*
X182603Y336322D01*
X182777Y336305D01*
X182820Y336279D01*
X182838Y336209D01*
X182846Y335141D01*
X183914Y335150D01*
X183984Y335116D01*
X184001Y335046D01*
X184010Y331652D01*
X185121Y331634D01*
X185164Y331591D01*
X185181Y331470D01*
X185164Y331400D01*
X185173Y330593D01*
X185155Y330523D01*
X185121Y330489D01*
X184999Y330471D01*
X184773Y330489D01*
X184010Y330471D01*
X184001Y329386D01*
X184044Y329326D01*
X184114Y329308D01*
X184331Y329317D01*
X186093Y329308D01*
X186145Y329326D01*
X186284Y329308D01*
X186327Y329265D01*
X186345Y329143D01*
X186327Y328970D01*
X186345Y328154D01*
X187482Y328145D01*
X187508Y328171D01*
X187499Y331548D01*
X187525Y331609D01*
X187569Y331652D01*
X189791Y331634D01*
X189817Y331609D01*
X189834Y331539D01*
X189817Y330515D01*
X189721Y330471D01*
X189339Y330489D01*
X188931Y330480D01*
X188749Y330489D01*
X188671Y330428D01*
X188654Y330306D01*
X188671Y330254D01*
X188680Y328145D01*
X190893Y328154D01*
X190980Y328119D01*
X191015Y327997D01*
X190997Y327876D01*
X191015Y327025D01*
X191041Y326999D01*
X191110Y326982D01*
X192134Y326999D01*
X192178Y327095D01*
X192161Y327477D01*
X192169Y329048D01*
X192161Y329230D01*
X192221Y329308D01*
X192343Y329326D01*
X192517Y329308D01*
X196831Y329299D01*
X196839Y326982D01*
X197994Y326991D01*
X198003Y329221D01*
X197977Y329282D01*
X197950Y329308D01*
X197829Y329326D01*
X197707Y329308D01*
X196831Y329317D01*
X196848Y330428D01*
X196891Y330471D01*
X196961Y330489D01*
X197178Y330480D01*
X197759Y330489D01*
X197812Y330471D01*
X197950Y330489D01*
X197994Y330532D01*
X198011Y330654D01*
X197994Y330827D01*
X198003Y331374D01*
X197994Y331556D01*
X198072Y331652D01*
X199174Y331643D01*
X199166Y328249D01*
X199192Y328188D01*
X199235Y328145D01*
X200294Y328162D01*
X200320Y328188D01*
X200338Y328258D01*
X200329Y329204D01*
X200364Y329291D01*
X200450Y329326D01*
X200780Y329308D01*
X201501Y329299D01*
X201518Y328188D01*
X201544Y328162D01*
X201614Y328145D01*
X202560Y328154D01*
X202647Y328119D01*
X202681Y327997D01*
X202664Y327876D01*
X202681Y327025D01*
X202708Y326999D01*
X202777Y326982D01*
X203801Y326999D01*
X203845Y327095D01*
X203827Y327477D01*
X203836Y329048D01*
X203827Y329230D01*
X203888Y329308D01*
X204010Y329326D01*
X204183Y329308D01*
X204999Y329326D01*
X205008Y330463D01*
X204982Y330489D01*
X203914Y330480D01*
X203845Y330532D01*
X203827Y330602D01*
X203836Y330836D01*
X203819Y331652D01*
X201544Y331634D01*
X201518Y331609D01*
X201501Y331539D01*
X201509Y330489D01*
X202404Y330480D01*
X202586Y330489D01*
X202664Y330428D01*
X202681Y330289D01*
X202664Y330237D01*
X202673Y329430D01*
X202655Y329360D01*
X202621Y329326D01*
X202551Y329308D01*
X201501Y329317D01*
X201483Y330480D01*
X200589Y330489D01*
X200537Y330471D01*
X200381Y330489D01*
X200355Y330515D01*
X200320Y330636D01*
X200338Y330758D01*
X200320Y331609D01*
X200294Y331634D01*
X200225Y331652D01*
X199174Y331661D01*
X199166Y332728D01*
X199200Y332798D01*
X199270Y332815D01*
X202621Y332833D01*
X202664Y332876D01*
X202681Y332997D01*
X202664Y333050D01*
X202655Y333978D01*
X201544Y333996D01*
X201518Y334022D01*
X201501Y334091D01*
X201483Y335116D01*
X201388Y335159D01*
X201058Y335141D01*
X200338Y335133D01*
X200320Y334022D01*
X200294Y333996D01*
X200225Y333978D01*
X194608Y333987D01*
X194548Y333961D01*
X194504Y333917D01*
X194487Y333796D01*
X194504Y333744D01*
X194513Y331652D01*
X195624Y331634D01*
X195650Y331609D01*
X195668Y331539D01*
X195650Y330515D01*
X195555Y330471D01*
X195173Y330489D01*
X194591Y330480D01*
X194530Y330506D01*
X194487Y330619D01*
X194504Y330792D01*
X194496Y331652D01*
X191102Y331643D01*
X191041Y331669D01*
X191015Y331695D01*
X190997Y331765D01*
X191006Y332711D01*
X190980Y332772D01*
X190937Y332815D01*
X188714Y332833D01*
X188671Y332876D01*
X188654Y332997D01*
X188671Y333050D01*
X188662Y335037D01*
X188697Y335124D01*
X188784Y335159D01*
X189114Y335141D01*
X189556Y335150D01*
X189756Y335141D01*
X189817Y335185D01*
X189834Y335254D01*
X189817Y336313D01*
X188923Y336322D01*
X188871Y336305D01*
X188714Y336322D01*
X188688Y336348D01*
X188654Y336470D01*
X188671Y336591D01*
X188662Y337485D01*
X187508Y337494D01*
X187499Y338371D01*
X187508Y338570D01*
X187464Y338631D01*
X187395Y338648D01*
X186371Y338631D01*
X186345Y338605D01*
X186327Y338484D01*
X186345Y338293D01*
X186327Y338241D01*
X186345Y337494D01*
X187508Y337477D01*
X187490Y335202D01*
X187447Y335159D01*
X187378Y335141D01*
X186388Y335159D01*
X186345Y335202D01*
X186327Y335272D01*
X186336Y335506D01*
X186319Y337485D01*
X181779Y337477D01*
X181709Y337494D01*
X181675Y337529D01*
X181657Y337650D01*
X181675Y337824D01*
X181666Y338562D01*
X181701Y338631D01*
X181770Y338648D01*
X185121Y338666D01*
X185164Y338709D01*
X185181Y338831D01*
X185164Y338883D01*
X185155Y339812D01*
X184044Y339829D01*
X184018Y339855D01*
X184001Y339925D01*
X184018Y342112D01*
X184044Y342138D01*
X184166Y342155D01*
X184348Y342147D01*
X184930Y342155D01*
X184982Y342138D01*
X185121Y342155D01*
X185147Y342181D01*
X185181Y342303D01*
X185164Y342425D01*
X185173Y343197D01*
X185155Y343267D01*
X185121Y343301D01*
X185051Y343319D01*
X184105Y343310D01*
X184044Y343336D01*
X184001Y343379D01*
X184018Y344438D01*
X184062Y344482D01*
X187464Y344464D01*
X187490Y344438D01*
X187508Y344369D01*
X187490Y343362D01*
X187447Y343319D01*
X187308Y343301D01*
X187256Y343319D01*
X186388Y343301D01*
X186345Y343258D01*
X186327Y343188D01*
X186336Y342954D01*
X186327Y341001D01*
X186353Y340975D01*
X187499Y340992D01*
X187508Y341904D01*
X187490Y341956D01*
X187508Y342095D01*
X187551Y342138D01*
X187621Y342155D01*
X187855Y342147D01*
X190763Y342155D01*
X190815Y342138D01*
X190954Y342155D01*
X190980Y342181D01*
X191015Y342303D01*
X190997Y342425D01*
X191006Y343197D01*
X190989Y343267D01*
X190954Y343301D01*
X190884Y343319D01*
X188775Y343310D01*
X188688Y343345D01*
X188654Y343466D01*
X188671Y343588D01*
X188662Y345541D01*
X188697Y345628D01*
X188819Y345662D01*
X188940Y345645D01*
X189791Y345662D01*
X189817Y345688D01*
X189834Y345758D01*
X189825Y346808D01*
X188714Y346826D01*
X188671Y346869D01*
X188654Y347008D01*
X188671Y347060D01*
X188662Y347867D01*
X188680Y347937D01*
X188714Y347971D01*
X188784Y347989D01*
X189018Y347980D01*
X189478Y347989D01*
X189530Y347971D01*
X189652Y347989D01*
X189791Y347971D01*
X189817Y347945D01*
X189834Y347876D01*
X189852Y346817D01*
X190659Y346808D01*
X190711Y346826D01*
X190763Y346808D01*
X190954Y346826D01*
X190997Y346869D01*
X191015Y347008D01*
X190997Y347060D01*
X191015Y347928D01*
X191058Y347971D01*
X191128Y347989D01*
X191345Y347980D01*
X192968Y347989D01*
X193020Y347971D01*
X193141Y347989D01*
X193280Y347971D01*
D02*
G37*
G36*
X182777D02*
X182820Y347945D01*
X182838Y347876D01*
X182820Y339855D01*
X182794Y339829D01*
X182725Y339812D01*
X174721Y339829D01*
X174678Y339872D01*
X174661Y339994D01*
X174678Y340063D01*
X174669Y347884D01*
X174695Y347945D01*
X174721Y347971D01*
X174843Y347989D01*
X174990Y347980D01*
X182412Y347989D01*
X182430D01*
X182551Y347971D01*
X182603Y347989D01*
X182777Y347971D01*
D02*
G37*
G36*
X194947Y346808D02*
X195581Y346817D01*
X195650Y346782D01*
X195668Y346713D01*
X195650Y345688D01*
X195624Y345662D01*
X195555Y345645D01*
X195069D01*
X194504Y345654D01*
X194496Y346704D01*
X194530Y346791D01*
X194617Y346826D01*
X194947Y346808D01*
D02*
G37*
G36*
X184444D02*
X184548D01*
X185077Y346817D01*
X185138Y346791D01*
X185164Y346765D01*
X185181Y346626D01*
X185164Y346574D01*
X185173Y345749D01*
X185147Y345688D01*
X185121Y345662D01*
X185051Y345645D01*
X184044Y345662D01*
X184018Y345688D01*
X184001Y345758D01*
X184018Y346782D01*
X184114Y346826D01*
X184444Y346808D01*
D02*
G37*
G36*
X193610Y345645D02*
X194183D01*
X194504Y345636D01*
X194487Y344525D01*
X194461Y344499D01*
X194392Y344482D01*
X193341Y344491D01*
X193333Y345558D01*
X193367Y345628D01*
X193489Y345662D01*
X193610Y345645D01*
D02*
G37*
G36*
X203784Y343301D02*
X203827Y343258D01*
X203845Y343188D01*
X203827Y342859D01*
Y340845D01*
Y340827D01*
X203836Y339898D01*
X203793Y339838D01*
X203766Y339812D01*
X202664Y339820D01*
X202681Y343275D01*
X202708Y343301D01*
X202777Y343319D01*
X203784Y343301D01*
D02*
G37*
G36*
X200780Y340975D02*
X201414Y340984D01*
X201483Y340949D01*
X201501Y340879D01*
X201509Y339812D01*
X202664Y339803D01*
X202673Y338753D01*
X202647Y338692D01*
X202603Y338648D01*
X201501Y338657D01*
Y338987D01*
Y339004D01*
X201492Y339812D01*
X200381Y339829D01*
X200338Y339872D01*
X200320Y339994D01*
X200338Y340046D01*
X200329Y340871D01*
X200364Y340957D01*
X200450Y340992D01*
X200780Y340975D01*
D02*
G37*
G36*
X211961Y338631D02*
X211987Y338605D01*
X212004Y338536D01*
X211987Y337529D01*
X211944Y337485D01*
X211822Y337468D01*
X211753Y337485D01*
X210841Y337494D01*
X210833Y338562D01*
X210867Y338631D01*
X210937Y338648D01*
X211197D01*
X211961Y338631D01*
D02*
G37*
G36*
X201501Y338640D02*
X201483Y337529D01*
X201440Y337485D01*
X201319Y337468D01*
X201267Y337485D01*
X200338Y337494D01*
X200329Y338544D01*
X200355Y338605D01*
X200398Y338648D01*
X200676D01*
X201501Y338640D01*
D02*
G37*
G36*
X180468Y338631D02*
X180511Y338536D01*
X180494Y338154D01*
X180503Y337572D01*
X180477Y337511D01*
X180450Y337485D01*
X180312Y337468D01*
X180260Y337485D01*
X175884Y337468D01*
X175841Y337424D01*
X175824Y337303D01*
X175841Y337181D01*
X175850Y336322D01*
X176727Y336313D01*
X176909Y336322D01*
X176987Y336279D01*
X177004Y336209D01*
X176987Y335185D01*
X176892Y335141D01*
X175884Y335159D01*
X175841Y335202D01*
X175824Y335324D01*
X175841Y335497D01*
X175824Y336313D01*
X174912Y336322D01*
X174860Y336305D01*
X174721Y336322D01*
X174678Y336366D01*
X174661Y336435D01*
X174669Y336669D01*
X174661Y338293D01*
X174678Y338345D01*
X174661Y338466D01*
X174678Y338605D01*
X174704Y338631D01*
X174773Y338648D01*
X175659D01*
X180468Y338631D01*
D02*
G37*
G36*
X185398Y333978D02*
X187386Y333987D01*
X187456Y333970D01*
X187490Y333935D01*
X187508Y333865D01*
X187490Y332858D01*
X187464Y332833D01*
X187395Y332815D01*
X185207Y332833D01*
X185181Y332858D01*
X185164Y332928D01*
Y333414D01*
Y333431D01*
X185181Y333935D01*
X185225Y333978D01*
X185346Y333996D01*
X185398Y333978D01*
D02*
G37*
G36*
X213124Y326964D02*
X213168Y326921D01*
X213150Y324681D01*
X213055Y324638D01*
X212673Y324655D01*
X212013Y324638D01*
X211996Y322503D01*
X211987Y322442D01*
X212004Y322390D01*
X212022Y322355D01*
X212048Y322329D01*
X212117Y322312D01*
X213063Y322320D01*
X213124Y322294D01*
X213168Y322251D01*
X213150Y320029D01*
X213107Y319985D01*
X212985Y319968D01*
X212933Y319985D01*
X210945Y319977D01*
X210876Y319994D01*
X210841Y320029D01*
X210824Y320150D01*
X210841Y320324D01*
X210833Y322034D01*
X210841Y322234D01*
X210780Y322312D01*
X210659Y322329D01*
X210607Y322312D01*
X209704Y322329D01*
X209661Y322425D01*
X209669Y322659D01*
X209661Y323119D01*
X209678Y323171D01*
X209661Y323292D01*
X209678Y323431D01*
X209721Y323475D01*
X209843Y323492D01*
X210016Y323475D01*
X210563Y323483D01*
X210746Y323475D01*
X210824Y323536D01*
X210841Y323605D01*
X210833Y323805D01*
X210841Y324404D01*
X210824Y324456D01*
X210841Y324595D01*
X210884Y324638D01*
X210954Y324655D01*
X211188Y324647D01*
X212004Y324664D01*
X211996Y326878D01*
X212022Y326938D01*
X212065Y326982D01*
X212326D01*
X213124Y326964D01*
D02*
G37*
G36*
X185468Y323475D02*
X186240Y323483D01*
X186301Y323458D01*
X186327Y323431D01*
X186345Y323310D01*
X186327Y323136D01*
X186336Y322398D01*
X186293Y322338D01*
X186267Y322312D01*
X185954D01*
X185164Y322320D01*
X185181Y323431D01*
X185225Y323475D01*
X185346Y323492D01*
X185468Y323475D01*
D02*
G37*
G36*
X180746Y322312D02*
X182838Y322303D01*
X182846Y321148D01*
X184001Y321140D01*
X183984Y320029D01*
X183940Y319985D01*
X183819Y319968D01*
X183766Y319985D01*
X182838Y319994D01*
X182829Y321148D01*
X181701Y321131D01*
X181657Y321036D01*
X181675Y320706D01*
X181683Y319985D01*
X182838Y319977D01*
X182820Y318865D01*
X182777Y318822D01*
X182708Y318805D01*
X182378Y318822D01*
X181761Y318813D01*
X181701Y318839D01*
X181675Y318865D01*
X181657Y318987D01*
X181675Y319161D01*
X181657Y319977D01*
X180520Y319985D01*
X180494Y319959D01*
X180503Y318909D01*
X180477Y318848D01*
X180450Y318822D01*
X180329Y318805D01*
X180155Y318822D01*
X179418Y318813D01*
X179357Y318857D01*
X179331Y318883D01*
Y319421D01*
Y319438D01*
X179348Y319942D01*
X179374Y319968D01*
X179444Y319985D01*
X180494Y319994D01*
X180503Y322051D01*
X180494Y322234D01*
X180555Y322312D01*
X180694Y322329D01*
X180746Y322312D01*
D02*
G37*
G36*
X178124Y321131D02*
X178167Y321088D01*
X178150Y318848D01*
X178055Y318805D01*
X177673Y318822D01*
X177091Y318813D01*
X177030Y318839D01*
X176987Y318952D01*
X177004Y319126D01*
X176996Y320957D01*
X176987Y320966D01*
X177004Y321088D01*
X177065Y321148D01*
X178124Y321131D01*
D02*
G37*
G36*
X207317Y312945D02*
X207334Y312876D01*
X207352Y311852D01*
X207378Y311825D01*
X207447Y311808D01*
X207664Y311817D01*
X208497Y311800D01*
X208506Y310749D01*
X208480Y310688D01*
X208454Y310662D01*
X208384Y310645D01*
X206171Y310654D01*
X206162Y312867D01*
X206180Y312937D01*
X206214Y312971D01*
X206284Y312989D01*
X206518Y312980D01*
X206787Y312989D01*
X206805D01*
X207074Y312980D01*
X207239Y312989D01*
X207317Y312945D01*
D02*
G37*
G36*
X187464Y314135D02*
X187508Y314039D01*
X187516Y312989D01*
X189574Y312980D01*
X189739Y312989D01*
X189817Y312945D01*
X189834Y312876D01*
X189817Y311852D01*
X189791Y311825D01*
X189721Y311808D01*
X188758Y311817D01*
X188688Y311782D01*
X188654Y311661D01*
X188671Y311591D01*
X188654Y309525D01*
X188628Y309499D01*
X188558Y309482D01*
X187534Y309499D01*
X187490Y309595D01*
X187508Y309925D01*
X187490Y312980D01*
X186579Y312989D01*
X186527Y312971D01*
X186388Y312989D01*
X186345Y313032D01*
X186327Y313102D01*
X186336Y313336D01*
X186327Y313796D01*
X186345Y313848D01*
X186327Y313917D01*
X186345Y314091D01*
X186405Y314152D01*
X186631D01*
X187464Y314135D01*
D02*
G37*
G36*
X185164Y315306D02*
Y310654D01*
Y310636D01*
X185173Y309586D01*
X185147Y309525D01*
X185103Y309482D01*
X184044Y309499D01*
X184001Y309542D01*
X184018Y315272D01*
X184062Y315315D01*
X185164Y315306D01*
D02*
G37*
G36*
X174999Y317641D02*
X182734Y317650D01*
X182794Y317624D01*
X182838Y317581D01*
X182820Y309525D01*
X182794Y309499D01*
X182725Y309482D01*
X176405D01*
X174721Y309499D01*
X174678Y309542D01*
X174661Y309664D01*
X174678Y309734D01*
X174669Y317537D01*
X174704Y317624D01*
X174826Y317659D01*
X174999Y317641D01*
D02*
G37*
G36*
X230598Y297639D02*
X230606Y297609D01*
X230594Y297561D01*
X230591Y297527D01*
X230598Y297504D01*
X230594Y292238D01*
X230598Y292152D01*
X230572Y292118D01*
X230511Y292125D01*
X230489Y292133D01*
X230414Y292125D01*
X221801Y292133D01*
X221783Y292152D01*
X221790Y292362D01*
X221783Y297587D01*
X221775Y297609D01*
X221783Y297639D01*
X221817Y297651D01*
X230158D01*
X230575Y297655D01*
X230598Y297639D01*
D02*
G37*
G36*
X180533Y297666D02*
X180559Y297647D01*
X180567Y297617D01*
X180559Y297519D01*
X180563Y288903D01*
X180533Y288866D01*
X180480Y288858D01*
X175026Y288854D01*
X175000Y288866D01*
X174981Y288884D01*
X174974Y288937D01*
X174981Y288990D01*
Y295569D01*
Y295577D01*
X174977Y297636D01*
X174989Y297662D01*
X175023Y297673D01*
X180533Y297666D01*
D02*
G37*
G36*
X175075Y287699D02*
X175098Y287691D01*
X182980D01*
X193794Y287695D01*
X193820Y287676D01*
X193824Y287597D01*
X193816Y287575D01*
X193824Y287499D01*
X193820Y282256D01*
X193831Y282215D01*
X193824Y282185D01*
X193813Y282173D01*
X193782Y282166D01*
X193681Y282170D01*
X175136Y282166D01*
X175113Y282173D01*
X175041Y282162D01*
X175038Y282158D01*
X175015Y282166D01*
X175000Y282173D01*
X174989Y282215D01*
X174996Y282237D01*
X175004Y282290D01*
X174996Y282312D01*
X175004Y287687D01*
X175023Y287706D01*
X175075Y287699D01*
D02*
G37*
G36*
X254420Y277784D02*
X254435Y277777D01*
X254447Y277743D01*
X254439Y277645D01*
Y272534D01*
Y272526D01*
X254443Y272304D01*
X254435Y272266D01*
X254428Y272251D01*
X254398Y272244D01*
X254368Y272251D01*
X254345Y272259D01*
X241901Y272251D01*
X241879Y272244D01*
X241845Y272270D01*
X241837Y272300D01*
X241845Y272443D01*
X241837Y277728D01*
X241830Y277750D01*
X241856Y277784D01*
X241988Y277781D01*
X254292Y277784D01*
X254315Y277777D01*
X254390Y277784D01*
X254398Y277792D01*
X254420Y277784D01*
D02*
G37*
G36*
X240659Y297666D02*
X240686Y297647D01*
X240693Y297617D01*
X240686Y297497D01*
X240689Y272297D01*
X240682Y272259D01*
X240670Y272248D01*
X240667Y272236D01*
X240652Y272229D01*
X240629Y272221D01*
X240584Y272214D01*
X240561Y272221D01*
X235137Y272217D01*
X235115Y272240D01*
X235107Y272270D01*
X235104Y297636D01*
X235115Y297662D01*
X235149Y297673D01*
X235284D01*
X240659Y297666D01*
D02*
G37*
G36*
X220620D02*
X220638Y297647D01*
X220642Y297598D01*
X220635Y272259D01*
X220623Y272233D01*
X220605Y272214D01*
X220439Y272221D01*
X215056Y272229D01*
X215045Y272240D01*
X215030Y272278D01*
X215023Y292046D01*
X214996Y292080D01*
X214959Y292095D01*
X214816Y292088D01*
X205153Y292091D01*
X205108Y292084D01*
X205097Y292080D01*
X205059Y292103D01*
X205048Y292114D01*
X205041Y292167D01*
X205048Y297655D01*
X205067Y297673D01*
X212896D01*
X220620Y297666D01*
D02*
G37*
G36*
X200535D02*
X200554Y297655D01*
X200561Y297624D01*
X200557Y297538D01*
X200561Y274514D01*
Y274506D01*
X200554Y272255D01*
X200527Y272221D01*
X200497Y272214D01*
X200377Y272221D01*
X195036Y272217D01*
X195009Y272229D01*
X194998Y272240D01*
X194983Y272300D01*
X194991Y272413D01*
X194983Y272436D01*
X194987Y297568D01*
X194983Y297639D01*
X195009Y297666D01*
X195039Y297673D01*
X200535Y297666D01*
D02*
G37*
G36*
X175113Y281036D02*
X180533Y281029D01*
X180544Y281018D01*
X180559Y280980D01*
X180563Y272297D01*
X180556Y272266D01*
X180541Y272236D01*
X180526Y272229D01*
X180503Y272221D01*
X180450Y272214D01*
X180428Y272221D01*
X178734D01*
X175011Y272217D01*
X174989Y272240D01*
X174981Y272270D01*
X174974Y272323D01*
X174981Y272345D01*
X174989Y281018D01*
X175007Y281036D01*
X175038Y281044D01*
X175113Y281036D01*
D02*
G37*
G36*
X251838Y267953D02*
X251857Y267942D01*
X251865Y267912D01*
X251872Y267836D01*
X251868Y267772D01*
X251872Y266963D01*
X251865Y266955D01*
X251872Y266933D01*
X251865Y266805D01*
X251831Y266771D01*
X251722Y266775D01*
X251590Y266771D01*
X251582D01*
X251274Y266778D01*
X251247Y266797D01*
X251240Y266827D01*
X251232Y266925D01*
X251240Y266948D01*
X251236Y267855D01*
X251243Y267923D01*
X251266Y267953D01*
X251341Y267960D01*
X251838Y267953D01*
D02*
G37*
G36*
X223736Y265883D02*
X223759Y265875D01*
X223853Y265879D01*
X223898Y265871D01*
X223928Y265864D01*
X224019Y265856D01*
X224105Y265830D01*
X224233Y265807D01*
X224339Y265785D01*
X224436Y265740D01*
X224493Y265728D01*
X224542Y265709D01*
X224557Y265694D01*
X224572Y265687D01*
X224624Y265664D01*
X224674Y265646D01*
X224700Y265627D01*
X224722Y265604D01*
X224805Y265559D01*
X224835Y265529D01*
X224873Y265506D01*
X225042Y265337D01*
X225073Y265284D01*
X225103Y265254D01*
X225118Y265216D01*
X225136Y265167D01*
X225163Y265126D01*
X225178Y265111D01*
X225193Y265073D01*
X225212Y264994D01*
X225223Y264968D01*
X225246Y264930D01*
X225261Y264878D01*
X225268Y264802D01*
X225279Y264746D01*
X225291Y264704D01*
X225298Y264674D01*
X225291Y264622D01*
X225298Y264599D01*
X225313Y264546D01*
X225321Y264516D01*
Y263831D01*
Y263824D01*
X225313Y260519D01*
X225287Y260493D01*
X225234Y260485D01*
X224892Y260489D01*
X224832Y260481D01*
X224828Y260478D01*
X224805Y260485D01*
X224790Y260493D01*
X224771Y260534D01*
X224764Y260564D01*
X224756Y260715D01*
X224749Y260737D01*
X224741Y260790D01*
X224730Y260839D01*
X224715Y260854D01*
X224651Y260843D01*
X224591Y260820D01*
X224572Y260801D01*
X224557Y260794D01*
X224542Y260779D01*
X224504Y260764D01*
X224421Y260718D01*
X224369Y260696D01*
X224339Y260688D01*
X224256Y260643D01*
X224203Y260621D01*
X224154Y260609D01*
X224124Y260602D01*
X224079Y260572D01*
X224037Y260553D01*
X223951Y260534D01*
X223891Y260519D01*
X223789Y260478D01*
X223736Y260470D01*
X223650Y260459D01*
X223612Y260451D01*
X223582Y260444D01*
X223544Y260429D01*
X223503Y260417D01*
X223473Y260410D01*
X223352Y260402D01*
X222494Y260410D01*
X222396Y260455D01*
X222336Y260470D01*
X222291Y260478D01*
X222253Y260500D01*
X222208Y260530D01*
X222155Y260545D01*
X222118Y260568D01*
X222088Y260598D01*
X222073Y260606D01*
X222020Y260636D01*
X221982Y260673D01*
X221967Y260681D01*
X221941Y260707D01*
X221933Y260722D01*
X221915Y260741D01*
X221899Y260749D01*
X221873Y260782D01*
X221866Y260798D01*
X221813Y260850D01*
X221794Y260899D01*
X221783Y260910D01*
X221775Y260926D01*
X221745Y260956D01*
X221734Y260997D01*
X221726Y261027D01*
X221700Y261069D01*
X221685Y261084D01*
X221670Y261121D01*
X221662Y261174D01*
X221647Y261234D01*
X221613Y261328D01*
X221602Y261370D01*
X221587Y261475D01*
X221580Y261618D01*
X221572Y261701D01*
X221557Y261738D01*
X221564Y261874D01*
X221557Y261897D01*
X221572Y262055D01*
X221580Y262077D01*
X221587Y262303D01*
X221595Y262326D01*
X221602Y262371D01*
X221610Y262393D01*
X221617Y262423D01*
X221647Y262521D01*
X221662Y262574D01*
X221674Y262623D01*
X221685Y262649D01*
X221715Y262695D01*
X221730Y262732D01*
X221738Y262762D01*
X221775Y262815D01*
X221798Y262838D01*
X221817Y262887D01*
X221847Y262917D01*
X221862Y262924D01*
X221881Y262943D01*
X221888Y262958D01*
X221922Y262992D01*
X221937Y262999D01*
X221956Y263018D01*
X221963Y263033D01*
X221990Y263060D01*
X222042Y263090D01*
X222095Y263127D01*
X222125Y263135D01*
X222193Y263173D01*
X222208Y263188D01*
X222246Y263203D01*
X222310Y263214D01*
X222340Y263222D01*
X222377Y263237D01*
X222457Y263270D01*
X222554Y263278D01*
X222585Y263285D01*
X222682Y263293D01*
X222705Y263301D01*
X222758Y263308D01*
X222886Y263316D01*
X222923Y263331D01*
X224647Y263338D01*
X224681Y263365D01*
X224689Y263395D01*
X224681Y264569D01*
X224674Y264592D01*
X224666Y264637D01*
X224643Y264689D01*
X224628Y264742D01*
X224621Y264795D01*
X224609Y264836D01*
X224598Y264848D01*
X224591Y264863D01*
X224568Y264885D01*
X224549Y264934D01*
X224523Y264976D01*
X224485Y265013D01*
X224455Y265066D01*
X224444Y265077D01*
X224361Y265122D01*
X224323Y265160D01*
X224252Y265186D01*
X224233Y265205D01*
X224218Y265213D01*
X224165Y265235D01*
X224105Y265243D01*
X224082Y265250D01*
X224041Y265262D01*
X224004Y265277D01*
X223955Y265296D01*
X223804Y265311D01*
X223616Y265318D01*
X223593Y265326D01*
X223518Y265333D01*
X223495Y265326D01*
X223296Y265329D01*
X223228Y265322D01*
X223168Y265314D01*
X222904Y265307D01*
X222754Y265299D01*
X222716Y265292D01*
X222641Y265284D01*
X222611Y265277D01*
X222569Y265265D01*
X222539Y265258D01*
X222441Y265250D01*
X222419Y265243D01*
X222283Y265235D01*
X222261Y265228D01*
X222170Y265220D01*
X222133Y265205D01*
X222091Y265194D01*
X222061Y265186D01*
X222024Y265179D01*
X221978Y265171D01*
X221941Y265164D01*
X221915Y265160D01*
X221866Y265186D01*
X221850Y265247D01*
X221843Y265299D01*
X221820Y265352D01*
X221813Y265405D01*
X221805Y265503D01*
X221798Y265570D01*
X221783Y265608D01*
X221775Y265638D01*
X221805Y265691D01*
X221817Y265702D01*
X221832Y265709D01*
X221869Y265725D01*
X221922Y265732D01*
X222046Y265751D01*
X222084Y265758D01*
X222125Y265770D01*
X222178Y265785D01*
X222208Y265792D01*
X222313Y265807D01*
X222434Y265815D01*
X222457Y265822D01*
X222543Y265834D01*
X222588Y265841D01*
X222618Y265849D01*
X222656Y265856D01*
X222784Y265864D01*
X222814Y265871D01*
X222859Y265879D01*
X222901Y265883D01*
X222923Y265875D01*
X223104Y265883D01*
X223127Y265890D01*
X223736Y265883D01*
D02*
G37*
G36*
X230112D02*
X230188Y265875D01*
X230286Y265868D01*
X230383Y265822D01*
X230414Y265815D01*
X230500Y265796D01*
X230545Y265766D01*
X230557Y265755D01*
X230609Y265732D01*
X230624Y265725D01*
X230655Y265694D01*
X230669Y265687D01*
X230685Y265672D01*
X230737Y265642D01*
X230756Y265623D01*
X230764Y265608D01*
X230798Y265566D01*
X230824Y265540D01*
X230854Y265487D01*
X230869Y265472D01*
X230876Y265457D01*
X230892Y265442D01*
X230899Y265412D01*
X230925Y265341D01*
X230937Y265329D01*
X230944Y265314D01*
X230959Y265299D01*
X230971Y265250D01*
X230978Y265190D01*
X230986Y265152D01*
X231008Y265062D01*
X231027Y264998D01*
X231035Y264863D01*
X231042Y264840D01*
X231035Y260504D01*
X231016Y260485D01*
X230914Y260489D01*
X230542Y260485D01*
X230526Y260493D01*
X230504Y260485D01*
X230429Y260493D01*
X230417Y260504D01*
X230410Y260534D01*
X230402Y264923D01*
X230395Y264945D01*
X230387Y264991D01*
X230350Y265051D01*
X230331Y265100D01*
X230304Y265141D01*
X230293Y265152D01*
X230278Y265160D01*
X230218Y265220D01*
X230203Y265228D01*
X230165Y265243D01*
X230124Y265254D01*
X230086Y265269D01*
X230075Y265280D01*
X230037Y265296D01*
X230007Y265303D01*
X229774Y265311D01*
X229751Y265303D01*
X229601Y265296D01*
X229563Y265280D01*
X229465Y265273D01*
X229427Y265258D01*
X229375Y265243D01*
X229265Y265231D01*
X229205Y265216D01*
X229168Y265201D01*
X229134Y265190D01*
X229081Y265175D01*
X228976Y265160D01*
X228934Y265149D01*
X228897Y265134D01*
X228885Y265122D01*
X228848Y265107D01*
X228818Y265100D01*
X228720Y265085D01*
X228682Y265070D01*
X228599Y265032D01*
X228547Y265017D01*
X228498Y265006D01*
X228419Y264964D01*
X228328Y264942D01*
X228276Y264912D01*
X228208Y264881D01*
X228163Y264874D01*
X228110Y264844D01*
X228065Y264814D01*
X228020Y264806D01*
X227952Y264769D01*
X227937Y264754D01*
X227899Y264738D01*
X227869Y264731D01*
X227816Y264701D01*
X227798Y264659D01*
X227790Y264562D01*
X227783Y260504D01*
X227764Y260485D01*
X227662Y260489D01*
X227290Y260485D01*
X227282Y260493D01*
X227259Y260485D01*
X227176Y260493D01*
X227165Y260504D01*
X227158Y260534D01*
Y263312D01*
Y263319D01*
X227165Y265774D01*
X227184Y265792D01*
X227218Y265796D01*
X227651Y265792D01*
X227666Y265800D01*
X227707Y265781D01*
X227722Y265743D01*
X227730Y265600D01*
X227737Y265510D01*
X227745Y265487D01*
X227752Y265412D01*
X227760Y265367D01*
X227786Y265341D01*
X227847Y265348D01*
X227914Y265378D01*
X227963Y265397D01*
X227975Y265408D01*
X227990Y265416D01*
X228042Y265439D01*
X228072Y265446D01*
X228114Y265457D01*
X228208Y265506D01*
X228268Y265521D01*
X228309Y265533D01*
X228321Y265544D01*
X228336Y265551D01*
X228404Y265581D01*
X228468Y265593D01*
X228505Y265600D01*
X228543Y265615D01*
X228554Y265627D01*
X228607Y265649D01*
X228637Y265657D01*
X228701Y265668D01*
X228731Y265676D01*
X228769Y265691D01*
X228848Y265725D01*
X228953Y265740D01*
X229002Y265751D01*
X229032Y265758D01*
X229081Y265777D01*
X229119Y265792D01*
X229171Y265800D01*
X229202Y265807D01*
X229292Y265815D01*
X229314Y265822D01*
X229394Y265841D01*
X229435Y265852D01*
X229488Y265860D01*
X229578Y265875D01*
X229755Y265886D01*
X230090Y265890D01*
X230112Y265883D01*
D02*
G37*
G36*
X247961D02*
X247984Y265875D01*
X248134Y265868D01*
X248157Y265860D01*
X248240Y265838D01*
X248330Y265815D01*
X248447Y265796D01*
X248484Y265781D01*
X248579Y265740D01*
X248628Y265728D01*
X248688Y265691D01*
X248699Y265679D01*
X248793Y265646D01*
X248838Y265608D01*
X248910Y265574D01*
X248955Y265529D01*
X248970Y265521D01*
X248985Y265506D01*
X249000Y265499D01*
X249030Y265469D01*
X249045Y265461D01*
X249109Y265412D01*
X249132Y265374D01*
X249170Y265337D01*
X249177Y265322D01*
X249230Y265254D01*
X249245Y265239D01*
X249290Y265156D01*
X249305Y265141D01*
X249313Y265126D01*
X249328Y265089D01*
X249346Y265039D01*
X249365Y265013D01*
X249395Y264968D01*
X249407Y264919D01*
X249414Y264889D01*
X249429Y264851D01*
X249463Y264795D01*
X249489Y264633D01*
X249512Y264543D01*
X249523Y264501D01*
X249531Y264471D01*
X249538Y264396D01*
X249546Y264343D01*
X249553Y263952D01*
X249546Y262966D01*
X249527Y262947D01*
X249475Y262939D01*
X249399Y262947D01*
X247570D01*
X246422Y262943D01*
X246335Y262947D01*
X246309Y262928D01*
X246294Y262890D01*
X246301Y261866D01*
X246309Y261844D01*
X246317Y261799D01*
X246339Y261746D01*
X246362Y261671D01*
X246373Y261599D01*
X246380Y261569D01*
X246437Y261460D01*
X246456Y261411D01*
X246497Y261370D01*
X246505Y261355D01*
X246542Y261302D01*
X246595Y261249D01*
X246603Y261234D01*
X246636Y261200D01*
X246652Y261193D01*
X246719Y261140D01*
X246734Y261125D01*
X246749Y261117D01*
X246787Y261102D01*
X246825Y261080D01*
X246870Y261050D01*
X246922Y261042D01*
X246953Y261035D01*
X247002Y261023D01*
X247096Y260982D01*
X247186Y260967D01*
X247306Y260959D01*
X247329Y260952D01*
X247472Y260944D01*
X247495Y260937D01*
X247544Y260926D01*
X247796Y260922D01*
X247818Y260929D01*
X247867Y260941D01*
X247912Y260948D01*
X248007Y260952D01*
X248029Y260944D01*
X248089Y260952D01*
X248112Y260959D01*
X248165Y260967D01*
X248387Y260978D01*
X248417Y260986D01*
X248492Y260993D01*
X248522Y261001D01*
X248560Y261016D01*
X248601Y261027D01*
X248654Y261035D01*
X248786Y261046D01*
X248823Y261053D01*
X248887Y261072D01*
X248993Y261102D01*
X249045Y261110D01*
X249121Y261117D01*
X249143Y261125D01*
X249185Y261136D01*
X249222Y261151D01*
X249264Y261170D01*
X249294Y261178D01*
X249331Y261163D01*
X249343Y261151D01*
X249358Y261091D01*
X249369Y261050D01*
X249388Y261001D01*
X249395Y260971D01*
X249403Y260918D01*
X249411Y260820D01*
X249448Y260722D01*
X249441Y260692D01*
X249399Y260651D01*
X249331Y260621D01*
X249279Y260613D01*
X249249Y260606D01*
X249203Y260598D01*
X249121Y260560D01*
X249091Y260553D01*
X249038Y260545D01*
X249008Y260538D01*
X248914Y260526D01*
X248884Y260519D01*
X248823Y260496D01*
X248782Y260485D01*
X248752Y260478D01*
X248560Y260459D01*
X248496Y260440D01*
X248413Y260432D01*
X248375Y260417D01*
X248255Y260410D01*
X248232Y260402D01*
X248165Y260395D01*
X248142Y260402D01*
X247065Y260410D01*
X247043Y260417D01*
X246990Y260432D01*
X246870Y260462D01*
X246764Y260478D01*
X246715Y260496D01*
X246659Y260530D01*
X246599Y260545D01*
X246557Y260557D01*
X246531Y260575D01*
X246486Y260606D01*
X246444Y260617D01*
X246407Y260632D01*
X246373Y260666D01*
X246358Y260673D01*
X246290Y260711D01*
X246252Y260749D01*
X246237Y260756D01*
X246173Y260805D01*
X246166Y260820D01*
X246147Y260839D01*
X246132Y260846D01*
X246098Y260880D01*
X246091Y260895D01*
X246072Y260914D01*
X246057Y260922D01*
X246030Y260948D01*
X246023Y260963D01*
X245985Y261016D01*
X245963Y261038D01*
X245918Y261121D01*
X245887Y261151D01*
X245872Y261189D01*
X245865Y261219D01*
X245846Y261268D01*
X245816Y261313D01*
X245797Y261362D01*
X245786Y261411D01*
X245763Y261471D01*
X245744Y261513D01*
X245729Y261573D01*
X245718Y261660D01*
X245710Y261697D01*
X245703Y261742D01*
X245688Y261818D01*
X245669Y261881D01*
X245661Y261995D01*
X245654Y262017D01*
X245661Y264290D01*
X245669Y264313D01*
X245677Y264434D01*
X245707Y264501D01*
X245722Y264607D01*
X245733Y264678D01*
X245741Y264716D01*
X245756Y264754D01*
X245767Y264765D01*
X245790Y264817D01*
X245797Y264870D01*
X245805Y264900D01*
X245820Y264938D01*
X245842Y264961D01*
X245850Y264976D01*
X245872Y265028D01*
X245891Y265077D01*
X245933Y265134D01*
X245951Y265182D01*
X245970Y265209D01*
X246008Y265247D01*
X246038Y265299D01*
X246064Y265318D01*
X246091Y265344D01*
X246098Y265359D01*
X246109Y265371D01*
X246125Y265378D01*
X246158Y265412D01*
X246166Y265427D01*
X246185Y265446D01*
X246200Y265454D01*
X246234Y265487D01*
X246241Y265503D01*
X246305Y265544D01*
X246343Y265581D01*
X246392Y265600D01*
X246433Y265627D01*
X246448Y265642D01*
X246463Y265649D01*
X246501Y265664D01*
X246542Y265676D01*
X246584Y265702D01*
X246599Y265717D01*
X246636Y265732D01*
X246693Y265743D01*
X246742Y265762D01*
X246810Y265792D01*
X246840Y265800D01*
X246904Y265811D01*
X246994Y265826D01*
X247054Y265841D01*
X247096Y265852D01*
X247156Y265868D01*
X247208Y265875D01*
X247397Y265883D01*
X247419Y265890D01*
X247961Y265883D01*
D02*
G37*
G36*
X254443Y268036D02*
X254454Y268024D01*
X254462Y267972D01*
X254454Y260511D01*
X254428Y260485D01*
X254326Y260489D01*
X253893Y260485D01*
X253856Y260508D01*
X253844Y260519D01*
X253837Y260572D01*
Y262800D01*
Y262807D01*
X253844Y267927D01*
X253859Y267942D01*
X253863Y267953D01*
X253901Y267968D01*
X253999Y267975D01*
X254176Y267994D01*
X254206Y268002D01*
X254274Y268009D01*
X254319Y268017D01*
X254405Y268043D01*
X254443Y268036D01*
D02*
G37*
G36*
X251846Y265785D02*
X251857Y265774D01*
X251865Y265743D01*
X251872Y265668D01*
X251868Y265604D01*
X251872Y263530D01*
Y263523D01*
X251868Y260666D01*
X251872Y260564D01*
X251865Y260542D01*
X251857Y260511D01*
X251831Y260485D01*
X251274Y260493D01*
X251247Y260511D01*
X251240Y260542D01*
X251232Y260639D01*
X251240Y260662D01*
X251236Y265687D01*
X251243Y265755D01*
X251266Y265785D01*
X251341Y265792D01*
X251846Y265785D01*
D02*
G37*
G36*
X238107D02*
X238119Y265774D01*
X238134Y265721D01*
X238145Y265679D01*
X238152Y265649D01*
X238164Y265608D01*
X238194Y265503D01*
X238201Y265450D01*
X238209Y265374D01*
X238216Y265352D01*
X238228Y265303D01*
X238235Y265273D01*
X238250Y265235D01*
X238262Y265194D01*
X238269Y265164D01*
X238280Y265062D01*
X238295Y265002D01*
X238307Y264961D01*
X238329Y264885D01*
X238344Y264825D01*
X238356Y264723D01*
X238363Y264693D01*
X238386Y264633D01*
X238401Y264573D01*
X238416Y264497D01*
X238423Y264430D01*
X238431Y264385D01*
X238438Y264354D01*
X238454Y264317D01*
X238480Y264230D01*
X238495Y264102D01*
X238502Y264072D01*
X238514Y264023D01*
X238529Y263986D01*
X238540Y263944D01*
X238548Y263914D01*
X238563Y263824D01*
X238570Y263749D01*
X238578Y263718D01*
X238597Y263669D01*
X238612Y263632D01*
X238619Y263602D01*
X238627Y263564D01*
X238634Y263504D01*
X238649Y263406D01*
X238657Y263376D01*
X238672Y263338D01*
X238683Y263297D01*
X238698Y263237D01*
X238713Y263109D01*
X238721Y263078D01*
X238755Y262984D01*
X238766Y262943D01*
X238773Y262913D01*
X238781Y262860D01*
X238792Y262774D01*
X238804Y262732D01*
X238811Y262702D01*
X238841Y262604D01*
X238849Y262551D01*
X238867Y262435D01*
X238883Y262375D01*
X238905Y262314D01*
X238916Y262273D01*
X238924Y262220D01*
X238935Y262134D01*
X238950Y262073D01*
X238969Y262010D01*
X238984Y261972D01*
X238992Y261919D01*
X239003Y261833D01*
X239018Y261757D01*
X239026Y261727D01*
X239041Y261690D01*
X239059Y261626D01*
X239067Y261596D01*
X239078Y261486D01*
X239090Y261445D01*
X239097Y261415D01*
X239127Y261317D01*
X239135Y261287D01*
X239142Y261211D01*
X239150Y261159D01*
X239157Y261129D01*
X239184Y261057D01*
X239199Y261042D01*
X239229Y261050D01*
X239263Y261076D01*
X239278Y261114D01*
X239293Y261174D01*
X239304Y261253D01*
X239312Y261283D01*
X239334Y261328D01*
X239349Y261366D01*
X239361Y261407D01*
X239368Y261460D01*
X239387Y261539D01*
X239406Y261573D01*
Y261580D01*
X239428Y261633D01*
X239462Y261787D01*
X239496Y261866D01*
X239504Y261897D01*
X239511Y261949D01*
X239519Y261979D01*
X239549Y262055D01*
X239579Y262153D01*
X239586Y262205D01*
X239598Y262254D01*
X239613Y262292D01*
X239647Y262371D01*
X239658Y262435D01*
X239666Y262480D01*
X239673Y262510D01*
X239688Y262548D01*
X239722Y262627D01*
X239741Y262743D01*
X239756Y262781D01*
X239790Y262860D01*
X239824Y263015D01*
X239839Y263052D01*
X239857Y263093D01*
X239865Y263124D01*
X239873Y263176D01*
X239884Y263218D01*
X239914Y263293D01*
X239940Y263380D01*
X239967Y263496D01*
X239997Y263572D01*
X240008Y263605D01*
X240034Y263722D01*
X240049Y263760D01*
X240068Y263809D01*
X240091Y263899D01*
X240102Y263971D01*
X240113Y263997D01*
X240143Y264042D01*
X240159Y264132D01*
X240166Y264162D01*
X240185Y264242D01*
X240200Y264279D01*
X240219Y264321D01*
X240234Y264381D01*
X240241Y264441D01*
X240264Y264494D01*
X240279Y264531D01*
X240302Y264607D01*
X240320Y264701D01*
X240343Y264761D01*
X240358Y264799D01*
X240369Y264840D01*
X240377Y264870D01*
X240396Y264949D01*
X240426Y265024D01*
X240437Y265066D01*
X240452Y265126D01*
X240460Y265194D01*
X240512Y265307D01*
X240524Y265371D01*
X240531Y265416D01*
X240539Y265446D01*
X240561Y265506D01*
X240580Y265548D01*
X240588Y265578D01*
X240595Y265631D01*
X240603Y265661D01*
X240621Y265709D01*
X240659Y265770D01*
X240674Y265785D01*
X240727Y265792D01*
X241472Y265785D01*
X241514Y265751D01*
X241529Y265691D01*
X241540Y265627D01*
X241555Y265589D01*
X241574Y265548D01*
X241589Y265495D01*
X241600Y265431D01*
X241608Y265386D01*
X241615Y265356D01*
X241627Y265329D01*
X241657Y265284D01*
X241668Y265220D01*
X241683Y265137D01*
X241713Y265055D01*
X241732Y265006D01*
X241739Y264976D01*
X241751Y264896D01*
X241766Y264859D01*
X241800Y264780D01*
X241811Y264731D01*
X241818Y264686D01*
X241826Y264648D01*
X241833Y264618D01*
X241849Y264580D01*
X241882Y264501D01*
X241894Y264430D01*
X241901Y264392D01*
X241924Y264332D01*
X241939Y264294D01*
X241950Y264260D01*
X241958Y264208D01*
X241977Y264129D01*
X241992Y264091D01*
X242018Y264027D01*
X242033Y263967D01*
X242044Y263895D01*
X242059Y263858D01*
X242093Y263779D01*
X242101Y263749D01*
X242112Y263662D01*
X242142Y263587D01*
X242154Y263575D01*
X242165Y263534D01*
X242172Y263496D01*
X242187Y263414D01*
X242195Y263383D01*
X242236Y263289D01*
X242244Y263237D01*
X242251Y263206D01*
X242266Y263139D01*
X242312Y263041D01*
X242330Y262924D01*
X242360Y262841D01*
X242376Y262804D01*
X242387Y262762D01*
X242394Y262710D01*
X242402Y262680D01*
X242421Y262631D01*
X242440Y262589D01*
X242455Y262537D01*
X242470Y262446D01*
X242485Y262386D01*
X242522Y262303D01*
X242537Y262243D01*
X242549Y262186D01*
X242556Y262156D01*
X242579Y262096D01*
X242598Y262047D01*
X242605Y262017D01*
X242620Y261919D01*
X242665Y261821D01*
X242677Y261772D01*
X242684Y261735D01*
X242692Y261690D01*
X242699Y261660D01*
X242714Y261622D01*
X242733Y261580D01*
X242748Y261520D01*
X242759Y261471D01*
X242775Y261411D01*
X242797Y261351D01*
X242816Y261309D01*
X242831Y261219D01*
X242842Y261178D01*
X242865Y261117D01*
X242921Y261023D01*
X242933Y261012D01*
X242955Y261020D01*
X242967Y261053D01*
X242982Y261159D01*
X242989Y261257D01*
X242997Y261279D01*
X243042Y261430D01*
X243057Y261535D01*
X243079Y261626D01*
X243109Y261723D01*
X243117Y261754D01*
X243128Y261840D01*
X243143Y261930D01*
X243166Y261991D01*
X243177Y262032D01*
X243185Y262062D01*
X243211Y262224D01*
X243234Y262284D01*
X243245Y262326D01*
X243253Y262356D01*
X243268Y262446D01*
X243275Y262521D01*
X243283Y262551D01*
X243313Y262649D01*
X243328Y262702D01*
X243335Y262732D01*
X243362Y262894D01*
X243384Y262954D01*
X243403Y263018D01*
X243411Y263071D01*
X243418Y263146D01*
X243426Y263169D01*
X243437Y263225D01*
X243460Y263285D01*
X243471Y263327D01*
X243494Y263485D01*
X243524Y263590D01*
X243546Y263666D01*
X243554Y263696D01*
X243561Y263771D01*
X243569Y263824D01*
X243588Y263873D01*
X243599Y263914D01*
X243614Y263967D01*
X243625Y264016D01*
X243633Y264084D01*
X243640Y264144D01*
X243670Y264227D01*
X243682Y264268D01*
X243689Y264298D01*
X243704Y264403D01*
X243723Y264482D01*
X243738Y264543D01*
X243753Y264580D01*
X243761Y264610D01*
X243768Y264656D01*
X243776Y264716D01*
X243783Y264761D01*
X243791Y264791D01*
X243802Y264832D01*
X243825Y264908D01*
X243840Y264968D01*
X243847Y265021D01*
X243855Y265104D01*
X243885Y265179D01*
X243907Y265269D01*
X243915Y265322D01*
X243923Y265352D01*
X243930Y265435D01*
X243938Y265457D01*
X243968Y265533D01*
X243975Y265563D01*
X243983Y265615D01*
X243990Y265646D01*
X244002Y265725D01*
X244017Y265762D01*
X244032Y265777D01*
X244084Y265792D01*
X244581Y265785D01*
X244600Y265774D01*
X244608Y265743D01*
X244600Y265676D01*
X244585Y265638D01*
X244570Y265578D01*
X244555Y265472D01*
X244536Y265393D01*
X244521Y265356D01*
X244502Y265292D01*
X244495Y265262D01*
X244483Y265160D01*
X244476Y265122D01*
X244453Y265062D01*
X244431Y264972D01*
X244423Y264934D01*
X244408Y264814D01*
X244401Y264784D01*
X244386Y264746D01*
X244367Y264697D01*
X244359Y264644D01*
X244352Y264614D01*
X244333Y264497D01*
X244318Y264437D01*
X244284Y264328D01*
X244276Y264275D01*
X244269Y264245D01*
X244261Y264162D01*
X244231Y264087D01*
X244216Y264035D01*
X244209Y264004D01*
X244197Y263918D01*
X244190Y263858D01*
X244175Y263797D01*
X244148Y263733D01*
X244137Y263685D01*
X244130Y263639D01*
X244122Y263572D01*
X244114Y263534D01*
X244107Y263504D01*
X244088Y263455D01*
X244073Y263395D01*
X244062Y263346D01*
X244047Y263248D01*
X244039Y263203D01*
X244032Y263173D01*
X244017Y263135D01*
X243998Y263071D01*
X243990Y263041D01*
X243983Y262966D01*
X243971Y262902D01*
X243941Y262826D01*
X243934Y262789D01*
X243926Y262758D01*
X243919Y262721D01*
X243904Y262623D01*
X243896Y262585D01*
X243881Y262525D01*
X243866Y262488D01*
X243855Y262446D01*
X243840Y262341D01*
X243821Y262254D01*
X243810Y262213D01*
X243779Y262107D01*
X243772Y262077D01*
X243764Y262002D01*
X243757Y261972D01*
X243742Y261919D01*
X243734Y261889D01*
X243704Y261791D01*
X243697Y261716D01*
X243689Y261686D01*
X243678Y261622D01*
X243663Y261584D01*
X243655Y261554D01*
X243644Y261513D01*
X243629Y261452D01*
X243621Y261377D01*
X243610Y261313D01*
X243588Y261253D01*
X243561Y261166D01*
X243542Y261035D01*
X243535Y260997D01*
X243520Y260937D01*
X243497Y260876D01*
X243490Y260846D01*
X243482Y260809D01*
X243475Y260741D01*
X243463Y260669D01*
X243433Y260594D01*
X243403Y260511D01*
X243377Y260485D01*
X242489Y260493D01*
X242470Y260511D01*
X242417Y260624D01*
X242409Y260654D01*
X242402Y260707D01*
X242394Y260752D01*
X242379Y260790D01*
X242360Y260839D01*
X242338Y260899D01*
X242330Y260929D01*
X242315Y261020D01*
X242274Y261114D01*
X242251Y261242D01*
X242244Y261272D01*
X242225Y261321D01*
X242199Y261385D01*
X242184Y261445D01*
X242172Y261516D01*
X242157Y261554D01*
X242138Y261596D01*
X242123Y261648D01*
X242108Y261738D01*
X242093Y261799D01*
X242056Y261881D01*
X242041Y261942D01*
X242029Y262013D01*
X242022Y262043D01*
X241980Y262138D01*
X241969Y262209D01*
X241962Y262247D01*
X241954Y262277D01*
X241931Y262322D01*
X241913Y262363D01*
X241901Y262412D01*
X241894Y262473D01*
X241886Y262503D01*
X241875Y262544D01*
X241860Y262582D01*
X241837Y262634D01*
X241830Y262664D01*
X241811Y262774D01*
X241796Y262811D01*
X241762Y262890D01*
X241751Y262962D01*
X241743Y263007D01*
X241713Y263090D01*
X241698Y263127D01*
X241687Y263169D01*
X241679Y263222D01*
X241660Y263301D01*
X241619Y263395D01*
X241612Y263447D01*
X241604Y263477D01*
X241596Y263523D01*
X241559Y263605D01*
X241544Y263658D01*
X241532Y263730D01*
X241525Y263760D01*
X241502Y263820D01*
X241483Y263869D01*
X241468Y263929D01*
X241461Y263982D01*
X241453Y264012D01*
X241442Y264053D01*
X241408Y264132D01*
X241393Y264193D01*
X241382Y264264D01*
X241352Y264339D01*
X241333Y264388D01*
X241318Y264479D01*
X241310Y264509D01*
X241299Y264558D01*
X241258Y264652D01*
X241250Y264704D01*
X241231Y264784D01*
X241201Y264859D01*
X241190Y264900D01*
X241175Y264961D01*
X241163Y265009D01*
X241130Y265119D01*
X241111Y265167D01*
X241096Y265205D01*
X241073Y265235D01*
X241036Y265228D01*
X241017Y265179D01*
X241009Y265089D01*
X240994Y265051D01*
X240949Y264908D01*
X240938Y264829D01*
X240923Y264791D01*
X240896Y264727D01*
X240885Y264678D01*
X240878Y264648D01*
X240870Y264603D01*
X240862Y264573D01*
X240844Y264524D01*
X240828Y264486D01*
X240813Y264434D01*
X240806Y264403D01*
X240795Y264332D01*
X240787Y264302D01*
X240753Y264223D01*
X240738Y264162D01*
X240731Y264110D01*
X240723Y264080D01*
X240708Y264042D01*
X240701Y264027D01*
X240678Y263974D01*
X240663Y263914D01*
X240655Y263854D01*
X240648Y263831D01*
X240637Y263790D01*
X240621Y263752D01*
X240595Y263688D01*
X240584Y263624D01*
X240576Y263579D01*
X240569Y263549D01*
X240527Y263455D01*
X240520Y263402D01*
X240512Y263372D01*
X240501Y263316D01*
X240494Y263285D01*
X240452Y263184D01*
X240437Y263093D01*
X240430Y263063D01*
X240411Y263015D01*
X240392Y262973D01*
X240377Y262913D01*
X240369Y262860D01*
X240354Y262800D01*
X240335Y262751D01*
X240320Y262713D01*
X240302Y262649D01*
X240294Y262597D01*
X240286Y262567D01*
X240275Y262525D01*
X240234Y262431D01*
X240219Y262326D01*
X240192Y262254D01*
X240181Y262243D01*
X240174Y262213D01*
X240159Y262175D01*
X240147Y262088D01*
X240140Y262058D01*
X240125Y262021D01*
X240106Y261972D01*
X240091Y261919D01*
X240083Y261889D01*
X240072Y261818D01*
X240065Y261787D01*
X240023Y261693D01*
X240016Y261663D01*
X240008Y261611D01*
X239993Y261543D01*
X239963Y261475D01*
X239955Y261445D01*
X239940Y261392D01*
X239929Y261321D01*
X239921Y261291D01*
X239906Y261253D01*
X239873Y261174D01*
X239854Y261057D01*
X239839Y261020D01*
X239805Y260941D01*
X239797Y260888D01*
X239790Y260858D01*
X239778Y260801D01*
X239763Y260764D01*
X239737Y260700D01*
X239722Y260639D01*
X239711Y260575D01*
X239703Y260545D01*
X239681Y260508D01*
X239666Y260500D01*
X239643Y260493D01*
X239613Y260485D01*
X238834Y260489D01*
X238747Y260485D01*
X238728Y260504D01*
X238721Y260534D01*
X238713Y260587D01*
X238702Y260636D01*
X238694Y260666D01*
X238676Y260715D01*
X238653Y260805D01*
X238645Y260880D01*
X238638Y260910D01*
X238630Y260971D01*
X238600Y261046D01*
X238585Y261099D01*
X238578Y261129D01*
X238570Y261204D01*
X238559Y261268D01*
X238536Y261328D01*
X238517Y261392D01*
X238510Y261445D01*
X238502Y261475D01*
X238495Y261550D01*
X238487Y261580D01*
X238480Y261626D01*
X238450Y261693D01*
X238435Y261754D01*
X238416Y261893D01*
X238397Y261957D01*
X238367Y262062D01*
X238359Y262092D01*
X238348Y262179D01*
X238340Y262224D01*
X238333Y262254D01*
X238318Y262292D01*
X238307Y262333D01*
X238299Y262363D01*
X238269Y262544D01*
X238262Y262574D01*
X238235Y262646D01*
X238224Y262687D01*
X238216Y262717D01*
X238197Y262841D01*
X238190Y262879D01*
X238167Y262939D01*
X238156Y262981D01*
X238149Y263033D01*
X238141Y263063D01*
X238122Y263173D01*
X238107Y263233D01*
X238085Y263293D01*
X238077Y263323D01*
X238066Y263425D01*
X238047Y263504D01*
X238039Y263534D01*
X238013Y263598D01*
X237998Y263688D01*
X237979Y263812D01*
X237972Y263850D01*
X237953Y263892D01*
X237930Y263967D01*
X237923Y264042D01*
X237915Y264095D01*
X237908Y264125D01*
X237896Y264174D01*
X237889Y264204D01*
X237862Y264268D01*
X237855Y264321D01*
X237847Y264351D01*
X237836Y264430D01*
X237829Y264467D01*
X237821Y264497D01*
X237795Y264562D01*
X237787Y264592D01*
X237780Y264644D01*
X237768Y264731D01*
X237761Y264761D01*
X237753Y264799D01*
X237742Y264840D01*
X237727Y264878D01*
X237712Y264930D01*
X237704Y265006D01*
X237697Y265058D01*
X237686Y265100D01*
X237655Y265175D01*
X237648Y265205D01*
X237641Y265243D01*
X237633Y265311D01*
X237625Y265356D01*
X237603Y265446D01*
X237569Y265555D01*
X237558Y265649D01*
X237550Y265694D01*
X237543Y265732D01*
X237539Y265743D01*
X237561Y265781D01*
X237603Y265792D01*
X238081Y265796D01*
X238107Y265785D01*
D02*
G37*
G36*
X236684D02*
X236703Y265766D01*
X236658Y265683D01*
X236620Y265646D01*
X236613Y265631D01*
X236579Y265589D01*
X236553Y265563D01*
X236545Y265548D01*
X236530Y265533D01*
X236523Y265517D01*
X236504Y265499D01*
X236492Y265495D01*
X236485Y265480D01*
X236470Y265465D01*
X236447Y265427D01*
X236417Y265397D01*
X236410Y265382D01*
X236357Y265314D01*
X236327Y265284D01*
X236304Y265247D01*
X236259Y265201D01*
X236251Y265186D01*
X236225Y265152D01*
X236210Y265145D01*
X236191Y265126D01*
X236154Y265058D01*
X236116Y265021D01*
X236108Y265006D01*
X236075Y264964D01*
X236041Y264930D01*
X236018Y264893D01*
X235965Y264840D01*
X235943Y264802D01*
X235898Y264757D01*
X235868Y264704D01*
X235856Y264686D01*
X235841Y264678D01*
X235830Y264667D01*
X235822Y264652D01*
X235807Y264637D01*
X235800Y264622D01*
X235755Y264577D01*
X235747Y264562D01*
X235713Y264520D01*
X235679Y264486D01*
X235672Y264471D01*
X235638Y264430D01*
X235619Y264411D01*
X235612Y264396D01*
X235559Y264328D01*
X235536Y264305D01*
X235529Y264290D01*
X235514Y264275D01*
X235506Y264260D01*
X235461Y264215D01*
X235454Y264200D01*
X235420Y264159D01*
X235393Y264132D01*
X235371Y264095D01*
X235326Y264050D01*
X235318Y264035D01*
X235280Y263982D01*
X235250Y263952D01*
X235243Y263937D01*
X235190Y263869D01*
X235168Y263846D01*
X235160Y263831D01*
X235145Y263816D01*
X235141Y263805D01*
X235126Y263797D01*
X235107Y263779D01*
X235100Y263763D01*
X235066Y263722D01*
X235032Y263688D01*
X235002Y263636D01*
X234957Y263590D01*
X234949Y263575D01*
X234915Y263534D01*
X234904Y263523D01*
X234896Y263508D01*
X234881Y263492D01*
X234859Y263455D01*
X234814Y263410D01*
X234806Y263395D01*
X234780Y263361D01*
X234765Y263353D01*
X234746Y263334D01*
X234738Y263319D01*
X234697Y263263D01*
X234682Y263255D01*
X234656Y263206D01*
X234648Y263176D01*
X234656Y263131D01*
X234671Y263116D01*
X234678Y263101D01*
X234731Y263048D01*
X234753Y263011D01*
X234806Y262958D01*
X234829Y262920D01*
X234848Y262902D01*
X234863Y262894D01*
X234893Y262849D01*
X234911Y262823D01*
X234934Y262800D01*
X234942Y262785D01*
X234994Y262717D01*
X235024Y262687D01*
X235032Y262672D01*
X235047Y262657D01*
X235055Y262642D01*
X235077Y262627D01*
X235085Y262612D01*
X235100Y262597D01*
X235107Y262582D01*
X235141Y262540D01*
X235160Y262521D01*
X235168Y262506D01*
X235228Y262446D01*
X235235Y262431D01*
X235288Y262363D01*
X235303Y262348D01*
X235311Y262333D01*
X235344Y262292D01*
X235378Y262258D01*
X235401Y262220D01*
X235454Y262168D01*
X235476Y262130D01*
X235529Y262077D01*
X235551Y262040D01*
X235581Y262010D01*
X235589Y261995D01*
X235642Y261927D01*
X235672Y261897D01*
X235679Y261881D01*
X235713Y261840D01*
X235747Y261806D01*
X235755Y261791D01*
X235789Y261750D01*
X235807Y261731D01*
X235815Y261716D01*
X235875Y261656D01*
X235883Y261641D01*
X235935Y261573D01*
X235950Y261558D01*
X235958Y261543D01*
X235992Y261501D01*
X236026Y261468D01*
X236060Y261411D01*
X236075Y261403D01*
X236101Y261377D01*
X236124Y261339D01*
X236176Y261287D01*
X236184Y261272D01*
X236218Y261230D01*
X236229Y261219D01*
X236237Y261204D01*
X236289Y261136D01*
X236319Y261106D01*
X236327Y261091D01*
X236361Y261050D01*
X236395Y261016D01*
X236402Y261001D01*
X236436Y260959D01*
X236455Y260941D01*
X236462Y260926D01*
X236477Y260910D01*
X236485Y260895D01*
X236511Y260876D01*
X236523Y260865D01*
X236530Y260850D01*
X236583Y260782D01*
X236598Y260767D01*
X236605Y260752D01*
X236647Y260696D01*
X236658Y260692D01*
X236666Y260677D01*
X236688Y260654D01*
X236696Y260639D01*
X236715Y260613D01*
X236730Y260606D01*
X236748Y260587D01*
X236786Y260504D01*
X236782Y260493D01*
X236752Y260485D01*
X236703Y260489D01*
X236030Y260485D01*
X235992Y260508D01*
X235981Y260519D01*
X235973Y260534D01*
X235913Y260594D01*
X235905Y260609D01*
X235853Y260677D01*
X235838Y260692D01*
X235815Y260730D01*
X235781Y260764D01*
X235770Y260767D01*
X235762Y260782D01*
X235728Y260831D01*
X235713Y260839D01*
X235695Y260858D01*
X235664Y260910D01*
X235619Y260956D01*
X235585Y261020D01*
X235570Y261027D01*
X235551Y261046D01*
X235544Y261061D01*
X235510Y261110D01*
X235495Y261117D01*
X235469Y261144D01*
X235446Y261181D01*
X235401Y261227D01*
X235378Y261264D01*
X235360Y261291D01*
X235344Y261298D01*
X235311Y261355D01*
X235303Y261370D01*
X235250Y261422D01*
X235228Y261460D01*
X235183Y261505D01*
X235175Y261520D01*
X235141Y261562D01*
X235126Y261569D01*
X235085Y261633D01*
X235047Y261671D01*
X235039Y261686D01*
X235009Y261738D01*
X234998Y261750D01*
X234983Y261757D01*
X234972Y261769D01*
X234964Y261784D01*
X234927Y261836D01*
X234900Y261855D01*
X234874Y261897D01*
X234821Y261949D01*
X234791Y262002D01*
X234753Y262040D01*
X234723Y262092D01*
X234678Y262138D01*
X234671Y262153D01*
X234637Y262194D01*
X234603Y262228D01*
X234580Y262265D01*
X234528Y262318D01*
X234505Y262356D01*
X234475Y262386D01*
X234467Y262401D01*
X234419Y262473D01*
X234385Y262506D01*
X234377Y262521D01*
X234343Y262563D01*
X234324Y262574D01*
X234317Y262589D01*
X234283Y262638D01*
X234268Y262646D01*
X234249Y262664D01*
X234242Y262680D01*
X234204Y262732D01*
X234174Y262762D01*
X234144Y262815D01*
X234099Y262860D01*
X234068Y262913D01*
X234023Y262950D01*
X234016Y262966D01*
X233982Y263007D01*
X233948Y263041D01*
X233925Y263078D01*
X233895Y263109D01*
X233888Y263124D01*
X233873Y263161D01*
X233880Y263222D01*
X233940Y263282D01*
X233971Y263334D01*
X233982Y263346D01*
X233997Y263353D01*
X234008Y263365D01*
X234038Y263417D01*
X234065Y263436D01*
X234084Y263455D01*
X234106Y263492D01*
X234151Y263538D01*
X234189Y263605D01*
X234234Y263651D01*
X234257Y263688D01*
X234302Y263733D01*
X234324Y263771D01*
X234377Y263824D01*
X234400Y263861D01*
X234445Y263907D01*
X234479Y263971D01*
X234494Y263978D01*
X234513Y263997D01*
X234543Y264050D01*
X234595Y264102D01*
X234603Y264117D01*
X234629Y264151D01*
X234644Y264159D01*
X234656Y264170D01*
X234663Y264185D01*
X234704Y264242D01*
X234720Y264249D01*
X234753Y264305D01*
X234761Y264321D01*
X234806Y264366D01*
X234836Y264419D01*
X234863Y264437D01*
X234874Y264449D01*
X234881Y264464D01*
X234915Y264505D01*
X234949Y264539D01*
X234957Y264554D01*
X234991Y264595D01*
X235017Y264622D01*
X235024Y264637D01*
X235043Y264671D01*
X235047Y264674D01*
X235081Y264716D01*
X235100Y264735D01*
X235122Y264772D01*
X235175Y264825D01*
X235198Y264863D01*
X235216Y264881D01*
X235228Y264885D01*
X235235Y264900D01*
X235288Y264968D01*
X235318Y264998D01*
X235348Y265051D01*
X235378Y265081D01*
X235386Y265096D01*
X235427Y265152D01*
X235442Y265160D01*
X235454Y265171D01*
X235461Y265186D01*
X235495Y265228D01*
X235529Y265262D01*
X235551Y265299D01*
X235597Y265344D01*
X235634Y265412D01*
X235679Y265457D01*
X235702Y265495D01*
X235747Y265540D01*
X235755Y265555D01*
X235789Y265597D01*
X235822Y265631D01*
X235845Y265668D01*
X235890Y265713D01*
X235898Y265728D01*
X235932Y265770D01*
X235947Y265785D01*
X236022Y265792D01*
X236684Y265785D01*
D02*
G37*
G36*
X233553Y268036D02*
X233572Y268017D01*
X233579Y267964D01*
X233572Y267934D01*
X233564Y260504D01*
X233545Y260485D01*
X233444Y260489D01*
X233071Y260485D01*
X233056Y260493D01*
X233033Y260485D01*
X232958Y260493D01*
X232947Y260504D01*
X232939Y260534D01*
Y260647D01*
Y260654D01*
X232947Y267942D01*
X232966Y267960D01*
X232996Y267968D01*
X233157Y267979D01*
X233233Y267987D01*
X233293Y267994D01*
X233334Y268005D01*
X233470Y268028D01*
X233492Y268036D01*
X233523Y268043D01*
X233553Y268036D01*
D02*
G37*
G36*
X217857Y267735D02*
X217880Y267727D01*
X217910Y267720D01*
X217962Y267712D01*
X218098Y267704D01*
X218120Y267697D01*
X218245Y267686D01*
X218320Y267678D01*
X218350Y267671D01*
X218425Y267640D01*
X218485Y267625D01*
X218598Y267603D01*
X218647Y267584D01*
X218692Y267554D01*
X218741Y267543D01*
X218772Y267535D01*
X218809Y267520D01*
X218835Y267501D01*
X218873Y267479D01*
X218922Y267460D01*
X218933Y267448D01*
X218948Y267441D01*
X218979Y267411D01*
X219027Y267392D01*
X219092Y267328D01*
X219107Y267320D01*
X219148Y267287D01*
X219268Y267166D01*
X219291Y267128D01*
X219336Y267083D01*
X219351Y267046D01*
X219385Y267004D01*
X219404Y266970D01*
X219411Y266940D01*
X219430Y266891D01*
X219442Y266880D01*
X219449Y266865D01*
X219464Y266850D01*
X219479Y266812D01*
X219498Y266726D01*
X219513Y266688D01*
X219532Y266647D01*
X219547Y266594D01*
X219554Y266564D01*
X219562Y266466D01*
X219569Y266436D01*
X219577Y266383D01*
X219584Y266361D01*
X219592Y266248D01*
X219607Y266210D01*
X219615Y266090D01*
X219607Y264802D01*
X219592Y264765D01*
X219584Y264712D01*
X219577Y264592D01*
X219569Y264569D01*
X219562Y264516D01*
X219554Y264441D01*
X219547Y264388D01*
X219521Y264317D01*
X219502Y264275D01*
X219487Y264223D01*
Y264215D01*
X219483Y264211D01*
X219475Y264181D01*
X219460Y264144D01*
X219430Y264099D01*
X219411Y264050D01*
X219381Y263997D01*
X219351Y263967D01*
X219306Y263884D01*
X219268Y263846D01*
X219261Y263831D01*
X219234Y263797D01*
X219219Y263790D01*
X219193Y263756D01*
X219186Y263741D01*
X219174Y263730D01*
X219159Y263722D01*
X219118Y263688D01*
X219084Y263654D01*
X219069Y263647D01*
X219016Y263609D01*
X218971Y263579D01*
X218918Y263549D01*
X218896Y263526D01*
X218843Y263504D01*
X218794Y263485D01*
X218738Y263451D01*
X218685Y263436D01*
X218655Y263428D01*
X218613Y263417D01*
X218519Y263376D01*
X218482Y263353D01*
X218470Y263342D01*
X218467Y263308D01*
X218482Y263270D01*
X218512Y263240D01*
X218523Y263237D01*
X218531Y263222D01*
X218568Y263154D01*
X218606Y263116D01*
X218651Y263033D01*
X218666Y263018D01*
X218674Y263003D01*
X218711Y262935D01*
X218757Y262890D01*
X218775Y262841D01*
X218787Y262830D01*
X218794Y262815D01*
X218817Y262792D01*
X218824Y262777D01*
X218854Y262725D01*
X218892Y262687D01*
X218922Y262634D01*
X218941Y262608D01*
X218956Y262600D01*
X219001Y262510D01*
X219042Y262469D01*
X219080Y262401D01*
X219110Y262371D01*
X219129Y262322D01*
X219159Y262277D01*
X219170Y262273D01*
X219178Y262258D01*
X219208Y262205D01*
X219242Y262164D01*
X219253Y262153D01*
X219268Y262115D01*
X219291Y262077D01*
X219329Y262040D01*
X219366Y261972D01*
X219396Y261942D01*
X219411Y261904D01*
X219442Y261851D01*
X219479Y261814D01*
X219509Y261761D01*
X219547Y261723D01*
X219566Y261674D01*
X219584Y261656D01*
X219592Y261641D01*
X219615Y261618D01*
X219652Y261550D01*
X219682Y261520D01*
X219728Y261437D01*
X219750Y261415D01*
X219758Y261400D01*
X219795Y261332D01*
X219833Y261294D01*
X219878Y261211D01*
X219901Y261189D01*
X219946Y261106D01*
X219976Y261076D01*
X219984Y261061D01*
X220014Y261008D01*
X220047Y260967D01*
X220085Y260907D01*
X220119Y260873D01*
X220164Y260790D01*
X220194Y260760D01*
X220239Y260677D01*
X220270Y260647D01*
X220315Y260564D01*
X220337Y260542D01*
X220330Y260489D01*
X220296Y260478D01*
X220213Y260493D01*
X220191Y260485D01*
X219649Y260493D01*
X219626Y260515D01*
X219611Y260523D01*
X219584Y260542D01*
X219577Y260557D01*
X219539Y260624D01*
X219509Y260654D01*
X219487Y260707D01*
X219479Y260722D01*
X219434Y260767D01*
X219426Y260782D01*
X219389Y260835D01*
X219366Y260858D01*
X219321Y260941D01*
X219299Y260963D01*
X219291Y260978D01*
X219253Y261046D01*
X219223Y261076D01*
X219216Y261091D01*
X219178Y261159D01*
X219148Y261189D01*
X219110Y261257D01*
X219076Y261298D01*
X219042Y261362D01*
X219020Y261385D01*
X219012Y261400D01*
X218997Y261415D01*
X218982Y261452D01*
X218964Y261479D01*
X218948Y261486D01*
X218930Y261505D01*
X218884Y261588D01*
X218854Y261618D01*
X218809Y261701D01*
X218779Y261731D01*
X218772Y261761D01*
X218719Y261829D01*
X218681Y261897D01*
X218644Y261934D01*
X218598Y262017D01*
X218568Y262047D01*
X218523Y262130D01*
X218493Y262160D01*
X218455Y262228D01*
X218425Y262258D01*
X218418Y262273D01*
X218388Y262326D01*
X218357Y262356D01*
X218350Y262371D01*
X218312Y262439D01*
X218279Y262480D01*
X218245Y262544D01*
X218207Y262582D01*
X218162Y262664D01*
X218139Y262687D01*
X218132Y262702D01*
X218094Y262770D01*
X218071Y262785D01*
X218064Y262800D01*
X218034Y262853D01*
X218019Y262868D01*
X218011Y262883D01*
X217989Y262905D01*
X217951Y262973D01*
X217913Y263011D01*
X217876Y263078D01*
X217853Y263101D01*
X217846Y263116D01*
X217800Y263199D01*
X217755Y263244D01*
X217748Y263259D01*
X217729Y263278D01*
X217676Y263285D01*
X217646Y263278D01*
X215726Y263270D01*
X215693Y263244D01*
X215685Y263191D01*
X215677Y260526D01*
X215659Y260500D01*
X215621Y260485D01*
X215064Y260493D01*
X215038Y260519D01*
X215030Y260549D01*
X215038Y267708D01*
X215049Y267727D01*
X215087Y267742D01*
X217857Y267735D01*
D02*
G37*
%LPC*%
G36*
X211857Y346826D02*
X211631Y346808D01*
X206293Y346817D01*
X206223Y346799D01*
X206188Y346765D01*
X206171Y346695D01*
X206188Y341036D01*
X206232Y340992D01*
X206301Y340975D01*
X211709Y340984D01*
X211909Y340975D01*
X211987Y341018D01*
X212022Y341140D01*
X212004Y341209D01*
Y344004D01*
Y344022D01*
X212013Y346704D01*
X211978Y346791D01*
X211857Y346826D01*
D02*
G37*
%LPD*%
G36*
X207569Y345645D02*
X210720Y345654D01*
X210789Y345636D01*
X210824Y345602D01*
X210841Y345532D01*
X210824Y342199D01*
X210780Y342155D01*
X210711Y342138D01*
X210381Y342155D01*
X208958D01*
X207421Y342147D01*
X207352Y342181D01*
X207334Y342251D01*
X207352Y345602D01*
X207395Y345645D01*
X207517Y345662D01*
X207569Y345645D01*
D02*
G37*
%LPC*%
G36*
X198098Y346817D02*
X198037Y346791D01*
X198011Y346765D01*
X197994Y346695D01*
X198003Y346444D01*
X197994Y346018D01*
X198011Y345966D01*
X197994Y345793D01*
X198011Y345706D01*
X198072Y345645D01*
X198593D01*
X200294Y345662D01*
X200320Y345688D01*
X200338Y345758D01*
X200329Y346808D01*
X198098Y346817D01*
D02*
G37*
G36*
X193159Y340992D02*
X193037Y340975D01*
X192265Y340984D01*
X192204Y340957D01*
X192178Y340931D01*
X192161Y340862D01*
X192169Y340610D01*
X192161Y340428D01*
Y340411D01*
X192178Y338657D01*
X193263Y338648D01*
X193324Y338692D01*
X193341Y338761D01*
X193333Y338978D01*
X193341Y340636D01*
X193324Y340688D01*
X193341Y340740D01*
X193324Y340931D01*
X193280Y340975D01*
X193159Y340992D01*
D02*
G37*
G36*
X190884D02*
X190555Y340975D01*
X189921Y340984D01*
X189852Y340949D01*
X189834Y340879D01*
X189817Y339855D01*
X189791Y339829D01*
X189721Y339812D01*
X188671Y339820D01*
X188654Y340931D01*
X188610Y340975D01*
X188489Y340992D01*
X188367Y340975D01*
X187508Y340966D01*
X187499Y339916D01*
X187525Y339855D01*
X187569Y339812D01*
X188671Y339803D01*
X188680Y337485D01*
X189834Y337477D01*
Y336348D01*
Y336331D01*
X190989Y336322D01*
X190997Y337477D01*
X189834Y337494D01*
X189852Y338605D01*
X189895Y338648D01*
X190997Y338640D01*
X191006Y337485D01*
X192161Y337494D01*
X192152Y338648D01*
X190997Y338657D01*
X191006Y340871D01*
X190971Y340957D01*
X190884Y340992D01*
D02*
G37*
G36*
X185268Y340984D02*
X185207Y340957D01*
X185181Y340931D01*
X185164Y340862D01*
X185173Y339812D01*
X186267D01*
X186327Y339872D01*
X186345Y339942D01*
X186327Y340272D01*
X186319Y340975D01*
X185268Y340984D01*
D02*
G37*
G36*
X193263Y337485D02*
X192169Y337468D01*
X192161Y336348D01*
X192187Y336322D01*
X192256D01*
X193341Y336331D01*
X193333Y337208D01*
X193341Y337390D01*
X193263Y337485D01*
D02*
G37*
G36*
X210051Y336322D02*
X209999Y336305D01*
X209773Y336322D01*
X209687Y336270D01*
X209661Y336192D01*
X209669Y335940D01*
X209661Y335168D01*
X209687Y335141D01*
X210563Y335150D01*
X210746Y335141D01*
X210824Y335202D01*
X210841Y335272D01*
X210833Y335471D01*
X210841Y336157D01*
Y336175D01*
X210824Y336313D01*
X210051Y336322D01*
D02*
G37*
G36*
X194591Y340984D02*
X194522Y340949D01*
X194487Y340827D01*
X194504Y340758D01*
X194513Y336322D01*
X195581Y336313D01*
X195650Y336348D01*
X195668Y336418D01*
X195685Y337442D01*
X195711Y337468D01*
X195780Y337485D01*
X196787Y337468D01*
X196831Y337424D01*
X196848Y337303D01*
X196831Y337233D01*
Y337129D01*
Y337112D01*
X196848Y336366D01*
X196891Y336322D01*
X196961Y336305D01*
X197291Y336322D01*
X197733Y336313D01*
X197916Y336322D01*
X197994Y336261D01*
X198011Y336192D01*
X197994Y335862D01*
X198003Y335402D01*
X197994Y335237D01*
X198055Y335159D01*
X198124Y335141D01*
X198324Y335150D01*
X200312Y335141D01*
X200338Y335168D01*
X200320Y336313D01*
X199409Y336322D01*
X199357Y336305D01*
X199218Y336322D01*
X199174Y336366D01*
X199157Y336487D01*
X199174Y336661D01*
X199157Y337477D01*
X198211Y337485D01*
X198159Y337468D01*
X198046Y337494D01*
X198011Y337529D01*
X197994Y337598D01*
X198003Y337832D01*
X197994Y338397D01*
X198011Y338449D01*
X197994Y338588D01*
X197968Y338631D01*
X197898Y338648D01*
X196874Y338666D01*
X196848Y338692D01*
X196831Y338761D01*
X196822Y339812D01*
X195711Y339829D01*
X195685Y339855D01*
X195668Y339925D01*
X195659Y340975D01*
X194591Y340984D01*
D02*
G37*
G36*
X193367Y336322D02*
X193341Y336296D01*
Y335359D01*
Y335341D01*
X193350Y335141D01*
X194227Y335150D01*
X194409Y335141D01*
X194487Y335185D01*
X194504Y335254D01*
X194487Y336313D01*
X193367Y336322D01*
D02*
G37*
G36*
X202777Y335159D02*
X202690Y335107D01*
X202664Y335029D01*
Y334161D01*
Y334143D01*
X202673Y333978D01*
X204964Y333996D01*
X205008Y334091D01*
X204999Y334308D01*
X205008Y335133D01*
X202890Y335150D01*
X202777Y335159D01*
D02*
G37*
G36*
X192100Y336322D02*
X191006Y336305D01*
X190997Y334056D01*
X191041Y333996D01*
X191110Y333978D01*
X192968D01*
X193298Y333996D01*
X193341Y334091D01*
X193333Y334308D01*
X193341Y335133D01*
X192221Y335159D01*
X192178Y335202D01*
X192161Y335272D01*
X192169Y335506D01*
X192152Y336305D01*
X192100Y336322D01*
D02*
G37*
G36*
X182829Y335141D02*
X181675Y335133D01*
X181666Y334083D01*
X181692Y334022D01*
X181735Y333978D01*
X182378D01*
X182794Y333996D01*
X182820Y334022D01*
X182838Y334091D01*
X182829Y335141D01*
D02*
G37*
G36*
X209652D02*
X206171Y335133D01*
X206180Y331652D01*
X207230Y331643D01*
X207291Y331669D01*
X207299Y331678D01*
X207334Y331713D01*
X207352Y333935D01*
X207395Y333978D01*
X207517Y333996D01*
X207569Y333978D01*
X208393Y333987D01*
X208480Y333952D01*
X208515Y333831D01*
X208497Y333709D01*
X208515Y332858D01*
X208541Y332833D01*
X208610Y332815D01*
X209634Y332833D01*
X209678Y332928D01*
X209661Y333310D01*
X209652Y335141D01*
D02*
G37*
G36*
X204895Y332815D02*
X203871Y332798D01*
X203845Y332772D01*
X203827Y332650D01*
X203836Y332555D01*
X203845Y332546D01*
X203827Y332268D01*
X203845Y331661D01*
X205008Y331643D01*
X205016Y330489D01*
X206171Y330497D01*
X206162Y331652D01*
X205008Y331661D01*
X204999Y332537D01*
X205008Y332737D01*
X204964Y332798D01*
X204895Y332815D01*
D02*
G37*
G36*
X182725D02*
X181701Y332798D01*
X181657Y332702D01*
X181675Y332372D01*
X181683Y331652D01*
X182838Y331643D01*
X182846Y330489D01*
X184001Y330497D01*
X183992Y331652D01*
X182838Y331661D01*
Y331921D01*
Y331938D01*
X182820Y332772D01*
X182794Y332798D01*
X182725Y332815D01*
D02*
G37*
G36*
X178159Y331652D02*
X177569D01*
X177048Y331634D01*
X177004Y331591D01*
X176987Y331470D01*
X177004Y331417D01*
X177013Y330489D01*
X178167Y330497D01*
X178159Y331652D01*
D02*
G37*
G36*
X210815D02*
X210780D01*
X209721Y331634D01*
X209678Y331591D01*
X209661Y331522D01*
X209669Y331287D01*
X209661Y330515D01*
X209687Y330489D01*
X210737Y330480D01*
X210798Y330506D01*
X210824Y330532D01*
X210841Y330602D01*
X210833Y330819D01*
X210841Y331626D01*
X210815Y331652D01*
D02*
G37*
G36*
X181701Y330489D02*
X181675Y330463D01*
X181666Y329412D01*
X181692Y329352D01*
X181718Y329326D01*
X181787Y329308D01*
X182004Y329317D01*
X182499Y329308D01*
X182551Y329326D01*
X182603Y329308D01*
X182777Y329326D01*
X182820Y329352D01*
X182838Y329421D01*
Y330133D01*
Y330150D01*
X182820Y330480D01*
X181701Y330489D01*
D02*
G37*
G36*
X178194D02*
X178167Y330463D01*
X178185Y329352D01*
X178211Y329326D01*
X178280Y329308D01*
X178497Y329317D01*
X178992Y329308D01*
X179044Y329326D01*
X179096Y329308D01*
X179287Y329326D01*
X179331Y329369D01*
X179348Y329508D01*
X179331Y329560D01*
Y330376D01*
Y330393D01*
X179313Y330480D01*
X178194Y330489D01*
D02*
G37*
G36*
X210659Y329326D02*
X210537Y329308D01*
X209669Y329291D01*
X209661Y328171D01*
X209687Y328145D01*
X210833Y328162D01*
X210841Y328171D01*
Y328188D01*
X210833Y329030D01*
X210841Y329230D01*
X210780Y329308D01*
X210659Y329326D01*
D02*
G37*
G36*
X195485Y328162D02*
X195433Y328145D01*
X194608Y328154D01*
X194548Y328128D01*
X194504Y328084D01*
X194487Y327963D01*
X194504Y327911D01*
X194513Y326982D01*
X195668Y326973D01*
X195676Y325819D01*
X195919D01*
X196727Y325810D01*
X196813Y325845D01*
X196848Y325966D01*
X196831Y326088D01*
X196822Y326982D01*
X195668Y326991D01*
X195650Y328102D01*
X195607Y328145D01*
X195485Y328162D01*
D02*
G37*
G36*
X179183D02*
X179062Y328145D01*
X178289Y328154D01*
X178220Y328136D01*
X178167Y328084D01*
X178176Y324655D01*
X179244Y324647D01*
X179305Y324673D01*
X179348Y324786D01*
X179331Y324959D01*
X179348Y325775D01*
X179374Y325801D01*
X179444Y325819D01*
X180494Y325827D01*
Y326036D01*
Y326053D01*
X180503Y326895D01*
X180468Y326964D01*
X180398Y326982D01*
X179374Y326999D01*
X179348Y327025D01*
X179331Y327095D01*
X179339Y328041D01*
X179305Y328128D01*
X179183Y328162D01*
D02*
G37*
G36*
X176822D02*
X176770Y328145D01*
X175841Y328136D01*
X175850Y326982D01*
X176648D01*
X176961Y326999D01*
X176987Y327025D01*
X177004Y327095D01*
X176987Y328102D01*
X176944Y328145D01*
X176822Y328162D01*
D02*
G37*
G36*
X203714Y325819D02*
X202708Y325801D01*
X202681Y325775D01*
X202664Y325706D01*
X202673Y324655D01*
X202812D01*
X203827Y324664D01*
X203836Y325732D01*
X203793Y325793D01*
X203714Y325819D01*
D02*
G37*
G36*
X193315D02*
X193176D01*
X191041Y325801D01*
X191015Y325775D01*
X190997Y325706D01*
X191006Y324655D01*
X193237Y324647D01*
X193298Y324673D01*
X193324Y324699D01*
X193341Y324768D01*
X193333Y324985D01*
X193341Y325793D01*
X193315Y325819D01*
D02*
G37*
G36*
X182829D02*
X180902D01*
X180503Y325801D01*
X180494Y325029D01*
X180511Y324977D01*
X180494Y324751D01*
X180546Y324664D01*
X180641Y324638D01*
X180919Y324655D01*
X182751Y324647D01*
X182812Y324690D01*
X182838Y324716D01*
X182829Y325819D01*
D02*
G37*
G36*
X206145Y324655D02*
X203836Y324638D01*
X203827Y323727D01*
X203845Y323675D01*
X203827Y323536D01*
X203784Y323492D01*
X203714Y323475D01*
X202725Y323492D01*
X202681Y323518D01*
X202664Y323588D01*
X202647Y324647D01*
X201527Y324655D01*
X201501Y324629D01*
X201483Y322355D01*
X201458Y322329D01*
X201388Y322312D01*
X199174Y322303D01*
X199157Y321192D01*
X199131Y321166D01*
X199062Y321148D01*
X198003Y321131D01*
X197994Y320011D01*
X198020Y319985D01*
X199131Y319968D01*
X199174Y319872D01*
X199183Y318822D01*
X200251Y318813D01*
X200312Y318857D01*
X200338Y318883D01*
X200329Y319864D01*
X200346Y319933D01*
X200381Y319968D01*
X200450Y319985D01*
X201501Y319977D01*
X201518Y318848D01*
X201614Y318805D01*
X201996Y318822D01*
X202577Y318813D01*
X202638Y318839D01*
X202681Y318952D01*
X202664Y319126D01*
X202659Y319600D01*
X205400D01*
Y321146D01*
X206171Y321140D01*
X206162Y320089D01*
X206197Y320003D01*
X206319Y319968D01*
X206440Y319985D01*
X208393Y319977D01*
X208480Y320011D01*
X208515Y320133D01*
X208497Y320254D01*
X208489Y321148D01*
X207464D01*
X206171Y321157D01*
X206162Y322312D01*
X205400Y322306D01*
Y322400D01*
X205000D01*
X205008Y323240D01*
X204991Y323292D01*
X205008Y323431D01*
X205051Y323475D01*
X205173Y323492D01*
X205346Y323475D01*
X206162Y323492D01*
X206171Y324629D01*
X206145Y324655D01*
D02*
G37*
G36*
X207221Y323492D02*
X206891Y323475D01*
X206839D01*
X206171Y323466D01*
X206180Y322312D01*
X207291Y322329D01*
X207317Y322355D01*
X207334Y322425D01*
X207317Y323449D01*
X207221Y323492D01*
D02*
G37*
G36*
X192187Y321148D02*
X192161Y321122D01*
X192178Y319994D01*
X193341Y319977D01*
X193350Y318822D01*
X194504Y318831D01*
X194496Y319985D01*
X193819D01*
X193341Y319994D01*
X193324Y321140D01*
X192187Y321148D01*
D02*
G37*
G36*
X207169Y318822D02*
X207013Y318805D01*
X206996D01*
X206926Y318822D01*
X204088Y318813D01*
X203923Y318822D01*
X203845Y318761D01*
X203827Y318692D01*
X203836Y318440D01*
X203827Y315688D01*
X203845Y315636D01*
X203827Y315463D01*
X203845Y315358D01*
X203871Y315333D01*
X203940Y315315D01*
X207291Y315333D01*
X207334Y315376D01*
X207317Y318779D01*
X207291Y318805D01*
X207169Y318822D01*
D02*
G37*
G36*
X202551Y317659D02*
X202221Y317641D01*
X202030D01*
X201588Y317650D01*
X201518Y317616D01*
X201501Y317546D01*
X201509Y316478D01*
X202621Y316496D01*
X202664Y316539D01*
X202681Y316661D01*
X202664Y316713D01*
X202673Y317537D01*
X202638Y317624D01*
X202551Y317659D01*
D02*
G37*
G36*
X198020Y318822D02*
X197994Y318796D01*
X198011Y317650D01*
X199148Y317641D01*
X199174Y317668D01*
Y318744D01*
Y318761D01*
X199157Y318813D01*
X198020Y318822D01*
D02*
G37*
G36*
X194530D02*
X194504Y318796D01*
X194513Y317641D01*
X195668Y317633D01*
X195676Y316478D01*
X197994Y316487D01*
X197985Y317641D01*
X197673D01*
X195668Y317650D01*
X195650Y318813D01*
X194530Y318822D01*
D02*
G37*
G36*
X200207Y312989D02*
X199973Y312980D01*
X199200Y312989D01*
X199174Y312963D01*
X199166Y311912D01*
X199192Y311852D01*
X199218Y311825D01*
X199287Y311808D01*
X199504Y311817D01*
X199999Y311808D01*
X200051Y311825D01*
X200103Y311808D01*
X200277Y311825D01*
X200320Y311852D01*
X200338Y311921D01*
Y312407D01*
Y312424D01*
X200320Y312928D01*
X200277Y312971D01*
X200207Y312989D01*
D02*
G37*
G36*
X194478D02*
X194392D01*
X193584Y312980D01*
X193419Y312989D01*
X193341Y312928D01*
X193324Y312806D01*
X193341Y312685D01*
X193350Y311808D01*
X194496Y311825D01*
X194504Y312963D01*
X194478Y312989D01*
D02*
G37*
G36*
X200155Y317659D02*
X200034Y317641D01*
X199174Y317633D01*
X199183Y316478D01*
X200338Y316470D01*
X200329Y315437D01*
X200338Y315428D01*
Y315411D01*
X200355Y315358D01*
X200398Y315315D01*
X201501Y315306D01*
X201518Y314195D01*
X201562Y314152D01*
X201683Y314135D01*
X201735Y314152D01*
X202664Y314143D01*
X202681Y313032D01*
X202725Y312989D01*
X202794Y312971D01*
X203124Y312989D01*
X203827Y312997D01*
X203836Y314065D01*
X203793Y314126D01*
X203714Y314152D01*
X202664Y314161D01*
X202673Y315211D01*
X202647Y315272D01*
X202603Y315315D01*
X201501Y315324D01*
X201492Y316478D01*
X200338Y316487D01*
X200320Y317598D01*
X200277Y317641D01*
X200155Y317659D01*
D02*
G37*
G36*
X202551Y311825D02*
X202221Y311808D01*
X201588Y311817D01*
X201518Y311782D01*
X201501Y311713D01*
X201509Y310645D01*
X202621Y310662D01*
X202664Y310706D01*
X202681Y310827D01*
X202664Y310879D01*
Y310914D01*
Y310931D01*
X202673Y311704D01*
X202638Y311791D01*
X202551Y311825D01*
D02*
G37*
G36*
X193333Y311808D02*
X192169Y311791D01*
X192161Y310671D01*
X192187Y310645D01*
X193333Y310662D01*
X193341Y311088D01*
Y311105D01*
X193333Y311808D01*
D02*
G37*
%LPD*%
G36*
X202600Y321131D02*
Y319986D01*
X201501Y319994D01*
X201518Y321105D01*
X201562Y321148D01*
X202600Y321131D01*
D02*
G37*
G36*
X205346Y317641D02*
X206067Y317650D01*
X206128Y317624D01*
X206171Y317581D01*
X206154Y316522D01*
X206128Y316496D01*
X206058Y316478D01*
X205954D01*
X205051Y316496D01*
X205008Y316539D01*
X204991Y316661D01*
X205008Y316782D01*
X204999Y317555D01*
X205025Y317616D01*
X205051Y317641D01*
X205173Y317659D01*
X205346Y317641D01*
D02*
G37*
%LPC*%
G36*
X181492Y346826D02*
X181371Y346808D01*
X179634D01*
X175963Y346817D01*
X175893Y346799D01*
X175841Y346747D01*
X175858Y341018D01*
X175954Y340975D01*
X181379Y340984D01*
X181579Y340975D01*
X181657Y341018D01*
X181675Y341088D01*
X181657Y346765D01*
X181614Y346808D01*
X181492Y346826D01*
D02*
G37*
%LPD*%
G36*
X177273Y345645D02*
X178957D01*
X180390Y345654D01*
X180477Y345619D01*
X180511Y345532D01*
X180494Y345150D01*
X180503Y342242D01*
X180477Y342181D01*
X180450Y342155D01*
X180329Y342138D01*
X180155Y342155D01*
X177091Y342147D01*
X177030Y342173D01*
X176987Y342286D01*
X177004Y342459D01*
X176996Y345541D01*
X177030Y345628D01*
X177152Y345662D01*
X177273Y345645D01*
D02*
G37*
%LPC*%
G36*
X181492Y316496D02*
X181440Y316478D01*
X175884Y316461D01*
X175841Y316418D01*
X175858Y310688D01*
X175884Y310662D01*
X176006Y310645D01*
X181631Y310662D01*
X181657Y310688D01*
X181675Y310758D01*
Y311192D01*
Y311209D01*
X181657Y316435D01*
X181614Y316478D01*
X181492Y316496D01*
D02*
G37*
%LPD*%
G36*
X180468Y315298D02*
X180511Y315202D01*
X180494Y314820D01*
X180503Y311895D01*
X180459Y311834D01*
X180381Y311808D01*
X177343D01*
X177048Y311825D01*
X177004Y311869D01*
X176987Y312008D01*
X177004Y312060D01*
X176996Y315211D01*
X177022Y315272D01*
X177065Y315315D01*
X180468Y315298D01*
D02*
G37*
%LPC*%
G36*
X220400Y276400D02*
X217600D01*
Y273600D01*
X220400D01*
Y276400D01*
D02*
G37*
G36*
X224602Y262774D02*
X223036Y262766D01*
X223013Y262758D01*
X222983Y262751D01*
X222825Y262743D01*
X222788Y262728D01*
X222735Y262721D01*
X222705Y262713D01*
X222618Y262702D01*
X222558Y262664D01*
X222468Y262619D01*
X222441Y262600D01*
X222411Y262570D01*
X222396Y262563D01*
X222370Y262537D01*
X222362Y262521D01*
X222325Y262484D01*
X222317Y262469D01*
X222250Y262326D01*
X222234Y262273D01*
X222227Y262220D01*
X222219Y262145D01*
X222212Y262115D01*
X222204Y262025D01*
X222189Y261979D01*
Y261972D01*
X222197Y261633D01*
X222212Y261596D01*
X222223Y261479D01*
X222238Y261388D01*
X222246Y261358D01*
X222261Y261321D01*
X222295Y261257D01*
X222332Y261189D01*
X222362Y261159D01*
X222370Y261144D01*
X222404Y261110D01*
X222419Y261102D01*
X222460Y261069D01*
X222479Y261050D01*
X222532Y261035D01*
X222562Y261027D01*
X222675Y260974D01*
X222792Y260963D01*
X222837Y260956D01*
X223262Y260952D01*
X223285Y260959D01*
X223416Y260971D01*
X223492Y260978D01*
X223537Y260986D01*
X223567Y260993D01*
X223627Y261016D01*
X223691Y261035D01*
X223744Y261042D01*
X223823Y261061D01*
X223872Y261087D01*
X223909Y261102D01*
X223966Y261114D01*
X224015Y261133D01*
X224113Y261178D01*
X224162Y261189D01*
X224188Y261200D01*
X224229Y261234D01*
X224278Y261253D01*
X224339Y261276D01*
X224354Y261291D01*
X224369Y261298D01*
X224384Y261313D01*
X224455Y261339D01*
X224482Y261358D01*
X224504Y261381D01*
X224587Y261426D01*
X224609Y261449D01*
X224624Y261456D01*
X224640Y261471D01*
X224655Y261479D01*
X224674Y261490D01*
X224689Y261528D01*
X224681Y262740D01*
X224655Y262766D01*
X224602Y262774D01*
D02*
G37*
G36*
X247788Y265356D02*
X247442Y265348D01*
X247419Y265341D01*
X247367Y265333D01*
X247337Y265326D01*
X247220Y265314D01*
X247152Y265307D01*
X247114Y265299D01*
X247077Y265284D01*
X246998Y265250D01*
X246968Y265243D01*
X246919Y265231D01*
X246892Y265220D01*
X246840Y265182D01*
X246802Y265167D01*
X246749Y265137D01*
X246719Y265107D01*
X246667Y265077D01*
X246640Y265051D01*
X246633Y265036D01*
X246606Y265017D01*
X246572Y264983D01*
X246565Y264968D01*
X246520Y264923D01*
X246482Y264855D01*
X246444Y264802D01*
X246418Y264731D01*
X246377Y264652D01*
X246350Y264528D01*
X246335Y264490D01*
X246317Y264426D01*
X246298Y264294D01*
X246294Y263861D01*
Y263854D01*
X246301Y263530D01*
X246328Y263504D01*
X248902Y263511D01*
X248944Y263545D01*
X248951Y263620D01*
X248944Y264065D01*
X248921Y264117D01*
X248925Y264227D01*
X248917Y264309D01*
X248910Y264385D01*
X248902Y264452D01*
X248895Y264497D01*
X248887Y264535D01*
X248880Y264565D01*
X248865Y264603D01*
X248838Y264667D01*
X248827Y264723D01*
X248816Y264750D01*
X248782Y264791D01*
X248744Y264889D01*
X248710Y264923D01*
X248703Y264938D01*
X248650Y265006D01*
X248624Y265024D01*
X248612Y265036D01*
X248605Y265051D01*
X248571Y265085D01*
X248556Y265092D01*
X248515Y265126D01*
X248488Y265152D01*
X248451Y265167D01*
X248383Y265205D01*
X248368Y265220D01*
X248330Y265235D01*
X248300Y265243D01*
X248229Y265269D01*
X248187Y265288D01*
X248157Y265296D01*
X248067Y265311D01*
X247991Y265318D01*
X247961Y265326D01*
X247837Y265337D01*
X247788Y265356D01*
D02*
G37*
G36*
X215757Y267162D02*
X215708Y267136D01*
X215700Y267121D01*
X215685Y267083D01*
X215677Y267031D01*
X215685Y267008D01*
Y266797D01*
Y266790D01*
X215681Y263903D01*
X215700Y263877D01*
X215711Y263865D01*
X215764Y263858D01*
X218030Y263865D01*
X218053Y263873D01*
X218083Y263880D01*
X218147Y263892D01*
X218177Y263899D01*
X218226Y263918D01*
X218316Y263933D01*
X218346Y263940D01*
X218422Y263986D01*
X218474Y264001D01*
X218527Y264031D01*
X218549Y264053D01*
X218617Y264091D01*
X218636Y264110D01*
X218644Y264125D01*
X218655Y264136D01*
X218670Y264144D01*
X218711Y264185D01*
X218719Y264200D01*
X218730Y264211D01*
X218745Y264219D01*
X218772Y264245D01*
X218802Y264298D01*
X218832Y264328D01*
X218847Y264381D01*
X218884Y264449D01*
X218907Y264501D01*
X218922Y264629D01*
X218930Y264682D01*
X218948Y264731D01*
X218960Y264772D01*
X218952Y266255D01*
X218945Y266278D01*
X218933Y266349D01*
X218926Y266379D01*
X218918Y266417D01*
X218903Y266500D01*
X218888Y266538D01*
X218847Y266624D01*
X218828Y266673D01*
X218817Y266684D01*
X218809Y266699D01*
X218787Y266722D01*
X218741Y266805D01*
X218715Y266824D01*
X218681Y266858D01*
X218674Y266873D01*
X218662Y266884D01*
X218647Y266891D01*
X218580Y266944D01*
X218534Y266974D01*
X218504Y266982D01*
X218463Y267016D01*
X218399Y267042D01*
X218320Y267061D01*
X218282Y267076D01*
X218218Y267102D01*
X218165Y267110D01*
X218090Y267117D01*
X217970Y267140D01*
X217947Y267132D01*
X217876Y267144D01*
X217815Y267159D01*
X215757Y267162D01*
D02*
G37*
%LPD*%
D10*
X578492Y197425D02*
G03*
X578492Y197425I-492J0D01*
G01*
X640492D02*
G03*
X640492Y197425I-492J0D01*
G01*
X516492D02*
G03*
X516492Y197425I-492J0D01*
G01*
X454492D02*
G03*
X454492Y197425I-492J0D01*
G01*
X678492Y158929D02*
G03*
X678492Y158929I-492J0D01*
G01*
X335492Y438346D02*
G03*
X335492Y438346I-492J0D01*
G01*
X370236Y475236D02*
G03*
X370236Y475236I-492J0D01*
G01*
X608339Y243752D02*
G03*
X608339Y243752I-492J0D01*
G01*
X608535Y305146D02*
G03*
X608535Y305146I-492J0D01*
G01*
X354492Y215118D02*
G03*
X354492Y215118I-492J0D01*
G01*
X636630Y311854D02*
G03*
X636630Y311854I-492J0D01*
G01*
X636555Y211480D02*
G03*
X636555Y211480I-492J0D01*
G01*
X193043Y413346D02*
G03*
X193043Y413346I-492J0D01*
G01*
X434268Y455000D02*
G03*
X434268Y455000I-492J0D01*
G01*
X250299Y410000D02*
G03*
X250299Y410000I-492J0D01*
G01*
X434268Y405000D02*
G03*
X434268Y405000I-492J0D01*
G01*
Y465000D02*
G03*
X434268Y465000I-492J0D01*
G01*
Y425000D02*
G03*
X434268Y425000I-492J0D01*
G01*
X290492Y435347D02*
G03*
X290492Y435347I-492J0D01*
G01*
X434268Y435000D02*
G03*
X434268Y435000I-492J0D01*
G01*
Y415000D02*
G03*
X434268Y415000I-492J0D01*
G01*
X598630Y376354D02*
G03*
X598630Y376354I-492J0D01*
G01*
X229638Y441638D02*
G03*
X229638Y441638I-492J0D01*
G01*
X450555Y211480D02*
G03*
X450555Y211480I-492J0D01*
G01*
X574555D02*
G03*
X574555Y211480I-492J0D01*
G01*
X512555D02*
G03*
X512555Y211480I-492J0D01*
G01*
X290492Y413346D02*
G03*
X290492Y413346I-492J0D01*
G01*
X434268Y395000D02*
G03*
X434268Y395000I-492J0D01*
G01*
X434528Y445000D02*
G03*
X434528Y445000I-492J0D01*
G01*
X249228Y398256D02*
G03*
X249228Y398256I-492J0D01*
G01*
D11*
X566732Y174000D02*
G03*
X566732Y174000I-16732J0D01*
G01*
X504732D02*
G03*
X504732Y174000I-16732J0D01*
G01*
X442732D02*
G03*
X442732Y174000I-16732J0D01*
G01*
X628732D02*
G03*
X628732Y174000I-16732J0D01*
G01*
X353602Y472087D02*
X356555D01*
X342284D02*
X346713D01*
X377716Y457913D02*
Y472087D01*
X341102Y438228D02*
X364724D01*
X341102Y391772D02*
X364724D01*
X373287Y457913D02*
X377716D01*
X341102Y391772D02*
Y438228D01*
X364724Y391772D02*
Y438228D01*
X342284Y457913D02*
Y472087D01*
X373287D02*
X377716D01*
X363445D02*
X366398D01*
X363445Y457913D02*
X366398D01*
X353602D02*
X356555D01*
X342284D02*
X346713D01*
X645287Y327587D02*
X649717D01*
X614284Y313413D02*
Y327587D01*
Y313413D02*
X618713D01*
X614284Y327587D02*
X618713D01*
X625602D02*
X628555D01*
X635445D02*
X638398D01*
X587157Y298650D02*
X606843D01*
X591834Y292350D02*
X606843D01*
X587157D02*
X589081D01*
X606843D02*
Y298650D01*
X625602Y313413D02*
X628555D01*
X635445D02*
X638398D01*
X645287D02*
X649717D01*
X662445Y356689D02*
X665398D01*
X652602D02*
X655555D01*
X641284D02*
X645713D01*
X641126Y353311D02*
X645555D01*
X641284Y356689D02*
Y370862D01*
X672287Y356689D02*
X676717D01*
X652602Y370862D02*
X655555D01*
X641284D02*
X645713D01*
X649717Y313413D02*
Y327587D01*
X676717Y356689D02*
Y370862D01*
X672287D02*
X676717D01*
X662445D02*
X665398D01*
X372228Y135236D02*
Y140472D01*
X391913Y145544D02*
Y214764D01*
Y135236D02*
Y142456D01*
X389945Y145450D02*
Y214764D01*
Y135236D02*
Y142550D01*
X372228Y214764D02*
X391913D01*
X372228Y135236D02*
X391913D01*
X372228Y209528D02*
Y214764D01*
X622240Y283508D02*
X632102D01*
X640173D02*
X649760D01*
X640173Y309492D02*
X649760D01*
X587157Y292350D02*
Y298650D01*
X649760Y283508D02*
Y292465D01*
Y300535D02*
Y309492D01*
X652999Y100898D02*
Y150110D01*
X603001D02*
X652999D01*
X603000Y100898D02*
Y150110D01*
X623725Y309492D02*
X632102D01*
X622240Y283508D02*
Y307222D01*
X603000Y100898D02*
X652999D01*
X252326Y424929D02*
X262232D01*
X252326Y416071D02*
X262232D01*
X231413Y390283D02*
X245587D01*
X421866Y391063D02*
X430134D01*
X410114Y397657D02*
X411886D01*
X410114Y392342D02*
X411886D01*
X245587Y390283D02*
Y394713D01*
X231413Y425716D02*
X245587D01*
X231413Y421287D02*
Y425716D01*
X245587Y421287D02*
Y425716D01*
Y411445D02*
Y414398D01*
Y401602D02*
Y404555D01*
X410114Y407657D02*
X411886D01*
X410114Y402343D02*
X411886D01*
X254080Y399567D02*
X265103D01*
X198457Y392657D02*
X205543D01*
X421866Y408937D02*
X430134D01*
X421866Y401063D02*
X430134D01*
X295315Y412343D02*
X303189D01*
X295315Y392657D02*
X303189D01*
X421866Y398937D02*
X430134D01*
X254080Y412953D02*
X265103D01*
X295315Y392657D02*
Y412343D01*
X303189Y392657D02*
Y412343D01*
X543602Y354811D02*
X546555D01*
X532283D02*
X536713D01*
X248535Y455260D02*
X257492D01*
X567717Y340638D02*
Y354811D01*
X563287D02*
X567717D01*
X553445D02*
X556398D01*
X231508Y445673D02*
Y455260D01*
Y427740D02*
Y437602D01*
Y427740D02*
X257492D01*
X231508Y455260D02*
X240465D01*
X257492Y427740D02*
Y437602D01*
Y445673D02*
Y455260D01*
X422126Y448937D02*
X430394D01*
X422126Y441063D02*
X430394D01*
X691657Y453114D02*
Y454886D01*
X231413Y411445D02*
Y414398D01*
Y401602D02*
Y404555D01*
Y390283D02*
Y394713D01*
X553445Y340638D02*
X556398D01*
X543602D02*
X546555D01*
X532283D02*
X536713D01*
X686342Y453114D02*
Y454886D01*
X532283Y340638D02*
Y354811D01*
X563287Y340638D02*
X567717D01*
X198457Y412343D02*
X205543D01*
X410114Y422342D02*
X411886D01*
X421866Y428937D02*
X430134D01*
X421866Y421063D02*
X430134D01*
X201087Y469287D02*
Y473716D01*
X186913Y438283D02*
X201087D01*
X410114Y427658D02*
X411886D01*
X363047Y450429D02*
X372953D01*
X296693Y422157D02*
Y425504D01*
X295118Y422157D02*
X296693D01*
X421866Y468937D02*
X430134D01*
X421866Y461063D02*
X430134D01*
X363047Y441571D02*
X372953D01*
X183658Y450980D02*
Y452752D01*
X186913Y438283D02*
Y442713D01*
Y449602D02*
Y452555D01*
X170343Y450980D02*
Y452752D01*
X175657Y450980D02*
Y452752D01*
X178342Y450980D02*
Y452752D01*
X201087Y438283D02*
Y442713D01*
Y449602D02*
Y452555D01*
Y459445D02*
Y462398D01*
X186913Y459445D02*
Y462398D01*
Y469287D02*
Y473716D01*
X201087D01*
X410114Y442343D02*
X411886D01*
X410114Y467658D02*
X411886D01*
X410114Y462343D02*
X411886D01*
X409980Y437657D02*
X411752D01*
X409980Y432342D02*
X411752D01*
X410114Y447657D02*
X411886D01*
X207439Y422929D02*
X213953D01*
X198457Y392657D02*
Y412343D01*
X205543Y401794D02*
Y412343D01*
Y392657D02*
Y398206D01*
X410114Y457657D02*
X411886D01*
X410114Y452343D02*
X411886D01*
X204047Y414071D02*
X213953D01*
X410114Y412343D02*
X411886D01*
X300768Y414571D02*
X310675D01*
X300768Y423429D02*
X310675D01*
X296693Y431016D02*
Y434362D01*
X295118D02*
X296693D01*
X410114Y417658D02*
X411886D01*
X421866Y431063D02*
X430134D01*
X421866Y458937D02*
X430134D01*
X421866Y451063D02*
X430134D01*
X421866Y418937D02*
X430134D01*
X421866Y411063D02*
X430134D01*
X421866Y438937D02*
X430134D01*
X611760Y348008D02*
Y356965D01*
X633051Y153134D02*
X651555D01*
X633051Y194866D02*
X651555D01*
X587587Y153134D02*
Y194866D01*
X649587Y153134D02*
Y194866D01*
X651555Y153134D02*
Y194866D01*
X633051Y153134D02*
Y194866D01*
X571051D02*
X589555D01*
X525587Y153134D02*
Y194866D01*
X527555Y153134D02*
Y194866D01*
X589555Y153134D02*
Y194866D01*
X571051Y153134D02*
Y194866D01*
Y153134D02*
X589555D01*
X660284Y156567D02*
X668551D01*
X695716Y100394D02*
Y133535D01*
X541001Y150110D02*
X590999D01*
X541000Y100898D02*
Y150110D01*
X660284Y100394D02*
Y156567D01*
X466999Y100898D02*
Y150110D01*
X417001D02*
X466999D01*
X417000Y100898D02*
Y150110D01*
X695716Y150465D02*
Y156567D01*
X687449D02*
X695716D01*
X417000Y100898D02*
X466999D01*
X641126Y339138D02*
Y353311D01*
X672130Y339138D02*
X676559D01*
X662287D02*
X665240D01*
X606843Y230563D02*
Y238437D01*
X587157Y230563D02*
X606843D01*
X587157Y238437D02*
X606843D01*
X672130Y353311D02*
X676559D01*
X662287D02*
X665240D01*
X652445D02*
X655398D01*
X652445Y339138D02*
X655398D01*
X641126D02*
X645555D01*
X676559D02*
Y353311D01*
X610571Y283768D02*
Y293674D01*
X619429Y283768D02*
Y293674D01*
X618429Y235768D02*
Y245674D01*
X509051Y153134D02*
Y194866D01*
Y153134D02*
X527555D01*
X509051Y194866D02*
X527555D01*
X621343Y246748D02*
Y248520D01*
X626657Y246748D02*
Y248520D01*
X587157Y230563D02*
Y238437D01*
X609571Y235768D02*
Y245674D01*
X620114Y263843D02*
X621886D01*
X620114Y269158D02*
X621886D01*
X590999Y100898D02*
Y150110D01*
X489342Y203114D02*
Y204886D01*
X484657Y203114D02*
Y204886D01*
X479343Y203114D02*
Y204886D01*
X515350Y198252D02*
X518559D01*
Y200850D01*
X494658Y203114D02*
Y204886D01*
X417343Y203114D02*
Y204886D01*
X577350Y209748D02*
X580559D01*
Y207150D02*
Y209748D01*
X432657Y203114D02*
Y204886D01*
X427343Y203114D02*
Y204886D01*
X422657Y203114D02*
Y204886D01*
X602173Y373992D02*
X611760D01*
X584240D02*
X594102D01*
X584240Y348008D02*
Y373992D01*
X611760Y365035D02*
Y373992D01*
X584240Y348008D02*
X594102D01*
X602173D02*
X611760D01*
X456559Y198252D02*
Y200850D01*
X515350Y209748D02*
X518559D01*
Y207150D02*
Y209748D01*
X453350D02*
X456559D01*
Y207150D02*
Y209748D01*
X453350Y198252D02*
X456559D01*
X465555Y153134D02*
Y194866D01*
X447051Y153134D02*
Y194866D01*
Y153134D02*
X465555D01*
X639350Y198252D02*
X642559D01*
Y200850D01*
X463587Y153134D02*
Y194866D01*
X479001Y150110D02*
X528999D01*
X479000Y100898D02*
Y150110D01*
X541000Y100898D02*
X590999D01*
X447051Y194866D02*
X465555D01*
X479000Y100898D02*
X528999D01*
Y150110D01*
X541342Y203114D02*
Y204886D01*
X556658Y203114D02*
Y204886D01*
X551342Y203114D02*
Y204886D01*
X577350Y198252D02*
X580559D01*
Y200850D01*
X546658Y203114D02*
Y204886D01*
X613343Y203114D02*
Y204886D01*
X639350Y209748D02*
X642559D01*
Y207150D02*
Y209748D01*
X608658Y203114D02*
Y204886D01*
X603342Y203114D02*
Y204886D01*
X618657Y203114D02*
Y204886D01*
D12*
X604480Y235287D02*
G03*
X604480Y235287I-787J0D01*
G01*
X575323Y373307D02*
G03*
X575323Y373307I-787J0D01*
G01*
X202394Y409193D02*
G03*
X202394Y409193I-787J0D01*
G01*
X299252D02*
G03*
X299252Y409193I-787J0D01*
G01*
D13*
X346220Y434291D02*
G03*
X346220Y434291I-1181J0D01*
G01*
D14*
X316000Y130000D02*
G03*
X316000Y130000I-1000J0D01*
G01*
D15*
X127000Y313000D02*
X147000D01*
X127000Y303000D02*
X147000D01*
X167000D01*
X127000D02*
Y313000D01*
X147000Y303000D02*
Y313000D01*
X167000D01*
X147000Y293000D02*
X167000D01*
X147000Y283000D02*
Y293000D01*
X127000Y283000D02*
Y293000D01*
X147000Y283000D02*
X167000D01*
X127000D02*
X147000D01*
X127000Y293000D02*
X147000D01*
Y323000D02*
Y333000D01*
X167000D01*
X127000D02*
X147000D01*
X127000Y343000D02*
X147000D01*
X167000Y323000D02*
Y333000D01*
X127000Y323000D02*
Y333000D01*
X147000Y323000D02*
X167000D01*
X127000D02*
X147000D01*
X167000Y303000D02*
Y313000D01*
Y323000D01*
X127000Y313000D02*
Y323000D01*
X147000Y313000D02*
Y323000D01*
X167000Y293000D02*
Y303000D01*
Y283000D02*
Y293000D01*
X147000D02*
Y303000D01*
X127000Y293000D02*
Y303000D01*
X147000Y343000D02*
X167000D01*
X127000Y363000D02*
X147000D01*
X167000Y343000D02*
Y353000D01*
X127000Y343000D02*
Y353000D01*
Y363000D01*
X147000Y353000D02*
Y363000D01*
X155900D02*
X167000D01*
X147000D02*
X152100D01*
X167000Y333000D02*
Y343000D01*
X127000Y333000D02*
Y343000D01*
X147000Y333000D02*
Y343000D01*
Y353000D01*
X167000D01*
X127000D02*
X147000D01*
Y373000D02*
Y383000D01*
X127000Y373000D02*
Y383000D01*
X167000Y373000D02*
Y383000D01*
X127000D02*
X147000D01*
X167000D01*
X147000Y373000D02*
X167000D01*
X127000D02*
X147000D01*
X167000Y353000D02*
Y363000D01*
Y373000D01*
X127000Y363000D02*
Y373000D01*
X147000Y363000D02*
Y373000D01*
X537500Y364000D02*
X560500D01*
X588500Y258000D02*
X597000D01*
X631800Y281000D02*
X640200D01*
X661000Y215000D02*
X681000D01*
X167000Y405000D02*
Y415000D01*
X127000Y405000D02*
Y415000D01*
X413000Y225000D02*
X433000D01*
X475000D02*
X495000D01*
X537000D02*
X557000D01*
X127000Y435000D02*
X147000D01*
X167000D01*
X147000Y425000D02*
Y435000D01*
Y415000D02*
Y425000D01*
X127000Y415000D02*
Y425000D01*
X167000Y415000D02*
Y425000D01*
X147000Y445000D02*
X167000D01*
X147000Y435000D02*
Y445000D01*
X127000Y435000D02*
Y445000D01*
Y425000D02*
Y435000D01*
X167000Y425000D02*
Y435000D01*
X127000Y445000D02*
X147000D01*
Y395000D02*
Y405000D01*
X167000D01*
X127000D02*
X147000D01*
Y415000D01*
X167000Y395000D02*
Y405000D01*
X127000Y395000D02*
Y405000D01*
Y415000D02*
X147000D01*
X127000Y425000D02*
X147000D01*
X150900D02*
X167000D01*
X127000Y395000D02*
X147000D01*
X167000D01*
X147000Y415000D02*
X167000D01*
Y435000D02*
Y445000D01*
X385000Y230000D02*
X465000D01*
X385000Y240000D02*
X465000D01*
X425000Y230000D02*
Y250000D01*
X305000D02*
X385000D01*
X345000Y230000D02*
Y250000D01*
X445000Y230000D02*
Y250000D01*
X385000D02*
X465000D01*
X305000Y230000D02*
X385000D01*
X305000Y240000D02*
X385000D01*
X325000Y230000D02*
Y250000D01*
X385000Y230000D02*
Y250000D01*
X465000Y230000D02*
Y250000D01*
X405000Y230000D02*
Y250000D01*
X385000Y230000D02*
Y250000D01*
X365000Y230000D02*
Y250000D01*
X305000Y230000D02*
Y250000D01*
X127000Y485000D02*
X147000D01*
X167000D01*
X147000Y475000D02*
Y485000D01*
Y465000D02*
Y475000D01*
X127000Y465000D02*
Y475000D01*
X167000Y465000D02*
Y475000D01*
X127000Y485000D02*
Y495000D01*
X147000Y485000D02*
Y495000D01*
X167000D01*
X127000Y475000D02*
Y485000D01*
X167000Y475000D02*
Y485000D01*
Y495000D01*
X127000Y445000D02*
Y455000D01*
X167000Y445000D02*
Y455000D01*
X127000Y465000D02*
X147000D01*
X127000Y455000D02*
X147000D01*
X167000D01*
X147000Y445000D02*
Y455000D01*
X167000D02*
Y465000D01*
X127000Y475000D02*
X147000D01*
X167000D01*
X147000Y465000D02*
X167000D01*
X147000Y455000D02*
Y465000D01*
X127000Y455000D02*
Y465000D01*
Y495000D02*
X147000D01*
X234999Y338797D02*
X232999D01*
X233999D01*
Y333799D01*
X232999Y332800D01*
X232000D01*
X231000Y333799D01*
X237998Y336798D02*
X239997D01*
X240997Y335799D01*
Y332800D01*
X237998D01*
X236998Y333799D01*
X237998Y334799D01*
X240997D01*
X242996Y332800D02*
Y338797D01*
Y334799D02*
X245995Y336798D01*
X242996Y334799D02*
X245995Y332800D01*
X249994D02*
X251993D01*
X252993Y333799D01*
Y335799D01*
X251993Y336798D01*
X249994D01*
X248994Y335799D01*
Y333799D01*
X249994Y332800D01*
X254992Y338797D02*
Y332800D01*
X257991D01*
X258991Y333799D01*
Y334799D01*
Y335799D01*
X257991Y336798D01*
X254992D01*
X266988Y332800D02*
Y338797D01*
X268988Y336798D01*
X270987Y338797D01*
Y332800D01*
X275985D02*
X273986D01*
X272986Y333799D01*
Y335799D01*
X273986Y336798D01*
X275985D01*
X276985Y335799D01*
Y334799D01*
X272986D01*
X279984Y337798D02*
Y336798D01*
X278984D01*
X280984D01*
X279984D01*
Y333799D01*
X280984Y332800D01*
X283983Y336798D02*
X287982D01*
X283983Y332800D01*
X287982D01*
X289981D02*
X291980D01*
X290981D01*
Y338797D01*
X289981D01*
X297978Y332800D02*
X295979D01*
X294979Y333799D01*
Y335799D01*
X295979Y336798D01*
X297978D01*
X298978Y335799D01*
Y334799D01*
X294979D01*
X300977Y336798D02*
Y332800D01*
Y334799D01*
X301977Y335799D01*
X302977Y336798D01*
X303976D01*
X234999Y329200D02*
X232999D01*
X233999D01*
Y324201D01*
X232999Y323202D01*
X232000D01*
X231000Y324201D01*
X237998Y323202D02*
X239997D01*
X240997Y324201D01*
Y326201D01*
X239997Y327201D01*
X237998D01*
X236998Y326201D01*
Y324201D01*
X237998Y323202D01*
X245995D02*
X243996D01*
X242996Y324201D01*
Y326201D01*
X243996Y327201D01*
X245995D01*
X246995Y326201D01*
Y325201D01*
X242996D01*
X248994Y323202D02*
X250993D01*
X249994D01*
Y329200D01*
X248994D01*
X259991Y323202D02*
Y329200D01*
X262990D01*
X263989Y328200D01*
Y326201D01*
X262990Y325201D01*
X259991D01*
X261990D02*
X263989Y323202D01*
X265989Y327201D02*
Y324201D01*
X266988Y323202D01*
X269987D01*
Y327201D01*
X271987Y321202D02*
Y327201D01*
X274986D01*
X275985Y326201D01*
Y324201D01*
X274986Y323202D01*
X271987D01*
X277985Y321202D02*
Y327201D01*
X280984D01*
X281983Y326201D01*
Y324201D01*
X280984Y323202D01*
X277985D01*
X171000Y163499D02*
X174999D01*
X172999D01*
Y157501D01*
X177998D02*
X179997D01*
X180997Y158501D01*
Y160500D01*
X179997Y161500D01*
X177998D01*
X176998Y160500D01*
Y158501D01*
X177998Y157501D01*
X182996Y155501D02*
Y161500D01*
X185995D01*
X186995Y160500D01*
Y158501D01*
X185995Y157501D01*
X182996D01*
X194992D02*
X197991D01*
X198991Y158501D01*
X197991Y159500D01*
X195992D01*
X194992Y160500D01*
X195992Y161500D01*
X198991D01*
X200990Y157501D02*
X202990D01*
X201990D01*
Y161500D01*
X200990D01*
X209987Y163499D02*
Y157501D01*
X206988D01*
X205989Y158501D01*
Y160500D01*
X206988Y161500D01*
X209987D01*
X214986Y157501D02*
X212986D01*
X211987Y158501D01*
Y160500D01*
X212986Y161500D01*
X214986D01*
X215985Y160500D01*
Y159500D01*
X211987D01*
X223983Y161500D02*
Y158501D01*
X224983Y157501D01*
X227982D01*
Y161500D01*
X229981Y155501D02*
Y161500D01*
X232980D01*
X233980Y160500D01*
Y158501D01*
X232980Y157501D01*
X229981D01*
X235979Y159500D02*
Y164499D01*
Y158501D02*
Y157501D01*
X171000Y178499D02*
Y173501D01*
X172000Y172501D01*
X173999D01*
X174999Y173501D01*
Y178499D01*
X180997Y177499D02*
X179997Y178499D01*
X177998D01*
X176998Y177499D01*
Y176499D01*
X177998Y175500D01*
X179997D01*
X180997Y174500D01*
Y173501D01*
X179997Y172501D01*
X177998D01*
X176998Y173501D01*
X182996Y178499D02*
Y172501D01*
X185995D01*
X186995Y173501D01*
Y174500D01*
X185995Y175500D01*
X182996D01*
X185995D01*
X186995Y176499D01*
Y177499D01*
X185995Y178499D01*
X182996D01*
X188994Y175500D02*
X192993D01*
X198991Y177499D02*
X197991Y178499D01*
X195992D01*
X194992Y177499D01*
Y173501D01*
X195992Y172501D01*
X197991D01*
X198991Y173501D01*
X207988Y177499D02*
Y176499D01*
X206988D01*
X208988D01*
X207988D01*
Y173501D01*
X208988Y172501D01*
X211987Y178499D02*
Y172501D01*
Y175500D01*
X212986Y176499D01*
X214986D01*
X215985Y175500D01*
Y172501D01*
X217985D02*
X219984D01*
X218985D01*
Y176499D01*
X217985D01*
X222983Y172501D02*
X225982D01*
X226982Y173501D01*
X225982Y174500D01*
X223983D01*
X222983Y175500D01*
X223983Y176499D01*
X226982D01*
X234979D02*
Y173501D01*
X235979Y172501D01*
X236979Y173501D01*
X237978Y172501D01*
X238978Y173501D01*
Y176499D01*
X241977D02*
X243976D01*
X244976Y175500D01*
Y172501D01*
X241977D01*
X240977Y173501D01*
X241977Y174500D01*
X244976D01*
X246975Y176499D02*
Y173501D01*
X247975Y172501D01*
X250974D01*
Y171501D01*
X249974Y170501D01*
X248975D01*
X250974Y172501D02*
Y176499D01*
X252974Y174500D02*
Y179499D01*
Y173501D02*
Y172501D01*
X661000Y212998D02*
X662999D01*
X662000D01*
Y207000D01*
X661000D01*
X662999D01*
X668997Y212998D02*
X666998D01*
X665998Y211998D01*
Y208000D01*
X666998Y207000D01*
X668997D01*
X669997Y208000D01*
Y211998D01*
X668997Y212998D01*
X671996Y207000D02*
X673996D01*
X672996D01*
Y212998D01*
X671996Y211998D01*
X676995Y208000D02*
X677994Y207000D01*
X679994D01*
X680994Y208000D01*
Y211998D01*
X679994Y212998D01*
X677994D01*
X676995Y211998D01*
Y210999D01*
X677994Y209999D01*
X680994D01*
X537000Y223000D02*
X538999D01*
X538000D01*
Y217002D01*
X537000D01*
X538999D01*
X544997Y223000D02*
X542998D01*
X541998Y222000D01*
Y218002D01*
X542998Y217002D01*
X544997D01*
X545997Y218002D01*
Y222000D01*
X544997Y223000D01*
X547996Y217002D02*
X549996D01*
X548996D01*
Y223000D01*
X547996Y222000D01*
X552995D02*
X553995Y223000D01*
X555994D01*
X556993Y222000D01*
Y221001D01*
X555994Y220001D01*
X556993Y219001D01*
Y218002D01*
X555994Y217002D01*
X553995D01*
X552995Y218002D01*
Y219001D01*
X553995Y220001D01*
X552995Y221001D01*
Y222000D01*
X553995Y220001D02*
X555994D01*
X475000Y222998D02*
X476999D01*
X476000D01*
Y217000D01*
X475000D01*
X476999D01*
X482997Y222998D02*
X480998D01*
X479998Y221998D01*
Y218000D01*
X480998Y217000D01*
X482997D01*
X483997Y218000D01*
Y221998D01*
X482997Y222998D01*
X485996Y217000D02*
X487996D01*
X486996D01*
Y222998D01*
X485996Y221998D01*
X490995Y222998D02*
X494993D01*
Y221998D01*
X490995Y218000D01*
Y217000D01*
X413000Y222998D02*
X414999D01*
X414000D01*
Y217000D01*
X413000D01*
X414999D01*
X420997Y222998D02*
X418998D01*
X417998Y221998D01*
Y218000D01*
X418998Y217000D01*
X420997D01*
X421997Y218000D01*
Y221998D01*
X420997Y222998D01*
X423996Y217000D02*
X425996D01*
X424996D01*
Y222998D01*
X423996Y221998D01*
X432994Y222998D02*
X430994Y221998D01*
X428995Y219999D01*
Y218000D01*
X429994Y217000D01*
X431994D01*
X432994Y218000D01*
Y218999D01*
X431994Y219999D01*
X428995D01*
X569269Y234251D02*
Y228253D01*
X572268D01*
X573268Y229253D01*
Y233251D01*
X572268Y234251D01*
X569269D01*
X575267Y228253D02*
Y232252D01*
X577266Y234251D01*
X579266Y232252D01*
Y228253D01*
Y231252D01*
X575267D01*
X585264Y233251D02*
X584264Y234251D01*
X582265D01*
X581265Y233251D01*
Y229253D01*
X582265Y228253D01*
X584264D01*
X585264Y229253D01*
X568000Y287000D02*
Y290999D01*
X569999Y292998D01*
X571999Y290999D01*
Y287000D01*
Y289999D01*
X568000D01*
X573998Y292998D02*
Y287000D01*
X576997D01*
X577997Y288000D01*
Y291998D01*
X576997Y292998D01*
X573998D01*
X583995Y291998D02*
X582995Y292998D01*
X580996D01*
X579996Y291998D01*
Y288000D01*
X580996Y287000D01*
X582995D01*
X583995Y288000D01*
X190004Y367999D02*
X191003Y368999D01*
X193003D01*
X194002Y367999D01*
Y364001D01*
X193003Y363001D01*
X191003D01*
X190004Y364001D01*
Y367999D01*
X196002Y367000D02*
X200000Y363001D01*
X198001Y365000D01*
X200000Y367000D01*
X196002Y363001D01*
X202000D02*
Y367000D01*
X203999Y368999D01*
X205998Y367000D01*
Y363001D01*
Y366000D01*
X202000D01*
X207998Y368999D02*
X211997Y363001D01*
Y368999D02*
X207998Y363001D01*
X188004Y377999D02*
X184005D01*
Y372001D01*
X188004D01*
X184005Y375000D02*
X186005D01*
X194002Y377999D02*
X190004D01*
Y372001D01*
X194002D01*
X190004Y375000D02*
X192003D01*
X196002Y372001D02*
Y377999D01*
X199001D01*
X200000Y376999D01*
Y375000D01*
X199001Y374000D01*
X196002D01*
X202000Y372001D02*
Y377999D01*
X204999D01*
X205998Y376999D01*
Y375000D01*
X204999Y374000D01*
X202000D01*
X203999D02*
X205998Y372001D01*
X210997Y377999D02*
X208997D01*
X207998Y376999D01*
Y373001D01*
X208997Y372001D01*
X210997D01*
X211997Y373001D01*
Y376999D01*
X210997Y377999D01*
X213996Y372001D02*
Y377999D01*
X215995Y376000D01*
X217994Y377999D01*
Y372001D01*
X247003D02*
Y376000D01*
X249002Y377999D01*
X251001Y376000D01*
Y372001D01*
Y375000D01*
X247003D01*
X253001Y377999D02*
Y372001D01*
X256000D01*
X256999Y373001D01*
Y376999D01*
X256000Y377999D01*
X253001D01*
X262997Y376999D02*
X261998Y377999D01*
X259998D01*
X258999Y376999D01*
Y373001D01*
X259998Y372001D01*
X261998D01*
X262997Y373001D01*
X244004Y367999D02*
X245003Y368999D01*
X247003D01*
X248002Y367999D01*
Y364001D01*
X247003Y363001D01*
X245003D01*
X244004Y364001D01*
Y367999D01*
X250002Y367000D02*
X254000Y363001D01*
X252001Y365000D01*
X254000Y367000D01*
X250002Y363001D01*
X256000Y364001D02*
X256999Y363001D01*
X258999D01*
X259998Y364001D01*
Y367999D01*
X258999Y368999D01*
X256999D01*
X256000Y367999D01*
Y367000D01*
X256999Y366000D01*
X259998D01*
X261998Y363001D02*
Y367000D01*
X263997Y368999D01*
X265997Y367000D01*
Y363001D01*
Y366000D01*
X261998D01*
X288004Y367999D02*
X289003Y368999D01*
X291003D01*
X292002Y367999D01*
Y364001D01*
X291003Y363001D01*
X289003D01*
X288004Y364001D01*
Y367999D01*
X294002Y367000D02*
X298000Y363001D01*
X296001Y365000D01*
X298000Y367000D01*
X294002Y363001D01*
X300000Y364001D02*
X300999Y363001D01*
X302999D01*
X303998Y364001D01*
Y367999D01*
X302999Y368999D01*
X300999D01*
X300000Y367999D01*
Y367000D01*
X300999Y366000D01*
X303998D01*
X305998Y367999D02*
X306997Y368999D01*
X308997D01*
X309997Y367999D01*
Y364001D01*
X308997Y363001D01*
X306997D01*
X305998Y364001D01*
Y367999D01*
X291003Y377999D02*
Y372001D01*
X294002D01*
X295001Y373001D01*
Y376999D01*
X294002Y377999D01*
X291003D01*
X297001Y372001D02*
Y376000D01*
X299000Y377999D01*
X300999Y376000D01*
Y372001D01*
Y375000D01*
X297001D01*
X306997Y376999D02*
X305998Y377999D01*
X303998D01*
X302999Y376999D01*
Y373001D01*
X303998Y372001D01*
X305998D01*
X306997Y373001D01*
X342004Y367999D02*
X343003Y368999D01*
X345003D01*
X346002Y367999D01*
Y364001D01*
X345003Y363001D01*
X343003D01*
X342004Y364001D01*
Y367999D01*
X348002Y367000D02*
X352000Y363001D01*
X350001Y365000D01*
X352000Y367000D01*
X348002Y363001D01*
X356999D02*
Y368999D01*
X354000Y366000D01*
X357998D01*
X359998Y367999D02*
X360997Y368999D01*
X362997D01*
X363997Y367999D01*
Y364001D01*
X362997Y363001D01*
X360997D01*
X359998Y364001D01*
Y367999D01*
X322010Y377999D02*
X324009D01*
X323010D01*
Y372001D01*
X322010D01*
X324009D01*
X330007Y377999D02*
X328008D01*
X327008Y376999D01*
Y373000D01*
X328008Y372001D01*
X330007D01*
X331007Y373000D01*
Y376999D01*
X330007Y377999D01*
X333007Y375000D02*
X337005D01*
X343003Y377999D02*
X339004D01*
Y372001D01*
X343003D01*
X339004Y375000D02*
X341004D01*
X345003Y375999D02*
X349001Y372001D01*
X347002Y374000D01*
X349001Y375999D01*
X345003Y372001D01*
X351001Y370001D02*
Y375999D01*
X354000D01*
X354999Y375000D01*
Y373000D01*
X354000Y372001D01*
X351001D01*
X357998Y375999D02*
X359998D01*
X360997Y375000D01*
Y372001D01*
X357998D01*
X356999Y373000D01*
X357998Y374000D01*
X360997D01*
X362997Y372001D02*
Y375999D01*
X365996D01*
X366996Y375000D01*
Y372001D01*
X372993Y377999D02*
Y372001D01*
X369994D01*
X368995Y373000D01*
Y375000D01*
X369994Y375999D01*
X372993D01*
X377992Y372001D02*
X375993D01*
X374993Y373000D01*
Y375000D01*
X375993Y375999D01*
X377992D01*
X378992Y375000D01*
Y374000D01*
X374993D01*
X380991Y375999D02*
Y372001D01*
Y374000D01*
X381991Y375000D01*
X382990Y375999D01*
X383990D01*
X526500Y173999D02*
X530499D01*
X528499Y175998D02*
Y172000D01*
X588500Y173999D02*
X592499D01*
X590499Y175998D02*
Y172000D01*
X402500Y173999D02*
X406499D01*
X404499Y175998D02*
Y172000D01*
X464500Y173999D02*
X468499D01*
X466499Y175998D02*
Y172000D01*
X236006Y381001D02*
Y386999D01*
X238005Y385000D01*
X240005Y386999D01*
Y381001D01*
X246003Y385999D02*
X245003Y386999D01*
X243004D01*
X242004Y385999D01*
Y382001D01*
X243004Y381001D01*
X245003D01*
X246003Y382001D01*
X248002Y381001D02*
Y386999D01*
X251001D01*
X252001Y385999D01*
Y384000D01*
X251001Y383000D01*
X248002D01*
X254000Y385999D02*
X255000Y386999D01*
X256999D01*
X257999Y385999D01*
Y385000D01*
X256999Y384000D01*
X256000D01*
X256999D01*
X257999Y383000D01*
Y382001D01*
X256999Y381001D01*
X255000D01*
X254000Y382001D01*
X263997Y381001D02*
X259998D01*
X263997Y385000D01*
Y385999D01*
X262997Y386999D01*
X260998D01*
X259998Y385999D01*
X269995Y381001D02*
X265997D01*
X269995Y385000D01*
Y385999D01*
X268995Y386999D01*
X266996D01*
X265997Y385999D01*
X271994Y381001D02*
X273994D01*
X272994D01*
Y386999D01*
X271994Y385999D01*
X364004Y223999D02*
Y218001D01*
X368003D01*
X374001D02*
X370003D01*
X374001Y222000D01*
Y222999D01*
X373002Y223999D01*
X371002D01*
X370003Y222999D01*
X376001Y219001D02*
X377000Y218001D01*
X379000D01*
X379999Y219001D01*
Y222999D01*
X379000Y223999D01*
X377000D01*
X376001Y222999D01*
Y222000D01*
X377000Y221000D01*
X379999D01*
X381999Y222999D02*
X382998Y223999D01*
X384998D01*
X385997Y222999D01*
Y222000D01*
X384998Y221000D01*
X385997Y220000D01*
Y219001D01*
X384998Y218001D01*
X382998D01*
X381999Y219001D01*
Y220000D01*
X382998Y221000D01*
X381999Y222000D01*
Y222999D01*
X382998Y221000D02*
X384998D01*
X387997Y218001D02*
Y223999D01*
X391996Y218001D01*
Y223999D01*
X546006Y297001D02*
Y302999D01*
X548005Y301000D01*
X550005Y302999D01*
Y297001D01*
X556003Y301999D02*
X555003Y302999D01*
X553004D01*
X552004Y301999D01*
Y298001D01*
X553004Y297001D01*
X555003D01*
X556003Y298001D01*
X558002Y297001D02*
Y302999D01*
X561001D01*
X562001Y301999D01*
Y300000D01*
X561001Y299000D01*
X558002D01*
X564000Y301999D02*
X565000Y302999D01*
X566999D01*
X567999Y301999D01*
Y301000D01*
X566999Y300000D01*
X566000D01*
X566999D01*
X567999Y299000D01*
Y298001D01*
X566999Y297001D01*
X565000D01*
X564000Y298001D01*
X573997Y297001D02*
X569998D01*
X573997Y301000D01*
Y301999D01*
X572997Y302999D01*
X570998D01*
X569998Y301999D01*
X575996D02*
X576996Y302999D01*
X578996D01*
X579995Y301999D01*
Y298001D01*
X578996Y297001D01*
X576996D01*
X575996Y298001D01*
Y301999D01*
X581994Y297001D02*
X583994D01*
X582994D01*
Y302999D01*
X581994Y301999D01*
X547006Y238001D02*
Y243999D01*
X549006Y242000D01*
X551005Y243999D01*
Y238001D01*
X557003Y242999D02*
X556003Y243999D01*
X554004D01*
X553004Y242999D01*
Y239001D01*
X554004Y238001D01*
X556003D01*
X557003Y239001D01*
X559002Y238001D02*
Y243999D01*
X562001D01*
X563001Y242999D01*
Y241000D01*
X562001Y240000D01*
X559002D01*
X567999Y238001D02*
Y243999D01*
X565000Y241000D01*
X568999D01*
X570998Y239001D02*
X571998Y238001D01*
X573997D01*
X574997Y239001D01*
Y242999D01*
X573997Y243999D01*
X571998D01*
X570998Y242999D01*
Y242000D01*
X571998Y241000D01*
X574997D01*
X580995Y238001D02*
X576997D01*
X580995Y242000D01*
Y242999D01*
X579995Y243999D01*
X577996D01*
X576997Y242999D01*
X582995Y238001D02*
X584994D01*
X583994D01*
Y243999D01*
X582995Y242999D01*
X329921Y381001D02*
Y386999D01*
X331920Y385000D01*
X333920Y386999D01*
Y381001D01*
X339918Y385999D02*
X338918Y386999D01*
X336919D01*
X335919Y385999D01*
Y382001D01*
X336919Y381001D01*
X338918D01*
X339918Y382001D01*
X341917Y381001D02*
Y386999D01*
X344916D01*
X345916Y385999D01*
Y384000D01*
X344916Y383000D01*
X341917D01*
X351914Y381001D02*
X347915D01*
X351914Y385000D01*
Y385999D01*
X350914Y386999D01*
X348915D01*
X347915Y385999D01*
X353913D02*
X354913Y386999D01*
X356912D01*
X357912Y385999D01*
Y385000D01*
X356912Y384000D01*
X355912D01*
X356912D01*
X357912Y383000D01*
Y382001D01*
X356912Y381001D01*
X354913D01*
X353913Y382001D01*
X359911Y385999D02*
X360911Y386999D01*
X362910D01*
X363910Y385999D01*
Y382001D01*
X362910Y381001D01*
X360911D01*
X359911Y382001D01*
Y385999D01*
X365909D02*
X366909Y386999D01*
X368908D01*
X369908Y385999D01*
Y382001D01*
X368908Y381001D01*
X366909D01*
X365909Y382001D01*
Y385999D01*
X371907D02*
X372907Y386999D01*
X374906D01*
X375906Y385999D01*
Y385000D01*
X374906Y384000D01*
X375906Y383000D01*
Y382001D01*
X374906Y381001D01*
X372907D01*
X371907Y382001D01*
Y383000D01*
X372907Y384000D01*
X371907Y385000D01*
Y385999D01*
X372907Y384000D02*
X374906D01*
X453023Y486001D02*
Y491999D01*
X457021Y486001D01*
Y491999D01*
X459021D02*
Y486001D01*
Y489000D01*
X463019D01*
Y491999D01*
Y486001D01*
X465019Y491999D02*
Y486001D01*
X468018D01*
X469018Y487001D01*
Y490999D01*
X468018Y491999D01*
X465019D01*
X471017Y489000D02*
X475015D01*
X481014Y490999D02*
X480014Y491999D01*
X478015D01*
X477015Y490999D01*
Y487001D01*
X478015Y486001D01*
X480014D01*
X481014Y487001D01*
X483013Y490999D02*
X484013Y491999D01*
X486012D01*
X487012Y490999D01*
Y487001D01*
X486012Y486001D01*
X484013D01*
X483013Y487001D01*
Y490999D01*
X493010Y486001D02*
X489011D01*
X493010Y490000D01*
Y490999D01*
X492010Y491999D01*
X490011D01*
X489011Y490999D01*
X495009Y486001D02*
X497008D01*
X496009D01*
Y491999D01*
X495009Y490999D01*
X504006Y491999D02*
X502007Y490999D01*
X500007Y489000D01*
Y487001D01*
X501007Y486001D01*
X503007D01*
X504006Y487001D01*
Y488000D01*
X503007Y489000D01*
X500007D01*
X510004Y490999D02*
X509004Y491999D01*
X507005D01*
X506005Y490999D01*
Y487001D01*
X507005Y486001D01*
X509004D01*
X510004Y487001D01*
X512004Y491999D02*
X514003D01*
X513003D01*
Y486001D01*
X512004D01*
X514003D01*
X517002Y491999D02*
X521001D01*
Y490999D01*
X517002Y487001D01*
Y486001D01*
X521001D01*
X523000Y489000D02*
X526999D01*
X532997Y491999D02*
X528998D01*
Y489000D01*
X530997D01*
X528998D01*
Y486001D01*
X538995Y490999D02*
X537995Y491999D01*
X535996D01*
X534996Y490999D01*
Y490000D01*
X535996Y489000D01*
X537995D01*
X538995Y488000D01*
Y487001D01*
X537995Y486001D01*
X535996D01*
X534996Y487001D01*
X540994Y491999D02*
Y486001D01*
X542993Y488000D01*
X544993Y486001D01*
Y491999D01*
X546992Y489000D02*
X550991D01*
X556989Y491999D02*
X552990D01*
Y489000D01*
X554990D01*
X552990D01*
Y486001D01*
X558988Y491999D02*
Y486001D01*
X561987D01*
X562987Y487001D01*
Y488000D01*
X561987Y489000D01*
X558988D01*
X561987D01*
X562987Y490000D01*
Y490999D01*
X561987Y491999D01*
X558988D01*
X564986D02*
Y486001D01*
X566986Y488000D01*
X568985Y486001D01*
Y491999D01*
X570985Y489000D02*
X574983D01*
X576982Y490999D02*
X577982Y491999D01*
X579982D01*
X580981Y490999D01*
Y490000D01*
X579982Y489000D01*
X578982D01*
X579982D01*
X580981Y488000D01*
Y487001D01*
X579982Y486001D01*
X577982D01*
X576982Y487001D01*
X582981Y491999D02*
Y488000D01*
X584980Y486001D01*
X586979Y488000D01*
Y491999D01*
X588979Y490999D02*
X589978Y491999D01*
X591978D01*
X592977Y490999D01*
Y490000D01*
X591978Y489000D01*
X590978D01*
X591978D01*
X592977Y488000D01*
Y487001D01*
X591978Y486001D01*
X589978D01*
X588979Y487001D01*
X283705Y386999D02*
X287704D01*
X285704D01*
Y381001D01*
X293702Y385999D02*
X292702Y386999D01*
X290703D01*
X289703Y385999D01*
Y382001D01*
X290703Y381001D01*
X292702D01*
X293702Y382001D01*
X295701Y381001D02*
X297701D01*
X296701D01*
Y386999D01*
X295701Y385999D01*
X300699D02*
X301699Y386999D01*
X303698D01*
X304698Y385999D01*
Y385000D01*
X303698Y384000D01*
X302699D01*
X303698D01*
X304698Y383000D01*
Y382001D01*
X303698Y381001D01*
X301699D01*
X300699Y382001D01*
X310696Y381001D02*
X306698D01*
X310696Y385000D01*
Y385999D01*
X309697Y386999D01*
X307697D01*
X306698Y385999D01*
X312696Y381001D02*
X314695D01*
X313695D01*
Y386999D01*
X312696Y385999D01*
X189004Y381001D02*
X185005D01*
X189004Y385000D01*
Y385999D01*
X188005Y386999D01*
X186005D01*
X185005Y385999D01*
X194003Y381001D02*
Y386999D01*
X191004Y384000D01*
X195002D01*
X197002Y386999D02*
Y381001D01*
X201000D01*
X206998Y385999D02*
X205999Y386999D01*
X203999D01*
X203000Y385999D01*
Y382001D01*
X203999Y381001D01*
X205999D01*
X206998Y382001D01*
X208998Y385999D02*
X209997Y386999D01*
X211997D01*
X212997Y385999D01*
Y382001D01*
X211997Y381001D01*
X209997D01*
X208998Y382001D01*
Y385999D01*
X218994Y381001D02*
X214996D01*
X218994Y385000D01*
Y385999D01*
X217995Y386999D01*
X215996D01*
X214996Y385999D01*
D16*
X452685Y380591D02*
Y483740D01*
X523541Y380591D02*
X528669D01*
X452685D02*
X520459D01*
X654654Y408150D02*
X676307D01*
X654654Y380591D02*
Y408150D01*
X578669Y380591D02*
X654654D01*
X452685Y483740D02*
X676307D01*
Y454803D02*
Y483740D01*
Y408150D02*
Y435512D01*
D17*
X125000Y175000D02*
X160000D01*
X125000D02*
X135000Y185000D01*
Y165000D02*
Y185000D01*
X125000Y175000D02*
X135000Y165000D01*
D18*
X148253Y300499D02*
X149919D01*
X149086D01*
Y295501D01*
X148253D01*
X149919D01*
X154917Y300499D02*
X153251D01*
X152418Y299666D01*
Y296334D01*
X153251Y295501D01*
X154917D01*
X155750Y296334D01*
Y299666D01*
X154917Y300499D01*
X157416Y299666D02*
X158250Y300499D01*
X159916D01*
X160749Y299666D01*
Y298833D01*
X159916Y298000D01*
X159083D01*
X159916D01*
X160749Y297167D01*
Y296334D01*
X159916Y295501D01*
X158250D01*
X157416Y296334D01*
X162415D02*
X163248Y295501D01*
X164914D01*
X165747Y296334D01*
Y299666D01*
X164914Y300499D01*
X163248D01*
X162415Y299666D01*
Y298833D01*
X163248Y298000D01*
X165747D01*
X128253Y300499D02*
X129919D01*
X129086D01*
Y295501D01*
X128253D01*
X129919D01*
X134917Y300499D02*
X133251D01*
X132418Y299666D01*
Y296334D01*
X133251Y295501D01*
X134917D01*
X135750Y296334D01*
Y299666D01*
X134917Y300499D01*
X140749Y295501D02*
X137417D01*
X140749Y298833D01*
Y299666D01*
X139916Y300499D01*
X138250D01*
X137417Y299666D01*
X145747Y300499D02*
X142415D01*
Y298000D01*
X144081Y298833D01*
X144914D01*
X145747Y298000D01*
Y296334D01*
X144914Y295501D01*
X143248D01*
X142415Y296334D01*
X153668Y289666D02*
X152835Y290499D01*
X151169D01*
X150336Y289666D01*
Y286334D01*
X151169Y285501D01*
X152835D01*
X153668Y286334D01*
Y288000D01*
X152002D01*
X155334Y285501D02*
Y290499D01*
X158666Y285501D01*
Y290499D01*
X160332D02*
Y285501D01*
X162831D01*
X163664Y286334D01*
Y289666D01*
X162831Y290499D01*
X160332D01*
X133668Y289666D02*
X132835Y290499D01*
X131169D01*
X130335Y289666D01*
Y286334D01*
X131169Y285501D01*
X132835D01*
X133668Y286334D01*
Y288000D01*
X132002D01*
X135334Y285501D02*
Y290499D01*
X138666Y285501D01*
Y290499D01*
X140332D02*
Y285501D01*
X142831D01*
X143665Y286334D01*
Y289666D01*
X142831Y290499D01*
X140332D01*
X128253Y310499D02*
X129919D01*
X129086D01*
Y305501D01*
X128253D01*
X129919D01*
X134917Y310499D02*
X133251D01*
X132418Y309666D01*
Y306334D01*
X133251Y305501D01*
X134917D01*
X135750Y306334D01*
Y309666D01*
X134917Y310499D01*
X140749Y305501D02*
X137417D01*
X140749Y308833D01*
Y309666D01*
X139916Y310499D01*
X138250D01*
X137417Y309666D01*
X142415D02*
X143248Y310499D01*
X144914D01*
X145747Y309666D01*
Y308833D01*
X144914Y308000D01*
X144081D01*
X144914D01*
X145747Y307167D01*
Y306334D01*
X144914Y305501D01*
X143248D01*
X142415Y306334D01*
X148253Y310499D02*
X149919D01*
X149086D01*
Y305501D01*
X148253D01*
X149919D01*
X154917Y310499D02*
X153251D01*
X152418Y309666D01*
Y306334D01*
X153251Y305501D01*
X154917D01*
X155750Y306334D01*
Y309666D01*
X154917Y310499D01*
X157416Y309666D02*
X158250Y310499D01*
X159916D01*
X160749Y309666D01*
Y308833D01*
X159916Y308000D01*
X159083D01*
X159916D01*
X160749Y307167D01*
Y306334D01*
X159916Y305501D01*
X158250D01*
X157416Y306334D01*
X165747Y310499D02*
X164081Y309666D01*
X162415Y308000D01*
Y306334D01*
X163248Y305501D01*
X164914D01*
X165747Y306334D01*
Y307167D01*
X164914Y308000D01*
X162415D01*
X128253Y320499D02*
X129919D01*
X129086D01*
Y315501D01*
X128253D01*
X129919D01*
X134917Y320499D02*
X133251D01*
X132418Y319666D01*
Y316334D01*
X133251Y315501D01*
X134917D01*
X135750Y316334D01*
Y319666D01*
X134917Y320499D01*
X140749Y315501D02*
X137417D01*
X140749Y318833D01*
Y319666D01*
X139916Y320499D01*
X138250D01*
X137417Y319666D01*
X145747Y315501D02*
X142415D01*
X145747Y318833D01*
Y319666D01*
X144914Y320499D01*
X143248D01*
X142415Y319666D01*
X148253Y320499D02*
X149919D01*
X149086D01*
Y315501D01*
X148253D01*
X149919D01*
X154917Y320499D02*
X153251D01*
X152418Y319666D01*
Y316334D01*
X153251Y315501D01*
X154917D01*
X155750Y316334D01*
Y319666D01*
X154917Y320499D01*
X157416Y319666D02*
X158250Y320499D01*
X159916D01*
X160749Y319666D01*
Y318833D01*
X159916Y318000D01*
X159083D01*
X159916D01*
X160749Y317167D01*
Y316334D01*
X159916Y315501D01*
X158250D01*
X157416Y316334D01*
X165747Y320499D02*
X162415D01*
Y318000D01*
X164081Y318833D01*
X164914D01*
X165747Y318000D01*
Y316334D01*
X164914Y315501D01*
X163248D01*
X162415Y316334D01*
X129086Y330499D02*
X130752D01*
X129919D01*
Y325501D01*
X129086D01*
X130752D01*
X135750Y330499D02*
X134084D01*
X133251Y329666D01*
Y326334D01*
X134084Y325501D01*
X135750D01*
X136583Y326334D01*
Y329666D01*
X135750Y330499D01*
X141582Y325501D02*
X138250D01*
X141582Y328833D01*
Y329666D01*
X140749Y330499D01*
X139083D01*
X138250Y329666D01*
X143248Y325501D02*
X144914D01*
X144081D01*
Y330499D01*
X143248Y329666D01*
X148253Y330499D02*
X149919D01*
X149086D01*
Y325501D01*
X148253D01*
X149919D01*
X154917Y330499D02*
X153251D01*
X152418Y329666D01*
Y326334D01*
X153251Y325501D01*
X154917D01*
X155750Y326334D01*
Y329666D01*
X154917Y330499D01*
X157416Y329666D02*
X158250Y330499D01*
X159916D01*
X160749Y329666D01*
Y328833D01*
X159916Y328000D01*
X159083D01*
X159916D01*
X160749Y327167D01*
Y326334D01*
X159916Y325501D01*
X158250D01*
X157416Y326334D01*
X164914Y325501D02*
Y330499D01*
X162415Y328000D01*
X165747D01*
X128669Y340499D02*
X130335D01*
X129502D01*
Y335501D01*
X128669D01*
X130335D01*
X135334Y340499D02*
X133668D01*
X132835Y339666D01*
Y336334D01*
X133668Y335501D01*
X135334D01*
X136167Y336334D01*
Y339666D01*
X135334Y340499D01*
X137833Y335501D02*
X139499D01*
X138666D01*
Y340499D01*
X137833Y339666D01*
X141998Y336334D02*
X142831Y335501D01*
X144498D01*
X145331Y336334D01*
Y339666D01*
X144498Y340499D01*
X142831D01*
X141998Y339666D01*
Y338833D01*
X142831Y338000D01*
X145331D01*
X148253Y340499D02*
X149919D01*
X149086D01*
Y335501D01*
X148253D01*
X149919D01*
X154917Y340499D02*
X153251D01*
X152418Y339666D01*
Y336334D01*
X153251Y335501D01*
X154917D01*
X155750Y336334D01*
Y339666D01*
X154917Y340499D01*
X157416Y339666D02*
X158250Y340499D01*
X159916D01*
X160749Y339666D01*
Y338833D01*
X159916Y338000D01*
X159083D01*
X159916D01*
X160749Y337167D01*
Y336334D01*
X159916Y335501D01*
X158250D01*
X157416Y336334D01*
X162415Y339666D02*
X163248Y340499D01*
X164914D01*
X165747Y339666D01*
Y338833D01*
X164914Y338000D01*
X164081D01*
X164914D01*
X165747Y337167D01*
Y336334D01*
X164914Y335501D01*
X163248D01*
X162415Y336334D01*
X128669Y350499D02*
X130335D01*
X129502D01*
Y345501D01*
X128669D01*
X130335D01*
X135334Y350499D02*
X133668D01*
X132835Y349666D01*
Y346334D01*
X133668Y345501D01*
X135334D01*
X136167Y346334D01*
Y349666D01*
X135334Y350499D01*
X137833Y345501D02*
X139499D01*
X138666D01*
Y350499D01*
X137833Y349666D01*
X141998D02*
X142831Y350499D01*
X144498D01*
X145331Y349666D01*
Y348833D01*
X144498Y348000D01*
X145331Y347167D01*
Y346334D01*
X144498Y345501D01*
X142831D01*
X141998Y346334D01*
Y347167D01*
X142831Y348000D01*
X141998Y348833D01*
Y349666D01*
X142831Y348000D02*
X144498D01*
X148253Y350499D02*
X149919D01*
X149086D01*
Y345501D01*
X148253D01*
X149919D01*
X154917Y350499D02*
X153251D01*
X152418Y349666D01*
Y346334D01*
X153251Y345501D01*
X154917D01*
X155750Y346334D01*
Y349666D01*
X154917Y350499D01*
X157416Y349666D02*
X158250Y350499D01*
X159916D01*
X160749Y349666D01*
Y348833D01*
X159916Y348000D01*
X159083D01*
X159916D01*
X160749Y347167D01*
Y346334D01*
X159916Y345501D01*
X158250D01*
X157416Y346334D01*
X165747Y345501D02*
X162415D01*
X165747Y348833D01*
Y349666D01*
X164914Y350499D01*
X163248D01*
X162415Y349666D01*
X128669Y360499D02*
X130335D01*
X129502D01*
Y355501D01*
X128669D01*
X130335D01*
X135334Y360499D02*
X133668D01*
X132835Y359666D01*
Y356334D01*
X133668Y355501D01*
X135334D01*
X136167Y356334D01*
Y359666D01*
X135334Y360499D01*
X137833Y355501D02*
X139499D01*
X138666D01*
Y360499D01*
X137833Y359666D01*
X141998Y360499D02*
X145331D01*
Y359666D01*
X141998Y356334D01*
Y355501D01*
X148253Y360499D02*
X149919D01*
X149086D01*
Y355501D01*
X148253D01*
X149919D01*
X154917Y360499D02*
X153251D01*
X152418Y359666D01*
Y356334D01*
X153251Y355501D01*
X154917D01*
X155750Y356334D01*
Y359666D01*
X154917Y360499D01*
X160749Y355501D02*
X157416D01*
X160749Y358833D01*
Y359666D01*
X159916Y360499D01*
X158250D01*
X157416Y359666D01*
X162415Y360499D02*
X165747D01*
Y359666D01*
X162415Y356334D01*
Y355501D01*
X128669Y370499D02*
X130335D01*
X129502D01*
Y365501D01*
X128669D01*
X130335D01*
X135334Y370499D02*
X133668D01*
X132835Y369666D01*
Y366334D01*
X133668Y365501D01*
X135334D01*
X136167Y366334D01*
Y369666D01*
X135334Y370499D01*
X137833Y365501D02*
X139499D01*
X138666D01*
Y370499D01*
X137833Y369666D01*
X145331Y370499D02*
X143665Y369666D01*
X141998Y368000D01*
Y366334D01*
X142831Y365501D01*
X144498D01*
X145331Y366334D01*
Y367167D01*
X144498Y368000D01*
X141998D01*
X148253Y370499D02*
X149919D01*
X149086D01*
Y365501D01*
X148253D01*
X149919D01*
X154917Y370499D02*
X153251D01*
X152418Y369666D01*
Y366334D01*
X153251Y365501D01*
X154917D01*
X155750Y366334D01*
Y369666D01*
X154917Y370499D01*
X160749Y365501D02*
X157416D01*
X160749Y368833D01*
Y369666D01*
X159916Y370499D01*
X158250D01*
X157416Y369666D01*
X165747Y370499D02*
X164081Y369666D01*
X162415Y368000D01*
Y366334D01*
X163248Y365501D01*
X164914D01*
X165747Y366334D01*
Y367167D01*
X164914Y368000D01*
X162415D01*
X150336Y380499D02*
Y377167D01*
X152002Y375501D01*
X153668Y377167D01*
Y380499D01*
X158666Y379666D02*
X157833Y380499D01*
X156167D01*
X155334Y379666D01*
Y376334D01*
X156167Y375501D01*
X157833D01*
X158666Y376334D01*
X163664Y379666D02*
X162831Y380499D01*
X161165D01*
X160332Y379666D01*
Y376334D01*
X161165Y375501D01*
X162831D01*
X163664Y376334D01*
X130335Y380499D02*
Y377167D01*
X132002Y375501D01*
X133668Y377167D01*
Y380499D01*
X138666Y379666D02*
X137833Y380499D01*
X136167D01*
X135334Y379666D01*
Y376334D01*
X136167Y375501D01*
X137833D01*
X138666Y376334D01*
X143665Y379666D02*
X142831Y380499D01*
X141165D01*
X140332Y379666D01*
Y376334D01*
X141165Y375501D01*
X142831D01*
X143665Y376334D01*
X371668Y237499D02*
X368336D01*
Y232501D01*
X371668D01*
X368336Y235000D02*
X370002D01*
X373334Y232501D02*
Y235833D01*
X375833D01*
X376666Y235000D01*
Y232501D01*
X378332D02*
Y235833D01*
X379998Y237499D01*
X381664Y235833D01*
Y232501D01*
Y235000D01*
X378332D01*
X348752Y237499D02*
X350418D01*
X349585D01*
Y232501D01*
X348752D01*
X350418D01*
X352917D02*
Y237499D01*
X356250Y232501D01*
Y237499D01*
X361248Y232501D02*
X357916D01*
X361248Y235833D01*
Y236666D01*
X360415Y237499D01*
X358749D01*
X357916Y236666D01*
X308335Y237499D02*
Y234167D01*
X310002Y232501D01*
X311668Y234167D01*
Y237499D01*
X316666Y236666D02*
X315833Y237499D01*
X314167D01*
X313334Y236666D01*
Y233334D01*
X314167Y232501D01*
X315833D01*
X316666Y233334D01*
X321665Y236666D02*
X320831Y237499D01*
X319165D01*
X318332Y236666D01*
Y233334D01*
X319165Y232501D01*
X320831D01*
X321665Y233334D01*
X329585Y237499D02*
X331251D01*
X330418D01*
Y232501D01*
X329585D01*
X331251D01*
X333750D02*
Y237499D01*
X337083Y232501D01*
Y237499D01*
X338749Y232501D02*
X340415D01*
X339582D01*
Y237499D01*
X338749Y236666D01*
X408335Y242501D02*
Y247499D01*
X410002Y245833D01*
X411668Y247499D01*
Y242501D01*
X416666D02*
X413334D01*
X416666Y245833D01*
Y246666D01*
X415833Y247499D01*
X414167D01*
X413334Y246666D01*
X418332Y245000D02*
X421664D01*
X419998Y246666D02*
Y243334D01*
X428336Y242501D02*
Y247499D01*
X430002Y245833D01*
X431668Y247499D01*
Y242501D01*
X436666D02*
X433334D01*
X436666Y245833D01*
Y246666D01*
X435833Y247499D01*
X434167D01*
X433334Y246666D01*
X438332Y245000D02*
X441665D01*
X451668Y246666D02*
X450835Y247499D01*
X449168D01*
X448336Y246666D01*
Y243334D01*
X449168Y242501D01*
X450835D01*
X451668Y243334D01*
Y245000D01*
X450002D01*
X453334Y242501D02*
Y247499D01*
X456666Y242501D01*
Y247499D01*
X458332D02*
Y242501D01*
X460831D01*
X461664Y243334D01*
Y246666D01*
X460831Y247499D01*
X458332D01*
X328752Y242501D02*
Y247499D01*
X330418Y245833D01*
X332084Y247499D01*
Y242501D01*
X333750D02*
X335417D01*
X334583D01*
Y247499D01*
X333750Y246666D01*
X337916Y245000D02*
X341248D01*
X339582Y246666D02*
Y243334D01*
X388752Y237499D02*
X390418D01*
X389585D01*
Y232501D01*
X388752D01*
X390418D01*
X392917D02*
Y235833D01*
X395416D01*
X396250Y235000D01*
Y232501D01*
X397916Y236666D02*
X398749Y237499D01*
X400415D01*
X401248Y236666D01*
Y235833D01*
X400415Y235000D01*
X399582D01*
X400415D01*
X401248Y234167D01*
Y233334D01*
X400415Y232501D01*
X398749D01*
X397916Y233334D01*
X408752Y237499D02*
X410418D01*
X409585D01*
Y232501D01*
X408752D01*
X410418D01*
X412917D02*
Y235833D01*
X415416D01*
X416250Y235000D01*
Y232501D01*
X420415D02*
Y237499D01*
X417916Y235000D01*
X421248D01*
X431668Y237499D02*
X428336D01*
Y232501D01*
X431668D01*
X428336Y235000D02*
X430002D01*
X433334Y232501D02*
Y235833D01*
X435833D01*
X436666Y235000D01*
Y232501D01*
X438332Y237499D02*
Y232501D01*
X440831D01*
X441665Y233334D01*
Y234167D01*
X440831Y235000D01*
X438332D01*
X440831D01*
X441665Y235833D01*
Y236666D01*
X440831Y237499D01*
X438332D01*
X451668Y236666D02*
X450835Y237499D01*
X449168D01*
X448336Y236666D01*
Y233334D01*
X449168Y232501D01*
X450835D01*
X451668Y233334D01*
Y235000D01*
X450002D01*
X453334Y232501D02*
Y237499D01*
X456666Y232501D01*
Y237499D01*
X458332D02*
Y232501D01*
X460831D01*
X461664Y233334D01*
Y236666D01*
X460831Y237499D01*
X458332D01*
X348752Y242501D02*
Y247499D01*
X350418Y245833D01*
X352084Y247499D01*
Y242501D01*
X353750D02*
X355416D01*
X354584D01*
Y247499D01*
X353750Y246666D01*
X357916Y245000D02*
X361248D01*
X372501Y246666D02*
X371668Y247499D01*
X370002D01*
X369169Y246666D01*
Y245833D01*
X370002Y245000D01*
X371668D01*
X372501Y244167D01*
Y243334D01*
X371668Y242501D01*
X370002D01*
X369169Y243334D01*
X374167Y242501D02*
Y247499D01*
X377499Y242501D01*
Y247499D01*
X379165Y242501D02*
X380831D01*
X379998D01*
Y247499D01*
X379165Y246666D01*
X391668D02*
X390835Y247499D01*
X389169D01*
X388335Y246666D01*
Y245833D01*
X389169Y245000D01*
X390835D01*
X391668Y244167D01*
Y243334D01*
X390835Y242501D01*
X389169D01*
X388335Y243334D01*
X393334Y242501D02*
Y247499D01*
X396666Y242501D01*
Y247499D01*
X401664Y242501D02*
X398332D01*
X401664Y245833D01*
Y246666D01*
X400831Y247499D01*
X399165D01*
X398332Y246666D01*
X308335Y247499D02*
Y244167D01*
X310002Y242501D01*
X311668Y244167D01*
Y247499D01*
X316666Y246666D02*
X315833Y247499D01*
X314167D01*
X313334Y246666D01*
Y243334D01*
X314167Y242501D01*
X315833D01*
X316666Y243334D01*
X321665Y246666D02*
X320831Y247499D01*
X319165D01*
X318332Y246666D01*
Y243334D01*
X319165Y242501D01*
X320831D01*
X321665Y243334D01*
X305800Y256898D02*
Y251900D01*
X309132D01*
X314131D02*
X310798D01*
X314131Y255232D01*
Y256065D01*
X313298Y256898D01*
X311631D01*
X310798Y256065D01*
X315797Y252733D02*
X316630Y251900D01*
X318296D01*
X319129Y252733D01*
Y256065D01*
X318296Y256898D01*
X316630D01*
X315797Y256065D01*
Y255232D01*
X316630Y254399D01*
X319129D01*
X320795Y256065D02*
X321628Y256898D01*
X323294D01*
X324127Y256065D01*
Y255232D01*
X323294Y254399D01*
X324127Y253566D01*
Y252733D01*
X323294Y251900D01*
X321628D01*
X320795Y252733D01*
Y253566D01*
X321628Y254399D01*
X320795Y255232D01*
Y256065D01*
X321628Y254399D02*
X323294D01*
X325794Y251900D02*
Y256898D01*
X329126Y251900D01*
Y256898D01*
X174800Y350800D02*
Y355798D01*
X177299D01*
X178132Y354965D01*
Y353299D01*
X177299Y352466D01*
X174800D01*
X179798Y350800D02*
X181465D01*
X180631D01*
Y354132D01*
X179798D01*
X183964Y350800D02*
Y354132D01*
X186463D01*
X187296Y353299D01*
Y350800D01*
X188962Y353299D02*
X192294D01*
X197293Y354965D02*
X196460Y355798D01*
X194793D01*
X193960Y354965D01*
Y351633D01*
X194793Y350800D01*
X196460D01*
X197293Y351633D01*
Y353299D01*
X195627D01*
X198959Y354132D02*
Y351633D01*
X199792Y350800D01*
X202291D01*
Y354132D01*
X203957Y350800D02*
X205623D01*
X204790D01*
Y354132D01*
X203957D01*
X211455Y355798D02*
Y350800D01*
X208956D01*
X208122Y351633D01*
Y353299D01*
X208956Y354132D01*
X211455D01*
X215620Y350800D02*
X213954D01*
X213121Y351633D01*
Y353299D01*
X213954Y354132D01*
X215620D01*
X216453Y353299D01*
Y352466D01*
X213121D01*
X218119Y354132D02*
X218952D01*
Y353299D01*
X218119D01*
Y354132D01*
Y351633D02*
X218952D01*
Y350800D01*
X218119D01*
Y351633D01*
X130335Y492499D02*
Y489167D01*
X132002Y487501D01*
X133668Y489167D01*
Y492499D01*
X138666Y491666D02*
X137833Y492499D01*
X136167D01*
X135334Y491666D01*
Y488334D01*
X136167Y487501D01*
X137833D01*
X138666Y488334D01*
X143665Y491666D02*
X142831Y492499D01*
X141165D01*
X140332Y491666D01*
Y488334D01*
X141165Y487501D01*
X142831D01*
X143665Y488334D01*
X150336Y492499D02*
Y489167D01*
X152002Y487501D01*
X153668Y489167D01*
Y492499D01*
X158666Y491666D02*
X157833Y492499D01*
X156167D01*
X155334Y491666D01*
Y488334D01*
X156167Y487501D01*
X157833D01*
X158666Y488334D01*
X163664Y491666D02*
X162831Y492499D01*
X161165D01*
X160332Y491666D01*
Y488334D01*
X161165Y487501D01*
X162831D01*
X163664Y488334D01*
X148253Y482499D02*
X149919D01*
X149086D01*
Y477501D01*
X148253D01*
X149919D01*
X154917Y482499D02*
X153251D01*
X152418Y481666D01*
Y478334D01*
X153251Y477501D01*
X154917D01*
X155750Y478334D01*
Y481666D01*
X154917Y482499D01*
X157416Y481666D02*
X158250Y482499D01*
X159916D01*
X160749Y481666D01*
Y478334D01*
X159916Y477501D01*
X158250D01*
X157416Y478334D01*
Y481666D01*
X162415D02*
X163248Y482499D01*
X164914D01*
X165747Y481666D01*
Y480833D01*
X164914Y480000D01*
X165747Y479167D01*
Y478334D01*
X164914Y477501D01*
X163248D01*
X162415Y478334D01*
Y479167D01*
X163248Y480000D01*
X162415Y480833D01*
Y481666D01*
X163248Y480000D02*
X164914D01*
X128253Y482499D02*
X129919D01*
X129086D01*
Y477501D01*
X128253D01*
X129919D01*
X134917Y482499D02*
X133251D01*
X132418Y481666D01*
Y478334D01*
X133251Y477501D01*
X134917D01*
X135750Y478334D01*
Y481666D01*
X134917Y482499D01*
X137417Y481666D02*
X138250Y482499D01*
X139916D01*
X140749Y481666D01*
Y478334D01*
X139916Y477501D01*
X138250D01*
X137417Y478334D01*
Y481666D01*
X142415D02*
X143248Y482499D01*
X144914D01*
X145747Y481666D01*
Y478334D01*
X144914Y477501D01*
X143248D01*
X142415Y478334D01*
Y481666D01*
X148253Y472499D02*
X149919D01*
X149086D01*
Y467501D01*
X148253D01*
X149919D01*
X154917Y472499D02*
X153251D01*
X152418Y471666D01*
Y468334D01*
X153251Y467501D01*
X154917D01*
X155750Y468334D01*
Y471666D01*
X154917Y472499D01*
X157416Y471666D02*
X158250Y472499D01*
X159916D01*
X160749Y471666D01*
Y468334D01*
X159916Y467501D01*
X158250D01*
X157416Y468334D01*
Y471666D01*
X162415Y468334D02*
X163248Y467501D01*
X164914D01*
X165747Y468334D01*
Y471666D01*
X164914Y472499D01*
X163248D01*
X162415Y471666D01*
Y470833D01*
X163248Y470000D01*
X165747D01*
X129086Y472499D02*
X130752D01*
X129919D01*
Y467501D01*
X129086D01*
X130752D01*
X135750Y472499D02*
X134084D01*
X133251Y471666D01*
Y468334D01*
X134084Y467501D01*
X135750D01*
X136583Y468334D01*
Y471666D01*
X135750Y472499D01*
X138250Y471666D02*
X139083Y472499D01*
X140749D01*
X141582Y471666D01*
Y468334D01*
X140749Y467501D01*
X139083D01*
X138250Y468334D01*
Y471666D01*
X143248Y467501D02*
X144914D01*
X144081D01*
Y472499D01*
X143248Y471666D01*
X148669Y462499D02*
X150336D01*
X149502D01*
Y457501D01*
X148669D01*
X150336D01*
X155334Y462499D02*
X153668D01*
X152835Y461666D01*
Y458334D01*
X153668Y457501D01*
X155334D01*
X156167Y458334D01*
Y461666D01*
X155334Y462499D01*
X157833Y457501D02*
X159499D01*
X158666D01*
Y462499D01*
X157833Y461666D01*
X161998D02*
X162831Y462499D01*
X164498D01*
X165331Y461666D01*
Y458334D01*
X164498Y457501D01*
X162831D01*
X161998Y458334D01*
Y461666D01*
X128253Y462499D02*
X129919D01*
X129086D01*
Y457501D01*
X128253D01*
X129919D01*
X134917Y462499D02*
X133251D01*
X132418Y461666D01*
Y458334D01*
X133251Y457501D01*
X134917D01*
X135750Y458334D01*
Y461666D01*
X134917Y462499D01*
X137417Y461666D02*
X138250Y462499D01*
X139916D01*
X140749Y461666D01*
Y458334D01*
X139916Y457501D01*
X138250D01*
X137417Y458334D01*
Y461666D01*
X145747Y457501D02*
X142415D01*
X145747Y460833D01*
Y461666D01*
X144914Y462499D01*
X143248D01*
X142415Y461666D01*
X149502Y452499D02*
X151169D01*
X150336D01*
Y447501D01*
X149502D01*
X151169D01*
X156167Y452499D02*
X154501D01*
X153668Y451666D01*
Y448334D01*
X154501Y447501D01*
X156167D01*
X157000Y448334D01*
Y451666D01*
X156167Y452499D01*
X158666Y447501D02*
X160332D01*
X159499D01*
Y452499D01*
X158666Y451666D01*
X162831Y447501D02*
X164498D01*
X163664D01*
Y452499D01*
X162831Y451666D01*
X128253Y452499D02*
X129919D01*
X129086D01*
Y447501D01*
X128253D01*
X129919D01*
X134917Y452499D02*
X133251D01*
X132418Y451666D01*
Y448334D01*
X133251Y447501D01*
X134917D01*
X135750Y448334D01*
Y451666D01*
X134917Y452499D01*
X137417Y451666D02*
X138250Y452499D01*
X139916D01*
X140749Y451666D01*
Y448334D01*
X139916Y447501D01*
X138250D01*
X137417Y448334D01*
Y451666D01*
X142415D02*
X143248Y452499D01*
X144914D01*
X145747Y451666D01*
Y450833D01*
X144914Y450000D01*
X144081D01*
X144914D01*
X145747Y449167D01*
Y448334D01*
X144914Y447501D01*
X143248D01*
X142415Y448334D01*
X148669Y442499D02*
X150336D01*
X149502D01*
Y437501D01*
X148669D01*
X150336D01*
X155334Y442499D02*
X153668D01*
X152835Y441666D01*
Y438334D01*
X153668Y437501D01*
X155334D01*
X156167Y438334D01*
Y441666D01*
X155334Y442499D01*
X157833Y437501D02*
X159499D01*
X158666D01*
Y442499D01*
X157833Y441666D01*
X165331Y437501D02*
X161998D01*
X165331Y440833D01*
Y441666D01*
X164498Y442499D01*
X162831D01*
X161998Y441666D01*
X128253Y442499D02*
X129919D01*
X129086D01*
Y437501D01*
X128253D01*
X129919D01*
X134917Y442499D02*
X133251D01*
X132418Y441666D01*
Y438334D01*
X133251Y437501D01*
X134917D01*
X135750Y438334D01*
Y441666D01*
X134917Y442499D01*
X137417Y441666D02*
X138250Y442499D01*
X139916D01*
X140749Y441666D01*
Y438334D01*
X139916Y437501D01*
X138250D01*
X137417Y438334D01*
Y441666D01*
X144914Y437501D02*
Y442499D01*
X142415Y440000D01*
X145747D01*
X148669Y432499D02*
X150336D01*
X149502D01*
Y427501D01*
X148669D01*
X150336D01*
X155334Y432499D02*
X153668D01*
X152835Y431666D01*
Y428334D01*
X153668Y427501D01*
X155334D01*
X156167Y428334D01*
Y431666D01*
X155334Y432499D01*
X157833Y427501D02*
X159499D01*
X158666D01*
Y432499D01*
X157833Y431666D01*
X161998D02*
X162831Y432499D01*
X164498D01*
X165331Y431666D01*
Y430833D01*
X164498Y430000D01*
X163664D01*
X164498D01*
X165331Y429167D01*
Y428334D01*
X164498Y427501D01*
X162831D01*
X161998Y428334D01*
X128253Y432499D02*
X129919D01*
X129086D01*
Y427501D01*
X128253D01*
X129919D01*
X134917Y432499D02*
X133251D01*
X132418Y431666D01*
Y428334D01*
X133251Y427501D01*
X134917D01*
X135750Y428334D01*
Y431666D01*
X134917Y432499D01*
X137417Y431666D02*
X138250Y432499D01*
X139916D01*
X140749Y431666D01*
Y428334D01*
X139916Y427501D01*
X138250D01*
X137417Y428334D01*
Y431666D01*
X145747Y432499D02*
X142415D01*
Y430000D01*
X144081Y430833D01*
X144914D01*
X145747Y430000D01*
Y428334D01*
X144914Y427501D01*
X143248D01*
X142415Y428334D01*
X148669Y422499D02*
X150336D01*
X149502D01*
Y417501D01*
X148669D01*
X150336D01*
X155334Y422499D02*
X153668D01*
X152835Y421666D01*
Y418334D01*
X153668Y417501D01*
X155334D01*
X156167Y418334D01*
Y421666D01*
X155334Y422499D01*
X157833Y417501D02*
X159499D01*
X158666D01*
Y422499D01*
X157833Y421666D01*
X164498Y417501D02*
Y422499D01*
X161998Y420000D01*
X165331D01*
X128253Y422499D02*
X129919D01*
X129086D01*
Y417501D01*
X128253D01*
X129919D01*
X134917Y422499D02*
X133251D01*
X132418Y421666D01*
Y418334D01*
X133251Y417501D01*
X134917D01*
X135750Y418334D01*
Y421666D01*
X134917Y422499D01*
X137417Y421666D02*
X138250Y422499D01*
X139916D01*
X140749Y421666D01*
Y418334D01*
X139916Y417501D01*
X138250D01*
X137417Y418334D01*
Y421666D01*
X145747Y422499D02*
X144081Y421666D01*
X142415Y420000D01*
Y418334D01*
X143248Y417501D01*
X144914D01*
X145747Y418334D01*
Y419167D01*
X144914Y420000D01*
X142415D01*
X133668Y401666D02*
X132835Y402499D01*
X131169D01*
X130335Y401666D01*
Y398334D01*
X131169Y397501D01*
X132835D01*
X133668Y398334D01*
Y400000D01*
X132002D01*
X135334Y397501D02*
Y402499D01*
X138666Y397501D01*
Y402499D01*
X140332D02*
Y397501D01*
X142831D01*
X143665Y398334D01*
Y401666D01*
X142831Y402499D01*
X140332D01*
X153668Y401666D02*
X152835Y402499D01*
X151169D01*
X150336Y401666D01*
Y398334D01*
X151169Y397501D01*
X152835D01*
X153668Y398334D01*
Y400000D01*
X152002D01*
X155334Y397501D02*
Y402499D01*
X158666Y397501D01*
Y402499D01*
X160332D02*
Y397501D01*
X162831D01*
X163664Y398334D01*
Y401666D01*
X162831Y402499D01*
X160332D01*
X128253Y412499D02*
X129919D01*
X129086D01*
Y407501D01*
X128253D01*
X129919D01*
X134917Y412499D02*
X133251D01*
X132418Y411666D01*
Y408334D01*
X133251Y407501D01*
X134917D01*
X135750Y408334D01*
Y411666D01*
X134917Y412499D01*
X137417Y411666D02*
X138250Y412499D01*
X139916D01*
X140749Y411666D01*
Y408334D01*
X139916Y407501D01*
X138250D01*
X137417Y408334D01*
Y411666D01*
X142415Y412499D02*
X145747D01*
Y411666D01*
X142415Y408334D01*
Y407501D01*
X148669Y412499D02*
X150336D01*
X149502D01*
Y407501D01*
X148669D01*
X150336D01*
X155334Y412499D02*
X153668D01*
X152835Y411666D01*
Y408334D01*
X153668Y407501D01*
X155334D01*
X156167Y408334D01*
Y411666D01*
X155334Y412499D01*
X157833Y407501D02*
X159499D01*
X158666D01*
Y412499D01*
X157833Y411666D01*
X165331Y412499D02*
X161998D01*
Y410000D01*
X163664Y410833D01*
X164498D01*
X165331Y410000D01*
Y408334D01*
X164498Y407501D01*
X162831D01*
X161998Y408334D01*
X592007Y255267D02*
X591174Y256100D01*
X589508D01*
X588675Y255267D01*
Y251935D01*
X589508Y251102D01*
X591174D01*
X592007Y251935D01*
X597006Y255267D02*
X596173Y256100D01*
X594507D01*
X593674Y255267D01*
Y254434D01*
X594507Y253601D01*
X596173D01*
X597006Y252768D01*
Y251935D01*
X596173Y251102D01*
X594507D01*
X593674Y251935D01*
X635167Y278267D02*
X634334Y279100D01*
X632668D01*
X631835Y278267D01*
Y274935D01*
X632668Y274101D01*
X634334D01*
X635167Y274935D01*
X640165Y278267D02*
X639332Y279100D01*
X637666D01*
X636833Y278267D01*
Y277434D01*
X637666Y276601D01*
X639332D01*
X640165Y275768D01*
Y274935D01*
X639332Y274101D01*
X637666D01*
X636833Y274935D01*
X572800Y322798D02*
X574466D01*
X573633D01*
Y317800D01*
X572800D01*
X574466D01*
X576965D02*
Y322798D01*
X580298Y317800D01*
Y322798D01*
X581964D02*
X585296D01*
X583630D01*
Y317800D01*
X586962D02*
X590294Y321132D01*
X595293Y322798D02*
X591960D01*
Y317800D01*
X595293D01*
X591960Y320299D02*
X593627D01*
X596959Y322798D02*
X600291Y317800D01*
Y322798D02*
X596959Y317800D01*
X601957Y322798D02*
X605290D01*
X603623D01*
Y317800D01*
X640752Y335798D02*
X642418D01*
X641585D01*
Y330800D01*
X640752D01*
X642418D01*
X644917D02*
Y335798D01*
X648250Y330800D01*
Y335798D01*
X649916D02*
X653248D01*
X651582D01*
Y330800D01*
X667668Y335798D02*
X664335D01*
Y330800D01*
X667668D01*
X664335Y333299D02*
X666002D01*
X669334Y335798D02*
X672666Y330800D01*
Y335798D02*
X669334Y330800D01*
X674332Y335798D02*
X677665D01*
X675998D01*
Y330800D01*
X666132Y377965D02*
X665299Y378798D01*
X663633D01*
X662800Y377965D01*
Y377132D01*
X663633Y376299D01*
X665299D01*
X666132Y375466D01*
Y374633D01*
X665299Y373800D01*
X663633D01*
X662800Y374633D01*
X667798Y373800D02*
Y378798D01*
X670298D01*
X671131Y377965D01*
Y376299D01*
X670298Y375466D01*
X667798D01*
X672797Y378798D02*
X674463D01*
X673630D01*
Y373800D01*
X672797D01*
X674463D01*
X537337Y357501D02*
Y362499D01*
X539836D01*
X540669Y361666D01*
Y360000D01*
X539836Y359167D01*
X537337D01*
X539003D02*
X540669Y357501D01*
X545668Y362499D02*
X542336D01*
Y357501D01*
X545668D01*
X542336Y360000D02*
X544002D01*
X550666Y361666D02*
X549833Y362499D01*
X548167D01*
X547334Y361666D01*
Y360833D01*
X548167Y360000D01*
X549833D01*
X550666Y359167D01*
Y358334D01*
X549833Y357501D01*
X548167D01*
X547334Y358334D01*
X555664Y362499D02*
X552332D01*
Y357501D01*
X555664D01*
X552332Y360000D02*
X553998D01*
X557331Y362499D02*
X560663D01*
X558997D01*
Y357501D01*
X533335Y337798D02*
Y334466D01*
X535002Y332800D01*
X536668Y334466D01*
Y337798D01*
X541666Y336965D02*
X540833Y337798D01*
X539167D01*
X538334Y336965D01*
Y333633D01*
X539167Y332800D01*
X540833D01*
X541666Y333633D01*
X546664Y336965D02*
X545831Y337798D01*
X544165D01*
X543332Y336965D01*
Y333633D01*
X544165Y332800D01*
X545831D01*
X546664Y333633D01*
X556668Y337798D02*
X553336D01*
Y332800D01*
X556668D01*
X553336Y335299D02*
X555002D01*
X558334Y337798D02*
X561666Y332800D01*
Y337798D02*
X558334Y332800D01*
X563332Y337798D02*
X566665D01*
X564998D01*
Y332800D01*
X209132Y448499D02*
X205800D01*
Y443501D01*
X209132D01*
X205800Y446000D02*
X207466D01*
X210798Y448499D02*
X214131Y443501D01*
Y448499D02*
X210798Y443501D01*
X215797Y448499D02*
X219129D01*
X217463D01*
Y443501D01*
X205800Y468499D02*
X207466D01*
X206633D01*
Y463501D01*
X205800D01*
X207466D01*
X209965D02*
Y468499D01*
X213298Y463501D01*
Y468499D01*
X214964D02*
X218296D01*
X216630D01*
Y463501D01*
X201132Y495965D02*
X200299Y496798D01*
X198633D01*
X197800Y495965D01*
Y495132D01*
X198633Y494299D01*
X200299D01*
X201132Y493466D01*
Y492633D01*
X200299Y491800D01*
X198633D01*
X197800Y492633D01*
X206131Y495965D02*
X205298Y496798D01*
X203631D01*
X202798Y495965D01*
Y492633D01*
X203631Y491800D01*
X205298D01*
X206131Y492633D01*
X207797Y496798D02*
Y491800D01*
X211129D01*
X180203Y495965D02*
X179370Y496798D01*
X177704D01*
X176871Y495965D01*
Y495132D01*
X177704Y494299D01*
X179370D01*
X180203Y493466D01*
Y492633D01*
X179370Y491800D01*
X177704D01*
X176871Y492633D01*
X181869Y496798D02*
Y491800D01*
X184369D01*
X185202Y492633D01*
Y495965D01*
X184369Y496798D01*
X181869D01*
X186868Y491800D02*
Y495132D01*
X188534Y496798D01*
X190200Y495132D01*
Y491800D01*
Y494299D01*
X186868D01*
X232668Y495666D02*
X231835Y496499D01*
X230169D01*
X229335Y495666D01*
Y492334D01*
X230169Y491501D01*
X231835D01*
X232668Y492334D01*
Y494000D01*
X231002D01*
X234334Y491501D02*
Y496499D01*
X237666Y491501D01*
Y496499D01*
X239332D02*
Y491501D01*
X241831D01*
X242665Y492334D01*
Y495666D01*
X241831Y496499D01*
X239332D01*
X249251D02*
X250917D01*
X250084D01*
Y491501D01*
X249251D01*
X250917D01*
X253416D02*
Y496499D01*
X256749Y491501D01*
Y496499D01*
X220132Y400798D02*
X216800D01*
Y395800D01*
X220132D01*
X216800Y398299D02*
X218466D01*
X221798Y400798D02*
X225131Y395800D01*
Y400798D02*
X221798Y395800D01*
X226797Y400798D02*
X230129D01*
X228463D01*
Y395800D01*
X216731Y419798D02*
X218397D01*
X217564D01*
Y414800D01*
X216731D01*
X218397D01*
X220896D02*
Y419798D01*
X224229Y414800D01*
Y419798D01*
X225895D02*
X229227D01*
X227561D01*
Y414800D01*
X353335Y479798D02*
Y474800D01*
X356668D01*
X361666Y479798D02*
X358334D01*
Y474800D01*
X361666D01*
X358334Y477299D02*
X360000D01*
X363332Y479798D02*
Y474800D01*
X365831D01*
X366665Y475633D01*
Y478965D01*
X365831Y479798D01*
X363332D01*
X328335Y467499D02*
X326669D01*
X325835Y466666D01*
Y463334D01*
X326669Y462501D01*
X328335D01*
X329168Y463334D01*
Y466666D01*
X328335Y467499D01*
X334166D02*
X330834D01*
Y465000D01*
X332500D01*
X330834D01*
Y462501D01*
X339164Y467499D02*
X335832D01*
Y465000D01*
X337498D01*
X335832D01*
Y462501D01*
X383334Y467499D02*
X381668D01*
X380835Y466666D01*
Y463334D01*
X381668Y462501D01*
X383334D01*
X384167Y463334D01*
Y466666D01*
X383334Y467499D01*
X385833Y462501D02*
Y467499D01*
X389165Y462501D01*
Y467499D01*
X501668Y354499D02*
X498336D01*
Y349501D01*
X501668D01*
X498336Y352000D02*
X500002D01*
X503334Y354499D02*
X506666Y349501D01*
Y354499D02*
X503334Y349501D01*
X508332Y354499D02*
X511664D01*
X509998D01*
Y349501D01*
X310668Y495666D02*
X309835Y496499D01*
X308169D01*
X307335Y495666D01*
Y492334D01*
X308169Y491501D01*
X309835D01*
X310668Y492334D01*
Y494000D01*
X309002D01*
X312334Y491501D02*
Y496499D01*
X315666Y491501D01*
Y496499D01*
X317332D02*
Y491501D01*
X319831D01*
X320665Y492334D01*
Y495666D01*
X319831Y496499D01*
X317332D01*
X291335Y496836D02*
X289669D01*
X288836Y496003D01*
Y492671D01*
X289669Y491838D01*
X291335D01*
X292168Y492671D01*
Y496003D01*
X291335Y496836D01*
X293834D02*
Y492671D01*
X294667Y491838D01*
X296333D01*
X297166Y492671D01*
Y496836D01*
X298832D02*
X302165D01*
X300498D01*
Y491838D01*
X270336Y496499D02*
Y491501D01*
X272835D01*
X273668Y492334D01*
Y495666D01*
X272835Y496499D01*
X270336D01*
X275334Y491501D02*
Y494833D01*
X277000Y496499D01*
X278666Y494833D01*
Y491501D01*
Y494000D01*
X275334D01*
X283664Y495666D02*
X282831Y496499D01*
X281165D01*
X280332Y495666D01*
Y492334D01*
X281165Y491501D01*
X282831D01*
X283664Y492334D01*
X684752Y305499D02*
X686418D01*
X685585D01*
Y300501D01*
X684752D01*
X686418D01*
X688917D02*
Y305499D01*
X692250Y300501D01*
Y305499D01*
X693916Y303000D02*
X697248D01*
X695582Y304666D02*
Y301334D01*
X684752Y292499D02*
X686418D01*
X685585D01*
Y287501D01*
X684752D01*
X686418D01*
X688917D02*
Y292499D01*
X692250Y287501D01*
Y292499D01*
X693916Y290000D02*
X697248D01*
X685835Y229499D02*
X684168D01*
X683335Y228666D01*
Y225334D01*
X684168Y224501D01*
X685835D01*
X686668Y225334D01*
Y228666D01*
X685835Y229499D01*
X688334D02*
Y225334D01*
X689167Y224501D01*
X690833D01*
X691666Y225334D01*
Y229499D01*
X693332D02*
X696664D01*
X694998D01*
Y224501D01*
X686668Y241666D02*
X685835Y242499D01*
X684168D01*
X683335Y241666D01*
Y238334D01*
X684168Y237501D01*
X685835D01*
X686668Y238334D01*
Y240000D01*
X685002D01*
X688334Y237501D02*
Y242499D01*
X691666Y237501D01*
Y242499D01*
X693332D02*
Y237501D01*
X695831D01*
X696664Y238334D01*
Y241666D01*
X695831Y242499D01*
X693332D01*
X439492Y466666D02*
X438659Y467499D01*
X436993D01*
X436160Y466666D01*
Y463334D01*
X436993Y462501D01*
X438659D01*
X439492Y463334D01*
Y465000D01*
X437826D01*
X441158Y462501D02*
Y467499D01*
X443657D01*
X444491Y466666D01*
Y465000D01*
X443657Y464167D01*
X441158D01*
X446157Y467499D02*
X449489D01*
Y466666D01*
X446157Y463334D01*
Y462501D01*
X439492Y456666D02*
X438659Y457499D01*
X436993D01*
X436160Y456666D01*
Y453334D01*
X436993Y452501D01*
X438659D01*
X439492Y453334D01*
Y455000D01*
X437826D01*
X441158Y452501D02*
Y457499D01*
X443657D01*
X444491Y456666D01*
Y455000D01*
X443657Y454167D01*
X441158D01*
X449489Y457499D02*
X447823Y456666D01*
X446157Y455000D01*
Y453334D01*
X446990Y452501D01*
X448656D01*
X449489Y453334D01*
Y454167D01*
X448656Y455000D01*
X446157D01*
X439752Y446666D02*
X438919Y447499D01*
X437253D01*
X436420Y446666D01*
Y443334D01*
X437253Y442501D01*
X438919D01*
X439752Y443334D01*
Y445000D01*
X438086D01*
X441418Y442501D02*
Y447499D01*
X443917D01*
X444750Y446666D01*
Y445000D01*
X443917Y444167D01*
X441418D01*
X449749Y447499D02*
X446417D01*
Y445000D01*
X448083Y445833D01*
X448916D01*
X449749Y445000D01*
Y443334D01*
X448916Y442501D01*
X447250D01*
X446417Y443334D01*
X439492Y436666D02*
X438659Y437499D01*
X436993D01*
X436160Y436666D01*
Y433334D01*
X436993Y432501D01*
X438659D01*
X439492Y433334D01*
Y435000D01*
X437826D01*
X441158Y432501D02*
Y437499D01*
X443657D01*
X444491Y436666D01*
Y435000D01*
X443657Y434167D01*
X441158D01*
X448656Y432501D02*
Y437499D01*
X446157Y435000D01*
X449489D01*
X439492Y426666D02*
X438659Y427499D01*
X436993D01*
X436160Y426666D01*
Y423334D01*
X436993Y422501D01*
X438659D01*
X439492Y423334D01*
Y425000D01*
X437826D01*
X441158Y422501D02*
Y427499D01*
X443657D01*
X444491Y426666D01*
Y425000D01*
X443657Y424167D01*
X441158D01*
X446157Y426666D02*
X446990Y427499D01*
X448656D01*
X449489Y426666D01*
Y425833D01*
X448656Y425000D01*
X447823D01*
X448656D01*
X449489Y424167D01*
Y423334D01*
X448656Y422501D01*
X446990D01*
X446157Y423334D01*
X439492Y416666D02*
X438659Y417499D01*
X436993D01*
X436160Y416666D01*
Y413334D01*
X436993Y412501D01*
X438659D01*
X439492Y413334D01*
Y415000D01*
X437826D01*
X441158Y412501D02*
Y417499D01*
X443657D01*
X444491Y416666D01*
Y415000D01*
X443657Y414167D01*
X441158D01*
X449489Y412501D02*
X446157D01*
X449489Y415833D01*
Y416666D01*
X448656Y417499D01*
X446990D01*
X446157Y416666D01*
X439492Y406666D02*
X438659Y407499D01*
X436993D01*
X436160Y406666D01*
Y403334D01*
X436993Y402501D01*
X438659D01*
X439492Y403334D01*
Y405000D01*
X437826D01*
X441158Y402501D02*
Y407499D01*
X443657D01*
X444491Y406666D01*
Y405000D01*
X443657Y404167D01*
X441158D01*
X446157Y402501D02*
X447823D01*
X446990D01*
Y407499D01*
X446157Y406666D01*
X439492Y396666D02*
X438659Y397499D01*
X436993D01*
X436160Y396666D01*
Y393334D01*
X436993Y392501D01*
X438659D01*
X439492Y393334D01*
Y395000D01*
X437826D01*
X441158Y392501D02*
Y397499D01*
X443657D01*
X444491Y396666D01*
Y395000D01*
X443657Y394167D01*
X441158D01*
X446157Y396666D02*
X446990Y397499D01*
X448656D01*
X449489Y396666D01*
Y393334D01*
X448656Y392501D01*
X446990D01*
X446157Y393334D01*
Y396666D01*
M02*
