G04*
G04 #@! TF.GenerationSoftware,Altium Limited,Altium Designer,23.4.1 (23)*
G04*
G04 Layer_Color=8421504*
%FSLAX25Y25*%
%MOIN*%
G70*
G04*
G04 #@! TF.SameCoordinates,E68B94D6-D60F-444A-AFFC-629A5A92400F*
G04*
G04*
G04 #@! TF.FilePolarity,Positive*
G04*
G01*
G75*
%ADD19R,0.03937X0.06299*%
%ADD20O,0.09055X0.02362*%
%ADD21O,0.02756X0.09843*%
%ADD22O,0.02362X0.07480*%
%ADD23R,0.04724X0.03543*%
%ADD24R,0.03543X0.04724*%
%ADD25R,0.05339X0.04349*%
%ADD26R,0.03543X0.03150*%
%ADD27R,0.03543X0.04331*%
%ADD28R,0.04331X0.05315*%
%ADD29R,0.06299X0.03937*%
%ADD30R,0.04349X0.05339*%
%ADD31O,0.07480X0.02362*%
G04:AMPARAMS|DCode=32|XSize=64.5mil|YSize=24.33mil|CornerRadius=12.17mil|HoleSize=0mil|Usage=FLASHONLY|Rotation=0.000|XOffset=0mil|YOffset=0mil|HoleType=Round|Shape=RoundedRectangle|*
%AMROUNDEDRECTD32*
21,1,0.06450,0.00000,0,0,0.0*
21,1,0.04017,0.02433,0,0,0.0*
1,1,0.02433,0.02009,0.00000*
1,1,0.02433,-0.02009,0.00000*
1,1,0.02433,-0.02009,0.00000*
1,1,0.02433,0.02009,0.00000*
%
%ADD32ROUNDEDRECTD32*%
%ADD33R,0.06450X0.02433*%
%ADD34R,0.05512X0.04724*%
%ADD35O,0.08661X0.02362*%
%ADD36R,0.07087X0.02362*%
D19*
X350157Y460276D02*
D03*
X360000D02*
D03*
X369843D02*
D03*
X350157Y469724D02*
D03*
X360000D02*
D03*
X369843D02*
D03*
X641843Y325224D02*
D03*
X632000D02*
D03*
X622157D02*
D03*
X641843Y315776D02*
D03*
X632000D02*
D03*
X622157D02*
D03*
X649157Y359051D02*
D03*
X659000D02*
D03*
X668843D02*
D03*
X649157Y368500D02*
D03*
X659000D02*
D03*
X668843D02*
D03*
X649000Y341500D02*
D03*
X658843D02*
D03*
X668685D02*
D03*
X649000Y350949D02*
D03*
X658843D02*
D03*
X668685D02*
D03*
X540158Y343000D02*
D03*
X550000D02*
D03*
X559842D02*
D03*
X540158Y352449D02*
D03*
X550000D02*
D03*
X559842D02*
D03*
D20*
X370827Y395000D02*
D03*
Y400000D02*
D03*
Y405000D02*
D03*
Y410000D02*
D03*
Y415000D02*
D03*
Y420000D02*
D03*
Y425000D02*
D03*
Y430000D02*
D03*
Y435000D02*
D03*
X335000Y395000D02*
D03*
Y400000D02*
D03*
Y405000D02*
D03*
Y410000D02*
D03*
Y415000D02*
D03*
Y420000D02*
D03*
Y425000D02*
D03*
Y430000D02*
D03*
Y435000D02*
D03*
D21*
X589500Y285854D02*
D03*
X594500D02*
D03*
X599500D02*
D03*
X604500D02*
D03*
X589500Y305146D02*
D03*
X594500D02*
D03*
X599500D02*
D03*
X604500D02*
D03*
D22*
Y243752D02*
D03*
X599500D02*
D03*
X594500D02*
D03*
X589500D02*
D03*
X604500Y225248D02*
D03*
X599500D02*
D03*
X594500D02*
D03*
X589500D02*
D03*
D23*
X624000Y251768D02*
D03*
Y243500D02*
D03*
X616000Y199866D02*
D03*
Y208134D02*
D03*
X606000Y199866D02*
D03*
Y208134D02*
D03*
X554000Y199866D02*
D03*
Y208134D02*
D03*
X544000Y199866D02*
D03*
Y208134D02*
D03*
X420000Y199866D02*
D03*
Y208134D02*
D03*
X430000Y199866D02*
D03*
Y208134D02*
D03*
X482000Y199866D02*
D03*
Y208134D02*
D03*
X492000Y199866D02*
D03*
Y208134D02*
D03*
X689000Y449866D02*
D03*
Y458134D02*
D03*
X181000Y456000D02*
D03*
Y447732D02*
D03*
X173000Y456000D02*
D03*
Y447732D02*
D03*
D24*
X616866Y266500D02*
D03*
X625134D02*
D03*
X415134Y395000D02*
D03*
X406866D02*
D03*
X415134Y405000D02*
D03*
X406866D02*
D03*
X415134Y455000D02*
D03*
X406866D02*
D03*
X415134Y465000D02*
D03*
X406866D02*
D03*
X415134Y445000D02*
D03*
X406866D02*
D03*
X415000Y435000D02*
D03*
X406732D02*
D03*
X415134Y415000D02*
D03*
X406866D02*
D03*
X415134Y425000D02*
D03*
X406866D02*
D03*
D25*
X614000Y243500D02*
D03*
Y237943D02*
D03*
X615000Y285943D02*
D03*
Y291500D02*
D03*
D26*
X643937Y204000D02*
D03*
X636063Y200260D02*
D03*
Y207740D02*
D03*
X581937Y204000D02*
D03*
X574063Y200260D02*
D03*
Y207740D02*
D03*
X519937Y204000D02*
D03*
X512063Y200260D02*
D03*
Y207740D02*
D03*
X457937Y204000D02*
D03*
X450063Y200260D02*
D03*
Y207740D02*
D03*
D27*
X430000Y445000D02*
D03*
X422520D02*
D03*
X429740Y395000D02*
D03*
X422260D02*
D03*
X429740Y405000D02*
D03*
X422260D02*
D03*
X429740Y455000D02*
D03*
X422260D02*
D03*
X429740Y435000D02*
D03*
X422260D02*
D03*
X429740Y415000D02*
D03*
X422260D02*
D03*
X429740Y465000D02*
D03*
X422260D02*
D03*
X429740Y425000D02*
D03*
X422260D02*
D03*
D28*
X533000Y371000D02*
D03*
X538512D02*
D03*
X545244D02*
D03*
X550756D02*
D03*
D29*
X243224Y398158D02*
D03*
Y408000D02*
D03*
Y417842D02*
D03*
X233776Y398158D02*
D03*
Y408000D02*
D03*
Y417842D02*
D03*
X189276Y465842D02*
D03*
Y456000D02*
D03*
Y446158D02*
D03*
X198724Y465842D02*
D03*
Y456000D02*
D03*
Y446158D02*
D03*
D30*
X254500Y420500D02*
D03*
X260057D02*
D03*
X211779Y418500D02*
D03*
X206221D02*
D03*
X308500Y419000D02*
D03*
X302943D02*
D03*
X370779Y446000D02*
D03*
X365221D02*
D03*
D31*
X308504Y395000D02*
D03*
Y400000D02*
D03*
Y405000D02*
D03*
Y410000D02*
D03*
X290000Y395000D02*
D03*
Y400000D02*
D03*
Y405000D02*
D03*
Y410000D02*
D03*
D32*
X264183D02*
D03*
Y402520D02*
D03*
X255000D02*
D03*
Y406260D02*
D03*
D33*
Y410000D02*
D03*
D34*
X280000Y424500D02*
D03*
Y417807D02*
D03*
D35*
X211449Y395000D02*
D03*
Y400000D02*
D03*
Y405000D02*
D03*
Y410000D02*
D03*
X192551Y395000D02*
D03*
Y400000D02*
D03*
Y405000D02*
D03*
Y410000D02*
D03*
D36*
X290000Y432000D02*
D03*
Y424520D02*
D03*
X297874Y428260D02*
D03*
M02*
