G04*
G04 #@! TF.GenerationSoftware,Altium Limited,Altium Designer,23.4.1 (23)*
G04*
G04 Layer_Color=8421504*
%FSLAX26Y26*%
%MOIN*%
G70*
G04*
G04 #@! TF.SameCoordinates,7CE1F54E-F9D9-4D57-B496-837467B0791C*
G04*
G04*
G04 #@! TF.FilePolarity,Positive*
G04*
G01*
G75*
%ADD19R,0.039370X0.062992*%
%ADD20O,0.090551X0.023622*%
%ADD21O,0.027559X0.098425*%
%ADD22O,0.023622X0.074803*%
%ADD23R,0.047244X0.035433*%
%ADD24R,0.035433X0.047244*%
%ADD25R,0.053394X0.043490*%
%ADD26R,0.035433X0.031496*%
%ADD27R,0.035433X0.043307*%
%ADD28R,0.043307X0.053150*%
%ADD29R,0.062992X0.039370*%
%ADD30R,0.043490X0.053394*%
%ADD31O,0.074803X0.023622*%
G04:AMPARAMS|DCode=32|XSize=64.499mil|YSize=24.329mil|CornerRadius=12.165mil|HoleSize=0mil|Usage=FLASHONLY|Rotation=0.000|XOffset=0mil|YOffset=0mil|HoleType=Round|Shape=RoundedRectangle|*
%AMROUNDEDRECTD32*
21,1,0.064499,0.000000,0,0,0.0*
21,1,0.040170,0.024329,0,0,0.0*
1,1,0.024329,0.020085,0.000000*
1,1,0.024329,-0.020085,0.000000*
1,1,0.024329,-0.020085,0.000000*
1,1,0.024329,0.020085,0.000000*
%
%ADD32ROUNDEDRECTD32*%
%ADD33R,0.064499X0.024329*%
%ADD34R,0.055118X0.047244*%
%ADD35O,0.086614X0.023622*%
%ADD36R,0.070866X0.023622*%
D19*
X3501575Y4602756D02*
D03*
X3600000D02*
D03*
X3698425D02*
D03*
X3501575Y4697244D02*
D03*
X3600000D02*
D03*
X3698425D02*
D03*
X6418425Y3252244D02*
D03*
X6320000D02*
D03*
X6221575D02*
D03*
X6418425Y3157756D02*
D03*
X6320000D02*
D03*
X6221575D02*
D03*
X6491575Y3590512D02*
D03*
X6590000D02*
D03*
X6688425D02*
D03*
X6491575Y3685000D02*
D03*
X6590000D02*
D03*
X6688425D02*
D03*
X6490000Y3415000D02*
D03*
X6588425D02*
D03*
X6686850D02*
D03*
X6490000Y3509488D02*
D03*
X6588425D02*
D03*
X6686850D02*
D03*
X5401575Y3430000D02*
D03*
X5500000D02*
D03*
X5598425D02*
D03*
X5401575Y3524488D02*
D03*
X5500000D02*
D03*
X5598425D02*
D03*
D20*
X3708268Y3950000D02*
D03*
Y4000000D02*
D03*
Y4050000D02*
D03*
Y4100000D02*
D03*
Y4150000D02*
D03*
Y4200000D02*
D03*
Y4250000D02*
D03*
Y4300000D02*
D03*
Y4350000D02*
D03*
X3350000Y3950000D02*
D03*
Y4000000D02*
D03*
Y4050000D02*
D03*
Y4100000D02*
D03*
Y4150000D02*
D03*
Y4200000D02*
D03*
Y4250000D02*
D03*
Y4300000D02*
D03*
Y4350000D02*
D03*
D21*
X5895000Y2858543D02*
D03*
X5945000D02*
D03*
X5995000D02*
D03*
X6045000D02*
D03*
X5895000Y3051457D02*
D03*
X5945000D02*
D03*
X5995000D02*
D03*
X6045000D02*
D03*
D22*
Y2437520D02*
D03*
X5995000D02*
D03*
X5945000D02*
D03*
X5895000D02*
D03*
X6045000Y2252480D02*
D03*
X5995000D02*
D03*
X5945000D02*
D03*
X5895000D02*
D03*
D23*
X6240000Y2517677D02*
D03*
Y2435000D02*
D03*
X6160000Y1998661D02*
D03*
Y2081339D02*
D03*
X6060000Y1998661D02*
D03*
Y2081339D02*
D03*
X5540000Y1998661D02*
D03*
Y2081339D02*
D03*
X5440000Y1998661D02*
D03*
Y2081339D02*
D03*
X4200000Y1998661D02*
D03*
Y2081339D02*
D03*
X4300000Y1998661D02*
D03*
Y2081339D02*
D03*
X4820000Y1998661D02*
D03*
Y2081339D02*
D03*
X4920000Y1998661D02*
D03*
Y2081339D02*
D03*
X6890000Y4498661D02*
D03*
Y4581339D02*
D03*
X1810000Y4560000D02*
D03*
Y4477323D02*
D03*
X1730000Y4560000D02*
D03*
Y4477323D02*
D03*
D24*
X6168661Y2665000D02*
D03*
X6251339D02*
D03*
X4151339Y3950000D02*
D03*
X4068661D02*
D03*
X4151339Y4050000D02*
D03*
X4068661D02*
D03*
X4151339Y4550000D02*
D03*
X4068661D02*
D03*
X4151339Y4650000D02*
D03*
X4068661D02*
D03*
X4151339Y4450000D02*
D03*
X4068661D02*
D03*
X4150000Y4350000D02*
D03*
X4067323D02*
D03*
X4151339Y4150000D02*
D03*
X4068661D02*
D03*
X4151339Y4250000D02*
D03*
X4068661D02*
D03*
D25*
X6140000Y2435000D02*
D03*
Y2379427D02*
D03*
X6150000Y2859427D02*
D03*
Y2915000D02*
D03*
D26*
X6439370Y2040000D02*
D03*
X6360630Y2002599D02*
D03*
Y2077402D02*
D03*
X5819370Y2040000D02*
D03*
X5740630Y2002599D02*
D03*
Y2077402D02*
D03*
X5199370Y2040000D02*
D03*
X5120630Y2002599D02*
D03*
Y2077402D02*
D03*
X4579370Y2040000D02*
D03*
X4500630Y2002599D02*
D03*
Y2077402D02*
D03*
D27*
X4300000Y4450000D02*
D03*
X4225197D02*
D03*
X4297402Y3950000D02*
D03*
X4222598D02*
D03*
X4297402Y4050000D02*
D03*
X4222598D02*
D03*
X4297402Y4550000D02*
D03*
X4222598D02*
D03*
X4297402Y4350000D02*
D03*
X4222598D02*
D03*
X4297402Y4150000D02*
D03*
X4222598D02*
D03*
X4297402Y4650000D02*
D03*
X4222598D02*
D03*
X4297402Y4250000D02*
D03*
X4222598D02*
D03*
D28*
X5330000Y3710000D02*
D03*
X5385118D02*
D03*
X5452441D02*
D03*
X5507559D02*
D03*
D29*
X2432244Y3981575D02*
D03*
Y4080000D02*
D03*
Y4178425D02*
D03*
X2337756Y3981575D02*
D03*
Y4080000D02*
D03*
Y4178425D02*
D03*
X1892756Y4658425D02*
D03*
Y4560000D02*
D03*
Y4461575D02*
D03*
X1987244Y4658425D02*
D03*
Y4560000D02*
D03*
Y4461575D02*
D03*
D30*
X2545000Y4205000D02*
D03*
X2600573D02*
D03*
X2117787Y4185000D02*
D03*
X2062213D02*
D03*
X3085000Y4190000D02*
D03*
X3029427D02*
D03*
X3707787Y4460000D02*
D03*
X3652213D02*
D03*
D31*
X3085039Y3950000D02*
D03*
Y4000000D02*
D03*
Y4050000D02*
D03*
Y4100000D02*
D03*
X2900000Y3950000D02*
D03*
Y4000000D02*
D03*
Y4050000D02*
D03*
Y4100000D02*
D03*
D32*
X2641828D02*
D03*
Y4025197D02*
D03*
X2550000D02*
D03*
Y4062598D02*
D03*
D33*
Y4100000D02*
D03*
D34*
X2800000Y4245000D02*
D03*
Y4178071D02*
D03*
D35*
X2114488Y3950000D02*
D03*
Y4000000D02*
D03*
Y4050000D02*
D03*
Y4100000D02*
D03*
X1925512Y3950000D02*
D03*
Y4000000D02*
D03*
Y4050000D02*
D03*
Y4100000D02*
D03*
D36*
X2900000Y4320000D02*
D03*
Y4245197D02*
D03*
X2978740Y4282598D02*
D03*
M02*
