%FSTAX23Y23*%
%MOIN*%
%SFA1B1*%

%IPPOS*%
%ADD13C,0.010000*%
%ADD16R,0.011810X0.033470*%
%ADD17R,0.033470X0.011810*%
%ADD18R,0.080710X0.080710*%
%ADD19R,0.040160X0.057870*%
%ADD20R,0.037010X0.056300*%
%ADD21R,0.021650X0.021650*%
%ADD22R,0.057090X0.037400*%
%ADD23R,0.051180X0.031500*%
%ADD24R,0.057870X0.040160*%
%ADD25R,0.041340X0.023620*%
%ADD26R,0.078740X0.085830*%
%ADD27R,0.045280X0.011810*%
%ADD28R,0.039370X0.055120*%
%ADD29R,0.125980X0.070870*%
%ADD30R,0.035430X0.070870*%
%ADD31R,0.035430X0.059060*%
%ADD32R,0.059060X0.035430*%
%ADD33R,0.055120X0.039370*%
%ADD34R,0.055120X0.035430*%
%ADD59C,0.035000*%
%ADD60C,0.009000*%
%ADD61C,0.017500*%
%ADD62C,0.012000*%
%ADD63C,0.020000*%
%ADD64C,0.030000*%
%ADD65C,0.012800*%
%ADD66C,0.068900*%
%ADD67C,0.019680*%
%ADD68C,0.050000*%
%LNesp32-hwe-1*%
%LPD*%
G36*
X01975Y01259D02*
D01*
Y-00059*
X00025*
Y00356*
X0006*
Y00409*
Y00461*
X00025*
Y00758*
X0006*
Y00811*
Y00864*
X00025*
Y01259*
X01975*
G37*
%LNesp32-hwe-2*%
%LPC*%
G36*
X00605Y01234D02*
X00605D01*
Y01195*
X00644*
Y01195*
X00641Y01207*
X00635Y01217*
X00627Y01225*
X00617Y01231*
X00605Y01234*
G37*
G36*
X00405D02*
X00405D01*
Y01195*
X00444*
Y01195*
X00441Y01207*
X00435Y01217*
X00427Y01225*
X00417Y01231*
X00405Y01234*
G37*
G36*
X00305D02*
X00305D01*
Y01195*
X00344*
Y01195*
X00341Y01207*
X00335Y01217*
X00327Y01225*
X00317Y01231*
X00305Y01234*
G37*
G36*
X00205D02*
X00205D01*
Y01195*
X00244*
Y01195*
X00241Y01207*
X00235Y01217*
X00227Y01225*
X00217Y01231*
X00205Y01234*
G37*
G36*
X00595D02*
X00594D01*
X00582Y01231*
X00572Y01225*
X00564Y01217*
X00558Y01207*
X00555Y01195*
Y01195*
X00595*
Y01234*
G37*
G36*
X00395D02*
X00394D01*
X00382Y01231*
X00372Y01225*
X00364Y01217*
X00358Y01207*
X00355Y01195*
Y01195*
X00395*
Y01234*
G37*
G36*
X00295D02*
X00294D01*
X00282Y01231*
X00272Y01225*
X00264Y01217*
X00258Y01207*
X00255Y01195*
Y01195*
X00295*
Y01234*
G37*
G36*
X00195D02*
X00194D01*
X00182Y01231*
X00172Y01225*
X00164Y01217*
X00158Y01207*
X00155Y01195*
Y01195*
X00195*
Y01234*
G37*
G36*
X00644Y01185D02*
X006D01*
X00555*
Y01184*
X00558Y01172*
X00564Y01162*
X00572Y01154*
X00582Y01148*
X00586Y01147*
Y01142*
X00582Y01141*
X00572Y01135*
X00564Y01127*
X00558Y01117*
X00555Y01105*
Y01105*
X006*
X00644*
Y01105*
X00641Y01117*
X00635Y01127*
X00627Y01135*
X00617Y01141*
X00613Y01142*
Y01147*
X00617Y01148*
X00627Y01154*
X00635Y01162*
X00641Y01172*
X00644Y01184*
Y01185*
G37*
G36*
X00444D02*
X004D01*
X00355*
Y01184*
X00358Y01172*
X00364Y01162*
X00372Y01154*
X00382Y01148*
X00386Y01147*
Y01142*
X00382Y01141*
X00372Y01135*
X00364Y01127*
X00358Y01117*
X00355Y01105*
Y01105*
X004*
X00444*
Y01105*
X00441Y01117*
X00435Y01127*
X00427Y01135*
X00417Y01141*
X00413Y01142*
Y01147*
X00417Y01148*
X00427Y01154*
X00435Y01162*
X00441Y01172*
X00444Y01184*
Y01185*
G37*
G36*
X00344D02*
X003D01*
X00255*
Y01184*
X00258Y01172*
X00264Y01162*
X00272Y01154*
X00282Y01148*
X00286Y01147*
Y01142*
X00282Y01141*
X00272Y01135*
X00264Y01127*
X00258Y01117*
X00255Y01105*
Y01105*
X003*
X00344*
Y01105*
X00341Y01117*
X00335Y01127*
X00327Y01135*
X00317Y01141*
X00313Y01142*
Y01147*
X00317Y01148*
X00327Y01154*
X00335Y01162*
X00341Y01172*
X00344Y01184*
Y01185*
G37*
G36*
X00244D02*
X002D01*
X00155*
Y01184*
X00158Y01172*
X00164Y01162*
X00172Y01154*
X00182Y01148*
X00186Y01147*
Y01142*
X00182Y01141*
X00172Y01135*
X00164Y01127*
X00158Y01117*
X00155Y01105*
Y01105*
X002*
X00244*
Y01105*
X00241Y01117*
X00235Y01127*
X00227Y01135*
X00217Y01141*
X00213Y01142*
Y01147*
X00217Y01148*
X00227Y01154*
X00235Y01162*
X00241Y01172*
X00244Y01184*
Y01185*
G37*
G36*
X00905Y01229D02*
X00894D01*
X00884Y01226*
X00875Y01221*
X00868Y01214*
X00863Y01205*
X0086Y01195*
Y01184*
X00863Y01174*
X00868Y01165*
X00875Y01158*
X00877Y01157*
Y01132*
X00875Y01131*
X00868Y01124*
X00863Y01115*
X0086Y01105*
Y01094*
X00863Y01084*
X00868Y01075*
X00875Y01068*
X00884Y01063*
X00894Y0106*
X00905*
X00915Y01063*
X00924Y01068*
X00931Y01075*
X00936Y01084*
X00939Y01094*
Y01105*
X00936Y01115*
X00931Y01124*
X00924Y01131*
X00922Y01132*
Y01157*
X00924Y01158*
X00931Y01165*
X00936Y01174*
X00939Y01184*
Y01195*
X00936Y01205*
X00931Y01214*
X00924Y01221*
X00915Y01226*
X00905Y01229*
G37*
G36*
X00805D02*
X00794D01*
X00784Y01226*
X00775Y01221*
X00768Y01214*
X00763Y01205*
X0076Y01195*
Y01184*
X00763Y01174*
X00768Y01165*
X00775Y01158*
X00777Y01157*
Y01132*
X00775Y01131*
X00768Y01124*
X00763Y01115*
X0076Y01105*
Y01094*
X00763Y01084*
X00768Y01075*
X00775Y01068*
X00784Y01063*
X00794Y0106*
X00805*
X00815Y01063*
X00824Y01068*
X00831Y01075*
X00836Y01084*
X00839Y01094*
Y01105*
X00836Y01115*
X00831Y01124*
X00824Y01131*
X00822Y01132*
Y01157*
X00824Y01158*
X00831Y01165*
X00836Y01174*
X00839Y01184*
Y01195*
X00836Y01205*
X00831Y01214*
X00824Y01221*
X00815Y01226*
X00805Y01229*
G37*
G36*
X00705D02*
X00694D01*
X00684Y01226*
X00675Y01221*
X00668Y01214*
X00663Y01205*
X0066Y01195*
Y01184*
X00663Y01174*
X00668Y01165*
X00675Y01158*
X00677Y01157*
Y01132*
X00675Y01131*
X00668Y01124*
X00663Y01115*
X0066Y01105*
Y01094*
X00663Y01084*
X00668Y01075*
X00675Y01068*
X00684Y01063*
X00694Y0106*
X00705*
X00715Y01063*
X00724Y01068*
X00731Y01075*
X00736Y01084*
X00739Y01094*
Y01105*
X00736Y01115*
X00731Y01124*
X00724Y01131*
X00722Y01132*
Y01157*
X00724Y01158*
X00731Y01165*
X00736Y01174*
X00739Y01184*
Y01195*
X00736Y01205*
X00731Y01214*
X00724Y01221*
X00715Y01226*
X00705Y01229*
G37*
G36*
X00505D02*
X00494D01*
X00484Y01226*
X00475Y01221*
X00468Y01214*
X00463Y01205*
X0046Y01195*
Y01184*
X00463Y01174*
X00468Y01165*
X00475Y01158*
X00477Y01157*
Y01132*
X00475Y01131*
X00468Y01124*
X00463Y01115*
X0046Y01105*
Y01094*
X00463Y01084*
X00468Y01075*
X00475Y01068*
X00484Y01063*
X00494Y0106*
X00505*
X00515Y01063*
X00524Y01068*
X00531Y01075*
X00536Y01084*
X00539Y01094*
Y01105*
X00536Y01115*
X00531Y01124*
X00524Y01131*
X00522Y01132*
Y01157*
X00524Y01158*
X00531Y01165*
X00536Y01174*
X00539Y01184*
Y01195*
X00536Y01205*
X00531Y01214*
X00524Y01221*
X00515Y01226*
X00505Y01229*
G37*
G36*
X00644Y01095D02*
X00605D01*
Y01055*
X00605*
X00617Y01058*
X00627Y01064*
X00635Y01072*
X00641Y01082*
X00644Y01094*
Y01095*
G37*
G36*
X00595D02*
X00555D01*
Y01094*
X00558Y01082*
X00564Y01072*
X00572Y01064*
X00582Y01058*
X00594Y01055*
X00595*
Y01095*
G37*
G36*
X00444D02*
X00405D01*
Y01055*
X00405*
X00417Y01058*
X00427Y01064*
X00435Y01072*
X00441Y01082*
X00444Y01094*
Y01095*
G37*
G36*
X00395D02*
X00355D01*
Y01094*
X00358Y01082*
X00364Y01072*
X00372Y01064*
X00382Y01058*
X00394Y01055*
X00395*
Y01095*
G37*
G36*
X00344D02*
X00305D01*
Y01055*
X00305*
X00317Y01058*
X00327Y01064*
X00335Y01072*
X00341Y01082*
X00344Y01094*
Y01095*
G37*
G36*
X00295D02*
X00255D01*
Y01094*
X00258Y01082*
X00264Y01072*
X00272Y01064*
X00282Y01058*
X00294Y01055*
X00295*
Y01095*
G37*
G36*
X00244D02*
X00205D01*
Y01055*
X00205*
X00217Y01058*
X00227Y01064*
X00235Y01072*
X00241Y01082*
X00244Y01094*
Y01095*
G37*
G36*
X00195D02*
X00155D01*
Y01094*
X00158Y01082*
X00164Y01072*
X00172Y01064*
X00182Y01058*
X00194Y01055*
X00195*
Y01095*
G37*
G36*
X00717Y01041D02*
X00666D01*
Y0104*
X0062*
X00614Y01039*
X00609Y01035*
X00535Y00962*
X00492*
Y00912*
X00557*
Y0094*
X00574Y00957*
X00579Y00955*
Y00912*
X00644*
Y00933*
X00646Y00934*
X00666*
Y00933*
X00682*
Y00914*
X0068Y00912*
X00678Y00906*
Y00901*
X0068Y00895*
X00684Y00891*
X0069Y00889*
X00695*
X00701Y00891*
X00705Y00895*
X00707Y00901*
Y00906*
X00705Y00912*
X00703Y00914*
Y00933*
X00717*
Y00967*
X00666*
Y00965*
X00641*
X00635Y00964*
X00632Y00962*
X00621*
X00619Y00962*
X00586*
X00584Y00967*
X00626Y01009*
X00666*
Y01008*
X00717*
Y01041*
G37*
G36*
X00149Y0101D02*
Y00994D01*
X00165*
Y0101*
X00149*
G37*
G36*
X01905Y01229D02*
X01894D01*
X01884Y01226*
X01875Y01221*
X01868Y01214*
X01863Y01205*
X0186Y01195*
Y01184*
X01863Y01174*
X01868Y01165*
X01875Y01158*
X01877Y01157*
Y01132*
X01875Y01131*
X01868Y01124*
X01863Y01115*
X0186Y01105*
Y01094*
X01863Y01084*
X01865Y0108*
X01865Y01079*
Y0098*
X01861Y00979*
X0186*
X01848*
Y01061*
X01848Y01065*
X01845Y01068*
X01834Y0108*
X01836Y01084*
X01839Y01094*
Y01105*
X01836Y01115*
X01831Y01124*
X01824Y01131*
X01822Y01132*
Y01157*
X01824Y01158*
X01831Y01165*
X01836Y01174*
X01839Y01184*
Y01195*
X01836Y01205*
X01831Y01214*
X01824Y01221*
X01815Y01226*
X01805Y01229*
X01794*
X01784Y01226*
X01775Y01221*
X01768Y01214*
X01763Y01205*
X0176Y01195*
Y01184*
X01763Y01174*
X01768Y01165*
X01775Y01158*
X01777Y01157*
Y01132*
X01775Y01131*
X01768Y01124*
X01763Y01115*
X0176Y01105*
Y01094*
X01762Y01088*
X0176Y01086*
X01758Y01084*
X01755Y01085*
X01745*
X01738Y01091*
X01739Y01094*
Y01105*
X01736Y01115*
X01731Y01124*
X01724Y01131*
X01722Y01132*
Y01157*
X01724Y01158*
X01731Y01165*
X01736Y01174*
X01739Y01184*
Y01195*
X01736Y01205*
X01731Y01214*
X01724Y01221*
X01715Y01226*
X01705Y01229*
X01694*
X01684Y01226*
X01675Y01221*
X01668Y01214*
X01663Y01205*
X0166Y01195*
Y01184*
X01663Y01174*
X01668Y01165*
X01675Y01158*
X01677Y01157*
Y01132*
X01675Y01131*
X01668Y01124*
X01663Y01115*
X0166Y01105*
Y01094*
X01663Y01084*
X01668Y01075*
X01675Y01068*
X01681Y01065*
X0168Y0106*
X01654*
X01634Y0108*
X01636Y01084*
X01639Y01094*
Y01105*
X01636Y01115*
X01631Y01124*
X01624Y01131*
X01622Y01132*
Y01157*
X01624Y01158*
X01631Y01165*
X01636Y01174*
X01639Y01184*
Y01195*
X01636Y01205*
X01631Y01214*
X01624Y01221*
X01615Y01226*
X01605Y01229*
X01594*
X01584Y01226*
X01575Y01221*
X01568Y01214*
X01563Y01205*
X0156Y01195*
Y01184*
X01563Y01174*
X01568Y01165*
X01575Y01158*
X01577Y01157*
Y01132*
X01575Y01131*
X01568Y01124*
X01563Y01115*
X0156Y01105*
Y01094*
X01563Y01084*
X01568Y01075*
X01574Y0107*
X01571Y01065*
X01564*
X01538Y0109*
X01539Y01094*
Y01105*
X01536Y01115*
X01531Y01124*
X01524Y01131*
X01522Y01132*
Y01157*
X01524Y01158*
X01531Y01165*
X01536Y01174*
X01539Y01184*
Y01195*
X01536Y01205*
X01531Y01214*
X01524Y01221*
X01515Y01226*
X01505Y01229*
X01494*
X01484Y01226*
X01475Y01221*
X01468Y01214*
X01463Y01205*
X0146Y01195*
Y01184*
X01463Y01174*
X01468Y01165*
X01475Y01158*
X01477Y01157*
Y01132*
X01475Y01131*
X01468Y01124*
X01463Y01115*
X0146Y01105*
Y01094*
X01463Y01084*
X01468Y01075*
X01474Y0107*
X01471Y01065*
X01449*
X01434Y0108*
X01436Y01084*
X01439Y01094*
Y01105*
X01436Y01115*
X01431Y01124*
X01424Y01131*
X01422Y01132*
Y01157*
X01424Y01158*
X01431Y01165*
X01436Y01174*
X01439Y01184*
Y01195*
X01436Y01205*
X01431Y01214*
X01424Y01221*
X01415Y01226*
X01405Y01229*
X01394*
X01384Y01226*
X01375Y01221*
X01368Y01214*
X01363Y01205*
X0136Y01195*
Y01184*
X01363Y01174*
X01368Y01165*
X01375Y01158*
X01377Y01157*
Y01132*
X01375Y01131*
X01368Y01124*
X01363Y01115*
X0136Y01105*
Y01094*
X01363Y01084*
X01368Y01075*
X01375Y01068*
X01381Y01065*
X0138Y0106*
X01354*
X01334Y0108*
X01336Y01084*
X01339Y01094*
Y01105*
X01336Y01115*
X01331Y01124*
X01324Y01131*
X01322Y01132*
Y01157*
X01324Y01158*
X01331Y01165*
X01336Y01174*
X01339Y01184*
Y01195*
X01336Y01205*
X01331Y01214*
X01324Y01221*
X01315Y01226*
X01305Y01229*
X01294*
X01284Y01226*
X01275Y01221*
X01268Y01214*
X01263Y01205*
X0126Y01195*
Y01184*
X01263Y01174*
X01268Y01165*
X01275Y01158*
X01277Y01157*
Y01132*
X01275Y01131*
X01268Y01124*
X01263Y01115*
X0126Y01105*
Y01094*
X01261Y01089*
X01257Y01086*
X01248Y01095*
X01245Y01098*
X01241Y01098*
X01239*
Y01105*
X01236Y01115*
X01231Y01124*
X01224Y01131*
X01222Y01132*
Y01157*
X01224Y01158*
X01231Y01165*
X01236Y01174*
X01239Y01184*
Y01195*
X01236Y01205*
X01231Y01214*
X01224Y01221*
X01215Y01226*
X01205Y01229*
X01194*
X01184Y01226*
X01175Y01221*
X01168Y01214*
X01163Y01205*
X0116Y01195*
Y01184*
X01163Y01174*
X01168Y01165*
X01175Y01158*
X01177Y01157*
Y01132*
X01175Y01131*
X01168Y01124*
X01163Y01115*
X0116Y01105*
Y01098*
X01155Y01095*
X01152Y01098*
X01148Y01098*
X01139*
Y01105*
X01136Y01115*
X01131Y01124*
X01124Y01131*
X01122Y01132*
Y01157*
X01124Y01158*
X01131Y01165*
X01136Y01174*
X01139Y01184*
Y01195*
X01136Y01205*
X01131Y01214*
X01124Y01221*
X01115Y01226*
X01105Y01229*
X01094*
X01084Y01226*
X01075Y01221*
X01068Y01214*
X01063Y01205*
X0106Y01195*
Y01184*
X01063Y01174*
X01068Y01165*
X01075Y01158*
X01077Y01157*
Y01132*
X01075Y01131*
X01068Y01124*
X01063Y01115*
X0106Y01105*
Y01098*
X01055Y01096*
X01048Y01103*
X01044Y01105*
X01041Y01106*
X01039*
X01036Y01115*
X01031Y01124*
X01024Y01131*
X01022Y01132*
Y01157*
X01024Y01158*
X01031Y01165*
X01036Y01174*
X01039Y01184*
Y01195*
X01036Y01205*
X01031Y01214*
X01024Y01221*
X01015Y01226*
X01005Y01229*
X00994*
X00984Y01226*
X00975Y01221*
X00968Y01214*
X00963Y01205*
X0096Y01195*
Y01184*
X00963Y01174*
X00968Y01165*
X00975Y01158*
X00977Y01157*
Y01132*
X00975Y01131*
X00968Y01124*
X00963Y01115*
X0096Y01105*
Y01094*
X00963Y01084*
X00968Y01075*
X00975Y01068*
X00984Y01063*
X00994Y0106*
X01005*
X01015Y01063*
X01024Y01068*
X01031Y01075*
X01034Y01081*
X0104Y01081*
X01062Y0106*
X0106Y01055*
X00915*
X00911Y01054*
X00907Y01052*
X00887Y01031*
X00885Y01028*
X00884Y01024*
Y00923*
X00878*
X00872Y00922*
X00867Y00919*
X00826Y00878*
X00823Y00873*
X00822Y00867*
Y00827*
X00803*
Y00829*
X00752*
Y00795*
X00803*
Y00797*
X00837*
X00839Y00797*
X0084*
X0084Y00798*
X00843Y00798*
X00845Y00799*
X00845Y008*
X00846Y008*
X00848Y00801*
X00849Y00803*
X00849Y00804*
X0085Y00804*
X00851Y00806*
X00851Y00809*
X00852Y00809*
Y0081*
X00852Y00812*
Y00861*
X00884Y00893*
X00912*
Y00876*
X00962*
Y00941*
X00912*
Y00923*
X00904*
Y0102*
X00914Y0103*
X00919Y01028*
Y00998*
X0095*
X0098*
Y01029*
Y01031*
X00983Y01034*
X01058*
X0114Y00952*
X01138Y00948*
X01108*
Y00915*
X01137*
X01165*
Y00921*
X0117Y00923*
X01215Y00877*
X01219Y00875*
X01223Y00874*
X01825*
X01828Y00875*
X01832Y00877*
X01845Y00891*
X01848Y00894*
X01848Y00898*
Y0091*
X01861*
X01861*
X01866Y00909*
Y00891*
X01867Y00882*
X01872Y00874*
X01873Y00873*
X01881Y00868*
X0189Y00867*
X01898Y00868*
X01906Y00873*
X01911Y00881*
X01912Y0089*
X01911Y00895*
Y00905*
X01933*
Y00945*
Y00984*
X01911*
Y01062*
X01915Y01063*
X01924Y01068*
X01931Y01075*
X01936Y01084*
X01939Y01094*
Y01105*
X01936Y01115*
X01931Y01124*
X01924Y01131*
X01922Y01132*
Y01157*
X01924Y01158*
X01931Y01165*
X01936Y01174*
X01939Y01184*
Y01195*
X01936Y01205*
X01931Y01214*
X01924Y01221*
X01915Y01226*
X01905Y01229*
G37*
G36*
X00803Y01004D02*
X00752D01*
Y0097*
X00803*
Y00972*
X00831*
X00839Y00964*
X00841Y00962*
X00841Y00962*
X00842Y00962*
X00844Y0096*
X00846Y0096*
X00847Y0096*
X00847*
X0085Y00959*
X00852Y0096*
X00852*
X00853Y0096*
X00855Y0096*
X00857Y00962*
X00858Y00962*
X00858Y00962*
X0086Y00964*
X00862Y00966*
X00862Y00966*
X00862Y00967*
X00864Y00969*
X00864Y00971*
X00864Y00972*
Y00972*
X00865Y00975*
X00864Y00977*
Y00977*
X00864Y00978*
X00864Y0098*
X00862Y00982*
X00862Y00983*
X00862Y00983*
X0086Y00985*
X00848Y00998*
X00843Y01001*
X00837Y01002*
X00803*
Y01004*
G37*
G36*
X0098Y00988D02*
X00955D01*
Y00954*
X0098*
Y00988*
G37*
G36*
X00945D02*
X00919D01*
Y00954*
X00945*
Y00988*
G37*
G36*
X01966Y00984D02*
X01943D01*
Y0095*
X01966*
Y00984*
G37*
G36*
X00165Y00955D02*
X00149D01*
Y00939*
X00165*
Y00955*
G37*
G36*
X00264Y01005D02*
X00232D01*
Y00973*
Y00944*
X00247*
X00249Y00944*
X00341*
Y00931*
X00408*
Y00934*
X00425*
X00427Y00935*
X00427*
X00428Y00935*
X0043Y00935*
X00432Y00937*
X00433Y00937*
X00433Y00937*
X00435Y00939*
X00437Y00941*
X00437Y00941*
X00437Y00942*
X00439Y00944*
X00439Y00946*
X00439Y00947*
Y00947*
X0044Y0095*
X00439Y00952*
Y00952*
X00439Y00953*
X00439Y00955*
X00437Y00957*
X00437Y00958*
X00437Y00958*
X00435Y0096*
X00433Y00962*
X00433Y00962*
X00432Y00962*
X0043Y00964*
X00428Y00964*
X00427Y00964*
X00427*
X00425Y00965*
X00408*
Y00981*
X00341*
Y00974*
X00264*
Y01005*
G37*
G36*
X01966Y0094D02*
X01943D01*
Y00905*
X01966*
Y0094*
G37*
G36*
X00413Y00923D02*
X0038D01*
Y00898*
X00413*
Y00923*
G37*
G36*
X0037D02*
X00336D01*
Y00898*
X0037*
Y00923*
G37*
G36*
X01165Y00905D02*
X01142D01*
Y00871*
X01165*
Y00905*
G37*
G36*
X01132D02*
X01108D01*
Y00871*
X01132*
Y00905*
G37*
G36*
X00413Y00888D02*
X0038D01*
Y00863*
X00413*
Y00888*
G37*
G36*
X0037D02*
X00336D01*
Y00863*
X0037*
Y00888*
G37*
G36*
X00105Y01229D02*
X00094D01*
X00084Y01226*
X00075Y01221*
X00068Y01214*
X00063Y01205*
X0006Y01195*
Y01184*
X00063Y01174*
X00068Y01165*
X00075Y01158*
X00077Y01157*
Y01132*
X00075Y01131*
X00068Y01124*
X00063Y01115*
X0006Y01105*
Y01094*
X00063Y01084*
X00068Y01075*
X00075Y01068*
X00077Y01067*
Y00935*
X00078Y00926*
X00083Y00919*
X00117Y00885*
Y00868*
X00115Y00864*
X00112*
X0007*
Y00811*
Y00758*
X00112*
X00115*
X00117Y00754*
Y00466*
X00115Y00461*
X00112*
X0007*
Y00409*
Y00356*
X00115*
Y00363*
X0012Y00364*
X00123Y00359*
X00179Y00303*
X00186Y00298*
X00195Y00297*
X0028*
X00288Y00298*
X00296Y00303*
X00332Y00339*
X00336Y00336*
Y00332*
Y00311*
X0037*
Y00336*
X00341*
X00336*
X00333Y0034*
X00339Y00347*
X00428*
X00432Y00347*
X00446Y00333*
X00447Y00331*
X00451Y00327*
X00457Y00325*
X00462*
X00468Y00327*
X00472Y00331*
X00474Y00337*
Y00342*
X00472Y00348*
X00468Y00352*
X00466Y00353*
X00455Y00364*
X00516Y00425*
X00519Y00429*
X00539*
Y00436*
X00551*
X00557Y00437*
X00562Y0044*
X00594Y00472*
X00597Y00477*
X00598Y00483*
Y0051*
X00597Y00515*
X00597Y00516*
Y00525*
X00598*
Y00552*
X00608*
Y00525*
X00611*
Y0046*
X00592*
Y00414*
X00657*
Y0046*
X00634*
Y00512*
X00639Y00515*
X00662Y00492*
X00665Y00489*
X0067Y00488*
X0072*
X00738Y0047*
Y0046*
X00717*
Y00414*
X00782*
Y0046*
X00761*
Y00475*
X0076Y00479*
X00757Y00482*
X00732Y00507*
X00729Y0051*
X00725Y00511*
X00674*
X00653Y00532*
Y00552*
X00653Y00554*
Y00574*
X00653Y00579*
X00658Y00579*
Y00579*
X00701*
Y00599*
X00713*
X00715Y00597*
Y00597*
X00717Y00591*
X00721Y00587*
X00727Y00585*
X00732*
X00738Y00587*
X00742Y00591*
X00744Y00597*
Y00602*
X00748Y00606*
X00752Y00605*
X00757*
X00763Y00607*
X00767Y00611*
X00769Y00617*
Y00622*
X00767Y00628*
X00763Y00632*
X00757Y00634*
X00752*
X00748Y00633*
X00745Y00637*
X00746Y00639*
Y00645*
X00744Y00648*
X00745Y00649*
X00749Y00651*
X00752Y00649*
X0076Y00648*
X00772*
X00829Y00591*
Y00569*
X00817*
X00814Y00568*
X00814*
X00813Y00568*
X00811Y00568*
X00809Y00566*
X00808Y00566*
X00808Y00566*
X00806Y00564*
X00804Y00562*
X00804Y00562*
X00804Y00561*
X00802Y00559*
X00802Y00557*
X00802Y00556*
Y00556*
X00801Y00554*
X00802Y00551*
Y00551*
X00802Y0055*
X00802Y00548*
X00804Y00546*
X00804Y00545*
X00804Y00545*
X00806Y00543*
X00808Y00541*
X00808Y00541*
X00809Y00541*
X00811Y00539*
X00813Y00539*
X00814Y00539*
X00814*
X00817Y00538*
X00829*
Y00283*
X00778Y00232*
X00753*
X00751Y00231*
X00716*
Y00228*
X00658*
Y00231*
X00591*
Y00184*
X00658*
Y00187*
X00716*
Y00184*
X00783*
Y00191*
X00786*
X00794Y00192*
X00801Y00197*
X00848Y00244*
X00853Y00246*
X00903*
Y00313*
X0087*
Y00326*
X00901*
Y00393*
X0087*
Y00555*
Y006*
X00868Y00607*
X00867Y0061*
X00869Y00615*
X00872*
X00878Y00617*
X00882Y00621*
X00884Y00627*
Y00632*
X00882Y00638*
X00878Y00642*
X00872Y00644*
X00869*
X00812Y00701*
X00809Y00703*
X00805Y00704*
X00653*
Y00727*
X00619*
Y00732*
X00608*
Y00706*
X00598*
Y00732*
X00587*
Y00727*
X00574*
Y00733*
X00577Y00736*
X00579Y00742*
Y00747*
X00577Y00753*
X00573Y00757*
X00567Y00759*
X00562*
X00556Y00757*
X00552Y00753*
X0055Y00747*
Y00742*
X00552Y00736*
X00554Y00734*
Y00727*
X00552*
Y00684*
X00552Y00679*
X00548Y00679*
X00536*
Y0083*
X00541Y00832*
X00609Y00764*
X00614Y00761*
X0062Y00759*
X00666*
Y00758*
X00679*
X0068Y00753*
X00678Y00751*
X00676Y00745*
Y0074*
X00678Y00734*
X00682Y0073*
X00688Y00728*
X00693*
X00699Y0073*
X00703Y00734*
X00705Y0074*
Y00745*
X00703Y00751*
X00701Y00753*
X00702Y00758*
X00717*
Y00792*
X00666*
Y0079*
X00626*
X00584Y00832*
X00586Y00837*
X00644*
Y00842*
X00649Y00844*
X00653Y00841*
X00658Y00837*
X00664Y00836*
X00666*
Y00833*
X00717*
Y00866*
X00691*
X00689Y00867*
X0067*
X00664Y00873*
X00659Y00876*
X00653Y00877*
X00644*
Y00887*
X00579*
Y00844*
X00574Y00842*
X00557Y00859*
Y00887*
X00492*
Y00837*
X00516*
Y00679*
X00504*
Y00646*
X00499Y00644*
X00477Y00667*
X00473Y00669*
X0047Y0067*
X00462*
Y00692*
X00467*
Y00725*
X00437*
X00407*
Y00692*
X00412*
Y00627*
Y00622*
Y00557*
X00407*
Y00525*
X00437*
X00467*
Y00557*
X00462*
Y00579*
X0048*
X00483Y0058*
X00487Y00582*
X00499Y00595*
X00504Y00593*
Y00579*
X00516*
Y00566*
X00513Y00563*
X00511Y00557*
Y00552*
X00513Y00546*
X00517Y00542*
X00523Y0054*
X00528*
X00534Y00542*
X00536Y00544*
X00552*
Y0053*
X00568*
X00569Y0053*
Y00516*
X00569Y00515*
X00568Y0051*
Y00489*
X00544Y00466*
X00539*
Y0047*
X00502*
X005Y00471*
X00498Y0047*
X00478*
Y00451*
X00419Y00392*
X0033*
X00321Y00391*
X00313Y00386*
X0027Y00342*
X00205*
X00196Y00351*
X00198Y00356*
X00215*
Y00404*
X00171*
Y00383*
X00166Y00381*
X00162Y00385*
Y00895*
X00161Y00904*
X00156Y00911*
X00133Y00934*
X00134Y00939*
X00139*
Y0096*
X00144*
Y00965*
X00165*
Y00968*
Y00984*
X00144*
Y00989*
X00139*
Y0101*
X00123*
X00122Y01015*
Y01067*
X00124Y01068*
X00131Y01075*
X00136Y01084*
X00139Y01094*
Y01105*
X00136Y01115*
X00131Y01124*
X00124Y01131*
X00122Y01132*
Y01157*
X00124Y01158*
X00131Y01165*
X00136Y01174*
X00139Y01184*
Y01195*
X00136Y01205*
X00131Y01214*
X00124Y01221*
X00115Y01226*
X00105Y01229*
G37*
G36*
X01166Y00863D02*
X01141D01*
Y0083*
X01166*
Y00863*
G37*
G36*
X01131D02*
X01106D01*
Y0083*
X01131*
Y00863*
G37*
G36*
X00971Y00863D02*
X00947D01*
Y0083*
X00971*
Y00863*
G37*
G36*
X00937D02*
X00914D01*
Y0083*
X00937*
Y00863*
G37*
G36*
X01269Y00843D02*
X01235D01*
Y0082*
X01269*
Y00843*
G37*
G36*
X01225D02*
X0119D01*
Y0082*
X01225*
Y00843*
G37*
G36*
X00269Y00864D02*
X00225D01*
Y00816*
X00269*
Y00864*
G37*
G36*
X00215D02*
X00171D01*
Y00816*
X00215*
Y00864*
G37*
G36*
X00971Y0082D02*
X00947D01*
Y00786*
X00971*
Y0082*
G37*
G36*
X00937D02*
X00914D01*
Y00786*
X00937*
Y0082*
G37*
G36*
X01166D02*
X01141D01*
Y00786*
X01166*
Y0082*
G37*
G36*
X01131D02*
X01106D01*
Y00786*
X01131*
Y0082*
G37*
G36*
X01312Y00864D02*
X01307D01*
X01301Y00862*
X01297Y00858*
X01295Y00852*
Y00847*
X01297Y00841*
X01299Y00839*
Y00773*
X01294Y00772*
X01292Y00778*
X01288Y00782*
X01282Y00784*
X01277*
X01271Y00782*
X01269Y0078*
X01264Y0078*
Y00787*
X01269*
Y0081*
X0123*
X0119*
Y00787*
X01195*
Y00746*
Y00745*
Y00741*
Y0074*
Y00696*
Y00695*
X01195Y0069*
Y00647*
X01195Y00642*
Y0064*
Y00598*
Y00597*
Y00593*
Y00592*
Y00548*
Y00547*
Y00543*
Y00542*
Y00498*
X01264*
Y00542*
Y00543*
Y00547*
Y00548*
Y00592*
Y00593*
Y00597*
Y00598*
Y0064*
X01264Y00645*
Y00647*
Y0069*
Y00691*
X01264Y00696*
Y0074*
Y00741*
Y00745*
Y00746*
Y00759*
X01269Y00759*
X01271Y00757*
X01277Y00755*
X01282*
X01288Y00757*
X01292Y00761*
X01294Y00767*
X01299Y00766*
Y00319*
X0129Y00309*
X01287*
X01281Y00307*
X01277Y00303*
X01275Y00297*
Y00292*
X01277Y00286*
X01279Y00284*
Y00269*
X01266*
Y002*
X01261Y002*
X01103*
X01099Y00199*
X01096Y00197*
X01059Y0016*
X00985*
X00981Y00159*
X00977Y00157*
X00942Y00121*
X00933*
X00931Y00124*
X00924Y00131*
X00915Y00136*
X00905Y00139*
X00894*
X00884Y00136*
X00875Y00131*
X00868Y00124*
X00863Y00115*
X0086Y00105*
Y00094*
X00863Y00084*
X00868Y00075*
X00875Y00068*
X00879Y00066*
Y00043*
X00875Y00041*
X00868Y00034*
X00863Y00025*
X0086Y00015*
Y00004*
X00863Y-00005*
X00868Y-00014*
X00875Y-00021*
X00884Y-00026*
X00894Y-00029*
X00905*
X00915Y-00026*
X00924Y-00021*
X00931Y-00014*
X00936Y-00005*
X00939Y00004*
Y00015*
X00936Y00025*
X00931Y00034*
X00924Y00041*
X0092Y00043*
Y00066*
X00924Y00068*
X00931Y00075*
X00936Y00084*
X00939Y00094*
Y00101*
X00946*
X0095Y00101*
X00953Y00104*
X00956Y00106*
X0096Y00104*
Y00094*
X00963Y00084*
X00968Y00075*
X00975Y00068*
X00979Y00066*
Y00043*
X00975Y00041*
X00968Y00034*
X00963Y00025*
X0096Y00015*
Y00004*
X00963Y-00005*
X00968Y-00014*
X00975Y-00021*
X00984Y-00026*
X00994Y-00029*
X01005*
X01015Y-00026*
X01024Y-00021*
X01031Y-00014*
X01036Y-00005*
X01039Y00004*
Y00015*
X01036Y00025*
X01031Y00034*
X01024Y00041*
X0102Y00043*
Y00066*
X01024Y00068*
X01031Y00075*
X01036Y00084*
X01039Y00094*
Y00101*
X01046*
X0105Y00101*
X01053Y00104*
X01056Y00106*
X0106Y00104*
Y00094*
X01063Y00084*
X01068Y00075*
X01075Y00068*
X01079Y00066*
Y00043*
X01075Y00041*
X01068Y00034*
X01063Y00025*
X0106Y00015*
Y00004*
X01063Y-00005*
X01068Y-00014*
X01075Y-00021*
X01084Y-00026*
X01094Y-00029*
X01105*
X01115Y-00026*
X01124Y-00021*
X01131Y-00014*
X01136Y-00005*
X01139Y00004*
Y00015*
X01136Y00025*
X01131Y00034*
X01124Y00041*
X0112Y00043*
Y00066*
X01124Y00068*
X01131Y00075*
X01136Y00084*
X01139Y00094*
Y00099*
X01145*
X01148Y001*
X01152Y00102*
X01156Y00106*
X0116Y00104*
Y00094*
X01163Y00084*
X01168Y00075*
X01175Y00068*
X01179Y00066*
Y00043*
X01175Y00041*
X01168Y00034*
X01163Y00025*
X0116Y00015*
Y00004*
X01163Y-00005*
X01168Y-00014*
X01175Y-00021*
X01184Y-00026*
X01194Y-00029*
X01205*
X01215Y-00026*
X01224Y-00021*
X01231Y-00014*
X01236Y-00005*
X01239Y00004*
Y00015*
X01236Y00025*
X01231Y00034*
X01224Y00041*
X0122Y00043*
Y00066*
X01224Y00068*
X01231Y00075*
X01236Y00084*
X01239Y00094*
Y00101*
X01247*
X0125Y00101*
X01251Y00101*
X01255Y00098*
Y00094*
X01258Y00082*
X01264Y00072*
X01272Y00064*
X01282Y00058*
X01286Y00057*
Y00052*
X01282Y00051*
X01272Y00045*
X01264Y00037*
X01258Y00027*
X01255Y00015*
Y00015*
X013*
X01344*
Y00015*
X01341Y00027*
X01335Y00037*
X01327Y00045*
X01317Y00051*
X01313Y00052*
Y00057*
X01317Y00058*
X01327Y00064*
X01335Y00072*
X01341Y00082*
X01344Y00094*
Y00095*
X013*
Y00105*
X01344*
Y00105*
X01341Y00117*
X01335Y00127*
X01333Y00129*
X01335Y00134*
X01371*
X01373Y00129*
X01368Y00124*
X01363Y00115*
X0136Y00105*
Y00094*
X01363Y00084*
X01368Y00075*
X01375Y00068*
X01379Y00066*
Y00043*
X01375Y00041*
X01368Y00034*
X01363Y00025*
X0136Y00015*
Y00004*
X01363Y-00005*
X01368Y-00014*
X01375Y-00021*
X01384Y-00026*
X01394Y-00029*
X01405*
X01415Y-00026*
X01424Y-00021*
X01431Y-00014*
X01436Y-00005*
X01439Y00004*
Y00015*
X01436Y00025*
X01431Y00034*
X01424Y00041*
X0142Y00043*
Y00066*
X01424Y00068*
X01431Y00075*
X01436Y00084*
X01439Y00094*
Y00099*
X01445*
X01448Y001*
X01452Y00102*
X01456Y00106*
X0146Y00104*
Y00094*
X01463Y00084*
X01468Y00075*
X01475Y00068*
X01479Y00066*
Y00043*
X01475Y00041*
X01468Y00034*
X01463Y00025*
X0146Y00015*
Y00004*
X01463Y-00005*
X01468Y-00014*
X01475Y-00021*
X01484Y-00026*
X01494Y-00029*
X01505*
X01515Y-00026*
X01524Y-00021*
X01531Y-00014*
X01536Y-00005*
X01539Y00004*
Y00015*
X01536Y00025*
X01531Y00034*
X01524Y00041*
X0152Y00043*
Y00066*
X01524Y00068*
X01531Y00075*
X01536Y00084*
X01539Y00094*
Y00099*
X01545*
X01548Y001*
X01552Y00102*
X01556Y00106*
X0156Y00104*
Y00094*
X01563Y00084*
X01568Y00075*
X01575Y00068*
X01579Y00066*
Y00043*
X01575Y00041*
X01568Y00034*
X01563Y00025*
X0156Y00015*
Y00004*
X01563Y-00005*
X01568Y-00014*
X01575Y-00021*
X01584Y-00026*
X01594Y-00029*
X01605*
X01615Y-00026*
X01624Y-00021*
X01631Y-00014*
X01636Y-00005*
X01639Y00004*
Y00015*
X01636Y00025*
X01631Y00034*
X01624Y00041*
X0162Y00043*
Y00066*
X01624Y00068*
X01631Y00075*
X01636Y00084*
X01639Y00094*
Y00099*
X01645*
X01648Y001*
X01652Y00102*
X01656Y00106*
X0166Y00104*
Y00094*
X01663Y00084*
X01668Y00075*
X01675Y00068*
X01679Y00066*
Y00043*
X01675Y00041*
X01668Y00034*
X01663Y00025*
X0166Y00015*
Y00004*
X01663Y-00005*
X01668Y-00014*
X01675Y-00021*
X01684Y-00026*
X01694Y-00029*
X01705*
X01715Y-00026*
X01724Y-00021*
X01731Y-00014*
X01736Y-00005*
X01739Y00004*
Y00015*
X01736Y00025*
X01731Y00034*
X01724Y00041*
X0172Y00043*
Y00066*
X01724Y00068*
X01731Y00075*
X01736Y00084*
X01739Y00094*
Y00101*
X01748*
X01752Y00101*
X01755Y00104*
X0176Y00101*
Y00094*
X01763Y00084*
X01768Y00075*
X01775Y00068*
X01779Y00066*
Y00043*
X01775Y00041*
X01768Y00034*
X01763Y00025*
X0176Y00015*
Y00004*
X01763Y-00005*
X01768Y-00014*
X01775Y-00021*
X01784Y-00026*
X01794Y-00029*
X01805*
X01815Y-00026*
X01824Y-00021*
X01831Y-00014*
X01836Y-00005*
X01839Y00004*
Y00015*
X01836Y00025*
X01831Y00034*
X01824Y00041*
X0182Y00043*
Y00066*
X01824Y00068*
X01831Y00075*
X01836Y00084*
X01839Y00094*
Y00105*
X01836Y00115*
X01835Y00116*
X01896Y00177*
X01898Y0018*
X01899Y00184*
Y00201*
X01911*
Y00196*
X01934*
Y00236*
Y00275*
X01911*
Y0027*
X01867*
X01866*
X01862*
X01816*
Y0023*
X01816Y00228*
X01816Y00227*
Y00201*
X01829*
Y00178*
X0181Y0016*
X01796*
X01794Y00164*
X01795Y00166*
X01797Y00169*
X01798Y00173*
Y00201*
X01811*
Y0027*
X018*
Y00299*
X01802Y00301*
X01804Y00307*
Y00312*
X01802Y00318*
X01798Y00322*
X01792Y00324*
X01787*
X01781Y00322*
X01777Y00318*
X01775Y00312*
Y00307*
X01777Y00301*
X01779Y00299*
Y0027*
X01765*
X0176*
X0175*
Y00299*
X01752Y00301*
X01754Y00307*
Y00312*
X01752Y00318*
X01748Y00322*
X01742Y00324*
X01737*
X01731Y00322*
X01727Y00318*
X01725Y00312*
Y00307*
X01727Y00301*
X01729Y00299*
Y0027*
X01715*
X0171*
X01665*
X01665*
X0166Y0027*
X01615*
X0161Y0027*
X0161*
X01565*
X01565*
X0156*
X01515*
X01512*
X01467*
X01467*
X01462*
X01417*
Y00207*
X01412Y00204*
X01411Y00205*
Y00269*
X014*
Y00284*
X01402Y00286*
X01404Y00292*
Y00297*
X01402Y00303*
X01398Y00307*
X01392Y00309*
X01387*
X01381Y00307*
X01377Y00303*
X01375Y00297*
Y00292*
X01377Y00286*
X01379Y00284*
Y00269*
X01366*
X01366*
X01361*
X01361*
X0135*
Y00284*
X01352Y00286*
X01354Y00292*
Y00297*
X01352Y00303*
X01348Y00307*
X01342Y00309*
X01337*
X01331Y00307*
X01327Y00303*
X01325Y00297*
Y00292*
X01327Y00286*
X01329Y00284*
Y00269*
X01316*
X01316*
X01311Y00269*
X013*
Y00284*
X01302Y00286*
X01304Y00292*
Y00295*
X01317Y00307*
X01319Y00311*
X0132Y00315*
Y00839*
X01322Y00841*
X01324Y00847*
Y00852*
X01322Y00858*
X01318Y00862*
X01312Y00864*
G37*
G36*
X00269Y00806D02*
X0022D01*
X00171*
Y00758*
X00205*
X0021Y00758*
Y00753*
Y00744*
X00206Y00741*
X00204Y00742*
X00197*
X0019Y00739*
X00185Y00734*
X00182Y00727*
Y0072*
X00185Y00713*
X0019Y00708*
X00194Y00706*
X00196Y007*
X00172Y00677*
X0017Y00673*
X00169Y0067*
Y00549*
X0017Y00545*
X00172Y00542*
X00195Y00519*
X00194Y00513*
X0019Y00512*
X00185Y00507*
X00182Y005*
Y00492*
X00185Y00485*
X0019Y0048*
X00197Y00477*
X00204*
X00206Y00478*
X0021Y00475*
Y00462*
X00205Y00461*
X00171*
Y00414*
X0022*
X00269*
Y00457*
Y00461*
X00274Y00462*
X00275*
Y00473*
X00243*
Y00483*
X00275*
Y00486*
X0028Y00487*
X00324Y00443*
X00329Y0044*
X00335Y00439*
X00344*
Y00429*
X00405*
Y0047*
X00344*
X00339Y00471*
X00286Y00525*
X00287Y00527*
X00288Y0053*
X00337*
Y00487*
X00387*
Y00552*
Y00557*
Y00622*
Y00627*
Y00692*
Y00697*
Y00697*
Y00762*
X00337*
Y00719*
X00319*
X00315Y00718*
X00311Y00716*
X00275Y0068*
X0027Y00682*
Y00714*
X00275*
Y00725*
X00243*
Y00735*
X00275*
Y00737*
X00243*
Y00747*
X00275*
Y00758*
X00274*
X00269Y00758*
Y00763*
Y00806*
G37*
G36*
X00467Y00767D02*
X00442D01*
Y00735*
X00467*
Y00767*
G37*
G36*
X00432D02*
X00407D01*
Y00735*
X00432*
Y00767*
G37*
G36*
X01016Y01027D02*
X01014Y01026D01*
X00988*
Y00959*
X01017*
Y00941*
X00987*
Y00876*
X01017*
Y00858*
X00983*
Y00791*
X01017*
Y00751*
X00972*
Y0067*
X01017*
Y00575*
Y00475*
X01017Y00473*
Y00434*
X01063*
Y00473*
X01063Y00475*
Y00552*
X01093*
X01095Y00552*
X01103Y00553*
X01111Y00558*
X01116Y00566*
X01117Y00575*
X01116Y00583*
X01111Y00591*
X0111Y00591*
X01103Y00596*
X01094Y00598*
X01063*
Y0067*
X01108*
Y00751*
X01063*
Y00791*
X01098*
Y00858*
X01063*
Y00876*
X01096*
Y00943*
X01063*
Y0097*
X01061Y00979*
X01056Y00987*
X01039Y01004*
X01038Y01006*
Y01026*
X01018*
X01016Y01027*
G37*
G36*
X00467Y00515D02*
X00442D01*
Y00482*
X00467*
Y00515*
G37*
G36*
X00432D02*
X00407D01*
Y00482*
X00432*
Y00515*
G37*
G36*
X00977Y0052D02*
X00955D01*
Y0048*
X00977*
Y0052*
G37*
G36*
X00945D02*
X00922D01*
Y0048*
X00945*
Y0052*
G37*
G36*
X00977Y0047D02*
X00955D01*
Y00429*
X00977*
Y0047*
G37*
G36*
X00945D02*
X00922D01*
Y00429*
X00945*
Y0047*
G37*
G36*
X01264Y00492D02*
X01195D01*
Y00449*
Y00446*
Y00442*
Y0042*
X0119Y0042*
X01188Y00422*
X01182Y00424*
X01177*
X01171Y00422*
X01167Y00418*
X01165Y00412*
Y00407*
X01167Y00401*
X01171Y00397*
X01177Y00395*
X01182*
X01188Y00397*
X0119Y00399*
X01195Y00399*
X01264*
Y00442*
Y00446*
Y00449*
Y00492*
G37*
G36*
X01071Y00413D02*
X01047D01*
Y0038*
X01071*
Y00413*
G37*
G36*
X01037D02*
X01014D01*
Y0038*
X01037*
Y00413*
G37*
G36*
X0097Y00398D02*
X00947D01*
Y00365*
X0097*
Y00398*
G37*
G36*
X00937D02*
X00913D01*
Y00365*
X00937*
Y00398*
G37*
G36*
X00269Y00404D02*
X00225D01*
Y00356*
X00269*
Y00404*
G37*
G36*
X01071Y0037D02*
X01047D01*
Y00336*
X01071*
Y0037*
G37*
G36*
X01037D02*
X01014D01*
Y00336*
X01037*
Y0037*
G37*
G36*
X01153Y00515D02*
X01108D01*
Y00434*
X01117*
Y00414*
X0111Y00408*
X01083*
Y00341*
X01095*
Y00333*
X01095Y00332*
Y00327*
X01097Y00321*
X01101Y00317*
X01107Y00315*
X01112*
X01118Y00317*
X01122Y00321*
X01124Y00327*
Y00332*
X01123Y00335*
Y00341*
X0113*
Y00388*
X01141Y00398*
X01144Y00403*
X01145Y00408*
Y00434*
X01153*
Y00515*
G37*
G36*
X0038Y00336D02*
Y00311D01*
X00413*
Y00336*
X0038*
G37*
G36*
X01264Y00394D02*
X01195D01*
Y00348*
X01219*
Y00335*
X01217Y00333*
X01215Y00327*
Y00322*
X01217Y00316*
X01221Y00312*
X01227Y0031*
X01232*
X01238Y00312*
X01242Y00316*
X01244Y00322*
Y00327*
X01242Y00333*
X0124Y00335*
Y00348*
X01264*
Y00394*
G37*
G36*
X0097Y00355D02*
X00942D01*
X00913*
Y00323*
X00911Y00318*
Y00317*
Y00285*
X00941*
X00971*
Y00317*
Y00318*
X0097Y00323*
Y00323*
Y00355*
G37*
G36*
X00413Y00301D02*
X0038D01*
Y00276*
X00413*
Y00301*
G37*
G36*
X0037D02*
X00336D01*
Y00276*
X0037*
Y00301*
G37*
G36*
X00782Y00385D02*
X00717D01*
Y00339*
X00738*
Y0031*
X00716*
Y00262*
X00783*
Y0031*
X00761*
Y00339*
X00782*
Y00385*
G37*
G36*
X00657D02*
X00592D01*
Y00339*
X00613*
Y0031*
X00591*
Y00262*
X00658*
Y0031*
X00636*
Y00339*
X00657*
Y00385*
G37*
G36*
X00165Y0026D02*
X00149D01*
Y00244*
X00165*
Y0026*
G37*
G36*
X00139D02*
X00123D01*
Y00244*
X00139*
Y0026*
G37*
G36*
X01967Y00275D02*
X01944D01*
Y00241*
X01967*
Y00275*
G37*
G36*
X00971Y00275D02*
X00946D01*
Y00241*
X00971*
Y00275*
G37*
G36*
X00936D02*
X00911D01*
Y00241*
X00936*
Y00275*
G37*
G36*
X00165Y00234D02*
X00144D01*
X00123*
Y00218*
Y00215*
X00144*
X00165*
Y00218*
Y00234*
G37*
G36*
X01967Y00231D02*
X01944D01*
Y00196*
X01967*
Y00231*
G37*
G36*
X00165Y00205D02*
X00149D01*
Y00189*
X00165*
Y00205*
G37*
G36*
X00139D02*
X00123D01*
Y00189*
X00139*
Y00205*
G37*
G36*
X01905Y00144D02*
X01905D01*
Y00105*
X01944*
Y00105*
X01941Y00117*
X01935Y00127*
X01927Y00135*
X01917Y00141*
X01905Y00144*
G37*
G36*
X00305D02*
X00305D01*
Y00105*
X00344*
Y00105*
X00341Y00117*
X00335Y00127*
X00327Y00135*
X00317Y00141*
X00305Y00144*
G37*
G36*
X00205D02*
X00205D01*
Y00105*
X00244*
Y00105*
X00241Y00117*
X00235Y00127*
X00227Y00135*
X00217Y00141*
X00205Y00144*
G37*
G36*
X00105D02*
X00105D01*
Y00105*
X00144*
Y00105*
X00141Y00117*
X00135Y00127*
X00127Y00135*
X00117Y00141*
X00105Y00144*
G37*
G36*
X01895D02*
X01894D01*
X01882Y00141*
X01872Y00135*
X01864Y00127*
X01858Y00117*
X01855Y00105*
Y00105*
X01895*
Y00144*
G37*
G36*
X00295D02*
X00294D01*
X00282Y00141*
X00272Y00135*
X00264Y00127*
X00258Y00117*
X00255Y00105*
Y00105*
X00295*
Y00144*
G37*
G36*
X00195D02*
X00194D01*
X00182Y00141*
X00172Y00135*
X00164Y00127*
X00158Y00117*
X00155Y00105*
Y00105*
X00195*
Y00144*
G37*
G36*
X00095D02*
X00094D01*
X00082Y00141*
X00072Y00135*
X00064Y00127*
X00058Y00117*
X00055Y00105*
Y00105*
X00095*
Y00144*
G37*
G36*
X00344Y00095D02*
X003D01*
X00255*
Y00094*
X00258Y00082*
X00264Y00072*
X00272Y00064*
X00282Y00058*
X00286Y00057*
Y00052*
X00282Y00051*
X00272Y00045*
X00264Y00037*
X00258Y00027*
X00255Y00015*
Y00015*
X003*
X00344*
Y00015*
X00341Y00027*
X00335Y00037*
X00327Y00045*
X00317Y00051*
X00313Y00052*
Y00057*
X00317Y00058*
X00327Y00064*
X00335Y00072*
X00341Y00082*
X00344Y00094*
Y00095*
G37*
G36*
X00244D02*
X002D01*
X00155*
Y00094*
X00158Y00082*
X00164Y00072*
X00172Y00064*
X00182Y00058*
X00186Y00057*
Y00052*
X00182Y00051*
X00172Y00045*
X00164Y00037*
X00158Y00027*
X00155Y00015*
Y00015*
X002*
X00244*
Y00015*
X00241Y00027*
X00235Y00037*
X00227Y00045*
X00217Y00051*
X00213Y00052*
Y00057*
X00217Y00058*
X00227Y00064*
X00235Y00072*
X00241Y00082*
X00244Y00094*
Y00095*
G37*
G36*
X00144D02*
X001D01*
X00055*
Y00094*
X00058Y00082*
X00064Y00072*
X00072Y00064*
X00082Y00058*
X00086Y00057*
Y00052*
X00082Y00051*
X00072Y00045*
X00064Y00037*
X00058Y00027*
X00055Y00015*
Y00015*
X001*
X00144*
Y00015*
X00141Y00027*
X00135Y00037*
X00127Y00045*
X00117Y00051*
X00113Y00052*
Y00057*
X00117Y00058*
X00127Y00064*
X00135Y00072*
X00141Y00082*
X00144Y00094*
Y00095*
G37*
G36*
X01944D02*
X019D01*
X01855*
Y00094*
X01858Y00082*
X01864Y00072*
X01872Y00064*
X01882Y00058*
X01886Y00057*
Y00052*
X01882Y00051*
X01872Y00045*
X01864Y00037*
X01858Y00027*
X01855Y00015*
Y00015*
X019*
X01944*
Y00015*
X01941Y00027*
X01935Y00037*
X01927Y00045*
X01917Y00051*
X01913Y00052*
Y00057*
X01917Y00058*
X01927Y00064*
X01935Y00072*
X01941Y00082*
X01944Y00094*
Y00095*
G37*
G36*
X00805Y00139D02*
X00794D01*
X00784Y00136*
X00775Y00131*
X00768Y00124*
X00763Y00115*
X0076Y00105*
Y00094*
X00763Y00084*
X00768Y00075*
X00775Y00068*
X00779Y00066*
Y00043*
X00775Y00041*
X00768Y00034*
X00763Y00025*
X0076Y00015*
Y00004*
X00763Y-00005*
X00768Y-00014*
X00775Y-00021*
X00784Y-00026*
X00794Y-00029*
X00805*
X00815Y-00026*
X00824Y-00021*
X00831Y-00014*
X00836Y-00005*
X00839Y00004*
Y00015*
X00836Y00025*
X00831Y00034*
X00824Y00041*
X0082Y00043*
Y00066*
X00824Y00068*
X00831Y00075*
X00836Y00084*
X00839Y00094*
Y00105*
X00836Y00115*
X00831Y00124*
X00824Y00131*
X00815Y00136*
X00805Y00139*
G37*
G36*
X00705D02*
X00694D01*
X00684Y00136*
X00675Y00131*
X00668Y00124*
X00663Y00115*
X0066Y00105*
Y00094*
X00663Y00084*
X00668Y00075*
X00675Y00068*
X00679Y00066*
Y00043*
X00675Y00041*
X00668Y00034*
X00663Y00025*
X0066Y00015*
Y00004*
X00663Y-00005*
X00668Y-00014*
X00675Y-00021*
X00684Y-00026*
X00694Y-00029*
X00705*
X00715Y-00026*
X00724Y-00021*
X00731Y-00014*
X00736Y-00005*
X00739Y00004*
Y00015*
X00736Y00025*
X00731Y00034*
X00724Y00041*
X0072Y00043*
Y00066*
X00724Y00068*
X00731Y00075*
X00736Y00084*
X00739Y00094*
Y00105*
X00736Y00115*
X00731Y00124*
X00724Y00131*
X00715Y00136*
X00705Y00139*
G37*
G36*
X00408Y00268D02*
X00341D01*
Y00255*
X00249*
X00247Y00255*
X00232*
Y00223*
Y00194*
X00264*
Y00225*
X00341*
Y00218*
X00408*
Y00227*
X0045*
X00563Y00115*
X0056Y00105*
Y00094*
X00563Y00084*
X00568Y00075*
X00575Y00068*
X00579Y00066*
Y00043*
X00575Y00041*
X00568Y00034*
X00563Y00025*
X0056Y00015*
Y00004*
X00563Y-00005*
X00568Y-00014*
X00575Y-00021*
X00584Y-00026*
X00594Y-00029*
X00605*
X00615Y-00026*
X00624Y-00021*
X00631Y-00014*
X00636Y-00005*
X00639Y00004*
Y00015*
X00636Y00025*
X00631Y00034*
X00624Y00041*
X0062Y00043*
Y00066*
X00624Y00068*
X00631Y00075*
X00636Y00084*
X00639Y00094*
Y00105*
X00636Y00115*
X00631Y00124*
X00624Y00131*
X00615Y00136*
X00605Y00139*
X00594*
X00584Y00136*
X00467Y00253*
X00462Y00257*
X00456Y00258*
X00408*
Y00268*
G37*
G36*
X00505Y00139D02*
X00494D01*
X00484Y00136*
X00475Y00131*
X00468Y00124*
X00463Y00115*
X0046Y00105*
Y00094*
X00463Y00084*
X00468Y00075*
X00475Y00068*
X00479Y00066*
Y00043*
X00475Y00041*
X00468Y00034*
X00463Y00025*
X0046Y00015*
Y00004*
X00463Y-00005*
X00468Y-00014*
X00475Y-00021*
X00484Y-00026*
X00494Y-00029*
X00505*
X00515Y-00026*
X00524Y-00021*
X00531Y-00014*
X00536Y-00005*
X00539Y00004*
Y00015*
X00536Y00025*
X00531Y00034*
X00524Y00041*
X0052Y00043*
Y00066*
X00524Y00068*
X00531Y00075*
X00536Y00084*
X00539Y00094*
Y00105*
X00536Y00115*
X00531Y00124*
X00524Y00131*
X00515Y00136*
X00505Y00139*
G37*
G36*
X00405D02*
X00394D01*
X00384Y00136*
X00375Y00131*
X00368Y00124*
X00363Y00115*
X0036Y00105*
Y00094*
X00363Y00084*
X00368Y00075*
X00375Y00068*
X00379Y00066*
Y00043*
X00375Y00041*
X00368Y00034*
X00363Y00025*
X0036Y00015*
Y00004*
X00363Y-00005*
X00368Y-00014*
X00375Y-00021*
X00384Y-00026*
X00394Y-00029*
X00405*
X00415Y-00026*
X00424Y-00021*
X00431Y-00014*
X00436Y-00005*
X00439Y00004*
Y00015*
X00436Y00025*
X00431Y00034*
X00424Y00041*
X0042Y00043*
Y00066*
X00424Y00068*
X00431Y00075*
X00436Y00084*
X00439Y00094*
Y00105*
X00436Y00115*
X00431Y00124*
X00424Y00131*
X00415Y00136*
X00405Y00139*
G37*
G36*
X01944Y00005D02*
X01905D01*
Y-00034*
X01905*
X01917Y-00031*
X01927Y-00025*
X01935Y-00017*
X01941Y-00007*
X01944Y00004*
Y00005*
G37*
G36*
X01895D02*
X01855D01*
Y00004*
X01858Y-00007*
X01864Y-00017*
X01872Y-00025*
X01882Y-00031*
X01894Y-00034*
X01895*
Y00005*
G37*
G36*
X01344D02*
X01305D01*
Y-00034*
X01305*
X01317Y-00031*
X01327Y-00025*
X01335Y-00017*
X01341Y-00007*
X01344Y00004*
Y00005*
G37*
G36*
X01295D02*
X01255D01*
Y00004*
X01258Y-00007*
X01264Y-00017*
X01272Y-00025*
X01282Y-00031*
X01294Y-00034*
X01295*
Y00005*
G37*
G36*
X00344D02*
X00305D01*
Y-00034*
X00305*
X00317Y-00031*
X00327Y-00025*
X00335Y-00017*
X00341Y-00007*
X00344Y00004*
Y00005*
G37*
G36*
X00295D02*
X00255D01*
Y00004*
X00258Y-00007*
X00264Y-00017*
X00272Y-00025*
X00282Y-00031*
X00294Y-00034*
X00295*
Y00005*
G37*
G36*
X00244D02*
X00205D01*
Y-00034*
X00205*
X00217Y-00031*
X00227Y-00025*
X00235Y-00017*
X00241Y-00007*
X00244Y00004*
Y00005*
G37*
G36*
X00195D02*
X00155D01*
Y00004*
X00158Y-00007*
X00164Y-00017*
X00172Y-00025*
X00182Y-00031*
X00194Y-00034*
X00195*
Y00005*
G37*
G36*
X00144D02*
X00105D01*
Y-00034*
X00105*
X00117Y-00031*
X00127Y-00025*
X00135Y-00017*
X00141Y-00007*
X00144Y00004*
Y00005*
G37*
G36*
X00095D02*
X00055D01*
Y00004*
X00058Y-00007*
X00064Y-00017*
X00072Y-00025*
X00082Y-00031*
X00094Y-00034*
X00095*
Y00005*
G37*
%LNesp32-hwe-3*%
%LPD*%
G36*
X01828Y01057D02*
Y00979D01*
X01815*
Y0091*
X01828*
Y00902*
X0182Y00895*
X01407*
X01404Y009*
X01404Y00901*
Y00906*
X01408Y0091*
X01411*
X01411*
X01416*
X01416*
X01461*
X01466*
X01512*
X01514*
X0156*
X01564*
X0161*
X01614Y0091*
X01614*
X0166*
X0166*
X01664Y0091*
X0171*
X01714*
X0176*
X0176*
X01765*
X01765*
X0181*
Y00979*
X01797*
Y01042*
X01797Y01046*
X01794Y01049*
X01786Y01057*
X01789Y01061*
X01794Y0106*
X01805*
X01815Y01063*
X01819Y01065*
X01828Y01057*
G37*
G36*
X01733Y01067D02*
X01737Y01065D01*
X0174Y01064*
X0175*
X01777Y01038*
Y00979*
X01765*
X01765*
X0176*
X0176*
X01747*
Y01027*
X01746Y01031*
X01744Y01034*
X01722Y01057*
X01718Y01059*
X01718Y01059*
X01717Y01064*
X01724Y01068*
X01728Y01072*
X01733Y01067*
G37*
G36*
X01727Y01023D02*
Y00979D01*
X01715*
X01714*
X0171*
X01684*
Y01*
X01684Y01004*
X01681Y01007*
X01654Y01034*
X01656Y01039*
X0171*
X01727Y01023*
G37*
G36*
X01254Y01018D02*
X01258Y01016D01*
X01262Y01015*
X01306*
X01324Y00997*
X01327Y00995*
X01331Y00994*
X01404*
X01414Y00985*
X01412Y00979*
X01411Y00979*
X01411*
X01366*
X01361*
X01316*
X01311*
X01266*
Y0091*
X01273*
X01275Y00907*
Y00901*
X01275Y009*
X01272Y00895*
X01227*
X01097Y01025*
X01099Y0103*
X01242*
X01254Y01018*
G37*
G36*
X00215Y00684D02*
Y00668D01*
Y00628*
X00215Y00628*
X00211Y00626*
X00202Y00617*
X002Y00613*
X00199Y0061*
Y0059*
X002Y00587*
X00202Y00583*
X00212Y00574*
X00215Y00572*
X00215Y00572*
Y00535*
X0021Y00533*
X0019Y00553*
Y00665*
X0021Y00686*
X00215Y00684*
G37*
G54D13*
X00243Y00478D02*
Y0049D01*
X00728Y00642D02*
X00731D01*
X00722Y00649D02*
X00728Y00642D01*
X0068Y00649D02*
X00722D01*
X00717Y00609D02*
X00727Y006D01*
X0068Y00609D02*
X00717D01*
X00727Y006D02*
X0073D01*
X0131Y00315D02*
Y0085D01*
X0129Y00295D02*
X0131Y00315D01*
X01231Y0077D02*
X0128D01*
X0123Y00768D02*
X01231Y0077D01*
X00642Y00695D02*
X00643Y00694D01*
X00805D02*
X0087Y0063D01*
X00642Y00695D02*
Y00706D01*
X00643Y00694D02*
X00805D01*
X0068Y00609D02*
X0068Y00609D01*
X0174Y00238D02*
Y0031D01*
X01738Y00236D02*
X0174Y00238D01*
X0179Y00237D02*
Y0031D01*
X01788Y00236D02*
X0179Y00237D01*
X00691Y00743D02*
Y00774D01*
X00691Y00775*
X00693Y00904D02*
Y00948D01*
X00691Y0095D02*
X00693Y00948D01*
X00525Y00862D02*
X00526Y00861D01*
Y00668D02*
Y00861D01*
Y00555D02*
Y0059D01*
X00848Y00554D02*
X0085Y00555D01*
X00526Y00555D02*
X00562D01*
X00526D02*
X00526D01*
X0068Y00649D02*
X0068Y00649D01*
X0129Y00904D02*
Y00944D01*
X01289Y00945D02*
X0129Y00944D01*
X0134Y00905D02*
Y00943D01*
X01338Y00945D02*
X0134Y00943D01*
X01389Y00945D02*
X0139Y00944D01*
Y00904D02*
Y00944D01*
X01217Y0041D02*
X0123Y00422D01*
X0118Y0041D02*
X01217D01*
X0123Y00325D02*
Y00371D01*
X01289Y00234D02*
X0129Y00235D01*
Y00295*
X0134Y00236D02*
Y00295D01*
X01338Y00235D02*
X0134Y00236D01*
X0139Y00236D02*
Y00295D01*
X01389Y00235D02*
X0139Y00236D01*
X00911Y00111D02*
X00946D01*
X009Y001D02*
X00911Y00111D01*
X00985Y0015D02*
X01063D01*
X00946Y00111D02*
X00985Y0015D01*
X01063D02*
X01103Y0019D01*
X01424*
X0143Y00195D02*
Y00226D01*
X01424Y0019D02*
X0143Y00195D01*
Y00226D02*
X01439Y00236D01*
X01011Y00111D02*
X01046D01*
X01Y001D02*
X01011Y00111D01*
X01046D02*
X0111Y00175D01*
X0144*
X0149Y00224*
Y00236*
X0111Y0011D02*
X01145D01*
X011Y001D02*
X0111Y0011D01*
X01145D02*
X01195Y0016D01*
X01452*
X01476Y00183D02*
X0153D01*
X01452Y0016D02*
X01476Y00183D01*
X0153D02*
X01538Y00191D01*
Y00236*
X01211Y00111D02*
X01247D01*
X012Y001D02*
X01211Y00111D01*
X01247D02*
X0128Y00144D01*
X01458*
X01482Y00168*
X01561*
X01575Y00182D02*
Y00223D01*
X01588Y00236*
X01561Y00168D02*
X01575Y00182D01*
X01685Y0015D02*
X01765D01*
X01788Y00173D02*
Y00236D01*
X01765Y0015D02*
X01788Y00173D01*
X01815Y0015D02*
X01839Y00174D01*
X01787Y0015D02*
X01815D01*
X01839Y00174D02*
Y00224D01*
X01748Y00111D02*
X01787Y0015D01*
X01711Y00111D02*
X01748D01*
X017Y001D02*
X01711Y00111D01*
X01658Y00165D02*
X01688Y00195D01*
Y00236*
X014Y001D02*
X0141Y0011D01*
X01445*
X01488Y00153*
X01567*
X01579Y00165*
X01658*
X0151Y0011D02*
X01545D01*
X015Y001D02*
X0151Y0011D01*
X01585Y0015D02*
X01664D01*
X01545Y0011D02*
X01585Y0015D01*
X01664D02*
X01678Y00165D01*
X01725*
X01738Y00178*
Y00236*
X0161Y0011D02*
X01645D01*
X016Y001D02*
X0161Y0011D01*
X01645D02*
X01685Y0015D01*
X018Y001D02*
X01805D01*
X01889Y00184*
Y00236*
X00915Y01045D02*
X01063D01*
X00894Y00908D02*
Y01024D01*
X00915Y01045*
X01063D02*
X01223Y00885D01*
X01825*
X01838Y00898*
Y00945*
X01003Y01096D02*
X01041D01*
X01Y011D02*
X01003Y01096D01*
X01041D02*
X01096Y0104D01*
X01247*
X01262Y01025*
X0131*
X01331Y01005*
X01408*
X01426Y00987*
Y00957D02*
Y00987D01*
Y00957D02*
X01439Y00945D01*
X01425Y0101D02*
X01483D01*
X01415Y0102D02*
X01425Y0101D01*
X01483D02*
X01489Y01004D01*
Y00945D02*
Y01004D01*
X01337Y0102D02*
X01415D01*
X01111Y01088D02*
X01148D01*
X011Y011D02*
X01111Y01088D01*
X01181Y01055D02*
X01253D01*
X01148Y01088D02*
X01181Y01055D01*
X01253D02*
X01268Y0104D01*
X01317*
X01337Y0102*
X01211Y01088D02*
X01241D01*
X012Y011D02*
X01211Y01088D01*
X01274Y01055D02*
X01323D01*
X01241Y01088D02*
X01274Y01055D01*
X01323D02*
X01343Y01035D01*
X01422*
X01432Y01025*
X01515*
X01537Y01002*
Y00945D02*
Y01002D01*
X01637Y00952D02*
Y01016D01*
Y00944D02*
Y00952D01*
X01553Y0104D02*
X01613D01*
X01637Y01016*
X0156Y01055D02*
X0162D01*
X01674Y01*
Y00957D02*
Y01D01*
X01532Y0104D02*
X01547Y01025D01*
X01575*
X01438Y0104D02*
X01532D01*
X01538Y01055D02*
X01553Y0104D01*
X01445Y01055D02*
X01538D01*
X013Y011D02*
X0135Y0105D01*
X01428D02*
X01438Y0104D01*
X0135Y0105D02*
X01428D01*
X01575Y01025D02*
X01587Y01012D01*
Y00945D02*
Y01012D01*
X014Y011D02*
X01445Y01055D01*
X01674Y00957D02*
X01687Y00945D01*
X01515Y011D02*
X0156Y01055D01*
X015Y011D02*
X01515D01*
X0165Y0105D02*
X01715D01*
X016Y011D02*
X0165Y0105D01*
X01737Y00945D02*
Y01027D01*
X01715Y0105D02*
X01737Y01027D01*
X01715Y011D02*
X0174Y01075D01*
X017Y011D02*
X01715D01*
X0174Y01075D02*
X01755D01*
X01787Y01042*
Y00945D02*
Y01042D01*
X018Y011D02*
X01838Y01061D01*
Y00945D02*
Y01061D01*
X00564Y00706D02*
Y00744D01*
X00563Y00706D02*
X00564Y00706D01*
Y00744D02*
X00565Y00745D01*
X00563Y00706D02*
X00583D01*
X00562Y00555D02*
X00563Y00554D01*
Y00552D02*
Y00554D01*
X0048Y0059D02*
X00499Y00609D01*
X00437Y0059D02*
X0048D01*
X00499Y00609D02*
X00526D01*
X0047Y0066D02*
X00499Y0063D01*
X00437Y0066D02*
X0047D01*
X00525Y0063D02*
X00526Y00629D01*
X00499Y0063D02*
X00525D01*
X00243Y006D02*
X0028D01*
X0029Y0059D02*
X0031D01*
X0028Y006D02*
X0029Y0059D01*
X0031D02*
X00362D01*
X0031Y0059D02*
X0031Y0059D01*
X0031Y0059D02*
Y0061D01*
X00243Y006D02*
X00243Y006D01*
X0029Y0062D02*
X0033Y0066D01*
X00243Y0062D02*
X0029D01*
X0028Y00639D02*
X0028Y00639D01*
X00243Y00639D02*
X00243Y00639D01*
X0028*
X0021Y00518D02*
X0024D01*
X0018Y00549D02*
Y0067D01*
Y00549D02*
X0021Y00518D01*
X0024D02*
X00243Y00515D01*
X00242Y00619D02*
X00243Y0062D01*
X0021Y0061D02*
X00219Y00619D01*
X0021Y0059D02*
X00219Y00581D01*
X00219Y00619D02*
X00242D01*
X0021Y0059D02*
Y0061D01*
X00219Y00581D02*
X00242D01*
X00243Y0058*
X0018Y0067D02*
X0021Y007D01*
X0033Y0066D02*
X00362D01*
X00242Y007D02*
X00243Y00698D01*
X0021Y007D02*
X00242D01*
X00225Y0051D02*
X00242D01*
X00243Y00509*
G54D16*
X00642Y00706D03*
X00622D03*
X00603D03*
X00583D03*
X00563D03*
Y00552D03*
X00583D03*
X00603D03*
X00622D03*
X00642D03*
G54D17*
X00526Y00668D03*
Y00649D03*
Y00629D03*
Y00609D03*
Y0059D03*
X0068D03*
Y00609D03*
Y00629D03*
Y00649D03*
Y00668D03*
G54D18*
X00603Y00629D03*
G54D19*
X01013Y00993D03*
X0095D03*
X01073Y00825D03*
X01136D03*
X00941Y0028D03*
X00878D03*
G54D20*
X01007Y00825D03*
X00942D03*
X01107Y00375D03*
X01042D03*
X00942Y0036D03*
X00877D03*
X01072Y0091D03*
X01137D03*
G54D21*
X00144Y0021D03*
Y00239D03*
X00248D03*
Y0021D03*
Y0096D03*
Y00989D03*
X00144D03*
Y0096D03*
G54D22*
X00625Y00286D03*
Y00207D03*
X0075Y00286D03*
Y00207D03*
G54D23*
X00508Y0045D03*
X00375D03*
G54D24*
X00375Y00243D03*
Y00306D03*
Y00956D03*
Y00893D03*
G54D25*
X00691Y0085D03*
Y00775D03*
X00778Y00812D03*
X00691Y01025D03*
Y0095D03*
X00778Y00987D03*
G54D26*
X0022Y00409D03*
Y00811D03*
X00065Y00409D03*
Y00811D03*
G54D27*
X00243Y0073D03*
Y00698D03*
Y00679D03*
Y00639D03*
Y0058D03*
Y00541D03*
Y00521D03*
Y0049D03*
Y00478D03*
Y00509D03*
Y00561D03*
Y006D03*
Y0062D03*
Y00659D03*
Y0071D03*
Y00742D03*
G54D28*
X00437Y0066D03*
X00362D03*
X00437Y0059D03*
X00362D03*
X01012Y00908D03*
X00937D03*
X00362Y0052D03*
X00437D03*
Y0073D03*
X00362D03*
G54D29*
X0104Y00711D03*
G54D30*
X01131Y00475D03*
X0104D03*
X0095D03*
G54D31*
X01289Y00945D03*
X01338D03*
X01389D03*
X01439D03*
X01489D03*
X01537D03*
X01587D03*
X01637Y00944D03*
X01687Y00945D03*
X01737D03*
X01787D03*
X01838D03*
X01888D03*
X01938D03*
X01289Y00234D03*
X01338Y00235D03*
X01389D03*
X01439Y00236D03*
X0149D03*
X01538D03*
X01588D03*
X01638Y00236D03*
X01688Y00236D03*
X01738D03*
X01788D03*
X01839D03*
X01889D03*
X01939D03*
G54D32*
X0123Y00815D03*
Y00768D03*
Y00718D03*
X0123Y00668D03*
X0123Y00619D03*
Y0057D03*
Y0052D03*
Y0047D03*
Y00422D03*
Y00371D03*
G54D33*
X00611Y00862D03*
Y00937D03*
X00525D03*
Y00862D03*
G54D34*
X00625Y00362D03*
Y00437D03*
X0075Y00362D03*
Y00437D03*
G54D59*
X0104Y0091D02*
Y0097D01*
Y00711D02*
Y0091D01*
X0102Y0099D02*
X0104Y0097D01*
X00428Y0037D02*
X005Y00441D01*
X0033Y0037D02*
X00428D01*
X005Y00441D02*
Y00448D01*
X0028Y0032D02*
X0033Y0037D01*
X00195Y0032D02*
X0028D01*
X0014Y00375D02*
X00195Y0032D01*
X001Y00935D02*
X0014Y00895D01*
Y00375D02*
Y00895D01*
X001Y00935D02*
Y011D01*
X01888Y01079D02*
X019Y0109D01*
X01888Y00945D02*
Y01079D01*
X019Y0109D02*
Y011D01*
X0104Y00575D02*
Y00711D01*
Y00475D02*
Y00575D01*
X01888Y00891D02*
Y00944D01*
X01888Y00945D02*
X01888Y00944D01*
Y00891D02*
X0189Y0089D01*
X0104Y00575D02*
X01094D01*
X01095Y00575*
X01013Y01001D02*
X01016Y01004D01*
X016Y011D02*
Y0119D01*
X017Y011D02*
Y0119D01*
X018Y011D02*
Y0119D01*
X019Y011D02*
Y0119D01*
X014Y011D02*
Y0119D01*
X015Y011D02*
Y0119D01*
X011Y011D02*
Y0119D01*
X012Y011D02*
Y0119D01*
X013Y011D02*
Y0119D01*
X01Y011D02*
Y0119D01*
X009Y011D02*
Y0119D01*
X008Y011D02*
Y0119D01*
X007Y011D02*
Y0119D01*
X005Y011D02*
Y0119D01*
X001Y011D02*
Y0119D01*
G54D60*
X0068Y00629D02*
X0069D01*
X00695Y00625D02*
X00722D01*
X00727Y0062D02*
X00755D01*
X0069Y00629D02*
X00695Y00625D01*
X00722D02*
X00727Y0062D01*
X0068Y00668D02*
X00738D01*
G54D61*
X0043Y0037D02*
X0046Y0034D01*
X00428Y0037D02*
X0043D01*
X01109Y0033D02*
Y00372D01*
X01107Y00375D02*
X01109Y00372D01*
Y0033D02*
X0111Y0033D01*
X01107Y00384D02*
X01131Y00408D01*
Y00475*
X01107Y00375D02*
Y00384D01*
X00583Y0051D02*
Y0053D01*
G54D62*
X0067Y005D02*
X00725D01*
X00642Y00527D02*
Y00552D01*
Y00527D02*
X0067Y005D01*
X00622Y00439D02*
Y00552D01*
Y00439D02*
X00625Y00437D01*
X00243Y00659D02*
X0027D01*
X00319Y00708D02*
X00348D01*
X00362Y00722D02*
Y0073D01*
X00243Y00659D02*
X00243Y00659D01*
X0027D02*
X00319Y00708D01*
X00348D02*
X00362Y00722D01*
X0075Y00286D02*
Y00362D01*
X00625Y00286D02*
Y00362D01*
X00725Y005D02*
X0075Y00475D01*
Y00437D02*
Y00475D01*
X00871Y00353D02*
X00877Y0036D01*
X00583Y0053D02*
Y00552D01*
X00375Y00525D02*
Y00527D01*
X00243Y00541D02*
X00361D01*
X00375Y00527*
G54D63*
X00551Y00451D02*
X00583Y00483D01*
X0051Y00451D02*
X00551D01*
X00508Y0045D02*
X0051Y00451D01*
X00456Y00243D02*
X006Y001D01*
X00375Y00243D02*
X00456D01*
X00817Y00554D02*
X00848D01*
X0074Y00668D02*
X0076D01*
X00894Y00908D02*
X00937D01*
X00878D02*
X00894D01*
X01831Y00228D02*
X01839Y00236D01*
X01881Y00228D02*
X01889Y00236D01*
X00837Y00812D02*
Y00867D01*
X00778Y00812D02*
X00837D01*
X01629Y00952D02*
X01637Y00944D01*
X01729Y00952D02*
X01737Y00945D01*
X01782Y0095D02*
X01787Y00945D01*
X00837Y00867D02*
X00878Y00908D01*
X00837Y00987D02*
X0085Y00975D01*
X00778Y00987D02*
X00837D01*
X00381Y0095D02*
X00425D01*
X00375Y00956D02*
X00381Y0095D01*
X00532Y00937D02*
X0062Y01025D01*
X00525Y00937D02*
X00532D01*
X0062Y01025D02*
X00691D01*
X00637Y00947D02*
X00641Y0095D01*
X00691*
X00611Y00937D02*
X00621Y00947D01*
X00637*
X00611Y00862D02*
X00653D01*
X00664Y00851D02*
X00689D01*
X00691Y0085*
X00653Y00862D02*
X00664Y00851D01*
X00532Y00862D02*
X0062Y00775D01*
X00525Y00862D02*
X00532D01*
X0062Y00775D02*
X00691D01*
X00249Y00959D02*
X00372D01*
X00248Y0096D02*
X00249Y00959D01*
X00372D02*
X00375Y00956D01*
X00248Y0096D02*
Y00989D01*
X00249Y0024D02*
X00372D01*
X00248Y00239D02*
X00249Y0024D01*
X00372D02*
X00375Y00243D01*
X00248Y0021D02*
Y00239D01*
X00583Y00483D02*
Y0051D01*
X00275Y00515D02*
X00335Y00454D01*
X0037D02*
X00375Y0045D01*
X00243Y00515D02*
X00275D01*
X00335Y00454D02*
X0037D01*
X00243Y00515D02*
X00243Y00515D01*
G54D64*
X0085Y00555D02*
Y006D01*
Y00275D02*
Y00555D01*
X0076Y00668D02*
X00781D01*
X018Y0001D02*
Y001D01*
X017Y0001D02*
Y001D01*
X016Y0001D02*
Y001D01*
X015Y0001D02*
Y001D01*
X014Y0001D02*
Y001D01*
X012Y0001D02*
Y001D01*
X011Y0001D02*
Y001D01*
X01Y0001D02*
Y001D01*
X009Y0001D02*
Y001D01*
X008Y0001D02*
Y001D01*
X007Y0001D02*
Y001D01*
X005Y0001D02*
Y001D01*
X004Y0001D02*
Y001D01*
X003Y0001D02*
Y001D01*
X006Y0001D02*
Y001D01*
X00781Y00668D02*
X0085Y006D01*
X00786Y00211D02*
X0085Y00275D01*
X00753Y00211D02*
X00786D01*
X0075Y00207D02*
X00753Y00211D01*
X00625Y00207D02*
X0075D01*
X00625D02*
D01*
G54D65*
X002Y00496D03*
Y00724D03*
G54D66*
X001Y001D03*
X002D03*
X003D03*
X004D03*
X005D03*
X006D03*
X007D03*
X008D03*
X009D03*
X01D03*
X011D03*
X012D03*
X013D03*
X014D03*
X015D03*
X016D03*
X017D03*
X018D03*
X019D03*
X001Y0001D03*
X002D03*
X003D03*
X004D03*
X005D03*
X006D03*
X007D03*
X008D03*
X009D03*
X01D03*
X011D03*
X012D03*
X013D03*
X014D03*
X015D03*
X016D03*
X017D03*
X018D03*
X019D03*
X001Y0119D03*
X002D03*
X003D03*
X004D03*
X005D03*
X006D03*
X007D03*
X008D03*
X009D03*
X01D03*
X011D03*
X012D03*
X013D03*
X014D03*
X015D03*
X016D03*
X017D03*
X018D03*
X019D03*
X001Y011D03*
X002D03*
X003D03*
X004D03*
X005D03*
X006D03*
X007D03*
X008D03*
X009D03*
X01D03*
X011D03*
X012D03*
X013D03*
X014D03*
X015D03*
X016D03*
X017D03*
X018D03*
X019D03*
G54D67*
X00731Y00642D03*
X00755Y0062D03*
X0073Y006D03*
X0129Y00295D03*
X0131Y0085D03*
X0046Y0034D03*
X0111Y0033D03*
X0128Y0077D03*
X0087Y0063D03*
X0174Y0031D03*
X0179D03*
X00691Y00743D03*
X00693Y00904D03*
X00817Y00554D03*
X00526Y00555D03*
X0129Y00904D03*
X0134Y00905D03*
X0139Y00904D03*
X0118Y0041D03*
X0123Y00325D03*
X00837Y00812D03*
X0189Y0089D03*
X01095Y00575D03*
X00565Y00745D03*
X0085Y00975D03*
X00425Y0095D03*
X0031Y0061D03*
X0028Y00639D03*
X0134Y00295D03*
X0139D03*
G54D68*
X00602Y00629D03*
M02*