%FSTAX23Y23*%
%MOIN*%
%SFA1B1*%

%IPPOS*%
%ADD13C,0.010000*%
%ADD59C,0.035000*%
%ADD61C,0.017500*%
%ADD63C,0.020000*%
%ADD65C,0.012800*%
%ADD66C,0.068900*%
%ADD67C,0.019680*%
%ADD68C,0.050000*%
%LNesp32-hwe-1*%
%LPD*%
G36*
X01975Y01259D02*
D01*
Y-00059*
X00025*
Y01259*
X01975*
G37*
%LNesp32-hwe-2*%
%LPC*%
G36*
X00605Y01234D02*
X00605D01*
Y01195*
X00644*
Y01195*
X00641Y01207*
X00635Y01217*
X00627Y01225*
X00617Y01231*
X00605Y01234*
G37*
G36*
X00405D02*
X00405D01*
Y01195*
X00444*
Y01195*
X00441Y01207*
X00435Y01217*
X00427Y01225*
X00417Y01231*
X00405Y01234*
G37*
G36*
X00305D02*
X00305D01*
Y01195*
X00344*
Y01195*
X00341Y01207*
X00335Y01217*
X00327Y01225*
X00317Y01231*
X00305Y01234*
G37*
G36*
X00205D02*
X00205D01*
Y01195*
X00244*
Y01195*
X00241Y01207*
X00235Y01217*
X00227Y01225*
X00217Y01231*
X00205Y01234*
G37*
G36*
X00595D02*
X00594D01*
X00582Y01231*
X00572Y01225*
X00564Y01217*
X00558Y01207*
X00555Y01195*
Y01195*
X00595*
Y01234*
G37*
G36*
X00395D02*
X00394D01*
X00382Y01231*
X00372Y01225*
X00364Y01217*
X00358Y01207*
X00355Y01195*
Y01195*
X00395*
Y01234*
G37*
G36*
X00295D02*
X00294D01*
X00282Y01231*
X00272Y01225*
X00264Y01217*
X00258Y01207*
X00255Y01195*
Y01195*
X00295*
Y01234*
G37*
G36*
X00195D02*
X00194D01*
X00182Y01231*
X00172Y01225*
X00164Y01217*
X00158Y01207*
X00155Y01195*
Y01195*
X00195*
Y01234*
G37*
G36*
X01905Y01229D02*
X01894D01*
X01884Y01226*
X01875Y01221*
X01868Y01214*
X01863Y01205*
X0186Y01195*
Y01184*
X01863Y01174*
X01868Y01165*
X01875Y01158*
X01884Y01153*
X01894Y0115*
X01905*
X01915Y01153*
X01924Y01158*
X01931Y01165*
X01936Y01174*
X01939Y01184*
Y01195*
X01936Y01205*
X01931Y01214*
X01924Y01221*
X01915Y01226*
X01905Y01229*
G37*
G36*
X01805D02*
X01794D01*
X01784Y01226*
X01775Y01221*
X01768Y01214*
X01763Y01205*
X0176Y01195*
Y01184*
X01763Y01174*
X01768Y01165*
X01775Y01158*
X01784Y01153*
X01794Y0115*
X01805*
X01815Y01153*
X01824Y01158*
X01831Y01165*
X01836Y01174*
X01839Y01184*
Y01195*
X01836Y01205*
X01831Y01214*
X01824Y01221*
X01815Y01226*
X01805Y01229*
G37*
G36*
X01705D02*
X01694D01*
X01684Y01226*
X01675Y01221*
X01668Y01214*
X01663Y01205*
X0166Y01195*
Y01184*
X01663Y01174*
X01668Y01165*
X01675Y01158*
X01684Y01153*
X01694Y0115*
X01705*
X01715Y01153*
X01724Y01158*
X01731Y01165*
X01736Y01174*
X01739Y01184*
Y01195*
X01736Y01205*
X01731Y01214*
X01724Y01221*
X01715Y01226*
X01705Y01229*
G37*
G36*
X01605D02*
X01594D01*
X01584Y01226*
X01575Y01221*
X01568Y01214*
X01563Y01205*
X0156Y01195*
Y01184*
X01563Y01174*
X01568Y01165*
X01575Y01158*
X01584Y01153*
X01594Y0115*
X01605*
X01615Y01153*
X01624Y01158*
X01631Y01165*
X01636Y01174*
X01639Y01184*
Y01195*
X01636Y01205*
X01631Y01214*
X01624Y01221*
X01615Y01226*
X01605Y01229*
G37*
G36*
X01505D02*
X01494D01*
X01484Y01226*
X01475Y01221*
X01468Y01214*
X01463Y01205*
X0146Y01195*
Y01184*
X01463Y01174*
X01468Y01165*
X01475Y01158*
X01484Y01153*
X01494Y0115*
X01505*
X01515Y01153*
X01524Y01158*
X01531Y01165*
X01536Y01174*
X01539Y01184*
Y01195*
X01536Y01205*
X01531Y01214*
X01524Y01221*
X01515Y01226*
X01505Y01229*
G37*
G36*
X01405D02*
X01394D01*
X01384Y01226*
X01375Y01221*
X01368Y01214*
X01363Y01205*
X0136Y01195*
Y01184*
X01363Y01174*
X01368Y01165*
X01375Y01158*
X01384Y01153*
X01394Y0115*
X01405*
X01415Y01153*
X01424Y01158*
X01431Y01165*
X01436Y01174*
X01439Y01184*
Y01195*
X01436Y01205*
X01431Y01214*
X01424Y01221*
X01415Y01226*
X01405Y01229*
G37*
G36*
X01305D02*
X01294D01*
X01284Y01226*
X01275Y01221*
X01268Y01214*
X01263Y01205*
X0126Y01195*
Y01184*
X01263Y01174*
X01268Y01165*
X01275Y01158*
X01284Y01153*
X01294Y0115*
X01305*
X01315Y01153*
X01324Y01158*
X01331Y01165*
X01336Y01174*
X01339Y01184*
Y01195*
X01336Y01205*
X01331Y01214*
X01324Y01221*
X01315Y01226*
X01305Y01229*
G37*
G36*
X01205D02*
X01194D01*
X01184Y01226*
X01175Y01221*
X01168Y01214*
X01163Y01205*
X0116Y01195*
Y01184*
X01163Y01174*
X01168Y01165*
X01175Y01158*
X01184Y01153*
X01194Y0115*
X01205*
X01215Y01153*
X01224Y01158*
X01231Y01165*
X01236Y01174*
X01239Y01184*
Y01195*
X01236Y01205*
X01231Y01214*
X01224Y01221*
X01215Y01226*
X01205Y01229*
G37*
G36*
X01105D02*
X01094D01*
X01084Y01226*
X01075Y01221*
X01068Y01214*
X01063Y01205*
X0106Y01195*
Y01184*
X01063Y01174*
X01068Y01165*
X01075Y01158*
X01084Y01153*
X01094Y0115*
X01105*
X01115Y01153*
X01124Y01158*
X01131Y01165*
X01136Y01174*
X01139Y01184*
Y01195*
X01136Y01205*
X01131Y01214*
X01124Y01221*
X01115Y01226*
X01105Y01229*
G37*
G36*
X01005D02*
X00994D01*
X00984Y01226*
X00975Y01221*
X00968Y01214*
X00963Y01205*
X0096Y01195*
Y01184*
X00963Y01174*
X00968Y01165*
X00975Y01158*
X00984Y01153*
X00994Y0115*
X01005*
X01015Y01153*
X01024Y01158*
X01031Y01165*
X01036Y01174*
X01039Y01184*
Y01195*
X01036Y01205*
X01031Y01214*
X01024Y01221*
X01015Y01226*
X01005Y01229*
G37*
G36*
X00905D02*
X00894D01*
X00884Y01226*
X00875Y01221*
X00868Y01214*
X00863Y01205*
X0086Y01195*
Y01184*
X00863Y01174*
X00868Y01165*
X00875Y01158*
X00884Y01153*
X00894Y0115*
X00905*
X00915Y01153*
X00924Y01158*
X00931Y01165*
X00936Y01174*
X00939Y01184*
Y01195*
X00936Y01205*
X00931Y01214*
X00924Y01221*
X00915Y01226*
X00905Y01229*
G37*
G36*
X00805D02*
X00794D01*
X00784Y01226*
X00775Y01221*
X00768Y01214*
X00763Y01205*
X0076Y01195*
Y01184*
X00763Y01174*
X00768Y01165*
X00775Y01158*
X00784Y01153*
X00794Y0115*
X00805*
X00815Y01153*
X00824Y01158*
X00831Y01165*
X00836Y01174*
X00839Y01184*
Y01195*
X00836Y01205*
X00831Y01214*
X00824Y01221*
X00815Y01226*
X00805Y01229*
G37*
G36*
X00705D02*
X00694D01*
X00684Y01226*
X00675Y01221*
X00668Y01214*
X00663Y01205*
X0066Y01195*
Y01184*
X00663Y01174*
X00668Y01165*
X00675Y01158*
X00684Y01153*
X00694Y0115*
X00705*
X00715Y01153*
X00724Y01158*
X00731Y01165*
X00736Y01174*
X00739Y01184*
Y01195*
X00736Y01205*
X00731Y01214*
X00724Y01221*
X00715Y01226*
X00705Y01229*
G37*
G36*
X00505D02*
X00494D01*
X00484Y01226*
X00475Y01221*
X00468Y01214*
X00463Y01205*
X0046Y01195*
Y01184*
X00463Y01174*
X00468Y01165*
X00475Y01158*
X00484Y01153*
X00494Y0115*
X00505*
X00515Y01153*
X00524Y01158*
X00531Y01165*
X00536Y01174*
X00539Y01184*
Y01195*
X00536Y01205*
X00531Y01214*
X00524Y01221*
X00515Y01226*
X00505Y01229*
G37*
G36*
X00105D02*
X00094D01*
X00084Y01226*
X00075Y01221*
X00068Y01214*
X00063Y01205*
X0006Y01195*
Y01184*
X00063Y01174*
X00068Y01165*
X00075Y01158*
X00084Y01153*
X00094Y0115*
X00105*
X00115Y01153*
X00124Y01158*
X00131Y01165*
X00136Y01174*
X00139Y01184*
Y01195*
X00136Y01205*
X00131Y01214*
X00124Y01221*
X00115Y01226*
X00105Y01229*
G37*
G36*
X00644Y01185D02*
X006D01*
X00555*
Y01184*
X00558Y01172*
X00564Y01162*
X00572Y01154*
X00582Y01148*
X00586Y01147*
Y01142*
X00582Y01141*
X00572Y01135*
X00564Y01127*
X00558Y01117*
X00555Y01105*
Y01105*
X006*
X00644*
Y01105*
X00641Y01117*
X00635Y01127*
X00627Y01135*
X00617Y01141*
X00613Y01142*
Y01147*
X00617Y01148*
X00627Y01154*
X00635Y01162*
X00641Y01172*
X00644Y01184*
Y01185*
G37*
G36*
X00444D02*
X004D01*
X00355*
Y01184*
X00358Y01172*
X00364Y01162*
X00372Y01154*
X00382Y01148*
X00386Y01147*
Y01142*
X00382Y01141*
X00372Y01135*
X00364Y01127*
X00358Y01117*
X00355Y01105*
Y01105*
X004*
X00444*
Y01105*
X00441Y01117*
X00435Y01127*
X00427Y01135*
X00417Y01141*
X00413Y01142*
Y01147*
X00417Y01148*
X00427Y01154*
X00435Y01162*
X00441Y01172*
X00444Y01184*
Y01185*
G37*
G36*
X00344D02*
X003D01*
X00255*
Y01184*
X00258Y01172*
X00264Y01162*
X00272Y01154*
X00282Y01148*
X00286Y01147*
Y01142*
X00282Y01141*
X00272Y01135*
X00264Y01127*
X00258Y01117*
X00255Y01105*
Y01105*
X003*
X00344*
Y01105*
X00341Y01117*
X00335Y01127*
X00327Y01135*
X00317Y01141*
X00313Y01142*
Y01147*
X00317Y01148*
X00327Y01154*
X00335Y01162*
X00341Y01172*
X00344Y01184*
Y01185*
G37*
G36*
X00244D02*
X002D01*
X00155*
Y01184*
X00158Y01172*
X00164Y01162*
X00172Y01154*
X00182Y01148*
X00186Y01147*
Y01142*
X00182Y01141*
X00172Y01135*
X00164Y01127*
X00158Y01117*
X00155Y01105*
Y01105*
X002*
X00244*
Y01105*
X00241Y01117*
X00235Y01127*
X00227Y01135*
X00217Y01141*
X00213Y01142*
Y01147*
X00217Y01148*
X00227Y01154*
X00235Y01162*
X00241Y01172*
X00244Y01184*
Y01185*
G37*
G36*
X01905Y01139D02*
X01894D01*
X01884Y01136*
X01875Y01131*
X01868Y01124*
X01863Y01115*
X0186Y01105*
Y01094*
X01863Y01084*
X01868Y01075*
X01875Y01068*
X01884Y01063*
X01894Y0106*
X01905*
X01915Y01063*
X01924Y01068*
X01931Y01075*
X01936Y01084*
X01939Y01094*
Y01105*
X01936Y01115*
X01931Y01124*
X01924Y01131*
X01915Y01136*
X01905Y01139*
G37*
G36*
X01805D02*
X01794D01*
X01784Y01136*
X01775Y01131*
X01768Y01124*
X01763Y01115*
X0176Y01105*
Y01094*
X01763Y01084*
X01768Y01075*
X01775Y01068*
X01784Y01063*
X01794Y0106*
X01805*
X01815Y01063*
X01824Y01068*
X01831Y01075*
X01836Y01084*
X01839Y01094*
Y01105*
X01836Y01115*
X01831Y01124*
X01824Y01131*
X01815Y01136*
X01805Y01139*
G37*
G36*
X01705D02*
X01694D01*
X01684Y01136*
X01675Y01131*
X01668Y01124*
X01663Y01115*
X0166Y01105*
Y01094*
X01663Y01084*
X01668Y01075*
X01675Y01068*
X01684Y01063*
X01694Y0106*
X01705*
X01715Y01063*
X01724Y01068*
X01731Y01075*
X01736Y01084*
X01739Y01094*
Y01105*
X01736Y01115*
X01731Y01124*
X01724Y01131*
X01715Y01136*
X01705Y01139*
G37*
G36*
X01605D02*
X01594D01*
X01584Y01136*
X01575Y01131*
X01568Y01124*
X01563Y01115*
X0156Y01105*
Y01094*
X01563Y01084*
X01568Y01075*
X01575Y01068*
X01584Y01063*
X01594Y0106*
X01605*
X01615Y01063*
X01624Y01068*
X01631Y01075*
X01636Y01084*
X01639Y01094*
Y01105*
X01636Y01115*
X01631Y01124*
X01624Y01131*
X01615Y01136*
X01605Y01139*
G37*
G36*
X01505D02*
X01494D01*
X01484Y01136*
X01475Y01131*
X01468Y01124*
X01463Y01115*
X0146Y01105*
Y01094*
X01463Y01084*
X01468Y01075*
X01475Y01068*
X01484Y01063*
X01494Y0106*
X01505*
X01515Y01063*
X01524Y01068*
X01531Y01075*
X01536Y01084*
X01539Y01094*
Y01105*
X01536Y01115*
X01531Y01124*
X01524Y01131*
X01515Y01136*
X01505Y01139*
G37*
G36*
X01405D02*
X01394D01*
X01384Y01136*
X01375Y01131*
X01368Y01124*
X01363Y01115*
X0136Y01105*
Y01094*
X01363Y01084*
X01368Y01075*
X01375Y01068*
X01384Y01063*
X01394Y0106*
X01405*
X01415Y01063*
X01424Y01068*
X01431Y01075*
X01436Y01084*
X01439Y01094*
Y01105*
X01436Y01115*
X01431Y01124*
X01424Y01131*
X01415Y01136*
X01405Y01139*
G37*
G36*
X00105D02*
X00094D01*
X00084Y01136*
X00075Y01131*
X00068Y01124*
X00063Y01115*
X0006Y01105*
Y01094*
X00063Y01084*
X00068Y01075*
X00075Y01068*
X00084Y01063*
X00094Y0106*
X00105*
X00115Y01063*
X00124Y01068*
X00131Y01075*
X00136Y01084*
X00139Y01094*
Y01105*
X00136Y01115*
X00131Y01124*
X00124Y01131*
X00115Y01136*
X00105Y01139*
G37*
G36*
X01305D02*
X01294D01*
X01284Y01136*
X01275Y01131*
X01268Y01124*
X01263Y01115*
X0126Y01105*
Y01094*
X01263Y01084*
X01268Y01075*
X01275Y01068*
X01281Y01065*
X0128Y0106*
X01219*
X01218Y01065*
X01224Y01068*
X01231Y01075*
X01236Y01084*
X01239Y01094*
Y01105*
X01236Y01115*
X01231Y01124*
X01224Y01131*
X01215Y01136*
X01205Y01139*
X01194*
X01184Y01136*
X01175Y01131*
X01168Y01124*
X01163Y01115*
X0116Y01105*
Y01094*
X01163Y01084*
X01168Y01075*
X01175Y01068*
X01181Y01065*
X0118Y0106*
X01119*
X01118Y01065*
X01124Y01068*
X01131Y01075*
X01136Y01084*
X01139Y01094*
Y01105*
X01136Y01115*
X01131Y01124*
X01124Y01131*
X01115Y01136*
X01105Y01139*
X01094*
X01084Y01136*
X01075Y01131*
X01068Y01124*
X01063Y01115*
X0106Y01105*
Y01094*
X01063Y01084*
X01068Y01075*
X01075Y01068*
X01081Y01065*
X0108Y0106*
X01019*
X01018Y01065*
X01024Y01068*
X01031Y01075*
X01036Y01084*
X01039Y01094*
Y01105*
X01036Y01115*
X01031Y01124*
X01024Y01131*
X01015Y01136*
X01005Y01139*
X00994*
X00984Y01136*
X00975Y01131*
X00968Y01124*
X00963Y01115*
X0096Y01105*
Y01094*
X00963Y01084*
X00968Y01075*
X00975Y01068*
X00981Y01065*
X0098Y0106*
X00969*
X00938Y0109*
X00939Y01094*
Y01105*
X00936Y01115*
X00931Y01124*
X00924Y01131*
X00915Y01136*
X00905Y01139*
X00894*
X00884Y01136*
X00875Y01131*
X00868Y01124*
X00863Y01115*
X0086Y01105*
Y01095*
X00856Y01093*
X00852Y01097*
X00848Y01099*
X00845Y011*
X00839*
Y01105*
X00836Y01115*
X00831Y01124*
X00824Y01131*
X00815Y01136*
X00805Y01139*
X00794*
X00784Y01136*
X00775Y01131*
X00768Y01124*
X00763Y01115*
X0076Y01105*
Y01095*
X00756Y01093*
X00752Y01097*
X00748Y01099*
X00745Y011*
X00739*
Y01105*
X00736Y01115*
X00731Y01124*
X00724Y01131*
X00715Y01136*
X00705Y01139*
X00694*
X00684Y01136*
X00675Y01131*
X00668Y01124*
X00663Y01115*
X0066Y01105*
Y01094*
X00663Y01084*
X00668Y01075*
X00675Y01068*
X00684Y01063*
X00694Y0106*
X00705*
X00715Y01063*
X00724Y01068*
X00731Y01075*
X00733Y01079*
X0074*
X00773Y01047*
X00776Y01044*
X0078Y01044*
X00855*
X00886Y01012*
X00889Y0101*
X00893Y01009*
X01275*
X01279Y01005*
Y00915*
X01277Y00913*
X01275Y00907*
Y00906*
X0127Y00904*
X01192Y00982*
X01188Y00984*
X01185Y00985*
X0086*
X00858Y00987*
X00852Y00989*
X00847*
X00841Y00987*
X00837Y00983*
X00835Y00977*
Y00972*
X00837Y00966*
X00841Y00962*
X00847Y0096*
X00852*
X00858Y00962*
X0086Y00964*
X0118*
X01295Y0085*
Y00847*
X01297Y00841*
X01301Y00837*
X01307Y00835*
X01312*
X01318Y00837*
X01322Y00841*
X01324Y00847*
Y00852*
X01322Y00858*
X01318Y00862*
X01312Y00864*
X01309*
X01289Y00885*
X01291Y0089*
X01292*
X01298Y00892*
X01302Y00896*
X01304Y00901*
Y00907*
X01302Y00913*
X013Y00915*
Y0101*
X01299Y01013*
X01299Y01014*
X01302Y01017*
X01329Y0099*
Y00915*
X01327Y00913*
X01325Y00907*
Y00902*
X01327Y00896*
X01331Y00892*
X01337Y0089*
X01342*
X01348Y00892*
X01352Y00896*
X01354Y00902*
Y00907*
X01352Y00913*
X0135Y00915*
Y00995*
X01349Y00998*
X01347Y01002*
X01314Y01035*
X01316Y01039*
X0134*
X01379Y01*
Y00915*
X01377Y00913*
X01375Y00907*
Y00901*
X01377Y00896*
X01381Y00892*
X01387Y0089*
X01392*
X01398Y00892*
X01402Y00896*
X01404Y00901*
Y00907*
X01402Y00913*
X014Y00915*
Y01005*
X01399Y01008*
X01397Y01012*
X01352Y01057*
X01348Y01059*
X01345Y0106*
X01319*
X01318Y01065*
X01324Y01068*
X01331Y01075*
X01336Y01084*
X01339Y01094*
Y01105*
X01336Y01115*
X01331Y01124*
X01324Y01131*
X01315Y01136*
X01305Y01139*
G37*
G36*
X00644Y01095D02*
X00605D01*
Y01055*
X00605*
X00617Y01058*
X00627Y01064*
X00635Y01072*
X00641Y01082*
X00644Y01094*
Y01095*
G37*
G36*
X00595D02*
X00555D01*
Y01094*
X00558Y01082*
X00564Y01072*
X00572Y01064*
X00582Y01058*
X00594Y01055*
X00595*
Y01095*
G37*
G36*
X00444D02*
X00405D01*
Y01055*
X00405*
X00417Y01058*
X00427Y01064*
X00435Y01072*
X00441Y01082*
X00444Y01094*
Y01095*
G37*
G36*
X00395D02*
X00355D01*
Y01094*
X00358Y01082*
X00364Y01072*
X00372Y01064*
X00382Y01058*
X00394Y01055*
X00395*
Y01095*
G37*
G36*
X00344D02*
X00305D01*
Y01055*
X00305*
X00317Y01058*
X00327Y01064*
X00335Y01072*
X00341Y01082*
X00344Y01094*
Y01095*
G37*
G36*
X00295D02*
X00255D01*
Y01094*
X00258Y01082*
X00264Y01072*
X00272Y01064*
X00282Y01058*
X00294Y01055*
X00295*
Y01095*
G37*
G36*
X00244D02*
X00205D01*
Y01055*
X00205*
X00217Y01058*
X00227Y01064*
X00235Y01072*
X00241Y01082*
X00244Y01094*
Y01095*
G37*
G36*
X00195D02*
X00155D01*
Y01094*
X00158Y01082*
X00164Y01072*
X00172Y01064*
X00182Y01058*
X00194Y01055*
X00195*
Y01095*
G37*
G36*
X00505Y01139D02*
X00494D01*
X00484Y01136*
X00475Y01131*
X00468Y01124*
X00463Y01115*
X0046Y01105*
Y01094*
X00463Y01084*
X00468Y01075*
X00475Y01068*
X00484Y01063*
X00494Y0106*
X00505*
X00515Y01063*
X00519Y01065*
X00615Y00969*
X00613Y00965*
X00425*
X00422Y00964*
X00422*
X00421Y00964*
X00419Y00964*
X00417Y00962*
X00416Y00962*
X00416Y00962*
X00414Y0096*
X00412Y00958*
X00412Y00958*
X00412Y00957*
X0041Y00955*
X0041Y00953*
X0041Y00952*
Y00952*
X00409Y0095*
X0041Y00947*
Y00947*
X0041Y00946*
X0041Y00944*
X00412Y00942*
X00412Y00941*
X00412Y00941*
X00414Y00939*
X00416Y00937*
X00416Y00937*
X00417Y00937*
X00419Y00935*
X00421Y00935*
X00422Y00935*
X00422*
X00425Y00934*
X00693*
X00826Y00801*
X00828Y008*
X00828Y008*
X00829Y00799*
X00831Y00798*
X00833Y00798*
X00834Y00797*
X00835*
X00837Y00797*
X00839Y00797*
X0084*
X0084Y00798*
X00843Y00798*
X00845Y00799*
X00845Y008*
X00846Y008*
X00848Y00801*
X00849Y00803*
X00849Y00804*
X0085Y00804*
X00851Y00806*
X00851Y00809*
X00852Y00809*
Y0081*
X00852Y00812*
X00852Y00814*
Y00815*
X00851Y00816*
X00851Y00816*
X00856Y00819*
X00912Y00762*
X00916Y0076*
X0092Y00759*
X01269*
X01271Y00757*
X01277Y00755*
X01282*
X01288Y00757*
X01292Y00761*
X01294Y00767*
Y00772*
X01292Y00778*
X01288Y00782*
X01282Y00784*
X01277*
X01271Y00782*
X01269Y0078*
X00924*
X00727Y00977*
X00723Y00979*
X0072Y0098*
X00634*
X00534Y0108*
X00536Y01084*
X00539Y01094*
Y01105*
X00536Y01115*
X00531Y01124*
X00524Y01131*
X00515Y01136*
X00505Y01139*
G37*
G36*
X00204Y00742D02*
X00197D01*
X0019Y00739*
X00185Y00734*
X00182Y00727*
Y0072*
X00185Y00713*
X0019Y00708*
X00197Y00705*
X00204*
X00211Y00708*
X00216Y00713*
X00219Y0072*
Y00727*
X00216Y00734*
X00211Y00739*
X00204Y00742*
G37*
G36*
X00607Y00664D02*
Y00634D01*
X00637*
X00634Y00642*
X0063Y0065*
X00623Y00657*
X00615Y00661*
X00607Y00664*
G37*
G36*
X00597D02*
X00588Y00661D01*
X0058Y00657*
X00574Y0065*
X00569Y00642*
X00567Y00634*
X00597*
Y00664*
G37*
G36*
X00695Y00918D02*
X0069D01*
X00684Y00916*
X0068Y00912*
X00678Y00906*
Y00903*
X00557Y00783*
X00555Y00779*
X00554Y00776*
Y00755*
X00552Y00753*
X0055Y00747*
Y00742*
X00552Y00736*
X00556Y00732*
X00562Y0073*
X00567*
X00573Y00732*
X00575Y00734*
X00665*
X00669Y00735*
X00671Y00737*
X00674Y00737*
X00677Y00736*
X00678Y00734*
X0068Y00732*
Y00674*
X00681Y0067*
X00683Y00666*
X00698Y00651*
X00701Y00649*
X00705Y00648*
X00708*
X00716Y00641*
Y00639*
X00718Y00634*
X00722Y00629*
X00728Y00627*
X00734*
X00737Y00628*
X00741Y00625*
X0074Y00622*
Y00617*
X00736Y00613*
X00732Y00614*
X00727*
X00721Y00612*
X00717Y00608*
X00715Y00602*
Y00597*
X00717Y00591*
X00721Y00587*
X00727Y00585*
X00732*
X00738Y00587*
X0074Y00589*
X00821*
X00825Y0059*
X00828Y00592*
X00835Y00599*
X00915*
X01002Y00512*
X01006Y0051*
X0101Y00509*
X01525*
X01725Y0031*
Y00307*
X01727Y00301*
X01731Y00297*
X01737Y00295*
X01742*
X01748Y00297*
X01752Y00301*
X01754Y00307*
Y00312*
X01752Y00318*
X01748Y00322*
X01742Y00324*
X01739*
X01544Y0052*
X01546Y00524*
X0156*
X01775Y0031*
Y00307*
X01777Y00301*
X01781Y00297*
X01787Y00295*
X01792*
X01798Y00297*
X01802Y00301*
X01804Y00307*
Y00312*
X01802Y00318*
X01798Y00322*
X01792Y00324*
X01789*
X01572Y00542*
X01568Y00544*
X01565Y00545*
X01029*
X00937Y00637*
X00933Y00639*
X0093Y0064*
X0088*
X00878Y00642*
X00872Y00644*
X00867*
X00861Y00642*
X00857Y00638*
X00855Y00632*
Y00627*
X00855Y00625*
X00852Y0062*
X00831*
X00827Y00619*
X00824Y00617*
X00817Y0061*
X00772*
X00769Y00615*
X00769Y00617*
Y00622*
X00767Y00628*
X00765Y0063*
Y0065*
X00764Y00653*
X00762Y00657*
X00721Y00698*
Y00751*
X0072Y00755*
X00718Y00758*
X00706Y0077*
X00703Y00772*
X00699Y00773*
X00682*
X00678Y00772*
X00675Y0077*
X00663Y00758*
X00663Y00757*
X00661Y00755*
X00575*
X00575Y00755*
Y00771*
X00692Y00889*
X00695*
X00701Y00891*
X00705Y00895*
X00707Y00901*
Y00906*
X00705Y00912*
X00701Y00916*
X00695Y00918*
G37*
G36*
X00283Y00654D02*
X00277D01*
X00271Y00652*
X00267Y00648*
X00265Y00642*
Y00636*
X00267Y00631*
X00271Y00627*
X00277Y00625*
X0028*
X00295Y0061*
Y00607*
X00297Y00601*
X00301Y00597*
X00307Y00595*
X00312*
X00318Y00597*
X00322Y00601*
X00324Y00607*
Y00612*
X00322Y00618*
X00318Y00622*
X00312Y00624*
X00309*
X00295Y00639*
Y00642*
X00292Y00648*
X00288Y00652*
X00283Y00654*
G37*
G36*
X00637Y00624D02*
X00607D01*
Y00594*
X00615Y00596*
X00623Y00601*
X0063Y00607*
X00634Y00615*
X00637Y00624*
G37*
G36*
X00597D02*
X00567D01*
X00569Y00615*
X00574Y00607*
X0058Y00601*
X00588Y00596*
X00597Y00594*
Y00624*
G37*
G36*
X0189Y00912D02*
X01881Y00911D01*
X01873Y00906*
X01868Y00898*
X01867Y0089*
Y00639*
X01825Y00597*
X01095*
X01086Y00596*
X01078Y00591*
X01073Y00583*
X01072Y00575*
X01073Y00566*
X01078Y00558*
X01086Y00553*
X01095Y00552*
X01835*
X01843Y00553*
X01851Y00558*
X01906Y00613*
X01911Y00621*
X01912Y0063*
Y0089*
X01911Y00898*
X01906Y00906*
X01898Y00911*
X0189Y00912*
G37*
G36*
X00528Y00569D02*
X00523D01*
X00517Y00567*
X00513Y00563*
X00511Y00557*
Y00552*
X00513Y00546*
X00517Y00542*
X00523Y0054*
X00528*
X00534Y00542*
X00536Y00544*
X00805*
X00808Y00541*
X00814Y00539*
X00819*
X00825Y00541*
X00829Y00545*
X00831Y00551*
Y00556*
X00829Y00562*
X00825Y00566*
X00819Y00568*
X00814*
X00808Y00566*
X00806Y00564*
X00537*
X00534Y00567*
X00528Y00569*
G37*
G36*
X00204Y00515D02*
X00197D01*
X0019Y00512*
X00185Y00507*
X00182Y005*
Y00492*
X00185Y00485*
X0019Y0048*
X00197Y00477*
X00204*
X00211Y0048*
X00216Y00485*
X00219Y00492*
Y005*
X00216Y00507*
X00211Y00512*
X00204Y00515*
G37*
G36*
X00462Y00354D02*
X00457D01*
X00451Y00352*
X00447Y00348*
X00445Y00342*
Y00337*
X00447Y00331*
X00451Y00327*
X00454Y00326*
X0046Y0032*
X00465Y00317*
X0047Y00315*
X01105*
X01107Y00315*
X01112*
X01118Y00317*
X01122Y00321*
X01124Y00327*
Y00332*
X01122Y00338*
X01118Y00342*
X01112Y00344*
X01107*
X01105Y00344*
X00476*
X00472Y00347*
X00472Y00348*
X00468Y00352*
X00462Y00354*
G37*
G36*
X01905Y00144D02*
X01905D01*
Y00105*
X01944*
Y00105*
X01941Y00117*
X01935Y00127*
X01927Y00135*
X01917Y00141*
X01905Y00144*
G37*
G36*
X00305D02*
X00305D01*
Y00105*
X00344*
Y00105*
X00341Y00117*
X00335Y00127*
X00327Y00135*
X00317Y00141*
X00305Y00144*
G37*
G36*
X00205D02*
X00205D01*
Y00105*
X00244*
Y00105*
X00241Y00117*
X00235Y00127*
X00227Y00135*
X00217Y00141*
X00205Y00144*
G37*
G36*
X00105D02*
X00105D01*
Y00105*
X00144*
Y00105*
X00141Y00117*
X00135Y00127*
X00127Y00135*
X00117Y00141*
X00105Y00144*
G37*
G36*
X01895D02*
X01894D01*
X01882Y00141*
X01872Y00135*
X01864Y00127*
X01858Y00117*
X01855Y00105*
Y00105*
X01895*
Y00144*
G37*
G36*
X01182Y00424D02*
X01177D01*
X01171Y00422*
X01167Y00418*
X01165Y00412*
Y00407*
X01167Y00401*
X01169Y00399*
Y00239*
X0115Y0022*
X0051*
X00506Y00219*
X00502Y00217*
X00419Y00134*
X00415Y00136*
X00405Y00139*
X00394*
X00384Y00136*
X00375Y00131*
X00368Y00124*
X00363Y00115*
X0036Y00105*
Y00094*
X00363Y00084*
X00368Y00075*
X00375Y00068*
X00384Y00063*
X00394Y0006*
X00405*
X00415Y00063*
X00424Y00068*
X00431Y00075*
X00436Y00084*
X00439Y00094*
Y00105*
X00436Y00115*
X00434Y00119*
X00514Y00199*
X00578*
X0058Y00195*
X00519Y00134*
X00515Y00136*
X00505Y00139*
X00494*
X00484Y00136*
X00475Y00131*
X00468Y00124*
X00463Y00115*
X0046Y00105*
Y00094*
X00463Y00084*
X00468Y00075*
X00475Y00068*
X00484Y00063*
X00494Y0006*
X00505*
X00515Y00063*
X00524Y00068*
X00531Y00075*
X00536Y00084*
X00539Y00094*
Y00105*
X00536Y00115*
X00534Y00119*
X00599Y00184*
X00663*
X00665Y0018*
X00619Y00134*
X00615Y00136*
X00605Y00139*
X00594*
X00584Y00136*
X00575Y00131*
X00568Y00124*
X00563Y00115*
X0056Y00105*
Y00094*
X00563Y00084*
X00568Y00075*
X00575Y00068*
X00584Y00063*
X00594Y0006*
X00605*
X00615Y00063*
X00624Y00068*
X00631Y00075*
X00636Y00084*
X00639Y00094*
Y00105*
X00636Y00115*
X00634Y00119*
X00684Y00169*
X00748*
X0075Y00165*
X00719Y00134*
X00715Y00136*
X00705Y00139*
X00694*
X00684Y00136*
X00675Y00131*
X00668Y00124*
X00663Y00115*
X0066Y00105*
Y00094*
X00663Y00084*
X00668Y00075*
X00675Y00068*
X00684Y00063*
X00694Y0006*
X00705*
X00715Y00063*
X00724Y00068*
X00731Y00075*
X00736Y00084*
X00739Y00094*
Y00105*
X00736Y00115*
X00734Y00119*
X00769Y00154*
X00868*
X0087Y0015*
X00842Y00121*
X00833*
X00831Y00124*
X00824Y00131*
X00815Y00136*
X00805Y00139*
X00794*
X00784Y00136*
X00775Y00131*
X00768Y00124*
X00763Y00115*
X0076Y00105*
Y00094*
X00763Y00084*
X00768Y00075*
X00775Y00068*
X00784Y00063*
X00794Y0006*
X00805*
X00815Y00063*
X00824Y00068*
X00831Y00075*
X00836Y00084*
X00839Y00094*
Y00101*
X00846*
X0085Y00101*
X00853Y00104*
X00856Y00106*
X0086Y00104*
Y00094*
X00863Y00084*
X00868Y00075*
X00875Y00068*
X00884Y00063*
X00894Y0006*
X00905*
X00915Y00063*
X00924Y00068*
X00931Y00075*
X00936Y00084*
X00939Y00094*
Y00105*
X00936Y00115*
X00931Y00124*
X00924Y00131*
X00918Y00134*
X00919Y00139*
X0098*
X00981Y00134*
X00975Y00131*
X00968Y00124*
X00963Y00115*
X0096Y00105*
Y00094*
X00963Y00084*
X00968Y00075*
X00975Y00068*
X00984Y00063*
X00994Y0006*
X01005*
X01015Y00063*
X01024Y00068*
X01031Y00075*
X01036Y00084*
X01039Y00094*
Y00105*
X01036Y00115*
X01031Y00124*
X01024Y00131*
X01018Y00134*
X01019Y00139*
X0108*
X01081Y00134*
X01075Y00131*
X01068Y00124*
X01063Y00115*
X0106Y00105*
Y00094*
X01063Y00084*
X01068Y00075*
X01075Y00068*
X01084Y00063*
X01094Y0006*
X01105*
X01115Y00063*
X01124Y00068*
X01131Y00075*
X01136Y00084*
X01139Y00094*
Y00105*
X01136Y00115*
X01131Y00124*
X01124Y00131*
X01118Y00134*
X01119Y00139*
X0118*
X01181Y00134*
X01175Y00131*
X01168Y00124*
X01163Y00115*
X0116Y00105*
Y00094*
X01163Y00084*
X01168Y00075*
X01175Y00068*
X01184Y00063*
X01194Y0006*
X01205*
X01215Y00063*
X01224Y00068*
X01231Y00075*
X01236Y00084*
X01239Y00094*
Y00105*
X01236Y00115*
X01231Y00124*
X01224Y00131*
X01218Y00134*
X01219Y00139*
X0127*
X01271Y00134*
X01264Y00127*
X01258Y00117*
X01255Y00105*
Y00105*
X013*
X01344*
Y00105*
X01341Y00117*
X01335Y00127*
X01327Y00135*
X01317Y00141*
X01305Y00144*
X013*
X01298Y00149*
X01397Y00247*
X01399Y00251*
X014Y00255*
Y00284*
X01402Y00286*
X01404Y00292*
Y00297*
X01402Y00303*
X01398Y00307*
X01392Y00309*
X01387*
X01381Y00307*
X01377Y00303*
X01375Y00297*
Y00292*
X01377Y00286*
X01379Y00284*
Y00259*
X01355Y00234*
X0135Y00236*
Y00284*
X01352Y00286*
X01354Y00292*
Y00297*
X01352Y00303*
X01348Y00307*
X01342Y00309*
X01337*
X01331Y00307*
X01327Y00303*
X01325Y00297*
Y00292*
X01327Y00286*
X01329Y00284*
Y00234*
X01305Y00209*
X013Y00211*
Y00284*
X01302Y00286*
X01304Y00292*
Y00297*
X01302Y00303*
X01298Y00307*
X01292Y00309*
X01287*
X01281Y00307*
X01277Y00303*
X01275Y00297*
Y00292*
X01277Y00286*
X01279Y00284*
Y00209*
X0126Y0019*
X01221*
X01219Y00194*
X01237Y00212*
X01239Y00216*
X0124Y0022*
Y00314*
X01242Y00316*
X01244Y00322*
Y00327*
X01242Y00333*
X01238Y00337*
X01232Y00339*
X01227*
X01221Y00337*
X01217Y00333*
X01215Y00327*
Y00322*
X01217Y00316*
X01219Y00314*
Y00224*
X012Y00205*
X01171*
X01169Y00209*
X01187Y00227*
X01189Y00231*
X0119Y00235*
Y00399*
X01192Y00401*
X01194Y00407*
Y00412*
X01192Y00418*
X01188Y00422*
X01182Y00424*
G37*
G36*
X00295Y00144D02*
X00294D01*
X00282Y00141*
X00272Y00135*
X00264Y00127*
X00258Y00117*
X00255Y00105*
Y00105*
X00295*
Y00144*
G37*
G36*
X00195D02*
X00194D01*
X00182Y00141*
X00172Y00135*
X00164Y00127*
X00158Y00117*
X00155Y00105*
Y00105*
X00195*
Y00144*
G37*
G36*
X00095D02*
X00094D01*
X00082Y00141*
X00072Y00135*
X00064Y00127*
X00058Y00117*
X00055Y00105*
Y00105*
X00095*
Y00144*
G37*
G36*
X01805Y00139D02*
X01794D01*
X01784Y00136*
X01775Y00131*
X01768Y00124*
X01763Y00115*
X0176Y00105*
Y00094*
X01763Y00084*
X01768Y00075*
X01775Y00068*
X01784Y00063*
X01794Y0006*
X01805*
X01815Y00063*
X01824Y00068*
X01831Y00075*
X01836Y00084*
X01839Y00094*
Y00105*
X01836Y00115*
X01831Y00124*
X01824Y00131*
X01815Y00136*
X01805Y00139*
G37*
G36*
X01705D02*
X01694D01*
X01684Y00136*
X01675Y00131*
X01668Y00124*
X01663Y00115*
X0166Y00105*
Y00094*
X01663Y00084*
X01668Y00075*
X01675Y00068*
X01684Y00063*
X01694Y0006*
X01705*
X01715Y00063*
X01724Y00068*
X01731Y00075*
X01736Y00084*
X01739Y00094*
Y00105*
X01736Y00115*
X01731Y00124*
X01724Y00131*
X01715Y00136*
X01705Y00139*
G37*
G36*
X01605D02*
X01594D01*
X01584Y00136*
X01575Y00131*
X01568Y00124*
X01563Y00115*
X0156Y00105*
Y00094*
X01563Y00084*
X01568Y00075*
X01575Y00068*
X01584Y00063*
X01594Y0006*
X01605*
X01615Y00063*
X01624Y00068*
X01631Y00075*
X01636Y00084*
X01639Y00094*
Y00105*
X01636Y00115*
X01631Y00124*
X01624Y00131*
X01615Y00136*
X01605Y00139*
G37*
G36*
X01505D02*
X01494D01*
X01484Y00136*
X01475Y00131*
X01468Y00124*
X01463Y00115*
X0146Y00105*
Y00094*
X01463Y00084*
X01468Y00075*
X01475Y00068*
X01484Y00063*
X01494Y0006*
X01505*
X01515Y00063*
X01524Y00068*
X01531Y00075*
X01536Y00084*
X01539Y00094*
Y00105*
X01536Y00115*
X01531Y00124*
X01524Y00131*
X01515Y00136*
X01505Y00139*
G37*
G36*
X01405D02*
X01394D01*
X01384Y00136*
X01375Y00131*
X01368Y00124*
X01363Y00115*
X0136Y00105*
Y00094*
X01363Y00084*
X01368Y00075*
X01375Y00068*
X01384Y00063*
X01394Y0006*
X01405*
X01415Y00063*
X01424Y00068*
X01431Y00075*
X01436Y00084*
X01439Y00094*
Y00105*
X01436Y00115*
X01431Y00124*
X01424Y00131*
X01415Y00136*
X01405Y00139*
G37*
G36*
X00344Y00095D02*
X003D01*
X00255*
Y00094*
X00258Y00082*
X00264Y00072*
X00272Y00064*
X00282Y00058*
X00286Y00057*
Y00052*
X00282Y00051*
X00272Y00045*
X00264Y00037*
X00258Y00027*
X00255Y00015*
Y00015*
X003*
X00344*
Y00015*
X00341Y00027*
X00335Y00037*
X00327Y00045*
X00317Y00051*
X00313Y00052*
Y00057*
X00317Y00058*
X00327Y00064*
X00335Y00072*
X00341Y00082*
X00344Y00094*
Y00095*
G37*
G36*
X00244D02*
X002D01*
X00155*
Y00094*
X00158Y00082*
X00164Y00072*
X00172Y00064*
X00182Y00058*
X00186Y00057*
Y00052*
X00182Y00051*
X00172Y00045*
X00164Y00037*
X00158Y00027*
X00155Y00015*
Y00015*
X002*
X00244*
Y00015*
X00241Y00027*
X00235Y00037*
X00227Y00045*
X00217Y00051*
X00213Y00052*
Y00057*
X00217Y00058*
X00227Y00064*
X00235Y00072*
X00241Y00082*
X00244Y00094*
Y00095*
G37*
G36*
X00144D02*
X001D01*
X00055*
Y00094*
X00058Y00082*
X00064Y00072*
X00072Y00064*
X00082Y00058*
X00086Y00057*
Y00052*
X00082Y00051*
X00072Y00045*
X00064Y00037*
X00058Y00027*
X00055Y00015*
Y00015*
X001*
X00144*
Y00015*
X00141Y00027*
X00135Y00037*
X00127Y00045*
X00117Y00051*
X00113Y00052*
Y00057*
X00117Y00058*
X00127Y00064*
X00135Y00072*
X00141Y00082*
X00144Y00094*
Y00095*
G37*
G36*
X01344D02*
X013D01*
X01255*
Y00094*
X01258Y00082*
X01264Y00072*
X01272Y00064*
X01282Y00058*
X01286Y00057*
Y00052*
X01282Y00051*
X01272Y00045*
X01264Y00037*
X01258Y00027*
X01255Y00015*
Y00015*
X013*
X01344*
Y00015*
X01341Y00027*
X01335Y00037*
X01327Y00045*
X01317Y00051*
X01313Y00052*
Y00057*
X01317Y00058*
X01327Y00064*
X01335Y00072*
X01341Y00082*
X01344Y00094*
Y00095*
G37*
G36*
X01944D02*
X019D01*
X01855*
Y00094*
X01858Y00082*
X01864Y00072*
X01872Y00064*
X01882Y00058*
X01886Y00057*
Y00052*
X01882Y00051*
X01872Y00045*
X01864Y00037*
X01858Y00027*
X01855Y00015*
Y00015*
X019*
X01944*
Y00015*
X01941Y00027*
X01935Y00037*
X01927Y00045*
X01917Y00051*
X01913Y00052*
Y00057*
X01917Y00058*
X01927Y00064*
X01935Y00072*
X01941Y00082*
X01944Y00094*
Y00095*
G37*
G36*
X01805Y00049D02*
X01794D01*
X01784Y00046*
X01775Y00041*
X01768Y00034*
X01763Y00025*
X0176Y00015*
Y00004*
X01763Y-00005*
X01768Y-00014*
X01775Y-00021*
X01784Y-00026*
X01794Y-00029*
X01805*
X01815Y-00026*
X01824Y-00021*
X01831Y-00014*
X01836Y-00005*
X01839Y00004*
Y00015*
X01836Y00025*
X01831Y00034*
X01824Y00041*
X01815Y00046*
X01805Y00049*
G37*
G36*
X01705D02*
X01694D01*
X01684Y00046*
X01675Y00041*
X01668Y00034*
X01663Y00025*
X0166Y00015*
Y00004*
X01663Y-00005*
X01668Y-00014*
X01675Y-00021*
X01684Y-00026*
X01694Y-00029*
X01705*
X01715Y-00026*
X01724Y-00021*
X01731Y-00014*
X01736Y-00005*
X01739Y00004*
Y00015*
X01736Y00025*
X01731Y00034*
X01724Y00041*
X01715Y00046*
X01705Y00049*
G37*
G36*
X01605D02*
X01594D01*
X01584Y00046*
X01575Y00041*
X01568Y00034*
X01563Y00025*
X0156Y00015*
Y00004*
X01563Y-00005*
X01568Y-00014*
X01575Y-00021*
X01584Y-00026*
X01594Y-00029*
X01605*
X01615Y-00026*
X01624Y-00021*
X01631Y-00014*
X01636Y-00005*
X01639Y00004*
Y00015*
X01636Y00025*
X01631Y00034*
X01624Y00041*
X01615Y00046*
X01605Y00049*
G37*
G36*
X01505D02*
X01494D01*
X01484Y00046*
X01475Y00041*
X01468Y00034*
X01463Y00025*
X0146Y00015*
Y00004*
X01463Y-00005*
X01468Y-00014*
X01475Y-00021*
X01484Y-00026*
X01494Y-00029*
X01505*
X01515Y-00026*
X01524Y-00021*
X01531Y-00014*
X01536Y-00005*
X01539Y00004*
Y00015*
X01536Y00025*
X01531Y00034*
X01524Y00041*
X01515Y00046*
X01505Y00049*
G37*
G36*
X01405D02*
X01394D01*
X01384Y00046*
X01375Y00041*
X01368Y00034*
X01363Y00025*
X0136Y00015*
Y00004*
X01363Y-00005*
X01368Y-00014*
X01375Y-00021*
X01384Y-00026*
X01394Y-00029*
X01405*
X01415Y-00026*
X01424Y-00021*
X01431Y-00014*
X01436Y-00005*
X01439Y00004*
Y00015*
X01436Y00025*
X01431Y00034*
X01424Y00041*
X01415Y00046*
X01405Y00049*
G37*
G36*
X01205D02*
X01194D01*
X01184Y00046*
X01175Y00041*
X01168Y00034*
X01163Y00025*
X0116Y00015*
Y00004*
X01163Y-00005*
X01168Y-00014*
X01175Y-00021*
X01184Y-00026*
X01194Y-00029*
X01205*
X01215Y-00026*
X01224Y-00021*
X01231Y-00014*
X01236Y-00005*
X01239Y00004*
Y00015*
X01236Y00025*
X01231Y00034*
X01224Y00041*
X01215Y00046*
X01205Y00049*
G37*
G36*
X01105D02*
X01094D01*
X01084Y00046*
X01075Y00041*
X01068Y00034*
X01063Y00025*
X0106Y00015*
Y00004*
X01063Y-00005*
X01068Y-00014*
X01075Y-00021*
X01084Y-00026*
X01094Y-00029*
X01105*
X01115Y-00026*
X01124Y-00021*
X01131Y-00014*
X01136Y-00005*
X01139Y00004*
Y00015*
X01136Y00025*
X01131Y00034*
X01124Y00041*
X01115Y00046*
X01105Y00049*
G37*
G36*
X01005D02*
X00994D01*
X00984Y00046*
X00975Y00041*
X00968Y00034*
X00963Y00025*
X0096Y00015*
Y00004*
X00963Y-00005*
X00968Y-00014*
X00975Y-00021*
X00984Y-00026*
X00994Y-00029*
X01005*
X01015Y-00026*
X01024Y-00021*
X01031Y-00014*
X01036Y-00005*
X01039Y00004*
Y00015*
X01036Y00025*
X01031Y00034*
X01024Y00041*
X01015Y00046*
X01005Y00049*
G37*
G36*
X00905D02*
X00894D01*
X00884Y00046*
X00875Y00041*
X00868Y00034*
X00863Y00025*
X0086Y00015*
Y00004*
X00863Y-00005*
X00868Y-00014*
X00875Y-00021*
X00884Y-00026*
X00894Y-00029*
X00905*
X00915Y-00026*
X00924Y-00021*
X00931Y-00014*
X00936Y-00005*
X00939Y00004*
Y00015*
X00936Y00025*
X00931Y00034*
X00924Y00041*
X00915Y00046*
X00905Y00049*
G37*
G36*
X00805D02*
X00794D01*
X00784Y00046*
X00775Y00041*
X00768Y00034*
X00763Y00025*
X0076Y00015*
Y00004*
X00763Y-00005*
X00768Y-00014*
X00775Y-00021*
X00784Y-00026*
X00794Y-00029*
X00805*
X00815Y-00026*
X00824Y-00021*
X00831Y-00014*
X00836Y-00005*
X00839Y00004*
Y00015*
X00836Y00025*
X00831Y00034*
X00824Y00041*
X00815Y00046*
X00805Y00049*
G37*
G36*
X00705D02*
X00694D01*
X00684Y00046*
X00675Y00041*
X00668Y00034*
X00663Y00025*
X0066Y00015*
Y00004*
X00663Y-00005*
X00668Y-00014*
X00675Y-00021*
X00684Y-00026*
X00694Y-00029*
X00705*
X00715Y-00026*
X00724Y-00021*
X00731Y-00014*
X00736Y-00005*
X00739Y00004*
Y00015*
X00736Y00025*
X00731Y00034*
X00724Y00041*
X00715Y00046*
X00705Y00049*
G37*
G36*
X00605D02*
X00594D01*
X00584Y00046*
X00575Y00041*
X00568Y00034*
X00563Y00025*
X0056Y00015*
Y00004*
X00563Y-00005*
X00568Y-00014*
X00575Y-00021*
X00584Y-00026*
X00594Y-00029*
X00605*
X00615Y-00026*
X00624Y-00021*
X00631Y-00014*
X00636Y-00005*
X00639Y00004*
Y00015*
X00636Y00025*
X00631Y00034*
X00624Y00041*
X00615Y00046*
X00605Y00049*
G37*
G36*
X00505D02*
X00494D01*
X00484Y00046*
X00475Y00041*
X00468Y00034*
X00463Y00025*
X0046Y00015*
Y00004*
X00463Y-00005*
X00468Y-00014*
X00475Y-00021*
X00484Y-00026*
X00494Y-00029*
X00505*
X00515Y-00026*
X00524Y-00021*
X00531Y-00014*
X00536Y-00005*
X00539Y00004*
Y00015*
X00536Y00025*
X00531Y00034*
X00524Y00041*
X00515Y00046*
X00505Y00049*
G37*
G36*
X00405D02*
X00394D01*
X00384Y00046*
X00375Y00041*
X00368Y00034*
X00363Y00025*
X0036Y00015*
Y00004*
X00363Y-00005*
X00368Y-00014*
X00375Y-00021*
X00384Y-00026*
X00394Y-00029*
X00405*
X00415Y-00026*
X00424Y-00021*
X00431Y-00014*
X00436Y-00005*
X00439Y00004*
Y00015*
X00436Y00025*
X00431Y00034*
X00424Y00041*
X00415Y00046*
X00405Y00049*
G37*
G36*
X01944Y00005D02*
X01905D01*
Y-00034*
X01905*
X01917Y-00031*
X01927Y-00025*
X01935Y-00017*
X01941Y-00007*
X01944Y00004*
Y00005*
G37*
G36*
X01895D02*
X01855D01*
Y00004*
X01858Y-00007*
X01864Y-00017*
X01872Y-00025*
X01882Y-00031*
X01894Y-00034*
X01895*
Y00005*
G37*
G36*
X01344D02*
X01305D01*
Y-00034*
X01305*
X01317Y-00031*
X01327Y-00025*
X01335Y-00017*
X01341Y-00007*
X01344Y00004*
Y00005*
G37*
G36*
X01295D02*
X01255D01*
Y00004*
X01258Y-00007*
X01264Y-00017*
X01272Y-00025*
X01282Y-00031*
X01294Y-00034*
X01295*
Y00005*
G37*
G36*
X00344D02*
X00305D01*
Y-00034*
X00305*
X00317Y-00031*
X00327Y-00025*
X00335Y-00017*
X00341Y-00007*
X00344Y00004*
Y00005*
G37*
G36*
X00295D02*
X00255D01*
Y00004*
X00258Y-00007*
X00264Y-00017*
X00272Y-00025*
X00282Y-00031*
X00294Y-00034*
X00295*
Y00005*
G37*
G36*
X00244D02*
X00205D01*
Y-00034*
X00205*
X00217Y-00031*
X00227Y-00025*
X00235Y-00017*
X00241Y-00007*
X00244Y00004*
Y00005*
G37*
G36*
X00195D02*
X00155D01*
Y00004*
X00158Y-00007*
X00164Y-00017*
X00172Y-00025*
X00182Y-00031*
X00194Y-00034*
X00195*
Y00005*
G37*
G36*
X00144D02*
X00105D01*
Y-00034*
X00105*
X00117Y-00031*
X00127Y-00025*
X00135Y-00017*
X00141Y-00007*
X00144Y00004*
Y00005*
G37*
G36*
X00095D02*
X00055D01*
Y00004*
X00058Y-00007*
X00064Y-00017*
X00072Y-00025*
X00082Y-00031*
X00094Y-00034*
X00095*
Y00005*
G37*
%LNesp32-hwe-3*%
%LPD*%
G54D13*
X00705Y00659D02*
X00712D01*
X00729Y00642D02*
X00731D01*
X00712Y00659D02*
X00729Y00642D01*
X00691Y00674D02*
X00705Y00659D01*
X0071Y00694D02*
X00755Y0065D01*
Y0062D02*
Y0065D01*
X00821Y006D02*
X00831Y0061D01*
X0073Y006D02*
X00821D01*
X00831Y0061D02*
X0092D01*
X00665Y00745D02*
X00671Y0075D01*
X0071Y00694D02*
Y00751D01*
X00699Y00762D02*
X0071Y00751D01*
X00671D02*
X00682Y00762D01*
X00671Y0075D02*
Y00751D01*
X00565Y00745D02*
X0066D01*
X00665D01*
X00682Y00762D02*
X00699D01*
X00565Y00745D02*
Y00776D01*
X01185Y00975D02*
X0131Y0085D01*
X0085Y00975D02*
X01185D01*
X0092Y0077D02*
X0128D01*
X0072Y0097D02*
X0092Y0077D01*
X005Y011D02*
X0063Y0097D01*
X0072*
X0087Y0063D02*
X0093D01*
X01025Y00535D02*
X01565D01*
X0093Y0063D02*
X01025Y00535D01*
X01565D02*
X0179Y0031D01*
X0092Y0061D02*
X0101Y0052D01*
X0153D02*
X0174Y0031D01*
X0101Y0052D02*
X0153D01*
X00691Y00674D02*
Y00743D01*
X00565Y00776D02*
X00693Y00904D01*
X00816Y00554D02*
X00817Y00554D01*
X00526Y00555D02*
X00526Y00554D01*
X00816*
X0081Y0109D02*
X00845D01*
X009Y01035D02*
X013D01*
X00845Y0109D02*
X009Y01035D01*
X0071Y0109D02*
X00745D01*
X007Y011D02*
X0071Y0109D01*
X00745D02*
X0078Y01054D01*
X00859*
X00893Y0102*
X0128*
X0129Y00904D02*
Y0101D01*
X0128Y0102D02*
X0129Y0101D01*
X008Y011D02*
X0081Y0109D01*
X013Y01035D02*
X0134Y00995D01*
Y00905D02*
Y00995D01*
X00915Y011D02*
X00965Y0105D01*
X009Y011D02*
X00915D01*
X00965Y0105D02*
X01345D01*
X0139Y01005*
Y00904D02*
Y01005D01*
X0051Y0021D02*
X01155D01*
X004Y001D02*
X0051Y0021D01*
X0118Y00235D02*
Y0041D01*
X01155Y0021D02*
X0118Y00235D01*
X005Y001D02*
X00595Y00195D01*
X01205*
X0123Y0022D02*
Y00325D01*
X01205Y00195D02*
X0123Y0022D01*
X01285Y0015D02*
X0139Y00255D01*
Y00295*
X00885Y0015D02*
X01285D01*
X01275Y00165D02*
X0134Y0023D01*
X00765Y00165D02*
X01275D01*
X0134Y0023D02*
Y00295D01*
X0068Y0018D02*
X01265D01*
X0129Y00205D02*
Y00295D01*
X01265Y0018D02*
X0129Y00205D01*
X006Y001D02*
X0068Y0018D01*
X007Y001D02*
X00765Y00165D01*
X00811Y00111D02*
X00846D01*
X008Y001D02*
X00811Y00111D01*
X00846D02*
X00885Y0015D01*
X0028Y00639D02*
Y00639D01*
X0031Y0061D02*
Y0061D01*
X0028Y00639D02*
X0031Y0061D01*
G54D59*
X0189Y0063D02*
Y0089D01*
X01835Y00575D02*
X0189Y0063D01*
X01095Y00575D02*
X01835D01*
G54D61*
X0046Y0034D02*
X0047Y0033D01*
X0046Y0034D02*
X0046D01*
X0047Y0033D02*
X0111D01*
G54D63*
X007Y0095D02*
X00837Y00812D01*
X00425Y0095D02*
X007D01*
G54D65*
X002Y00496D03*
Y00724D03*
G54D66*
X001Y001D03*
X002D03*
X003D03*
X004D03*
X005D03*
X006D03*
X007D03*
X008D03*
X009D03*
X01D03*
X011D03*
X012D03*
X013D03*
X014D03*
X015D03*
X016D03*
X017D03*
X018D03*
X019D03*
X001Y0001D03*
X002D03*
X003D03*
X004D03*
X005D03*
X006D03*
X007D03*
X008D03*
X009D03*
X01D03*
X011D03*
X012D03*
X013D03*
X014D03*
X015D03*
X016D03*
X017D03*
X018D03*
X019D03*
X001Y0119D03*
X002D03*
X003D03*
X004D03*
X005D03*
X006D03*
X007D03*
X008D03*
X009D03*
X01D03*
X011D03*
X012D03*
X013D03*
X014D03*
X015D03*
X016D03*
X017D03*
X018D03*
X019D03*
X001Y011D03*
X002D03*
X003D03*
X004D03*
X005D03*
X006D03*
X007D03*
X008D03*
X009D03*
X01D03*
X011D03*
X012D03*
X013D03*
X014D03*
X015D03*
X016D03*
X017D03*
X018D03*
X019D03*
G54D67*
X00731Y00642D03*
X00755Y0062D03*
X0073Y006D03*
X0129Y00295D03*
X0131Y0085D03*
X0046Y0034D03*
X0111Y0033D03*
X0128Y0077D03*
X0087Y0063D03*
X0174Y0031D03*
X0179D03*
X00691Y00743D03*
X00693Y00904D03*
X00817Y00554D03*
X00526Y00555D03*
X0129Y00904D03*
X0134Y00905D03*
X0139Y00904D03*
X0118Y0041D03*
X0123Y00325D03*
X00837Y00812D03*
X0189Y0089D03*
X01095Y00575D03*
X00565Y00745D03*
X0085Y00975D03*
X00425Y0095D03*
X0031Y0061D03*
X0028Y00639D03*
X0134Y00295D03*
X0139D03*
G54D68*
X00602Y00629D03*
M02*