%FSTAX23Y23*%
%MOIN*%
%SFA1B1*%

%IPPOS*%
%ADD9500C,0.007870*%
%ADD9501C,0.028000*%
%ADD9502C,0.039370*%
%ADD9503C,0.025590*%
%LNesp32-hwe-1*%
%LPD*%
G54D9500*
X0046Y0034D03*
X00526Y00555D03*
X00817Y00554D03*
X01095Y00575D03*
X0118Y0041D03*
X0123Y00325D03*
X0129Y00295D03*
X0134D03*
X0139D03*
X0111Y0033D03*
X0174Y0031D03*
X0179D03*
X0189Y0089D03*
X0139Y00904D03*
X0134Y00905D03*
X0129Y00904D03*
X0131Y0085D03*
X0128Y0077D03*
X00837Y00812D03*
X0085Y00975D03*
X00693Y00904D03*
X00691Y00743D03*
X00731Y00642D03*
X0073Y006D03*
X00755Y0062D03*
X0087Y0063D03*
X00565Y00745D03*
X00425Y0095D03*
X0028Y00639D03*
X0031Y0061D03*
G54D9501*
X00602Y00629D03*
G54D9502*
X001Y0001D03*
Y001D03*
X002D03*
Y0001D03*
X003D03*
Y001D03*
X004D03*
Y0001D03*
X005D03*
Y001D03*
X006D03*
Y0001D03*
X007D03*
Y001D03*
X008D03*
Y0001D03*
X009D03*
Y001D03*
X01D03*
Y0001D03*
X011D03*
Y001D03*
X012D03*
Y0001D03*
X013D03*
Y001D03*
X014D03*
Y0001D03*
X015D03*
Y001D03*
X016D03*
Y0001D03*
X017D03*
Y001D03*
X018D03*
Y0001D03*
X019D03*
Y001D03*
Y011D03*
Y0119D03*
X018D03*
Y011D03*
X017D03*
Y0119D03*
X016D03*
Y011D03*
X015D03*
Y0119D03*
X014D03*
Y011D03*
X013D03*
Y0119D03*
X012D03*
Y011D03*
X011D03*
Y0119D03*
X01D03*
Y011D03*
X009D03*
Y0119D03*
X008D03*
Y011D03*
X007D03*
Y0119D03*
X006D03*
Y011D03*
X005D03*
Y0119D03*
X004D03*
Y011D03*
X003D03*
Y0119D03*
X002D03*
Y011D03*
X001D03*
Y0119D03*
G54D9503*
X002Y00496D03*
Y00724D03*
M02*