%FSTAX23Y23*%
%MOIN*%
%SFA1B1*%

%IPPOS*%
%ADD35R,0.019810X0.041470*%
%ADD36R,0.041470X0.019810*%
%ADD37R,0.088710X0.088710*%
%ADD38R,0.048160X0.065870*%
%ADD39R,0.045010X0.064300*%
%ADD40R,0.029650X0.029650*%
%ADD41R,0.065090X0.045400*%
%ADD42R,0.059180X0.039500*%
%ADD43R,0.065870X0.048160*%
%ADD44R,0.049340X0.031620*%
%ADD45R,0.086740X0.093830*%
%ADD46R,0.053280X0.019810*%
%ADD47R,0.047370X0.063120*%
%ADD48R,0.133980X0.078870*%
%ADD49R,0.043430X0.078870*%
%ADD50R,0.043430X0.067060*%
%ADD51R,0.067060X0.043430*%
%ADD52R,0.063120X0.047370*%
%ADD53R,0.063120X0.043430*%
%ADD54C,0.020800*%
%ADD55C,0.076900*%
%ADD56C,0.025680*%
%ADD57C,0.027690*%
%ADD58C,0.058000*%
%LNesp32-hwe-1*%
%LPD*%
G54D35*
X00642Y00706D03*
X00622D03*
X00603D03*
X00583D03*
X00563D03*
Y00552D03*
X00583D03*
X00603D03*
X00622D03*
X00642D03*
G54D36*
X00526Y00668D03*
Y00649D03*
Y00629D03*
Y00609D03*
Y0059D03*
X0068D03*
Y00609D03*
Y00629D03*
Y00649D03*
Y00668D03*
G54D37*
X00603Y00629D03*
G54D38*
X01013Y00993D03*
X0095D03*
X01073Y00825D03*
X01136D03*
X00941Y0028D03*
X00878D03*
G54D39*
X01007Y00825D03*
X00942D03*
X01107Y00375D03*
X01042D03*
X00942Y0036D03*
X00877D03*
X01072Y0091D03*
X01137D03*
G54D40*
X00144Y0021D03*
Y00239D03*
X00248D03*
Y0021D03*
Y0096D03*
Y00989D03*
X00144D03*
Y0096D03*
G54D41*
X00625Y00286D03*
Y00207D03*
X0075Y00286D03*
Y00207D03*
G54D42*
X00508Y0045D03*
X00375D03*
G54D43*
X00375Y00243D03*
Y00306D03*
Y00956D03*
Y00893D03*
G54D44*
X00691Y0085D03*
Y00775D03*
X00778Y00812D03*
X00691Y01025D03*
Y0095D03*
X00778Y00987D03*
G54D45*
X0022Y00409D03*
Y00811D03*
X00065Y00409D03*
Y00811D03*
G54D46*
X00243Y0073D03*
Y00698D03*
Y00679D03*
Y00639D03*
Y0058D03*
Y00541D03*
Y00521D03*
Y0049D03*
Y00478D03*
Y00509D03*
Y00561D03*
Y006D03*
Y0062D03*
Y00659D03*
Y0071D03*
Y00742D03*
G54D47*
X00437Y0066D03*
X00362D03*
X00437Y0059D03*
X00362D03*
X01012Y00908D03*
X00937D03*
X00362Y0052D03*
X00437D03*
Y0073D03*
X00362D03*
G54D48*
X0104Y00711D03*
G54D49*
X01131Y00475D03*
X0104D03*
X0095D03*
G54D50*
X01289Y00945D03*
X01338D03*
X01389D03*
X01439D03*
X01489D03*
X01537D03*
X01587D03*
X01637Y00944D03*
X01687Y00945D03*
X01737D03*
X01787D03*
X01838D03*
X01888D03*
X01938D03*
X01289Y00234D03*
X01338Y00235D03*
X01389D03*
X01439Y00236D03*
X0149D03*
X01538D03*
X01588D03*
X01638Y00236D03*
X01688Y00236D03*
X01738D03*
X01788D03*
X01839D03*
X01889D03*
X01939D03*
G54D51*
X0123Y00815D03*
Y00768D03*
Y00718D03*
X0123Y00668D03*
X0123Y00619D03*
Y0057D03*
Y0052D03*
Y0047D03*
Y00422D03*
Y00371D03*
G54D52*
X00611Y00862D03*
Y00937D03*
X00525D03*
Y00862D03*
G54D53*
X00625Y00362D03*
Y00437D03*
X0075Y00362D03*
Y00437D03*
G54D54*
X002Y00496D03*
Y00724D03*
G54D55*
X001Y001D03*
X002D03*
X003D03*
X004D03*
X005D03*
X006D03*
X007D03*
X008D03*
X009D03*
X01D03*
X011D03*
X012D03*
X013D03*
X014D03*
X015D03*
X016D03*
X017D03*
X018D03*
X019D03*
X001Y0001D03*
X002D03*
X003D03*
X004D03*
X005D03*
X006D03*
X007D03*
X008D03*
X009D03*
X01D03*
X011D03*
X012D03*
X013D03*
X014D03*
X015D03*
X016D03*
X017D03*
X018D03*
X019D03*
X001Y0119D03*
X002D03*
X003D03*
X004D03*
X005D03*
X006D03*
X007D03*
X008D03*
X009D03*
X01D03*
X011D03*
X012D03*
X013D03*
X014D03*
X015D03*
X016D03*
X017D03*
X018D03*
X019D03*
X001Y011D03*
X002D03*
X003D03*
X004D03*
X005D03*
X006D03*
X007D03*
X008D03*
X009D03*
X01D03*
X011D03*
X012D03*
X013D03*
X014D03*
X015D03*
X016D03*
X017D03*
X018D03*
X019D03*
G54D56*
X00731Y00642D03*
G54D57*
X00755Y0062D03*
X0073Y006D03*
X0129Y00295D03*
X0131Y0085D03*
X0046Y0034D03*
X0111Y0033D03*
X0128Y0077D03*
X0087Y0063D03*
X0174Y0031D03*
X0179D03*
X00691Y00743D03*
X00693Y00904D03*
X00817Y00554D03*
X00526Y00555D03*
X0129Y00904D03*
X0134Y00905D03*
X0139Y00904D03*
X0118Y0041D03*
X0123Y00325D03*
X00837Y00812D03*
X0189Y0089D03*
X01095Y00575D03*
X00565Y00745D03*
X0085Y00975D03*
X00425Y0095D03*
X0031Y0061D03*
X0028Y00639D03*
X0134Y00295D03*
X0139D03*
G54D58*
X00602Y00629D03*
M02*