%FSTAX23Y23*%
%MOIN*%
%SFA1B1*%

%IPPOS*%
%ADD16R,0.011810X0.033470*%
%ADD17R,0.033470X0.011810*%
%ADD18R,0.080710X0.080710*%
%ADD19R,0.040160X0.057870*%
%ADD20R,0.037010X0.056300*%
%ADD21R,0.021650X0.021650*%
%ADD22R,0.057090X0.037400*%
%ADD23R,0.051180X0.031500*%
%ADD24R,0.057870X0.040160*%
%ADD25R,0.041340X0.023620*%
%ADD26R,0.078740X0.085830*%
%ADD27R,0.045280X0.011810*%
%ADD28R,0.039370X0.055120*%
%ADD29R,0.125980X0.070870*%
%ADD30R,0.035430X0.070870*%
%ADD31R,0.035430X0.059060*%
%ADD32R,0.059060X0.035430*%
%ADD33R,0.055120X0.039370*%
%ADD34R,0.055120X0.035430*%
%LNesp32-hwe-1*%
%LPD*%
G54D16*
X00642Y00706D03*
X00622D03*
X00603D03*
X00583D03*
X00563D03*
Y00552D03*
X00583D03*
X00603D03*
X00622D03*
X00642D03*
G54D17*
X00526Y00668D03*
Y00649D03*
Y00629D03*
Y00609D03*
Y0059D03*
X0068D03*
Y00609D03*
Y00629D03*
Y00649D03*
Y00668D03*
G54D18*
X00603Y00629D03*
G54D19*
X01013Y00993D03*
X0095D03*
X01073Y00825D03*
X01136D03*
X00941Y0028D03*
X00878D03*
G54D20*
X01007Y00825D03*
X00942D03*
X01107Y00375D03*
X01042D03*
X00942Y0036D03*
X00877D03*
X01072Y0091D03*
X01137D03*
G54D21*
X00144Y0021D03*
Y00239D03*
X00248D03*
Y0021D03*
Y0096D03*
Y00989D03*
X00144D03*
Y0096D03*
G54D22*
X00625Y00286D03*
Y00207D03*
X0075Y00286D03*
Y00207D03*
G54D23*
X00508Y0045D03*
X00375D03*
G54D24*
X00375Y00243D03*
Y00306D03*
Y00956D03*
Y00893D03*
G54D25*
X00691Y0085D03*
Y00775D03*
X00778Y00812D03*
X00691Y01025D03*
Y0095D03*
X00778Y00987D03*
G54D26*
X0022Y00409D03*
Y00811D03*
X00065Y00409D03*
Y00811D03*
G54D27*
X00243Y0073D03*
Y00698D03*
Y00679D03*
Y00639D03*
Y0058D03*
Y00541D03*
Y00521D03*
Y0049D03*
Y00478D03*
Y00509D03*
Y00561D03*
Y006D03*
Y0062D03*
Y00659D03*
Y0071D03*
Y00742D03*
G54D28*
X00437Y0066D03*
X00362D03*
X00437Y0059D03*
X00362D03*
X01012Y00908D03*
X00937D03*
X00362Y0052D03*
X00437D03*
Y0073D03*
X00362D03*
G54D29*
X0104Y00711D03*
G54D30*
X01131Y00475D03*
X0104D03*
X0095D03*
G54D31*
X01289Y00945D03*
X01338D03*
X01389D03*
X01439D03*
X01489D03*
X01537D03*
X01587D03*
X01637Y00944D03*
X01687Y00945D03*
X01737D03*
X01787D03*
X01838D03*
X01888D03*
X01938D03*
X01289Y00234D03*
X01338Y00235D03*
X01389D03*
X01439Y00236D03*
X0149D03*
X01538D03*
X01588D03*
X01638Y00236D03*
X01688Y00236D03*
X01738D03*
X01788D03*
X01839D03*
X01889D03*
X01939D03*
G54D32*
X0123Y00815D03*
Y00768D03*
Y00718D03*
X0123Y00668D03*
X0123Y00619D03*
Y0057D03*
Y0052D03*
Y0047D03*
Y00422D03*
Y00371D03*
G54D33*
X00611Y00862D03*
Y00937D03*
X00525D03*
Y00862D03*
G54D34*
X00625Y00362D03*
Y00437D03*
X0075Y00362D03*
Y00437D03*
M02*