%FSTAX23Y23*%
%MOIN*%
%SFA1B1*%

%IPPOS*%
%ADD10C,0.009840*%
%ADD11C,0.007870*%
%ADD12C,0.003940*%
%ADD13C,0.010000*%
%ADD14C,0.007500*%
%ADD15C,0.005000*%
%LNesp32-hwe-1*%
%LPD*%
G54D10*
X00677Y00722D02*
X00669Y00727D01*
Y00718*
X00677Y00722*
G54D11*
X00275Y00205D02*
Y00213D01*
Y00205*
Y00963D02*
Y00955D01*
Y00963*
X00975Y00804D02*
Y00845D01*
X01075Y00354D02*
Y00395D01*
X00604Y00247D02*
X00645D01*
X00389Y00418D02*
X00534D01*
X00389Y00481D02*
X00494D01*
X0091Y00339D02*
Y0038D01*
X00726Y00869D02*
X00743D01*
Y00755D02*
Y00869D01*
X00726Y00755D02*
X00743D01*
X00726D02*
Y00869D01*
X00671Y00871D02*
X00712D01*
X004Y00639D02*
Y0068D01*
Y00569D02*
Y0061D01*
X00918Y00439D02*
Y0051D01*
X00912Y00524D02*
X01168D01*
Y00662*
X00912D02*
X01168D01*
X00912Y00524D02*
Y00662D01*
X00975Y00887D02*
Y00929D01*
X01105Y00889D02*
Y0093D01*
X00729Y00247D02*
X0077D01*
X00591Y009D02*
X00632D01*
X00504D02*
X00545D01*
X00726Y01044D02*
X00743D01*
Y0093D02*
Y01044D01*
X00726Y0093D02*
X00743D01*
X00726D02*
Y01044D01*
X00671Y01046D02*
X00712D01*
X004Y00499D02*
Y0054D01*
Y00709D02*
Y0075D01*
X00583Y00362D02*
Y00468D01*
X00666*
Y00362D02*
Y00468D01*
X00708Y00362D02*
Y00468D01*
X00791*
Y00362D02*
Y00468D01*
G54D12*
X00144Y00256D02*
X00248D01*
X00145Y00193D02*
X00247D01*
X00145Y00943D02*
X00247D01*
X00144Y01006D02*
X00248D01*
X00127Y00434D02*
X00167D01*
X00127D02*
X00167D01*
X00127Y00786D02*
X00157D01*
X00127D02*
Y00787D01*
X00157*
Y00786D02*
Y00787D01*
G54D13*
X0128Y00285D02*
X0196D01*
Y00895*
X0128D02*
X0196D01*
X0128Y00285D02*
Y00895D01*
X01669Y00649D02*
Y00629D01*
Y00639*
X0161*
Y00649*
Y00629*
X01659Y0056D02*
X01669Y0057D01*
Y0059*
X01659Y006*
X0162*
X0161Y0059*
Y0057*
X0162Y0056*
X0161Y0054D02*
Y0052D01*
Y0053*
X01669*
X01659Y0054*
G54D14*
X01387Y00822D02*
X01372D01*
X01379*
Y00785*
X01372Y00777*
X01365*
X01357Y00785*
X01402Y00822D02*
Y00777D01*
X01432*
X01477Y00814D02*
X01469Y00822D01*
X01454*
X01447Y00814*
Y00785*
X01454Y00777*
X01469*
X01477Y00785*
X01522Y00822D02*
X01507D01*
X01514*
Y00785*
X01507Y00777*
X01499*
X01492Y00785*
X01537Y00822D02*
Y00777D01*
X01567*
X01612Y00814D02*
X01604Y00822D01*
X01589*
X01582Y00814*
Y00785*
X01589Y00777*
X01604*
X01612Y00785*
X01657Y00822D02*
X01642D01*
X01649*
Y00785*
X01642Y00777*
X01634*
X01627Y00785*
X01672Y00822D02*
Y00777D01*
X01702*
X01747Y00814D02*
X01739Y00822D01*
X01724*
X01717Y00814*
Y00785*
X01724Y00777*
X01739*
X01747Y00785*
X01792Y00822D02*
X01777D01*
X01784*
Y00785*
X01777Y00777*
X01769*
X01762Y00785*
X01807Y00822D02*
Y00777D01*
X01837*
X01882Y00814D02*
X01874Y00822D01*
X01859*
X01852Y00814*
Y00785*
X01859Y00777*
X01874*
X01882Y00785*
G54D15*
X00285Y00575D02*
Y00605D01*
X003*
X00305Y006*
Y0059*
X003Y00585*
X00285*
X00295D02*
X00305Y00575D01*
X00334D02*
X00315D01*
X00334Y00595*
Y006*
X00329Y00605*
X0032*
X00315Y006*
X0029Y00645D02*
Y00675D01*
X00305*
X0031Y0067*
Y0066*
X00305Y00655*
X0029*
X003D02*
X0031Y00645D01*
X0032D02*
X00329D01*
X00325*
Y00675*
X0032Y0067*
X00587Y00764D02*
X00597D01*
X00592*
Y00735*
X00587*
X00597*
X00632Y0076D02*
X00627Y00764D01*
X00617*
X00612Y0076*
Y0074*
X00617Y00735*
X00627*
X00632Y0074*
X00642Y0076D02*
X00647Y00764D01*
X00657*
X00662Y0076*
Y00755*
X00657Y0075*
X00652*
X00657*
X00662Y00745*
Y0074*
X00657Y00735*
X00647*
X00642Y0074*
X0088Y00835D02*
X00875Y0084D01*
X00865*
X0086Y00835*
Y00815*
X00865Y0081*
X00875*
X0088Y00815*
X00909Y0084D02*
X0089D01*
Y00825*
X009Y0083*
X00904*
X00909Y00825*
Y00815*
X00904Y0081*
X00895*
X0089Y00815*
Y01005D02*
X00885Y01009D01*
X00875*
X0087Y01005*
Y00985*
X00875Y0098*
X00885*
X0089Y00985*
X00914Y0098D02*
Y01009D01*
X009Y00995*
X00919*
X006Y0015D02*
Y0018D01*
X00615*
X0062Y00175*
Y00165*
X00615Y0016*
X006*
X0061D02*
X0062Y0015D01*
X0063Y00155D02*
X00635Y0015D01*
X00644*
X00649Y00155*
Y00175*
X00644Y0018*
X00635*
X0063Y00175*
Y0017*
X00635Y00165*
X00649*
X0012Y00624D02*
X0011D01*
X00115*
Y006*
X0011Y00595*
X00105*
X001Y006*
X0013Y00595D02*
X00139D01*
X00134*
Y00624*
X0013Y0062*
X0019Y00985D02*
X00185Y0099D01*
X00175*
X0017Y00985*
Y0098*
X00175Y00975*
X00185*
X0019Y0097*
Y00965*
X00185Y0096*
X00175*
X0017Y00965*
X00219Y0096D02*
X002D01*
X00219Y0098*
Y00985*
X00214Y0099*
X00205*
X002Y00985*
Y00235D02*
X00195Y0024D01*
X00185*
X0018Y00235*
Y0023*
X00185Y00225*
X00195*
X002Y0022*
Y00215*
X00195Y0021*
X00185*
X0018Y00215*
X0021Y0021D02*
X00219D01*
X00214*
Y0024*
X0021Y00235*
X005Y0097D02*
Y00999D01*
X00515*
X0052Y00995*
Y00985*
X00515Y0098*
X005*
X0051D02*
X0052Y0097D01*
X0053Y00995D02*
X00535Y00999D01*
X00544*
X00549Y00995*
Y0099*
X00544Y00985*
X00549Y0098*
Y00975*
X00544Y0097*
X00535*
X0053Y00975*
Y0098*
X00535Y00985*
X0053Y0099*
Y00995*
X00535Y00985D02*
X00544D01*
X00586Y0097D02*
Y00999D01*
X00601*
X00606Y00995*
Y00985*
X00601Y0098*
X00586*
X00596D02*
X00606Y0097D01*
X00616Y00999D02*
X00636D01*
Y00995*
X00616Y00975*
Y0097*
X00725Y0015D02*
Y0018D01*
X0074*
X00745Y00175*
Y00165*
X0074Y0016*
X00725*
X00735D02*
X00745Y0015D01*
X00774Y0018D02*
X00764Y00175D01*
X00755Y00165*
Y00155*
X0076Y0015*
X00769*
X00774Y00155*
Y0016*
X00769Y00165*
X00755*
X00285Y00715D02*
Y00744D01*
X003*
X00305Y0074*
Y0073*
X003Y00725*
X00285*
X00295D02*
X00305Y00715D01*
X00315Y0074D02*
X0032Y00744D01*
X00329*
X00334Y0074*
Y00735*
X00329Y0073*
X00325*
X00329*
X00334Y00725*
Y0072*
X00329Y00715*
X0032*
X00315Y0072*
X00285Y00505D02*
Y00535D01*
X003*
X00305Y0053*
Y0052*
X003Y00515*
X00285*
X00295D02*
X00305Y00505D01*
X00334Y00535D02*
X00315D01*
Y0052*
X00325Y00525*
X00329*
X00334Y0052*
Y0051*
X00329Y00505*
X0032*
X00315Y0051*
X0086Y00895D02*
Y00925D01*
X00875*
X0088Y0092*
Y0091*
X00875Y00905*
X0086*
X0087D02*
X0088Y00895D01*
X00904D02*
Y00925D01*
X0089Y0091*
X00909*
X0078Y0102D02*
Y0104D01*
X00775Y01044*
X00765*
X0076Y0104*
Y0102*
X00765Y01015*
X00775*
X0077Y01025D02*
X0078Y01015D01*
X00775D02*
X0078Y0102D01*
X00809Y01015D02*
X0079D01*
X00809Y01035*
Y0104*
X00804Y01044*
X00795*
X0079Y0104*
X0078Y00845D02*
Y00865D01*
X00775Y00869*
X00765*
X0076Y00865*
Y00845*
X00765Y0084*
X00775*
X0077Y0085D02*
X0078Y0084D01*
X00775D02*
X0078Y00845D01*
X0079Y0084D02*
X00799D01*
X00795*
Y00869*
X0079Y00865*
X0057Y00509D02*
Y0048D01*
X0059*
X0062Y00509D02*
X006D01*
Y0048*
X0062*
X006Y00495D02*
X0061D01*
X0063Y00509D02*
Y0048D01*
X00644*
X00649Y00485*
Y00505*
X00644Y00509*
X0063*
X00679Y0048D02*
X00659D01*
X00679Y005*
Y00505*
X00674Y00509*
X00664*
X00659Y00505*
X007Y00509D02*
Y0048D01*
X0072*
X0075Y00509D02*
X0073D01*
Y0048*
X0075*
X0073Y00495D02*
X0074D01*
X0076Y00509D02*
Y0048D01*
X00774*
X00779Y00485*
Y00505*
X00774Y00509*
X0076*
X00789Y0048D02*
X00799D01*
X00794*
Y00509*
X00789Y00505*
X01003Y00608D02*
X01013D01*
X01008*
Y00578*
X01003*
X01013*
X01048Y00603D02*
X01043Y00608D01*
X01033*
X01028Y00603*
Y00583*
X01033Y00578*
X01043*
X01048Y00583*
X01078Y00578D02*
X01058D01*
X01078Y00598*
Y00603*
X01073Y00608*
X01063*
X01058Y00603*
X00421Y00464D02*
Y00435D01*
X00436*
X00441Y0044*
Y0046*
X00436Y00464*
X00421*
X00451Y00435D02*
X00461D01*
X00456*
Y00464*
X00451Y0046*
X00905Y00425D02*
X009Y0043D01*
X0089*
X00885Y00425*
Y00405*
X0089Y004*
X009*
X00905Y00405*
X00915D02*
X0092Y004D01*
X00929*
X00934Y00405*
Y00425*
X00929Y0043*
X0092*
X00915Y00425*
Y0042*
X0092Y00415*
X00934*
X00905Y00236D02*
X009Y00241D01*
X0089*
X00885Y00236*
Y00216*
X0089Y00211*
X009*
X00905Y00216*
X00915Y00236D02*
X0092Y00241D01*
X00929*
X00934Y00236*
Y00231*
X00929Y00226*
X00934Y00221*
Y00216*
X00929Y00211*
X0092*
X00915Y00216*
Y00221*
X0092Y00226*
X00915Y00231*
Y00236*
X0092Y00226D02*
X00929D01*
X0037Y0102D02*
X00365Y01024D01*
X00355*
X0035Y0102*
Y01*
X00355Y00995*
X00365*
X0037Y01*
X0038Y01024D02*
X00399D01*
Y0102*
X0038Y01*
Y00995*
X0037Y002D02*
X00365Y00205D01*
X00355*
X0035Y002*
Y0018*
X00355Y00175*
X00365*
X0037Y0018*
X00399Y00205D02*
X0039Y002D01*
X0038Y0019*
Y0018*
X00385Y00175*
X00394*
X00399Y0018*
Y00185*
X00394Y0019*
X0038*
X011Y0078D02*
X01095Y00785D01*
X01085*
X0108Y0078*
Y0076*
X01085Y00755*
X01095*
X011Y0076*
X0111Y0078D02*
X01115Y00785D01*
X01124*
X01129Y0078*
Y00775*
X01124Y0077*
X01119*
X01124*
X01129Y00765*
Y0076*
X01124Y00755*
X01115*
X0111Y0076*
X011Y00975D02*
X01095Y0098D01*
X01085*
X0108Y00975*
Y00955*
X01085Y0095*
X01095*
X011Y00955*
X01129Y0095D02*
X0111D01*
X01129Y0097*
Y00975*
X01124Y0098*
X01115*
X0111Y00975*
X01075Y0033D02*
X0107Y00335D01*
X0106*
X01055Y0033*
Y0031*
X0106Y00305*
X0107*
X01075Y0031*
X01085Y00305D02*
X01094D01*
X0109*
Y00335*
X01085Y0033*
M02*