%FSLAX66Y66*%
%MOIN*%
%SFA1B1*%

%IPPOS*%
%ADD9507C,0.025600*%
%LNesp32-hwe-uno-slotholes-1*%
%LPD*%
G54D9507*
X1250000Y398000D02*
Y439300D01*
X1350000Y398000D02*
Y439300D01*
X1450000Y398000D02*
Y439300D01*
X1550000Y398000D02*
Y439300D01*
X1650000Y398000D02*
Y439300D01*
X1750000Y398000D02*
Y439300D01*
X1850000Y398000D02*
Y439300D01*
X1950000Y398000D02*
Y439300D01*
X2050000Y398000D02*
Y439300D01*
X2150000Y398000D02*
Y439300D01*
X2250000Y398000D02*
Y439300D01*
X2350000Y398000D02*
Y439300D01*
X2450000Y398000D02*
Y439300D01*
X1150000Y398000D02*
Y439300D01*
X1050000Y398000D02*
Y439300D01*
X950000Y398000D02*
Y439300D01*
X850000Y398000D02*
Y439300D01*
X750000Y398000D02*
Y439300D01*
X650000Y398000D02*
Y439300D01*
Y1595500D02*
Y1554100D01*
X750000Y1595500D02*
Y1554100D01*
X850000Y1595500D02*
Y1554100D01*
X950000Y1595500D02*
Y1554100D01*
X1050000Y1595500D02*
Y1554100D01*
X1150000Y1595500D02*
Y1554100D01*
X1250000Y1595500D02*
Y1554100D01*
X1350000Y1595500D02*
Y1554100D01*
X1450000Y1595500D02*
Y1554100D01*
X1550000Y1595500D02*
Y1554100D01*
X1650000Y1595500D02*
Y1554100D01*
X1750000Y1595500D02*
Y1554100D01*
X1850000Y1595500D02*
Y1554100D01*
X1950000Y1595500D02*
Y1554100D01*
X2050000Y1595500D02*
Y1554100D01*
X2150000Y1595500D02*
Y1554100D01*
X2250000Y1595500D02*
Y1554100D01*
X2350000Y1595500D02*
Y1554100D01*
X2450000Y1595500D02*
Y1554100D01*
M02*