%FSLAX66Y66*%
%MOIN*%
%SFA1B1*%

%IPPOS*%
%ADD12C,0.010000*%
%ADD20C,0.025000*%
%ADD21C,0.078740*%
%ADD22O,0.037400X0.078740*%
%ADD23R,0.035430X0.059060*%
%ADD24C,0.056340*%
%ADD25C,0.135830*%
%ADD26C,0.177170*%
%ADD27C,0.050000*%
%LNesp32-hwe-uno-1*%
%LPD*%
G36*
X2600000Y2040000D02*
Y1590000D01*
X2700000Y1490000*
Y200000*
X2600000Y100000*
Y0*
X0*
Y2100000*
X2540000*
X2600000Y2040000*
G37*
%LNesp32-hwe-uno-2*%
%LPC*%
G36*
X1046500Y2049370D02*
X1045000D01*
Y2005000*
X1089370*
Y2006500*
X1086010Y2019060*
X1079510Y2030310*
X1070310Y2039510*
X1059060Y2046010*
X1046500Y2049370*
G37*
G36*
X1035000D02*
X1033500D01*
X1020940Y2046010*
X1009690Y2039510*
X1000490Y2030310*
X993990Y2019060*
X990630Y2006500*
Y2005000*
X1035000*
Y2049370*
G37*
G36*
X1905840Y2044370D02*
X1894160D01*
X1882870Y2041350*
X1872760Y2035510*
X1864500Y2027240*
X1858650Y2017130*
X1855630Y2005840*
Y1994160*
X1858650Y1982870*
X1864500Y1972760*
X1872760Y1964490*
X1882870Y1958650*
X1894160Y1955630*
X1905840*
X1917130Y1958650*
X1927240Y1964490*
X1935510Y1972760*
X1941350Y1982870*
X1944370Y1994160*
Y2005840*
X1941350Y2017130*
X1935510Y2027240*
X1927240Y2035510*
X1917130Y2041350*
X1905840Y2044370*
G37*
G36*
X1805840D02*
X1794160D01*
X1782870Y2041350*
X1772760Y2035510*
X1764500Y2027240*
X1758650Y2017130*
X1755630Y2005840*
Y1994160*
X1758650Y1982870*
X1764500Y1972760*
X1772760Y1964490*
X1782870Y1958650*
X1794160Y1955630*
X1805840*
X1817130Y1958650*
X1827240Y1964490*
X1835510Y1972760*
X1841350Y1982870*
X1844370Y1994160*
Y2005840*
X1841350Y2017130*
X1835510Y2027240*
X1827240Y2035510*
X1817130Y2041350*
X1805840Y2044370*
G37*
G36*
X1445840D02*
X1434160D01*
X1422870Y2041350*
X1412760Y2035510*
X1404500Y2027240*
X1398650Y2017130*
X1395630Y2005840*
Y1994160*
X1398650Y1982870*
X1404500Y1972760*
X1412760Y1964490*
X1422870Y1958650*
X1434160Y1955630*
X1445840*
X1457130Y1958650*
X1467240Y1964490*
X1475500Y1972760*
X1481350Y1982870*
X1484370Y1994160*
Y2005840*
X1481350Y2017130*
X1475500Y2027240*
X1467240Y2035510*
X1457130Y2041350*
X1445840Y2044370*
G37*
G36*
X1345840D02*
X1334160D01*
X1322870Y2041350*
X1312760Y2035510*
X1304490Y2027240*
X1298650Y2017130*
X1295630Y2005840*
Y1994160*
X1298650Y1982870*
X1304490Y1972760*
X1312760Y1964490*
X1322870Y1958650*
X1334160Y1955630*
X1345840*
X1357130Y1958650*
X1367240Y1964490*
X1375500Y1972760*
X1381350Y1982870*
X1384370Y1994160*
Y2005840*
X1381350Y2017130*
X1375500Y2027240*
X1367240Y2035510*
X1357130Y2041350*
X1345840Y2044370*
G37*
G36*
X1145840D02*
X1134160D01*
X1122870Y2041350*
X1112760Y2035510*
X1104500Y2027240*
X1098650Y2017130*
X1095630Y2005840*
Y1994160*
X1098650Y1982870*
X1104500Y1972760*
X1112760Y1964490*
X1122870Y1958650*
X1134160Y1955630*
X1145840*
X1157130Y1958650*
X1167240Y1964490*
X1175510Y1972760*
X1181350Y1982870*
X1184370Y1994160*
Y2005840*
X1181350Y2017130*
X1175510Y2027240*
X1167240Y2035510*
X1157130Y2041350*
X1145840Y2044370*
G37*
G36*
X1089370Y1995000D02*
X1045000D01*
Y1950630*
X1046500*
X1059060Y1953990*
X1070310Y1960490*
X1079510Y1969690*
X1086010Y1980940*
X1089370Y1993500*
Y1995000*
G37*
G36*
X1035000D02*
X990630D01*
Y1993500*
X993990Y1980940*
X1000490Y1969690*
X1009690Y1960490*
X1020940Y1953990*
X1033500Y1950630*
X1035000*
Y1995000*
G37*
G36*
X606650Y2067500D02*
X593350D01*
X580310Y2064910*
X568030Y2059820*
X556970Y2052430*
X547570Y2043030*
X540180Y2031970*
X535090Y2019690*
X532500Y2006650*
Y1993350*
X535090Y1980310*
X540180Y1968030*
X547570Y1956970*
X556970Y1947570*
X568030Y1940180*
X580310Y1935090*
X593350Y1932500*
X606650*
X619690Y1935090*
X631970Y1940180*
X643030Y1947570*
X652430Y1956970*
X659820Y1968030*
X664910Y1980310*
X667500Y1993350*
Y2006650*
X664910Y2019690*
X659820Y2031970*
X652430Y2043030*
X643030Y2052430*
X631970Y2059820*
X619690Y2064910*
X606650Y2067500*
G37*
G36*
X1245840Y2044370D02*
X1234160D01*
X1222870Y2041350*
X1212760Y2035510*
X1204490Y2027240*
X1198650Y2017130*
X1195630Y2005840*
Y1994160*
X1198650Y1982870*
X1204490Y1972760*
X1212760Y1964490*
X1217820Y1961570*
X1217940Y1961280*
X1218620Y1961000*
X1219070Y1960420*
X1221370Y1959090*
X1223210Y1957800*
X1224780Y1956470*
X1226090Y1955080*
X1227160Y1953640*
X1228020Y1952140*
X1228690Y1950550*
X1229180Y1948850*
X1229210Y1948630*
X1205780Y1925200*
X989220*
X963810Y1950600*
X963950Y1951720*
X964420Y1954090*
X965070Y1956420*
X965920Y1958730*
X966970Y1961010*
X968220Y1963280*
X969680Y1965530*
X971350Y1967760*
X973340Y1970100*
X973560Y1970790*
X974100Y1971280*
Y1971350*
X975500Y1972760*
X981350Y1982870*
X984370Y1994160*
Y2005840*
X981350Y2017130*
X975500Y2027240*
X967240Y2035510*
X957130Y2041350*
X945840Y2044370*
X934160*
X922870Y2041350*
X912760Y2035510*
X904500Y2027240*
X898650Y2017130*
X895630Y2005840*
Y1994160*
X898650Y1982870*
X904500Y1972760*
X912760Y1964490*
X922870Y1958650*
X931480Y1956350*
X931600Y1956220*
X932060Y1956190*
X932410Y1956100*
X932860Y1955800*
X935300Y1955300*
X937170Y1954740*
X938670Y1954080*
X939850Y1953360*
X940750Y1952600*
X941430Y1951780*
X941960Y1950870*
X942360Y1949780*
X942630Y1948450*
X942750Y1946510*
X943210Y1945570*
X943730Y1942950*
X945940Y1939640*
X977790Y1907790*
X981100Y1905580*
X985000Y1904800*
X1210000*
X1213900Y1905580*
X1217210Y1907790*
X1247210Y1937790*
X1249420Y1941100*
X1249950Y1943770*
X1250400Y1944720*
X1250520Y1947000*
X1250820Y1948850*
X1251310Y1950550*
X1251980Y1952140*
X1252840Y1953640*
X1253910Y1955080*
X1255220Y1956470*
X1256790Y1957810*
X1258620Y1959090*
X1260930Y1960420*
X1261380Y1961000*
X1262060Y1961280*
X1262180Y1961570*
X1267240Y1964490*
X1275500Y1972760*
X1281350Y1982870*
X1284370Y1994160*
Y2005840*
X1281350Y2017130*
X1275500Y2027240*
X1267240Y2035510*
X1257130Y2041350*
X1245840Y2044370*
G37*
G36*
X272240Y1830710D02*
X269570D01*
Y1757790*
X342480*
Y1760470*
X339490Y1775520*
X333610Y1789700*
X325090Y1802460*
X314230Y1813320*
X301470Y1821840*
X287290Y1827720*
X272240Y1830710*
G37*
G36*
X259570D02*
X256890D01*
X241840Y1827720*
X227660Y1821840*
X214900Y1813320*
X204050Y1802460*
X195520Y1789700*
X189650Y1775520*
X186650Y1760470*
Y1757790*
X259570*
Y1830710*
G37*
G36*
X342480Y1747790D02*
X269570D01*
Y1674880*
X272240*
X287290Y1677880*
X301470Y1683750*
X314230Y1692280*
X325090Y1703130*
X333610Y1715890*
X339490Y1730070*
X342480Y1745120*
Y1747790*
G37*
G36*
X259570D02*
X186650D01*
Y1745120*
X189650Y1730070*
X195520Y1715890*
X204050Y1703130*
X214900Y1692280*
X227660Y1683750*
X241840Y1677880*
X256890Y1674880*
X259570*
Y1747790*
G37*
G36*
X672720Y1662480D02*
X627280D01*
Y1611940*
X623850Y1611190*
X620640Y1610760*
X612930Y1610220*
X608640Y1610150*
X608480Y1610090*
X575670*
X568840Y1608730*
X563050Y1604860*
X467390Y1509200*
X467230Y1509140*
X465230Y1507230*
X463360Y1505630*
X461540Y1504260*
X459770Y1503100*
X458060Y1502150*
X456410Y1501390*
X454820Y1500830*
X453290Y1500440*
X451800Y1500220*
X450050Y1500150*
X449180Y1499740*
X445630*
X437200Y1497480*
X429630Y1493120*
X423460Y1486940*
X419090Y1479380*
X416830Y1470940*
Y1462210*
X419090Y1453770*
X420010Y1452180*
X420040Y1451410*
X420650Y1450090*
X421150Y1448770*
X421580Y1447320*
X422380Y1443570*
X422660Y1441630*
X423190Y1434060*
X423220Y1431250*
X423290Y1431090*
Y492130*
X423240Y492030*
X422730Y485540*
X421320Y479820*
X418950Y474390*
X415600Y469180*
X411210Y464180*
X405730Y459390*
X399130Y454830*
X391400Y450520*
X382530Y446490*
X372380Y442690*
X371920Y442260*
X358430Y436670*
X343100Y426430*
X330070Y413400*
X319820Y398070*
X312770Y381040*
X309170Y362960*
Y344520*
X312770Y326440*
X319820Y309410*
X330070Y294080*
X343100Y281050*
X358430Y270810*
X375460Y263750*
X393540Y260160*
X411970*
X430050Y263750*
X447080Y270810*
X462410Y281050*
X470790Y289430*
X471560Y289720*
X473570Y291610*
X475670Y293130*
X478170Y294520*
X481100Y295780*
X484450Y296880*
X488240Y297790*
X492380Y298510*
X500540Y299230*
X647380Y152380*
X653170Y148520*
X660000Y147160*
X1085240*
X1085900Y142160*
X1082870Y141350*
X1072760Y135510*
X1064490Y127240*
X1058650Y117130*
X1055630Y105840*
Y94160*
X1058650Y82870*
X1064490Y72760*
X1072760Y64490*
X1082870Y58650*
X1094160Y55630*
X1105840*
X1117130Y58650*
X1127240Y64490*
X1135500Y72760*
X1141350Y82870*
X1144370Y94160*
Y105840*
X1141350Y117130*
X1135500Y127240*
X1127240Y135510*
X1117130Y141350*
X1114100Y142160*
X1114760Y147160*
X1152610*
X1154990Y144770*
X1155000Y144760*
X1155020Y144750*
X1155310Y144450*
X1155360Y144310*
X1157740Y141710*
X1159510Y139340*
X1160850Y137020*
X1161800Y134750*
X1162390Y132530*
X1162640Y130300*
X1162560Y128020*
X1162150Y125640*
X1161360Y123140*
X1160060Y120250*
X1160040Y119530*
X1158650Y117130*
X1155630Y105840*
Y94160*
X1158650Y82870*
X1164490Y72760*
X1172760Y64490*
X1182870Y58650*
X1194160Y55630*
X1205840*
X1217130Y58650*
X1227240Y64490*
X1235500Y72760*
X1241350Y82870*
X1244370Y94160*
Y105840*
X1241350Y117130*
X1235500Y127240*
X1227240Y135510*
X1219440Y140010*
X1218980Y140550*
X1211990Y144180*
X1208660Y146190*
X1201610Y151020*
X1198170Y153650*
X1187210Y163210*
X1183540Y166790*
X1183380Y166860*
X1172620Y177620*
X1166830Y181480*
X1160000Y182840*
X667390*
X520220Y330010*
X514430Y333880*
X508260Y335110*
X507840Y335300*
X504670Y335440*
X502240Y335800*
X500330Y336330*
X498930Y336980*
X497960Y337680*
X497280Y338440*
X496780Y339360*
X496400Y340590*
X496210Y342240*
X496290Y344270*
X496340Y344520*
Y362960*
X492740Y381040*
X490580Y386250*
X490620Y387120*
X490590Y387150*
Y387200*
X484550Y403160*
X463890Y461020*
X460150Y473660*
X459300Y477490*
X459010Y480010*
X458980Y480080*
Y1421430*
X459040Y1421580*
X459130Y1424340*
X459350Y1426670*
X459710Y1428730*
X460190Y1430520*
X460770Y1432020*
X461420Y1433280*
X462140Y1434300*
X462920Y1435140*
X463780Y1435830*
X465100Y1436590*
X465650Y1437310*
X470370Y1440030*
X476540Y1446210*
X480910Y1453770*
X483170Y1462210*
Y1465750*
X483570Y1466630*
X483650Y1468370*
X483870Y1469860*
X484250Y1471400*
X484820Y1472990*
X485570Y1474640*
X486520Y1476350*
X487680Y1478110*
X489060Y1479930*
X490650Y1481800*
X492560Y1483810*
X492620Y1483960*
X583060Y1574400*
X605650*
X605730Y1574360*
X605870Y1574400*
X605980*
X606130Y1574330*
X611220Y1574210*
X615500Y1573870*
X619070Y1573310*
X621900Y1572590*
X623950Y1571770*
X625200Y1570990*
X625800Y1570380*
X625840Y1570320*
Y1554130*
X627670Y1544890*
X632910Y1537050*
X640750Y1531810*
X650000Y1529970*
X659250Y1531810*
X667090Y1537050*
X672330Y1544890*
X674170Y1554130*
Y1595470*
X672720Y1602750*
Y1662480*
G37*
G36*
X454370Y1598170D02*
X445630D01*
X437200Y1595910*
X429630Y1591540*
X423460Y1585370*
X419090Y1577800*
X416830Y1569370*
Y1560630*
X419090Y1552200*
X423460Y1544630*
X429630Y1538460*
X437200Y1534090*
X445630Y1531830*
X454370*
X462800Y1534090*
X470370Y1538460*
X476540Y1544630*
X480910Y1552200*
X483170Y1560630*
Y1569370*
X480910Y1577800*
X476540Y1585370*
X470370Y1591540*
X462800Y1595910*
X454370Y1598170*
G37*
G36*
X375630D02*
X366890D01*
X358460Y1595910*
X350890Y1591540*
X344720Y1585370*
X340350Y1577800*
X338090Y1569370*
Y1560630*
X340350Y1552200*
X344720Y1544630*
X350890Y1538460*
X358460Y1534090*
X366890Y1531830*
X375630*
X384060Y1534090*
X391630Y1538460*
X397800Y1544630*
X402170Y1552200*
X404430Y1560630*
Y1569370*
X402170Y1577800*
X397800Y1585370*
X391630Y1591540*
X384060Y1595910*
X375630Y1598170*
G37*
G36*
X2472720Y1662480D02*
X2427280D01*
Y1602750*
X2425830Y1595470*
Y1554130*
X2427670Y1544890*
X2432910Y1537050*
X2440750Y1531810*
X2450000Y1529970*
X2459250Y1531810*
X2467090Y1537050*
X2472330Y1544890*
X2474160Y1554130*
Y1595470*
X2472720Y1602750*
Y1662480*
G37*
G36*
X2372720D02*
X2327280D01*
Y1602750*
X2325830Y1595470*
Y1554130*
X2327670Y1544890*
X2332910Y1537050*
X2340750Y1531810*
X2350000Y1529970*
X2359250Y1531810*
X2367090Y1537050*
X2372330Y1544890*
X2374170Y1554130*
Y1595470*
X2372720Y1602750*
Y1662480*
G37*
G36*
X2505840Y2044370D02*
X2494160D01*
X2482870Y2041350*
X2472760Y2035510*
X2464490Y2027240*
X2458650Y2017130*
X2455630Y2005840*
Y2000610*
X2455220Y1999630*
Y1999610*
X2455190Y1993680*
X2454610Y1983180*
X2454070Y1978780*
X2453370Y1974840*
X2452530Y1971410*
X2451560Y1968520*
X2450510Y1966180*
X2449410Y1964370*
X2448000Y1962700*
X2447880Y1962290*
X2195780Y1710200*
X1870000*
X1866100Y1709420*
X1862790Y1707210*
X1842790Y1687210*
X1840580Y1683900*
X1839800Y1680000*
Y1667980*
X1839590Y1667500*
X1839540Y1665740*
X1839430Y1664390*
X1839250Y1663340*
X1839060Y1662600*
X1839010Y1662480*
X1827280*
Y1602750*
X1825830Y1595470*
Y1554130*
X1827670Y1544890*
X1832910Y1537050*
X1840750Y1531810*
X1850000Y1529970*
X1859250Y1531810*
X1867090Y1537050*
X1872330Y1544890*
X1874170Y1554130*
Y1595470*
X1872720Y1602750*
Y1662480*
X1860990*
X1860940Y1662600*
X1860750Y1663340*
X1860570Y1664390*
X1860460Y1665740*
X1860410Y1667500*
X1860200Y1667980*
Y1675780*
X1874220Y1689800*
X2200000*
X2203900Y1690580*
X2207210Y1692790*
X2462290Y1947880*
X2462700Y1948000*
X2464370Y1949410*
X2466180Y1950510*
X2468520Y1951560*
X2471410Y1952530*
X2474840Y1953370*
X2478660Y1954050*
X2493740Y1955190*
X2499630Y1955220*
X2500610Y1955630*
X2505840*
X2517130Y1958650*
X2527240Y1964490*
X2535510Y1972760*
X2541350Y1982870*
X2544370Y1994160*
Y2005840*
X2541350Y2017130*
X2535510Y2027240*
X2527240Y2035510*
X2517130Y2041350*
X2505840Y2044370*
G37*
G36*
X2405840D02*
X2394160D01*
X2382870Y2041350*
X2372760Y2035510*
X2364500Y2027240*
X2358650Y2017130*
X2355630Y2005840*
Y2000610*
X2355220Y1999630*
Y1999610*
X2355190Y1993680*
X2354610Y1983180*
X2354070Y1978780*
X2353370Y1974840*
X2352530Y1971410*
X2351560Y1968520*
X2350510Y1966180*
X2349410Y1964370*
X2348000Y1962700*
X2347880Y1962290*
X2130780Y1745200*
X1795000*
X1791100Y1744420*
X1787790Y1742210*
X1742790Y1697210*
X1740580Y1693900*
X1739800Y1690000*
Y1667980*
X1739590Y1667500*
X1739540Y1665740*
X1739430Y1664390*
X1739250Y1663340*
X1739060Y1662600*
X1739010Y1662480*
X1727280*
Y1602750*
X1725830Y1595470*
Y1554130*
X1727670Y1544890*
X1732910Y1537050*
X1740750Y1531810*
X1750000Y1529970*
X1759250Y1531810*
X1767090Y1537050*
X1772330Y1544890*
X1774170Y1554130*
Y1595470*
X1772720Y1602750*
Y1662480*
X1760990*
X1760940Y1662600*
X1760750Y1663340*
X1760570Y1664390*
X1760460Y1665740*
X1760410Y1667500*
X1760200Y1667980*
Y1685780*
X1799220Y1724800*
X2135000*
X2138900Y1725580*
X2142210Y1727790*
X2362290Y1947880*
X2362700Y1948000*
X2364370Y1949410*
X2366180Y1950510*
X2368520Y1951560*
X2371410Y1952530*
X2374840Y1953370*
X2378660Y1954050*
X2393730Y1955190*
X2399630Y1955220*
X2400610Y1955630*
X2405840*
X2417130Y1958650*
X2427240Y1964490*
X2435500Y1972760*
X2441350Y1982870*
X2444370Y1994160*
Y2005840*
X2441350Y2017130*
X2435500Y2027240*
X2427240Y2035510*
X2417130Y2041350*
X2405840Y2044370*
G37*
G36*
X2305840D02*
X2294160D01*
X2282870Y2041350*
X2272760Y2035510*
X2264490Y2027240*
X2258650Y2017130*
X2255630Y2005840*
Y2000610*
X2255220Y1999630*
Y1999610*
X2255190Y1993680*
X2254610Y1983180*
X2254070Y1978780*
X2253370Y1974840*
X2252530Y1971410*
X2251560Y1968520*
X2250500Y1966180*
X2249410Y1964370*
X2248000Y1962700*
X2247870Y1962290*
X2060780Y1775200*
X1725000*
X1721100Y1774420*
X1717790Y1772210*
X1642790Y1697210*
X1640580Y1693900*
X1639800Y1690000*
Y1667980*
X1639590Y1667500*
X1639540Y1665740*
X1639430Y1664390*
X1639250Y1663340*
X1639060Y1662600*
X1639010Y1662480*
X1627280*
Y1602750*
X1625830Y1595470*
Y1554130*
X1627670Y1544890*
X1632910Y1537050*
X1640750Y1531810*
X1650000Y1529970*
X1659250Y1531810*
X1667090Y1537050*
X1672330Y1544890*
X1674170Y1554130*
Y1595470*
X1672720Y1602750*
Y1662480*
X1660990*
X1660940Y1662600*
X1660750Y1663340*
X1660570Y1664390*
X1660460Y1665740*
X1660410Y1667500*
X1660200Y1667980*
Y1685780*
X1729220Y1754800*
X2065000*
X2068900Y1755580*
X2072210Y1757790*
X2262290Y1947880*
X2262700Y1948000*
X2264370Y1949410*
X2266180Y1950510*
X2268520Y1951560*
X2271410Y1952530*
X2274840Y1953370*
X2278660Y1954050*
X2293740Y1955190*
X2299630Y1955220*
X2300610Y1955630*
X2305840*
X2317130Y1958650*
X2327240Y1964490*
X2335510Y1972760*
X2341350Y1982870*
X2344370Y1994160*
Y2005840*
X2341350Y2017130*
X2335510Y2027240*
X2327240Y2035510*
X2317130Y2041350*
X2305840Y2044370*
G37*
G36*
X2205840D02*
X2194160D01*
X2182870Y2041350*
X2172760Y2035510*
X2164490Y2027240*
X2158650Y2017130*
X2155630Y2005840*
Y2000610*
X2155220Y1999630*
Y1999610*
X2155190Y1993680*
X2154610Y1983180*
X2154070Y1978780*
X2153370Y1974840*
X2152530Y1971410*
X2151560Y1968520*
X2150510Y1966180*
X2149410Y1964370*
X2148000Y1962700*
X2147880Y1962290*
X1990780Y1805200*
X1630000*
X1626100Y1804420*
X1622790Y1802210*
X1542790Y1722210*
X1540580Y1718900*
X1539800Y1715000*
Y1667980*
X1539590Y1667500*
X1539540Y1665740*
X1539430Y1664390*
X1539250Y1663340*
X1539060Y1662600*
X1539010Y1662480*
X1527280*
Y1602750*
X1525840Y1595470*
Y1554130*
X1527670Y1544890*
X1532910Y1537050*
X1540750Y1531810*
X1550000Y1529970*
X1559250Y1531810*
X1567090Y1537050*
X1572330Y1544890*
X1574160Y1554130*
Y1595470*
X1572720Y1602750*
Y1662480*
X1560990*
X1560940Y1662600*
X1560750Y1663340*
X1560570Y1664390*
X1560460Y1665740*
X1560410Y1667500*
X1560200Y1667980*
Y1710780*
X1634220Y1784800*
X1995000*
X1998900Y1785580*
X2002210Y1787790*
X2162290Y1947880*
X2162700Y1948000*
X2164370Y1949410*
X2166180Y1950510*
X2168520Y1951560*
X2171410Y1952530*
X2174840Y1953370*
X2178660Y1954050*
X2193730Y1955190*
X2199630Y1955220*
X2200610Y1955630*
X2205840*
X2217130Y1958650*
X2227240Y1964490*
X2235510Y1972760*
X2241350Y1982870*
X2244370Y1994160*
Y2005840*
X2241350Y2017130*
X2235510Y2027240*
X2227240Y2035510*
X2217130Y2041350*
X2205840Y2044370*
G37*
G36*
X2105840D02*
X2094160D01*
X2082870Y2041350*
X2072760Y2035510*
X2064500Y2027240*
X2058650Y2017130*
X2055630Y2005840*
Y2000610*
X2055220Y1999630*
Y1999610*
X2055190Y1993680*
X2054610Y1983180*
X2054070Y1978780*
X2053370Y1974840*
X2052530Y1971410*
X2051560Y1968520*
X2050500Y1966180*
X2049410Y1964370*
X2048000Y1962700*
X2047870Y1962290*
X1925780Y1840200*
X1560000*
X1556100Y1839420*
X1552790Y1837210*
X1442790Y1727210*
X1440580Y1723900*
X1439800Y1720000*
Y1667980*
X1439590Y1667500*
X1439540Y1665740*
X1439430Y1664390*
X1439250Y1663340*
X1439060Y1662600*
X1439010Y1662480*
X1427280*
Y1602750*
X1425840Y1595470*
Y1554130*
X1427670Y1544890*
X1432910Y1537050*
X1440750Y1531810*
X1450000Y1529970*
X1459250Y1531810*
X1467090Y1537050*
X1472330Y1544890*
X1474160Y1554130*
Y1595470*
X1472720Y1602750*
Y1662480*
X1460990*
X1460940Y1662600*
X1460750Y1663340*
X1460570Y1664390*
X1460460Y1665740*
X1460410Y1667500*
X1460200Y1667980*
Y1715780*
X1564220Y1819800*
X1930000*
X1933900Y1820580*
X1937210Y1822790*
X2062290Y1947880*
X2062700Y1948000*
X2064370Y1949410*
X2066180Y1950510*
X2068520Y1951560*
X2071410Y1952530*
X2074840Y1953370*
X2078660Y1954050*
X2093730Y1955190*
X2099630Y1955220*
X2100610Y1955630*
X2105840*
X2117130Y1958650*
X2127240Y1964490*
X2135500Y1972760*
X2141350Y1982870*
X2144370Y1994160*
Y2005840*
X2141350Y2017130*
X2135500Y2027240*
X2127240Y2035510*
X2117130Y2041350*
X2105840Y2044370*
G37*
G36*
X2005840D02*
X1994160D01*
X1982870Y2041350*
X1972760Y2035510*
X1964490Y2027240*
X1958650Y2017130*
X1955630Y2005840*
Y2000610*
X1955220Y1999630*
Y1999610*
X1955190Y1993680*
X1954610Y1983180*
X1954070Y1978780*
X1953370Y1974840*
X1952530Y1971410*
X1951560Y1968520*
X1950510Y1966180*
X1949410Y1964370*
X1948000Y1962700*
X1947880Y1962290*
X1865780Y1880200*
X1510000*
X1506100Y1879420*
X1502790Y1877210*
X1342790Y1717210*
X1340580Y1713900*
X1339800Y1710000*
Y1667980*
X1339590Y1667500*
X1339540Y1665740*
X1339430Y1664390*
X1339250Y1663340*
X1339060Y1662600*
X1339010Y1662480*
X1327280*
Y1602750*
X1325830Y1595470*
Y1554130*
X1327670Y1544890*
X1332910Y1537050*
X1340750Y1531810*
X1350000Y1529970*
X1359250Y1531810*
X1367090Y1537050*
X1372330Y1544890*
X1374170Y1554130*
Y1595470*
X1372720Y1602750*
Y1662480*
X1360990*
X1360940Y1662600*
X1360750Y1663340*
X1360570Y1664390*
X1360460Y1665740*
X1360410Y1667500*
X1360200Y1667980*
Y1705780*
X1514220Y1859800*
X1870000*
X1873900Y1860580*
X1877210Y1862790*
X1962290Y1947880*
X1962700Y1948000*
X1964370Y1949410*
X1966180Y1950510*
X1968520Y1951560*
X1971410Y1952530*
X1974840Y1953370*
X1978660Y1954050*
X1993730Y1955190*
X1999630Y1955220*
X2000610Y1955630*
X2005840*
X2017130Y1958650*
X2027240Y1964490*
X2035510Y1972760*
X2041350Y1982870*
X2044370Y1994160*
Y2005840*
X2041350Y2017130*
X2035510Y2027240*
X2027240Y2035510*
X2017130Y2041350*
X2005840Y2044370*
G37*
G36*
X1645840D02*
X1634160D01*
X1622870Y2041350*
X1612760Y2035510*
X1604500Y2027240*
X1598650Y2017130*
X1595630Y2005840*
Y1994160*
X1598650Y1982870*
X1604500Y1972760*
X1607530Y1969720*
X1607580Y1969340*
X1608100Y1968950*
X1608330Y1968340*
X1610640Y1965910*
X1612580Y1963600*
X1614270Y1961280*
X1615710Y1958970*
X1616910Y1956670*
X1617880Y1954360*
X1618630Y1952050*
X1619160Y1949730*
X1619300Y1948710*
X1600600Y1930020*
X1509830*
X1505920Y1929250*
X1502620Y1927040*
X1350780Y1775200*
X1295000*
X1291100Y1774420*
X1287790Y1772210*
X1242790Y1727210*
X1240580Y1723900*
X1239800Y1720000*
Y1667980*
X1239590Y1667500*
X1239540Y1665740*
X1239430Y1664390*
X1239250Y1663340*
X1239060Y1662600*
X1239010Y1662480*
X1227280*
Y1602750*
X1225830Y1595470*
Y1554130*
X1227670Y1544890*
X1232910Y1537050*
X1240750Y1531810*
X1250000Y1529970*
X1259250Y1531810*
X1267090Y1537050*
X1272330Y1544890*
X1274170Y1554130*
Y1595470*
X1272720Y1602750*
Y1662480*
X1260990*
X1260940Y1662600*
X1260750Y1663340*
X1260570Y1664390*
X1260460Y1665740*
X1260410Y1667500*
X1260200Y1667980*
Y1715780*
X1299220Y1754800*
X1355000*
X1358900Y1755580*
X1362210Y1757790*
X1514050Y1909630*
X1604830*
X1608730Y1910410*
X1612040Y1912620*
X1637210Y1937790*
X1639420Y1941100*
X1639940Y1943720*
X1640400Y1944660*
X1640530Y1946770*
X1640840Y1948310*
X1641330Y1949660*
X1642000Y1950880*
X1642890Y1952020*
X1644020Y1953100*
X1645470Y1954140*
X1647250Y1955120*
X1649380Y1956020*
X1652080Y1956880*
X1652560Y1957280*
X1653170Y1957370*
X1653390Y1957650*
X1657130Y1958650*
X1667240Y1964490*
X1675510Y1972760*
X1681350Y1982870*
X1684370Y1994160*
Y2005840*
X1681350Y2017130*
X1675510Y2027240*
X1667240Y2035510*
X1657130Y2041350*
X1645840Y2044370*
G37*
G36*
X1545840D02*
X1534160D01*
X1522870Y2041350*
X1512760Y2035510*
X1504500Y2027240*
X1498650Y2017130*
X1495630Y2005840*
Y2000610*
X1495220Y1999630*
Y1999610*
X1495190Y1993680*
X1494610Y1983180*
X1494070Y1978780*
X1493370Y1974840*
X1492530Y1971410*
X1491560Y1968520*
X1490500Y1966180*
X1489410Y1964370*
X1488000Y1962700*
X1487870Y1962290*
X1345780Y1820200*
X1195000*
X1191100Y1819420*
X1187790Y1817210*
X1042790Y1672210*
X1040580Y1668900*
X1040020Y1666090*
X1039590Y1665100*
X1039560Y1663740*
X1039500Y1662670*
X1039480Y1662480*
X1027280*
Y1602750*
X1025840Y1595470*
Y1554130*
X1027670Y1544890*
X1032910Y1537050*
X1040750Y1531810*
X1050000Y1529970*
X1059250Y1531810*
X1067090Y1537050*
X1072330Y1544890*
X1074160Y1554130*
Y1595470*
X1072720Y1602750*
Y1662480*
X1068430*
X1066520Y1667100*
X1199220Y1799800*
X1350000*
X1353900Y1800580*
X1357210Y1802790*
X1502290Y1947880*
X1502700Y1948000*
X1504370Y1949410*
X1506180Y1950510*
X1508520Y1951560*
X1511410Y1952530*
X1514840Y1953370*
X1518660Y1954050*
X1533740Y1955190*
X1539630Y1955220*
X1540610Y1955630*
X1545840*
X1557130Y1958650*
X1567240Y1964490*
X1575510Y1972760*
X1581350Y1982870*
X1584370Y1994160*
Y2005840*
X1581350Y2017130*
X1575510Y2027240*
X1567240Y2035510*
X1557130Y2041350*
X1545840Y2044370*
G37*
G36*
X872720Y1662480D02*
X827280D01*
Y1602750*
X825830Y1595470*
Y1554130*
X827670Y1544890*
X832910Y1537050*
X840750Y1531810*
X850000Y1529970*
X859250Y1531810*
X867090Y1537050*
X872330Y1544890*
X874160Y1554130*
Y1595470*
X872720Y1602750*
Y1662480*
G37*
G36*
X772720D02*
X727280D01*
Y1602750*
X725840Y1595470*
Y1554130*
X727670Y1544890*
X732910Y1537050*
X740750Y1531810*
X750000Y1529970*
X759250Y1531810*
X767090Y1537050*
X772330Y1544890*
X774160Y1554130*
Y1595470*
X772720Y1602750*
Y1662480*
G37*
G36*
X376280Y1504740D02*
X376260D01*
Y1471580*
X409430*
Y1471600*
X406830Y1481310*
X401800Y1490010*
X394700Y1497120*
X385990Y1502140*
X376280Y1504740*
G37*
G36*
X366260D02*
X366230D01*
X356530Y1502140*
X347820Y1497120*
X340720Y1490010*
X335690Y1481310*
X333090Y1471600*
Y1471580*
X366260*
Y1504740*
G37*
G36*
X409430Y1461580D02*
X376260D01*
Y1428410*
X376280*
X385990Y1431010*
X394700Y1436030*
X401800Y1443140*
X406830Y1451840*
X409430Y1461550*
Y1461580*
G37*
G36*
X366260D02*
X333090D01*
Y1461550*
X335690Y1451840*
X340720Y1443140*
X347820Y1436030*
X356530Y1431010*
X366230Y1428410*
X366260*
Y1461580*
G37*
G36*
X2606650Y1467500D02*
X2593350D01*
X2580310Y1464910*
X2568030Y1459820*
X2556970Y1452430*
X2547570Y1443030*
X2540180Y1431970*
X2535090Y1419690*
X2532500Y1406650*
Y1393350*
X2535090Y1380310*
X2540180Y1368030*
X2547570Y1356970*
X2556970Y1347570*
X2568030Y1340180*
X2580310Y1335090*
X2593350Y1332500*
X2606650*
X2619690Y1335090*
X2631970Y1340180*
X2643030Y1347570*
X2652430Y1356970*
X2659820Y1368030*
X2664910Y1380310*
X2667500Y1393350*
Y1406650*
X2664910Y1419690*
X2659820Y1431970*
X2652430Y1443030*
X2643030Y1452430*
X2631970Y1459820*
X2619690Y1464910*
X2606650Y1467500*
G37*
G36*
X272240Y1356690D02*
X269570D01*
Y1283780*
X342480*
Y1286450*
X339490Y1301510*
X333610Y1315690*
X325090Y1328450*
X314230Y1339300*
X301470Y1347830*
X287290Y1353700*
X272240Y1356690*
G37*
G36*
X259570D02*
X256890D01*
X241840Y1353700*
X227660Y1347830*
X214900Y1339300*
X204050Y1328450*
X195520Y1315690*
X189650Y1301510*
X186650Y1286450*
Y1283780*
X259570*
Y1356690*
G37*
G36*
X342480Y1273780D02*
X269570D01*
Y1200870*
X272240*
X287290Y1203860*
X301470Y1209730*
X314230Y1218260*
X325090Y1229110*
X333610Y1241870*
X339490Y1256050*
X342480Y1271110*
Y1273780*
G37*
G36*
X259570D02*
X186650D01*
Y1271110*
X189650Y1256050*
X195520Y1241870*
X204050Y1229110*
X214900Y1218260*
X227660Y1209730*
X241840Y1203860*
X256890Y1200870*
X259570*
Y1273780*
G37*
G36*
X176250Y452320D02*
X171540D01*
Y358740*
X265120*
Y363450*
X261330Y382500*
X253900Y400440*
X243110Y416580*
X229380Y430310*
X213230Y441100*
X195290Y448530*
X176250Y452320*
G37*
G36*
X161530D02*
X156830D01*
X137780Y448530*
X119840Y441100*
X103690Y430310*
X89960Y416580*
X79170Y400440*
X71740Y382500*
X67950Y363450*
Y358740*
X161530*
Y452320*
G37*
G36*
X2450000Y463500D02*
X2440750Y461660D01*
X2432910Y456420*
X2427670Y448580*
X2425830Y439330*
Y397990*
X2427280Y390710*
Y330980*
X2472720*
Y390710*
X2474160Y397990*
Y439330*
X2472330Y448580*
X2467090Y456420*
X2459250Y461660*
X2450000Y463500*
G37*
G36*
X2350000D02*
X2340750Y461660D01*
X2332910Y456420*
X2327670Y448580*
X2325830Y439330*
Y397990*
X2327280Y390710*
Y330980*
X2372720*
Y390710*
X2374170Y397990*
Y439330*
X2372330Y448580*
X2367090Y456420*
X2359250Y461660*
X2350000Y463500*
G37*
G36*
X2250000D02*
X2240750Y461660D01*
X2232910Y456420*
X2227670Y448580*
X2225840Y439330*
Y397990*
X2227280Y390710*
Y330980*
X2272720*
Y390710*
X2274160Y397990*
Y439330*
X2272330Y448580*
X2267090Y456420*
X2259250Y461660*
X2250000Y463500*
G37*
G36*
X2150000D02*
X2140750Y461660D01*
X2132910Y456420*
X2127670Y448580*
X2125830Y439330*
Y397990*
X2127280Y390710*
Y330980*
X2172720*
Y390710*
X2174170Y397990*
Y439330*
X2172330Y448580*
X2167090Y456420*
X2159250Y461660*
X2150000Y463500*
G37*
G36*
X2050000D02*
X2040750Y461660D01*
X2032910Y456420*
X2027670Y448580*
X2025840Y439330*
Y397990*
X2027280Y390710*
Y330980*
X2072720*
Y390710*
X2074170Y397990*
Y439330*
X2072330Y448580*
X2067090Y456420*
X2059250Y461660*
X2050000Y463500*
G37*
G36*
X1950000D02*
X1940750Y461660D01*
X1932910Y456420*
X1927670Y448580*
X1925840Y439330*
Y397990*
X1927280Y390710*
Y330980*
X1972720*
Y390710*
X1974160Y397990*
Y439330*
X1972330Y448580*
X1967090Y456420*
X1959250Y461660*
X1950000Y463500*
G37*
G36*
X1850000D02*
X1840750Y461660D01*
X1832910Y456420*
X1827670Y448580*
X1825830Y439330*
Y397990*
X1827280Y390710*
Y330980*
X1872720*
Y390710*
X1874170Y397990*
Y439330*
X1872330Y448580*
X1867090Y456420*
X1859250Y461660*
X1850000Y463500*
G37*
G36*
X1750000D02*
X1740750Y461660D01*
X1732910Y456420*
X1727670Y448580*
X1725830Y439330*
Y397990*
X1727280Y390710*
Y330980*
X1772720*
Y390710*
X1774170Y397990*
Y439330*
X1772330Y448580*
X1767090Y456420*
X1759250Y461660*
X1750000Y463500*
G37*
G36*
X1650000D02*
X1640750Y461660D01*
X1632910Y456420*
X1627670Y448580*
X1625830Y439330*
Y397990*
X1627280Y390710*
Y330980*
X1672720*
Y390710*
X1674170Y397990*
Y439330*
X1672330Y448580*
X1667090Y456420*
X1659250Y461660*
X1650000Y463500*
G37*
G36*
X1408950Y1210000D02*
X1401050D01*
X1393420Y1207960*
X1386580Y1204010*
X1380990Y1198420*
X1377040Y1191580*
X1375000Y1183950*
Y1176050*
X1377040Y1168420*
X1380990Y1161580*
X1383210Y1159370*
X1383560Y1158440*
X1387920Y1153800*
X1389580Y1151760*
X1391010Y1149780*
X1392180Y1147910*
X1393100Y1146160*
X1393780Y1144540*
X1394240Y1143060*
X1394500Y1141720*
X1394600Y1140150*
X1394800Y1139740*
Y815000*
X1395580Y811100*
X1397790Y807790*
X1539800Y665780*
Y467970*
X1539590Y467490*
X1539540Y465260*
X1539420Y463460*
X1539220Y461980*
X1538980Y460850*
X1538820Y460370*
X1536890Y459080*
X1536250Y458810*
X1536150Y458580*
X1532910Y456420*
X1527670Y448580*
X1525840Y439330*
Y397990*
X1527280Y390710*
Y330980*
X1572720*
Y390710*
X1574160Y397990*
Y439330*
X1572330Y448580*
X1567090Y456420*
X1563850Y458580*
X1563750Y458810*
X1563110Y459080*
X1561180Y460370*
X1561020Y460850*
X1560800Y461890*
X1560460Y465340*
X1560410Y467490*
X1560200Y467970*
Y670000*
X1559420Y673900*
X1557210Y677210*
X1415200Y819220*
Y1139740*
X1415400Y1140150*
X1415500Y1141720*
X1415760Y1143060*
X1416220Y1144540*
X1416900Y1146160*
X1417820Y1147910*
X1418990Y1149780*
X1420380Y1151700*
X1424120Y1156070*
X1426360Y1158360*
X1426760Y1159330*
X1429010Y1161580*
X1432960Y1168420*
X1435000Y1176050*
Y1183950*
X1432960Y1191580*
X1429010Y1198420*
X1423420Y1204010*
X1416580Y1207960*
X1408950Y1210000*
G37*
G36*
X1103950Y1245000D02*
X1096050D01*
X1088420Y1242960*
X1081580Y1239010*
X1075990Y1233420*
X1072040Y1226580*
X1070000Y1218950*
Y1211050*
X1072040Y1203420*
X1075990Y1196580*
X1081580Y1190990*
X1088420Y1187040*
X1096050Y1185000*
X1103950*
X1111580Y1187040*
X1118420Y1190990*
X1120630Y1193200*
X1121560Y1193560*
X1126200Y1197920*
X1128240Y1199580*
X1130220Y1201010*
X1132090Y1202180*
X1133840Y1203100*
X1135460Y1203780*
X1136940Y1204240*
X1138280Y1204500*
X1139850Y1204600*
X1140260Y1204800*
X1145780*
X1319800Y1030780*
Y710000*
X1320580Y706100*
X1322790Y702790*
X1439800Y585780*
Y467970*
X1439590Y467490*
X1439540Y465260*
X1439420Y463460*
X1439220Y461980*
X1438980Y460850*
X1438820Y460370*
X1436890Y459080*
X1436250Y458810*
X1436150Y458580*
X1432910Y456420*
X1427670Y448580*
X1425840Y439330*
Y397990*
X1427280Y390710*
Y330980*
X1472720*
Y390710*
X1474160Y397990*
Y439330*
X1472330Y448580*
X1467090Y456420*
X1463850Y458580*
X1463750Y458810*
X1463110Y459080*
X1461180Y460370*
X1461020Y460850*
X1460800Y461890*
X1460460Y465340*
X1460410Y467490*
X1460200Y467970*
Y590000*
X1459420Y593900*
X1457210Y597210*
X1340200Y714220*
Y1035000*
X1339420Y1038900*
X1337210Y1042210*
X1157210Y1222210*
X1153900Y1224420*
X1150000Y1225200*
X1140260*
X1139850Y1225400*
X1138280Y1225500*
X1136940Y1225760*
X1135460Y1226220*
X1133840Y1226900*
X1132090Y1227820*
X1130220Y1228990*
X1128300Y1230380*
X1123930Y1234120*
X1121640Y1236360*
X1120670Y1236760*
X1118420Y1239010*
X1111580Y1242960*
X1103950Y1245000*
G37*
G36*
X1208950Y1090000D02*
X1201050D01*
X1193420Y1087960*
X1186580Y1084010*
X1180990Y1078420*
X1177040Y1071580*
X1175000Y1063950*
Y1056050*
X1177040Y1048420*
X1180990Y1041580*
X1186580Y1035990*
X1193420Y1032040*
X1201050Y1030000*
X1204180*
X1205080Y1029590*
X1211450Y1029390*
X1214060Y1029130*
X1216480Y1028740*
X1218630Y1028240*
X1220520Y1027660*
X1222140Y1027000*
X1223510Y1026270*
X1224640Y1025510*
X1225820Y1024470*
X1226260Y1024320*
X1234800Y1015780*
Y565000*
X1235580Y561100*
X1237790Y557790*
X1333870Y461710*
X1333380Y456730*
X1332910Y456420*
X1327670Y448580*
X1325830Y439330*
Y397990*
X1327280Y390710*
Y330980*
X1372720*
Y390710*
X1374170Y397990*
Y439330*
X1372330Y448580*
X1367090Y456420*
X1359960Y461180*
X1359420Y463900*
X1357210Y467210*
X1255200Y569220*
Y1020000*
X1254420Y1023900*
X1252210Y1027210*
X1240680Y1038740*
X1240530Y1039180*
X1239490Y1040360*
X1238730Y1041490*
X1238000Y1042860*
X1237340Y1044480*
X1236760Y1046370*
X1236260Y1048520*
X1235890Y1050870*
X1235440Y1056590*
X1235410Y1059800*
X1235000Y1060770*
Y1063950*
X1232960Y1071580*
X1229010Y1078420*
X1223420Y1084010*
X1216580Y1087960*
X1208950Y1090000*
G37*
G36*
X1053950Y760000D02*
X1046050D01*
X1038420Y757960*
X1031580Y754010*
X1025990Y748420*
X1022040Y741580*
X1020000Y733950*
Y726050*
X1022040Y718420*
X1025990Y711580*
X1028210Y709370*
X1028560Y708440*
X1032920Y703800*
X1034580Y701760*
X1036010Y699780*
X1037180Y697910*
X1038100Y696160*
X1038780Y694540*
X1039240Y693060*
X1039500Y691730*
X1039600Y690150*
X1039800Y689740*
Y467970*
X1039590Y467490*
X1039540Y465260*
X1039420Y463460*
X1039220Y461980*
X1038980Y460850*
X1038820Y460370*
X1036890Y459080*
X1036250Y458810*
X1036150Y458580*
X1032910Y456420*
X1027670Y448580*
X1025840Y439330*
Y397990*
X1027280Y390710*
Y330980*
X1072720*
Y390710*
X1074160Y397990*
Y439330*
X1072330Y448580*
X1067090Y456420*
X1063850Y458580*
X1063750Y458810*
X1063110Y459080*
X1061180Y460370*
X1061020Y460850*
X1060800Y461890*
X1060460Y465340*
X1060410Y467490*
X1060200Y467970*
Y689740*
X1060400Y690150*
X1060500Y691730*
X1060760Y693060*
X1061220Y694540*
X1061900Y696160*
X1062820Y697910*
X1063990Y699780*
X1065380Y701700*
X1069120Y706070*
X1071360Y708360*
X1071760Y709330*
X1074010Y711580*
X1077960Y718420*
X1080000Y726050*
Y733950*
X1077960Y741580*
X1074010Y748420*
X1068420Y754010*
X1061580Y757960*
X1053950Y760000*
G37*
G36*
X950000Y463500D02*
X940750Y461660D01*
X932910Y456420*
X927670Y448580*
X925840Y439330*
Y397990*
X927280Y390710*
Y330980*
X972720*
Y390710*
X974170Y397990*
Y439330*
X972330Y448580*
X967090Y456420*
X959250Y461660*
X950000Y463500*
G37*
G36*
X745840Y2044370D02*
X734160D01*
X722870Y2041350*
X712760Y2035510*
X704500Y2027240*
X698650Y2017130*
X695630Y2005840*
Y1994160*
X698650Y1982870*
X704500Y1972760*
X708200Y1969060*
X708600Y1968080*
X712790Y1963850*
X719790Y1956010*
X722530Y1952520*
X724820Y1949240*
X726640Y1946220*
X728010Y1943490*
X728920Y1941080*
X729420Y1939030*
X729610Y1936860*
X729800Y1936480*
Y1750000*
X730580Y1746100*
X732790Y1742790*
X784800Y1690780*
Y570000*
X785580Y566100*
X787790Y562790*
X827090Y523490*
Y455640*
X826870Y455120*
Y453260*
X826740Y446630*
X826650Y445500*
X826610Y445230*
X826690Y444930*
X826500Y444550*
X826730Y443850*
X825830Y439330*
Y397990*
X827280Y390710*
Y330980*
X872720*
Y390710*
X874160Y397990*
Y439330*
X872330Y448580*
X867090Y456420*
X859250Y461660*
X851030Y463290*
X849070Y465200*
X847480Y468090*
Y527720*
X846700Y531620*
X844490Y534930*
X805200Y574220*
Y1695000*
X804420Y1698900*
X802210Y1702210*
X750200Y1754220*
Y1936480*
X750390Y1936860*
X750580Y1939030*
X751080Y1941080*
X751990Y1943490*
X753360Y1946220*
X755180Y1949240*
X757400Y1952420*
X767250Y1963890*
X771400Y1968080*
X771800Y1969060*
X775510Y1972760*
X781350Y1982870*
X784370Y1994160*
Y2005840*
X781350Y2017130*
X775510Y2027240*
X767240Y2035510*
X757130Y2041350*
X745840Y2044370*
G37*
G36*
X750000Y463500D02*
X740750Y461660D01*
X732910Y456420*
X727670Y448580*
X725840Y439330*
Y397990*
X727280Y390710*
Y330980*
X772720*
Y390710*
X774160Y397990*
Y439330*
X772330Y448580*
X767090Y456420*
X759250Y461660*
X750000Y463500*
G37*
G36*
X265120Y348740D02*
X171540D01*
Y255160*
X176250*
X195290Y258950*
X213230Y266380*
X229380Y277170*
X243110Y290900*
X253900Y307040*
X261330Y324980*
X265120Y344030*
Y348740*
G37*
G36*
X161530D02*
X67950D01*
Y344030*
X71740Y324980*
X79170Y307040*
X89960Y290900*
X103690Y277170*
X119840Y266380*
X137780Y258950*
X156830Y255160*
X161530*
Y348740*
G37*
G36*
X2606650Y367500D02*
X2593350D01*
X2580310Y364910*
X2568030Y359820*
X2556970Y352430*
X2547570Y343030*
X2540180Y331970*
X2535090Y319690*
X2532500Y306650*
Y293350*
X2535090Y280310*
X2540180Y268030*
X2547570Y256970*
X2556970Y247570*
X2568030Y240180*
X2580310Y235090*
X2593350Y232500*
X2606650*
X2619690Y235090*
X2631970Y240180*
X2643030Y247570*
X2652430Y256970*
X2659820Y268030*
X2664910Y280310*
X2667500Y293350*
Y306650*
X2664910Y319690*
X2659820Y331970*
X2652430Y343030*
X2643030Y352430*
X2631970Y359820*
X2619690Y364910*
X2606650Y367500*
G37*
G36*
X845840Y2044370D02*
X834160D01*
X822870Y2041350*
X812760Y2035510*
X804490Y2027240*
X798650Y2017130*
X795630Y2005840*
Y1994160*
X798650Y1982870*
X804490Y1972760*
X808200Y1969060*
X808600Y1968080*
X812790Y1963850*
X819790Y1956010*
X822530Y1952520*
X824820Y1949240*
X826650Y1946220*
X828010Y1943490*
X828920Y1941080*
X829420Y1939030*
X829610Y1936860*
X829800Y1936480*
Y1730000*
X830580Y1726100*
X832790Y1722790*
X906100Y1649480*
Y943700*
X906880Y939800*
X909090Y936490*
X1094800Y750780*
Y420000*
X1095580Y416100*
X1097790Y412790*
X1115930Y394650*
X1119240Y392440*
X1122050Y391880*
X1123040Y391450*
X1124570Y391420*
X1125780Y391340*
X1126750Y391230*
X1127200Y391140*
X1127280Y390710*
Y330980*
X1138950*
X1138980Y330970*
X1139060Y330770*
X1139260Y330050*
X1139430Y329020*
X1139540Y327690*
X1139590Y325960*
X1139800Y325480*
Y280260*
X1139600Y279850*
X1139500Y278280*
X1139240Y276940*
X1138780Y275460*
X1138100Y273840*
X1137180Y272090*
X1136010Y270220*
X1134620Y268300*
X1130880Y263930*
X1128640Y261640*
X1128240Y260670*
X1125990Y258420*
X1122040Y251580*
X1120000Y243950*
Y236050*
X1122040Y228420*
X1125990Y221580*
X1131580Y215990*
X1132960Y215200*
X1131620Y210200*
X792180*
X675250Y327120*
X672720Y330980*
Y330990*
Y365590*
X672910Y366580*
X672720Y367560*
Y390710*
X674170Y397990*
Y439330*
X672330Y448580*
X667090Y456420*
X659250Y461660*
X650000Y463500*
X640750Y461660*
X632910Y456420*
X627670Y448580*
X625840Y439330*
Y397990*
X627280Y390710*
Y330980*
X636760*
X637310Y330710*
X638400Y330630*
X639260Y330450*
X640300Y330100*
X641520Y329560*
X642880Y328800*
X644390Y327830*
X645970Y326670*
X649650Y323510*
X651620Y321610*
X652130Y321410*
X780740Y192790*
X784050Y190580*
X787950Y189800*
X1190000*
X1193900Y190580*
X1197210Y192790*
X1257210Y252790*
X1259420Y256100*
X1260200Y260000*
Y325480*
X1260410Y325960*
X1260460Y327690*
X1260570Y329020*
X1260750Y330050*
X1260940Y330770*
X1261020Y330970*
X1261050Y330980*
X1272720*
Y390710*
X1274170Y397990*
Y439330*
X1272330Y448580*
X1267090Y456420*
X1263850Y458580*
X1263750Y458810*
X1263110Y459080*
X1261180Y460370*
X1261020Y460850*
X1260800Y461890*
X1260460Y465340*
X1260410Y467490*
X1260200Y467970*
Y480670*
X1259420Y484570*
X1257210Y487880*
X1170200Y574890*
Y1015000*
X1169420Y1018900*
X1167210Y1022210*
X1040200Y1149220*
Y1315780*
X1157210Y1432790*
X1159420Y1436100*
X1160200Y1440000*
Y1525490*
X1160410Y1525980*
X1160460Y1528200*
X1160580Y1530010*
X1160780Y1531490*
X1161020Y1532610*
X1161180Y1533100*
X1163110Y1534390*
X1163750Y1534650*
X1163850Y1534880*
X1167090Y1537050*
X1172330Y1544890*
X1174170Y1554130*
Y1595470*
X1172720Y1602750*
Y1662480*
X1127280*
Y1602750*
X1125830Y1595470*
Y1554130*
X1127670Y1544890*
X1132910Y1537050*
X1136150Y1534880*
X1136250Y1534650*
X1136890Y1534390*
X1138820Y1533100*
X1138980Y1532610*
X1139200Y1531570*
X1139540Y1528120*
X1139590Y1525980*
X1139800Y1525490*
Y1444220*
X1022790Y1327210*
X1020580Y1323900*
X1019800Y1320000*
Y1145000*
X1020580Y1141100*
X1022790Y1137790*
X1149800Y1010780*
Y570670*
X1150580Y566770*
X1152790Y563460*
X1239800Y476450*
Y467970*
X1239590Y467490*
X1239540Y465260*
X1239420Y463460*
X1239220Y461980*
X1238980Y460850*
X1238820Y460370*
X1236890Y459080*
X1236250Y458810*
X1236150Y458580*
X1232910Y456420*
X1227670Y448580*
X1225830Y439330*
Y397990*
X1227280Y390710*
Y330980*
X1238950*
X1238980Y330970*
X1239060Y330770*
X1239250Y330050*
X1239430Y329020*
X1239540Y327690*
X1239590Y325960*
X1239800Y325480*
Y264220*
X1185780Y210200*
X1168380*
X1167040Y215200*
X1168420Y215990*
X1174010Y221580*
X1177960Y228420*
X1180000Y236050*
Y243950*
X1177960Y251580*
X1174010Y258420*
X1171800Y260630*
X1171440Y261560*
X1167080Y266210*
X1165420Y268240*
X1163990Y270220*
X1162820Y272090*
X1161900Y273840*
X1161220Y275460*
X1160760Y276940*
X1160500Y278280*
X1160400Y279850*
X1160200Y280260*
Y325480*
X1160410Y325960*
X1160460Y327690*
X1160570Y329020*
X1160750Y330050*
X1160940Y330770*
X1161020Y330970*
X1161050Y330980*
X1172720*
Y390710*
X1174170Y397990*
Y439330*
X1172330Y448580*
X1167090Y456420*
X1159250Y461660*
X1150000Y463500*
X1140750Y461660*
X1132910Y456420*
X1127670Y448580*
X1125830Y439330*
Y420120*
X1121220Y418200*
X1115200Y424220*
Y755000*
X1114420Y758900*
X1112210Y762210*
X926500Y947920*
Y1537650*
X931500Y1539170*
X932910Y1537050*
X940750Y1531810*
X950000Y1529970*
X959250Y1531810*
X967090Y1537050*
X972330Y1544890*
X974170Y1554130*
Y1595470*
X972720Y1602750*
Y1662480*
X927280*
X922280Y1662140*
X850200Y1734220*
Y1936480*
X850390Y1936860*
X850580Y1939030*
X851080Y1941080*
X851990Y1943490*
X853350Y1946220*
X855180Y1949240*
X857400Y1952420*
X867250Y1963890*
X871400Y1968080*
X871810Y1969060*
X875500Y1972760*
X881350Y1982870*
X884370Y1994160*
Y2005840*
X881350Y2017130*
X875500Y2027240*
X867240Y2035510*
X857130Y2041350*
X845840Y2044370*
G37*
G36*
X296320Y259410D02*
X291610D01*
Y165830*
X385200*
Y170540*
X381410Y189580*
X373980Y207520*
X363190Y223670*
X349460Y237400*
X333310Y248190*
X315370Y255620*
X296320Y259410*
G37*
G36*
X281610D02*
X276910D01*
X257860Y255620*
X239920Y248190*
X223770Y237400*
X210040Y223670*
X199250Y207520*
X191820Y189580*
X188030Y170540*
Y165830*
X281610*
Y259410*
G37*
G36*
X1695000Y149370D02*
X1693500D01*
X1680940Y146010*
X1669690Y139510*
X1660490Y130310*
X1653990Y119060*
X1652590Y113810*
X1647410*
X1646010Y119060*
X1639510Y130310*
X1630310Y139510*
X1619060Y146010*
X1606500Y149370*
X1605000*
Y100000*
Y50630*
X1606500*
X1619060Y53990*
X1630310Y60490*
X1639510Y69690*
X1646010Y80940*
X1647410Y86190*
X1652590*
X1653990Y80940*
X1660490Y69690*
X1669690Y60490*
X1680940Y53990*
X1693500Y50630*
X1695000*
Y100000*
Y149370*
G37*
G36*
X1706500D02*
X1705000D01*
Y105000*
X1749370*
Y106500*
X1746010Y119060*
X1739510Y130310*
X1730310Y139510*
X1719060Y146010*
X1706500Y149370*
G37*
G36*
X1595000D02*
X1593500D01*
X1580940Y146010*
X1569690Y139510*
X1560490Y130310*
X1553990Y119060*
X1550630Y106500*
Y105000*
X1595000*
Y149370*
G37*
G36*
X385200Y155830D02*
X291610D01*
Y62240*
X296320*
X315370Y66030*
X333310Y73460*
X349460Y84250*
X363190Y97980*
X373980Y114130*
X381410Y132070*
X385200Y151120*
Y155830*
G37*
G36*
X281610D02*
X188030D01*
Y151120*
X191820Y132070*
X199250Y114130*
X210040Y97980*
X223770Y84250*
X239920Y73460*
X257860Y66030*
X276910Y62240*
X281610*
Y155830*
G37*
G36*
X2505840Y144370D02*
X2494160D01*
X2482870Y141350*
X2472760Y135510*
X2464490Y127240*
X2458650Y117130*
X2455630Y105840*
Y94160*
X2458650Y82870*
X2464490Y72760*
X2472760Y64490*
X2482870Y58650*
X2494160Y55630*
X2505840*
X2517130Y58650*
X2527240Y64490*
X2535510Y72760*
X2541350Y82870*
X2544370Y94160*
Y105840*
X2541350Y117130*
X2535510Y127240*
X2527240Y135510*
X2517130Y141350*
X2505840Y144370*
G37*
G36*
X2405840D02*
X2394160D01*
X2382870Y141350*
X2372760Y135510*
X2364500Y127240*
X2358650Y117130*
X2355630Y105840*
Y94160*
X2358650Y82870*
X2364500Y72760*
X2372760Y64490*
X2382870Y58650*
X2394160Y55630*
X2405840*
X2417130Y58650*
X2427240Y64490*
X2435500Y72760*
X2441350Y82870*
X2444370Y94160*
Y105840*
X2441350Y117130*
X2435500Y127240*
X2427240Y135510*
X2417130Y141350*
X2405840Y144370*
G37*
G36*
X2272720Y1662480D02*
X2227280D01*
Y1602750*
X2225840Y1595470*
Y1554130*
X2227670Y1544890*
X2232910Y1537050*
X2240750Y1531810*
X2250000Y1529970*
X2259250Y1531810*
X2267090Y1537050*
X2272330Y1544890*
X2274160Y1554130*
Y1559840*
X2278780Y1561760*
X2289800Y1550740*
Y163520*
X2289610Y163140*
X2289420Y160970*
X2288920Y158910*
X2288010Y156510*
X2286640Y153780*
X2284820Y150760*
X2282600Y147580*
X2272750Y136110*
X2268600Y131930*
X2268190Y130940*
X2264490Y127240*
X2258650Y117130*
X2255630Y105840*
Y94160*
X2258650Y82870*
X2264490Y72760*
X2272760Y64490*
X2282870Y58650*
X2294160Y55630*
X2305840*
X2317130Y58650*
X2327240Y64490*
X2335510Y72760*
X2341350Y82870*
X2344370Y94160*
Y105840*
X2341350Y117130*
X2335510Y127240*
X2331800Y130940*
X2331400Y131930*
X2327210Y136150*
X2320210Y143990*
X2317470Y147480*
X2315180Y150760*
X2313350Y153780*
X2311990Y156510*
X2311080Y158910*
X2310580Y160970*
X2310390Y163140*
X2310200Y163520*
Y1554960*
X2309420Y1558860*
X2307210Y1562170*
X2279920Y1589460*
X2279730Y1589950*
X2278530Y1591210*
X2277550Y1592360*
X2276680Y1593490*
X2275920Y1594610*
X2275270Y1595710*
X2274720Y1596800*
X2274270Y1597870*
X2273920Y1598930*
X2273650Y1599980*
X2273440Y1601240*
X2272830Y1602210*
X2272720Y1602750*
Y1662480*
G37*
G36*
X2172720D02*
X2127280D01*
Y1602750*
X2125830Y1595470*
Y1554130*
X2127670Y1544890*
X2132910Y1537050*
X2140750Y1531810*
X2150000Y1529970*
X2159250Y1531810*
X2167090Y1537050*
X2172330Y1544890*
X2174170Y1554130*
Y1559840*
X2178790Y1561760*
X2189800Y1550740*
Y163520*
X2189610Y163140*
X2189420Y160970*
X2188920Y158910*
X2188010Y156510*
X2186650Y153780*
X2184820Y150760*
X2182600Y147580*
X2172750Y136110*
X2168600Y131930*
X2168200Y130940*
X2164490Y127240*
X2158650Y117130*
X2155630Y105840*
Y94160*
X2158650Y82870*
X2164490Y72760*
X2172760Y64490*
X2182870Y58650*
X2194160Y55630*
X2205840*
X2217130Y58650*
X2227240Y64490*
X2235510Y72760*
X2241350Y82870*
X2244370Y94160*
Y105840*
X2241350Y117130*
X2235510Y127240*
X2231810Y130940*
X2231400Y131930*
X2227220Y136150*
X2220210Y143990*
X2217470Y147480*
X2215180Y150760*
X2213360Y153780*
X2211990Y156510*
X2211080Y158910*
X2210580Y160970*
X2210390Y163140*
X2210200Y163520*
Y1554960*
X2209420Y1558860*
X2207210Y1562170*
X2179920Y1589460*
X2179730Y1589950*
X2178530Y1591210*
X2177550Y1592360*
X2176680Y1593490*
X2175920Y1594610*
X2175270Y1595710*
X2174720Y1596800*
X2174270Y1597870*
X2173920Y1598930*
X2173650Y1599980*
X2173440Y1601240*
X2172830Y1602210*
X2172720Y1602750*
Y1662480*
G37*
G36*
X2072720D02*
X2027280D01*
Y1602750*
X2025840Y1595470*
Y1554130*
X2027670Y1544890*
X2032910Y1537050*
X2040750Y1531810*
X2050000Y1529970*
X2059250Y1531810*
X2067090Y1537050*
X2072330Y1544890*
X2074170Y1554130*
Y1559840*
X2078780Y1561760*
X2089800Y1550740*
Y163520*
X2089610Y163140*
X2089420Y160970*
X2088920Y158910*
X2088010Y156510*
X2086640Y153780*
X2084820Y150760*
X2082600Y147580*
X2072750Y136110*
X2068600Y131930*
X2068200Y130940*
X2064500Y127240*
X2058650Y117130*
X2055630Y105840*
Y94160*
X2058650Y82870*
X2064500Y72760*
X2072760Y64490*
X2082870Y58650*
X2094160Y55630*
X2105840*
X2117130Y58650*
X2127240Y64490*
X2135500Y72760*
X2141350Y82870*
X2144370Y94160*
Y105840*
X2141350Y117130*
X2135500Y127240*
X2131800Y130940*
X2131400Y131930*
X2127210Y136150*
X2120210Y143990*
X2117470Y147480*
X2115180Y150760*
X2113350Y153780*
X2111990Y156510*
X2111080Y158910*
X2110580Y160970*
X2110390Y163140*
X2110200Y163520*
Y1554960*
X2109420Y1558860*
X2107210Y1562170*
X2079920Y1589460*
X2079730Y1589950*
X2078540Y1591210*
X2077550Y1592360*
X2076680Y1593490*
X2075920Y1594610*
X2075270Y1595710*
X2074720Y1596800*
X2074270Y1597870*
X2073920Y1598930*
X2073650Y1599980*
X2073440Y1601240*
X2072820Y1602210*
X2072720Y1602750*
Y1662480*
G37*
G36*
X1972720D02*
X1927280D01*
Y1602750*
X1925840Y1595470*
Y1554130*
X1927670Y1544890*
X1932910Y1537050*
X1940750Y1531810*
X1950000Y1529970*
X1959250Y1531810*
X1967090Y1537050*
X1972330Y1544890*
X1974160Y1554130*
Y1559840*
X1978780Y1561760*
X1989800Y1550740*
Y163520*
X1989610Y163140*
X1989420Y160970*
X1988920Y158910*
X1988010Y156510*
X1986640Y153780*
X1984820Y150760*
X1982600Y147580*
X1972750Y136110*
X1968600Y131930*
X1968190Y130940*
X1964490Y127240*
X1958650Y117130*
X1955630Y105840*
Y94160*
X1958650Y82870*
X1964490Y72760*
X1972760Y64490*
X1982870Y58650*
X1994160Y55630*
X2005840*
X2017130Y58650*
X2027240Y64490*
X2035510Y72760*
X2041350Y82870*
X2044370Y94160*
Y105840*
X2041350Y117130*
X2035510Y127240*
X2031800Y130940*
X2031400Y131930*
X2027220Y136150*
X2020210Y143990*
X2017470Y147480*
X2015180Y150760*
X2013360Y153780*
X2011990Y156510*
X2011080Y158910*
X2010580Y160970*
X2010390Y163140*
X2010200Y163520*
Y1554960*
X2009420Y1558860*
X2007210Y1562170*
X1979920Y1589460*
X1979730Y1589950*
X1978540Y1591210*
X1977550Y1592360*
X1976680Y1593490*
X1975920Y1594610*
X1975270Y1595710*
X1974720Y1596800*
X1974270Y1597870*
X1973920Y1598930*
X1973650Y1599980*
X1973440Y1601240*
X1972830Y1602210*
X1972720Y1602750*
Y1662480*
G37*
G36*
X1805840Y144370D02*
X1794160D01*
X1782870Y141350*
X1772760Y135510*
X1764500Y127240*
X1758650Y117130*
X1755630Y105840*
Y94160*
X1758650Y82870*
X1764500Y72760*
X1772760Y64490*
X1782870Y58650*
X1794160Y55630*
X1805840*
X1817130Y58650*
X1827240Y64490*
X1835510Y72760*
X1841350Y82870*
X1844370Y94160*
Y105840*
X1841350Y117130*
X1835510Y127240*
X1827240Y135510*
X1817130Y141350*
X1805840Y144370*
G37*
G36*
X1505840D02*
X1494160D01*
X1482870Y141350*
X1472760Y135510*
X1464490Y127240*
X1458650Y117130*
X1455630Y105840*
Y94160*
X1458650Y82870*
X1464490Y72760*
X1472760Y64490*
X1482870Y58650*
X1494160Y55630*
X1505840*
X1517130Y58650*
X1527240Y64490*
X1535510Y72760*
X1541350Y82870*
X1544370Y94160*
Y105840*
X1541350Y117130*
X1535510Y127240*
X1527240Y135510*
X1517130Y141350*
X1505840Y144370*
G37*
G36*
X1503950Y580000D02*
X1496050D01*
X1488420Y577960*
X1481580Y574010*
X1475990Y568420*
X1472040Y561580*
X1470000Y553950*
Y546050*
X1472040Y538420*
X1475990Y531580*
X1478200Y529370*
X1478560Y528440*
X1482920Y523800*
X1484580Y521760*
X1486010Y519780*
X1487180Y517910*
X1488100Y516160*
X1488780Y514540*
X1489240Y513060*
X1489500Y511720*
X1489600Y510150*
X1489800Y509740*
Y249220*
X1396300Y155720*
X1394090Y152410*
X1393550Y149680*
X1393100Y148710*
X1393050Y147260*
X1392930Y146230*
X1392760Y145430*
X1392560Y144860*
X1392390Y144510*
X1392250Y144320*
X1392160Y144230*
X1392060Y144160*
X1391870Y144080*
X1391160Y143890*
X1390520Y143400*
X1382870Y141350*
X1372760Y135510*
X1364500Y127240*
X1358650Y117130*
X1355630Y105840*
Y94160*
X1358650Y82870*
X1364500Y72760*
X1372760Y64490*
X1382870Y58650*
X1394160Y55630*
X1405840*
X1417130Y58650*
X1427240Y64490*
X1435510Y72760*
X1441350Y82870*
X1444370Y94160*
Y105840*
X1441350Y117130*
X1435510Y127240*
X1427240Y135510*
X1417440Y141160*
X1416820Y142170*
X1416300Y143560*
X1416100Y145480*
X1416320Y146910*
X1507210Y237790*
X1509420Y241100*
X1510200Y245000*
Y509740*
X1510400Y510150*
X1510500Y511720*
X1510760Y513060*
X1511220Y514540*
X1511900Y516160*
X1512820Y517910*
X1513990Y519780*
X1515380Y521700*
X1519120Y526070*
X1521360Y528360*
X1521760Y529330*
X1524010Y531580*
X1527960Y538420*
X1530000Y546050*
Y553950*
X1527960Y561580*
X1524010Y568420*
X1518420Y574010*
X1511580Y577960*
X1503950Y580000*
G37*
G36*
X1403950Y555000D02*
X1396050D01*
X1388420Y552960*
X1381580Y549010*
X1375990Y543420*
X1372040Y536580*
X1370000Y528950*
Y521050*
X1372040Y513420*
X1375990Y506580*
X1378200Y504370*
X1378560Y503440*
X1382920Y498800*
X1384580Y496760*
X1386010Y494780*
X1387180Y492910*
X1388100Y491160*
X1388780Y489540*
X1389240Y488060*
X1389500Y486720*
X1389600Y485150*
X1389800Y484740*
Y204220*
X1337710Y152130*
X1337300Y152000*
X1335630Y150590*
X1333820Y149500*
X1331480Y148440*
X1328590Y147470*
X1325160Y146630*
X1321340Y145950*
X1306260Y144810*
X1300370Y144780*
X1299390Y144370*
X1294160*
X1282870Y141350*
X1272760Y135510*
X1264500Y127240*
X1258650Y117130*
X1255630Y105840*
Y94160*
X1258650Y82870*
X1264500Y72760*
X1272760Y64490*
X1282870Y58650*
X1294160Y55630*
X1305840*
X1317130Y58650*
X1327240Y64490*
X1335510Y72760*
X1341350Y82870*
X1344370Y94160*
Y99390*
X1344780Y100370*
Y100390*
X1344810Y106320*
X1345390Y116820*
X1345930Y121220*
X1346630Y125160*
X1347470Y128590*
X1348440Y131480*
X1349500Y133820*
X1350590Y135630*
X1352000Y137300*
X1352130Y137710*
X1407210Y192790*
X1409420Y196100*
X1410200Y200000*
Y484740*
X1410400Y485150*
X1410500Y486720*
X1410760Y488060*
X1411220Y489540*
X1411900Y491160*
X1412820Y492910*
X1413990Y494780*
X1415380Y496700*
X1419120Y501070*
X1421360Y503360*
X1421760Y504330*
X1424010Y506580*
X1427960Y513420*
X1430000Y521050*
Y528950*
X1427960Y536580*
X1424010Y543420*
X1418420Y549010*
X1411580Y552960*
X1403950Y555000*
G37*
G36*
X1749370Y95000D02*
X1705000D01*
Y50630*
X1706500*
X1719060Y53990*
X1730310Y60490*
X1739510Y69690*
X1746010Y80940*
X1749370Y93500*
Y95000*
G37*
G36*
X1595000D02*
X1550630D01*
Y93500*
X1553990Y80940*
X1560490Y69690*
X1569690Y60490*
X1580940Y53990*
X1593500Y50630*
X1595000*
Y95000*
G37*
G36*
X556650Y167500D02*
X543350D01*
X530310Y164910*
X518030Y159820*
X506970Y152430*
X497570Y143030*
X490180Y131970*
X485090Y119690*
X482500Y106650*
Y93350*
X485090Y80310*
X490180Y68030*
X497570Y56970*
X506970Y47570*
X518030Y40180*
X530310Y35090*
X543350Y32500*
X556650*
X569690Y35090*
X581970Y40180*
X593030Y47570*
X602430Y56970*
X609820Y68030*
X614910Y80310*
X617500Y93350*
Y106650*
X614910Y119690*
X609820Y131970*
X602430Y143030*
X593030Y152430*
X581970Y159820*
X569690Y164910*
X556650Y167500*
G37*
%LNesp32-hwe-uno-3*%
%LPD*%
G36*
X967110Y1971140D02*
X965230Y1968620D01*
X963570Y1966060*
X962140Y1963450*
X960920Y1960800*
X959920Y1958100*
X959150Y1955350*
X958590Y1952560*
X958260Y1949730*
X958150Y1946850*
X948150*
X948010Y1949160*
X947580Y1951270*
X946870Y1953180*
X945880Y1954900*
X944600Y1956430*
X943030Y1957750*
X941180Y1958890*
X939050Y1959820*
X936630Y1960560*
X933930Y1961100*
X969210Y1973610*
X967110Y1971140*
G37*
G36*
X1255720Y1963660D02*
X1253470Y1962090D01*
X1251480Y1960390*
X1249770Y1958570*
X1248310Y1956620*
X1247120Y1954550*
X1246190Y1952350*
X1245530Y1950020*
X1245130Y1947570*
X1245000Y1945000*
X1235000*
X1234870Y1947570*
X1234470Y1950020*
X1233810Y1952350*
X1232880Y1954550*
X1231690Y1956620*
X1230230Y1958570*
X1228520Y1960390*
X1226530Y1962090*
X1224280Y1963660*
X1221770Y1965110*
X1258230*
X1255720Y1963660*
G37*
G36*
X631380Y1567240D02*
X631600Y1569620D01*
X631210Y1571740*
X630210Y1573620*
X628610Y1575240*
X626400Y1576620*
X623580Y1577740*
X620160Y1578620*
X616130Y1579240*
X611500Y1579620*
X606260Y1579740*
X608730Y1604740*
X613160Y1604810*
X621190Y1605370*
X624790Y1605860*
X631170Y1607250*
X633950Y1608150*
X636450Y1609200*
X638680Y1610380*
X640630Y1611700*
X631380Y1567240*
G37*
G36*
X488640Y1487540D02*
X486630Y1485430D01*
X484840Y1483330*
X483260Y1481240*
X481890Y1479150*
X480740Y1477080*
X479800Y1475020*
X479070Y1472960*
X478550Y1470920*
X478250Y1468880*
X478170Y1466860*
X450280Y1494740*
X452310Y1494830*
X454340Y1495130*
X456390Y1495640*
X458440Y1496370*
X460510Y1497310*
X462580Y1498460*
X464660Y1499830*
X466750Y1501410*
X468850Y1503210*
X470960Y1505220*
X488640Y1487540*
G37*
G36*
X462380Y1441270D02*
X460720Y1440310D01*
X459230Y1439120*
X457920Y1437720*
X456780Y1436090*
X455820Y1434250*
X455030Y1432190*
X454420Y1429900*
X453980Y1427400*
X453720Y1424680*
X453630Y1421740*
X428630Y1431320*
X428600Y1434280*
X428050Y1442200*
X427710Y1444520*
X426830Y1448670*
X426280Y1450500*
X425650Y1452180*
X424950Y1453690*
X462380Y1441270*
G37*
G36*
X453630Y479400D02*
X453950Y476590D01*
X454910Y472300*
X458740Y459340*
X479470Y401290*
X485530Y385290*
X374280Y437620*
X384600Y441480*
X393840Y445680*
X402000Y450230*
X409070Y455120*
X415040Y460350*
X419940Y465910*
X423740Y471830*
X426460Y478080*
X428090Y484670*
X428630Y491610*
X453630Y479400*
G37*
G36*
X490790Y342030D02*
X491080Y339480D01*
X491760Y337230*
X492840Y335290*
X494320Y333640*
X496190Y332290*
X498450Y331240*
X501110Y330490*
X504160Y330040*
X507610Y329890*
Y304890*
X501920Y304780*
X491690Y303880*
X487140Y303100*
X482970Y302090*
X479190Y300850*
X475780Y299390*
X472760Y297700*
X470110Y295790*
X467850Y293660*
X490890Y344880*
X490790Y342030*
G37*
G36*
X1183540Y159230D02*
X1194750Y149460D01*
X1198430Y146640*
X1205730Y141640*
X1209340Y139460*
X1216490Y135750*
X1165000Y118030*
X1166430Y121210*
X1167420Y124360*
X1167960Y127460*
X1168060Y130510*
X1167720Y133530*
X1166930Y136500*
X1165710Y139430*
X1164030Y142320*
X1161920Y145160*
X1159360Y147960*
X1179760Y162920*
X1183540Y159230*
G37*
G36*
X2499610Y1960630D02*
X2493520Y1960600D01*
X2477980Y1959430*
X2473720Y1958670*
X2469900Y1957730*
X2466550Y1956610*
X2463650Y1955300*
X2461210Y1953820*
X2459220Y1952150*
X2452150Y1959220*
X2453820Y1961210*
X2455300Y1963650*
X2456610Y1966550*
X2457730Y1969910*
X2458670Y1973720*
X2459430Y1977980*
X2460000Y1982700*
X2460600Y1993520*
X2460630Y1999610*
X2499610Y1960630*
G37*
G36*
X1855050Y1665440D02*
X1855200Y1663720D01*
X1855450Y1662200*
X1855800Y1660880*
X1856250Y1659770*
X1856800Y1658860*
X1857450Y1658150*
X1858200Y1657640*
X1859050Y1657340*
X1860000Y1657240*
X1840000*
X1840950Y1657340*
X1841800Y1657640*
X1842550Y1658150*
X1843200Y1658860*
X1843750Y1659770*
X1844200Y1660880*
X1844550Y1662200*
X1844800Y1663720*
X1844950Y1665440*
X1845000Y1667360*
X1855000*
X1855050Y1665440*
G37*
G36*
Y1621160D02*
X1855440Y1617200D01*
X1855790Y1615580*
X1856230Y1614220*
X1856770Y1613110*
X1857410Y1612240*
X1858150Y1611620*
X1858990Y1611250*
X1859930Y1611120*
X1840070*
X1841010Y1611250*
X1841850Y1611620*
X1842590Y1612240*
X1843230Y1613110*
X1843770Y1614220*
X1844210Y1615580*
X1844560Y1617200*
X1844800Y1619050*
X1844950Y1621160*
X1845000Y1623510*
X1855000*
X1855050Y1621160*
G37*
G36*
X2399610Y1960630D02*
X2393520Y1960600D01*
X2377980Y1959430*
X2373720Y1958670*
X2369900Y1957730*
X2366550Y1956610*
X2363650Y1955300*
X2361210Y1953820*
X2359220Y1952150*
X2352150Y1959220*
X2353820Y1961210*
X2355300Y1963650*
X2356610Y1966550*
X2357730Y1969910*
X2358670Y1973720*
X2359430Y1977980*
X2360000Y1982700*
X2360600Y1993520*
X2360630Y1999610*
X2399610Y1960630*
G37*
G36*
X1755050Y1665440D02*
X1755200Y1663720D01*
X1755450Y1662200*
X1755800Y1660880*
X1756250Y1659770*
X1756800Y1658860*
X1757450Y1658150*
X1758200Y1657640*
X1759050Y1657340*
X1760000Y1657240*
X1740000*
X1740950Y1657340*
X1741800Y1657640*
X1742550Y1658150*
X1743200Y1658860*
X1743750Y1659770*
X1744200Y1660880*
X1744550Y1662200*
X1744800Y1663720*
X1744950Y1665440*
X1745000Y1667360*
X1755000*
X1755050Y1665440*
G37*
G36*
Y1621160D02*
X1755440Y1617200D01*
X1755790Y1615580*
X1756230Y1614220*
X1756770Y1613110*
X1757410Y1612240*
X1758150Y1611620*
X1758990Y1611250*
X1759930Y1611120*
X1740070*
X1741010Y1611250*
X1741850Y1611620*
X1742590Y1612240*
X1743230Y1613110*
X1743770Y1614220*
X1744210Y1615580*
X1744560Y1617200*
X1744800Y1619050*
X1744950Y1621160*
X1745000Y1623510*
X1755000*
X1755050Y1621160*
G37*
G36*
X2299610Y1960630D02*
X2293520Y1960600D01*
X2277980Y1959430*
X2273720Y1958670*
X2269910Y1957730*
X2266550Y1956610*
X2263650Y1955300*
X2261210Y1953820*
X2259220Y1952150*
X2252150Y1959220*
X2253820Y1961210*
X2255300Y1963650*
X2256610Y1966550*
X2257730Y1969910*
X2258670Y1973720*
X2259430Y1977980*
X2260000Y1982700*
X2260600Y1993520*
X2260630Y1999610*
X2299610Y1960630*
G37*
G36*
X1655050Y1665440D02*
X1655200Y1663720D01*
X1655450Y1662200*
X1655800Y1660880*
X1656250Y1659770*
X1656800Y1658860*
X1657450Y1658150*
X1658200Y1657640*
X1659050Y1657340*
X1660000Y1657240*
X1640000*
X1640950Y1657340*
X1641800Y1657640*
X1642550Y1658150*
X1643200Y1658860*
X1643750Y1659770*
X1644200Y1660880*
X1644550Y1662200*
X1644800Y1663720*
X1644950Y1665440*
X1645000Y1667360*
X1655000*
X1655050Y1665440*
G37*
G36*
Y1621160D02*
X1655440Y1617200D01*
X1655790Y1615580*
X1656230Y1614220*
X1656770Y1613110*
X1657410Y1612240*
X1658150Y1611620*
X1658990Y1611250*
X1659930Y1611120*
X1640070*
X1641010Y1611250*
X1641850Y1611620*
X1642590Y1612240*
X1643230Y1613110*
X1643770Y1614220*
X1644210Y1615580*
X1644560Y1617200*
X1644800Y1619050*
X1644950Y1621160*
X1645000Y1623510*
X1655000*
X1655050Y1621160*
G37*
G36*
X2199610Y1960630D02*
X2193520Y1960600D01*
X2177980Y1959430*
X2173720Y1958670*
X2169900Y1957730*
X2166550Y1956610*
X2163650Y1955300*
X2161210Y1953820*
X2159220Y1952150*
X2152150Y1959220*
X2153820Y1961210*
X2155300Y1963650*
X2156610Y1966550*
X2157730Y1969910*
X2158670Y1973720*
X2159430Y1977980*
X2160000Y1982700*
X2160600Y1993520*
X2160630Y1999610*
X2199610Y1960630*
G37*
G36*
X1555050Y1665440D02*
X1555200Y1663720D01*
X1555450Y1662200*
X1555800Y1660880*
X1556250Y1659770*
X1556800Y1658860*
X1557450Y1658150*
X1558200Y1657640*
X1559050Y1657340*
X1560000Y1657240*
X1540000*
X1540950Y1657340*
X1541800Y1657640*
X1542550Y1658150*
X1543200Y1658860*
X1543750Y1659770*
X1544200Y1660880*
X1544550Y1662200*
X1544800Y1663720*
X1544950Y1665440*
X1545000Y1667360*
X1555000*
X1555050Y1665440*
G37*
G36*
Y1621160D02*
X1555440Y1617200D01*
X1555790Y1615580*
X1556230Y1614220*
X1556770Y1613110*
X1557410Y1612240*
X1558150Y1611620*
X1558990Y1611250*
X1559930Y1611120*
X1540070*
X1541010Y1611250*
X1541850Y1611620*
X1542590Y1612240*
X1543230Y1613110*
X1543770Y1614220*
X1544210Y1615580*
X1544560Y1617200*
X1544800Y1619050*
X1544950Y1621160*
X1545000Y1623510*
X1555000*
X1555050Y1621160*
G37*
G36*
X2099610Y1960630D02*
X2093520Y1960600D01*
X2077980Y1959430*
X2073720Y1958670*
X2069910Y1957730*
X2066550Y1956610*
X2063650Y1955300*
X2061210Y1953820*
X2059220Y1952150*
X2052150Y1959220*
X2053820Y1961210*
X2055300Y1963650*
X2056610Y1966550*
X2057730Y1969910*
X2058670Y1973720*
X2059430Y1977980*
X2060000Y1982700*
X2060600Y1993520*
X2060630Y1999610*
X2099610Y1960630*
G37*
G36*
X1455050Y1665440D02*
X1455200Y1663720D01*
X1455450Y1662200*
X1455800Y1660880*
X1456250Y1659770*
X1456800Y1658860*
X1457450Y1658150*
X1458200Y1657640*
X1459050Y1657340*
X1460000Y1657240*
X1440000*
X1440950Y1657340*
X1441800Y1657640*
X1442550Y1658150*
X1443200Y1658860*
X1443750Y1659770*
X1444200Y1660880*
X1444550Y1662200*
X1444800Y1663720*
X1444950Y1665440*
X1445000Y1667360*
X1455000*
X1455050Y1665440*
G37*
G36*
Y1621160D02*
X1455440Y1617200D01*
X1455790Y1615580*
X1456230Y1614220*
X1456770Y1613110*
X1457410Y1612240*
X1458150Y1611620*
X1458990Y1611250*
X1459930Y1611120*
X1440070*
X1441010Y1611250*
X1441850Y1611620*
X1442590Y1612240*
X1443230Y1613110*
X1443770Y1614220*
X1444210Y1615580*
X1444560Y1617200*
X1444800Y1619050*
X1444950Y1621160*
X1445000Y1623510*
X1455000*
X1455050Y1621160*
G37*
G36*
X1999610Y1960630D02*
X1993520Y1960600D01*
X1977980Y1959430*
X1973720Y1958670*
X1969910Y1957730*
X1966550Y1956610*
X1963650Y1955300*
X1961210Y1953820*
X1959220Y1952150*
X1952150Y1959220*
X1953820Y1961210*
X1955300Y1963650*
X1956610Y1966550*
X1957730Y1969910*
X1958670Y1973720*
X1959430Y1977980*
X1960000Y1982700*
X1960600Y1993520*
X1960630Y1999610*
X1999610Y1960630*
G37*
G36*
X1355050Y1665440D02*
X1355200Y1663720D01*
X1355450Y1662200*
X1355800Y1660880*
X1356250Y1659770*
X1356800Y1658860*
X1357450Y1658150*
X1358200Y1657640*
X1359050Y1657340*
X1360000Y1657240*
X1340000*
X1340950Y1657340*
X1341800Y1657640*
X1342550Y1658150*
X1343200Y1658860*
X1343750Y1659770*
X1344200Y1660880*
X1344550Y1662200*
X1344800Y1663720*
X1344950Y1665440*
X1345000Y1667360*
X1355000*
X1355050Y1665440*
G37*
G36*
Y1621160D02*
X1355440Y1617200D01*
X1355790Y1615580*
X1356230Y1614220*
X1356770Y1613110*
X1357410Y1612240*
X1358150Y1611620*
X1358990Y1611250*
X1359930Y1611120*
X1340070*
X1341010Y1611250*
X1341850Y1611620*
X1342590Y1612240*
X1343230Y1613110*
X1343770Y1614220*
X1344210Y1615580*
X1344560Y1617200*
X1344800Y1619050*
X1344950Y1621160*
X1345000Y1623510*
X1355000*
X1355050Y1621160*
G37*
G36*
X1650440Y1962040D02*
X1647510Y1961100D01*
X1644880Y1960000*
X1642570Y1958720*
X1640560Y1957280*
X1638860Y1955660*
X1637470Y1953870*
X1636390Y1951910*
X1635620Y1949770*
X1635150Y1947470*
X1635000Y1945000*
X1625000*
X1624870Y1947860*
X1624490Y1950690*
X1623850Y1953490*
X1622960Y1956250*
X1621810Y1958970*
X1620410Y1961660*
X1618750Y1964320*
X1616840Y1966930*
X1614680Y1969520*
X1612250Y1972070*
X1650440Y1962040*
G37*
G36*
X1255050Y1665440D02*
X1255200Y1663720D01*
X1255450Y1662200*
X1255800Y1660880*
X1256250Y1659770*
X1256800Y1658860*
X1257450Y1658150*
X1258200Y1657640*
X1259050Y1657340*
X1260000Y1657240*
X1240000*
X1240950Y1657340*
X1241800Y1657640*
X1242550Y1658150*
X1243200Y1658860*
X1243750Y1659770*
X1244200Y1660880*
X1244550Y1662200*
X1244800Y1663720*
X1244950Y1665440*
X1245000Y1667360*
X1255000*
X1255050Y1665440*
G37*
G36*
Y1621160D02*
X1255440Y1617200D01*
X1255790Y1615580*
X1256230Y1614220*
X1256770Y1613110*
X1257410Y1612240*
X1258150Y1611620*
X1258990Y1611250*
X1259930Y1611120*
X1240070*
X1241010Y1611250*
X1241850Y1611620*
X1242590Y1612240*
X1243230Y1613110*
X1243770Y1614220*
X1244210Y1615580*
X1244560Y1617200*
X1244800Y1619050*
X1244950Y1621160*
X1245000Y1623510*
X1255000*
X1255050Y1621160*
G37*
G36*
X1539610Y1960630D02*
X1533520Y1960600D01*
X1517980Y1959430*
X1513720Y1958670*
X1509900Y1957730*
X1506550Y1956610*
X1503650Y1955300*
X1501210Y1953820*
X1499220Y1952150*
X1492150Y1959220*
X1493820Y1961210*
X1495300Y1963650*
X1496610Y1966550*
X1497730Y1969910*
X1498670Y1973720*
X1499430Y1977980*
X1500000Y1982700*
X1500600Y1993520*
X1500630Y1999610*
X1539610Y1960630*
G37*
G36*
X1055030Y1663530D02*
X1055240Y1661040D01*
X1055420Y1660030*
X1055660Y1659180*
X1055950Y1658480*
X1056290Y1657940*
X1056690Y1657550*
X1057140Y1657320*
X1057640Y1657240*
X1042360*
X1042860Y1657320*
X1043310Y1657550*
X1043710Y1657940*
X1044050Y1658480*
X1044340Y1659180*
X1044580Y1660030*
X1044760Y1661040*
X1044890Y1662210*
X1044970Y1663530*
X1045000Y1665000*
X1055000*
X1055030Y1663530*
G37*
G36*
X1055050Y1621160D02*
X1055440Y1617200D01*
X1055790Y1615580*
X1056230Y1614220*
X1056770Y1613110*
X1057410Y1612240*
X1058150Y1611620*
X1058990Y1611250*
X1059930Y1611120*
X1040070*
X1041010Y1611250*
X1041850Y1611620*
X1042590Y1612240*
X1043230Y1613110*
X1043770Y1614220*
X1044210Y1615580*
X1044560Y1617200*
X1044800Y1619050*
X1044950Y1621160*
X1045000Y1623510*
X1055000*
X1055050Y1621160*
G37*
G36*
X1420130Y1159720D02*
X1416130Y1155050D01*
X1414500Y1152800*
X1413130Y1150610*
X1412000Y1148470*
X1411120Y1146400*
X1410500Y1144370*
X1410130Y1142410*
X1410000Y1140500*
X1400000*
X1399880Y1142410*
X1399500Y1144370*
X1398870Y1146400*
X1398000Y1148470*
X1396880Y1150610*
X1395500Y1152800*
X1393880Y1155050*
X1392000Y1157360*
X1387500Y1162150*
X1422500*
X1420130Y1159720*
G37*
G36*
X1555050Y465020D02*
X1555440Y461050D01*
X1555790Y459440*
X1556230Y458080*
X1556770Y456960*
X1557410Y456100*
X1558150Y455480*
X1558990Y455110*
X1559930Y454980*
X1540070*
X1541010Y455110*
X1541850Y455480*
X1542590Y456100*
X1543230Y456960*
X1543770Y458080*
X1544210Y459440*
X1544560Y461050*
X1544800Y462910*
X1544950Y465020*
X1545000Y467370*
X1555000*
X1555050Y465020*
G37*
G36*
X1120280Y1230120D02*
X1124950Y1226130D01*
X1127200Y1224500*
X1129390Y1223120*
X1131530Y1222000*
X1133600Y1221130*
X1135630Y1220500*
X1137590Y1220120*
X1139500Y1220000*
Y1210000*
X1137590Y1209870*
X1135630Y1209500*
X1133600Y1208870*
X1131530Y1208000*
X1129390Y1206870*
X1127200Y1205500*
X1124950Y1203870*
X1122640Y1202000*
X1117850Y1197500*
Y1232500*
X1120280Y1230120*
G37*
G36*
X1455050Y465020D02*
X1455440Y461050D01*
X1455790Y459440*
X1456230Y458080*
X1456770Y456960*
X1457410Y456100*
X1458150Y455480*
X1458990Y455110*
X1459930Y454980*
X1440070*
X1441010Y455110*
X1441850Y455480*
X1442590Y456100*
X1443230Y456960*
X1443770Y458080*
X1444210Y459440*
X1444560Y461050*
X1444800Y462910*
X1444950Y465020*
X1445000Y467370*
X1455000*
X1455050Y465020*
G37*
G36*
X1230030Y1056360D02*
X1230510Y1050230D01*
X1230950Y1047490*
X1231530Y1044960*
X1232240Y1042660*
X1233090Y1040570*
X1234080Y1038700*
X1235200Y1037050*
X1236460Y1035610*
X1229390Y1028540*
X1227950Y1029800*
X1226300Y1030920*
X1224430Y1031910*
X1222340Y1032760*
X1220040Y1033470*
X1217510Y1034050*
X1214770Y1034490*
X1211820Y1034800*
X1205250Y1035000*
X1230000Y1059750*
X1230030Y1056360*
G37*
G36*
X1065120Y709730D02*
X1061130Y705050D01*
X1059500Y702800*
X1058130Y700610*
X1057000Y698470*
X1056130Y696400*
X1055500Y694370*
X1055120Y692410*
X1055000Y690510*
X1045000*
X1044880Y692410*
X1044500Y694370*
X1043870Y696400*
X1043000Y698470*
X1041880Y700610*
X1040500Y702800*
X1038870Y705050*
X1037000Y707360*
X1032500Y712150*
X1067500*
X1065120Y709730*
G37*
G36*
X1055050Y465020D02*
X1055440Y461050D01*
X1055790Y459440*
X1056230Y458080*
X1056770Y456960*
X1057410Y456100*
X1058150Y455480*
X1058990Y455110*
X1059930Y454980*
X1040070*
X1041010Y455110*
X1041850Y455480*
X1042590Y456100*
X1043230Y456960*
X1043770Y458080*
X1044210Y459440*
X1044560Y461050*
X1044800Y462910*
X1044950Y465020*
X1045000Y467370*
X1055000*
X1055050Y465020*
G37*
G36*
X763270Y1967560D02*
X753120Y1955740D01*
X750640Y1952190*
X748610Y1948830*
X747030Y1945660*
X745900Y1942690*
X745230Y1939910*
X745000Y1937330*
X735000*
X734770Y1939910*
X734100Y1942690*
X732970Y1945660*
X731390Y1948830*
X729360Y1952190*
X726880Y1955740*
X723950Y1959490*
X716730Y1967560*
X712440Y1971880*
X767560*
X763270Y1967560*
G37*
G36*
X842330Y463820D02*
X842730Y460000D01*
X843090Y458610*
X843540Y457570*
X844090Y456880*
X844740Y456540*
X845490*
X846350Y456890*
X847300Y457590*
X831900Y444180*
X831970Y444460*
X832040Y444920*
X832140Y446380*
X832280Y453200*
Y455110*
X842280Y466250*
X842330Y463820*
G37*
G36*
X863270Y1967560D02*
X853120Y1955740D01*
X850640Y1952190*
X848610Y1948830*
X847030Y1945660*
X845900Y1942690*
X845230Y1939910*
X845000Y1937330*
X835000*
X834770Y1939910*
X834100Y1942690*
X832970Y1945660*
X831390Y1948830*
X829360Y1952190*
X826880Y1955740*
X823950Y1959490*
X816730Y1967560*
X812440Y1971880*
X867560*
X863270Y1967560*
G37*
G36*
X1159050Y1598450D02*
X1158200Y1598150D01*
X1157450Y1597650*
X1156800Y1596950*
X1156250Y1596050*
X1155800Y1594940*
X1155450Y1593640*
X1155200Y1592140*
X1155050Y1590450*
X1155000Y1588540*
X1145000*
X1144950Y1590450*
X1144800Y1592140*
X1144550Y1593640*
X1144200Y1594940*
X1143750Y1596050*
X1143200Y1596950*
X1142550Y1597650*
X1141800Y1598150*
X1140950Y1598450*
X1140000Y1598540*
X1160000*
X1159050Y1598450*
G37*
G36*
X1158990Y1538360D02*
X1158150Y1537990D01*
X1157410Y1537370*
X1156770Y1536500*
X1156230Y1535380*
X1155790Y1534020*
X1155440Y1532410*
X1155200Y1530550*
X1155050Y1528450*
X1155000Y1526090*
X1145000*
X1144950Y1528450*
X1144560Y1532410*
X1144210Y1534020*
X1143770Y1535380*
X1143230Y1536500*
X1142590Y1537370*
X1141850Y1537990*
X1141010Y1538360*
X1140070Y1538480*
X1159930*
X1158990Y1538360*
G37*
G36*
X1255050Y465020D02*
X1255440Y461050D01*
X1255790Y459440*
X1256230Y458080*
X1256770Y456960*
X1257410Y456100*
X1258150Y455480*
X1258990Y455110*
X1259930Y454980*
X1240070*
X1241010Y455110*
X1241850Y455480*
X1242590Y456100*
X1243230Y456960*
X1243770Y458080*
X1244210Y459440*
X1244560Y461050*
X1244800Y462910*
X1244950Y465020*
X1245000Y467370*
X1255000*
X1255050Y465020*
G37*
G36*
X1131940Y393760D02*
X1131830Y394350D01*
X1131550Y394870*
X1131100Y395340*
X1130480Y395740*
X1129690Y396080*
X1128720Y396360*
X1127580Y396580*
X1126270Y396740*
X1124790Y396830*
X1123140Y396860*
Y406860*
X1124730Y406890*
X1127390Y407140*
X1128470Y407360*
X1129370Y407640*
X1130110Y407980*
X1130680Y408390*
X1131080Y408850*
X1131320Y409380*
X1131380Y409980*
X1131940Y393760*
G37*
G36*
X1158990Y382220D02*
X1158150Y381840D01*
X1157410Y381220*
X1156770Y380360*
X1156230Y379240*
X1155790Y377880*
X1155440Y376270*
X1155200Y374410*
X1155050Y372310*
X1155000Y369950*
X1145000*
X1144950Y372310*
X1144560Y376270*
X1144210Y377880*
X1143770Y379240*
X1143230Y380360*
X1142590Y381220*
X1141850Y381840*
X1141010Y382220*
X1140070Y382340*
X1159930*
X1158990Y382220*
G37*
G36*
X659410Y382690D02*
X658550Y382360D01*
X658000Y381840*
X657770Y381150*
X657850Y380280*
X658260Y379240*
X658990Y378020*
X660030Y376620*
X661390Y375040*
X663070Y373290*
X653570Y368650*
X640630Y381760*
X660600Y382860*
X659410Y382690*
G37*
G36*
X1259050Y336000D02*
X1258200Y335700D01*
X1257450Y335200*
X1256800Y334500*
X1256250Y333600*
X1255800Y332500*
X1255450Y331200*
X1255200Y329700*
X1255050Y328000*
X1255000Y326100*
X1245000*
X1244950Y328000*
X1244800Y329700*
X1244550Y331200*
X1244200Y332500*
X1243750Y333600*
X1243200Y334500*
X1242550Y335200*
X1241800Y335700*
X1240950Y336000*
X1240000Y336100*
X1260000*
X1259050Y336000*
G37*
G36*
X1159050D02*
X1158200Y335700D01*
X1157450Y335200*
X1156800Y334500*
X1156250Y333600*
X1155800Y332500*
X1155450Y331200*
X1155200Y329700*
X1155050Y328000*
X1155000Y326100*
X1145000*
X1144950Y328000*
X1144800Y329700*
X1144550Y331200*
X1144200Y332500*
X1143750Y333600*
X1143200Y334500*
X1142550Y335200*
X1141800Y335700*
X1140950Y336000*
X1140000Y336100*
X1160000*
X1159050Y336000*
G37*
G36*
X664720Y336030D02*
X663730Y335820D01*
X663020Y335470*
X662600Y334970*
X662460Y334340*
X662600Y333560*
X663020Y332640*
X663730Y331580*
X664720Y330380*
X665990Y329030*
X655380Y325500*
X653300Y327510*
X649340Y330910*
X647460Y332290*
X645660Y333450*
X643930Y334410*
X642270Y335150*
X640680Y335680*
X639160Y336000*
X637710Y336100*
X665990*
X664720Y336030*
G37*
G36*
X1155130Y277590D02*
X1155500Y275620D01*
X1156120Y273600*
X1157000Y271530*
X1158130Y269390*
X1159500Y267200*
X1161120Y264950*
X1163000Y262640*
X1167500Y257850*
X1132500*
X1134880Y260280*
X1138880Y264950*
X1140500Y267200*
X1141880Y269390*
X1143000Y271530*
X1143880Y273600*
X1144500Y275620*
X1144880Y277590*
X1145000Y279500*
X1155000*
X1155130Y277590*
G37*
G36*
X2268350Y1598860D02*
X2268720Y1597400D01*
X2269200Y1595960*
X2269800Y1594530*
X2270510Y1593120*
X2271340Y1591710*
X2272290Y1590320*
X2273350Y1588940*
X2274520Y1587570*
X2275810Y1586220*
Y1572080*
X2274420Y1573400*
X2273180Y1574420*
X2272090Y1575150*
X2271150Y1575590*
X2270350Y1575740*
X2269710Y1575590*
X2269210Y1575150*
X2268870Y1574420*
X2268670Y1573400*
X2268620Y1572080*
X2268280Y1590720*
X2259950Y1587940*
X2257860Y1589950*
X2253910Y1593350*
X2252030Y1594730*
X2250230Y1595890*
X2248500Y1596850*
X2246830Y1597590*
X2245240Y1598120*
X2243720Y1598440*
X2242270Y1598540*
X2267600*
X2266890Y1598470*
X2266400Y1598260*
X2266140Y1597910*
X2266100Y1597410*
X2266280Y1596780*
X2266690Y1596000*
X2267320Y1595080*
X2268180Y1594020*
X2268220Y1593970*
X2268100Y1600320*
X2268350Y1598860*
G37*
G36*
X2305230Y160090D02*
X2305900Y157310D01*
X2307030Y154340*
X2308610Y151170*
X2310640Y147810*
X2313120Y144260*
X2316050Y140510*
X2323270Y132440*
X2327560Y128120*
X2272440*
X2276730Y132440*
X2286880Y144260*
X2289360Y147810*
X2291390Y151170*
X2292970Y154340*
X2294100Y157310*
X2294770Y160090*
X2295000Y162670*
X2305000*
X2305230Y160090*
G37*
G36*
X2168350Y1598860D02*
X2168720Y1597400D01*
X2169200Y1595960*
X2169800Y1594530*
X2170520Y1593120*
X2171340Y1591710*
X2172290Y1590320*
X2173350Y1588940*
X2174520Y1587570*
X2175810Y1586220*
Y1572080*
X2174420Y1573400*
X2173180Y1574420*
X2172090Y1575150*
X2171140Y1575590*
X2170350Y1575740*
X2169710Y1575590*
X2169210Y1575150*
X2168870Y1574420*
X2168670Y1573400*
X2168620Y1572080*
X2168280Y1590720*
X2159950Y1587940*
X2157870Y1589950*
X2153900Y1593350*
X2152030Y1594730*
X2150230Y1595890*
X2148500Y1596850*
X2146830Y1597590*
X2145240Y1598120*
X2143720Y1598440*
X2142270Y1598540*
X2167600*
X2166890Y1598470*
X2166400Y1598260*
X2166140Y1597910*
X2166100Y1597410*
X2166280Y1596780*
X2166690Y1596000*
X2167320Y1595080*
X2168180Y1594020*
X2168220Y1593970*
X2168100Y1600320*
X2168350Y1598860*
G37*
G36*
X2205230Y160090D02*
X2205900Y157310D01*
X2207030Y154340*
X2208610Y151170*
X2210640Y147810*
X2213120Y144260*
X2216050Y140510*
X2223270Y132440*
X2227560Y128120*
X2172440*
X2176730Y132440*
X2186880Y144260*
X2189360Y147810*
X2191390Y151170*
X2192970Y154340*
X2194100Y157310*
X2194770Y160090*
X2195000Y162670*
X2205000*
X2205230Y160090*
G37*
G36*
X2068350Y1598860D02*
X2068720Y1597400D01*
X2069200Y1595960*
X2069800Y1594530*
X2070510Y1593120*
X2071340Y1591710*
X2072290Y1590320*
X2073350Y1588940*
X2074520Y1587570*
X2075810Y1586220*
Y1572080*
X2074420Y1573400*
X2073180Y1574420*
X2072090Y1575150*
X2071150Y1575590*
X2070350Y1575740*
X2069710Y1575590*
X2069210Y1575150*
X2068870Y1574420*
X2068670Y1573400*
X2068620Y1572080*
X2068280Y1590720*
X2059950Y1587940*
X2057860Y1589950*
X2053910Y1593350*
X2052030Y1594730*
X2050230Y1595890*
X2048500Y1596850*
X2046830Y1597590*
X2045240Y1598120*
X2043720Y1598440*
X2042270Y1598540*
X2067600*
X2066890Y1598470*
X2066400Y1598260*
X2066140Y1597910*
X2066100Y1597410*
X2066280Y1596780*
X2066690Y1596000*
X2067320Y1595080*
X2068180Y1594020*
X2068220Y1593970*
X2068100Y1600320*
X2068350Y1598860*
G37*
G36*
X2105230Y160090D02*
X2105900Y157310D01*
X2107030Y154340*
X2108610Y151170*
X2110640Y147810*
X2113120Y144260*
X2116050Y140510*
X2123270Y132440*
X2127560Y128120*
X2072440*
X2076730Y132440*
X2086880Y144260*
X2089360Y147810*
X2091390Y151170*
X2092970Y154340*
X2094100Y157310*
X2094770Y160090*
X2095000Y162670*
X2105000*
X2105230Y160090*
G37*
G36*
X1968350Y1598860D02*
X1968720Y1597400D01*
X1969200Y1595960*
X1969800Y1594530*
X1970520Y1593120*
X1971340Y1591710*
X1972290Y1590320*
X1973350Y1588940*
X1974520Y1587570*
X1975810Y1586220*
Y1572080*
X1974420Y1573400*
X1973180Y1574420*
X1972090Y1575150*
X1971150Y1575590*
X1970350Y1575740*
X1969710Y1575590*
X1969210Y1575150*
X1968870Y1574420*
X1968670Y1573400*
X1968620Y1572080*
X1968280Y1590720*
X1959950Y1587940*
X1957860Y1589950*
X1953900Y1593350*
X1952030Y1594730*
X1950230Y1595890*
X1948500Y1596850*
X1946830Y1597590*
X1945240Y1598120*
X1943720Y1598440*
X1942270Y1598540*
X1967600*
X1966890Y1598470*
X1966400Y1598260*
X1966140Y1597910*
X1966100Y1597410*
X1966280Y1596780*
X1966690Y1596000*
X1967320Y1595080*
X1968180Y1594020*
X1968220Y1593970*
X1968100Y1600320*
X1968350Y1598860*
G37*
G36*
X2005230Y160090D02*
X2005900Y157310D01*
X2007030Y154340*
X2008610Y151170*
X2010640Y147810*
X2013120Y144260*
X2016050Y140510*
X2023270Y132440*
X2027560Y128120*
X1972440*
X1976730Y132440*
X1986880Y144260*
X1989360Y147810*
X1991390Y151170*
X1992970Y154340*
X1994100Y157310*
X1994770Y160090*
X1995000Y162670*
X2005000*
X2005230Y160090*
G37*
G36*
X1515130Y529730D02*
X1511120Y525050D01*
X1509500Y522800*
X1508120Y520610*
X1507000Y518470*
X1506120Y516400*
X1505500Y514370*
X1505130Y512410*
X1505000Y510510*
X1495000*
X1494870Y512410*
X1494500Y514370*
X1493880Y516400*
X1493000Y518470*
X1491880Y520610*
X1490500Y522800*
X1488880Y525050*
X1487000Y527360*
X1482500Y532150*
X1517500*
X1515130Y529730*
G37*
G36*
X1408570Y146670D02*
X1408740Y144970D01*
X1409020Y143420*
X1409420Y142020*
X1409930Y140770*
X1410550Y139660*
X1411290Y138710*
X1412140Y137900*
X1413110Y137240*
X1414180Y136730*
X1392570Y138660*
X1393700Y138970*
X1394710Y139420*
X1395600Y140030*
X1396370Y140790*
X1397030Y141700*
X1397560Y142760*
X1397980Y143970*
X1398270Y145330*
X1398450Y146850*
X1398510Y148510*
X1408510*
X1408570Y146670*
G37*
G36*
X1415130Y504720D02*
X1411120Y500050D01*
X1409500Y497800*
X1408130Y495610*
X1407000Y493470*
X1406120Y491400*
X1405500Y489370*
X1405130Y487410*
X1405000Y485510*
X1395000*
X1394880Y487410*
X1394500Y489370*
X1393880Y491400*
X1393000Y493470*
X1391880Y495610*
X1390500Y497800*
X1388880Y500050*
X1387000Y502360*
X1382500Y507150*
X1417500*
X1415130Y504720*
G37*
G36*
X1347850Y140780D02*
X1346180Y138790D01*
X1344700Y136350*
X1343390Y133450*
X1342270Y130100*
X1341330Y126280*
X1340570Y122020*
X1340000Y117290*
X1339400Y106480*
X1339370Y100390*
X1300390Y139370*
X1306480Y139400*
X1322020Y140570*
X1326280Y141330*
X1330100Y142270*
X1333450Y143390*
X1336350Y144700*
X1338790Y146180*
X1340780Y147850*
X1347850Y140780*
G37*
G54D12*
X846060Y398980D02*
X850000D01*
X837280Y407760D02*
X846060Y398980D01*
X837280Y407760D02*
Y527720D01*
X1150000Y357640D02*
Y398980D01*
Y240000D02*
Y357640D01*
X1350000Y418660D02*
Y460000D01*
Y398980D02*
Y418660D01*
X1450000D02*
Y590000D01*
Y398980D02*
Y418660D01*
X1550000D02*
Y670000D01*
Y398980D02*
Y418660D01*
X1050000Y1635830D02*
Y1665000D01*
Y1601020D02*
Y1635830D01*
X1250000D02*
Y1720000D01*
Y1601020D02*
Y1635830D01*
X1850000D02*
Y1680000D01*
Y1601020D02*
Y1635830D01*
X1750000D02*
Y1690000D01*
Y1601020D02*
Y1635830D01*
X1650000D02*
Y1690000D01*
Y1601020D02*
Y1635830D01*
X1550000D02*
Y1715000D01*
Y1601020D02*
Y1635830D01*
X1450000D02*
Y1720000D01*
Y1601020D02*
Y1635830D01*
X1350000D02*
Y1710000D01*
Y1601020D02*
Y1635830D01*
X1050000Y418660D02*
Y730000D01*
Y398980D02*
Y418660D01*
X2253940Y1601020D02*
X2300000Y1554960D01*
X2250000Y1601020D02*
X2253940D01*
X2153940D02*
X2200000Y1554960D01*
X2150000Y1601020D02*
X2153940D01*
X2053940D02*
X2100000Y1554960D01*
X2050000Y1601020D02*
X2053940D01*
X1953940D02*
X2000000Y1554960D01*
X1950000Y1601020D02*
X1953940D01*
X1150000Y1574800D02*
Y1601020D01*
Y1440000D02*
Y1574800D01*
X1250000Y418660D02*
Y480670D01*
Y398980D02*
Y418660D01*
X650000Y379290D02*
X662720Y366580D01*
X1050000Y1665000D02*
X1195000Y1810000D01*
X1350000D02*
X1540000Y2000000D01*
X1195000Y1810000D02*
X1350000D01*
X2200000Y1700000D02*
X2500000Y2000000D01*
X1850000Y1680000D02*
X1870000Y1700000D01*
X2200000*
X1650000Y1690000D02*
X1725000Y1765000D01*
X2065000D02*
X2300000Y2000000D01*
X1725000Y1765000D02*
X2065000D01*
X1750000Y1690000D02*
X1795000Y1735000D01*
X2135000D02*
X2400000Y2000000D01*
X1795000Y1735000D02*
X2135000D01*
X650000Y337950D02*
X787950Y200000D01*
X795000Y570000D02*
X837280Y527720D01*
X795000Y570000D02*
Y1695000D01*
X1500000Y245000D02*
Y550000D01*
X1403510Y148510D02*
X1500000Y245000D01*
X1403510Y103510D02*
Y148510D01*
X1400000Y100000D02*
X1403510Y103510D01*
X787950Y200000D02*
X1190000D01*
X1250000Y260000D02*
Y337950D01*
X1190000Y200000D02*
X1250000Y260000D01*
X1210000Y1915000D02*
X1240000Y1945000D01*
Y2000000*
X985000Y1915000D02*
X1210000D01*
X953150Y1946850D02*
X985000Y1915000D01*
X953150Y1946850D02*
Y1986850D01*
X940000Y2000000D02*
X953150Y1986850D01*
X740000Y1750000D02*
Y2000000D01*
Y1750000D02*
X795000Y1695000D01*
X1295000Y1765000D02*
X1355000D01*
X1509830Y1919830*
X1604830*
X1400000Y200000D02*
Y525000D01*
X1300000Y100000D02*
X1400000Y200000D01*
X1405000Y815000D02*
Y1180000D01*
Y815000D02*
X1550000Y670000D01*
X1330000Y710000D02*
X1450000Y590000D01*
X1330000Y710000D02*
Y1035000D01*
X1630000Y1945000D02*
Y1990000D01*
X1604830Y1919830D02*
X1630000Y1945000D01*
Y1990000D02*
X1640000Y2000000D01*
X1550000Y1715000D02*
X1630000Y1795000D01*
X1995000D02*
X2200000Y2000000D01*
X1630000Y1795000D02*
X1995000D01*
X1450000Y1720000D02*
X1560000Y1830000D01*
X1930000D02*
X2100000Y2000000D01*
X1560000Y1830000D02*
X1930000D01*
X1870000Y1870000D02*
X2000000Y2000000D01*
X1350000Y1710000D02*
X1510000Y1870000D01*
X1870000*
X1250000Y1720000D02*
X1295000Y1765000D01*
X1030000Y1320000D02*
X1150000Y1440000D01*
X1030000Y1145000D02*
Y1320000D01*
X1160000Y570670D02*
Y1015000D01*
X1030000Y1145000D02*
X1160000Y1015000D01*
Y570670D02*
X1250000Y480670D01*
X1150000Y1215000D02*
X1330000Y1035000D01*
X1100000Y1215000D02*
X1150000D01*
X1245000Y565000D02*
X1350000Y460000D01*
X1205000Y1060000D02*
X1245000Y1020000D01*
Y565000D02*
Y1020000D01*
X1105000Y420000D02*
Y755000D01*
X916300Y943700D02*
Y1653700D01*
Y943700D02*
X1105000Y755000D01*
X650000Y379290D02*
Y398980D01*
X1147120Y401860D02*
X1150000Y398980D01*
X1105000Y420000D02*
X1123140Y401860D01*
X1147120*
X840000Y1730000D02*
X916300Y1653700D01*
X840000Y1730000D02*
Y2000000D01*
X2000000Y100000D02*
Y1554960D01*
X2100000Y100000D02*
Y1554960D01*
X2200000Y100000D02*
Y1554960D01*
X2300000Y100000D02*
Y1554960D01*
G54D20*
X660000Y165000D02*
X1160000D01*
X507610Y317390D02*
X660000Y165000D01*
X1160000D02*
X1189720Y135280D01*
Y110280D02*
X1200000Y100000D01*
X1189720Y110280D02*
Y135280D01*
X439100Y317390D02*
X507610D01*
X402760Y353740D02*
X439100Y317390D01*
X441130Y392120D02*
Y1457710D01*
X402760Y353740D02*
X441130Y392120D01*
Y1457710D02*
X450000Y1466580D01*
X575670Y1592240*
X641220*
G54D21*
X2500000Y2000000D03*
X2400000D03*
X2300000D03*
X2100000D03*
X2000000D03*
X1900000D03*
X1800000D03*
X2200000D03*
X1800000Y100000D03*
X1700000D03*
X1600000D03*
X1400000D03*
X1300000D03*
X1200000D03*
X1100000D03*
X1500000D03*
X740000Y2000000D03*
X840000D03*
X940000D03*
X1140000D03*
X1240000D03*
X1340000D03*
X1440000D03*
X1540000D03*
X1640000D03*
X1040000D03*
X2500000Y100000D03*
X2400000D03*
X2300000D03*
X2100000D03*
X2000000D03*
X2200000D03*
G54D22*
X2150000Y1574800D03*
X2050000D03*
X1950000D03*
X1850000D03*
X1750000D03*
X1650000D03*
X1550000D03*
X1450000D03*
X1350000D03*
X1250000D03*
X1150000D03*
X1050000D03*
X950000D03*
X850000D03*
X750000D03*
X650000D03*
X2450000D03*
X2350000D03*
X2250000D03*
X850000Y418660D03*
X750000D03*
X650000D03*
X2450000D03*
X2350000D03*
X2250000D03*
X2150000D03*
X2050000D03*
X1950000D03*
X1850000D03*
X1750000D03*
X1650000D03*
X1550000D03*
X1450000D03*
X1350000D03*
X1250000D03*
X1150000D03*
X1050000D03*
X950000D03*
G54D23*
X2150000Y1627950D03*
X2050000D03*
X1950000D03*
X1850000D03*
X1750000D03*
X1650000D03*
X1550000D03*
X1450000D03*
X1350000D03*
X1250000D03*
X1150000D03*
X1050000D03*
X950000D03*
X850000D03*
X750000D03*
X650000D03*
X2450000D03*
X2350000D03*
X2250000D03*
X850000Y365510D03*
X750000D03*
X650000D03*
X2450000D03*
X2350000D03*
X2250000D03*
X2150000D03*
X2050000D03*
X1950000D03*
X1850000D03*
X1750000D03*
X1650000D03*
X1550000D03*
X1450000D03*
X1350000D03*
X1250000D03*
X1150000D03*
X1050000D03*
X950000D03*
G54D24*
X450000Y1565000D03*
X371260D03*
X450000Y1466580D03*
X371260D03*
G54D25*
X264570Y1752790D03*
Y1278780D03*
G54D26*
X402760Y353740D03*
X286610Y160830D03*
X166540Y353740D03*
G54D27*
X1500000Y550000D03*
X1400000Y525000D03*
X1100000Y1215000D03*
X1205000Y1060000D03*
X1405000Y1180000D03*
X1050000Y730000D03*
X1150000Y240000D03*
M02*