%FSLAX66Y66*%
%MOIN*%
%SFA1B1*%

%IPPOS*%
%ADD12C,0.010000*%
%ADD20C,0.025000*%
%ADD21C,0.078740*%
%ADD22O,0.037400X0.078740*%
%ADD23R,0.035430X0.059060*%
%ADD24C,0.056340*%
%ADD25C,0.135830*%
%ADD26C,0.177170*%
%ADD27C,0.050000*%
%LNesp32-hwe-uno-1*%
%LPD*%
G36*
X2600000Y2040000D02*
Y1590000D01*
X2700000Y1490000*
Y200000*
X2600000Y100000*
Y0*
X0*
Y2100000*
X2540000*
X2600000Y2040000*
G37*
%LNesp32-hwe-uno-2*%
%LPC*%
G36*
X1046500Y2049370D02*
X1045000D01*
Y2005000*
X1089370*
Y2006500*
X1086010Y2019060*
X1079510Y2030310*
X1070310Y2039510*
X1059060Y2046010*
X1046500Y2049370*
G37*
G36*
X1035000D02*
X1033500D01*
X1020940Y2046010*
X1009690Y2039510*
X1000490Y2030310*
X993990Y2019060*
X990630Y2006500*
Y2005000*
X1035000*
Y2049370*
G37*
G36*
X2505840Y2044370D02*
X2494160D01*
X2482870Y2041350*
X2472760Y2035510*
X2464490Y2027240*
X2458650Y2017130*
X2455630Y2005840*
Y1994160*
X2458650Y1982870*
X2464490Y1972760*
X2472760Y1964490*
X2482870Y1958650*
X2494160Y1955630*
X2505840*
X2517130Y1958650*
X2527240Y1964490*
X2535510Y1972760*
X2541350Y1982870*
X2544370Y1994160*
Y2005840*
X2541350Y2017130*
X2535510Y2027240*
X2527240Y2035510*
X2517130Y2041350*
X2505840Y2044370*
G37*
G36*
X2405840D02*
X2394160D01*
X2382870Y2041350*
X2372760Y2035510*
X2364500Y2027240*
X2358650Y2017130*
X2355630Y2005840*
Y1994160*
X2358650Y1982870*
X2364500Y1972760*
X2372760Y1964490*
X2382870Y1958650*
X2394160Y1955630*
X2405840*
X2417130Y1958650*
X2427240Y1964490*
X2435500Y1972760*
X2441350Y1982870*
X2444370Y1994160*
Y2005840*
X2441350Y2017130*
X2435500Y2027240*
X2427240Y2035510*
X2417130Y2041350*
X2405840Y2044370*
G37*
G36*
X2305840D02*
X2294160D01*
X2282870Y2041350*
X2272760Y2035510*
X2264490Y2027240*
X2258650Y2017130*
X2255630Y2005840*
Y1994160*
X2258650Y1982870*
X2264490Y1972760*
X2272760Y1964490*
X2282870Y1958650*
X2294160Y1955630*
X2305840*
X2317130Y1958650*
X2327240Y1964490*
X2335510Y1972760*
X2341350Y1982870*
X2344370Y1994160*
Y2005840*
X2341350Y2017130*
X2335510Y2027240*
X2327240Y2035510*
X2317130Y2041350*
X2305840Y2044370*
G37*
G36*
X2205840D02*
X2194160D01*
X2182870Y2041350*
X2172760Y2035510*
X2164490Y2027240*
X2158650Y2017130*
X2155630Y2005840*
Y1994160*
X2158650Y1982870*
X2164490Y1972760*
X2172760Y1964490*
X2182870Y1958650*
X2194160Y1955630*
X2205840*
X2217130Y1958650*
X2227240Y1964490*
X2235510Y1972760*
X2241350Y1982870*
X2244370Y1994160*
Y2005840*
X2241350Y2017130*
X2235510Y2027240*
X2227240Y2035510*
X2217130Y2041350*
X2205840Y2044370*
G37*
G36*
X2105840D02*
X2094160D01*
X2082870Y2041350*
X2072760Y2035510*
X2064500Y2027240*
X2058650Y2017130*
X2055630Y2005840*
Y1994160*
X2058650Y1982870*
X2064500Y1972760*
X2072760Y1964490*
X2082870Y1958650*
X2094160Y1955630*
X2105840*
X2117130Y1958650*
X2127240Y1964490*
X2135500Y1972760*
X2141350Y1982870*
X2144370Y1994160*
Y2005840*
X2141350Y2017130*
X2135500Y2027240*
X2127240Y2035510*
X2117130Y2041350*
X2105840Y2044370*
G37*
G36*
X2005840D02*
X1994160D01*
X1982870Y2041350*
X1972760Y2035510*
X1964490Y2027240*
X1958650Y2017130*
X1955630Y2005840*
Y1994160*
X1958650Y1982870*
X1964490Y1972760*
X1972760Y1964490*
X1982870Y1958650*
X1994160Y1955630*
X2005840*
X2017130Y1958650*
X2027240Y1964490*
X2035510Y1972760*
X2041350Y1982870*
X2044370Y1994160*
Y2005840*
X2041350Y2017130*
X2035510Y2027240*
X2027240Y2035510*
X2017130Y2041350*
X2005840Y2044370*
G37*
G36*
X1805840D02*
X1794160D01*
X1782870Y2041350*
X1772760Y2035510*
X1764500Y2027240*
X1758650Y2017130*
X1757420Y2012510*
X1756770Y2011680*
Y2011670*
X1756760Y2011660*
X1754900Y2004870*
X1749780Y1988140*
X1746830Y1980130*
X1745550Y1977170*
X1744390Y1974880*
X1743450Y1973350*
X1742510Y1972200*
X1742400Y1971820*
X1492790Y1722210*
X1490580Y1718900*
X1489800Y1715000*
Y1184220*
X1071260Y765680*
X1070820Y765530*
X1069640Y764490*
X1068510Y763730*
X1067140Y763000*
X1065520Y762340*
X1063630Y761760*
X1061480Y761260*
X1059130Y760890*
X1053410Y760440*
X1050200Y760410*
X1049230Y760000*
X1046050*
X1038420Y757960*
X1031580Y754010*
X1025990Y748420*
X1022040Y741580*
X1020000Y733950*
Y726050*
X1022040Y718420*
X1025990Y711580*
X1031580Y705990*
X1038420Y702040*
X1046050Y700000*
X1053950*
X1061580Y702040*
X1068420Y705990*
X1074010Y711580*
X1077960Y718420*
X1080000Y726050*
Y729180*
X1080410Y730080*
X1080610Y736450*
X1080870Y739060*
X1081260Y741480*
X1081760Y743630*
X1082340Y745520*
X1083000Y747140*
X1083730Y748510*
X1084490Y749640*
X1085530Y750820*
X1085680Y751260*
X1507210Y1172790*
X1509420Y1176100*
X1510200Y1180000*
Y1710780*
X1754400Y1954980*
X1754420*
X1754490Y1955070*
X1754860Y1955440*
X1755270Y1955570*
X1757150Y1957160*
X1758970Y1958240*
X1761120Y1959100*
X1763660Y1959720*
X1766620Y1960080*
X1769990Y1960140*
X1773780Y1959870*
X1777970Y1959260*
X1782550Y1958310*
X1787630Y1956960*
X1788670Y1957100*
X1794160Y1955630*
X1805840*
X1817130Y1958650*
X1827240Y1964490*
X1835510Y1972760*
X1841350Y1982870*
X1844370Y1994160*
Y2005840*
X1841350Y2017130*
X1835510Y2027240*
X1827240Y2035510*
X1817130Y2041350*
X1805840Y2044370*
G37*
G36*
X1645840D02*
X1634160D01*
X1622870Y2041350*
X1612760Y2035510*
X1604500Y2027240*
X1598650Y2017130*
X1595630Y2005840*
Y1994160*
X1598650Y1982870*
X1604500Y1972760*
X1612760Y1964490*
X1622870Y1958650*
X1634160Y1955630*
X1645840*
X1657130Y1958650*
X1667240Y1964490*
X1675510Y1972760*
X1681350Y1982870*
X1684370Y1994160*
Y2005840*
X1681350Y2017130*
X1675510Y2027240*
X1667240Y2035510*
X1657130Y2041350*
X1645840Y2044370*
G37*
G36*
X1545840D02*
X1534160D01*
X1522870Y2041350*
X1512760Y2035510*
X1504500Y2027240*
X1498650Y2017130*
X1495630Y2005840*
Y1994160*
X1498650Y1982870*
X1504500Y1972760*
X1512760Y1964490*
X1522870Y1958650*
X1534160Y1955630*
X1545840*
X1557130Y1958650*
X1567240Y1964490*
X1575510Y1972760*
X1581350Y1982870*
X1584370Y1994160*
Y2005840*
X1581350Y2017130*
X1575510Y2027240*
X1567240Y2035510*
X1557130Y2041350*
X1545840Y2044370*
G37*
G36*
X945840D02*
X934160D01*
X922870Y2041350*
X912760Y2035510*
X904500Y2027240*
X898650Y2017130*
X895630Y2005840*
Y1994160*
X898650Y1982870*
X904500Y1972760*
X912760Y1964490*
X922870Y1958650*
X934160Y1955630*
X945840*
X957130Y1958650*
X967240Y1964490*
X975500Y1972760*
X981350Y1982870*
X984370Y1994160*
Y2005840*
X981350Y2017130*
X975500Y2027240*
X967240Y2035510*
X957130Y2041350*
X945840Y2044370*
G37*
G36*
X845840D02*
X834160D01*
X822870Y2041350*
X812760Y2035510*
X804490Y2027240*
X798650Y2017130*
X795630Y2005840*
Y1994160*
X798650Y1982870*
X804490Y1972760*
X812760Y1964490*
X822870Y1958650*
X834160Y1955630*
X845840*
X857130Y1958650*
X867240Y1964490*
X875500Y1972760*
X881350Y1982870*
X884370Y1994160*
Y2005840*
X881350Y2017130*
X875500Y2027240*
X867240Y2035510*
X857130Y2041350*
X845840Y2044370*
G37*
G36*
X745840D02*
X734160D01*
X722870Y2041350*
X712760Y2035510*
X704500Y2027240*
X698650Y2017130*
X695630Y2005840*
Y1994160*
X698650Y1982870*
X704500Y1972760*
X712760Y1964490*
X722870Y1958650*
X734160Y1955630*
X745840*
X757130Y1958650*
X767240Y1964490*
X775510Y1972760*
X781350Y1982870*
X784370Y1994160*
Y2005840*
X781350Y2017130*
X775510Y2027240*
X767240Y2035510*
X757130Y2041350*
X745840Y2044370*
G37*
G36*
X1089370Y1995000D02*
X1045000D01*
Y1950630*
X1046500*
X1059060Y1953990*
X1070310Y1960490*
X1079510Y1969690*
X1086010Y1980940*
X1089370Y1993500*
Y1995000*
G37*
G36*
X1035000D02*
X990630D01*
Y1993500*
X993990Y1980940*
X1000490Y1969690*
X1009690Y1960490*
X1020940Y1953990*
X1033500Y1950630*
X1035000*
Y1995000*
G37*
G36*
X606650Y2067500D02*
X593350D01*
X580310Y2064910*
X568030Y2059820*
X556970Y2052430*
X547570Y2043030*
X540180Y2031970*
X535090Y2019690*
X532500Y2006650*
Y1993350*
X535090Y1980310*
X540180Y1968030*
X547570Y1956970*
X556970Y1947570*
X568030Y1940180*
X580310Y1935090*
X593350Y1932500*
X606650*
X619690Y1935090*
X631970Y1940180*
X643030Y1947570*
X652430Y1956970*
X659820Y1968030*
X664910Y1980310*
X667500Y1993350*
Y2006650*
X664910Y2019690*
X659820Y2031970*
X652430Y2043030*
X643030Y2052430*
X631970Y2059820*
X619690Y2064910*
X606650Y2067500*
G37*
G36*
X272240Y1830710D02*
X269570D01*
Y1757790*
X342480*
Y1760470*
X339490Y1775520*
X333610Y1789700*
X325090Y1802460*
X314230Y1813320*
X301470Y1821840*
X287290Y1827720*
X272240Y1830710*
G37*
G36*
X259570D02*
X256890D01*
X241840Y1827720*
X227660Y1821840*
X214900Y1813320*
X204050Y1802460*
X195520Y1789700*
X189650Y1775520*
X186650Y1760470*
Y1757790*
X259570*
Y1830710*
G37*
G36*
X342480Y1747790D02*
X269570D01*
Y1674880*
X272240*
X287290Y1677880*
X301470Y1683750*
X314230Y1692280*
X325090Y1703130*
X333610Y1715890*
X339490Y1730070*
X342480Y1745120*
Y1747790*
G37*
G36*
X259570D02*
X186650D01*
Y1745120*
X189650Y1730070*
X195520Y1715890*
X204050Y1703130*
X214900Y1692280*
X227660Y1683750*
X241840Y1677880*
X256890Y1674880*
X259570*
Y1747790*
G37*
G36*
X454370Y1598170D02*
X445630D01*
X437200Y1595910*
X429630Y1591540*
X423460Y1585370*
X419090Y1577800*
X416830Y1569370*
Y1560630*
X419090Y1552200*
X423460Y1544630*
X429630Y1538460*
X437200Y1534090*
X445630Y1531830*
X454370*
X462800Y1534090*
X470370Y1538460*
X476540Y1544630*
X480910Y1552200*
X483170Y1560630*
Y1569370*
X480910Y1577800*
X476540Y1585370*
X470370Y1591540*
X462800Y1595910*
X454370Y1598170*
G37*
G36*
X375630D02*
X366890D01*
X358460Y1595910*
X350890Y1591540*
X344720Y1585370*
X340350Y1577800*
X338090Y1569370*
Y1560630*
X340350Y1552200*
X344720Y1544630*
X350890Y1538460*
X358460Y1534090*
X366890Y1531830*
X375630*
X384060Y1534090*
X391630Y1538460*
X397800Y1544630*
X402170Y1552200*
X404430Y1560630*
Y1569370*
X402170Y1577800*
X397800Y1585370*
X391630Y1591540*
X384060Y1595910*
X375630Y1598170*
G37*
G36*
X2272720Y1662480D02*
X2227280D01*
Y1602750*
X2225840Y1595470*
Y1554130*
X2227670Y1544890*
X2232910Y1537050*
X2240750Y1531810*
X2250000Y1529970*
X2259250Y1531810*
X2267090Y1537050*
X2272330Y1544890*
X2274160Y1554130*
Y1595470*
X2272720Y1602750*
Y1662480*
G37*
G36*
X2172720D02*
X2127280D01*
Y1602750*
X2125830Y1595470*
Y1554130*
X2127670Y1544890*
X2132910Y1537050*
X2140750Y1531810*
X2150000Y1529970*
X2159250Y1531810*
X2167090Y1537050*
X2172330Y1544890*
X2174170Y1554130*
Y1595470*
X2172720Y1602750*
Y1662480*
G37*
G36*
X2072720D02*
X2027280D01*
Y1602750*
X2025840Y1595470*
Y1554130*
X2027670Y1544890*
X2032910Y1537050*
X2040750Y1531810*
X2050000Y1529970*
X2059250Y1531810*
X2067090Y1537050*
X2072330Y1544890*
X2074170Y1554130*
Y1595470*
X2072720Y1602750*
Y1662480*
G37*
G36*
X1972720D02*
X1927280D01*
Y1602750*
X1925840Y1595470*
Y1554130*
X1927670Y1544890*
X1932910Y1537050*
X1940750Y1531810*
X1950000Y1529970*
X1959250Y1531810*
X1967090Y1537050*
X1972330Y1544890*
X1974160Y1554130*
Y1595470*
X1972720Y1602750*
Y1662480*
G37*
G36*
X1872720D02*
X1827280D01*
Y1602750*
X1825830Y1595470*
Y1554130*
X1827670Y1544890*
X1832910Y1537050*
X1840750Y1531810*
X1850000Y1529970*
X1859250Y1531810*
X1867090Y1537050*
X1872330Y1544890*
X1874170Y1554130*
Y1595470*
X1872720Y1602750*
Y1662480*
G37*
G36*
X1772720D02*
X1727280D01*
Y1602750*
X1725830Y1595470*
Y1554130*
X1727670Y1544890*
X1732910Y1537050*
X1740750Y1531810*
X1750000Y1529970*
X1759250Y1531810*
X1767090Y1537050*
X1772330Y1544890*
X1774170Y1554130*
Y1595470*
X1772720Y1602750*
Y1662480*
G37*
G36*
X1672720D02*
X1627280D01*
Y1602750*
X1625830Y1595470*
Y1554130*
X1627670Y1544890*
X1632910Y1537050*
X1640750Y1531810*
X1650000Y1529970*
X1659250Y1531810*
X1667090Y1537050*
X1672330Y1544890*
X1674170Y1554130*
Y1595470*
X1672720Y1602750*
Y1662480*
G37*
G36*
X1572720D02*
X1527280D01*
Y1602750*
X1525840Y1595470*
Y1554130*
X1527670Y1544890*
X1532910Y1537050*
X1540750Y1531810*
X1550000Y1529970*
X1559250Y1531810*
X1567090Y1537050*
X1572330Y1544890*
X1574160Y1554130*
Y1595470*
X1572720Y1602750*
Y1662480*
G37*
G36*
X1472720D02*
X1427280D01*
Y1602750*
X1425840Y1595470*
Y1554130*
X1427670Y1544890*
X1432910Y1537050*
X1440750Y1531810*
X1450000Y1529970*
X1459250Y1531810*
X1467090Y1537050*
X1472330Y1544890*
X1474160Y1554130*
Y1595470*
X1472720Y1602750*
Y1662480*
G37*
G36*
X1372720D02*
X1327280D01*
Y1602750*
X1325830Y1595470*
Y1554130*
X1327670Y1544890*
X1332910Y1537050*
X1340750Y1531810*
X1350000Y1529970*
X1359250Y1531810*
X1367090Y1537050*
X1372330Y1544890*
X1374170Y1554130*
Y1595470*
X1372720Y1602750*
Y1662480*
G37*
G36*
X1272720D02*
X1227280D01*
Y1602750*
X1225830Y1595470*
Y1554130*
X1227670Y1544890*
X1232910Y1537050*
X1240750Y1531810*
X1250000Y1529970*
X1259250Y1531810*
X1267090Y1537050*
X1272330Y1544890*
X1274170Y1554130*
Y1595470*
X1272720Y1602750*
Y1662480*
G37*
G36*
X1172720D02*
X1127280D01*
Y1602750*
X1125830Y1595470*
Y1554130*
X1127670Y1544890*
X1132910Y1537050*
X1140750Y1531810*
X1150000Y1529970*
X1159250Y1531810*
X1167090Y1537050*
X1172330Y1544890*
X1174170Y1554130*
Y1595470*
X1172720Y1602750*
Y1662480*
G37*
G36*
X1072720D02*
X1027280D01*
Y1602750*
X1025840Y1595470*
Y1554130*
X1027670Y1544890*
X1032910Y1537050*
X1040750Y1531810*
X1050000Y1529970*
X1059250Y1531810*
X1067090Y1537050*
X1072330Y1544890*
X1074160Y1554130*
Y1595470*
X1072720Y1602750*
Y1662480*
G37*
G36*
X972720D02*
X927280D01*
Y1602750*
X925840Y1595470*
Y1554130*
X927670Y1544890*
X932910Y1537050*
X940750Y1531810*
X950000Y1529970*
X959250Y1531810*
X967090Y1537050*
X972330Y1544890*
X974170Y1554130*
Y1595470*
X972720Y1602750*
Y1662480*
G37*
G36*
X872720D02*
X827280D01*
Y1602750*
X825830Y1595470*
Y1554130*
X827670Y1544890*
X832910Y1537050*
X840750Y1531810*
X850000Y1529970*
X859250Y1531810*
X867090Y1537050*
X872330Y1544890*
X874160Y1554130*
Y1595470*
X872720Y1602750*
Y1662480*
G37*
G36*
X772720D02*
X727280D01*
Y1602750*
X725840Y1595470*
Y1554130*
X727670Y1544890*
X732910Y1537050*
X740750Y1531810*
X750000Y1529970*
X759250Y1531810*
X767090Y1537050*
X772330Y1544890*
X774160Y1554130*
Y1595470*
X772720Y1602750*
Y1662480*
G37*
G36*
X672720D02*
X627280D01*
Y1602750*
X625840Y1595470*
Y1554130*
X627670Y1544890*
X632910Y1537050*
X640750Y1531810*
X650000Y1529970*
X659250Y1531810*
X667090Y1537050*
X672330Y1544890*
X674170Y1554130*
Y1595470*
X672720Y1602750*
Y1662480*
G37*
G36*
X376280Y1504740D02*
X376260D01*
Y1471580*
X409430*
Y1471600*
X406830Y1481310*
X401800Y1490010*
X394700Y1497120*
X385990Y1502140*
X376280Y1504740*
G37*
G36*
X366260D02*
X366230D01*
X356530Y1502140*
X347820Y1497120*
X340720Y1490010*
X335690Y1481310*
X333090Y1471600*
Y1471580*
X366260*
Y1504740*
G37*
G36*
X454370Y1499740D02*
X445630D01*
X437200Y1497480*
X429630Y1493120*
X423460Y1486940*
X419090Y1479380*
X416830Y1470940*
Y1462210*
X419090Y1453770*
X423460Y1446210*
X429630Y1440030*
X437200Y1435670*
X445630Y1433410*
X454370*
X462800Y1435670*
X470370Y1440030*
X476540Y1446210*
X480910Y1453770*
X483170Y1462210*
Y1470940*
X480910Y1479380*
X476540Y1486940*
X470370Y1493120*
X462800Y1497480*
X454370Y1499740*
G37*
G36*
X409430Y1461580D02*
X376260D01*
Y1428410*
X376280*
X385990Y1431010*
X394700Y1436030*
X401800Y1443140*
X406830Y1451840*
X409430Y1461550*
Y1461580*
G37*
G36*
X366260D02*
X333090D01*
Y1461550*
X335690Y1451840*
X340720Y1443140*
X347820Y1436030*
X356530Y1431010*
X366230Y1428410*
X366260*
Y1461580*
G37*
G36*
X2606650Y1467500D02*
X2593350D01*
X2580310Y1464910*
X2568030Y1459820*
X2556970Y1452430*
X2547570Y1443030*
X2540180Y1431970*
X2535090Y1419690*
X2532500Y1406650*
Y1393350*
X2535090Y1380310*
X2540180Y1368030*
X2547570Y1356970*
X2556970Y1347570*
X2568030Y1340180*
X2580310Y1335090*
X2593350Y1332500*
X2606650*
X2619690Y1335090*
X2631970Y1340180*
X2643030Y1347570*
X2652430Y1356970*
X2659820Y1368030*
X2664910Y1380310*
X2667500Y1393350*
Y1406650*
X2664910Y1419690*
X2659820Y1431970*
X2652430Y1443030*
X2643030Y1452430*
X2631970Y1459820*
X2619690Y1464910*
X2606650Y1467500*
G37*
G36*
X272240Y1356690D02*
X269570D01*
Y1283780*
X342480*
Y1286450*
X339490Y1301510*
X333610Y1315690*
X325090Y1328450*
X314230Y1339300*
X301470Y1347830*
X287290Y1353700*
X272240Y1356690*
G37*
G36*
X259570D02*
X256890D01*
X241840Y1353700*
X227660Y1347830*
X214900Y1339300*
X204050Y1328450*
X195520Y1315690*
X189650Y1301510*
X186650Y1286450*
Y1283780*
X259570*
Y1356690*
G37*
G36*
X342480Y1273780D02*
X269570D01*
Y1200870*
X272240*
X287290Y1203860*
X301470Y1209730*
X314230Y1218260*
X325090Y1229110*
X333610Y1241870*
X339490Y1256050*
X342480Y1271110*
Y1273780*
G37*
G36*
X259570D02*
X186650D01*
Y1271110*
X189650Y1256050*
X195520Y1241870*
X204050Y1229110*
X214900Y1218260*
X227660Y1209730*
X241840Y1203860*
X256890Y1200870*
X259570*
Y1273780*
G37*
G36*
X1145840Y2044370D02*
X1134160D01*
X1122870Y2041350*
X1112760Y2035510*
X1104500Y2027240*
X1098650Y2017130*
X1095630Y2005840*
Y1994160*
X1098650Y1982870*
X1104500Y1972760*
X1108200Y1969060*
X1108600Y1968080*
X1112780Y1963850*
X1119790Y1956010*
X1122530Y1952520*
X1124820Y1949240*
X1126640Y1946220*
X1128010Y1943490*
X1128920Y1941080*
X1129420Y1939030*
X1129610Y1936860*
X1129800Y1936480*
Y1784920*
X1092790Y1747910*
X1090580Y1744600*
X1089800Y1740700*
Y1255260*
X1089600Y1254850*
X1089500Y1253280*
X1089240Y1251940*
X1088780Y1250460*
X1088100Y1248840*
X1087180Y1247090*
X1086010Y1245220*
X1084620Y1243300*
X1080880Y1238930*
X1078640Y1236640*
X1078240Y1235670*
X1075990Y1233420*
X1072040Y1226580*
X1070000Y1218950*
Y1211050*
X1072040Y1203420*
X1075990Y1196580*
X1081580Y1190990*
X1088420Y1187040*
X1096050Y1185000*
X1103950*
X1111580Y1187040*
X1118420Y1190990*
X1124010Y1196580*
X1127960Y1203420*
X1130000Y1211050*
Y1218950*
X1127960Y1226580*
X1124010Y1233420*
X1121800Y1235630*
X1121440Y1236560*
X1117080Y1241200*
X1115420Y1243240*
X1113990Y1245220*
X1112820Y1247090*
X1111900Y1248840*
X1111220Y1250460*
X1110760Y1251940*
X1110500Y1253280*
X1110400Y1254850*
X1110200Y1255260*
Y1736480*
X1147210Y1773490*
X1149420Y1776800*
X1150200Y1780700*
Y1936480*
X1150390Y1936860*
X1150580Y1939030*
X1151080Y1941080*
X1151990Y1943490*
X1153360Y1946220*
X1155180Y1949240*
X1157400Y1952420*
X1167250Y1963890*
X1171400Y1968080*
X1171810Y1969060*
X1175510Y1972760*
X1181350Y1982870*
X1184370Y1994160*
Y2005840*
X1181350Y2017130*
X1175510Y2027240*
X1167240Y2035510*
X1157130Y2041350*
X1145840Y2044370*
G37*
G36*
X1445840D02*
X1434160D01*
X1422870Y2041350*
X1412760Y2035510*
X1404500Y2027240*
X1398650Y2017130*
X1395630Y2005840*
Y1994160*
X1398650Y1982870*
X1404500Y1972760*
X1408200Y1969060*
X1408600Y1968080*
X1412790Y1963850*
X1419790Y1956010*
X1422530Y1952520*
X1424820Y1949240*
X1426650Y1946220*
X1428010Y1943490*
X1428920Y1941080*
X1429420Y1939030*
X1429610Y1936860*
X1429800Y1936480*
Y1774220*
X1392790Y1737210*
X1390580Y1733900*
X1389800Y1730000*
Y1218670*
X1389600Y1218260*
X1389510Y1216860*
X1389280Y1215550*
X1388880Y1214050*
X1387340Y1210040*
X1386350Y1207960*
X1381710Y1199930*
X1379760Y1196970*
X1379570Y1195950*
X1377040Y1191580*
X1375000Y1183950*
Y1176050*
X1377040Y1168420*
X1380990Y1161580*
X1386580Y1155990*
X1393420Y1152040*
X1401050Y1150000*
X1408950*
X1416580Y1152040*
X1423420Y1155990*
X1429010Y1161580*
X1432960Y1168420*
X1435000Y1176050*
Y1183950*
X1432960Y1191580*
X1429010Y1198420*
X1423420Y1204010*
X1422080Y1204780*
X1421640Y1205450*
X1419190Y1207130*
X1417160Y1208710*
X1415430Y1210280*
X1413980Y1211800*
X1412810Y1213280*
X1411900Y1214700*
X1411230Y1216070*
X1410780Y1217390*
X1410510Y1218690*
X1410400Y1220360*
X1410220Y1220720*
X1410300Y1221110*
X1410200Y1221250*
Y1725780*
X1447210Y1762790*
X1449420Y1766100*
X1450200Y1770000*
Y1936480*
X1450390Y1936860*
X1450580Y1939030*
X1451080Y1941080*
X1451990Y1943490*
X1453350Y1946220*
X1455180Y1949240*
X1457400Y1952420*
X1467250Y1963890*
X1471400Y1968080*
X1471800Y1969060*
X1475500Y1972760*
X1481350Y1982870*
X1484370Y1994160*
Y2005840*
X1481350Y2017130*
X1475500Y2027240*
X1467240Y2035510*
X1457130Y2041350*
X1445840Y2044370*
G37*
G36*
X1245840D02*
X1234160D01*
X1222870Y2041350*
X1212760Y2035510*
X1204490Y2027240*
X1198650Y2017130*
X1195630Y2005840*
Y1994160*
X1198650Y1982870*
X1204490Y1972760*
X1208200Y1969060*
X1208600Y1968080*
X1212790Y1963850*
X1219790Y1956010*
X1222530Y1952520*
X1224820Y1949240*
X1226640Y1946220*
X1228010Y1943490*
X1228920Y1941080*
X1229420Y1939030*
X1229610Y1936860*
X1229800Y1936480*
Y1782420*
X1192790Y1745410*
X1190580Y1742100*
X1189800Y1738200*
Y1098670*
X1189600Y1098260*
X1189510Y1096860*
X1189280Y1095550*
X1188880Y1094050*
X1187340Y1090040*
X1186350Y1087960*
X1181710Y1079930*
X1179760Y1076970*
X1179570Y1075950*
X1177040Y1071580*
X1175000Y1063950*
Y1056050*
X1177040Y1048420*
X1180990Y1041580*
X1186580Y1035990*
X1193420Y1032040*
X1201050Y1030000*
X1208950*
X1216580Y1032040*
X1223420Y1035990*
X1229010Y1041580*
X1232960Y1048420*
X1235000Y1056050*
Y1063950*
X1232960Y1071580*
X1229010Y1078420*
X1223420Y1084010*
X1222080Y1084780*
X1221640Y1085450*
X1219190Y1087130*
X1217160Y1088710*
X1215430Y1090280*
X1213980Y1091800*
X1212810Y1093280*
X1211900Y1094700*
X1211230Y1096070*
X1210780Y1097390*
X1210510Y1098690*
X1210400Y1100360*
X1210220Y1100720*
X1210300Y1101110*
X1210200Y1101260*
Y1733980*
X1247210Y1770990*
X1249420Y1774300*
X1250200Y1778200*
Y1936480*
X1250390Y1936860*
X1250580Y1939030*
X1251080Y1941080*
X1251990Y1943490*
X1253360Y1946220*
X1255180Y1949240*
X1257400Y1952420*
X1267250Y1963890*
X1271400Y1968080*
X1271810Y1969060*
X1275500Y1972760*
X1281350Y1982870*
X1284370Y1994160*
Y2005840*
X1281350Y2017130*
X1275500Y2027240*
X1267240Y2035510*
X1257130Y2041350*
X1245840Y2044370*
G37*
G36*
X2472720Y1662480D02*
X2427280D01*
Y1602750*
X2425830Y1595470*
Y1554130*
X2427670Y1544890*
X2432910Y1537050*
X2436150Y1534880*
X2436250Y1534650*
X2436890Y1534390*
X2438820Y1533100*
X2438980Y1532610*
X2439200Y1531570*
X2439540Y1528120*
X2439590Y1525980*
X2439800Y1525490*
Y1452560*
X1547440Y560200*
X1540260*
X1539850Y560400*
X1538280Y560500*
X1536940Y560760*
X1535460Y561220*
X1533840Y561900*
X1532090Y562820*
X1530220Y563990*
X1528300Y565380*
X1523930Y569120*
X1521640Y571360*
X1520670Y571760*
X1518420Y574010*
X1511580Y577960*
X1503950Y580000*
X1496050*
X1488420Y577960*
X1481580Y574010*
X1475990Y568420*
X1472040Y561580*
X1470000Y553950*
Y546050*
X1472040Y538420*
X1475990Y531580*
X1481580Y525990*
X1488420Y522040*
X1496050Y520000*
X1503950*
X1511580Y522040*
X1518420Y525990*
X1520630Y528200*
X1521560Y528560*
X1526200Y532920*
X1528240Y534580*
X1530220Y536010*
X1532090Y537180*
X1533840Y538100*
X1535460Y538780*
X1536940Y539240*
X1538280Y539500*
X1539850Y539600*
X1540260Y539800*
X1551660*
X1555560Y540580*
X1558870Y542790*
X2457210Y1441130*
X2459420Y1444440*
X2460200Y1448340*
Y1525490*
X2460410Y1525980*
X2460460Y1528200*
X2460580Y1530010*
X2460780Y1531490*
X2461020Y1532610*
X2461180Y1533100*
X2463110Y1534390*
X2463750Y1534650*
X2463850Y1534880*
X2467090Y1537050*
X2472330Y1544890*
X2474160Y1554130*
Y1595470*
X2472720Y1602750*
Y1662480*
G37*
G36*
X2372720D02*
X2327280D01*
Y1602750*
X2325830Y1595470*
Y1554130*
X2327670Y1544890*
X2332910Y1537050*
X2336150Y1534880*
X2336250Y1534650*
X2336890Y1534390*
X2338820Y1533100*
X2338980Y1532610*
X2339200Y1531570*
X2339540Y1528120*
X2339590Y1525980*
X2339800Y1525490*
Y1523550*
X1392790Y576540*
X1390580Y573230*
X1389800Y569330*
Y565260*
X1389600Y564850*
X1389500Y563270*
X1389240Y561940*
X1388780Y560460*
X1388100Y558840*
X1387180Y557090*
X1386010Y555220*
X1384620Y553300*
X1380880Y548930*
X1378640Y546640*
X1378240Y545670*
X1375990Y543420*
X1372040Y536580*
X1370000Y528950*
Y521050*
X1372040Y513420*
X1375990Y506580*
X1381580Y500990*
X1388420Y497040*
X1396050Y495000*
X1403950*
X1411580Y497040*
X1418420Y500990*
X1424010Y506580*
X1427960Y513420*
X1430000Y521050*
Y528950*
X1427960Y536580*
X1424010Y543420*
X1421800Y545630*
X1421440Y546560*
X1417080Y551200*
X1415420Y553240*
X1413990Y555220*
X1412820Y557090*
X1411900Y558840*
X1411220Y560460*
X1410760Y561940*
X1410500Y563270*
X1410400Y564850*
X1410250Y565160*
X2357210Y1512120*
X2359420Y1515430*
X2360200Y1519330*
Y1525490*
X2360410Y1525980*
X2360460Y1528200*
X2360580Y1530010*
X2360780Y1531490*
X2361020Y1532610*
X2361180Y1533100*
X2363110Y1534390*
X2363750Y1534650*
X2363850Y1534880*
X2367090Y1537050*
X2372330Y1544890*
X2374170Y1554130*
Y1595470*
X2372720Y1602750*
Y1662480*
G37*
G36*
X176250Y452320D02*
X171540D01*
Y358740*
X265120*
Y363450*
X261330Y382500*
X253900Y400440*
X243110Y416580*
X229380Y430310*
X213230Y441100*
X195290Y448530*
X176250Y452320*
G37*
G36*
X161530D02*
X156830D01*
X137780Y448530*
X119840Y441100*
X103690Y430310*
X89960Y416580*
X79170Y400440*
X71740Y382500*
X67950Y363450*
Y358740*
X161530*
Y452320*
G37*
G36*
X2450000Y463500D02*
X2440750Y461660D01*
X2432910Y456420*
X2427670Y448580*
X2425830Y439330*
Y397990*
X2427280Y390710*
Y330980*
X2472720*
Y390710*
X2474160Y397990*
Y439330*
X2472330Y448580*
X2467090Y456420*
X2459250Y461660*
X2450000Y463500*
G37*
G36*
X2350000D02*
X2340750Y461660D01*
X2332910Y456420*
X2327670Y448580*
X2325830Y439330*
Y397990*
X2327280Y390710*
Y330980*
X2372720*
Y390710*
X2374170Y397990*
Y439330*
X2372330Y448580*
X2367090Y456420*
X2359250Y461660*
X2350000Y463500*
G37*
G36*
X2250000D02*
X2240750Y461660D01*
X2232910Y456420*
X2227670Y448580*
X2225840Y439330*
Y397990*
X2227280Y390710*
Y330980*
X2272720*
Y390710*
X2274160Y397990*
Y439330*
X2272330Y448580*
X2267090Y456420*
X2259250Y461660*
X2250000Y463500*
G37*
G36*
X2150000D02*
X2140750Y461660D01*
X2132910Y456420*
X2127670Y448580*
X2125830Y439330*
Y397990*
X2127280Y390710*
Y330980*
X2172720*
Y390710*
X2174170Y397990*
Y439330*
X2172330Y448580*
X2167090Y456420*
X2159250Y461660*
X2150000Y463500*
G37*
G36*
X2050000D02*
X2040750Y461660D01*
X2032910Y456420*
X2027670Y448580*
X2025840Y439330*
Y397990*
X2027280Y390710*
Y330980*
X2072720*
Y390710*
X2074170Y397990*
Y439330*
X2072330Y448580*
X2067090Y456420*
X2059250Y461660*
X2050000Y463500*
G37*
G36*
X1950000D02*
X1940750Y461660D01*
X1932910Y456420*
X1927670Y448580*
X1925840Y439330*
Y397990*
X1927280Y390710*
Y330980*
X1972720*
Y390710*
X1974160Y397990*
Y439330*
X1972330Y448580*
X1967090Y456420*
X1959250Y461660*
X1950000Y463500*
G37*
G36*
X1850000D02*
X1840750Y461660D01*
X1832910Y456420*
X1827670Y448580*
X1825830Y439330*
Y397990*
X1827280Y390710*
Y330980*
X1872720*
Y390710*
X1874170Y397990*
Y439330*
X1872330Y448580*
X1867090Y456420*
X1859250Y461660*
X1850000Y463500*
G37*
G36*
X1750000D02*
X1740750Y461660D01*
X1732910Y456420*
X1727670Y448580*
X1725830Y439330*
Y397990*
X1727280Y390710*
Y330980*
X1772720*
Y390710*
X1774170Y397990*
Y439330*
X1772330Y448580*
X1767090Y456420*
X1759250Y461660*
X1750000Y463500*
G37*
G36*
X1650000D02*
X1640750Y461660D01*
X1632910Y456420*
X1627670Y448580*
X1625830Y439330*
Y397990*
X1627280Y390710*
Y330980*
X1672720*
Y390710*
X1674170Y397990*
Y439330*
X1672330Y448580*
X1667090Y456420*
X1659250Y461660*
X1650000Y463500*
G37*
G36*
X1550000D02*
X1540750Y461660D01*
X1532910Y456420*
X1527670Y448580*
X1525840Y439330*
Y397990*
X1527280Y390710*
Y330980*
X1572720*
Y390710*
X1574160Y397990*
Y439330*
X1572330Y448580*
X1567090Y456420*
X1559250Y461660*
X1550000Y463500*
G37*
G36*
X1450000D02*
X1440750Y461660D01*
X1432910Y456420*
X1427670Y448580*
X1425840Y439330*
Y397990*
X1427280Y390710*
Y330980*
X1472720*
Y390710*
X1474160Y397990*
Y439330*
X1472330Y448580*
X1467090Y456420*
X1459250Y461660*
X1450000Y463500*
G37*
G36*
X1350000D02*
X1340750Y461660D01*
X1332910Y456420*
X1327670Y448580*
X1325830Y439330*
Y397990*
X1327280Y390710*
Y330980*
X1372720*
Y390710*
X1374170Y397990*
Y439330*
X1372330Y448580*
X1367090Y456420*
X1359250Y461660*
X1350000Y463500*
G37*
G36*
X1250000D02*
X1240750Y461660D01*
X1232910Y456420*
X1227670Y448580*
X1225830Y439330*
Y397990*
X1227280Y390710*
Y330980*
X1272720*
Y390710*
X1274170Y397990*
Y439330*
X1272330Y448580*
X1267090Y456420*
X1259250Y461660*
X1250000Y463500*
G37*
G36*
X1150000D02*
X1140750Y461660D01*
X1132910Y456420*
X1127670Y448580*
X1125830Y439330*
Y397990*
X1127280Y390710*
Y330980*
X1172720*
Y390710*
X1174170Y397990*
Y439330*
X1172330Y448580*
X1167090Y456420*
X1159250Y461660*
X1150000Y463500*
G37*
G36*
X1050000D02*
X1040750Y461660D01*
X1032910Y456420*
X1027670Y448580*
X1025840Y439330*
Y397990*
X1027280Y390710*
Y330980*
X1072720*
Y390710*
X1074160Y397990*
Y439330*
X1072330Y448580*
X1067090Y456420*
X1059250Y461660*
X1050000Y463500*
G37*
G36*
X1905840Y2044370D02*
X1894160D01*
X1882870Y2041350*
X1872760Y2035510*
X1864500Y2027240*
X1858650Y2017130*
X1855630Y2005840*
Y2000610*
X1855220Y1999630*
Y1999610*
X1855190Y1993680*
X1854610Y1983180*
X1854070Y1978780*
X1853370Y1974840*
X1852530Y1971410*
X1851560Y1968520*
X1850500Y1966180*
X1849410Y1964370*
X1848000Y1962700*
X1847870Y1962290*
X1592790Y1707210*
X1590580Y1703900*
X1589800Y1700000*
Y1204220*
X942790Y557210*
X940580Y553900*
X939800Y550000*
Y467970*
X939590Y467490*
X939540Y465260*
X939420Y463460*
X939220Y461980*
X938980Y460850*
X938820Y460370*
X936890Y459080*
X936250Y458810*
X936150Y458580*
X932910Y456420*
X927670Y448580*
X925840Y439330*
Y397990*
X927280Y390710*
Y330980*
X972720*
Y390710*
X974170Y397990*
Y439330*
X972330Y448580*
X967090Y456420*
X963850Y458580*
X963750Y458810*
X963110Y459080*
X961180Y460370*
X961020Y460850*
X960800Y461890*
X960460Y465340*
X960410Y467490*
X960200Y467970*
Y545780*
X1607210Y1192790*
X1609420Y1196100*
X1610200Y1200000*
Y1695780*
X1862290Y1947880*
X1862700Y1948000*
X1864370Y1949410*
X1866180Y1950510*
X1868520Y1951560*
X1871410Y1952530*
X1874840Y1953370*
X1878660Y1954050*
X1893740Y1955190*
X1899630Y1955220*
X1900610Y1955630*
X1905840*
X1917130Y1958650*
X1927240Y1964490*
X1935510Y1972760*
X1941350Y1982870*
X1944370Y1994160*
Y2005840*
X1941350Y2017130*
X1935510Y2027240*
X1927240Y2035510*
X1917130Y2041350*
X1905840Y2044370*
G37*
G36*
X1345840D02*
X1334160D01*
X1322870Y2041350*
X1312760Y2035510*
X1304490Y2027240*
X1298650Y2017130*
X1295630Y2005840*
Y1994160*
X1298650Y1982870*
X1304490Y1972760*
X1308200Y1969060*
X1308600Y1968080*
X1312790Y1963850*
X1319790Y1956010*
X1322530Y1952520*
X1324820Y1949240*
X1326650Y1946220*
X1328010Y1943490*
X1328920Y1941080*
X1329420Y1939030*
X1329610Y1936860*
X1329800Y1936480*
Y1752420*
X1292790Y1715410*
X1290580Y1712100*
X1289800Y1708200*
Y1079220*
X742790Y532210*
X740580Y528900*
X739800Y525000*
Y467970*
X739590Y467490*
X739540Y465260*
X739420Y463460*
X739220Y461980*
X738980Y460850*
X738820Y460370*
X736890Y459080*
X736250Y458810*
X736150Y458580*
X732910Y456420*
X727670Y448580*
X725840Y439330*
Y397990*
X727280Y390710*
Y330980*
X772720*
Y390710*
X774160Y397990*
Y439330*
X772330Y448580*
X767090Y456420*
X763850Y458580*
X763750Y458810*
X763110Y459080*
X761180Y460370*
X761020Y460850*
X760800Y461890*
X760460Y465340*
X760410Y467490*
X760200Y467970*
Y520780*
X1307210Y1067790*
X1309420Y1071100*
X1310200Y1075000*
Y1703980*
X1347210Y1740990*
X1349420Y1744300*
X1350200Y1748200*
Y1936480*
X1350390Y1936860*
X1350580Y1939030*
X1351080Y1941080*
X1351990Y1943490*
X1353360Y1946220*
X1355180Y1949240*
X1357400Y1952420*
X1367250Y1963890*
X1371400Y1968080*
X1371800Y1969060*
X1375500Y1972760*
X1381350Y1982870*
X1384370Y1994160*
Y2005840*
X1381350Y2017130*
X1375500Y2027240*
X1367240Y2035510*
X1357130Y2041350*
X1345840Y2044370*
G37*
G36*
X650000Y463500D02*
X640750Y461660D01*
X632910Y456420*
X627670Y448580*
X625840Y439330*
Y397990*
X627280Y390710*
Y330980*
X672720*
Y390710*
X674170Y397990*
Y439330*
X672330Y448580*
X667090Y456420*
X659250Y461660*
X650000Y463500*
G37*
G36*
X411970Y447320D02*
X393540D01*
X375460Y443730*
X358430Y436670*
X343100Y426430*
X330070Y413400*
X319820Y398070*
X312770Y381040*
X309170Y362960*
Y344520*
X312770Y326440*
X319820Y309410*
X330070Y294080*
X343100Y281050*
X358430Y270810*
X375460Y263750*
X393540Y260160*
X411970*
X430050Y263750*
X447080Y270810*
X462410Y281050*
X475450Y294080*
X485690Y309410*
X492740Y326440*
X496340Y344520*
Y362960*
X492740Y381040*
X485690Y398070*
X475450Y413400*
X462410Y426430*
X447080Y436670*
X430050Y443730*
X411970Y447320*
G37*
G36*
X265120Y348740D02*
X171540D01*
Y255160*
X176250*
X195290Y258950*
X213230Y266380*
X229380Y277170*
X243110Y290900*
X253900Y307040*
X261330Y324980*
X265120Y344030*
Y348740*
G37*
G36*
X161530D02*
X67950D01*
Y344030*
X71740Y324980*
X79170Y307040*
X89960Y290900*
X103690Y277170*
X119840Y266380*
X137780Y258950*
X156830Y255160*
X161530*
Y348740*
G37*
G36*
X2606650Y367500D02*
X2593350D01*
X2580310Y364910*
X2568030Y359820*
X2556970Y352430*
X2547570Y343030*
X2540180Y331970*
X2535090Y319690*
X2532500Y306650*
Y293350*
X2535090Y280310*
X2540180Y268030*
X2547570Y256970*
X2556970Y247570*
X2568030Y240180*
X2580310Y235090*
X2593350Y232500*
X2606650*
X2619690Y235090*
X2631970Y240180*
X2643030Y247570*
X2652430Y256970*
X2659820Y268030*
X2664910Y280310*
X2667500Y293350*
Y306650*
X2664910Y319690*
X2659820Y331970*
X2652430Y343030*
X2643030Y352430*
X2631970Y359820*
X2619690Y364910*
X2606650Y367500*
G37*
G36*
X296320Y259410D02*
X291610D01*
Y165830*
X385200*
Y170540*
X381410Y189580*
X373980Y207520*
X363190Y223670*
X349460Y237400*
X333310Y248190*
X315370Y255620*
X296320Y259410*
G37*
G36*
X281610D02*
X276910D01*
X257860Y255620*
X239920Y248190*
X223770Y237400*
X210040Y223670*
X199250Y207520*
X191820Y189580*
X188030Y170540*
Y165830*
X281610*
Y259410*
G37*
G36*
X1695000Y149370D02*
X1693500D01*
X1680940Y146010*
X1669690Y139510*
X1660490Y130310*
X1653990Y119060*
X1652590Y113810*
X1647410*
X1646010Y119060*
X1639510Y130310*
X1630310Y139510*
X1619060Y146010*
X1606500Y149370*
X1605000*
Y100000*
Y50630*
X1606500*
X1619060Y53990*
X1630310Y60490*
X1639510Y69690*
X1646010Y80940*
X1647410Y86190*
X1652590*
X1653990Y80940*
X1660490Y69690*
X1669690Y60490*
X1680940Y53990*
X1693500Y50630*
X1695000*
Y100000*
Y149370*
G37*
G36*
X1706500D02*
X1705000D01*
Y105000*
X1749370*
Y106500*
X1746010Y119060*
X1739510Y130310*
X1730310Y139510*
X1719060Y146010*
X1706500Y149370*
G37*
G36*
X1595000D02*
X1593500D01*
X1580940Y146010*
X1569690Y139510*
X1560490Y130310*
X1553990Y119060*
X1550630Y106500*
Y105000*
X1595000*
Y149370*
G37*
G36*
X385200Y155830D02*
X291610D01*
Y62240*
X296320*
X315370Y66030*
X333310Y73460*
X349460Y84250*
X363190Y97980*
X373980Y114130*
X381410Y132070*
X385200Y151120*
Y155830*
G37*
G36*
X281610D02*
X188030D01*
Y151120*
X191820Y132070*
X199250Y114130*
X210040Y97980*
X223770Y84250*
X239920Y73460*
X257860Y66030*
X276910Y62240*
X281610*
Y155830*
G37*
G36*
X850000Y463500D02*
X840750Y461660D01*
X832910Y456420*
X827670Y448580*
X825830Y439330*
Y397990*
X827280Y390710*
Y330980*
X836760*
X837310Y330710*
X838400Y330630*
X839260Y330450*
X840300Y330100*
X841520Y329560*
X842880Y328800*
X844390Y327830*
X845970Y326670*
X849650Y323510*
X851620Y321610*
X852130Y321410*
X900740Y272790*
X904050Y270580*
X907950Y269800*
X1131620*
X1132960Y264800*
X1131580Y264010*
X1125990Y258420*
X1122040Y251580*
X1120000Y243950*
Y236050*
X1122040Y228420*
X1125990Y221580*
X1131580Y215990*
X1138420Y212040*
X1146050Y210000*
X1153950*
X1161580Y212040*
X1168420Y215990*
X1170630Y218210*
X1171560Y218560*
X1176210Y222920*
X1178240Y224580*
X1180220Y226010*
X1182090Y227180*
X1183840Y228100*
X1185460Y228780*
X1186940Y229240*
X1188270Y229500*
X1189850Y229600*
X1190260Y229800*
X2255780*
X2347880Y137710*
X2348000Y137300*
X2349410Y135630*
X2350510Y133820*
X2351560Y131480*
X2352530Y128590*
X2353370Y125160*
X2354050Y121340*
X2355190Y106270*
X2355220Y100370*
X2355630Y99390*
Y94160*
X2358650Y82870*
X2364500Y72760*
X2372760Y64490*
X2382870Y58650*
X2394160Y55630*
X2405840*
X2417130Y58650*
X2427240Y64490*
X2435500Y72760*
X2441350Y82870*
X2444370Y94160*
Y105840*
X2441350Y117130*
X2435500Y127240*
X2427240Y135510*
X2417130Y141350*
X2405840Y144370*
X2400610*
X2399630Y144780*
X2399610*
X2393680Y144810*
X2383180Y145390*
X2378780Y145930*
X2374840Y146630*
X2371410Y147470*
X2368520Y148440*
X2366180Y149500*
X2364370Y150590*
X2362700Y152000*
X2362290Y152130*
X2267210Y247210*
X2263900Y249420*
X2260000Y250200*
X1190260*
X1189850Y250400*
X1188270Y250500*
X1186940Y250760*
X1185460Y251220*
X1183840Y251900*
X1182090Y252820*
X1180220Y253990*
X1178300Y255380*
X1173930Y259120*
X1171640Y261360*
X1170670Y261760*
X1168420Y264010*
X1167040Y264800*
X1168380Y269800*
X2315780*
X2447880Y137710*
X2448000Y137300*
X2449410Y135630*
X2450510Y133820*
X2451560Y131480*
X2452530Y128590*
X2453370Y125160*
X2454050Y121340*
X2455190Y106270*
X2455220Y100370*
X2455630Y99390*
Y94160*
X2458650Y82870*
X2464490Y72760*
X2472760Y64490*
X2482870Y58650*
X2494160Y55630*
X2505840*
X2517130Y58650*
X2527240Y64490*
X2535510Y72760*
X2541350Y82870*
X2544370Y94160*
Y105840*
X2541350Y117130*
X2535510Y127240*
X2527240Y135510*
X2517130Y141350*
X2505840Y144370*
X2500610*
X2499630Y144780*
X2499610*
X2493680Y144810*
X2483180Y145390*
X2478780Y145930*
X2474840Y146630*
X2471410Y147470*
X2468520Y148440*
X2466180Y149500*
X2464370Y150590*
X2462700Y152000*
X2462290Y152130*
X2327210Y287210*
X2323900Y289420*
X2320000Y290200*
X912180*
X875250Y327120*
X872720Y330980*
Y330990*
Y365590*
X872910Y366580*
X872720Y367560*
Y390710*
X874160Y397990*
Y439330*
X872330Y448580*
X867090Y456420*
X859250Y461660*
X850000Y463500*
G37*
G36*
X2305840Y144370D02*
X2294160D01*
X2282870Y141350*
X2272760Y135510*
X2264490Y127240*
X2258650Y117130*
X2255630Y105840*
Y94160*
X2258650Y82870*
X2264490Y72760*
X2272760Y64490*
X2282870Y58650*
X2294160Y55630*
X2305840*
X2317130Y58650*
X2327240Y64490*
X2335510Y72760*
X2341350Y82870*
X2344370Y94160*
Y105840*
X2341350Y117130*
X2335510Y127240*
X2327240Y135510*
X2317130Y141350*
X2305840Y144370*
G37*
G36*
X2205840D02*
X2194160D01*
X2182870Y141350*
X2172760Y135510*
X2164490Y127240*
X2158650Y117130*
X2155630Y105840*
Y94160*
X2158650Y82870*
X2164490Y72760*
X2172760Y64490*
X2182870Y58650*
X2194160Y55630*
X2205840*
X2217130Y58650*
X2227240Y64490*
X2235510Y72760*
X2241350Y82870*
X2244370Y94160*
Y105840*
X2241350Y117130*
X2235510Y127240*
X2227240Y135510*
X2217130Y141350*
X2205840Y144370*
G37*
G36*
X2105840D02*
X2094160D01*
X2082870Y141350*
X2072760Y135510*
X2064500Y127240*
X2058650Y117130*
X2055630Y105840*
Y94160*
X2058650Y82870*
X2064500Y72760*
X2072760Y64490*
X2082870Y58650*
X2094160Y55630*
X2105840*
X2117130Y58650*
X2127240Y64490*
X2135500Y72760*
X2141350Y82870*
X2144370Y94160*
Y105840*
X2141350Y117130*
X2135500Y127240*
X2127240Y135510*
X2117130Y141350*
X2105840Y144370*
G37*
G36*
X2005840D02*
X1994160D01*
X1982870Y141350*
X1972760Y135510*
X1964490Y127240*
X1958650Y117130*
X1955630Y105840*
Y94160*
X1958650Y82870*
X1964490Y72760*
X1972760Y64490*
X1982870Y58650*
X1994160Y55630*
X2005840*
X2017130Y58650*
X2027240Y64490*
X2035510Y72760*
X2041350Y82870*
X2044370Y94160*
Y105840*
X2041350Y117130*
X2035510Y127240*
X2027240Y135510*
X2017130Y141350*
X2005840Y144370*
G37*
G36*
X1770000Y197840D02*
X1255000D01*
X1248170Y196480*
X1242380Y192620*
X1216670Y166900*
X1216510Y166840*
X1209080Y159790*
X1201890Y153710*
X1194810Y148470*
X1191430Y146250*
X1184530Y142280*
X1181130Y140610*
X1181120*
X1180640Y140060*
X1172760Y135510*
X1164490Y127240*
X1158650Y117130*
X1155630Y105840*
Y94160*
X1158650Y82870*
X1164490Y72760*
X1172760Y64490*
X1182870Y58650*
X1194160Y55630*
X1205840*
X1217130Y58650*
X1227240Y64490*
X1235500Y72760*
X1241350Y82870*
X1244370Y94160*
Y105840*
X1241350Y117130*
X1239960Y119530*
X1239940Y120250*
X1238640Y123140*
X1237850Y125640*
X1237430Y128020*
X1237360Y130300*
X1237610Y132530*
X1238200Y134750*
X1239150Y137020*
X1240490Y139340*
X1242260Y141710*
X1244640Y144310*
X1244690Y144450*
X1244980Y144750*
X1245000Y144760*
X1245010Y144770*
X1262390Y162160*
X1477450*
X1481510Y158260*
X1481870Y157160*
X1481560Y154780*
X1480910Y151790*
X1479990Y148860*
X1478810Y145960*
X1477360Y143110*
X1475620Y140280*
X1473590Y137480*
X1471270Y134720*
X1468530Y131860*
X1468170Y130910*
X1464490Y127240*
X1458650Y117130*
X1455630Y105840*
Y94160*
X1458650Y82870*
X1464490Y72760*
X1472760Y64490*
X1482870Y58650*
X1494160Y55630*
X1505840*
X1517130Y58650*
X1527240Y64490*
X1535510Y72760*
X1541350Y82870*
X1544370Y94160*
Y105840*
X1541350Y117130*
X1535510Y127240*
X1531830Y130910*
X1531470Y131860*
X1528730Y134720*
X1526410Y137480*
X1524380Y140280*
X1522640Y143110*
X1521190Y145960*
X1520010Y148860*
X1519090Y151790*
X1518440Y154780*
X1518130Y157160*
X1518490Y158260*
X1522550Y162160*
X1762610*
X1776800Y147970*
X1776630Y145450*
X1776300Y143040*
X1775890Y140950*
X1775420Y139240*
X1774930Y137950*
X1774470Y137090*
X1774140Y136630*
X1773510Y136070*
X1773430Y135890*
X1772760Y135510*
X1764500Y127240*
X1758650Y117130*
X1755630Y105840*
Y94160*
X1758650Y82870*
X1764500Y72760*
X1772760Y64490*
X1782870Y58650*
X1794160Y55630*
X1805840*
X1817130Y58650*
X1827240Y64490*
X1835510Y72760*
X1841350Y82870*
X1844370Y94160*
Y105840*
X1841350Y117130*
X1835510Y127240*
X1827240Y135510*
X1817130Y141350*
X1816600Y141490*
X1816500Y141600*
X1815760Y141980*
X1815490Y142200*
X1815130Y142630*
X1814690Y143350*
X1814230Y144430*
X1813800Y145870*
X1813450Y147580*
X1812970Y152320*
X1812910Y155120*
X1812740Y155500*
X1811490Y161830*
X1807620Y167620*
X1782620Y192620*
X1776830Y196480*
X1770000Y197840*
G37*
G36*
X1405840Y144370D02*
X1394160D01*
X1382870Y141350*
X1372760Y135510*
X1364500Y127240*
X1358650Y117130*
X1355630Y105840*
Y94160*
X1358650Y82870*
X1364500Y72760*
X1372760Y64490*
X1382870Y58650*
X1394160Y55630*
X1405840*
X1417130Y58650*
X1427240Y64490*
X1435510Y72760*
X1441350Y82870*
X1444370Y94160*
Y105840*
X1441350Y117130*
X1435510Y127240*
X1427240Y135510*
X1417130Y141350*
X1405840Y144370*
G37*
G36*
X1305840D02*
X1294160D01*
X1282870Y141350*
X1272760Y135510*
X1264500Y127240*
X1258650Y117130*
X1255630Y105840*
Y94160*
X1258650Y82870*
X1264500Y72760*
X1272760Y64490*
X1282870Y58650*
X1294160Y55630*
X1305840*
X1317130Y58650*
X1327240Y64490*
X1335510Y72760*
X1341350Y82870*
X1344370Y94160*
Y105840*
X1341350Y117130*
X1335510Y127240*
X1327240Y135510*
X1317130Y141350*
X1305840Y144370*
G37*
G36*
X1105840D02*
X1094160D01*
X1082870Y141350*
X1072760Y135510*
X1064490Y127240*
X1058650Y117130*
X1055630Y105840*
Y94160*
X1058650Y82870*
X1064490Y72760*
X1072760Y64490*
X1082870Y58650*
X1094160Y55630*
X1105840*
X1117130Y58650*
X1127240Y64490*
X1135500Y72760*
X1141350Y82870*
X1144370Y94160*
Y105840*
X1141350Y117130*
X1135500Y127240*
X1127240Y135510*
X1117130Y141350*
X1105840Y144370*
G37*
G36*
X1749370Y95000D02*
X1705000D01*
Y50630*
X1706500*
X1719060Y53990*
X1730310Y60490*
X1739510Y69690*
X1746010Y80940*
X1749370Y93500*
Y95000*
G37*
G36*
X1595000D02*
X1550630D01*
Y93500*
X1553990Y80940*
X1560490Y69690*
X1569690Y60490*
X1580940Y53990*
X1593500Y50630*
X1595000*
Y95000*
G37*
G36*
X556650Y167500D02*
X543350D01*
X530310Y164910*
X518030Y159820*
X506970Y152430*
X497570Y143030*
X490180Y131970*
X485090Y119690*
X482500Y106650*
Y93350*
X485090Y80310*
X490180Y68030*
X497570Y56970*
X506970Y47570*
X518030Y40180*
X530310Y35090*
X543350Y32500*
X556650*
X569690Y35090*
X581970Y40180*
X593030Y47570*
X602430Y56970*
X609820Y68030*
X614910Y80310*
X617500Y93350*
Y106650*
X614910Y119690*
X609820Y131970*
X602430Y143030*
X593030Y152430*
X581970Y159820*
X569690Y164910*
X556650Y167500*
G37*
%LNesp32-hwe-uno-3*%
%LPD*%
G36*
X1789020Y1962190D02*
X1783800Y1963580D01*
X1778910Y1964600*
X1774350Y1965260*
X1770130Y1965550*
X1766240Y1965480*
X1762680Y1965050*
X1759460Y1964260*
X1756570Y1963100*
X1754000Y1961590*
X1751780Y1959710*
X1746700Y1968770*
X1747870Y1970200*
X1749120Y1972240*
X1750450Y1974880*
X1751860Y1978120*
X1754910Y1986410*
X1760100Y2003370*
X1761980Y2010230*
X1789020Y1962190*
G37*
G36*
X1081460Y754390D02*
X1080200Y752960D01*
X1079080Y751300*
X1078090Y749430*
X1077240Y747340*
X1076530Y745040*
X1075950Y742510*
X1075510Y739770*
X1075200Y736820*
X1075000Y730250*
X1050250Y755000*
X1053640Y755030*
X1059770Y755510*
X1062510Y755950*
X1065040Y756530*
X1067340Y757240*
X1069430Y758090*
X1071300Y759080*
X1072960Y760200*
X1074390Y761460*
X1081460Y754390*
G37*
G36*
X1163270Y1967560D02*
X1153120Y1955740D01*
X1150640Y1952190*
X1148610Y1948830*
X1147030Y1945660*
X1145900Y1942690*
X1145230Y1939910*
X1145000Y1937330*
X1135000*
X1134770Y1939910*
X1134100Y1942690*
X1132970Y1945660*
X1131390Y1948830*
X1129360Y1952190*
X1126880Y1955740*
X1123950Y1959490*
X1116730Y1967560*
X1112440Y1971880*
X1167560*
X1163270Y1967560*
G37*
G36*
X1105120Y1252590D02*
X1105500Y1250630D01*
X1106120Y1248600*
X1107000Y1246530*
X1108120Y1244390*
X1109500Y1242200*
X1111120Y1239950*
X1113000Y1237640*
X1117500Y1232850*
X1082500*
X1084870Y1235280*
X1088880Y1239950*
X1090500Y1242200*
X1091870Y1244390*
X1093000Y1246530*
X1093880Y1248600*
X1094500Y1250630*
X1094870Y1252590*
X1095000Y1254500*
X1105000*
X1105120Y1252590*
G37*
G36*
X1463270Y1967560D02*
X1453120Y1955740D01*
X1450640Y1952190*
X1448610Y1948830*
X1447030Y1945660*
X1445900Y1942690*
X1445230Y1939910*
X1445000Y1937330*
X1435000*
X1434770Y1939910*
X1434100Y1942690*
X1432970Y1945660*
X1431390Y1948830*
X1429360Y1952190*
X1426880Y1955740*
X1423950Y1959490*
X1416730Y1967560*
X1412440Y1971880*
X1467560*
X1463270Y1967560*
G37*
G36*
X1405140Y1217970D02*
X1405540Y1215970D01*
X1406220Y1213990*
X1407170Y1212050*
X1408390Y1210130*
X1409890Y1208250*
X1411650Y1206390*
X1413690Y1204560*
X1416000Y1202760*
X1418580Y1200990*
X1384280Y1193990*
X1386320Y1197090*
X1391140Y1205440*
X1392320Y1207910*
X1394030Y1212380*
X1394570Y1214380*
X1394890Y1216220*
X1395000Y1217910*
X1405000Y1220000*
X1405140Y1217970*
G37*
G36*
X1263270Y1967560D02*
X1253120Y1955740D01*
X1250640Y1952190*
X1248610Y1948830*
X1247030Y1945660*
X1245900Y1942690*
X1245230Y1939910*
X1245000Y1937330*
X1235000*
X1234770Y1939910*
X1234100Y1942690*
X1232970Y1945660*
X1231390Y1948830*
X1229360Y1952190*
X1226880Y1955740*
X1223950Y1959490*
X1216730Y1967560*
X1212440Y1971880*
X1267560*
X1263270Y1967560*
G37*
G36*
X1205140Y1097970D02*
X1205540Y1095970D01*
X1206220Y1093990*
X1207170Y1092050*
X1208390Y1090130*
X1209890Y1088250*
X1211650Y1086390*
X1213690Y1084560*
X1216000Y1082760*
X1218580Y1080990*
X1184280Y1073990*
X1186320Y1077090*
X1191140Y1085440*
X1192320Y1087910*
X1194040Y1092380*
X1194570Y1094380*
X1194890Y1096220*
X1195000Y1097910*
X1205000Y1100000*
X1205140Y1097970*
G37*
G36*
X2459050Y1598450D02*
X2458200Y1598150D01*
X2457450Y1597650*
X2456800Y1596950*
X2456250Y1596050*
X2455800Y1594940*
X2455450Y1593640*
X2455200Y1592140*
X2455050Y1590450*
X2455000Y1588540*
X2445000*
X2444950Y1590450*
X2444800Y1592140*
X2444550Y1593640*
X2444200Y1594940*
X2443750Y1596050*
X2443200Y1596950*
X2442550Y1597650*
X2441800Y1598150*
X2440950Y1598450*
X2440000Y1598540*
X2460000*
X2459050Y1598450*
G37*
G36*
X2458990Y1538360D02*
X2458150Y1537990D01*
X2457410Y1537370*
X2456770Y1536500*
X2456230Y1535380*
X2455790Y1534020*
X2455440Y1532410*
X2455200Y1530550*
X2455050Y1528450*
X2455000Y1526090*
X2445000*
X2444950Y1528450*
X2444560Y1532410*
X2444210Y1534020*
X2443770Y1535380*
X2443230Y1536500*
X2442590Y1537370*
X2441850Y1537990*
X2441010Y1538360*
X2440070Y1538480*
X2459930*
X2458990Y1538360*
G37*
G36*
X1520270Y565120D02*
X1524950Y561120D01*
X1527200Y559500*
X1529390Y558130*
X1531530Y557000*
X1533600Y556120*
X1535620Y555500*
X1537590Y555120*
X1539490Y555000*
Y545000*
X1537590Y544880*
X1535620Y544500*
X1533600Y543870*
X1531530Y543000*
X1529390Y541880*
X1527200Y540500*
X1524950Y538870*
X1522640Y537000*
X1517850Y532500*
Y567500*
X1520270Y565120*
G37*
G36*
X2359050Y1598450D02*
X2358200Y1598150D01*
X2357450Y1597650*
X2356800Y1596950*
X2356250Y1596050*
X2355800Y1594940*
X2355450Y1593640*
X2355200Y1592140*
X2355050Y1590450*
X2355000Y1588540*
X2345000*
X2344950Y1590450*
X2344800Y1592140*
X2344550Y1593640*
X2344200Y1594940*
X2343750Y1596050*
X2343200Y1596950*
X2342550Y1597650*
X2341800Y1598150*
X2340950Y1598450*
X2340000Y1598540*
X2360000*
X2359050Y1598450*
G37*
G36*
X2358990Y1538360D02*
X2358150Y1537990D01*
X2357410Y1537370*
X2356770Y1536500*
X2356230Y1535380*
X2355790Y1534020*
X2355440Y1532410*
X2355200Y1530550*
X2355050Y1528450*
X2355000Y1526090*
X2345000*
X2344950Y1528450*
X2344560Y1532410*
X2344210Y1534020*
X2343770Y1535380*
X2343230Y1536500*
X2342590Y1537370*
X2341850Y1537990*
X2341010Y1538360*
X2340070Y1538480*
X2359930*
X2358990Y1538360*
G37*
G36*
X1405130Y562590D02*
X1405500Y560630D01*
X1406120Y558600*
X1407000Y556530*
X1408130Y554390*
X1409500Y552200*
X1411120Y549950*
X1413000Y547640*
X1417500Y542850*
X1382500*
X1384880Y545270*
X1388880Y549950*
X1390500Y552200*
X1391880Y554390*
X1393000Y556530*
X1393880Y558600*
X1394500Y560630*
X1394880Y562590*
X1395000Y564500*
X1405000*
X1405130Y562590*
G37*
G36*
X1899610Y1960630D02*
X1893520Y1960600D01*
X1877980Y1959430*
X1873720Y1958670*
X1869900Y1957730*
X1866550Y1956610*
X1863650Y1955300*
X1861210Y1953820*
X1859220Y1952150*
X1852150Y1959220*
X1853820Y1961210*
X1855300Y1963650*
X1856610Y1966550*
X1857730Y1969910*
X1858670Y1973720*
X1859430Y1977980*
X1860000Y1982700*
X1860600Y1993520*
X1860630Y1999610*
X1899610Y1960630*
G37*
G36*
X955050Y465020D02*
X955440Y461050D01*
X955790Y459440*
X956230Y458080*
X956770Y456960*
X957410Y456100*
X958150Y455480*
X958990Y455110*
X959930Y454980*
X940070*
X941010Y455110*
X941850Y455480*
X942590Y456100*
X943230Y456960*
X943770Y458080*
X944210Y459440*
X944560Y461050*
X944800Y462910*
X944950Y465020*
X945000Y467370*
X955000*
X955050Y465020*
G37*
G36*
X1363270Y1967560D02*
X1353120Y1955740D01*
X1350640Y1952190*
X1348610Y1948830*
X1347030Y1945660*
X1345900Y1942690*
X1345230Y1939910*
X1345000Y1937330*
X1335000*
X1334770Y1939910*
X1334100Y1942690*
X1332970Y1945660*
X1331390Y1948830*
X1329360Y1952190*
X1326880Y1955740*
X1323950Y1959490*
X1316730Y1967560*
X1312440Y1971880*
X1367560*
X1363270Y1967560*
G37*
G36*
X755050Y465020D02*
X755440Y461050D01*
X755790Y459440*
X756230Y458080*
X756770Y456960*
X757410Y456100*
X758150Y455480*
X758990Y455110*
X759930Y454980*
X740070*
X741010Y455110*
X741850Y455480*
X742590Y456100*
X743230Y456960*
X743770Y458080*
X744210Y459440*
X744560Y461050*
X744800Y462910*
X744950Y465020*
X745000Y467370*
X755000*
X755050Y465020*
G37*
G36*
X859410Y382690D02*
X858550Y382360D01*
X858000Y381840*
X857770Y381150*
X857860Y380280*
X858260Y379240*
X858990Y378020*
X860030Y376620*
X861390Y375040*
X863070Y373290*
X853570Y368650*
X840630Y381760*
X860600Y382860*
X859410Y382690*
G37*
G36*
X864720Y336030D02*
X863730Y335820D01*
X863020Y335470*
X862600Y334970*
X862460Y334340*
X862600Y333560*
X863020Y332640*
X863730Y331580*
X864720Y330380*
X865990Y329030*
X855380Y325500*
X853300Y327510*
X849340Y330910*
X847460Y332290*
X845660Y333450*
X843930Y334410*
X842270Y335150*
X840680Y335680*
X839160Y336000*
X837710Y336100*
X865990*
X864720Y336030*
G37*
G36*
X1170270Y255120D02*
X1174950Y251130D01*
X1177200Y249500*
X1179390Y248130*
X1181530Y247000*
X1183600Y246120*
X1185620Y245500*
X1187590Y245120*
X1189490Y245000*
Y235000*
X1187590Y234870*
X1185620Y234500*
X1183600Y233880*
X1181530Y233000*
X1179390Y231880*
X1177200Y230500*
X1174950Y228870*
X1172640Y227000*
X1167850Y222500*
Y257500*
X1170270Y255120*
G37*
G36*
X2461210Y146180D02*
X2463650Y144700D01*
X2466550Y143390*
X2469900Y142270*
X2473720Y141330*
X2477980Y140570*
X2482710Y140000*
X2493520Y139400*
X2499610Y139370*
X2460630Y100390*
X2460600Y106480*
X2459430Y122020*
X2458670Y126280*
X2457730Y130100*
X2456610Y133450*
X2455300Y136350*
X2453820Y138790*
X2452150Y140780*
X2459220Y147850*
X2461210Y146180*
G37*
G36*
X2361210D02*
X2363650Y144700D01*
X2366550Y143390*
X2369900Y142270*
X2373720Y141330*
X2377980Y140570*
X2382700Y140000*
X2393520Y139400*
X2399610Y139370*
X2360630Y100390*
X2360600Y106480*
X2359430Y122020*
X2358670Y126280*
X2357730Y130100*
X2356610Y133450*
X2355300Y136350*
X2353820Y138790*
X2352150Y140780*
X2359220Y147850*
X2361210Y146180*
G37*
G36*
X1807560Y151990D02*
X1808090Y146760D01*
X1808550Y144540*
X1809140Y142580*
X1809860Y140890*
X1810710Y139470*
X1811690Y138310*
X1812810Y137410*
X1814050Y136780*
X1777140Y132050*
X1778160Y132970*
X1779070Y134190*
X1779870Y135720*
X1780570Y137560*
X1781160Y139700*
X1781640Y142150*
X1782020Y144900*
X1782450Y151330*
X1782500Y155000*
X1807500*
X1807560Y151990*
G37*
G36*
X1512650Y157370D02*
X1513100Y153860D01*
X1513850Y150410*
X1514910Y147020*
X1516270Y143710*
X1517920Y140450*
X1519880Y137270*
X1522140Y134150*
X1524700Y131100*
X1527560Y128120*
X1472440*
X1475300Y131100*
X1477860Y134150*
X1480120Y137270*
X1482080Y140450*
X1483730Y143710*
X1485090Y147020*
X1486150Y150410*
X1486900Y153860*
X1487350Y157370*
X1487500Y160950*
X1512500*
X1512650Y157370*
G37*
G36*
X1240640Y147960D02*
X1238080Y145160D01*
X1235970Y142320*
X1234290Y139430*
X1233070Y136500*
X1232280Y133530*
X1231940Y130510*
X1232040Y127460*
X1232580Y124360*
X1233570Y121210*
X1235000Y118030*
X1183510Y135750*
X1187070Y137490*
X1194270Y141640*
X1197910Y144030*
X1205250Y149460*
X1212700Y155760*
X1220240Y162920*
X1240640Y147960*
G37*
G54D12*
X850000Y379290D02*
X862720Y366580D01*
X750000Y418660D02*
Y525000D01*
Y398980D02*
Y418660D01*
X950000D02*
Y550000D01*
Y398980D02*
Y418660D01*
X2450000Y1574800D02*
Y1601020D01*
Y1448340D02*
Y1574800D01*
X2350000D02*
Y1601020D01*
Y1519330D02*
Y1574800D01*
X850000Y337950D02*
X907950Y280000D01*
X1500000Y550000D02*
X1551660D01*
X2450000Y1448340*
X1400000Y525000D02*
Y569330D01*
X2350000Y1519330*
X907950Y280000D02*
X2320000D01*
X1500000Y1180000D02*
Y1715000D01*
X1785000Y2000000D02*
X1800000D01*
X1500000Y1715000D02*
X1785000Y2000000D01*
X1400000Y1730000D02*
X1440000Y1770000D01*
X1400000Y1185000D02*
Y1730000D01*
X1440000Y1770000D02*
Y2000000D01*
X1100000Y1215000D02*
Y1740700D01*
X1140000Y1780700*
Y2000000*
X1200000Y1065000D02*
X1205000Y1060000D01*
X1200000Y1738200D02*
X1240000Y1778200D01*
X1200000Y1065000D02*
Y1738200D01*
X1240000Y1778200D02*
Y2000000D01*
X750000Y525000D02*
X1300000Y1075000D01*
Y1708200*
X1340000Y1748200D02*
Y2000000D01*
X1300000Y1708200D02*
X1340000Y1748200D01*
X1400000Y1185000D02*
X1405000Y1180000D01*
X1050000Y730000D02*
X1500000Y1180000D01*
X2260000Y240000D02*
X2400000Y100000D01*
X1150000Y240000D02*
X2260000D01*
X950000Y550000D02*
X1600000Y1200000D01*
Y1700000*
X1900000Y2000000*
X850000Y379290D02*
Y398980D01*
X2320000Y280000D02*
X2500000Y100000D01*
G54D20*
X1255000Y180000D02*
X1495000D01*
X1200000Y100000D02*
X1210280Y110280D01*
Y135280*
X1255000Y180000*
X1495000D02*
X1770000D01*
X1500000Y100000D02*
Y175000D01*
X1495000Y180000D02*
X1500000Y175000D01*
X1770000Y180000D02*
X1795000Y155000D01*
Y105000D02*
Y155000D01*
Y105000D02*
X1800000Y100000D01*
G54D21*
X2500000Y2000000D03*
X2400000D03*
X2300000D03*
X2100000D03*
X2000000D03*
X1900000D03*
X1800000D03*
X2200000D03*
X1800000Y100000D03*
X1700000D03*
X1600000D03*
X1400000D03*
X1300000D03*
X1200000D03*
X1100000D03*
X1500000D03*
X740000Y2000000D03*
X840000D03*
X940000D03*
X1140000D03*
X1240000D03*
X1340000D03*
X1440000D03*
X1540000D03*
X1640000D03*
X1040000D03*
X2500000Y100000D03*
X2400000D03*
X2300000D03*
X2100000D03*
X2000000D03*
X2200000D03*
G54D22*
X2150000Y1574800D03*
X2050000D03*
X1950000D03*
X1850000D03*
X1750000D03*
X1650000D03*
X1550000D03*
X1450000D03*
X1350000D03*
X1250000D03*
X1150000D03*
X1050000D03*
X950000D03*
X850000D03*
X750000D03*
X650000D03*
X2450000D03*
X2350000D03*
X2250000D03*
X850000Y418660D03*
X750000D03*
X650000D03*
X2450000D03*
X2350000D03*
X2250000D03*
X2150000D03*
X2050000D03*
X1950000D03*
X1850000D03*
X1750000D03*
X1650000D03*
X1550000D03*
X1450000D03*
X1350000D03*
X1250000D03*
X1150000D03*
X1050000D03*
X950000D03*
G54D23*
X2150000Y1627950D03*
X2050000D03*
X1950000D03*
X1850000D03*
X1750000D03*
X1650000D03*
X1550000D03*
X1450000D03*
X1350000D03*
X1250000D03*
X1150000D03*
X1050000D03*
X950000D03*
X850000D03*
X750000D03*
X650000D03*
X2450000D03*
X2350000D03*
X2250000D03*
X850000Y365510D03*
X750000D03*
X650000D03*
X2450000D03*
X2350000D03*
X2250000D03*
X2150000D03*
X2050000D03*
X1950000D03*
X1850000D03*
X1750000D03*
X1650000D03*
X1550000D03*
X1450000D03*
X1350000D03*
X1250000D03*
X1150000D03*
X1050000D03*
X950000D03*
G54D24*
X450000Y1565000D03*
X371260D03*
X450000Y1466580D03*
X371260D03*
G54D25*
X264570Y1752790D03*
Y1278780D03*
G54D26*
X402760Y353740D03*
X286610Y160830D03*
X166540Y353740D03*
G54D27*
X1500000Y550000D03*
X1400000Y525000D03*
X1100000Y1215000D03*
X1205000Y1060000D03*
X1405000Y1180000D03*
X1050000Y730000D03*
X1150000Y240000D03*
M02*